M48
;Layer_Color=9474304
;FILE_FORMAT=4:4
METRIC,LZ
;TYPE=PLATED
T1F00S00C0.2032
T2F00S00C0.2540
T3F00S00C0.2794
T4F00S00C0.4826
T5F00S00C1.0000
T7F00S00C1.0160
T8F00S00C1.0200
T9F00S00C1.5000
T10F00S00C3.7000
%
T01
X00693957Y00103391
X00686258Y00142507
X00679908Y00142253
X00679722Y0014946
X00686258
X00741387Y00107698
X00747778
Y00101094
X00741387
X00750531Y00113286
X00757214
X00776947Y00111508
X00787869Y00132844
X00807416Y00093485
X01001029Y00115501
X01022365Y00104579
X01020587Y00084846
Y00078163
X01026175Y0007541
Y00069019
X01032779
Y0007541
T02
X00012516Y00103124
X00065712Y00103924
X00081788Y00129758
X00100076Y00129504
X00115032Y0010004
X001143Y00066004
X00115316Y00039842
X00134366Y00053558
X00153162Y0006575
X00154432Y00039842
X00165862Y00035814
X00168656Y00052796
X00188393Y00049784
X001778Y0008353
X00191262Y0010004
X00203962Y00130302
X00219456Y00141986
X00238506Y0014351
X00244096Y00132296
X00255016Y00161254
X00244096Y00092164
X00223012Y00036752
X00229362Y00018106
X0009525Y00053558
X00071628Y00066258
X000762Y00179796
X00065786Y00187924
X00075692Y00201132
X00078698Y00222002
X00050923Y00222119
X00050038Y00238506
X00042031Y00241554
X00047752Y00254218
X00033782
X00036801Y00261426
X00037084Y00285968
X00062484Y00278384
X00084328Y00284988
Y00296926
X00083044Y00266406
X00083432Y00256406
X00065532Y00246634
X00103632Y00279654
X00142912Y00244602
X0015113Y00251426
X00140462Y00228346
X0012192Y00198592
X00193294Y00199822
X00187198Y00256286
X0020193Y00263652
Y00273304
X00264668Y00279872
Y00293116
X0025781Y00240248
X00238506
X00165862Y00137668
X00012516Y00189956
X00012954Y0021209
X00298704Y0022098
X00338836Y00201992
X00403644Y00236182
X00417106Y00256756
X00419864Y00279616
Y0029286
X00387896Y00256404
X00463042Y00221706
X00461224Y00193512
X004826Y00203164
X00525018Y00219166
X00537464Y00261366
X00533418Y00274048
X0051386Y00288736
X00489262Y00279204
X00566496Y00284114
X00589128Y00291302
X00605028Y00274066
Y00261366
X00582676Y00248884
X00588598Y00229076
X00586232Y0018767
X00554736Y00187162
X00623824
X0061976Y00206672
X0062976Y00207024
X00613156Y00164948
X0061341Y00155448
X00623316Y00144744
X00623824Y00122138
X00624332Y00095976
X00589026
X00588518Y00121122
X00554794Y00109808
X00554228Y00096484
X0053975Y00125666
X00487172Y00096774
X00467614Y0009525
X00427482Y001016
X00405892Y0013179
X0038354
X00303138Y0011352
X00313436Y00094724
X00272796Y0011176
X00656438Y00170754
X00702564Y00200116
X0072263Y00210276
X0072644Y00223266
X0072288Y00236184
X00726694Y00248666
Y00261366
X0073914Y0026289
X00742188Y00244312
X0076962Y0024482
X00801116Y00245074
X00804418Y0026289
X00789432Y0027276
X00787654Y00292064
X00764398Y00291148
X00763016Y0027276
X00746626Y00282118
X0072398Y0029083
X0072288Y00274284
X0068684Y00274066
X00686812Y00294136
X00673604
X00697484Y00291011
X00747482Y00199822
X00767294Y00190972
X00793496Y00207482
X00790448Y00139543
X00814324Y00126335
Y00112873
X00820674Y00102616
X00861836Y00128502
X0093472Y0010512
X00942086Y00094742
X00936534Y00074168
X00943484Y00017362
X00984413Y0001389
Y00007354
X0099162Y0000754
X00991366Y0001389
X01030482Y00021589
X01040388Y00135048
X01021Y00141696
X01007538Y0014195
X01007698Y00162698
X01028192Y00156682
X0099957Y00125302
X00866446Y00358468
X00857122Y00390272
X00823976Y00393918
Y00402844
X00818134Y00410936
X00806704
X0080687Y00382488
X00818134
X0082804Y00348198
X00754126Y00332994
X00719328Y00333756
X00733552Y0031115
X00773684
X00686876Y00321052
X00673604
X00699876Y0036102
Y00392944
X00693376
X00712876
X00725876
X00747482Y0039243
X00746506Y00430316
X00757214Y0045341
X00764466Y00481876
X0072398Y00456012
X00711557Y00455422
X00693674Y00454216
X00693166Y0046609
X0067437Y00427634
X00671811Y00387996
X0076454Y005842
X0076327Y00625312
X00796036Y00667476
X00781812Y00687542
X00736092Y0069059
X0082804Y00658622
Y00647192
X0086106Y00616966
X00855218Y00609854
X0084963Y00603504
X0090805
X00916432Y00609854
X0090043Y00616966
X00907796Y00647192
X00976846Y0069175
X00984212
X00548514Y00681482
X00543052Y0066265
X0051943Y00644616
X00474736Y00669498
X0044197Y00624794
X00442214Y0058547
X00444246Y00495554
X00426466Y0050292
Y00471678
X0042672Y00460756
X0042545Y0043561
X00409448Y00440944
X0039624Y00460756
X00387742Y00465736
X00387896Y0047752
X00375666Y00502666
X0035687Y00498094
X00352806Y0043688
X00355854Y00428244
X00345186Y00429514
X00338328Y00447802
X00330454Y00446278
X00332994Y0040132
X00318008Y00395986
X00300816Y00387176
X00295656Y0037973
X0029083Y00390906
X00284226Y00395986
X00275336Y00401066
X00281432Y00426466
X00351028Y0037719
X00332994Y0034671
X00377954Y00321018
X0038561Y00327404
X00392432Y00321018
X00405894Y00320764
X0039958Y00327658
X00419864Y0030527
X00444754Y00335788
X00448564Y0034417
X00488452Y0033655
Y0032385
X0048009Y0037592
X00504946
X00506984Y00385318
X0051181Y00402336
X00521208Y00401066
X00526542Y00377698
X00545084Y0033655
X00629332Y00342864
X00628128Y00310896
X00617474Y00298196
X00621538Y00377952
X00621792Y00394716
X00614426Y0040386
X0060452Y00400812
X00596138Y00413766
X00587502Y00433216
Y00446278
X00596226Y00452628
X00565658Y00452716
X0050337
X00457962Y00400812
X00586994Y00394716
X00643128Y0036576
X00640334Y00458942
X00644906Y00484342
X00604266Y0055042
X00578866Y00550164
Y00577342
X00604266
X00404114Y00678652
X00273304Y00659892
X00259334Y00692658
X0022733Y00682752
X00214178Y00636301
X0020066Y00632206
X00186944
X00193548Y00624794
X00245176Y00614426
X00244856Y0053773
X0022855Y0050927
X0021476Y00488326
X0018915Y00488326
X0018542Y00468976
X00191262Y00451612
X002014Y00435102
X002079Y00403606
X00198059Y00389382
X0016383Y0041529
X0015113Y0042164
X00147574Y00378206
X00126492Y00365724
X00108532Y00377482
X00107696Y0034824
X0007023Y00362078
X00027812Y00362332
X00016264Y0039134
X00015494Y00408432
Y00449432
X00028456Y00478462
X0004318Y00490474
X00090424Y0049247
X00097282Y00500344
X00105664Y00497586
X00118872Y00496162
X0012573Y00478536
X0014351Y00486162
X00121532Y00445836
X00106934Y00417322
X00073914Y00427736
X00066294Y00441452
X00068906Y0055938
X00085852Y00580644
X00122174Y0057785
X00119126Y00568706
X0017526Y0057277
X0016383Y00585978
X00127508Y0064008
X0015367Y00667984
X00143256Y00688812
X0002667Y00612902
X00019812Y0051816
X00011684Y00511302
X0020066Y00525371
X00253748Y00498312
X00252984Y00485612
X00253747Y00472786
X00252984Y00460298
X0024696Y00427228
X00233289Y00417737
X00265938Y00397002
X00260858Y0034671
X00252476Y00339344
X0025781Y00330164
X00244094Y00330418
X00230378Y00330164
X00237236Y00321274
X00250698Y0032102
X00264668
Y00305526
X00222758Y00321274
X001778Y0031623
X00140462Y00313418
X00131572Y00319786
X00140208Y00328676
X0007366Y00315468
X00062484Y00307594
X00054102Y00319496
X00033274Y00320258
X00017018Y0029845
X00133604Y00712434
X00132842Y0074774
Y007833
X00132334Y0081759
X00157734Y00802604
X00175006Y00819622
X00195188Y0081923
X00202692Y00842264
X00206248Y008722
X00224536Y00871728
X00246532Y0092141
X00260096Y00958088
X0023624Y0097282
X00225552Y00979424
X00214122Y00990818
X00233172Y01007836
X00251714Y00991326
X00250952Y01028918
X0021336Y01028664
X00175514Y0102841
X00157988Y01008598
X00175514Y00990056
X00194564Y01008852
Y00969482
X00176784Y00951448
X00157988Y00969482
X00120142
X00137922Y00951448
X00100584
X00067056
X0003556
X00051562Y00969482
X00084074
X001016Y00992088
X00120142Y01008598
X00137668Y00991072
X0013716Y01029172
X0010033Y01028918
X00063754Y00916396
X00042926Y00896838
X00028456Y00865088
Y00827496
X00018288Y00928588
X00192532Y00920496
X00214884Y00951448
X002383Y00758202
X00220448Y00719292
X00157226Y00732754
X00157734Y00767806
X00277368Y0078105
Y00732754
X00307594Y00753223
X00308102Y00834898
X00275844Y00830326
X00358394Y00847308
X0035941Y0081378
X00376936Y0083029
X00397002Y00847308
X0039751Y0081251
X00417068Y00829274
X0043688Y00847816
X00438404Y00810986
X0046101Y00828512
X0047879Y00847816
X00481584Y00809716
X00501396Y00828512
X00523758Y00814288
Y00843534
X00529844Y0085217
X0055055Y00844682
X00569092
X0056769Y0085479
X00601218Y00869152
X006096Y00825754
X00602234Y00817336
X00616966Y00815848
X00614172Y00773938
X00620776Y00753618
X00592836Y00750316
X00596804Y00738124
X00605654Y00721106
X00594396Y00694944
X0055024Y00709676
X00559156Y00730606
X00542544Y00732282
X00559366Y00758408
X00586232Y00760984
X00524764Y00758444
X0049403Y00720344
X00466598Y00745896
X00463042Y00786094
X00439166Y0076679
X00398272Y00769076
X00418048Y00788888
X0037846Y0078965
X00380492Y00730722
X00382524Y00696686
X00403606Y0071218
X00423164Y00695162
X00459486
X00559308Y0080772
X00648208Y00843244
X00646938Y0088744
X0064643Y00930366
X00636143Y00921893
X00624586Y00921258
X00324866Y00919226
X00280416Y00944372
X00273304Y00950722
X00266446Y009652
X00697484Y00969228
X0067945Y00941542
X0072136
X00764466
X00804672
X00790956Y00913856
X00805434Y00887694
X0081915Y00878586
X0083058Y0088646
X00830834Y00863854
X00845303Y00871692
X00875538Y0088646
X00866191Y00904763
X00886968Y00904494
X00919988Y008976
X00941956Y00912078
X0094168Y00927724
X00953864Y00945352
X00919988Y00947246
X00976376Y00975104
X00976376Y00981962
X00983742
X00983742Y00975104
X00983742Y00896618
X00983742Y0088976
X00976376
X00976376Y00896618
X0094168Y00878078
X00941956Y00862432
X0094194Y00827354
X00942216Y00811708
X0097663Y00811274
X0097663Y00804416
X00983996
X00983996Y00811274
X0094295Y0077329
X00943226Y00757644
X00942062Y00721766
X00942338Y0070612
X00976846Y00698608
X00984212
X00983972Y00719148
X00983972Y00726006
X00976606
X00976606Y00719148
X0092037Y00741288
X00921258Y00793242
X00920248Y00846876
X00871728Y00844042
X00830834Y00830072
X00812292Y00832068
X00769366Y0083156
X00724154Y00831052
X00680974Y00832576
X00702056Y00808446
X00748284Y00806922
X00726186Y00782792
X00771398Y00781268
X0075184Y00760186
X00792988Y00757138
X0079248Y00803874
X00791972Y0085823
X00747268Y00857722
X00700532Y00858738
X0067945Y00887186
X00722884
X0076708Y00886968
X0074549Y00913348
X00700532Y00913856
X00743712Y00967704
X00787654Y00969228
X00829818Y00909574
X00845058Y00813272
X00874014Y00750788
X00862814Y00718784
X00814832Y00719582
X00703072Y0070329
T03
X00694436Y00620268
X00820928Y0060545
X00802752Y00586994
X00481452Y00587248
X00499628Y00606212
X00373136Y0062103
X00178562Y00604942
X00178816Y00593852
X0005207Y0061976
T04
X00211836Y00214436
X00368592Y0021418
X00879348Y0036703
X00901954Y00367284
X00912114Y00364744
X00922426Y00398932
X00818388Y00429006
X00368592Y0037158
X00211836Y00371836
T05
X00252222Y00030988
Y00056388
X00846582Y00090932
Y00116332
X00642366Y00996442
X00616966
X00591566
X00566166
X00540766
X00515366
X00489966
X00464566
X00439166
X00413766
X00388366
X00362966
X00337566
X00312166
X00286766
Y01021842
X00312166
X00337566
X00362966
X00388366
X00413766
X00439166
X00464566
X00489966
X00515366
X00540766
X00566166
X00591566
X00616966
X00642366
X00667766
Y00996442
X00693166
X00718566
X00743966
X00769366
X00794766
X00820166
X00845566
Y01021842
X00820166
X00794766
X00769366
X00743966
X00718566
X00693166
T07
X00286766Y00031242
Y00056642
X00312166
X00337566
X00362966
X00388366
X00413766
X00439166
X00464566
X00489966
X00515366
X00540766
X00566166
X00591566
X00616966
X00642366
Y00031242
X00616966
X00591566
X00566166
X00540766
X00515366
X00489966
X00464566
X00439166
X00413766
X00388366
X00362966
X00337566
X00312166
X00667766
Y00056642
X00693166
X00718566
X00743966
X00769366
X00794766
X00820166
X00845566
Y00031242
X00820166
X00794766
X00769366
X00743966
X00718566
X00693166
Y00513842
Y00539242
X00718566
X00743966
X00769366
X00794766
X00820166
X00845566
Y00513842
X00820166
X00794766
X00769366
X00743966
X00718566
X00667766
Y00539242
X00642366
X00616966
X00591566
Y00513842
X00616966
X00642366
X00616966Y00482092
X00591566
X00566166
X00540766
X00515366
X00489966
Y00513842
Y00539242
X00515366
X00540766
X00566166
Y00513842
X00540766
X00515366
X00464566
Y00539242
X00439166
Y00513842
X00413766
Y00539242
X00388366
X00362966
X00337566
X00312166
X00286766
Y00513842
X00312166
X00337566
X00362966
X00388366
T08
X00320558Y00591058
Y00616458
Y00641858
Y00667258
Y00692658
X00641858Y00691896
Y00666496
Y00641096
Y00615696
Y00590296
X00182118Y00540258
X00156718
X00131318
X00105918
X00080518
X00055118
X00029718
X00320558Y00718058
Y00743458
X00641858Y00742696
Y00717296
T09
X00131972Y00173736
X00181972
X00974744Y00393446
X01024744
X01023366Y00580898
X00973366
X0097322Y00666242
X0102322
X0102345Y00751408
X0097345
X00973474Y00836676
X01023474
X0102322Y0092202
X0097322
Y01007364
X0102322
T10
X00039999Y0004
X00897
X00039999Y0101
X00897Y0101
M30
