M48
;Layer_Color=9474304
;FILE_FORMAT=4:4
METRIC,LZ
;TYPE=PLATED
T5F00S00C0.4000
T8F00S00C1.0000
%
G90
G05
T05
G00X00668575Y00664707
M15
G01Y00675707
M16
G00X00806055Y00664707
M15
G01Y00675707
M16
G00X00183388Y0067632
M15
G01Y0068732
M16
G00X00045908Y0067632
M15
G01Y0068732
M16
G00X00045908Y0089239
M15
G01Y0090339
M16
G00X00183388Y0089239
M15
G01Y0090339
M16
G00X00668575Y00880777
M15
G01Y00891777
M16
G00X00806055Y00880777
M15
G01Y00891777
M16
T08
G00X00913102Y0049092
M15
G01Y0051592
M16
G00X00973102Y0049342
M15
G01Y0051342
M16
G00X00953102Y0055042
M15
G01X00933102
M16
M17
M30
