M48
;Layer_Color=9474304
;FILE_FORMAT=4:4
METRIC,LZ
;TYPE=PLATED
T1F00S00C0.2000
T2F00S00C0.2032
T3F00S00C0.2540
T4F00S00C0.2794
T6F00S00C0.4826
T7F00S00C1.0000
T9F00S00C1.0160
T10F00S00C1.0200
T11F00S00C1.5000
T12F00S00C3.7000
%
T01
X00670138Y00657295
X00676842Y00672543
X00670809Y00684357
X00696117Y00688382
X00704315Y00687078
X00714208Y00674304
X00719318Y00670199
X00755009Y00673758
X0076289Y00673974
X00767445Y00668836
X00763218Y00684902
X00773137Y00691558
X00785424Y00691062
X00796731Y00657296
X00812398Y00664249
X00661257Y00665422
X00189731Y00675862
X00174064Y00668909
X00144778Y00680449
X00140223Y00685587
X00132342Y00685371
X00096651Y00681812
X00091541Y00685917
X00054175Y00684156
X00047471Y00668908
X0003859Y00677035
X00048142Y0069597
X0004898Y00709207
X00047931Y00720433
X00086766Y00721023
X00094766
X00102766
Y00729023
X00094766Y00729023
X00094766Y00737023
X00086766
Y00729023
Y00745023
X00094766Y00745023
X00102766
X00110766
X00110766Y00753023
X00118766
Y00745023
Y00737023
Y00729023
X00110766Y00729023
Y00737023
X00102766
X00102766Y00753023
X00094766Y00753023
X00086766
X00071735Y00772466
X00063396Y00773056
X00062534Y00779758
X00055447Y00782464
X00051325Y00799942
X00054509Y00807733
X0006339Y00813011
X00068417Y00807314
X00063389Y00802204
X00072605Y00798853
X00083748Y00799355
X00090865Y00785987
X00109034Y00774227
X00122335Y007743
X00128546Y00768352
X00141348Y00766023
X0014634Y00731073
X00142113Y00720583
X00138414Y00714692
X00129118Y00706902
X00140551Y00696515
X0015047Y00703171
X00162757Y00702675
X00156812Y00717166
X00118766Y00721023
X00110766
X00081648Y00698691
X0007345Y00699995
X00074533Y00816446
X00068668Y00821724
X00063306Y00825997
X00061127Y00835213
X00053587Y00838062
X00053588Y00845183
X00044204Y0084778
X00044203Y00839402
X00041187Y0083027
X00050655Y00829684
X00053588Y00822143
X00047974Y00816111
X00039763Y00819714
X00044292Y00857003
Y00871246
X00044125Y00882473
X00054766Y00892443
X00065901Y00893693
X00077295Y00895033
X00082156Y00887409
X00091414Y00887242
X00091246Y00894615
X00092461Y00900814
X0009355Y00905925
X00093215Y00911371
X00093299Y00917151
X00093634Y00923686
X00083664Y00919162
X00083915Y00911035
X00082407Y00903328
X00071097Y00907517
X00061377Y00911622
X00060038Y00920168
X00073192Y0092067
X00076501Y00935422
X00076669Y00950168
X00086849Y00949833
X00060164Y00950084
X00060415Y00936009
X00044581Y00937182
X00044748Y0095
X00044287Y00920168
X00044789Y00911454
X00105029Y00911789
X00105113Y00906595
X00104694Y00901065
X00121869Y00908941
X00136028Y00909694
X0014139Y00916648
X00154292Y00916313
X00149265Y00909275
X00161832Y00904417
X00164429Y0089252
X00174321Y00894705
X00171802Y0088565
X00167275Y00878277
X00168618Y0086772
X00156555Y00874508
X001436Y0086968
X00135526Y00853897
X00132425Y00827254
X00120276Y00827757
X00115837Y00822018
X00111111Y00817251
X00111815Y00805807
X00094137Y0081787
X00086346Y00817703
X00094681Y00836388
X00095223Y00852652
X00095223Y00858385
Y00864118
X00101092
Y00858385
X00101092Y00852652
X00106961
X00106961Y00858385
Y00864118
X00089354
Y00858385
X00089354Y00852652
X00083485Y00852652
Y00858385
Y00864118
X00076339Y00871623
X00068835Y00865501
X00068923Y00858345
X00072361Y00843175
X00149934Y00835295
X0016468Y00822898
X00157811Y00813808
X00145368Y00811715
X0017222Y00804968
X00173477Y00796423
X00181814Y00798643
X00189731Y00804633
X00183112Y00823066
X00189396Y00835047
X00189228Y00867217
X00178755Y00878947
X00166063Y00850042
X00168032Y00918827
X00167864Y00929802
X00168032Y00940274
X0016778Y00951083
X00183279Y0095058
X00183531Y00940861
X00183364Y00930388
X00183699Y00917905
X00134519Y00892101
X00126141Y00892855
X0018085Y00785112
X0018018Y00772127
X00181814Y00760104
X00182023Y00746824
X0066243Y00808101
X00670641Y00804498
X00676255Y0081053
X00673322Y00818071
X00663854Y00818657
X0066687Y00827789
X00666871Y00836167
X00666959Y0084539
Y00859633
X00666792Y0087086
X00677433Y0088083
X00688568Y0088208
X00699962Y0088342
X00704823Y00875796
X00714081Y00875629
X00713913Y00883002
X00715128Y00889201
X00716217Y00894312
X00715882Y00899758
X00715966Y00905538
X00716301Y00912073
X00706331Y00907549
X00706582Y00899422
X00705074Y00891715
X00693764Y00895904
X00684044Y00900009
X00682705Y00908555
X00695859Y00909057
X00699168Y00923809
X00699336Y00938555
X00709516Y0093822
X00682831Y00938471
X00683082Y00924396
X00667248Y00925569
X00667415Y00938387
X00666954Y00908555
X00667456Y00899841
X00727696Y00900176
X0072778Y00894982
X00727361Y00889452
X00744536Y00897328
X00758695Y00898081
X00764057Y00905035
X00776959Y009047
X00771932Y00897662
X00784499Y00892804
X00787096Y00880907
X00796988Y00883092
X00794469Y00874037
X00789942Y00866664
X00791285Y00856107
X00779222Y00862895
X00766267Y00858067
X00758193Y00842284
X00755092Y00815641
X00742943Y00816144
X00738504Y00810405
X00733778Y00805638
X00734482Y00794194
X00716804Y00806257
X00709013Y0080609
X006972Y00804833
X00691335Y00810111
X00685973Y00814384
X00683794Y008236
X00676254Y00826449
X00676255Y0083357
X00695028Y00831562
X0069159Y00846732
X00691502Y00853888
X00699006Y0086001
X00706152Y00852505
Y00846772
Y00841039
X00712021Y00841039
X00712021Y00846772
Y00852505
X0071789
Y00846772
X0071789Y00841039
X00723759
X00723759Y00846772
Y00852505
X00729628
Y00846772
X00729628Y00841039
X00717348Y00824775
X00706415Y00787742
X00695272Y0078724
X00686056Y00790591
X00691084Y00795701
X00686057Y00801398
X00677176Y0079612
X00673992Y00788329
X00678114Y00770851
X00685201Y00768145
X00686063Y00761443
X00694402Y00760853
X00713532Y00774374
X00731701Y00762614
X00745002Y00762687
X00751213Y00756739
X00764015Y0075441
X00741433Y0074141
X00733433
X00733433Y0073341
X00725433Y0073341
X00717433Y0073341
X00717433Y0074141
X00709433
Y0073341
Y0072541
Y0071741
X00717433Y0071741
X00717433Y0072541
X00725433Y0072541
X00733433
Y0071741
X00741433Y0071741
Y0072541
Y0073341
Y0070941
X00733433
X00725433Y0070941
X00717433Y0070941
X00709433
X00725433Y0071741
Y0074141
X00769007Y0071946
X0076478Y0070897
X00761081Y00703079
X00751785Y00695289
X00779479Y00705553
X0080469Y00735211
X00804481Y00748491
X00802847Y00760514
X00803517Y00773499
X00804481Y0078703
X00796144Y0078481
X00794887Y00793355
X00812398Y0079302
X00805779Y00811453
X00812063Y00823434
X00811895Y00855604
X00801422Y00867334
X0078873Y00838429
X00787347Y00811285
X00780478Y00802195
X00768035Y00800102
X00772601Y00823682
X00757186Y00880488
X00748808Y00881242
X00790699Y00907214
X00790531Y00918189
X00790699Y00928661
X00790447Y0093947
X00805946Y00938967
X00806198Y00929248
X00806031Y00918775
X00806366Y00906292
X00670598Y0070882
X00671647Y00697594
T02
X00693957Y00103391
X00686258Y00142507
X00679908Y00142253
X00679722Y0014946
X00686258
X00741387Y00107698
X00747778
Y00101094
X00741387
X00750531Y00113286
X00757214
X00776947Y00111508
X00787869Y00132844
X00807416Y00093485
X01001029Y00115501
X01022365Y00104579
X01020587Y00084846
Y00078163
X01026175Y0007541
Y00069019
X01032779
Y0007541
X00827783Y00669048
X00826252Y00677929
Y00690629
X00733345Y00641936
X00682545Y00641936
X00648039Y00690629
X00203584Y00689542
X00205116Y00680661
X00110678Y00653549
X00059878Y0065355
X00025372Y00702242
Y00714942
X00025372Y00727642
Y00765742
X00025372Y00791142
X00203585
X00203585Y00778442
X00203585Y00765742
Y00753042
Y00740342
X00203579Y00714936
X00203584Y00702242
X00648039Y00703329
X00648039Y00716029
Y00754129
X00648039Y00779529
X00826252
X00826252Y00766829
X00826252Y00754129
Y00741429
Y00728729
X00826246Y00703323
T03
X00012516Y00103124
X00065712Y00103924
X00081788Y00129758
X00100076Y00129504
X00115032Y0010004
X001143Y00066004
X00115316Y00039842
X00134366Y00053558
X00153162Y0006575
X00154432Y00039842
X00165862Y00035814
X00168656Y00052796
X00188393Y00049784
X001778Y0008353
X00191262Y0010004
X00203962Y00130302
X00219456Y00141986
X00238506Y0014351
X00244096Y00132296
X00255016Y00161254
X00244096Y00092164
X00223012Y00036752
X00229362Y00018106
X0009525Y00053558
X00071628Y00066258
X000762Y00179796
X00065786Y00187924
X00075692Y00201132
X00078698Y00222002
X00050923Y00222119
X00050038Y00238506
X00042031Y00241554
X00047752Y00254218
X00033782
X00036801Y00261426
X00037084Y00285968
X00062484Y00278384
X00084328Y00284988
Y00296926
X00083044Y00266406
X00083432Y00256406
X00065532Y00246634
X00103632Y00279654
X00142912Y00244602
X0015113Y00251426
X00140462Y00228346
X0012192Y00198592
X00193294Y00199822
X00187198Y00256286
X0020193Y00263652
Y00273304
X00264668Y00279872
Y00293116
X0025781Y00240248
X00238506
X00165862Y00137668
X00012516Y00189956
X00012954Y0021209
X00298704Y0022098
X00338836Y00201992
X00403644Y00236182
X00417106Y00256756
X00419864Y00279616
Y0029286
X00387896Y00256404
X00463042Y00221706
Y00211328
X00461224Y00193512
X00507486Y00218802
X00519932Y00261002
X00515886Y00273684
X00507492Y00287274
X00482912Y00279204
X00548964Y0028375
X00605028Y00274066
Y00261366
X00582676Y00248884
X00588598Y00229076
X00586232Y0018767
X00554736Y00187162
X00623824
X0061976Y00206672
X0062976Y00207024
X00613156Y00164948
X0061341Y00155448
X00623316Y00144744
X00623824Y00122138
X00624332Y00095976
X00589026
X00588518Y00121122
X00554794Y00109808
X00554228Y00096484
X0053975Y00125666
X00487172Y00096774
X00467614Y0009525
X00427482Y001016
X00405892Y0013179
X0038354
X00303138Y0011352
X00313436Y00094724
X00272796Y0011176
X00656438Y00170754
X00702564Y00200116
X0072263Y00210276
X0072644Y00223266
X0072288Y00236184
X00726694Y00248666
Y00261366
X0073914Y0026289
X00742188Y00244312
X0076962Y0024482
X00801116Y00245074
X00804418Y0026289
X00789432Y0027276
X00787654Y00292064
X00764398Y00291148
X00763016Y0027276
X00746626Y00282118
X0072398Y0029083
X0072288Y00274284
X0068684Y00274066
X00686812Y00294136
X00673604
X00697484Y00291011
X00747482Y00199822
X00767294Y00190972
X00793496Y00207482
X00790448Y00139543
X00814324Y00126335
Y00112873
X00820674Y00102616
X00861836Y00128502
X0093472Y0010512
X00942086Y00094742
X00936534Y00074168
X00943484Y00017362
X00984413Y0001389
Y00007354
X0099162Y0000754
X00991366Y0001389
X01030482Y00021589
X01040388Y00135048
X01021Y00141696
X01007538Y0014195
X01007698Y00162698
X01028192Y00156682
X0099957Y00125302
X00866446Y00358468
X00857122Y00390272
X00823976Y00393918
Y00402844
X00818134Y00410936
X00806704
X0080687Y00382488
X00818134
X0082804Y00348198
X00754126Y00332994
X00719328Y00333756
X00733552Y0031115
X00773684
X00686876Y00321052
X00673604
X00699876Y0036102
Y00392944
X00693376
X00712876
X00725876
X00747482Y0039243
X00746506Y00430316
X00757214Y0045341
X00764466Y00481876
X0072398Y00456012
X00711557Y00455422
X00693674Y00454216
X00693166Y0046609
X0067437Y00427634
X00671811Y00387996
X0076454Y005842
X0076327Y00625312
X00828548Y00630428
Y00641882
X0086106Y00616966
X00855218Y00609854
X0084963Y00603504
X0090805
X00916432Y00609854
X0090043Y00616966
X00907796Y00647192
X00976846Y0069175
X00984212
X0058293Y0058801
X00568198Y00592074
X00542798
X00489204Y00582676
X00411232Y00610786
X00448553Y00651256
X00474415Y00693925
X00309432Y00667689
X00297434Y00633984
X00288495Y00625602
X00268418Y00625223
X00266446Y0059944
X0027686Y00592328
X00276815Y00572725
X00266446
X00306324Y00618998
X00277876Y00692658
X00271526Y00435102
X00283718Y0040894
X00284226Y00395986
X0029083Y00390906
X00300816Y00387176
X00295656Y0037973
X00318008Y00395986
X00332994Y0040132
X00345186Y00429514
X00355854Y00428244
X00352806Y0043688
X00338328Y00447802
X00330454Y00446278
X00387742Y00465736
X00387896Y0047752
X0039624Y00460756
X0042672
X00426466Y00471678
Y0050292
X00444246Y00495554
X00375666Y00502666
X0035687Y00498094
X00409448Y00440944
X0042545Y0043561
X00457962Y00400812
X0048009Y0037592
X00504946
X00506984Y00385318
X0051181Y00402336
X00521208Y00401066
X00526542Y00377698
X00538734Y0033655
X00482102
Y0032385
X00444754Y00335788
X00448564Y0034417
X0039958Y00327658
X00405894Y00320764
X00392432Y00321018
X0038561Y00327404
X00377954Y00321018
X00419864Y0030527
X00332994Y0034671
X00351028Y0037719
X0050337Y00452716
X00565658
X00587502Y00446278
Y00433216
X00596138Y00413766
X0060452Y00400812
X00614426Y0040386
X00621792Y00394716
X00621538Y00377952
X0060579Y00371154
X00570738Y00394716
X00596226Y00452628
X00640334Y00458942
X00644906Y00484342
X00604266Y0055042
X00578866Y00550164
X00576326Y00314452
X00588874Y00300954
X00622098Y00320548
X00659718Y00345898
X00260858Y0034671
X00252476Y00339344
X0025781Y00330164
X00244094Y00330418
X00230378Y00330164
X00237236Y00321274
X00250698Y0032102
X00264668
Y00305526
X00222758Y00321274
X001778Y0031623
X00140462Y00313418
X00131572Y00319786
X00140208Y00328676
X00126492Y00365724
X00108532Y00377482
X00107696Y0034824
X0007023Y00362078
X00027812Y00362332
X00016264Y0039134
X00015494Y00408432
Y00449432
X00028456Y00478462
X0004318Y00490474
X00090424Y0049247
X00097282Y00500344
X00105664Y00497586
X00118872Y00496162
X0012573Y00478536
X0014351Y00486162
X0018915Y00488326
X0018542Y00468976
X00191262Y00451612
X002014Y00435102
X002079Y00403606
X00198059Y00389382
X0016383Y0041529
X0015113Y0042164
X00147574Y00378206
X00106934Y00417322
X00121532Y00445836
X00066294Y00441452
X00073914Y00427736
X0007366Y00315468
X00062484Y00307594
X00054102Y00319496
X00033274Y00320258
X00019812Y0051816
X00011684Y00511302
X00068906Y0055938
X00085852Y00580644
X00122174Y0057785
X00119126Y00568706
X00163068Y00579374
X00176386Y00584708
X0021373Y0060071
X00217424Y00630428
X0020066Y00632206
X00186944
X00120904Y00630428
X0002667Y00612902
X00244094Y0059699
X00257765Y00606298
X0025781Y00572725
X00244094Y00569815
X00214214Y00563626
X0021476Y00488326
X00252984Y00485612
X00253748Y00498312
X0024323Y00513086
X00253747Y00472786
X00252984Y00460298
X0024696Y00427228
X00233289Y00417737
X00260858Y00396494
X00245942Y00691445
X00228854Y0068453
X0023906Y00727985
X00256842Y00759462
X00215646Y00785987
X0021373Y0081923
X00221234Y00842264
X0022479Y008722
X00243078Y00871728
X00265074Y0092141
X00211074Y00920496
X00213106Y00969482
X00214122Y00990818
X00233172Y01007836
X00251714Y00991326
X00244094Y00979424
X00254782Y0097282
X00233426Y00951448
X00192786Y00973074
X00166878Y00973582
X00142911
X00118766
X00125941Y00990818
X00104123
X00081342
X00092461Y00973582
X00066856
X0002794Y0096275
X00021545Y0093853
X00020548Y00916313
X00019815Y00896366
X00022664Y00872736
X00120142Y01008598
X0013716Y01029172
X0010033Y01028918
X00175514Y0102841
X00157988Y01008598
X001501Y00991326
X00178755Y00991635
X00194564Y01008852
X0021336Y01028664
X00250952Y01028918
X00284988Y009652
X00278638Y00958088
X00291846Y00950722
X00298958Y00944372
X00328422Y00918827
X00328919Y0087881
X00329498Y00833507
X00294386Y00830326
X0029591Y0078105
X0032924Y00790334
X00329498Y0075133
X00328919Y00712567
X00359156Y0073152
X0029591Y00732754
X00473202Y00752856
X0047498Y00800862
X00506783Y00838962
X00578104Y0078867
X00584708Y0076835
X00601218Y00869152
X0061468Y0089027
X00624092
X00624586Y00921258
X00636143Y00921893
X00645331Y00861122
X00697484Y00969228
X00743712Y00967704
X00787654Y00969228
X00829818Y00909574
X00866191Y00904763
X00886968Y00904494
X00875538Y0088646
X00845303Y00871692
X00830834Y00863854
Y00830072
X00845058Y00813272
X00836168Y00774374
X00874014Y00750788
X00862814Y00718784
X0092037Y00741288
X00943226Y00757644
X0094295Y0077329
X00942216Y00811708
X0094194Y00827354
X00941956Y00862432
X0094168Y00878078
X00941956Y00912078
X0094168Y00927724
X00953864Y00945352
X00919988Y00947246
Y008976
X00920248Y00846876
X00871728Y00844042
X00921258Y00793242
X0097663Y00804416
X0097663Y00811274
X00983996
X00983996Y00804416
X00983972Y00726006
X00983972Y00719148
X00976606
X00976606Y00726006
X00976846Y00698608
X00984212
X00942338Y0070612
X00942062Y00721766
X00976376Y0088976
X00976376Y00896618
X00983742
X00983742Y0088976
Y00975104
X00983742Y00981962
X00976376
X00976376Y00975104
T04
X00694436Y00620268
X0080645Y00594899
X00802752Y00586994
X00178816Y00593852
X00178562Y00604942
X0005207Y0061976
T06
X00211836Y00214436
X00368592Y0021418
X00879348Y0036703
X00901954Y00367284
X00912114Y00364744
X00922426Y00398932
X00818388Y00429006
X00368592Y0037158
X00211836Y00371836
T07
X00252222Y00030988
Y00056388
X00846582Y00090932
Y00116332
X00642366Y00996442
X00616966
X00591566
X00566166
X00540766
X00515366
X00489966
X00464566
X00439166
X00413766
X00388366
X00362966
X00337566
X00312166
X00286766
Y01021842
X00312166
X00337566
X00362966
X00388366
X00413766
X00439166
X00464566
X00489966
X00515366
X00540766
X00566166
X00591566
X00616966
X00642366
X00667766
Y00996442
X00693166
X00718566
X00743966
X00769366
X00794766
X00820166
X00845566
Y01021842
X00820166
X00794766
X00769366
X00743966
X00718566
X00693166
T09
X00286766Y00031242
Y00056642
X00312166
X00337566
X00362966
X00388366
X00413766
X00439166
X00464566
X00489966
X00515366
X00540766
X00566166
X00591566
X00616966
X00642366
Y00031242
X00616966
X00591566
X00566166
X00540766
X00515366
X00489966
X00464566
X00439166
X00413766
X00388366
X00362966
X00337566
X00312166
X00667766
Y00056642
X00693166
X00718566
X00743966
X00769366
X00794766
X00820166
X00845566
Y00031242
X00820166
X00794766
X00769366
X00743966
X00718566
X00693166
Y00513842
Y00539242
X00718566
X00743966
X00769366
X00794766
X00820166
X00845566
Y00513842
X00820166
X00794766
X00769366
X00743966
X00718566
X00667766
Y00539242
X00642366
X00616966
X00591566
Y00513842
X00616966
X00642366
X00616966Y00482092
X00591566
X00566166
X00540766
X00515366
X00489966
Y00513842
Y00539242
X00515366
X00540766
X00566166
Y00513842
X00540766
X00515366
X00464566
Y00539242
X00439166
Y00513842
X00413766
Y00539242
X00388366
X00362966
X00337566
X00312166
X00286766
Y00513842
X00312166
X00337566
X00362966
X00388366
T10
X0060579Y00605028
Y00630428
Y00655828
Y00681228
X00182118Y00540258
X00156718
X00131318
X00105918
X00080518
X00055118
X00029718
X0060579Y00706628
Y00732028
Y00757428
T11
X00131972Y00173736
X00181972
X00974744Y00393446
X01024744
X01023366Y00580898
X00973366
X0097322Y00666242
X0102322
X0102345Y00751408
X0097345
X00973474Y00836676
X01023474
X0102322Y0092202
X0097322
Y01007364
X0102322
T12
X00039999Y0004
X00897
X00039999Y0101
X00897Y0101
M30
