G04 Layer_Color=16711935*
%FSLAX44Y44*%
%MOMM*%
G71*
G01*
G75*
%ADD145C,1.7032*%
%ADD146R,1.7032X1.7032*%
%ADD147R,1.9032X1.9032*%
%ADD148C,1.9032*%
%ADD149C,2.5032*%
%ADD150R,2.5032X2.5032*%
%ADD151C,2.0828*%
%ADD152R,2.0828X2.0828*%
%ADD153C,1.7332*%
%ADD154R,1.7332X1.7332*%
%ADD155R,1.7332X1.7332*%
%ADD156R,1.7032X4.2192*%
%ADD157R,4.2192X1.7032*%
%ADD158R,1.7032X4.7192*%
%ADD159C,5.2032*%
%ADD160C,0.0508*%
D145*
X286766Y996442D02*
D03*
X312166D02*
D03*
X337566D02*
D03*
X362966D02*
D03*
X388366D02*
D03*
X413766D02*
D03*
X439166D02*
D03*
X464566D02*
D03*
X489966D02*
D03*
X515366D02*
D03*
X540766D02*
D03*
X566166D02*
D03*
X591566D02*
D03*
X616966D02*
D03*
X642366D02*
D03*
X667766D02*
D03*
X693166D02*
D03*
X718566D02*
D03*
X743966D02*
D03*
X769366D02*
D03*
X794766D02*
D03*
X820166D02*
D03*
X845566D02*
D03*
X286766Y1021842D02*
D03*
X312166D02*
D03*
X337566D02*
D03*
X362966D02*
D03*
X388366D02*
D03*
X413766D02*
D03*
X439166D02*
D03*
X464566D02*
D03*
X489966D02*
D03*
X515366D02*
D03*
X540766D02*
D03*
X566166D02*
D03*
X591566D02*
D03*
X616966D02*
D03*
X642366D02*
D03*
X667766D02*
D03*
X693166D02*
D03*
X718566D02*
D03*
X743966D02*
D03*
X769366D02*
D03*
X794766D02*
D03*
X820166D02*
D03*
D146*
X845566D02*
D03*
D147*
X846582Y90932D02*
D03*
X252222Y56388D02*
D03*
D148*
X846582Y116332D02*
D03*
X252222Y30988D02*
D03*
D149*
X1024744Y393446D02*
D03*
X973220Y922020D02*
D03*
X131972Y173736D02*
D03*
X973220Y666242D02*
D03*
X973474Y836676D02*
D03*
X973220Y1007364D02*
D03*
X973450Y751408D02*
D03*
X973366Y580898D02*
D03*
D150*
X974744Y393446D02*
D03*
X1023220Y922020D02*
D03*
X181972Y173736D02*
D03*
X1023220Y666242D02*
D03*
X1023474Y836676D02*
D03*
X1023220Y1007364D02*
D03*
X1023450Y751408D02*
D03*
X1023366Y580898D02*
D03*
D151*
X820166Y539242D02*
D03*
X845566Y513842D02*
D03*
X794766Y539242D02*
D03*
X743966D02*
D03*
X769366D02*
D03*
X820166Y513842D02*
D03*
X769366D02*
D03*
X794766D02*
D03*
X743966D02*
D03*
X718566Y539242D02*
D03*
X693166Y513842D02*
D03*
X667766Y539242D02*
D03*
X693166D02*
D03*
X591566D02*
D03*
X642366D02*
D03*
X667766Y513842D02*
D03*
X616966Y539242D02*
D03*
X718566Y513842D02*
D03*
X642366D02*
D03*
X616966D02*
D03*
X591566D02*
D03*
Y482092D02*
D03*
X820166Y56642D02*
D03*
X769366D02*
D03*
X794766D02*
D03*
X743966D02*
D03*
X845566Y31242D02*
D03*
X794766D02*
D03*
X820166D02*
D03*
X769366D02*
D03*
X693166Y56642D02*
D03*
X718566D02*
D03*
X667766D02*
D03*
X642366D02*
D03*
X591566D02*
D03*
X616966D02*
D03*
X591566Y31242D02*
D03*
X718566D02*
D03*
X743966D02*
D03*
X693166D02*
D03*
X642366D02*
D03*
X667766D02*
D03*
X616966D02*
D03*
X566166Y539242D02*
D03*
X540766D02*
D03*
X566166Y513842D02*
D03*
X515366Y539242D02*
D03*
X540766Y513842D02*
D03*
X489966Y539242D02*
D03*
X464566D02*
D03*
X439166D02*
D03*
X515366Y513842D02*
D03*
X540766Y482092D02*
D03*
X566166D02*
D03*
X515366D02*
D03*
X489966Y513842D02*
D03*
X439166D02*
D03*
X489966Y482092D02*
D03*
X464566Y513842D02*
D03*
X388366Y539242D02*
D03*
X413766D02*
D03*
X362966D02*
D03*
X312166D02*
D03*
X337566D02*
D03*
X286766D02*
D03*
X388366Y513842D02*
D03*
X413766D02*
D03*
X362966D02*
D03*
X312166D02*
D03*
X337566D02*
D03*
X286766D02*
D03*
X540766Y56642D02*
D03*
X566166D02*
D03*
X489966D02*
D03*
X515366D02*
D03*
X464566D02*
D03*
X439166D02*
D03*
X413766D02*
D03*
X489966Y31242D02*
D03*
X540766D02*
D03*
X566166D02*
D03*
X515366D02*
D03*
X464566D02*
D03*
X439166D02*
D03*
X362966Y56642D02*
D03*
X388366D02*
D03*
X337566D02*
D03*
X312166D02*
D03*
X286766D02*
D03*
X388366Y31242D02*
D03*
X413766D02*
D03*
X362966D02*
D03*
X312166D02*
D03*
X337566D02*
D03*
X286766D02*
D03*
D152*
X845566Y539242D02*
D03*
X616966Y482092D02*
D03*
X845566Y56642D02*
D03*
D153*
X182118Y540258D02*
D03*
X156718D02*
D03*
X131318D02*
D03*
X105918D02*
D03*
X80518D02*
D03*
X55118D02*
D03*
X641858Y742696D02*
D03*
Y717296D02*
D03*
Y691896D02*
D03*
Y666496D02*
D03*
Y641096D02*
D03*
Y615696D02*
D03*
X320558Y743458D02*
D03*
Y718058D02*
D03*
Y692658D02*
D03*
Y667258D02*
D03*
Y641858D02*
D03*
Y616458D02*
D03*
D154*
X29718Y540258D02*
D03*
D155*
X641858Y590296D02*
D03*
X320558Y591058D02*
D03*
D156*
X973102Y503420D02*
D03*
D157*
X943102Y550420D02*
D03*
D158*
X913102Y503420D02*
D03*
D159*
X897000Y1010000D02*
D03*
X39999Y1010000D02*
D03*
Y40000D02*
D03*
X897000D02*
D03*
D160*
X178562Y604942D02*
D03*
X802752Y586994D02*
D03*
X820928Y605450D02*
D03*
X481452Y587248D02*
D03*
X499628Y606212D02*
D03*
X52070Y619760D02*
D03*
X373136Y621030D02*
D03*
X694436Y620268D02*
D03*
X178816Y593852D02*
D03*
M02*
