G04*
G04 #@! TF.GenerationSoftware,Altium Limited,Altium Designer,20.1.14 (287)*
G04*
G04 Layer_Color=8388736*
%FSLAX44Y44*%
%MOMM*%
G71*
G04*
G04 #@! TF.SameCoordinates,45AFD5CB-E2DC-46B4-AC03-AB9053879BB0*
G04*
G04*
G04 #@! TF.FilePolarity,Negative*
G04*
G01*
G75*
%ADD92R,3.3782X4.1910*%
%ADD93R,0.8128X0.7366*%
%ADD94R,0.7366X0.8128*%
%ADD95R,1.2192X1.6002*%
%ADD96R,1.2532X1.2032*%
%ADD97R,2.4032X1.2532*%
%ADD98R,1.9032X1.9032*%
%ADD99R,0.9032X0.4232*%
%ADD100R,0.4232X0.9032*%
%ADD101R,0.6032X1.1032*%
%ADD102R,1.3532X0.8532*%
%ADD103R,0.4032X0.8032*%
%ADD104R,0.8032X0.4032*%
%ADD105R,1.4224X1.6256*%
%ADD106C,1.2032*%
%ADD107R,1.9533X0.7033*%
%ADD108R,0.7033X1.9533*%
%ADD109R,0.7032X1.7132*%
%ADD110R,0.4400X1.7400*%
%ADD111R,0.5032X1.8032*%
%ADD112R,1.7400X0.4400*%
%ADD113R,1.8032X0.5032*%
%ADD114R,0.6532X1.9532*%
%ADD115R,0.5032X0.6032*%
%ADD116R,0.6032X0.5032*%
%ADD117R,0.6532X1.6532*%
%ADD118R,2.3632X2.4632*%
%ADD119R,4.1632X4.1632*%
%ADD120R,3.3832X3.3832*%
%ADD121R,0.7032X0.7032*%
%ADD122R,1.1032X1.5032*%
%ADD123R,1.1032X1.8032*%
%ADD124R,2.5032X1.8532*%
%ADD125R,0.7032X0.7032*%
%ADD126R,1.0032X1.0032*%
%ADD127R,1.8532X2.5032*%
%ADD128R,2.7032X1.1032*%
%ADD129R,1.5032X1.1032*%
%ADD130R,1.8032X1.1032*%
%ADD131C,1.4732*%
%ADD132R,1.4032X1.4032*%
%ADD133R,1.0032X1.0032*%
%ADD134R,1.4232X1.1132*%
%ADD135R,1.1132X1.4232*%
%ADD136R,0.7032X0.8032*%
%ADD137R,1.6032X2.2032*%
%ADD138R,0.8032X0.7032*%
%ADD139R,1.0032X2.5532*%
%ADD140R,4.0032X2.7032*%
%ADD141R,1.6032X0.7032*%
%ADD142R,1.1032X1.0032*%
%ADD143R,1.1032X1.2032*%
%ADD144R,1.3032X0.8032*%
%ADD145R,1.7532X0.8032*%
%ADD146R,0.8032X1.7532*%
%ADD147R,0.8032X1.7032*%
%ADD148R,0.6532X1.6032*%
%ADD149R,1.5032X0.7532*%
%ADD150R,1.6732X1.4882*%
%ADD151C,0.4657*%
%ADD152R,1.1032X2.7032*%
%ADD153R,0.5532X1.6532*%
G04:AMPARAMS|DCode=154|XSize=2.1032mm|YSize=0.9532mm|CornerRadius=0.4391mm|HoleSize=0mm|Usage=FLASHONLY|Rotation=90.000|XOffset=0mm|YOffset=0mm|HoleType=Round|Shape=RoundedRectangle|*
%AMROUNDEDRECTD154*
21,1,2.1032,0.0750,0,0,90.0*
21,1,1.2250,0.9532,0,0,90.0*
1,1,0.8782,0.0375,0.6125*
1,1,0.8782,0.0375,-0.6125*
1,1,0.8782,-0.0375,-0.6125*
1,1,0.8782,-0.0375,0.6125*
%
%ADD154ROUNDEDRECTD154*%
%ADD155C,1.7032*%
%ADD156R,1.7032X1.7032*%
%ADD157C,1.9032*%
%ADD158C,2.5032*%
%ADD159R,2.5032X2.5032*%
%ADD160C,2.0828*%
%ADD161R,2.0828X2.0828*%
%ADD162C,1.7332*%
%ADD163R,1.7332X1.7332*%
%ADD164R,1.7332X1.7332*%
%ADD165R,1.7032X4.2192*%
%ADD166R,4.2192X1.7032*%
%ADD167R,1.7032X4.7192*%
%ADD168C,5.2032*%
%ADD169C,0.0508*%
%ADD170C,0.0020*%
D92*
X766906Y924441D02*
D03*
X144239Y936054D02*
D03*
D93*
X789926Y764741D02*
D03*
Y773123D02*
D03*
X779441Y767451D02*
D03*
Y775833D02*
D03*
X769896Y773057D02*
D03*
Y764675D02*
D03*
X677804Y733540D02*
D03*
Y725158D02*
D03*
X754847Y776783D02*
D03*
Y785165D02*
D03*
X724936Y820593D02*
D03*
Y812211D02*
D03*
X743331Y776154D02*
D03*
Y784536D02*
D03*
X721837Y872198D02*
D03*
Y880580D02*
D03*
X99170Y883811D02*
D03*
Y892193D02*
D03*
X102269Y832206D02*
D03*
Y823824D02*
D03*
X120664Y787767D02*
D03*
Y796149D02*
D03*
X132180Y788396D02*
D03*
Y796778D02*
D03*
X147229Y784670D02*
D03*
X147229Y776288D02*
D03*
X156774Y779064D02*
D03*
X156774Y787446D02*
D03*
X167259Y776354D02*
D03*
Y784736D02*
D03*
X55137Y745153D02*
D03*
X55137Y736771D02*
D03*
D94*
X740601Y675862D02*
D03*
X748983D02*
D03*
X698384Y677899D02*
D03*
X706766D02*
D03*
X785627Y702651D02*
D03*
X794009D02*
D03*
X795855Y753778D02*
D03*
X787473D02*
D03*
X753420Y796793D02*
D03*
X745038D02*
D03*
X732965Y771687D02*
D03*
X724583D02*
D03*
X722357Y792291D02*
D03*
X713975D02*
D03*
X676415Y860045D02*
D03*
X684797D02*
D03*
X675582Y846892D02*
D03*
X683964D02*
D03*
X676079Y870853D02*
D03*
X684461D02*
D03*
X733482Y870441D02*
D03*
X741864D02*
D03*
X733439Y880998D02*
D03*
X741821D02*
D03*
X713975Y782360D02*
D03*
X722357D02*
D03*
X743664Y823022D02*
D03*
X735282D02*
D03*
X770134Y789619D02*
D03*
X778516D02*
D03*
X767825Y881990D02*
D03*
X776207D02*
D03*
X702146Y823265D02*
D03*
X693764D02*
D03*
X711194Y814385D02*
D03*
X702812D02*
D03*
X110815Y882054D02*
D03*
X119197D02*
D03*
X110772Y892611D02*
D03*
X119154D02*
D03*
X145158Y893603D02*
D03*
X153540D02*
D03*
X53412Y882466D02*
D03*
X61794D02*
D03*
X53748Y871658D02*
D03*
X62130D02*
D03*
X52915Y858505D02*
D03*
X61297D02*
D03*
X79479Y834878D02*
D03*
X71097D02*
D03*
X120997Y834635D02*
D03*
X112615D02*
D03*
X88527Y825998D02*
D03*
X80145D02*
D03*
X130753Y808406D02*
D03*
X122371Y808406D02*
D03*
X99690Y803904D02*
D03*
X91308D02*
D03*
Y793973D02*
D03*
X99690D02*
D03*
X110298Y783300D02*
D03*
X101916D02*
D03*
X147467Y801232D02*
D03*
X155849D02*
D03*
X173188Y765391D02*
D03*
X164806D02*
D03*
X162960Y714264D02*
D03*
X171342D02*
D03*
X117934Y687475D02*
D03*
X126316D02*
D03*
X75717Y689512D02*
D03*
X84099Y689512D02*
D03*
D95*
X774234Y679943D02*
D03*
X789474D02*
D03*
X151567Y691556D02*
D03*
X166807D02*
D03*
D96*
X721938Y924441D02*
D03*
X99271Y936054D02*
D03*
D97*
X737188Y909691D02*
D03*
Y939191D02*
D03*
X114521Y921304D02*
D03*
X114521Y950804D02*
D03*
D98*
X736396Y714349D02*
D03*
X714396D02*
D03*
Y736349D02*
D03*
X736396D02*
D03*
X113729Y725962D02*
D03*
X91729Y725962D02*
D03*
X91729Y747962D02*
D03*
X113729D02*
D03*
X846582Y90932D02*
D03*
X252222Y56388D02*
D03*
D99*
X754396Y722849D02*
D03*
Y717849D02*
D03*
X696396Y747849D02*
D03*
Y702849D02*
D03*
X754396Y742849D02*
D03*
X696396Y737849D02*
D03*
Y732849D02*
D03*
Y722849D02*
D03*
Y712849D02*
D03*
Y707849D02*
D03*
Y742849D02*
D03*
X754396Y702849D02*
D03*
Y707849D02*
D03*
X696396Y717849D02*
D03*
X754396Y747849D02*
D03*
Y727849D02*
D03*
Y737849D02*
D03*
X696396Y727849D02*
D03*
X754396Y712849D02*
D03*
Y732849D02*
D03*
X131729Y734462D02*
D03*
X131729Y729462D02*
D03*
X73729Y759462D02*
D03*
Y714462D02*
D03*
X131729Y754462D02*
D03*
X73729Y749462D02*
D03*
Y744462D02*
D03*
Y734462D02*
D03*
Y724462D02*
D03*
Y719462D02*
D03*
Y754462D02*
D03*
X131729Y714462D02*
D03*
Y719462D02*
D03*
X73729Y729462D02*
D03*
X131729Y759462D02*
D03*
X131729Y739462D02*
D03*
Y749462D02*
D03*
X73729Y739462D02*
D03*
X131729Y724462D02*
D03*
X131729Y744462D02*
D03*
D100*
X742896Y696349D02*
D03*
X717896Y754349D02*
D03*
X727896D02*
D03*
X702896D02*
D03*
X722896D02*
D03*
X712896D02*
D03*
X707896D02*
D03*
X747896D02*
D03*
X702896Y696349D02*
D03*
X707896D02*
D03*
X712896D02*
D03*
X717896D02*
D03*
X727896D02*
D03*
X732896D02*
D03*
X737896D02*
D03*
X747896D02*
D03*
X722896D02*
D03*
X732896Y754349D02*
D03*
X742896D02*
D03*
X737896D02*
D03*
X120229Y707962D02*
D03*
X95229Y765962D02*
D03*
X105229Y765962D02*
D03*
X80229D02*
D03*
X100229Y765962D02*
D03*
X90229D02*
D03*
X85229Y765962D02*
D03*
X125229D02*
D03*
X80229Y707962D02*
D03*
X85229D02*
D03*
X90229D02*
D03*
X95229D02*
D03*
X105229D02*
D03*
X110229D02*
D03*
X115229Y707962D02*
D03*
X125229D02*
D03*
X100229Y707962D02*
D03*
X110229Y765962D02*
D03*
X120229D02*
D03*
X115229D02*
D03*
D101*
X779267Y849010D02*
D03*
X766267Y871010D02*
D03*
Y849010D02*
D03*
X772767D02*
D03*
X779267Y871010D02*
D03*
X779101Y814782D02*
D03*
X766101Y836782D02*
D03*
Y814782D02*
D03*
X772601D02*
D03*
X779101Y836782D02*
D03*
X156434Y826395D02*
D03*
X143434Y848395D02*
D03*
Y826395D02*
D03*
X149934D02*
D03*
X156434Y848395D02*
D03*
X156600Y860623D02*
D03*
X143600Y882623D02*
D03*
X143600Y860623D02*
D03*
X150100D02*
D03*
X156600Y882623D02*
D03*
D102*
X710727Y841982D02*
D03*
Y851482D02*
D03*
X725227D02*
D03*
Y841982D02*
D03*
X88060Y853595D02*
D03*
X88060Y863095D02*
D03*
X102560D02*
D03*
Y853595D02*
D03*
D103*
X729977Y860732D02*
D03*
X713977Y832732D02*
D03*
X717977D02*
D03*
X729977D02*
D03*
X713977Y860732D02*
D03*
X709977D02*
D03*
X717977D02*
D03*
X725977D02*
D03*
X721977Y832732D02*
D03*
X705977Y860732D02*
D03*
Y832732D02*
D03*
X709977D02*
D03*
X725977D02*
D03*
X721977Y860732D02*
D03*
X107310Y872345D02*
D03*
X91310Y844345D02*
D03*
X95310D02*
D03*
X107310D02*
D03*
X91310Y872345D02*
D03*
X87310D02*
D03*
X95310D02*
D03*
X103310D02*
D03*
X99310Y844345D02*
D03*
X83310Y872345D02*
D03*
Y844345D02*
D03*
X87310D02*
D03*
X103310D02*
D03*
X99310Y872345D02*
D03*
D104*
X736977Y838732D02*
D03*
Y842732D02*
D03*
Y846732D02*
D03*
Y850732D02*
D03*
Y854732D02*
D03*
X698977Y846732D02*
D03*
Y838732D02*
D03*
Y850732D02*
D03*
Y854732D02*
D03*
Y842732D02*
D03*
X114310Y850345D02*
D03*
Y854345D02*
D03*
Y858345D02*
D03*
Y862345D02*
D03*
Y866345D02*
D03*
X76310Y858345D02*
D03*
Y850345D02*
D03*
Y862345D02*
D03*
Y866345D02*
D03*
Y854345D02*
D03*
D105*
X794373Y738835D02*
D03*
X778371Y716833D02*
D03*
X794373D02*
D03*
X778371Y738835D02*
D03*
X171706Y750448D02*
D03*
X155704Y728446D02*
D03*
X171706D02*
D03*
X155704Y750448D02*
D03*
D106*
X657145Y766829D02*
D03*
Y754129D02*
D03*
Y779529D02*
D03*
Y741429D02*
D03*
Y728729D02*
D03*
X817145Y779529D02*
D03*
Y766829D02*
D03*
Y754129D02*
D03*
Y741429D02*
D03*
X817145Y716029D02*
D03*
X817145Y728729D02*
D03*
X657145Y690629D02*
D03*
Y677929D02*
D03*
Y716029D02*
D03*
Y703329D02*
D03*
X695245Y652529D02*
D03*
X682545D02*
D03*
X707945D02*
D03*
X817145Y677929D02*
D03*
X746045Y652529D02*
D03*
X817145Y703329D02*
D03*
Y690629D02*
D03*
X733345Y652529D02*
D03*
X720645D02*
D03*
X784145D02*
D03*
X758745D02*
D03*
X771445D02*
D03*
X34478Y778442D02*
D03*
X34478Y765742D02*
D03*
Y791142D02*
D03*
Y753042D02*
D03*
Y740342D02*
D03*
X194478Y791142D02*
D03*
X194478Y778442D02*
D03*
X194478Y765742D02*
D03*
Y753042D02*
D03*
X194478Y727642D02*
D03*
X194478Y740342D02*
D03*
X34478Y702242D02*
D03*
Y689542D02*
D03*
Y727642D02*
D03*
X34478Y714942D02*
D03*
X72578Y664142D02*
D03*
X59878Y664142D02*
D03*
X85278D02*
D03*
X194478Y689542D02*
D03*
X123378Y664142D02*
D03*
X194478Y714942D02*
D03*
X194478Y702242D02*
D03*
X110678Y664142D02*
D03*
X97978D02*
D03*
X161478Y664142D02*
D03*
X136078Y664142D02*
D03*
X148778Y664142D02*
D03*
D107*
X799804Y892528D02*
D03*
Y663959D02*
D03*
X674826D02*
D03*
Y892528D02*
D03*
X177137Y904141D02*
D03*
X177137Y675572D02*
D03*
X52159D02*
D03*
X52159Y904141D02*
D03*
D108*
X806055Y886277D02*
D03*
Y670207D02*
D03*
X668575D02*
D03*
Y886277D02*
D03*
X183388Y897890D02*
D03*
Y681820D02*
D03*
X45908D02*
D03*
X45908Y897890D02*
D03*
D109*
X625700Y296644D02*
D03*
X619200D02*
D03*
X612700D02*
D03*
X606200D02*
D03*
Y356644D02*
D03*
X612700D02*
D03*
X619200D02*
D03*
X625700D02*
D03*
D110*
X519724Y179780D02*
D03*
D111*
X513224D02*
D03*
X506724D02*
D03*
X500224D02*
D03*
X493724D02*
D03*
X487224D02*
D03*
X480724D02*
D03*
X474224D02*
D03*
X467724D02*
D03*
X461224D02*
D03*
Y123780D02*
D03*
X467724D02*
D03*
X474224D02*
D03*
X480724D02*
D03*
X487224D02*
D03*
X493724D02*
D03*
X500224D02*
D03*
X506724D02*
D03*
X513224D02*
D03*
X519724D02*
D03*
D112*
X544524Y394216D02*
D03*
X370788Y413736D02*
D03*
D113*
X544524Y400716D02*
D03*
Y407216D02*
D03*
Y413716D02*
D03*
Y420216D02*
D03*
Y426716D02*
D03*
Y433216D02*
D03*
Y439716D02*
D03*
Y446216D02*
D03*
Y452716D02*
D03*
X488524D02*
D03*
Y446216D02*
D03*
Y439716D02*
D03*
Y433216D02*
D03*
Y426716D02*
D03*
Y420216D02*
D03*
Y413716D02*
D03*
Y407216D02*
D03*
Y400716D02*
D03*
Y394216D02*
D03*
X370788Y420236D02*
D03*
Y426736D02*
D03*
Y433236D02*
D03*
Y439736D02*
D03*
Y446236D02*
D03*
Y452736D02*
D03*
Y459236D02*
D03*
Y465736D02*
D03*
Y472236D02*
D03*
X314788D02*
D03*
Y465736D02*
D03*
Y459236D02*
D03*
Y452736D02*
D03*
Y446236D02*
D03*
Y439736D02*
D03*
Y433236D02*
D03*
Y426736D02*
D03*
Y420236D02*
D03*
Y413736D02*
D03*
D114*
X63032Y387372D02*
D03*
X69532D02*
D03*
X76032D02*
D03*
X82532D02*
D03*
X89032D02*
D03*
X95532D02*
D03*
X102032D02*
D03*
X108532D02*
D03*
X115032D02*
D03*
X121532D02*
D03*
X128032D02*
D03*
X134532D02*
D03*
X141032D02*
D03*
X147532D02*
D03*
X63032Y459372D02*
D03*
X69532D02*
D03*
X76032D02*
D03*
X82532D02*
D03*
X89032D02*
D03*
X95532D02*
D03*
X102032D02*
D03*
X108532D02*
D03*
X115032D02*
D03*
X121532D02*
D03*
X128032D02*
D03*
X134532D02*
D03*
X141032D02*
D03*
X147532D02*
D03*
D115*
X52156Y246426D02*
D03*
X47156D02*
D03*
Y261426D02*
D03*
X52156D02*
D03*
D116*
X42031Y246426D02*
D03*
Y251426D02*
D03*
Y256426D02*
D03*
Y261426D02*
D03*
X57281D02*
D03*
Y256426D02*
D03*
Y251426D02*
D03*
Y246426D02*
D03*
D117*
X861166Y828983D02*
D03*
X867666D02*
D03*
X874166D02*
D03*
X880666D02*
D03*
Y769983D02*
D03*
X874166D02*
D03*
X867666D02*
D03*
X861166D02*
D03*
X237342Y828475D02*
D03*
X243842D02*
D03*
X250342D02*
D03*
X256842D02*
D03*
Y769475D02*
D03*
X250342D02*
D03*
X243842D02*
D03*
X237342D02*
D03*
D118*
X885544Y429006D02*
D03*
X836544D02*
D03*
D119*
X394246Y292860D02*
D03*
X237490Y293116D02*
D03*
D120*
X394246Y214160D02*
D03*
Y371560D02*
D03*
X237490Y371816D02*
D03*
Y214416D02*
D03*
D121*
X236960Y447266D02*
D03*
X246960D02*
D03*
X236960Y434256D02*
D03*
X246960D02*
D03*
X498552Y375920D02*
D03*
X488552D02*
D03*
X310816Y395986D02*
D03*
X300816D02*
D03*
X767030Y150211D02*
D03*
X757030D02*
D03*
X807416Y99411D02*
D03*
X797416D02*
D03*
X807416Y112873D02*
D03*
X797416D02*
D03*
X807670Y126335D02*
D03*
X797670D02*
D03*
X807924Y153259D02*
D03*
X797924D02*
D03*
X866050Y879094D02*
D03*
X856050D02*
D03*
X245782Y896366D02*
D03*
X235782D02*
D03*
X31322Y391340D02*
D03*
X41322D02*
D03*
X239060Y717099D02*
D03*
X229060D02*
D03*
X862814Y708914D02*
D03*
X852814D02*
D03*
X148820Y585978D02*
D03*
X138820D02*
D03*
X791186Y586994D02*
D03*
X781186D02*
D03*
X716557Y290830D02*
D03*
X706557D02*
D03*
X756658Y291116D02*
D03*
X746658D02*
D03*
X669718Y337356D02*
D03*
X659718D02*
D03*
X629760Y216916D02*
D03*
X619760D02*
D03*
X538964Y273412D02*
D03*
X548964D02*
D03*
X507510Y279204D02*
D03*
X497510D02*
D03*
X716196Y223266D02*
D03*
X706196D02*
D03*
X716450Y248666D02*
D03*
X706450D02*
D03*
X716450Y261366D02*
D03*
X706450D02*
D03*
X588340Y274066D02*
D03*
X598340D02*
D03*
X588340Y261366D02*
D03*
X598340D02*
D03*
X588594Y248666D02*
D03*
X598594D02*
D03*
X598598Y235712D02*
D03*
X588598D02*
D03*
X706200Y210276D02*
D03*
X716200D02*
D03*
X706450Y236184D02*
D03*
X716450D02*
D03*
X706450Y274284D02*
D03*
X716450D02*
D03*
X246887Y472786D02*
D03*
X236887D02*
D03*
X1017698Y156682D02*
D03*
X1007698D02*
D03*
X807670Y139543D02*
D03*
X797670D02*
D03*
X246887Y498312D02*
D03*
X236887D02*
D03*
X236808Y460298D02*
D03*
X246808D02*
D03*
X236808Y485612D02*
D03*
X246808D02*
D03*
X526622Y358104D02*
D03*
X536622D02*
D03*
D122*
X966706Y74168D02*
D03*
X947706D02*
D03*
X725526Y311150D02*
D03*
X706526D02*
D03*
X765658D02*
D03*
X746658D02*
D03*
X922426Y364744D02*
D03*
X941426D02*
D03*
X922426Y386588D02*
D03*
X941426D02*
D03*
X810108Y398272D02*
D03*
X791108D02*
D03*
D123*
X974484Y30480D02*
D03*
X943484D02*
D03*
X941330Y421894D02*
D03*
X910330D02*
D03*
X994220Y893172D02*
D03*
X1023220D02*
D03*
X994450Y722560D02*
D03*
X1023450D02*
D03*
X994220Y978516D02*
D03*
X1023220D02*
D03*
X994474Y807828D02*
D03*
X1023474D02*
D03*
X994690Y695162D02*
D03*
X1023690D02*
D03*
D124*
X1007876Y54589D02*
D03*
Y21589D02*
D03*
D125*
X983662Y94662D02*
D03*
Y84662D02*
D03*
X994330Y135302D02*
D03*
Y125302D02*
D03*
X1007538Y135302D02*
D03*
Y125302D02*
D03*
X866902Y864028D02*
D03*
Y854028D02*
D03*
X879856Y864028D02*
D03*
Y854028D02*
D03*
X845058Y829738D02*
D03*
Y819738D02*
D03*
X221234Y829230D02*
D03*
Y819230D02*
D03*
X243078Y863520D02*
D03*
Y853520D02*
D03*
X256842Y863520D02*
D03*
Y853520D02*
D03*
X107442Y489596D02*
D03*
Y479596D02*
D03*
X223012Y28106D02*
D03*
Y18106D02*
D03*
X185420Y451736D02*
D03*
Y461736D02*
D03*
X71628Y72978D02*
D03*
Y82978D02*
D03*
X73660Y266406D02*
D03*
Y256406D02*
D03*
X313436Y103520D02*
D03*
Y113520D02*
D03*
X919988Y891308D02*
D03*
Y881308D02*
D03*
X920248Y840584D02*
D03*
Y830584D02*
D03*
X919988Y940954D02*
D03*
Y930954D02*
D03*
X920370Y734996D02*
D03*
Y724996D02*
D03*
X921258Y786520D02*
D03*
Y776520D02*
D03*
X42544Y358240D02*
D03*
Y348240D02*
D03*
X55498Y357986D02*
D03*
Y347986D02*
D03*
X95630Y348240D02*
D03*
Y358240D02*
D03*
X137794Y496162D02*
D03*
Y486162D02*
D03*
X723980Y440008D02*
D03*
Y450008D02*
D03*
X125856Y496162D02*
D03*
Y486162D02*
D03*
X1034462Y135048D02*
D03*
Y125048D02*
D03*
X1021000Y125048D02*
D03*
Y135048D02*
D03*
X207900Y488326D02*
D03*
Y478326D02*
D03*
X195326Y478326D02*
D03*
Y488326D02*
D03*
X58850Y222119D02*
D03*
Y232119D02*
D03*
X71754Y232002D02*
D03*
Y222002D02*
D03*
X539750Y119808D02*
D03*
Y109808D02*
D03*
X602488Y165448D02*
D03*
Y155448D02*
D03*
X664718Y387996D02*
D03*
Y377996D02*
D03*
X980614Y135556D02*
D03*
Y125556D02*
D03*
X757214Y445182D02*
D03*
Y435182D02*
D03*
X664718Y355172D02*
D03*
Y365172D02*
D03*
X711557Y450008D02*
D03*
Y440008D02*
D03*
X673604Y313102D02*
D03*
Y303102D02*
D03*
X686876Y313166D02*
D03*
Y303166D02*
D03*
D126*
X1034259Y98229D02*
D03*
Y83229D02*
D03*
X767294Y183151D02*
D03*
Y168151D02*
D03*
X728726Y614354D02*
D03*
Y599354D02*
D03*
X745744Y614264D02*
D03*
Y599264D02*
D03*
X86360Y613756D02*
D03*
Y598756D02*
D03*
X103378Y613258D02*
D03*
Y598258D02*
D03*
X738876Y445316D02*
D03*
Y430316D02*
D03*
X871982Y113502D02*
D03*
Y128502D02*
D03*
X679958Y178690D02*
D03*
Y163690D02*
D03*
D127*
X726957Y125997D02*
D03*
X693957D02*
D03*
D128*
X793496Y198634D02*
D03*
Y167634D02*
D03*
D129*
X747482Y188961D02*
D03*
Y169961D02*
D03*
X164084Y623926D02*
D03*
Y604926D02*
D03*
X806450Y624450D02*
D03*
Y605450D02*
D03*
X693674Y446634D02*
D03*
Y427634D02*
D03*
X879348Y376580D02*
D03*
Y395580D02*
D03*
X901954Y376580D02*
D03*
Y395580D02*
D03*
X786384Y442316D02*
D03*
Y423316D02*
D03*
D130*
X702564Y190500D02*
D03*
Y159500D02*
D03*
D131*
X848868Y668528D02*
D03*
X217424Y679105D02*
D03*
D132*
X708914Y620354D02*
D03*
Y599354D02*
D03*
X66548Y619846D02*
D03*
Y598846D02*
D03*
D133*
X763270Y614264D02*
D03*
Y599264D02*
D03*
X120904Y613756D02*
D03*
Y598756D02*
D03*
X245060Y700335D02*
D03*
X230060D02*
D03*
X868814Y692150D02*
D03*
X853814D02*
D03*
X40900Y466270D02*
D03*
X25900D02*
D03*
X806738Y488950D02*
D03*
X791738D02*
D03*
X950976Y94742D02*
D03*
X965976D02*
D03*
X770800Y99411D02*
D03*
X755800D02*
D03*
D134*
X605526Y817002D02*
D03*
Y784302D02*
D03*
D135*
X35406Y568198D02*
D03*
X68106D02*
D03*
D136*
X925522Y706120D02*
D03*
X934522D02*
D03*
X925140Y912078D02*
D03*
X934140D02*
D03*
X925400Y811708D02*
D03*
X934400D02*
D03*
X925140Y862432D02*
D03*
X934140D02*
D03*
X926410Y757644D02*
D03*
X935410D02*
D03*
X773466Y488950D02*
D03*
X764466D02*
D03*
D137*
X834996Y465860D02*
D03*
X878996D02*
D03*
D138*
X27812Y348232D02*
D03*
Y357232D02*
D03*
X662432Y179754D02*
D03*
Y170754D02*
D03*
X70230Y347978D02*
D03*
Y356978D02*
D03*
D139*
X12516Y172674D02*
D03*
Y119174D02*
D03*
D140*
X40516Y103924D02*
D03*
Y187924D02*
D03*
D141*
X64516Y129924D02*
D03*
Y137924D02*
D03*
Y145924D02*
D03*
Y153924D02*
D03*
Y161924D02*
D03*
D142*
X933864Y897078D02*
D03*
Y878078D02*
D03*
X953864Y887578D02*
D03*
X935134Y792290D02*
D03*
Y773290D02*
D03*
X955134Y782790D02*
D03*
X933864Y946724D02*
D03*
Y927724D02*
D03*
X953864Y937224D02*
D03*
X934124Y846354D02*
D03*
Y827354D02*
D03*
X954124Y836854D02*
D03*
X934246Y740766D02*
D03*
Y721766D02*
D03*
X954246Y731266D02*
D03*
D143*
X857122Y358468D02*
D03*
Y399468D02*
D03*
X841122Y358468D02*
D03*
Y399468D02*
D03*
X23622Y449432D02*
D03*
Y408432D02*
D03*
X39622Y449432D02*
D03*
Y408432D02*
D03*
X244096Y123847D02*
D03*
Y82847D02*
D03*
X260096Y123847D02*
D03*
Y82847D02*
D03*
D144*
X254782Y911910D02*
D03*
Y921410D02*
D03*
Y930910D02*
D03*
X226782D02*
D03*
Y911910D02*
D03*
X875608Y895263D02*
D03*
Y904763D02*
D03*
Y914263D02*
D03*
X847608D02*
D03*
Y895263D02*
D03*
D145*
X588874Y345948D02*
D03*
Y333248D02*
D03*
Y320548D02*
D03*
Y307848D02*
D03*
X642874Y345948D02*
D03*
Y333248D02*
D03*
Y320548D02*
D03*
Y307848D02*
D03*
X673760Y235966D02*
D03*
Y248666D02*
D03*
Y261366D02*
D03*
Y274066D02*
D03*
X619760Y235966D02*
D03*
Y248666D02*
D03*
Y261366D02*
D03*
Y274066D02*
D03*
X494964Y256902D02*
D03*
Y244202D02*
D03*
Y231502D02*
D03*
Y218802D02*
D03*
X548964Y256902D02*
D03*
Y244202D02*
D03*
Y231502D02*
D03*
Y218802D02*
D03*
X551510Y298450D02*
D03*
Y311150D02*
D03*
Y323850D02*
D03*
Y336550D02*
D03*
X497510Y298450D02*
D03*
Y311150D02*
D03*
Y323850D02*
D03*
Y336550D02*
D03*
D146*
X300736Y135154D02*
D03*
X313436D02*
D03*
X326136D02*
D03*
X338836D02*
D03*
X300736Y189154D02*
D03*
X313436D02*
D03*
X326136D02*
D03*
X338836D02*
D03*
D147*
X203962Y113106D02*
D03*
X191262D02*
D03*
X178562D02*
D03*
X165862D02*
D03*
X153162D02*
D03*
X140462D02*
D03*
X127762D02*
D03*
X115062D02*
D03*
X102362D02*
D03*
X89662D02*
D03*
Y18106D02*
D03*
X102362D02*
D03*
X115062D02*
D03*
X127762D02*
D03*
X140462D02*
D03*
X153162D02*
D03*
X165862D02*
D03*
X178562D02*
D03*
X191262D02*
D03*
X203962D02*
D03*
D148*
X201400Y461737D02*
D03*
X207900D02*
D03*
X214400D02*
D03*
X220900D02*
D03*
Y417737D02*
D03*
X214400D02*
D03*
X207900D02*
D03*
X201400D02*
D03*
D149*
X559254Y164948D02*
D03*
Y145948D02*
D03*
X584254Y164948D02*
D03*
Y155448D02*
D03*
Y145948D02*
D03*
D150*
X140970Y623942D02*
D03*
Y604492D02*
D03*
X783336Y624450D02*
D03*
Y605000D02*
D03*
D151*
X748300Y119089D02*
D03*
X753300D02*
D03*
X758300D02*
D03*
X763300D02*
D03*
X768300D02*
D03*
X773300D02*
D03*
X778300D02*
D03*
X748300Y124089D02*
D03*
X753300D02*
D03*
X758300D02*
D03*
X763300D02*
D03*
X768300D02*
D03*
X773300D02*
D03*
X778300D02*
D03*
X748300Y129089D02*
D03*
X753300D02*
D03*
X758300D02*
D03*
X763300D02*
D03*
X768300D02*
D03*
X773300D02*
D03*
X778300D02*
D03*
X748300Y134089D02*
D03*
X753300D02*
D03*
X758300D02*
D03*
X763300D02*
D03*
X768300D02*
D03*
X773300D02*
D03*
X778300D02*
D03*
X1014784Y105932D02*
D03*
Y100932D02*
D03*
X1009784D02*
D03*
X1014784Y90932D02*
D03*
Y95932D02*
D03*
X1009784Y105932D02*
D03*
Y95932D02*
D03*
X1004784D02*
D03*
X1009784Y90932D02*
D03*
X1004784D02*
D03*
X1014784Y80932D02*
D03*
X1009784Y85932D02*
D03*
X1014784D02*
D03*
X1009784Y80932D02*
D03*
X1014784Y75932D02*
D03*
X1009784D02*
D03*
X1004784Y105932D02*
D03*
Y85932D02*
D03*
Y100932D02*
D03*
X999784D02*
D03*
Y95932D02*
D03*
Y105932D02*
D03*
Y85932D02*
D03*
Y90932D02*
D03*
X1004784Y80932D02*
D03*
X999784D02*
D03*
X1004784Y75932D02*
D03*
X999784D02*
D03*
D152*
X965714Y121666D02*
D03*
X934714D02*
D03*
D153*
X764876Y348732D02*
D03*
X758376D02*
D03*
Y405232D02*
D03*
X764876D02*
D03*
X680376Y348732D02*
D03*
X686876D02*
D03*
X693376D02*
D03*
X699876D02*
D03*
X706376D02*
D03*
X712876D02*
D03*
X719376D02*
D03*
X725876D02*
D03*
X732376D02*
D03*
X738876D02*
D03*
X745376D02*
D03*
X751876D02*
D03*
Y405232D02*
D03*
X745376D02*
D03*
X738876D02*
D03*
X732376D02*
D03*
X725876D02*
D03*
X719376D02*
D03*
X712876D02*
D03*
X706376D02*
D03*
X699876D02*
D03*
X693376D02*
D03*
X686876D02*
D03*
X680376D02*
D03*
D154*
X806055Y886277D02*
D03*
X668575D02*
D03*
X668575Y670207D02*
D03*
X806055D02*
D03*
X183388Y681820D02*
D03*
X45908D02*
D03*
X45908Y897890D02*
D03*
X183388D02*
D03*
D155*
X286766Y996442D02*
D03*
X312166D02*
D03*
X337566D02*
D03*
X362966D02*
D03*
X388366D02*
D03*
X413766D02*
D03*
X439166D02*
D03*
X464566D02*
D03*
X489966D02*
D03*
X515366D02*
D03*
X540766D02*
D03*
X566166D02*
D03*
X591566D02*
D03*
X616966D02*
D03*
X642366D02*
D03*
X667766D02*
D03*
X693166D02*
D03*
X718566D02*
D03*
X743966D02*
D03*
X769366D02*
D03*
X794766D02*
D03*
X820166D02*
D03*
X845566D02*
D03*
X286766Y1021842D02*
D03*
X312166D02*
D03*
X337566D02*
D03*
X362966D02*
D03*
X388366D02*
D03*
X413766D02*
D03*
X439166D02*
D03*
X464566D02*
D03*
X489966D02*
D03*
X515366D02*
D03*
X540766D02*
D03*
X566166D02*
D03*
X591566D02*
D03*
X616966D02*
D03*
X642366D02*
D03*
X667766D02*
D03*
X693166D02*
D03*
X718566D02*
D03*
X743966D02*
D03*
X769366D02*
D03*
X794766D02*
D03*
X820166D02*
D03*
D156*
X845566D02*
D03*
D157*
X846582Y116332D02*
D03*
X252222Y30988D02*
D03*
D158*
X1024744Y393446D02*
D03*
X973220Y922020D02*
D03*
X131972Y173736D02*
D03*
X973220Y666242D02*
D03*
X973474Y836676D02*
D03*
X973220Y1007364D02*
D03*
X973450Y751408D02*
D03*
X973366Y580898D02*
D03*
D159*
X974744Y393446D02*
D03*
X1023220Y922020D02*
D03*
X181972Y173736D02*
D03*
X1023220Y666242D02*
D03*
X1023474Y836676D02*
D03*
X1023220Y1007364D02*
D03*
X1023450Y751408D02*
D03*
X1023366Y580898D02*
D03*
D160*
X820166Y539242D02*
D03*
X845566Y513842D02*
D03*
X794766Y539242D02*
D03*
X743966D02*
D03*
X769366D02*
D03*
X820166Y513842D02*
D03*
X769366D02*
D03*
X794766D02*
D03*
X743966D02*
D03*
X718566Y539242D02*
D03*
X693166Y513842D02*
D03*
X667766Y539242D02*
D03*
X693166D02*
D03*
X591566D02*
D03*
X642366D02*
D03*
X667766Y513842D02*
D03*
X616966Y539242D02*
D03*
X718566Y513842D02*
D03*
X642366D02*
D03*
X616966D02*
D03*
X591566D02*
D03*
Y482092D02*
D03*
X820166Y56642D02*
D03*
X769366D02*
D03*
X794766D02*
D03*
X743966D02*
D03*
X845566Y31242D02*
D03*
X794766D02*
D03*
X820166D02*
D03*
X769366D02*
D03*
X693166Y56642D02*
D03*
X718566D02*
D03*
X667766D02*
D03*
X642366D02*
D03*
X591566D02*
D03*
X616966D02*
D03*
X591566Y31242D02*
D03*
X718566D02*
D03*
X743966D02*
D03*
X693166D02*
D03*
X642366D02*
D03*
X667766D02*
D03*
X616966D02*
D03*
X566166Y539242D02*
D03*
X540766D02*
D03*
X566166Y513842D02*
D03*
X515366Y539242D02*
D03*
X540766Y513842D02*
D03*
X489966Y539242D02*
D03*
X464566D02*
D03*
X439166D02*
D03*
X515366Y513842D02*
D03*
X540766Y482092D02*
D03*
X566166D02*
D03*
X515366D02*
D03*
X489966Y513842D02*
D03*
X439166D02*
D03*
X489966Y482092D02*
D03*
X464566Y513842D02*
D03*
X388366Y539242D02*
D03*
X413766D02*
D03*
X362966D02*
D03*
X312166D02*
D03*
X337566D02*
D03*
X286766D02*
D03*
X388366Y513842D02*
D03*
X413766D02*
D03*
X362966D02*
D03*
X312166D02*
D03*
X337566D02*
D03*
X286766D02*
D03*
X540766Y56642D02*
D03*
X566166D02*
D03*
X489966D02*
D03*
X515366D02*
D03*
X464566D02*
D03*
X439166D02*
D03*
X413766D02*
D03*
X489966Y31242D02*
D03*
X540766D02*
D03*
X566166D02*
D03*
X515366D02*
D03*
X464566D02*
D03*
X439166D02*
D03*
X362966Y56642D02*
D03*
X388366D02*
D03*
X337566D02*
D03*
X312166D02*
D03*
X286766D02*
D03*
X388366Y31242D02*
D03*
X413766D02*
D03*
X362966D02*
D03*
X312166D02*
D03*
X337566D02*
D03*
X286766D02*
D03*
D161*
X845566Y539242D02*
D03*
X616966Y482092D02*
D03*
X845566Y56642D02*
D03*
D162*
X182118Y540258D02*
D03*
X156718D02*
D03*
X131318D02*
D03*
X105918D02*
D03*
X80518D02*
D03*
X55118D02*
D03*
X605790Y757428D02*
D03*
Y732028D02*
D03*
Y706628D02*
D03*
Y681228D02*
D03*
Y655828D02*
D03*
Y630428D02*
D03*
D163*
X29718Y540258D02*
D03*
D164*
X605790Y605028D02*
D03*
D165*
X973102Y503420D02*
D03*
D166*
X943102Y550420D02*
D03*
D167*
X913102Y503420D02*
D03*
D168*
X897000Y1010000D02*
D03*
X39999Y1010000D02*
D03*
Y40000D02*
D03*
X897000D02*
D03*
D169*
X806450Y594899D02*
D03*
X178562Y604942D02*
D03*
X802752Y586994D02*
D03*
X52070Y619760D02*
D03*
X694436Y620268D02*
D03*
X178816Y593852D02*
D03*
D170*
X773137Y691558D02*
D03*
X727696Y900176D02*
D03*
X796731Y657296D02*
D03*
X670138Y657295D02*
D03*
X667456Y899841D02*
D03*
X796988Y883092D02*
D03*
X812398Y664249D02*
D03*
X661257Y665422D02*
D03*
X677433Y880830D02*
D03*
X741433Y709410D02*
D03*
Y717410D02*
D03*
X733433Y717410D02*
D03*
X733433Y709410D02*
D03*
X717433Y717410D02*
D03*
X709433Y709410D02*
D03*
X717433D02*
D03*
X709433Y717410D02*
D03*
X717433Y741410D02*
D03*
X717433Y733410D02*
D03*
X709433Y733410D02*
D03*
Y741410D02*
D03*
X741433D02*
D03*
X733433D02*
D03*
X741433Y733410D02*
D03*
X733433D02*
D03*
X696117Y688382D02*
D03*
X764015Y754410D02*
D03*
X685201Y768145D02*
D03*
X713532Y774374D02*
D03*
X678114Y770851D02*
D03*
X676842Y672543D02*
D03*
X751213Y756739D02*
D03*
X704315Y687078D02*
D03*
X767445Y668836D02*
D03*
X762890Y673974D02*
D03*
X763218Y684902D02*
D03*
X785424Y691062D02*
D03*
X751785Y695289D02*
D03*
X761081Y703079D02*
D03*
X764780Y708970D02*
D03*
X745002Y762687D02*
D03*
X731701Y762614D02*
D03*
X766267Y858067D02*
D03*
X758193Y842284D02*
D03*
X755092Y815641D02*
D03*
X686063Y761443D02*
D03*
X712021Y841039D02*
D03*
X706152Y841039D02*
D03*
X712021Y852505D02*
D03*
Y846772D02*
D03*
X706152Y852505D02*
D03*
Y846772D02*
D03*
X729628Y852505D02*
D03*
X723759D02*
D03*
X717890D02*
D03*
X729628Y846772D02*
D03*
X723759D02*
D03*
X729628Y841039D02*
D03*
X723759D02*
D03*
X717890D02*
D03*
X717348Y824775D02*
D03*
X691590Y846732D02*
D03*
X772601Y823682D02*
D03*
X695028Y831562D02*
D03*
X694402Y760853D02*
D03*
X779222Y862895D02*
D03*
X691502Y853888D02*
D03*
X788730Y838429D02*
D03*
X699006Y860010D02*
D03*
X714208Y674304D02*
D03*
X667415Y938387D02*
D03*
X682831Y938471D02*
D03*
X699336Y938555D02*
D03*
X683082Y924396D02*
D03*
X667248Y925569D02*
D03*
X699168Y923809D02*
D03*
X709516Y938220D02*
D03*
X666954Y908555D02*
D03*
X682705D02*
D03*
X695859Y909057D02*
D03*
X706331Y907549D02*
D03*
X716301Y912073D02*
D03*
X715966Y905538D02*
D03*
X715882Y899758D02*
D03*
X716217Y894312D02*
D03*
X715128Y889201D02*
D03*
X706582Y899422D02*
D03*
X705074Y891715D02*
D03*
X693764Y895904D02*
D03*
X699962Y883420D02*
D03*
X684044Y900009D02*
D03*
X713913Y883002D02*
D03*
X714081Y875629D02*
D03*
X704823Y875796D02*
D03*
X688568Y882080D02*
D03*
X666792Y870860D02*
D03*
X666959Y859633D02*
D03*
Y845390D02*
D03*
X666871Y836167D02*
D03*
X676255Y833570D02*
D03*
X666870Y827789D02*
D03*
X663854Y818657D02*
D03*
X662430Y808101D02*
D03*
X673322Y818071D02*
D03*
X676254Y826449D02*
D03*
X683794Y823600D02*
D03*
X685973Y814384D02*
D03*
X691335Y810111D02*
D03*
X697200Y804833D02*
D03*
X716804Y806257D02*
D03*
X691084Y795701D02*
D03*
X686057Y801398D02*
D03*
X677176Y796120D02*
D03*
X670641Y804498D02*
D03*
X676255Y810530D02*
D03*
X706415Y787742D02*
D03*
X695272Y787240D02*
D03*
X686056Y790591D02*
D03*
X673992Y788329D02*
D03*
X670598Y708820D02*
D03*
X671647Y697594D02*
D03*
X670809Y684357D02*
D03*
X755009Y673758D02*
D03*
X804690Y735211D02*
D03*
X804481Y748491D02*
D03*
X802847Y760514D02*
D03*
X803517Y773499D02*
D03*
X796144Y784810D02*
D03*
X794887Y793355D02*
D03*
X812398Y793020D02*
D03*
X804481Y787030D02*
D03*
X780478Y802195D02*
D03*
X768035Y800102D02*
D03*
X738504Y810405D02*
D03*
X734482Y794194D02*
D03*
X733778Y805638D02*
D03*
X742943Y816144D02*
D03*
X787347Y811285D02*
D03*
X812063Y823434D02*
D03*
X805779Y811453D02*
D03*
X791285Y856107D02*
D03*
X811895Y855604D02*
D03*
X801422Y867334D02*
D03*
X789942Y866664D02*
D03*
X787096Y880907D02*
D03*
X794469Y874037D02*
D03*
X784499Y892804D02*
D03*
X776959Y904700D02*
D03*
X771932Y897662D02*
D03*
X764057Y905035D02*
D03*
X758695Y898081D02*
D03*
X757186Y880488D02*
D03*
X748808Y881242D02*
D03*
X744536Y897328D02*
D03*
X727361Y889452D02*
D03*
X727780Y894982D02*
D03*
X790699Y907214D02*
D03*
X806366Y906292D02*
D03*
X790531Y918189D02*
D03*
X806031Y918775D02*
D03*
X806198Y929248D02*
D03*
X790699Y928661D02*
D03*
X790447Y939470D02*
D03*
X805946Y938967D02*
D03*
X717890Y846772D02*
D03*
X725433Y725410D02*
D03*
Y733410D02*
D03*
X725433Y741410D02*
D03*
Y717410D02*
D03*
Y709410D02*
D03*
X733433Y725410D02*
D03*
X741433D02*
D03*
X717433Y725410D02*
D03*
X709433D02*
D03*
X719318Y670199D02*
D03*
X779479Y705553D02*
D03*
X769007Y719460D02*
D03*
X709013Y806090D02*
D03*
X143600Y869680D02*
D03*
X76339Y871623D02*
D03*
X166063Y850042D02*
D03*
X68835Y865501D02*
D03*
X156555Y874508D02*
D03*
X122335Y774300D02*
D03*
X109034Y774227D02*
D03*
X142113Y720583D02*
D03*
X138414Y714692D02*
D03*
X129118Y706902D02*
D03*
X162757Y702675D02*
D03*
X140551Y696515D02*
D03*
X140223Y685587D02*
D03*
X144778Y680449D02*
D03*
X81648Y698691D02*
D03*
X128546Y768352D02*
D03*
X54175Y684156D02*
D03*
X149934Y835295D02*
D03*
X72361Y843175D02*
D03*
X71735Y772466D02*
D03*
X63396Y773056D02*
D03*
X132425Y827254D02*
D03*
X55447Y782464D02*
D03*
X90865Y785987D02*
D03*
X62534Y779758D02*
D03*
X68923Y858345D02*
D03*
X141348Y766023D02*
D03*
X150470Y703171D02*
D03*
X73450Y699995D02*
D03*
X94681Y836388D02*
D03*
X135526Y853897D02*
D03*
X91541Y685917D02*
D03*
X44748Y950000D02*
D03*
X60164Y950084D02*
D03*
X76669Y950168D02*
D03*
X60415Y936009D02*
D03*
X44581Y937182D02*
D03*
X76501Y935422D02*
D03*
X86849Y949833D02*
D03*
X44287Y920168D02*
D03*
X60038D02*
D03*
X73192Y920670D02*
D03*
X83664Y919162D02*
D03*
X93634Y923686D02*
D03*
X93299Y917151D02*
D03*
X93215Y911371D02*
D03*
X93550Y905925D02*
D03*
X92461Y900814D02*
D03*
X83915Y911035D02*
D03*
X82407Y903328D02*
D03*
X71097Y907517D02*
D03*
X44789Y911454D02*
D03*
X54766Y892443D02*
D03*
X77295Y895033D02*
D03*
X61377Y911622D02*
D03*
X91246Y894615D02*
D03*
X91414Y887242D02*
D03*
X82156Y887409D02*
D03*
X65901Y893693D02*
D03*
X44125Y882473D02*
D03*
X44292Y871246D02*
D03*
Y857003D02*
D03*
X44204Y847780D02*
D03*
X53588Y845183D02*
D03*
X44203Y839402D02*
D03*
X41187Y830270D02*
D03*
X39763Y819714D02*
D03*
X50655Y829684D02*
D03*
X53587Y838062D02*
D03*
X61127Y835213D02*
D03*
X63306Y825997D02*
D03*
X68668Y821724D02*
D03*
X74533Y816446D02*
D03*
X94137Y817870D02*
D03*
X68417Y807314D02*
D03*
X63390Y813011D02*
D03*
X54509Y807733D02*
D03*
X47974Y816111D02*
D03*
X53588Y822143D02*
D03*
X83748Y799355D02*
D03*
X72605Y798853D02*
D03*
X63389Y802204D02*
D03*
X51325Y799942D02*
D03*
X47931Y720433D02*
D03*
X48980Y709207D02*
D03*
X48142Y695970D02*
D03*
X38590Y677035D02*
D03*
X47471Y668908D02*
D03*
X174064Y668909D02*
D03*
X189731Y675862D02*
D03*
X132342Y685371D02*
D03*
X182023Y746824D02*
D03*
X181814Y760104D02*
D03*
X180180Y772127D02*
D03*
X180850Y785112D02*
D03*
X173477Y796423D02*
D03*
X172220Y804968D02*
D03*
X189731Y804633D02*
D03*
X181814Y798643D02*
D03*
X157811Y813808D02*
D03*
X145368Y811715D02*
D03*
X115837Y822018D02*
D03*
X111815Y805807D02*
D03*
X111111Y817251D02*
D03*
X120276Y827757D02*
D03*
X164680Y822898D02*
D03*
X189396Y835047D02*
D03*
X183112Y823066D02*
D03*
X168618Y867720D02*
D03*
X189228Y867217D02*
D03*
X178755Y878947D02*
D03*
X167275Y878277D02*
D03*
X164429Y892520D02*
D03*
X174321Y894705D02*
D03*
X171802Y885650D02*
D03*
X161832Y904417D02*
D03*
X154292Y916313D02*
D03*
X149265Y909275D02*
D03*
X141390Y916648D02*
D03*
X136028Y909694D02*
D03*
X134519Y892101D02*
D03*
X126141Y892855D02*
D03*
X121869Y908941D02*
D03*
X104694Y901065D02*
D03*
X105113Y906595D02*
D03*
X105029Y911789D02*
D03*
X168032Y918827D02*
D03*
X183699Y917905D02*
D03*
X167864Y929802D02*
D03*
X183364Y930388D02*
D03*
X183531Y940861D02*
D03*
X168032Y940274D02*
D03*
X167780Y951083D02*
D03*
X183279Y950580D02*
D03*
X95223Y858385D02*
D03*
Y864118D02*
D03*
X102766Y737023D02*
D03*
X101092Y858385D02*
D03*
X106961D02*
D03*
X89354D02*
D03*
X83485D02*
D03*
X95223Y852652D02*
D03*
X83485Y852652D02*
D03*
X89354Y852652D02*
D03*
X83485Y864118D02*
D03*
X89354D02*
D03*
X106961D02*
D03*
X101092D02*
D03*
X106961Y852652D02*
D03*
X101092D02*
D03*
X102766Y745023D02*
D03*
X102766Y753023D02*
D03*
Y729023D02*
D03*
Y721023D02*
D03*
X110766D02*
D03*
X110766Y729023D02*
D03*
X110766Y745023D02*
D03*
X110766Y753023D02*
D03*
Y737023D02*
D03*
X118766Y721023D02*
D03*
Y729023D02*
D03*
Y745023D02*
D03*
Y753023D02*
D03*
Y737023D02*
D03*
X94766Y721023D02*
D03*
Y745023D02*
D03*
X94766Y753023D02*
D03*
Y737023D02*
D03*
X86766Y721023D02*
D03*
X86766Y729023D02*
D03*
Y745023D02*
D03*
Y753023D02*
D03*
Y737023D02*
D03*
X96651Y681812D02*
D03*
X156812Y717166D02*
D03*
X146340Y731073D02*
D03*
X94766Y729023D02*
D03*
X86346Y817703D02*
D03*
M02*
