G04*
G04 #@! TF.GenerationSoftware,Altium Limited,Altium Designer,20.1.14 (287)*
G04*
G04 Layer_Color=16711935*
%FSLAX44Y44*%
%MOMM*%
G71*
G04*
G04 #@! TF.SameCoordinates,45AFD5CB-E2DC-46B4-AC03-AB9053879BB0*
G04*
G04*
G04 #@! TF.FilePolarity,Negative*
G04*
G01*
G75*
%ADD98R,1.9032X1.9032*%
%ADD155C,1.7032*%
%ADD156R,1.7032X1.7032*%
%ADD157C,1.9032*%
%ADD158C,2.5032*%
%ADD159R,2.5032X2.5032*%
%ADD160C,2.0828*%
%ADD161R,2.0828X2.0828*%
%ADD162C,1.7332*%
%ADD163R,1.7332X1.7332*%
%ADD164R,1.7332X1.7332*%
%ADD165R,1.7032X4.2192*%
%ADD166R,4.2192X1.7032*%
%ADD167R,1.7032X4.7192*%
%ADD168C,5.2032*%
%ADD169C,0.0508*%
%ADD170C,0.0020*%
G04:AMPARAMS|DCode=198|XSize=2.1mm|YSize=0.8mm|CornerRadius=0.36mm|HoleSize=0mm|Usage=FLASHONLY|Rotation=90.000|XOffset=0mm|YOffset=0mm|HoleType=Round|Shape=RoundedRectangle|*
%AMROUNDEDRECTD198*
21,1,2.1000,0.0800,0,0,90.0*
21,1,1.3800,0.8000,0,0,90.0*
1,1,0.7200,0.0400,0.6900*
1,1,0.7200,0.0400,-0.6900*
1,1,0.7200,-0.0400,-0.6900*
1,1,0.7200,-0.0400,0.6900*
%
%ADD198ROUNDEDRECTD198*%
D98*
X846582Y90932D02*
D03*
X252222Y56388D02*
D03*
D155*
X286766Y996442D02*
D03*
X312166D02*
D03*
X337566D02*
D03*
X362966D02*
D03*
X388366D02*
D03*
X413766D02*
D03*
X439166D02*
D03*
X464566D02*
D03*
X489966D02*
D03*
X515366D02*
D03*
X540766D02*
D03*
X566166D02*
D03*
X591566D02*
D03*
X616966D02*
D03*
X642366D02*
D03*
X667766D02*
D03*
X693166D02*
D03*
X718566D02*
D03*
X743966D02*
D03*
X769366D02*
D03*
X794766D02*
D03*
X820166D02*
D03*
X845566D02*
D03*
X286766Y1021842D02*
D03*
X312166D02*
D03*
X337566D02*
D03*
X362966D02*
D03*
X388366D02*
D03*
X413766D02*
D03*
X439166D02*
D03*
X464566D02*
D03*
X489966D02*
D03*
X515366D02*
D03*
X540766D02*
D03*
X566166D02*
D03*
X591566D02*
D03*
X616966D02*
D03*
X642366D02*
D03*
X667766D02*
D03*
X693166D02*
D03*
X718566D02*
D03*
X743966D02*
D03*
X769366D02*
D03*
X794766D02*
D03*
X820166D02*
D03*
D156*
X845566D02*
D03*
D157*
X846582Y116332D02*
D03*
X252222Y30988D02*
D03*
D158*
X1024744Y393446D02*
D03*
X973220Y922020D02*
D03*
X131972Y173736D02*
D03*
X973220Y666242D02*
D03*
X973474Y836676D02*
D03*
X973220Y1007364D02*
D03*
X973450Y751408D02*
D03*
X973366Y580898D02*
D03*
D159*
X974744Y393446D02*
D03*
X1023220Y922020D02*
D03*
X181972Y173736D02*
D03*
X1023220Y666242D02*
D03*
X1023474Y836676D02*
D03*
X1023220Y1007364D02*
D03*
X1023450Y751408D02*
D03*
X1023366Y580898D02*
D03*
D160*
X820166Y539242D02*
D03*
X845566Y513842D02*
D03*
X794766Y539242D02*
D03*
X743966D02*
D03*
X769366D02*
D03*
X820166Y513842D02*
D03*
X769366D02*
D03*
X794766D02*
D03*
X743966D02*
D03*
X718566Y539242D02*
D03*
X693166Y513842D02*
D03*
X667766Y539242D02*
D03*
X693166D02*
D03*
X591566D02*
D03*
X642366D02*
D03*
X667766Y513842D02*
D03*
X616966Y539242D02*
D03*
X718566Y513842D02*
D03*
X642366D02*
D03*
X616966D02*
D03*
X591566D02*
D03*
Y482092D02*
D03*
X820166Y56642D02*
D03*
X769366D02*
D03*
X794766D02*
D03*
X743966D02*
D03*
X845566Y31242D02*
D03*
X794766D02*
D03*
X820166D02*
D03*
X769366D02*
D03*
X693166Y56642D02*
D03*
X718566D02*
D03*
X667766D02*
D03*
X642366D02*
D03*
X591566D02*
D03*
X616966D02*
D03*
X591566Y31242D02*
D03*
X718566D02*
D03*
X743966D02*
D03*
X693166D02*
D03*
X642366D02*
D03*
X667766D02*
D03*
X616966D02*
D03*
X566166Y539242D02*
D03*
X540766D02*
D03*
X566166Y513842D02*
D03*
X515366Y539242D02*
D03*
X540766Y513842D02*
D03*
X489966Y539242D02*
D03*
X464566D02*
D03*
X439166D02*
D03*
X515366Y513842D02*
D03*
X540766Y482092D02*
D03*
X566166D02*
D03*
X515366D02*
D03*
X489966Y513842D02*
D03*
X439166D02*
D03*
X489966Y482092D02*
D03*
X464566Y513842D02*
D03*
X388366Y539242D02*
D03*
X413766D02*
D03*
X362966D02*
D03*
X312166D02*
D03*
X337566D02*
D03*
X286766D02*
D03*
X388366Y513842D02*
D03*
X413766D02*
D03*
X362966D02*
D03*
X312166D02*
D03*
X337566D02*
D03*
X286766D02*
D03*
X540766Y56642D02*
D03*
X566166D02*
D03*
X489966D02*
D03*
X515366D02*
D03*
X464566D02*
D03*
X439166D02*
D03*
X413766D02*
D03*
X489966Y31242D02*
D03*
X540766D02*
D03*
X566166D02*
D03*
X515366D02*
D03*
X464566D02*
D03*
X439166D02*
D03*
X362966Y56642D02*
D03*
X388366D02*
D03*
X337566D02*
D03*
X312166D02*
D03*
X286766D02*
D03*
X388366Y31242D02*
D03*
X413766D02*
D03*
X362966D02*
D03*
X312166D02*
D03*
X337566D02*
D03*
X286766D02*
D03*
D161*
X845566Y539242D02*
D03*
X616966Y482092D02*
D03*
X845566Y56642D02*
D03*
D162*
X182118Y540258D02*
D03*
X156718D02*
D03*
X131318D02*
D03*
X105918D02*
D03*
X80518D02*
D03*
X55118D02*
D03*
X605790Y757428D02*
D03*
Y732028D02*
D03*
Y706628D02*
D03*
Y681228D02*
D03*
Y655828D02*
D03*
Y630428D02*
D03*
D163*
X29718Y540258D02*
D03*
D164*
X605790Y605028D02*
D03*
D165*
X973102Y503420D02*
D03*
D166*
X943102Y550420D02*
D03*
D167*
X913102Y503420D02*
D03*
D168*
X897000Y1010000D02*
D03*
X39999Y1010000D02*
D03*
Y40000D02*
D03*
X897000D02*
D03*
D169*
X806450Y594899D02*
D03*
X178562Y604942D02*
D03*
X802752Y586994D02*
D03*
X52070Y619760D02*
D03*
X694436Y620268D02*
D03*
X178816Y593852D02*
D03*
D170*
X773137Y691558D02*
D03*
X727696Y900176D02*
D03*
X796731Y657296D02*
D03*
X670138Y657295D02*
D03*
X667456Y899841D02*
D03*
X796988Y883092D02*
D03*
X812398Y664249D02*
D03*
X661257Y665422D02*
D03*
X677433Y880830D02*
D03*
X741433Y709410D02*
D03*
Y717410D02*
D03*
X733433Y717410D02*
D03*
X733433Y709410D02*
D03*
X717433Y717410D02*
D03*
X709433Y709410D02*
D03*
X717433D02*
D03*
X709433Y717410D02*
D03*
X717433Y741410D02*
D03*
X717433Y733410D02*
D03*
X709433Y733410D02*
D03*
Y741410D02*
D03*
X741433D02*
D03*
X733433D02*
D03*
X741433Y733410D02*
D03*
X733433D02*
D03*
X696117Y688382D02*
D03*
X764015Y754410D02*
D03*
X685201Y768145D02*
D03*
X713532Y774374D02*
D03*
X678114Y770851D02*
D03*
X676842Y672543D02*
D03*
X751213Y756739D02*
D03*
X704315Y687078D02*
D03*
X767445Y668836D02*
D03*
X762890Y673974D02*
D03*
X763218Y684902D02*
D03*
X785424Y691062D02*
D03*
X751785Y695289D02*
D03*
X761081Y703079D02*
D03*
X764780Y708970D02*
D03*
X745002Y762687D02*
D03*
X731701Y762614D02*
D03*
X766267Y858067D02*
D03*
X758193Y842284D02*
D03*
X755092Y815641D02*
D03*
X686063Y761443D02*
D03*
X712021Y841039D02*
D03*
X706152Y841039D02*
D03*
X712021Y852505D02*
D03*
Y846772D02*
D03*
X706152Y852505D02*
D03*
Y846772D02*
D03*
X729628Y852505D02*
D03*
X723759D02*
D03*
X717890D02*
D03*
X729628Y846772D02*
D03*
X723759D02*
D03*
X729628Y841039D02*
D03*
X723759D02*
D03*
X717890D02*
D03*
X717348Y824775D02*
D03*
X691590Y846732D02*
D03*
X772601Y823682D02*
D03*
X695028Y831562D02*
D03*
X694402Y760853D02*
D03*
X779222Y862895D02*
D03*
X691502Y853888D02*
D03*
X788730Y838429D02*
D03*
X699006Y860010D02*
D03*
X714208Y674304D02*
D03*
X667415Y938387D02*
D03*
X682831Y938471D02*
D03*
X699336Y938555D02*
D03*
X683082Y924396D02*
D03*
X667248Y925569D02*
D03*
X699168Y923809D02*
D03*
X709516Y938220D02*
D03*
X666954Y908555D02*
D03*
X682705D02*
D03*
X695859Y909057D02*
D03*
X706331Y907549D02*
D03*
X716301Y912073D02*
D03*
X715966Y905538D02*
D03*
X715882Y899758D02*
D03*
X716217Y894312D02*
D03*
X715128Y889201D02*
D03*
X706582Y899422D02*
D03*
X705074Y891715D02*
D03*
X693764Y895904D02*
D03*
X699962Y883420D02*
D03*
X684044Y900009D02*
D03*
X713913Y883002D02*
D03*
X714081Y875629D02*
D03*
X704823Y875796D02*
D03*
X688568Y882080D02*
D03*
X666792Y870860D02*
D03*
X666959Y859633D02*
D03*
Y845390D02*
D03*
X666871Y836167D02*
D03*
X676255Y833570D02*
D03*
X666870Y827789D02*
D03*
X663854Y818657D02*
D03*
X662430Y808101D02*
D03*
X673322Y818071D02*
D03*
X676254Y826449D02*
D03*
X683794Y823600D02*
D03*
X685973Y814384D02*
D03*
X691335Y810111D02*
D03*
X697200Y804833D02*
D03*
X716804Y806257D02*
D03*
X691084Y795701D02*
D03*
X686057Y801398D02*
D03*
X677176Y796120D02*
D03*
X670641Y804498D02*
D03*
X676255Y810530D02*
D03*
X706415Y787742D02*
D03*
X695272Y787240D02*
D03*
X686056Y790591D02*
D03*
X673992Y788329D02*
D03*
X670598Y708820D02*
D03*
X671647Y697594D02*
D03*
X670809Y684357D02*
D03*
X755009Y673758D02*
D03*
X804690Y735211D02*
D03*
X804481Y748491D02*
D03*
X802847Y760514D02*
D03*
X803517Y773499D02*
D03*
X796144Y784810D02*
D03*
X794887Y793355D02*
D03*
X812398Y793020D02*
D03*
X804481Y787030D02*
D03*
X780478Y802195D02*
D03*
X768035Y800102D02*
D03*
X738504Y810405D02*
D03*
X734482Y794194D02*
D03*
X733778Y805638D02*
D03*
X742943Y816144D02*
D03*
X787347Y811285D02*
D03*
X812063Y823434D02*
D03*
X805779Y811453D02*
D03*
X791285Y856107D02*
D03*
X811895Y855604D02*
D03*
X801422Y867334D02*
D03*
X789942Y866664D02*
D03*
X787096Y880907D02*
D03*
X794469Y874037D02*
D03*
X784499Y892804D02*
D03*
X776959Y904700D02*
D03*
X771932Y897662D02*
D03*
X764057Y905035D02*
D03*
X758695Y898081D02*
D03*
X757186Y880488D02*
D03*
X748808Y881242D02*
D03*
X744536Y897328D02*
D03*
X727361Y889452D02*
D03*
X727780Y894982D02*
D03*
X790699Y907214D02*
D03*
X806366Y906292D02*
D03*
X790531Y918189D02*
D03*
X806031Y918775D02*
D03*
X806198Y929248D02*
D03*
X790699Y928661D02*
D03*
X790447Y939470D02*
D03*
X805946Y938967D02*
D03*
X717890Y846772D02*
D03*
X725433Y725410D02*
D03*
Y733410D02*
D03*
X725433Y741410D02*
D03*
Y717410D02*
D03*
Y709410D02*
D03*
X733433Y725410D02*
D03*
X741433D02*
D03*
X717433Y725410D02*
D03*
X709433D02*
D03*
X719318Y670199D02*
D03*
X779479Y705553D02*
D03*
X769007Y719460D02*
D03*
X709013Y806090D02*
D03*
X143600Y869680D02*
D03*
X76339Y871623D02*
D03*
X166063Y850042D02*
D03*
X68835Y865501D02*
D03*
X156555Y874508D02*
D03*
X122335Y774300D02*
D03*
X109034Y774227D02*
D03*
X142113Y720583D02*
D03*
X138414Y714692D02*
D03*
X129118Y706902D02*
D03*
X162757Y702675D02*
D03*
X140551Y696515D02*
D03*
X140223Y685587D02*
D03*
X144778Y680449D02*
D03*
X81648Y698691D02*
D03*
X128546Y768352D02*
D03*
X54175Y684156D02*
D03*
X149934Y835295D02*
D03*
X72361Y843175D02*
D03*
X71735Y772466D02*
D03*
X63396Y773056D02*
D03*
X132425Y827254D02*
D03*
X55447Y782464D02*
D03*
X90865Y785987D02*
D03*
X62534Y779758D02*
D03*
X68923Y858345D02*
D03*
X141348Y766023D02*
D03*
X150470Y703171D02*
D03*
X73450Y699995D02*
D03*
X94681Y836388D02*
D03*
X135526Y853897D02*
D03*
X91541Y685917D02*
D03*
X44748Y950000D02*
D03*
X60164Y950084D02*
D03*
X76669Y950168D02*
D03*
X60415Y936009D02*
D03*
X44581Y937182D02*
D03*
X76501Y935422D02*
D03*
X86849Y949833D02*
D03*
X44287Y920168D02*
D03*
X60038D02*
D03*
X73192Y920670D02*
D03*
X83664Y919162D02*
D03*
X93634Y923686D02*
D03*
X93299Y917151D02*
D03*
X93215Y911371D02*
D03*
X93550Y905925D02*
D03*
X92461Y900814D02*
D03*
X83915Y911035D02*
D03*
X82407Y903328D02*
D03*
X71097Y907517D02*
D03*
X44789Y911454D02*
D03*
X54766Y892443D02*
D03*
X77295Y895033D02*
D03*
X61377Y911622D02*
D03*
X91246Y894615D02*
D03*
X91414Y887242D02*
D03*
X82156Y887409D02*
D03*
X65901Y893693D02*
D03*
X44125Y882473D02*
D03*
X44292Y871246D02*
D03*
Y857003D02*
D03*
X44204Y847780D02*
D03*
X53588Y845183D02*
D03*
X44203Y839402D02*
D03*
X41187Y830270D02*
D03*
X39763Y819714D02*
D03*
X50655Y829684D02*
D03*
X53587Y838062D02*
D03*
X61127Y835213D02*
D03*
X63306Y825997D02*
D03*
X68668Y821724D02*
D03*
X74533Y816446D02*
D03*
X94137Y817870D02*
D03*
X68417Y807314D02*
D03*
X63390Y813011D02*
D03*
X54509Y807733D02*
D03*
X47974Y816111D02*
D03*
X53588Y822143D02*
D03*
X83748Y799355D02*
D03*
X72605Y798853D02*
D03*
X63389Y802204D02*
D03*
X51325Y799942D02*
D03*
X47931Y720433D02*
D03*
X48980Y709207D02*
D03*
X48142Y695970D02*
D03*
X38590Y677035D02*
D03*
X47471Y668908D02*
D03*
X174064Y668909D02*
D03*
X189731Y675862D02*
D03*
X132342Y685371D02*
D03*
X182023Y746824D02*
D03*
X181814Y760104D02*
D03*
X180180Y772127D02*
D03*
X180850Y785112D02*
D03*
X173477Y796423D02*
D03*
X172220Y804968D02*
D03*
X189731Y804633D02*
D03*
X181814Y798643D02*
D03*
X157811Y813808D02*
D03*
X145368Y811715D02*
D03*
X115837Y822018D02*
D03*
X111815Y805807D02*
D03*
X111111Y817251D02*
D03*
X120276Y827757D02*
D03*
X164680Y822898D02*
D03*
X189396Y835047D02*
D03*
X183112Y823066D02*
D03*
X168618Y867720D02*
D03*
X189228Y867217D02*
D03*
X178755Y878947D02*
D03*
X167275Y878277D02*
D03*
X164429Y892520D02*
D03*
X174321Y894705D02*
D03*
X171802Y885650D02*
D03*
X161832Y904417D02*
D03*
X154292Y916313D02*
D03*
X149265Y909275D02*
D03*
X141390Y916648D02*
D03*
X136028Y909694D02*
D03*
X134519Y892101D02*
D03*
X126141Y892855D02*
D03*
X121869Y908941D02*
D03*
X104694Y901065D02*
D03*
X105113Y906595D02*
D03*
X105029Y911789D02*
D03*
X168032Y918827D02*
D03*
X183699Y917905D02*
D03*
X167864Y929802D02*
D03*
X183364Y930388D02*
D03*
X183531Y940861D02*
D03*
X168032Y940274D02*
D03*
X167780Y951083D02*
D03*
X183279Y950580D02*
D03*
X95223Y858385D02*
D03*
Y864118D02*
D03*
X102766Y737023D02*
D03*
X101092Y858385D02*
D03*
X106961D02*
D03*
X89354D02*
D03*
X83485D02*
D03*
X95223Y852652D02*
D03*
X83485Y852652D02*
D03*
X89354Y852652D02*
D03*
X83485Y864118D02*
D03*
X89354D02*
D03*
X106961D02*
D03*
X101092D02*
D03*
X106961Y852652D02*
D03*
X101092D02*
D03*
X102766Y745023D02*
D03*
X102766Y753023D02*
D03*
Y729023D02*
D03*
Y721023D02*
D03*
X110766D02*
D03*
X110766Y729023D02*
D03*
X110766Y745023D02*
D03*
X110766Y753023D02*
D03*
Y737023D02*
D03*
X118766Y721023D02*
D03*
Y729023D02*
D03*
Y745023D02*
D03*
Y753023D02*
D03*
Y737023D02*
D03*
X94766Y721023D02*
D03*
Y745023D02*
D03*
X94766Y753023D02*
D03*
Y737023D02*
D03*
X86766Y721023D02*
D03*
X86766Y729023D02*
D03*
Y745023D02*
D03*
Y753023D02*
D03*
Y737023D02*
D03*
X96651Y681812D02*
D03*
X156812Y717166D02*
D03*
X146340Y731073D02*
D03*
X94766Y729023D02*
D03*
X86346Y817703D02*
D03*
D198*
X806055Y886277D02*
D03*
X668575D02*
D03*
X668575Y670207D02*
D03*
X806055D02*
D03*
X183388Y681820D02*
D03*
X45908D02*
D03*
X45908Y897890D02*
D03*
X183388D02*
D03*
M02*
