G04*
G04 #@! TF.GenerationSoftware,Altium Limited,Altium Designer,20.1.14 (287)*
G04*
G04 Layer_Color=8421504*
%FSLAX44Y44*%
%MOMM*%
G71*
G04*
G04 #@! TF.SameCoordinates,45AFD5CB-E2DC-46B4-AC03-AB9053879BB0*
G04*
G04*
G04 #@! TF.FilePolarity,Positive*
G04*
G01*
G75*
%ADD32R,3.1750X3.9878*%
%ADD33R,0.6096X0.5334*%
%ADD34R,0.5334X0.6096*%
%ADD35R,1.0160X1.3970*%
%ADD36R,1.0500X1.0000*%
%ADD37R,2.2000X1.0500*%
%ADD38R,1.7000X1.7000*%
%ADD39R,0.7000X0.2200*%
%ADD40R,0.2200X0.7000*%
%ADD41R,0.4000X0.9000*%
%ADD42R,1.1500X0.6500*%
%ADD43R,0.2000X0.6000*%
%ADD44R,0.6000X0.2000*%
%ADD45R,1.2192X1.4224*%
%ADD46C,1.0000*%
%ADD47R,1.7501X0.5001*%
%ADD48R,0.5001X1.7501*%
%ADD49R,0.5000X1.5100*%
%ADD50R,0.3000X1.6000*%
%ADD51R,1.6000X0.3000*%
%ADD52R,0.4500X1.7500*%
%ADD53R,0.3000X0.4000*%
%ADD54R,0.4000X0.3000*%
%ADD55R,0.4500X1.4500*%
%ADD56R,2.1600X2.2600*%
%ADD57R,3.9600X3.9600*%
%ADD58R,3.1800X3.1800*%
%ADD59R,0.5000X0.5000*%
%ADD60R,0.9000X1.3000*%
%ADD61R,0.9000X1.6000*%
%ADD62R,2.3000X1.6500*%
%ADD63R,0.5000X0.5000*%
%ADD64R,0.8000X0.8000*%
%ADD65R,1.6500X2.3000*%
%ADD66R,2.5000X0.9000*%
%ADD67R,1.3000X0.9000*%
%ADD68R,1.6000X0.9000*%
%ADD69C,1.2700*%
%ADD70R,1.2000X1.2000*%
%ADD71R,0.8000X0.8000*%
%ADD72R,1.2200X0.9100*%
%ADD73R,0.9100X1.2200*%
%ADD74R,0.5000X0.6000*%
%ADD75R,1.4000X2.0000*%
%ADD76R,0.6000X0.5000*%
%ADD77R,0.8000X2.3500*%
%ADD78R,3.8000X2.5000*%
%ADD79R,1.4000X0.5000*%
%ADD80R,0.9000X0.8000*%
%ADD81R,0.9000X1.0000*%
%ADD82R,1.1000X0.6000*%
%ADD83R,1.5500X0.6000*%
%ADD84R,0.6000X1.5500*%
%ADD85R,0.6000X1.5000*%
%ADD86R,0.4500X1.4000*%
%ADD87R,1.3000X0.5500*%
%ADD88R,1.4700X1.2850*%
%ADD89C,0.2625*%
%ADD90R,0.9000X2.5000*%
%ADD91R,0.3500X1.4500*%
D32*
X766906Y924441D02*
D03*
X144239Y936054D02*
D03*
D33*
X789926Y764741D02*
D03*
Y773123D02*
D03*
X779441Y767451D02*
D03*
Y775833D02*
D03*
X769896Y773057D02*
D03*
Y764675D02*
D03*
X677804Y733540D02*
D03*
Y725158D02*
D03*
X754847Y776783D02*
D03*
Y785165D02*
D03*
X724936Y820593D02*
D03*
Y812211D02*
D03*
X743331Y776154D02*
D03*
Y784536D02*
D03*
X721837Y872198D02*
D03*
Y880580D02*
D03*
X99170Y883811D02*
D03*
Y892193D02*
D03*
X102269Y832206D02*
D03*
Y823824D02*
D03*
X120664Y787767D02*
D03*
Y796149D02*
D03*
X132180Y788396D02*
D03*
Y796778D02*
D03*
X147229Y784670D02*
D03*
X147229Y776288D02*
D03*
X156774Y779064D02*
D03*
X156774Y787446D02*
D03*
X167259Y776354D02*
D03*
Y784736D02*
D03*
X55137Y745153D02*
D03*
X55137Y736771D02*
D03*
D34*
X740601Y675862D02*
D03*
X748983D02*
D03*
X698384Y677899D02*
D03*
X706766D02*
D03*
X785627Y702651D02*
D03*
X794009D02*
D03*
X795855Y753778D02*
D03*
X787473D02*
D03*
X753420Y796793D02*
D03*
X745038D02*
D03*
X732965Y771687D02*
D03*
X724583D02*
D03*
X722357Y792291D02*
D03*
X713975D02*
D03*
X676415Y860045D02*
D03*
X684797D02*
D03*
X675582Y846892D02*
D03*
X683964D02*
D03*
X676079Y870853D02*
D03*
X684461D02*
D03*
X733482Y870441D02*
D03*
X741864D02*
D03*
X733439Y880998D02*
D03*
X741821D02*
D03*
X713975Y782360D02*
D03*
X722357D02*
D03*
X743664Y823022D02*
D03*
X735282D02*
D03*
X770134Y789619D02*
D03*
X778516D02*
D03*
X767825Y881990D02*
D03*
X776207D02*
D03*
X702146Y823265D02*
D03*
X693764D02*
D03*
X711194Y814385D02*
D03*
X702812D02*
D03*
X110815Y882054D02*
D03*
X119197D02*
D03*
X110772Y892611D02*
D03*
X119154D02*
D03*
X145158Y893603D02*
D03*
X153540D02*
D03*
X53412Y882466D02*
D03*
X61794D02*
D03*
X53748Y871658D02*
D03*
X62130D02*
D03*
X52915Y858505D02*
D03*
X61297D02*
D03*
X79479Y834878D02*
D03*
X71097D02*
D03*
X120997Y834635D02*
D03*
X112615D02*
D03*
X88527Y825998D02*
D03*
X80145D02*
D03*
X130753Y808406D02*
D03*
X122371Y808406D02*
D03*
X99690Y803904D02*
D03*
X91308D02*
D03*
Y793973D02*
D03*
X99690D02*
D03*
X110298Y783300D02*
D03*
X101916D02*
D03*
X147467Y801232D02*
D03*
X155849D02*
D03*
X173188Y765391D02*
D03*
X164806D02*
D03*
X162960Y714264D02*
D03*
X171342D02*
D03*
X117934Y687475D02*
D03*
X126316D02*
D03*
X75717Y689512D02*
D03*
X84099Y689512D02*
D03*
D35*
X774234Y679943D02*
D03*
X789474D02*
D03*
X151567Y691556D02*
D03*
X166807D02*
D03*
D36*
X721938Y924441D02*
D03*
X99271Y936054D02*
D03*
D37*
X737188Y909691D02*
D03*
Y939191D02*
D03*
X114521Y921304D02*
D03*
X114521Y950804D02*
D03*
D38*
X736396Y714349D02*
D03*
X714396D02*
D03*
Y736349D02*
D03*
X736396D02*
D03*
X113729Y725962D02*
D03*
X91729Y725962D02*
D03*
X91729Y747962D02*
D03*
X113729D02*
D03*
D39*
X754396Y722849D02*
D03*
Y717849D02*
D03*
X696396Y747849D02*
D03*
Y702849D02*
D03*
X754396Y742849D02*
D03*
X696396Y737849D02*
D03*
Y732849D02*
D03*
Y722849D02*
D03*
Y712849D02*
D03*
Y707849D02*
D03*
Y742849D02*
D03*
X754396Y702849D02*
D03*
Y707849D02*
D03*
X696396Y717849D02*
D03*
X754396Y747849D02*
D03*
Y727849D02*
D03*
Y737849D02*
D03*
X696396Y727849D02*
D03*
X754396Y712849D02*
D03*
Y732849D02*
D03*
X131729Y734462D02*
D03*
X131729Y729462D02*
D03*
X73729Y759462D02*
D03*
Y714462D02*
D03*
X131729Y754462D02*
D03*
X73729Y749462D02*
D03*
Y744462D02*
D03*
Y734462D02*
D03*
Y724462D02*
D03*
Y719462D02*
D03*
Y754462D02*
D03*
X131729Y714462D02*
D03*
Y719462D02*
D03*
X73729Y729462D02*
D03*
X131729Y759462D02*
D03*
X131729Y739462D02*
D03*
Y749462D02*
D03*
X73729Y739462D02*
D03*
X131729Y724462D02*
D03*
X131729Y744462D02*
D03*
D40*
X742896Y696349D02*
D03*
X717896Y754349D02*
D03*
X727896D02*
D03*
X702896D02*
D03*
X722896D02*
D03*
X712896D02*
D03*
X707896D02*
D03*
X747896D02*
D03*
X702896Y696349D02*
D03*
X707896D02*
D03*
X712896D02*
D03*
X717896D02*
D03*
X727896D02*
D03*
X732896D02*
D03*
X737896D02*
D03*
X747896D02*
D03*
X722896D02*
D03*
X732896Y754349D02*
D03*
X742896D02*
D03*
X737896D02*
D03*
X120229Y707962D02*
D03*
X95229Y765962D02*
D03*
X105229Y765962D02*
D03*
X80229D02*
D03*
X100229Y765962D02*
D03*
X90229D02*
D03*
X85229Y765962D02*
D03*
X125229D02*
D03*
X80229Y707962D02*
D03*
X85229D02*
D03*
X90229D02*
D03*
X95229D02*
D03*
X105229D02*
D03*
X110229D02*
D03*
X115229Y707962D02*
D03*
X125229D02*
D03*
X100229Y707962D02*
D03*
X110229Y765962D02*
D03*
X120229D02*
D03*
X115229D02*
D03*
D41*
X779267Y849010D02*
D03*
X766267Y871010D02*
D03*
Y849010D02*
D03*
X772767D02*
D03*
X779267Y871010D02*
D03*
X779101Y814782D02*
D03*
X766101Y836782D02*
D03*
Y814782D02*
D03*
X772601D02*
D03*
X779101Y836782D02*
D03*
X156434Y826395D02*
D03*
X143434Y848395D02*
D03*
Y826395D02*
D03*
X149934D02*
D03*
X156434Y848395D02*
D03*
X156600Y860623D02*
D03*
X143600Y882623D02*
D03*
X143600Y860623D02*
D03*
X150100D02*
D03*
X156600Y882623D02*
D03*
D42*
X710727Y841982D02*
D03*
Y851482D02*
D03*
X725227D02*
D03*
Y841982D02*
D03*
X88060Y853595D02*
D03*
X88060Y863095D02*
D03*
X102560D02*
D03*
Y853595D02*
D03*
D43*
X729977Y860732D02*
D03*
X713977Y832732D02*
D03*
X717977D02*
D03*
X729977D02*
D03*
X713977Y860732D02*
D03*
X709977D02*
D03*
X717977D02*
D03*
X725977D02*
D03*
X721977Y832732D02*
D03*
X705977Y860732D02*
D03*
Y832732D02*
D03*
X709977D02*
D03*
X725977D02*
D03*
X721977Y860732D02*
D03*
X107310Y872345D02*
D03*
X91310Y844345D02*
D03*
X95310D02*
D03*
X107310D02*
D03*
X91310Y872345D02*
D03*
X87310D02*
D03*
X95310D02*
D03*
X103310D02*
D03*
X99310Y844345D02*
D03*
X83310Y872345D02*
D03*
Y844345D02*
D03*
X87310D02*
D03*
X103310D02*
D03*
X99310Y872345D02*
D03*
D44*
X736977Y838732D02*
D03*
Y842732D02*
D03*
Y846732D02*
D03*
Y850732D02*
D03*
Y854732D02*
D03*
X698977Y846732D02*
D03*
Y838732D02*
D03*
Y850732D02*
D03*
Y854732D02*
D03*
Y842732D02*
D03*
X114310Y850345D02*
D03*
Y854345D02*
D03*
Y858345D02*
D03*
Y862345D02*
D03*
Y866345D02*
D03*
X76310Y858345D02*
D03*
Y850345D02*
D03*
Y862345D02*
D03*
Y866345D02*
D03*
Y854345D02*
D03*
D45*
X794373Y738835D02*
D03*
X778371Y716833D02*
D03*
X794373D02*
D03*
X778371Y738835D02*
D03*
X171706Y750448D02*
D03*
X155704Y728446D02*
D03*
X171706D02*
D03*
X155704Y750448D02*
D03*
D46*
X657145Y766829D02*
D03*
Y754129D02*
D03*
Y779529D02*
D03*
Y741429D02*
D03*
Y728729D02*
D03*
X817145Y779529D02*
D03*
Y766829D02*
D03*
Y754129D02*
D03*
Y741429D02*
D03*
X817145Y716029D02*
D03*
X817145Y728729D02*
D03*
X657145Y690629D02*
D03*
Y677929D02*
D03*
Y716029D02*
D03*
Y703329D02*
D03*
X695245Y652529D02*
D03*
X682545D02*
D03*
X707945D02*
D03*
X817145Y677929D02*
D03*
X746045Y652529D02*
D03*
X817145Y703329D02*
D03*
Y690629D02*
D03*
X733345Y652529D02*
D03*
X720645D02*
D03*
X784145D02*
D03*
X758745D02*
D03*
X771445D02*
D03*
X34478Y778442D02*
D03*
X34478Y765742D02*
D03*
Y791142D02*
D03*
Y753042D02*
D03*
Y740342D02*
D03*
X194478Y791142D02*
D03*
X194478Y778442D02*
D03*
X194478Y765742D02*
D03*
Y753042D02*
D03*
X194478Y727642D02*
D03*
X194478Y740342D02*
D03*
X34478Y702242D02*
D03*
Y689542D02*
D03*
Y727642D02*
D03*
X34478Y714942D02*
D03*
X72578Y664142D02*
D03*
X59878Y664142D02*
D03*
X85278D02*
D03*
X194478Y689542D02*
D03*
X123378Y664142D02*
D03*
X194478Y714942D02*
D03*
X194478Y702242D02*
D03*
X110678Y664142D02*
D03*
X97978D02*
D03*
X161478Y664142D02*
D03*
X136078Y664142D02*
D03*
X148778Y664142D02*
D03*
D47*
X799804Y892528D02*
D03*
Y663959D02*
D03*
X674826D02*
D03*
Y892528D02*
D03*
X177137Y904141D02*
D03*
X177137Y675572D02*
D03*
X52159D02*
D03*
X52159Y904141D02*
D03*
D48*
X806055Y886277D02*
D03*
Y670207D02*
D03*
X668575D02*
D03*
Y886277D02*
D03*
X183388Y897890D02*
D03*
Y681820D02*
D03*
X45908D02*
D03*
X45908Y897890D02*
D03*
D49*
X625700Y296644D02*
D03*
X619200D02*
D03*
X612700D02*
D03*
X606200D02*
D03*
Y356644D02*
D03*
X612700D02*
D03*
X619200D02*
D03*
X625700D02*
D03*
D50*
X519724Y179780D02*
D03*
X513224D02*
D03*
X506724D02*
D03*
X500224D02*
D03*
X493724D02*
D03*
X487224D02*
D03*
X480724D02*
D03*
X474224D02*
D03*
X467724D02*
D03*
X461224D02*
D03*
Y123780D02*
D03*
X467724D02*
D03*
X474224D02*
D03*
X480724D02*
D03*
X487224D02*
D03*
X493724D02*
D03*
X500224D02*
D03*
X506724D02*
D03*
X513224D02*
D03*
X519724D02*
D03*
D51*
X544524Y394216D02*
D03*
Y400716D02*
D03*
Y407216D02*
D03*
Y413716D02*
D03*
Y420216D02*
D03*
Y426716D02*
D03*
Y433216D02*
D03*
Y439716D02*
D03*
Y446216D02*
D03*
Y452716D02*
D03*
X488524D02*
D03*
Y446216D02*
D03*
Y439716D02*
D03*
Y433216D02*
D03*
Y426716D02*
D03*
Y420216D02*
D03*
Y413716D02*
D03*
Y407216D02*
D03*
Y400716D02*
D03*
Y394216D02*
D03*
X370788Y413736D02*
D03*
Y420236D02*
D03*
Y426736D02*
D03*
Y433236D02*
D03*
Y439736D02*
D03*
Y446236D02*
D03*
Y452736D02*
D03*
Y459236D02*
D03*
Y465736D02*
D03*
Y472236D02*
D03*
X314788D02*
D03*
Y465736D02*
D03*
Y459236D02*
D03*
Y452736D02*
D03*
Y446236D02*
D03*
Y439736D02*
D03*
Y433236D02*
D03*
Y426736D02*
D03*
Y420236D02*
D03*
Y413736D02*
D03*
D52*
X63032Y387372D02*
D03*
X69532D02*
D03*
X76032D02*
D03*
X82532D02*
D03*
X89032D02*
D03*
X95532D02*
D03*
X102032D02*
D03*
X108532D02*
D03*
X115032D02*
D03*
X121532D02*
D03*
X128032D02*
D03*
X134532D02*
D03*
X141032D02*
D03*
X147532D02*
D03*
X63032Y459372D02*
D03*
X69532D02*
D03*
X76032D02*
D03*
X82532D02*
D03*
X89032D02*
D03*
X95532D02*
D03*
X102032D02*
D03*
X108532D02*
D03*
X115032D02*
D03*
X121532D02*
D03*
X128032D02*
D03*
X134532D02*
D03*
X141032D02*
D03*
X147532D02*
D03*
D53*
X52156Y246426D02*
D03*
X47156D02*
D03*
Y261426D02*
D03*
X52156D02*
D03*
D54*
X42031Y246426D02*
D03*
Y251426D02*
D03*
Y256426D02*
D03*
Y261426D02*
D03*
X57281D02*
D03*
Y256426D02*
D03*
Y251426D02*
D03*
Y246426D02*
D03*
D55*
X861166Y828983D02*
D03*
X867666D02*
D03*
X874166D02*
D03*
X880666D02*
D03*
Y769983D02*
D03*
X874166D02*
D03*
X867666D02*
D03*
X861166D02*
D03*
X237342Y828475D02*
D03*
X243842D02*
D03*
X250342D02*
D03*
X256842D02*
D03*
Y769475D02*
D03*
X250342D02*
D03*
X243842D02*
D03*
X237342D02*
D03*
D56*
X885544Y429006D02*
D03*
X836544D02*
D03*
D57*
X394246Y292860D02*
D03*
X237490Y293116D02*
D03*
D58*
X394246Y214160D02*
D03*
Y371560D02*
D03*
X237490Y371816D02*
D03*
Y214416D02*
D03*
D59*
X236960Y447266D02*
D03*
X246960D02*
D03*
X236960Y434256D02*
D03*
X246960D02*
D03*
X498552Y375920D02*
D03*
X488552D02*
D03*
X310816Y395986D02*
D03*
X300816D02*
D03*
X767030Y150211D02*
D03*
X757030D02*
D03*
X807416Y99411D02*
D03*
X797416D02*
D03*
X807416Y112873D02*
D03*
X797416D02*
D03*
X807670Y126335D02*
D03*
X797670D02*
D03*
X807924Y153259D02*
D03*
X797924D02*
D03*
X866050Y879094D02*
D03*
X856050D02*
D03*
X245782Y896366D02*
D03*
X235782D02*
D03*
X31322Y391340D02*
D03*
X41322D02*
D03*
X239060Y717099D02*
D03*
X229060D02*
D03*
X862814Y708914D02*
D03*
X852814D02*
D03*
X148820Y585978D02*
D03*
X138820D02*
D03*
X791186Y586994D02*
D03*
X781186D02*
D03*
X716557Y290830D02*
D03*
X706557D02*
D03*
X756658Y291116D02*
D03*
X746658D02*
D03*
X669718Y337356D02*
D03*
X659718D02*
D03*
X629760Y216916D02*
D03*
X619760D02*
D03*
X538964Y273412D02*
D03*
X548964D02*
D03*
X507510Y279204D02*
D03*
X497510D02*
D03*
X716196Y223266D02*
D03*
X706196D02*
D03*
X716450Y248666D02*
D03*
X706450D02*
D03*
X716450Y261366D02*
D03*
X706450D02*
D03*
X588340Y274066D02*
D03*
X598340D02*
D03*
X588340Y261366D02*
D03*
X598340D02*
D03*
X588594Y248666D02*
D03*
X598594D02*
D03*
X598598Y235712D02*
D03*
X588598D02*
D03*
X706200Y210276D02*
D03*
X716200D02*
D03*
X706450Y236184D02*
D03*
X716450D02*
D03*
X706450Y274284D02*
D03*
X716450D02*
D03*
X246887Y472786D02*
D03*
X236887D02*
D03*
X1017698Y156682D02*
D03*
X1007698D02*
D03*
X807670Y139543D02*
D03*
X797670D02*
D03*
X246887Y498312D02*
D03*
X236887D02*
D03*
X236808Y460298D02*
D03*
X246808D02*
D03*
X236808Y485612D02*
D03*
X246808D02*
D03*
X526622Y358104D02*
D03*
X536622D02*
D03*
D60*
X966706Y74168D02*
D03*
X947706D02*
D03*
X725526Y311150D02*
D03*
X706526D02*
D03*
X765658D02*
D03*
X746658D02*
D03*
X922426Y364744D02*
D03*
X941426D02*
D03*
X922426Y386588D02*
D03*
X941426D02*
D03*
X810108Y398272D02*
D03*
X791108D02*
D03*
D61*
X974484Y30480D02*
D03*
X943484D02*
D03*
X941330Y421894D02*
D03*
X910330D02*
D03*
X994220Y893172D02*
D03*
X1023220D02*
D03*
X994450Y722560D02*
D03*
X1023450D02*
D03*
X994220Y978516D02*
D03*
X1023220D02*
D03*
X994474Y807828D02*
D03*
X1023474D02*
D03*
X994690Y695162D02*
D03*
X1023690D02*
D03*
D62*
X1007876Y54589D02*
D03*
Y21589D02*
D03*
D63*
X983662Y94662D02*
D03*
Y84662D02*
D03*
X994330Y135302D02*
D03*
Y125302D02*
D03*
X1007538Y135302D02*
D03*
Y125302D02*
D03*
X866902Y864028D02*
D03*
Y854028D02*
D03*
X879856Y864028D02*
D03*
Y854028D02*
D03*
X845058Y829738D02*
D03*
Y819738D02*
D03*
X221234Y829230D02*
D03*
Y819230D02*
D03*
X243078Y863520D02*
D03*
Y853520D02*
D03*
X256842Y863520D02*
D03*
Y853520D02*
D03*
X107442Y489596D02*
D03*
Y479596D02*
D03*
X223012Y28106D02*
D03*
Y18106D02*
D03*
X185420Y451736D02*
D03*
Y461736D02*
D03*
X71628Y72978D02*
D03*
Y82978D02*
D03*
X73660Y266406D02*
D03*
Y256406D02*
D03*
X313436Y103520D02*
D03*
Y113520D02*
D03*
X919988Y891308D02*
D03*
Y881308D02*
D03*
X920248Y840584D02*
D03*
Y830584D02*
D03*
X919988Y940954D02*
D03*
Y930954D02*
D03*
X920370Y734996D02*
D03*
Y724996D02*
D03*
X921258Y786520D02*
D03*
Y776520D02*
D03*
X42544Y358240D02*
D03*
Y348240D02*
D03*
X55498Y357986D02*
D03*
Y347986D02*
D03*
X95630Y348240D02*
D03*
Y358240D02*
D03*
X137794Y496162D02*
D03*
Y486162D02*
D03*
X723980Y440008D02*
D03*
Y450008D02*
D03*
X125856Y496162D02*
D03*
Y486162D02*
D03*
X1034462Y135048D02*
D03*
Y125048D02*
D03*
X1021000Y125048D02*
D03*
Y135048D02*
D03*
X207900Y488326D02*
D03*
Y478326D02*
D03*
X195326Y478326D02*
D03*
Y488326D02*
D03*
X58850Y222119D02*
D03*
Y232119D02*
D03*
X71754Y232002D02*
D03*
Y222002D02*
D03*
X539750Y119808D02*
D03*
Y109808D02*
D03*
X602488Y165448D02*
D03*
Y155448D02*
D03*
X664718Y387996D02*
D03*
Y377996D02*
D03*
X980614Y135556D02*
D03*
Y125556D02*
D03*
X757214Y445182D02*
D03*
Y435182D02*
D03*
X664718Y355172D02*
D03*
Y365172D02*
D03*
X711557Y450008D02*
D03*
Y440008D02*
D03*
X673604Y313102D02*
D03*
Y303102D02*
D03*
X686876Y313166D02*
D03*
Y303166D02*
D03*
D64*
X1034259Y98229D02*
D03*
Y83229D02*
D03*
X767294Y183151D02*
D03*
Y168151D02*
D03*
X728726Y614354D02*
D03*
Y599354D02*
D03*
X745744Y614264D02*
D03*
Y599264D02*
D03*
X86360Y613756D02*
D03*
Y598756D02*
D03*
X103378Y613258D02*
D03*
Y598258D02*
D03*
X738876Y445316D02*
D03*
Y430316D02*
D03*
X871982Y113502D02*
D03*
Y128502D02*
D03*
X679958Y178690D02*
D03*
Y163690D02*
D03*
D65*
X726957Y125997D02*
D03*
X693957D02*
D03*
D66*
X793496Y198634D02*
D03*
Y167634D02*
D03*
D67*
X747482Y188961D02*
D03*
Y169961D02*
D03*
X164084Y623926D02*
D03*
Y604926D02*
D03*
X806450Y624450D02*
D03*
Y605450D02*
D03*
X693674Y446634D02*
D03*
Y427634D02*
D03*
X879348Y376580D02*
D03*
Y395580D02*
D03*
X901954Y376580D02*
D03*
Y395580D02*
D03*
X786384Y442316D02*
D03*
Y423316D02*
D03*
D68*
X702564Y190500D02*
D03*
Y159500D02*
D03*
D69*
X848868Y668528D02*
D03*
X217424Y679105D02*
D03*
D70*
X708914Y620354D02*
D03*
Y599354D02*
D03*
X66548Y619846D02*
D03*
Y598846D02*
D03*
D71*
X763270Y614264D02*
D03*
Y599264D02*
D03*
X120904Y613756D02*
D03*
Y598756D02*
D03*
X245060Y700335D02*
D03*
X230060D02*
D03*
X868814Y692150D02*
D03*
X853814D02*
D03*
X40900Y466270D02*
D03*
X25900D02*
D03*
X806738Y488950D02*
D03*
X791738D02*
D03*
X950976Y94742D02*
D03*
X965976D02*
D03*
X770800Y99411D02*
D03*
X755800D02*
D03*
D72*
X605526Y817002D02*
D03*
Y784302D02*
D03*
D73*
X35406Y568198D02*
D03*
X68106D02*
D03*
D74*
X925522Y706120D02*
D03*
X934522D02*
D03*
X925140Y912078D02*
D03*
X934140D02*
D03*
X925400Y811708D02*
D03*
X934400D02*
D03*
X925140Y862432D02*
D03*
X934140D02*
D03*
X926410Y757644D02*
D03*
X935410D02*
D03*
X773466Y488950D02*
D03*
X764466D02*
D03*
D75*
X834996Y465860D02*
D03*
X878996D02*
D03*
D76*
X27812Y348232D02*
D03*
Y357232D02*
D03*
X662432Y179754D02*
D03*
Y170754D02*
D03*
X70230Y347978D02*
D03*
Y356978D02*
D03*
D77*
X12516Y172674D02*
D03*
Y119174D02*
D03*
D78*
X40516Y103924D02*
D03*
Y187924D02*
D03*
D79*
X64516Y129924D02*
D03*
Y137924D02*
D03*
Y145924D02*
D03*
Y153924D02*
D03*
Y161924D02*
D03*
D80*
X933864Y897078D02*
D03*
Y878078D02*
D03*
X953864Y887578D02*
D03*
X935134Y792290D02*
D03*
Y773290D02*
D03*
X955134Y782790D02*
D03*
X933864Y946724D02*
D03*
Y927724D02*
D03*
X953864Y937224D02*
D03*
X934124Y846354D02*
D03*
Y827354D02*
D03*
X954124Y836854D02*
D03*
X934246Y740766D02*
D03*
Y721766D02*
D03*
X954246Y731266D02*
D03*
D81*
X857122Y358468D02*
D03*
Y399468D02*
D03*
X841122Y358468D02*
D03*
Y399468D02*
D03*
X23622Y449432D02*
D03*
Y408432D02*
D03*
X39622Y449432D02*
D03*
Y408432D02*
D03*
X244096Y123847D02*
D03*
Y82847D02*
D03*
X260096Y123847D02*
D03*
Y82847D02*
D03*
D82*
X254782Y911910D02*
D03*
Y921410D02*
D03*
Y930910D02*
D03*
X226782D02*
D03*
Y911910D02*
D03*
X875608Y895263D02*
D03*
Y904763D02*
D03*
Y914263D02*
D03*
X847608D02*
D03*
Y895263D02*
D03*
D83*
X588874Y345948D02*
D03*
Y333248D02*
D03*
Y320548D02*
D03*
Y307848D02*
D03*
X642874Y345948D02*
D03*
Y333248D02*
D03*
Y320548D02*
D03*
Y307848D02*
D03*
X673760Y235966D02*
D03*
Y248666D02*
D03*
Y261366D02*
D03*
Y274066D02*
D03*
X619760Y235966D02*
D03*
Y248666D02*
D03*
Y261366D02*
D03*
Y274066D02*
D03*
X494964Y256902D02*
D03*
Y244202D02*
D03*
Y231502D02*
D03*
Y218802D02*
D03*
X548964Y256902D02*
D03*
Y244202D02*
D03*
Y231502D02*
D03*
Y218802D02*
D03*
X551510Y298450D02*
D03*
Y311150D02*
D03*
Y323850D02*
D03*
Y336550D02*
D03*
X497510Y298450D02*
D03*
Y311150D02*
D03*
Y323850D02*
D03*
Y336550D02*
D03*
D84*
X300736Y135154D02*
D03*
X313436D02*
D03*
X326136D02*
D03*
X338836D02*
D03*
X300736Y189154D02*
D03*
X313436D02*
D03*
X326136D02*
D03*
X338836D02*
D03*
D85*
X203962Y113106D02*
D03*
X191262D02*
D03*
X178562D02*
D03*
X165862D02*
D03*
X153162D02*
D03*
X140462D02*
D03*
X127762D02*
D03*
X115062D02*
D03*
X102362D02*
D03*
X89662D02*
D03*
Y18106D02*
D03*
X102362D02*
D03*
X115062D02*
D03*
X127762D02*
D03*
X140462D02*
D03*
X153162D02*
D03*
X165862D02*
D03*
X178562D02*
D03*
X191262D02*
D03*
X203962D02*
D03*
D86*
X201400Y461737D02*
D03*
X207900D02*
D03*
X214400D02*
D03*
X220900D02*
D03*
Y417737D02*
D03*
X214400D02*
D03*
X207900D02*
D03*
X201400D02*
D03*
D87*
X559254Y164948D02*
D03*
Y145948D02*
D03*
X584254Y164948D02*
D03*
Y155448D02*
D03*
Y145948D02*
D03*
D88*
X140970Y623942D02*
D03*
Y604492D02*
D03*
X783336Y624450D02*
D03*
Y605000D02*
D03*
D89*
X748300Y119089D02*
D03*
X753300D02*
D03*
X758300D02*
D03*
X763300D02*
D03*
X768300D02*
D03*
X773300D02*
D03*
X778300D02*
D03*
X748300Y124089D02*
D03*
X753300D02*
D03*
X758300D02*
D03*
X763300D02*
D03*
X768300D02*
D03*
X773300D02*
D03*
X778300D02*
D03*
X748300Y129089D02*
D03*
X753300D02*
D03*
X758300D02*
D03*
X763300D02*
D03*
X768300D02*
D03*
X773300D02*
D03*
X778300D02*
D03*
X748300Y134089D02*
D03*
X753300D02*
D03*
X758300D02*
D03*
X763300D02*
D03*
X768300D02*
D03*
X773300D02*
D03*
X778300D02*
D03*
X1014784Y105932D02*
D03*
Y100932D02*
D03*
X1009784D02*
D03*
X1014784Y90932D02*
D03*
Y95932D02*
D03*
X1009784Y105932D02*
D03*
Y95932D02*
D03*
X1004784D02*
D03*
X1009784Y90932D02*
D03*
X1004784D02*
D03*
X1014784Y80932D02*
D03*
X1009784Y85932D02*
D03*
X1014784D02*
D03*
X1009784Y80932D02*
D03*
X1014784Y75932D02*
D03*
X1009784D02*
D03*
X1004784Y105932D02*
D03*
Y85932D02*
D03*
Y100932D02*
D03*
X999784D02*
D03*
Y95932D02*
D03*
Y105932D02*
D03*
Y85932D02*
D03*
Y90932D02*
D03*
X1004784Y80932D02*
D03*
X999784D02*
D03*
X1004784Y75932D02*
D03*
X999784D02*
D03*
D90*
X965714Y121666D02*
D03*
X934714D02*
D03*
D91*
X764876Y348732D02*
D03*
X758376D02*
D03*
Y405232D02*
D03*
X764876D02*
D03*
X680376Y348732D02*
D03*
X686876D02*
D03*
X693376D02*
D03*
X699876D02*
D03*
X706376D02*
D03*
X712876D02*
D03*
X719376D02*
D03*
X725876D02*
D03*
X732376D02*
D03*
X738876D02*
D03*
X745376D02*
D03*
X751876D02*
D03*
Y405232D02*
D03*
X745376D02*
D03*
X738876D02*
D03*
X732376D02*
D03*
X725876D02*
D03*
X719376D02*
D03*
X712876D02*
D03*
X706376D02*
D03*
X699876D02*
D03*
X693376D02*
D03*
X686876D02*
D03*
X680376D02*
D03*
M02*
