G04*
G04 #@! TF.GenerationSoftware,Altium Limited,Altium Designer,20.1.14 (287)*
G04*
G04 Layer_Color=16711935*
%FSLAX44Y44*%
%MOMM*%
G71*
G04*
G04 #@! TF.SameCoordinates,45AFD5CB-E2DC-46B4-AC03-AB9053879BB0*
G04*
G04*
G04 #@! TF.FilePolarity,Positive*
G04*
G01*
G75*
%ADD10C,0.2540*%
%ADD11C,0.2000*%
%ADD12C,0.5000*%
%ADD13C,0.4000*%
%ADD14C,0.3048*%
%ADD15C,0.2400*%
%ADD16C,0.2500*%
%ADD17C,0.6000*%
%ADD19C,0.3000*%
%ADD21C,0.1270*%
%ADD22C,0.1200*%
%ADD23C,0.1780*%
%ADD24C,0.1500*%
%ADD25C,0.1000*%
%ADD28C,0.0900*%
%ADD29R,1.7000X0.3810*%
%ADD30R,0.3810X1.7000*%
%ADD31R,0.5080X2.7000*%
%ADD200C,0.0254*%
%ADD201C,0.0305*%
%ADD202C,0.0406*%
%ADD203C,0.0584*%
G36*
X25908Y561848D02*
X29718Y554228D01*
X33528Y561848D01*
X25908D01*
D02*
G37*
G36*
X584200Y601218D02*
X591820Y605028D01*
X584200Y608838D01*
Y601218D01*
D02*
G37*
G36*
X747213Y110079D02*
X748907D01*
X748060Y112619D01*
X747213Y110079D01*
D02*
G37*
G36*
X1023794Y74845D02*
Y76539D01*
X1021254Y75692D01*
X1023794Y74845D01*
D02*
G37*
G36*
X840994Y1044702D02*
X845566Y1037082D01*
X850138Y1044702D01*
X840994D01*
D02*
G37*
D10*
X761718Y702489D02*
G03*
X761718Y702489I-254J0D01*
G01*
X758349Y847056D02*
G03*
X758349Y847056I-568J0D01*
G01*
X758183Y812828D02*
G03*
X758183Y812828I-568J0D01*
G01*
X706039Y825904D02*
G03*
X706039Y825904I-254J0D01*
G01*
X805019Y715896D02*
G03*
X805019Y715896I-359J0D01*
G01*
X83372Y837517D02*
G03*
X83372Y837517I-254J0D01*
G01*
X182352Y727509D02*
G03*
X182352Y727509I-359J0D01*
G01*
X139051Y714102D02*
G03*
X139051Y714102I-254J0D01*
G01*
X135516Y824441D02*
G03*
X135516Y824441I-568J0D01*
G01*
X135682Y858669D02*
G03*
X135682Y858669I-568J0D01*
G01*
X202126Y432117D02*
G03*
X202126Y432117I-1136J0D01*
G01*
X629666Y469392D02*
Y494792D01*
X477266D02*
X629666D01*
X477266Y469392D02*
X629666D01*
X477266D02*
Y494792D01*
X274066Y18542D02*
Y69342D01*
X858266D01*
X274066Y18542D02*
X858266D01*
Y69342D01*
Y501142D02*
Y551942D01*
X274066Y501142D02*
X858266D01*
X274066Y551942D02*
X858266D01*
X274066Y501142D02*
Y551942D01*
X657145Y652529D02*
Y952529D01*
X817145Y652529D02*
Y952529D01*
X657145Y652529D02*
X817145Y652529D01*
X657145Y952529D02*
X817145D01*
X34478Y664142D02*
Y964142D01*
X194478Y664142D02*
Y964142D01*
X34478Y664142D02*
X194478Y664142D01*
X34478Y964142D02*
X194478Y964142D01*
X717804Y589534D02*
Y632714D01*
X700024Y589534D02*
Y632714D01*
Y628904D02*
X717804D01*
X700024Y632714D02*
X717804D01*
X700024Y589534D02*
X717804D01*
X597026Y785278D02*
X614026D01*
X597026Y813778D02*
X614026D01*
X597026Y785278D02*
Y813778D01*
X614026Y785278D02*
Y813778D01*
X67130Y559698D02*
Y576698D01*
X38630Y559698D02*
Y576698D01*
Y559698D02*
X67130D01*
X38630Y576698D02*
X67130D01*
X75438Y589026D02*
Y632206D01*
X57658Y589026D02*
Y632206D01*
Y628396D02*
X75438D01*
X57658Y632206D02*
X75438D01*
X57658Y589026D02*
X75438D01*
X906102Y460420D02*
Y550420D01*
X1050102D01*
X906102Y460420D02*
X1050102D01*
Y550420D01*
X950364Y873078D02*
Y902078D01*
X937364D02*
X950364D01*
X937364Y873078D02*
X950364D01*
X937364D02*
Y902078D01*
X951634Y768290D02*
Y797290D01*
X938634D02*
X951634D01*
X938634Y768290D02*
X951634D01*
X938634D02*
Y797290D01*
X950364Y922724D02*
Y951724D01*
X937364D02*
X950364D01*
X937364Y922724D02*
X950364D01*
X937364D02*
Y951724D01*
X950624Y822354D02*
Y851354D01*
X937624D02*
X950624D01*
X937624Y822354D02*
X950624D01*
X937624D02*
Y851354D01*
X950746Y716766D02*
Y745766D01*
X937746D02*
X950746D01*
X937746Y716766D02*
X950746D01*
X937746D02*
Y745766D01*
X521208Y490976D02*
Y476164D01*
X524170Y473202D01*
X530095D01*
X533058Y476164D01*
Y490976D01*
X538982Y473202D02*
X544907D01*
X541945D01*
Y490976D01*
X538982Y488014D01*
X565644Y490976D02*
X559719Y488014D01*
X553794Y482089D01*
Y476164D01*
X556757Y473202D01*
X562681D01*
X565644Y476164D01*
Y479127D01*
X562681Y482089D01*
X553794D01*
X583418Y488014D02*
X580456Y490976D01*
X574531D01*
X571568Y488014D01*
Y476164D01*
X574531Y473202D01*
X580456D01*
X583418Y476164D01*
X552196Y537204D02*
Y522392D01*
X555158Y519430D01*
X561083D01*
X564045Y522392D01*
Y537204D01*
X569970Y519430D02*
X575895D01*
X572933D01*
Y537204D01*
X569970Y534242D01*
X596632Y537204D02*
X590707Y534242D01*
X584782Y528317D01*
Y522392D01*
X587744Y519430D01*
X593669D01*
X596632Y522392D01*
Y525355D01*
X593669Y528317D01*
X584782D01*
X602556Y537204D02*
Y519430D01*
X611443D01*
X614406Y522392D01*
Y525355D01*
X611443Y528317D01*
X602556D01*
X611443D01*
X614406Y531279D01*
Y534242D01*
X611443Y537204D01*
X602556D01*
X552450Y53080D02*
Y38268D01*
X555412Y35306D01*
X561337D01*
X564300Y38268D01*
Y53080D01*
X570224Y35306D02*
X576149D01*
X573187D01*
Y53080D01*
X570224Y50118D01*
X596886Y53080D02*
X590961Y50118D01*
X585036Y44193D01*
Y38268D01*
X587999Y35306D01*
X593923D01*
X596886Y38268D01*
Y41231D01*
X593923Y44193D01*
X585036D01*
X602810Y35306D02*
Y47155D01*
X608735Y53080D01*
X614660Y47155D01*
Y35306D01*
Y44193D01*
X602810D01*
X700024Y735704D02*
Y723007D01*
X700871Y720468D01*
X702563Y718774D01*
X705103Y717928D01*
X706796D01*
X709335Y718774D01*
X711028Y720468D01*
X711875Y723007D01*
Y735704D01*
X728635D02*
X720170Y717928D01*
X716784Y735704D02*
X728635D01*
X733460Y719621D02*
X732614Y718774D01*
X733460Y717928D01*
X734307Y718774D01*
X733460Y719621D01*
X739047Y731472D02*
Y732318D01*
X739893Y734011D01*
X740740Y734858D01*
X742433Y735704D01*
X745819D01*
X747512Y734858D01*
X748358Y734011D01*
X749205Y732318D01*
Y730625D01*
X748358Y728932D01*
X746665Y726393D01*
X738201Y717928D01*
X750051D01*
X83372Y745285D02*
Y732588D01*
X84218Y730049D01*
X85911Y728356D01*
X88451Y727509D01*
X90144D01*
X92683Y728356D01*
X94376Y730049D01*
X95223Y732588D01*
Y745285D01*
X111983D02*
X103518Y727509D01*
X100132Y745285D02*
X111983D01*
X116808Y729202D02*
X115962Y728356D01*
X116808Y727509D01*
X117654Y728356D01*
X116808Y729202D01*
X121548Y741899D02*
X123241Y742746D01*
X125781Y745285D01*
Y727509D01*
X998819Y401075D02*
X993820D01*
X996320D01*
Y388579D01*
X993820Y386080D01*
X991321D01*
X988822Y388579D01*
X1003817Y386080D02*
X1008816D01*
X1006316D01*
Y401075D01*
X1003817Y398576D01*
X996279Y929395D02*
X991280D01*
X993780D01*
Y916899D01*
X991280Y914400D01*
X988781D01*
X986282Y916899D01*
X1008775Y914400D02*
Y929395D01*
X1001277Y921898D01*
X1011274D01*
X148427Y180857D02*
X143428D01*
X145928D01*
Y168361D01*
X143428Y165862D01*
X140929D01*
X138430Y168361D01*
X153425Y165862D02*
X158424D01*
X155924D01*
Y180857D01*
X153425Y178358D01*
X173419Y165862D02*
Y180857D01*
X165921Y173360D01*
X175918D01*
X988405Y673617D02*
X983406D01*
X985906D01*
Y661121D01*
X983406Y658622D01*
X980907D01*
X978408Y661121D01*
X993403Y658622D02*
X998401D01*
X995902D01*
Y673617D01*
X993403Y671118D01*
X1005899D02*
X1008398Y673617D01*
X1013397D01*
X1015896Y671118D01*
Y668619D01*
X1013397Y666120D01*
X1010898D01*
X1013397D01*
X1015896Y663620D01*
Y661121D01*
X1013397Y658622D01*
X1008398D01*
X1005899Y661121D01*
X989167Y843543D02*
X984168D01*
X986668D01*
Y831047D01*
X984168Y828548D01*
X981669D01*
X979170Y831047D01*
X994165Y828548D02*
X999164D01*
X996664D01*
Y843543D01*
X994165Y841044D01*
X1016658Y828548D02*
X1006661D01*
X1016658Y838545D01*
Y841044D01*
X1014159Y843543D01*
X1009160D01*
X1006661Y841044D01*
X991453Y1015755D02*
X986454D01*
X988954D01*
Y1003259D01*
X986454Y1000760D01*
X983955D01*
X981456Y1003259D01*
X996451Y1000760D02*
X1001450D01*
X998950D01*
Y1015755D01*
X996451Y1013256D01*
X1008947Y1000760D02*
X1013945D01*
X1011446D01*
Y1015755D01*
X1008947Y1013256D01*
X997271Y759291D02*
X992272D01*
X994771D01*
Y746795D01*
X992272Y744296D01*
X989773D01*
X987274Y746795D01*
X1012266Y759291D02*
X1002269D01*
Y751794D01*
X1007268Y754293D01*
X1009767D01*
X1012266Y751794D01*
Y746795D01*
X1009767Y744296D01*
X1004768D01*
X1002269Y746795D01*
X995263Y587511D02*
X990264D01*
X992764D01*
Y575015D01*
X990264Y572516D01*
X987765D01*
X985266Y575015D01*
X1000261Y585012D02*
X1002760Y587511D01*
X1007759D01*
X1010258Y585012D01*
Y582513D01*
X1007759Y580014D01*
X1005259D01*
X1007759D01*
X1010258Y577514D01*
Y575015D01*
X1007759Y572516D01*
X1002760D01*
X1000261Y575015D01*
D11*
X627110Y344424D02*
G03*
X627110Y344424I-1000J0D01*
G01*
X861756Y781703D02*
G03*
X861756Y781703I-1000J0D01*
G01*
X237932Y781195D02*
G03*
X237932Y781195I-1000J0D01*
G01*
X274066Y984392D02*
X858266D01*
Y1033892D01*
X274066Y984392D02*
Y1033892D01*
X858266D01*
X457474Y129280D02*
Y174280D01*
X523474D01*
X457474Y129280D02*
X523474D01*
Y174280D01*
X494024Y456466D02*
X539024D01*
Y390466D02*
Y456466D01*
X494024Y390466D02*
Y456466D01*
Y390466D02*
X539024D01*
X320288Y475986D02*
X365288D01*
Y409986D02*
Y475986D01*
X320288Y409986D02*
Y475986D01*
Y409986D02*
X365288D01*
X837294Y448706D02*
X884794D01*
X837294Y409306D02*
X884794D01*
X837294D02*
Y448706D01*
X884794Y409306D02*
Y448706D01*
X333896Y358910D02*
X454596D01*
X333896Y226810D02*
Y358910D01*
Y226810D02*
X454596D01*
Y358910D01*
X177140Y227066D02*
X297840D01*
Y359166D01*
X177140D02*
X297840D01*
X177140Y227066D02*
Y359166D01*
X834082Y129032D02*
X859082D01*
Y78232D02*
Y129032D01*
X834082Y78232D02*
X859082D01*
X834082D02*
Y129032D01*
X239722Y18288D02*
X264722D01*
X239722D02*
Y69088D01*
X264722D01*
Y18288D02*
Y69088D01*
X503552Y370920D02*
Y380920D01*
X483552D02*
X503552D01*
X483552Y370920D02*
X503552D01*
X483552D02*
Y380920D01*
X315816Y390986D02*
Y400986D01*
X295816D02*
X315816D01*
X295816Y390986D02*
X315816D01*
X295816D02*
Y400986D01*
X974986Y64008D02*
Y84328D01*
X939426Y64008D02*
Y84328D01*
X974986D01*
X939426Y64008D02*
X974986D01*
X981844Y19050D02*
Y41910D01*
X936124Y19050D02*
Y41910D01*
X981844D01*
X936124Y19050D02*
X981844D01*
X988662Y79662D02*
Y99662D01*
X978662D02*
X988662D01*
X978662Y79662D02*
Y99662D01*
Y79662D02*
X988662D01*
X1012538Y120302D02*
Y140302D01*
X1002538D02*
X1012538D01*
X1002538Y120302D02*
Y140302D01*
Y120302D02*
X1012538D01*
X1041259Y76729D02*
Y104729D01*
X1027259Y76729D02*
X1041259D01*
X1027259Y104729D02*
X1041259D01*
X1027259Y76729D02*
Y104729D01*
X772030Y145211D02*
Y155211D01*
X752030D02*
X772030D01*
X752030Y145211D02*
X772030D01*
X752030D02*
Y155211D01*
X812670Y121335D02*
Y131335D01*
X792670D02*
X812670D01*
X792670Y121335D02*
X812670D01*
X792670D02*
Y131335D01*
X774294Y161651D02*
Y189651D01*
X760294D02*
X774294D01*
X760294Y161651D02*
X774294D01*
X760294D02*
Y189651D01*
X757642Y161681D02*
Y197241D01*
X737322D02*
X757642D01*
X737322Y161681D02*
Y197241D01*
Y161681D02*
X757642D01*
X713994Y152140D02*
Y197860D01*
X691134D02*
X713994D01*
X691134Y152140D02*
Y197860D01*
Y152140D02*
X713994D01*
X962044Y406146D02*
X1037444D01*
Y380746D02*
Y406146D01*
X962044Y380746D02*
X1037444D01*
X962044D02*
Y406146D01*
X960520Y909320D02*
X1035920D01*
X960520D02*
Y934720D01*
X1035920D01*
Y909320D02*
Y934720D01*
X850058Y814738D02*
Y834738D01*
X840058Y814738D02*
X850058D01*
X840058Y834738D02*
X850058D01*
X840058Y814738D02*
Y834738D01*
X735726Y592854D02*
Y620854D01*
X721726D02*
X735726D01*
X721726Y592854D02*
X735726D01*
X721726D02*
Y620854D01*
X752744Y592764D02*
Y620764D01*
X738744D02*
X752744D01*
X738744Y592764D02*
X752744D01*
X738744D02*
Y620764D01*
X770770Y622004D02*
Y624424D01*
Y591524D02*
Y622004D01*
X755770Y591524D02*
Y622004D01*
Y624424D02*
X770770D01*
X755770Y622004D02*
X770770D01*
X755770D02*
Y624424D01*
Y591524D02*
X770770D01*
X93360Y592256D02*
Y620256D01*
X79360D02*
X93360D01*
X79360Y592256D02*
X93360D01*
X79360D02*
Y620256D01*
X110378Y591758D02*
Y619758D01*
X96378D02*
X110378D01*
X96378Y591758D02*
X110378D01*
X96378D02*
Y619758D01*
X226234Y814230D02*
Y834230D01*
X216234Y814230D02*
X226234D01*
X216234Y834230D02*
X226234D01*
X216234Y814230D02*
Y834230D01*
X119272Y161036D02*
X194672D01*
X119272D02*
Y186436D01*
X194672D01*
Y161036D02*
Y186436D01*
X960520Y653542D02*
X1035920D01*
X960520D02*
Y678942D01*
X1035920D01*
Y653542D02*
Y678942D01*
X960774Y823976D02*
X1036174D01*
X960774D02*
Y849376D01*
X1036174D01*
Y823976D02*
Y849376D01*
X960520Y994664D02*
X1035920D01*
X960520D02*
Y1020064D01*
X1035920D01*
Y994664D02*
Y1020064D01*
X960750Y738708D02*
X1036150D01*
X960750D02*
Y764108D01*
X1036150D01*
Y738708D02*
Y764108D01*
X960666Y568198D02*
X1036066D01*
X960666D02*
Y593598D01*
X1036066D01*
Y568198D02*
Y593598D01*
X112442Y474596D02*
Y494596D01*
X102442D02*
X112442D01*
X102442Y474596D02*
X112442D01*
X102442D02*
Y494596D01*
X26322Y386340D02*
Y396340D01*
X46322D01*
Y386340D02*
Y396340D01*
X26322Y386340D02*
X46322D01*
X218012Y33106D02*
X228012D01*
Y13106D02*
Y33106D01*
X218012Y13106D02*
X228012D01*
X218012D02*
Y33106D01*
X180420Y446736D02*
X190420D01*
X180420D02*
Y466736D01*
X190420D01*
Y446736D02*
Y466736D01*
X66628Y67978D02*
X76628D01*
X66628D02*
Y87978D01*
X76628D01*
Y67978D02*
Y87978D01*
X78660Y251406D02*
Y271406D01*
X68660D02*
X78660D01*
X68660Y251406D02*
X78660D01*
X68660D02*
Y271406D01*
X244060Y712099D02*
Y722099D01*
X224060D02*
X244060D01*
X224060Y712099D02*
Y722099D01*
Y712099D02*
X244060D01*
X867814Y703914D02*
Y713914D01*
X847814Y703914D02*
X867814D01*
X847814D02*
Y713914D01*
X867814D01*
X153820Y580978D02*
Y590978D01*
X133820D02*
X153820D01*
X133820Y580978D02*
Y590978D01*
Y580978D02*
X153820D01*
X796186Y581994D02*
Y591994D01*
X776186D02*
X796186D01*
X776186Y581994D02*
Y591994D01*
Y581994D02*
X796186D01*
X174244Y596646D02*
Y632206D01*
X153924D02*
X174244D01*
X153924Y596646D02*
Y632206D01*
Y596646D02*
X174244D01*
X816610Y597170D02*
Y632730D01*
X796290D02*
X816610D01*
X796290Y597170D02*
Y632730D01*
Y597170D02*
X816610D01*
X703834Y419354D02*
Y454914D01*
X683514D02*
X703834D01*
X683514Y419354D02*
Y454914D01*
Y419354D02*
X703834D01*
X721557Y285830D02*
Y295830D01*
X701557D02*
X721557D01*
X701557Y285830D02*
Y295830D01*
Y285830D02*
X721557D01*
X733806Y300990D02*
Y321310D01*
X698246D02*
X733806D01*
X698246Y300990D02*
X733806D01*
X698246D02*
Y321310D01*
X731876Y451816D02*
X745876D01*
X731876Y423816D02*
Y451816D01*
X745876Y423816D02*
Y451816D01*
X731876Y423816D02*
X745876D01*
X761658Y286116D02*
Y296116D01*
X741658D02*
X761658D01*
X741658Y286116D02*
Y296116D01*
Y286116D02*
X761658D01*
X773938Y300990D02*
Y321310D01*
X738378D02*
X773938D01*
X738378Y300990D02*
X773938D01*
X738378D02*
Y321310D01*
X674718Y332356D02*
Y342356D01*
X654718Y332356D02*
X674718D01*
X654718D02*
Y342356D01*
X674718D01*
X634760Y211916D02*
Y221916D01*
X614760D02*
X634760D01*
X614760Y211916D02*
Y221916D01*
Y211916D02*
X634760D01*
X533964Y268412D02*
Y278412D01*
X553964D01*
Y268412D02*
Y278412D01*
X533964Y268412D02*
X553964D01*
X512510Y274204D02*
Y284204D01*
X492510D02*
X512510D01*
X492510Y274204D02*
Y284204D01*
Y274204D02*
X512510D01*
X308436Y98520D02*
X318436D01*
X308436D02*
Y118520D01*
X318436D01*
Y98520D02*
Y118520D01*
X914146Y374904D02*
X949706D01*
X914146Y354584D02*
Y374904D01*
Y354584D02*
X949706D01*
Y374904D01*
X914146Y396748D02*
X949706D01*
X914146Y376428D02*
Y396748D01*
Y376428D02*
X949706D01*
Y396748D01*
X869188Y368300D02*
Y403860D01*
Y368300D02*
X889508D01*
Y403860D01*
X869188D02*
X889508D01*
X891794Y368300D02*
Y403860D01*
Y368300D02*
X912114D01*
Y403860D01*
X891794D02*
X912114D01*
X919862Y699770D02*
Y712470D01*
X940182D01*
X919862Y699770D02*
X940182D01*
Y712470D01*
Y699770D02*
X942722D01*
X940182Y712470D02*
X942722D01*
Y699770D02*
Y712470D01*
X128404Y621496D02*
Y623916D01*
Y591016D02*
Y621496D01*
X113404Y591016D02*
Y621496D01*
Y623916D02*
X128404D01*
X113404Y621496D02*
X128404D01*
X113404D02*
Y623916D01*
Y591016D02*
X128404D01*
X837496Y479082D02*
X876496D01*
X837496Y452082D02*
X876496D01*
Y479082D01*
X837496Y452082D02*
Y479082D01*
X919480Y905728D02*
Y918428D01*
X939800D01*
X919480Y905728D02*
X939800D01*
Y918428D01*
Y905728D02*
X942340D01*
X939800Y918428D02*
X942340D01*
Y905728D02*
Y918428D01*
X919740Y805358D02*
Y818058D01*
X940060D01*
X919740Y805358D02*
X940060D01*
Y818058D01*
Y805358D02*
X942600D01*
X940060Y818058D02*
X942600D01*
Y805358D02*
Y818058D01*
X919480Y856082D02*
Y868782D01*
X939800D01*
X919480Y856082D02*
X939800D01*
Y868782D01*
Y856082D02*
X942340D01*
X939800Y868782D02*
X942340D01*
Y856082D02*
Y868782D01*
X920750Y751294D02*
Y763994D01*
X941070D01*
X920750Y751294D02*
X941070D01*
Y763994D01*
Y751294D02*
X943610D01*
X941070Y763994D02*
X943610D01*
Y751294D02*
Y763994D01*
X21462Y342572D02*
X34162D01*
X21462D02*
Y362892D01*
X34162Y342572D02*
Y362892D01*
X21462D02*
X34162D01*
Y365432D01*
X21462Y362892D02*
Y365432D01*
X34162D01*
X779126Y482600D02*
Y495300D01*
X758806Y482600D02*
X779126D01*
X758806Y495300D02*
X779126D01*
X758806Y482600D02*
Y495300D01*
X756266D02*
X758806D01*
X756266Y482600D02*
X758806D01*
X756266D02*
Y495300D01*
X656082Y185414D02*
X668782D01*
Y165094D02*
Y185414D01*
X656082Y165094D02*
Y185414D01*
Y165094D02*
X668782D01*
X656082Y162554D02*
Y165094D01*
X668782Y162554D02*
Y165094D01*
X656082Y162554D02*
X668782D01*
X63880Y342318D02*
X76580D01*
X63880D02*
Y362638D01*
X76580Y342318D02*
Y362638D01*
X63880D02*
X76580D01*
Y365178D01*
X63880Y362638D02*
Y365178D01*
X76580D01*
X948690Y410464D02*
Y433324D01*
X902970Y410464D02*
X948690D01*
X902970Y433324D02*
X948690D01*
X902970Y410464D02*
Y433324D01*
X17018Y527808D02*
Y552708D01*
X194818D01*
X17018Y527808D02*
X194818D01*
Y552708D01*
X593340Y592328D02*
X618240D01*
X593340D02*
Y770128D01*
X618240Y592328D02*
Y770128D01*
X593340D02*
X618240D01*
X69746Y96924D02*
Y194924D01*
X-254Y96924D02*
X69746D01*
X-254D02*
Y194924D01*
X69746D01*
X818388Y388112D02*
Y408432D01*
X782828D02*
X818388D01*
X782828Y388112D02*
Y408432D01*
Y388112D02*
X818388D01*
X796544Y415036D02*
Y450596D01*
X776224D02*
X796544D01*
X776224Y415036D02*
Y450596D01*
Y415036D02*
X796544D01*
X864982Y107002D02*
Y135002D01*
Y107002D02*
X878982D01*
Y135002D01*
X864982D02*
X878982D01*
X251560Y693335D02*
Y707335D01*
X223560D02*
X251560D01*
X223560Y693335D02*
X251560D01*
X223560D02*
Y707335D01*
X875314Y685150D02*
Y699150D01*
X847314D02*
X875314D01*
X847314Y685150D02*
X875314D01*
X847314D02*
Y699150D01*
X47400Y459270D02*
Y473270D01*
X19400D02*
X47400D01*
X19400Y459270D02*
X47400D01*
X19400D02*
Y473270D01*
X813238Y481950D02*
Y495950D01*
X785238D02*
X813238D01*
X785238Y481950D02*
X813238D01*
X785238D02*
Y495950D01*
X686958Y157190D02*
Y185190D01*
X672958D02*
X686958D01*
X672958Y157190D02*
Y185190D01*
Y157190D02*
X686958D01*
X835122Y357968D02*
Y399968D01*
Y357968D02*
X863122D01*
Y399968D01*
X835122D02*
X863122D01*
X45622Y407932D02*
Y449932D01*
X17622D02*
X45622D01*
X17622Y407932D02*
Y449932D01*
Y407932D02*
X45622D01*
X266096Y82347D02*
Y124347D01*
X238096D02*
X266096D01*
X238096Y82347D02*
Y124347D01*
Y82347D02*
X266096D01*
X596374Y351398D02*
X635374D01*
X596374Y302398D02*
Y351398D01*
X635374Y302398D02*
Y351398D01*
X596374Y302398D02*
X635374D01*
X627260Y230516D02*
X666260D01*
Y279516D01*
X627260Y230516D02*
Y279516D01*
X666260D01*
X502464Y262352D02*
X541464D01*
X502464Y213352D02*
Y262352D01*
X541464Y213352D02*
Y262352D01*
X502464Y213352D02*
X541464D01*
X295286Y142654D02*
Y181654D01*
Y142654D02*
X344286D01*
X295286Y181654D02*
X344286D01*
Y142654D02*
Y181654D01*
X505010Y293000D02*
X544010D01*
Y342000D01*
X505010Y293000D02*
Y342000D01*
X544010D01*
X81812Y27606D02*
Y103606D01*
X211812D01*
X81812Y27606D02*
X211812D01*
Y103606D01*
X196150Y427987D02*
Y451487D01*
X226150D01*
Y427987D02*
Y451487D01*
X196150Y427987D02*
X226150D01*
X579879Y140948D02*
Y169948D01*
X563629D02*
X579879D01*
X563629Y140948D02*
X579879D01*
X563629D02*
Y169948D01*
X544750Y104808D02*
Y124808D01*
X534750D02*
X544750D01*
X534750Y104808D02*
Y124808D01*
Y104808D02*
X544750D01*
X597488Y170448D02*
X607488D01*
Y150448D02*
Y170448D01*
X597488Y150448D02*
X607488D01*
X597488D02*
Y170448D01*
X1030310Y883012D02*
Y903332D01*
X987130Y883012D02*
X1030310D01*
X987130Y903332D02*
X1030310D01*
X987130Y883012D02*
Y903332D01*
X1030540Y712400D02*
Y732720D01*
X987360Y712400D02*
X1030540D01*
X987360Y732720D02*
X1030540D01*
X987360Y712400D02*
Y732720D01*
X1030310Y968356D02*
Y988676D01*
X987130Y968356D02*
X1030310D01*
X987130Y988676D02*
X1030310D01*
X987130Y968356D02*
Y988676D01*
X1030564Y797668D02*
Y817988D01*
X987384Y797668D02*
X1030564D01*
X987384Y817988D02*
X1030564D01*
X987384Y797668D02*
Y817988D01*
X1030780Y685002D02*
Y705322D01*
X987600Y685002D02*
X1030780D01*
X987600Y705322D02*
X1030780D01*
X987600Y685002D02*
Y705322D01*
X944476Y87742D02*
X972476D01*
X944476D02*
Y101742D01*
X972476D01*
Y87742D02*
Y101742D01*
X151130Y595167D02*
Y633267D01*
X130810D02*
X151130D01*
X130810Y595167D02*
X151130D01*
X130810D02*
Y633267D01*
X793496Y595675D02*
Y633775D01*
X773176D02*
X793496D01*
X773176Y595675D02*
X793496D01*
X773176D02*
Y633775D01*
X777300Y92411D02*
Y106411D01*
X749300D02*
X777300D01*
X749300Y92411D02*
X777300D01*
X749300D02*
Y106411D01*
X744920Y114189D02*
Y138989D01*
Y114189D02*
X781680D01*
X744920Y138989D02*
X781680D01*
Y114189D02*
Y138989D01*
X1019684Y72552D02*
Y109312D01*
X994884D02*
X1019684D01*
X994884Y72552D02*
X1019684D01*
X994884D02*
Y109312D01*
X735645Y930747D02*
X732312D01*
X733978D01*
Y922416D01*
X732312Y920750D01*
X730646D01*
X728980Y922416D01*
X738977Y929081D02*
X740643Y930747D01*
X743975D01*
X745641Y929081D01*
Y927414D01*
X743975Y925748D01*
X745641Y924082D01*
Y922416D01*
X743975Y920750D01*
X740643D01*
X738977Y922416D01*
Y924082D01*
X740643Y925748D01*
X738977Y927414D01*
Y929081D01*
X740643Y925748D02*
X743975D01*
X748974Y920750D02*
Y922416D01*
X750640D01*
Y920750D01*
X748974D01*
X763969D02*
X757304D01*
X763969Y927414D01*
Y929081D01*
X762303Y930747D01*
X758970D01*
X757304Y929081D01*
X110296Y941384D02*
X106964D01*
X108630D01*
Y933053D01*
X106964Y931387D01*
X105298D01*
X103632Y933053D01*
X113629Y939718D02*
X115295Y941384D01*
X118627D01*
X120293Y939718D01*
Y938051D01*
X118627Y936385D01*
X120293Y934719D01*
Y933053D01*
X118627Y931387D01*
X115295D01*
X113629Y933053D01*
Y934719D01*
X115295Y936385D01*
X113629Y938051D01*
Y939718D01*
X115295Y936385D02*
X118627D01*
X123625Y931387D02*
Y933053D01*
X125292D01*
Y931387D01*
X123625D01*
X131956D02*
X135288D01*
X133622D01*
Y941384D01*
X131956Y939718D01*
X603598Y317591D02*
Y309260D01*
X605264Y307594D01*
X608596D01*
X610262Y309260D01*
Y317591D01*
X620259D02*
X613595D01*
Y312592D01*
X616927Y314258D01*
X618593D01*
X620259Y312592D01*
Y309260D01*
X618593Y307594D01*
X615261D01*
X613595Y309260D01*
X623592Y307594D02*
Y309260D01*
X625258D01*
Y307594D01*
X623592D01*
X631922D02*
X635255D01*
X633588D01*
Y317591D01*
X631922Y315925D01*
X543814Y997712D02*
Y1017706D01*
X553811D01*
X557143Y1014373D01*
Y1007709D01*
X553811Y1004377D01*
X543814D01*
X563808Y1014373D02*
X567140Y1017706D01*
X573804D01*
X577137Y1014373D01*
Y1011041D01*
X573804Y1007709D01*
X570472D01*
X573804D01*
X577137Y1004377D01*
Y1001044D01*
X573804Y997712D01*
X567140D01*
X563808Y1001044D01*
X463550Y161472D02*
Y144810D01*
X466882Y141478D01*
X473547D01*
X476879Y144810D01*
Y161472D01*
X496873Y141478D02*
X483544D01*
X496873Y154807D01*
Y158139D01*
X493540Y161472D01*
X486876D01*
X483544Y158139D01*
X516866Y141478D02*
X503537D01*
X516866Y154807D01*
Y158139D01*
X513534Y161472D01*
X506869D01*
X503537Y158139D01*
X502738Y396494D02*
X519400D01*
X522732Y399826D01*
Y406491D01*
X519400Y409823D01*
X502738D01*
X522732Y429817D02*
Y416488D01*
X509403Y429817D01*
X506071D01*
X502738Y426484D01*
Y419820D01*
X506071Y416488D01*
Y436481D02*
X502738Y439813D01*
Y446478D01*
X506071Y449810D01*
X519400D01*
X522732Y446478D01*
Y439813D01*
X519400Y436481D01*
X506071D01*
X325192Y422656D02*
X341854D01*
X345186Y425988D01*
Y432653D01*
X341854Y435985D01*
X325192D01*
X345186Y455979D02*
Y442650D01*
X331857Y455979D01*
X328525D01*
X325192Y452646D01*
Y445982D01*
X328525Y442650D01*
X345186Y462643D02*
Y469308D01*
Y465975D01*
X325192D01*
X328525Y462643D01*
X81026Y434268D02*
Y417606D01*
X84358Y414274D01*
X91023D01*
X94355Y417606D01*
Y434268D01*
X114349Y414274D02*
X101020D01*
X114349Y427603D01*
Y430935D01*
X111016Y434268D01*
X104352D01*
X101020Y430935D01*
X131010Y414274D02*
Y434268D01*
X121013Y424271D01*
X134342D01*
X868539Y782973D02*
X876870D01*
X878536Y784639D01*
Y787972D01*
X876870Y789638D01*
X868539D01*
X870205Y792970D02*
X868539Y794636D01*
Y797968D01*
X870205Y799634D01*
X871871D01*
X873538Y797968D01*
Y796302D01*
Y797968D01*
X875204Y799634D01*
X876870D01*
X878536Y797968D01*
Y794636D01*
X876870Y792970D01*
X878536Y802967D02*
X876870D01*
Y804633D01*
X878536D01*
Y802967D01*
Y817962D02*
Y811298D01*
X871871Y817962D01*
X870205D01*
X868539Y816296D01*
Y812964D01*
X870205Y811298D01*
X244715Y782465D02*
X253046D01*
X254712Y784131D01*
Y787464D01*
X253046Y789130D01*
X244715D01*
X246381Y792462D02*
X244715Y794128D01*
Y797460D01*
X246381Y799127D01*
X248048D01*
X249714Y797460D01*
Y795794D01*
Y797460D01*
X251380Y799127D01*
X253046D01*
X254712Y797460D01*
Y794128D01*
X253046Y792462D01*
X254712Y802459D02*
X253046D01*
Y804125D01*
X254712D01*
Y802459D01*
Y810789D02*
Y814122D01*
Y812456D01*
X244715D01*
X246381Y810789D01*
X846836Y433669D02*
Y423672D01*
X851834D01*
X853501Y425338D01*
Y432003D01*
X851834Y433669D01*
X846836D01*
X856833Y423672D02*
X860165D01*
X858499D01*
Y433669D01*
X856833Y432003D01*
X871828Y423672D02*
X865163D01*
X871828Y430336D01*
Y432003D01*
X870162Y433669D01*
X866830D01*
X865163Y432003D01*
X92831Y550346D02*
X86166D01*
X89499D01*
Y533684D01*
X86166Y530352D01*
X82834D01*
X79502Y533684D01*
X112825Y530352D02*
X99496D01*
X112825Y543681D01*
Y547013D01*
X109492Y550346D01*
X102828D01*
X99496Y547013D01*
X119489Y530352D02*
Y533684D01*
X122821D01*
Y530352D01*
X119489D01*
X136150D02*
X142815D01*
X139483D01*
Y550346D01*
X136150Y547013D01*
X596210Y649853D02*
Y643188D01*
Y646521D01*
X612872D01*
X616204Y643188D01*
Y639856D01*
X612872Y636524D01*
X616204Y669847D02*
Y656518D01*
X602875Y669847D01*
X599543D01*
X596210Y666514D01*
Y659850D01*
X599543Y656518D01*
X616204Y676511D02*
X612872D01*
Y679843D01*
X616204D01*
Y676511D01*
Y706501D02*
Y693172D01*
X602875Y706501D01*
X599543D01*
X596210Y703169D01*
Y696505D01*
X599543Y693172D01*
X964813Y514532D02*
X958148D01*
X961481D01*
Y497870D01*
X958148Y494538D01*
X954816D01*
X951484Y497870D01*
X971478Y494538D02*
X978142D01*
X974810D01*
Y514532D01*
X971478Y511199D01*
X1001468Y514532D02*
X988139D01*
Y504535D01*
X994803Y507867D01*
X998136D01*
X1001468Y504535D01*
Y497870D01*
X998136Y494538D01*
X991471D01*
X988139Y497870D01*
X23114Y137668D02*
Y157662D01*
X33111D01*
X36443Y154329D01*
Y147665D01*
X33111Y144333D01*
X23114D01*
X43108Y137668D02*
X49772D01*
X46440D01*
Y157662D01*
X43108Y154329D01*
X946341Y884426D02*
X941010D01*
X939677Y883093D01*
Y880427D01*
X941010Y879094D01*
X946341D01*
X947674Y880427D01*
Y883093D01*
X945008Y881760D02*
X947674Y884426D01*
Y883093D02*
X946341Y884426D01*
X947674Y887091D02*
Y889757D01*
Y888424D01*
X939677D01*
X941010Y887091D01*
X947611Y778076D02*
X942280D01*
X940947Y776743D01*
Y774077D01*
X942280Y772744D01*
X947611D01*
X948944Y774077D01*
Y776743D01*
X946278Y775410D02*
X948944Y778076D01*
Y776743D02*
X947611Y778076D01*
X948944Y786073D02*
Y780741D01*
X943612Y786073D01*
X942280D01*
X940947Y784740D01*
Y782074D01*
X942280Y780741D01*
X946341Y932940D02*
X941010D01*
X939677Y931607D01*
Y928941D01*
X941010Y927608D01*
X946341D01*
X947674Y928941D01*
Y931607D01*
X945008Y930274D02*
X947674Y932940D01*
Y931607D02*
X946341Y932940D01*
X941010Y935605D02*
X939677Y936938D01*
Y939604D01*
X941010Y940937D01*
X942342D01*
X943675Y939604D01*
Y938271D01*
Y939604D01*
X945008Y940937D01*
X946341D01*
X947674Y939604D01*
Y936938D01*
X946341Y935605D01*
X946601Y832102D02*
X941270D01*
X939937Y830769D01*
Y828103D01*
X941270Y826770D01*
X946601D01*
X947934Y828103D01*
Y830769D01*
X945268Y829436D02*
X947934Y832102D01*
Y830769D02*
X946601Y832102D01*
X947934Y838766D02*
X939937D01*
X943935Y834767D01*
Y840099D01*
X947357Y727708D02*
X942026D01*
X940693Y726375D01*
Y723709D01*
X942026Y722376D01*
X947357D01*
X948690Y723709D01*
Y726375D01*
X946024Y725042D02*
X948690Y727708D01*
Y726375D02*
X947357Y727708D01*
X940693Y735705D02*
Y730373D01*
X944691D01*
X943358Y733039D01*
Y734372D01*
X944691Y735705D01*
X947357D01*
X948690Y734372D01*
Y731706D01*
X947357Y730373D01*
X234445Y910336D02*
X240792D01*
X242062Y911606D01*
Y914145D01*
X240792Y915414D01*
X234445D01*
X242062Y917953D02*
Y920493D01*
Y919223D01*
X234445D01*
X235714Y917953D01*
X242062Y924302D02*
X240792D01*
Y925571D01*
X242062D01*
Y924302D01*
Y930649D02*
Y933189D01*
Y931919D01*
X234445D01*
X235714Y930649D01*
X854967Y892302D02*
X861314D01*
X862584Y893572D01*
Y896111D01*
X861314Y897380D01*
X854967D01*
X862584Y899920D02*
Y902459D01*
Y901189D01*
X854967D01*
X856236Y899920D01*
X862584Y906267D02*
X861314D01*
Y907537D01*
X862584D01*
Y906267D01*
Y917694D02*
Y912615D01*
X857506Y917694D01*
X856236D01*
X854967Y916424D01*
Y913885D01*
X856236Y912615D01*
X751078Y130901D02*
Y122570D01*
X752744Y120904D01*
X756076D01*
X757742Y122570D01*
Y130901D01*
X761075Y120904D02*
X764407D01*
X762741D01*
Y130901D01*
X761075Y129235D01*
X769405D02*
X771072Y130901D01*
X774404D01*
X776070Y129235D01*
Y127569D01*
X774404Y125902D01*
X772738D01*
X774404D01*
X776070Y124236D01*
Y122570D01*
X774404Y120904D01*
X771072D01*
X769405Y122570D01*
X1002701Y78486D02*
X1011032D01*
X1012698Y80152D01*
Y83484D01*
X1011032Y85150D01*
X1002701D01*
X1012698Y88483D02*
Y91815D01*
Y90149D01*
X1002701D01*
X1004367Y88483D01*
X1012698Y103478D02*
Y96813D01*
X1006033Y103478D01*
X1004367D01*
X1002701Y101812D01*
Y98480D01*
X1004367Y96813D01*
X681836Y388086D02*
Y371424D01*
X685168Y368092D01*
X691833D01*
X695165Y371424D01*
Y388086D01*
X701830Y368092D02*
X708494D01*
X705162D01*
Y388086D01*
X701830Y384753D01*
X718491Y388086D02*
X731820D01*
Y384753D01*
X718491Y371424D01*
Y368092D01*
D12*
X520210Y167020D02*
G03*
X520210Y167020I-1796J0D01*
G01*
X533560Y395526D02*
G03*
X533560Y395526I-1796J0D01*
G01*
X359824Y415046D02*
G03*
X359824Y415046I-1796J0D01*
G01*
X206502Y96086D02*
G03*
X206502Y96086I-2540J0D01*
G01*
X392418Y307703D02*
X379089D01*
X385754D01*
Y274380D01*
X379089Y267716D01*
X372425D01*
X365760Y274380D01*
X405747Y307703D02*
X432405D01*
Y301039D01*
X405747Y274380D01*
Y267716D01*
X210554Y312783D02*
X197225D01*
X203890D01*
Y279461D01*
X197225Y272796D01*
X190560D01*
X183896Y279461D01*
X223883Y272796D02*
X237212D01*
X230548D01*
Y312783D01*
X223883Y306119D01*
X257206D02*
X263870Y312783D01*
X277199D01*
X283864Y306119D01*
Y279461D01*
X277199Y272796D01*
X263870D01*
X257206Y279461D01*
Y306119D01*
X107950Y83584D02*
Y58592D01*
X112948Y53594D01*
X122945D01*
X127943Y58592D01*
Y83584D01*
X157934Y53594D02*
X137940D01*
X157934Y73587D01*
Y78586D01*
X152935Y83584D01*
X142939D01*
X137940Y78586D01*
X187924Y83584D02*
X167931D01*
Y68589D01*
X177927Y73587D01*
X182926D01*
X187924Y68589D01*
Y58592D01*
X182926Y53594D01*
X172929D01*
X167931Y58592D01*
D13*
X65168Y402526D02*
G03*
X65168Y402526I-1796J0D01*
G01*
X246362Y911250D02*
G03*
X246362Y911250I-500J0D01*
G01*
X867188Y894603D02*
G03*
X867188Y894603I-500J0D01*
G01*
X681836Y361742D02*
G03*
X681836Y361742I-1000J0D01*
G01*
D14*
X64756Y246226D02*
G03*
X64756Y246226I-1300J0D01*
G01*
D15*
X943864Y897738D02*
G03*
X943864Y897738I-1270J0D01*
G01*
X945134Y792950D02*
G03*
X945134Y792950I-1270J0D01*
G01*
X943864Y947384D02*
G03*
X943864Y947384I-1270J0D01*
G01*
X944124Y847014D02*
G03*
X944124Y847014I-1270J0D01*
G01*
X944246Y741426D02*
G03*
X944246Y741426I-1270J0D01*
G01*
D16*
X831342Y399288D02*
G03*
X831342Y399288I-1270J0D01*
G01*
X51942Y408612D02*
G03*
X51942Y408612I-1270J0D01*
G01*
X272416Y83027D02*
G03*
X272416Y83027I-1270J0D01*
G01*
D17*
X605714Y344678D02*
G03*
X605714Y344678I-2000J0D01*
G01*
X660920Y237236D02*
G03*
X660920Y237236I-2000J0D01*
G01*
X511804Y255632D02*
G03*
X511804Y255632I-2000J0D01*
G01*
X304006Y149994D02*
G03*
X304006Y149994I-2000J0D01*
G01*
X538670Y299720D02*
G03*
X538670Y299720I-2000J0D01*
G01*
D19*
X576064Y146058D02*
G03*
X576064Y146058I-500J0D01*
G01*
X844357Y107787D02*
X841024D01*
X842690D01*
Y99456D01*
X841024Y97790D01*
X839358D01*
X837692Y99456D01*
X847689D02*
X849355Y97790D01*
X852687D01*
X854353Y99456D01*
Y106121D01*
X852687Y107787D01*
X849355D01*
X847689Y106121D01*
Y104454D01*
X849355Y102788D01*
X854353D01*
X249489Y48859D02*
X246156D01*
X247822D01*
Y40528D01*
X246156Y38862D01*
X244490D01*
X242824Y40528D01*
X259485Y48859D02*
X256153Y47193D01*
X252821Y43860D01*
Y40528D01*
X254487Y38862D01*
X257819D01*
X259485Y40528D01*
Y42194D01*
X257819Y43860D01*
X252821D01*
X604520Y333752D02*
Y323172D01*
X606636Y321056D01*
X610868D01*
X612984Y323172D01*
Y333752D01*
X625680D02*
X617216D01*
Y327404D01*
X621448Y329520D01*
X623564D01*
X625680Y327404D01*
Y323172D01*
X623564Y321056D01*
X619332D01*
X617216Y323172D01*
X629920Y265612D02*
Y248950D01*
X633252Y245618D01*
X639917D01*
X643249Y248950D01*
Y265612D01*
X663243D02*
X656578Y262279D01*
X649914Y255615D01*
Y248950D01*
X653246Y245618D01*
X659910D01*
X663243Y248950D01*
Y252283D01*
X659910Y255615D01*
X649914D01*
X511296Y244995D02*
Y232299D01*
X513835Y229760D01*
X518914D01*
X521453Y232299D01*
Y244995D01*
X526531Y242456D02*
X529070Y244995D01*
X534149D01*
X536688Y242456D01*
Y239917D01*
X534149Y237377D01*
X536688Y234838D01*
Y232299D01*
X534149Y229760D01*
X529070D01*
X526531Y232299D01*
Y234838D01*
X529070Y237377D01*
X526531Y239917D01*
Y242456D01*
X529070Y237377D02*
X534149D01*
X306070Y176712D02*
Y160050D01*
X309402Y156718D01*
X316067D01*
X319399Y160050D01*
Y176712D01*
X326064Y160050D02*
X329396Y156718D01*
X336060D01*
X339393Y160050D01*
Y173379D01*
X336060Y176712D01*
X329396D01*
X326064Y173379D01*
Y170047D01*
X329396Y166715D01*
X339393D01*
X508762Y323084D02*
Y312504D01*
X510878Y310388D01*
X515110D01*
X517226Y312504D01*
Y323084D01*
X521458Y310388D02*
X525690D01*
X523574D01*
Y323084D01*
X521458Y320968D01*
X532038D02*
X534154Y323084D01*
X538386D01*
X540502Y320968D01*
Y312504D01*
X538386Y310388D01*
X534154D01*
X532038Y312504D01*
Y320968D01*
D21*
X724188Y911441D02*
X750188D01*
Y937441D01*
X724188Y911441D02*
Y937441D01*
X750188D01*
X101521Y923054D02*
X127521D01*
Y949054D01*
X101521Y923054D02*
Y949054D01*
X127521D01*
X59656Y243926D02*
Y263926D01*
X39656D02*
X59656D01*
X39656Y243926D02*
Y263926D01*
Y243926D02*
X59656D01*
X232032Y906160D02*
X249532D01*
X232032Y936660D02*
X249532D01*
X232032Y906160D02*
X249532D01*
Y936660D01*
X232032Y906160D02*
Y936660D01*
X249532D01*
X852858Y889513D02*
X870358D01*
X852858Y920013D02*
X870358D01*
X852858Y889513D02*
X870358D01*
Y920013D01*
X852858Y889513D02*
Y920013D01*
X870358D01*
X707575Y852010D02*
Y846569D01*
X707938Y845480D01*
X708663Y844755D01*
X709752Y844392D01*
X710477D01*
X711566Y844755D01*
X712291Y845480D01*
X712654Y846569D01*
Y852010D01*
X714758Y850559D02*
X715484Y850922D01*
X716572Y852010D01*
Y844392D01*
X725061Y849471D02*
X724698Y848383D01*
X723973Y847657D01*
X722885Y847294D01*
X722522D01*
X721433Y847657D01*
X720708Y848383D01*
X720345Y849471D01*
Y849834D01*
X720708Y850922D01*
X721433Y851648D01*
X722522Y852010D01*
X722885D01*
X723973Y851648D01*
X724698Y850922D01*
X725061Y849471D01*
Y847657D01*
X724698Y845843D01*
X723973Y844755D01*
X722885Y844392D01*
X722159D01*
X721071Y844755D01*
X720708Y845480D01*
X727492Y845117D02*
X727129Y844755D01*
X727492Y844392D01*
X727855Y844755D01*
X727492Y845117D01*
X729886Y850196D02*
Y850559D01*
X730249Y851285D01*
X730612Y851648D01*
X731337Y852010D01*
X732788D01*
X733514Y851648D01*
X733877Y851285D01*
X734240Y850559D01*
Y849834D01*
X733877Y849108D01*
X733151Y848020D01*
X729523Y844392D01*
X734602D01*
X82296Y863313D02*
Y857872D01*
X82659Y856783D01*
X83384Y856058D01*
X84473Y855695D01*
X85198D01*
X86286Y856058D01*
X87012Y856783D01*
X87375Y857872D01*
Y863313D01*
X89479Y861862D02*
X90204Y862225D01*
X91293Y863313D01*
Y855695D01*
X99782Y860774D02*
X99419Y859686D01*
X98694Y858960D01*
X97605Y858597D01*
X97242D01*
X96154Y858960D01*
X95428Y859686D01*
X95066Y860774D01*
Y861137D01*
X95428Y862225D01*
X96154Y862951D01*
X97242Y863313D01*
X97605D01*
X98694Y862951D01*
X99419Y862225D01*
X99782Y860774D01*
Y858960D01*
X99419Y857146D01*
X98694Y856058D01*
X97605Y855695D01*
X96880D01*
X95791Y856058D01*
X95428Y856783D01*
X102212Y856421D02*
X101850Y856058D01*
X102212Y855695D01*
X102575Y856058D01*
X102212Y856421D01*
X104244Y861862D02*
X104970Y862225D01*
X106058Y863313D01*
Y855695D01*
D22*
X630950Y304644D02*
Y348644D01*
X600950Y304644D02*
Y348644D01*
X630950D01*
X600950Y304644D02*
X630950D01*
X855916Y777483D02*
Y821483D01*
X885916Y777483D02*
Y821483D01*
X855916Y777483D02*
X885916D01*
X855916Y821483D02*
X885916D01*
X232092Y776975D02*
Y820975D01*
X262092Y776975D02*
Y820975D01*
X232092Y776975D02*
X262092D01*
X232092Y820975D02*
X262092D01*
X673626Y354482D02*
Y399482D01*
X771626Y354482D02*
Y399482D01*
X673626D02*
X771626D01*
X673626Y354482D02*
X771626D01*
D23*
X54282Y449872D02*
X156282D01*
Y396872D02*
Y449872D01*
X54282Y396872D02*
Y449872D01*
Y396872D02*
X156282D01*
D24*
X231960Y452266D02*
X251960D01*
Y442266D02*
Y452266D01*
X231960D02*
X251960D01*
X231960Y442266D02*
Y452266D01*
Y442266D02*
Y452266D01*
X251960Y442266D02*
Y452266D01*
X231960Y442266D02*
X251960D01*
X231960D02*
X251960D01*
X231960Y439256D02*
X251960D01*
Y429256D02*
Y439256D01*
X231960D02*
X251960D01*
X231960Y429256D02*
Y439256D01*
Y429256D02*
Y439256D01*
X251960Y429256D02*
Y439256D01*
X231960Y429256D02*
X251960D01*
X231960D02*
X251960D01*
X1028176Y15839D02*
Y60339D01*
X987576D02*
X1028176D01*
X987576Y15839D02*
X1028176D01*
X987576D02*
Y60339D01*
X999330Y120302D02*
Y140302D01*
X989330Y120302D02*
Y140302D01*
X999330Y120302D02*
Y140302D01*
X989330D02*
X999330D01*
X989330D02*
X999330D01*
X989330Y120302D02*
X999330D01*
X989330D02*
X999330D01*
X989330D02*
Y140302D01*
X732707Y105697D02*
Y146297D01*
X688207Y105697D02*
X732707D01*
X688207Y146297D02*
X732707D01*
X688207Y105697D02*
Y146297D01*
X792416Y104411D02*
X812416D01*
X792416Y94411D02*
X812416D01*
Y104411D01*
Y94411D02*
Y104411D01*
X792416D02*
X812416D01*
X792416Y94411D02*
Y104411D01*
Y94411D02*
X812416D01*
X792416D02*
Y104411D01*
X792416Y107873D02*
X812416D01*
Y117873D01*
Y107873D02*
Y117873D01*
X792416D02*
X812416D01*
X792416Y107873D02*
Y117873D01*
X812416D01*
X792416Y107873D02*
X812416D01*
X792416D02*
Y117873D01*
X792924Y148259D02*
X812924D01*
Y158259D01*
Y148259D02*
Y158259D01*
X792924D02*
X812924D01*
X792924Y148259D02*
Y158259D01*
X812924D01*
X792924Y148259D02*
X812924D01*
X792924D02*
Y158259D01*
X851050Y874094D02*
X871050D01*
Y884094D01*
Y874094D02*
Y884094D01*
X851050D02*
X871050D01*
X851050Y874094D02*
Y884094D01*
X871050D01*
X851050Y874094D02*
X871050D01*
X851050D02*
Y884094D01*
X871902Y849028D02*
Y869028D01*
X861902Y849028D02*
Y869028D01*
X871902Y849028D02*
Y869028D01*
X861902D02*
X871902D01*
X861902D02*
X871902D01*
X861902Y849028D02*
X871902D01*
X861902D02*
X871902D01*
X861902D02*
Y869028D01*
X884856Y849028D02*
Y869028D01*
X874856Y849028D02*
Y869028D01*
X884856Y849028D02*
Y869028D01*
X874856D02*
X884856D01*
X874856D02*
X884856D01*
X874856Y849028D02*
X884856D01*
X874856D02*
X884856D01*
X874856D02*
Y869028D01*
X248078Y848520D02*
Y868520D01*
X238078Y848520D02*
Y868520D01*
X248078Y848520D02*
Y868520D01*
X238078D02*
X248078D01*
X238078D02*
X248078D01*
X238078Y848520D02*
X248078D01*
X238078D02*
X248078D01*
X238078D02*
Y868520D01*
X261842Y848520D02*
Y868520D01*
X251842Y848520D02*
Y868520D01*
X261842Y848520D02*
Y868520D01*
X251842D02*
X261842D01*
X251842D02*
X261842D01*
X251842Y848520D02*
X261842D01*
X251842D02*
X261842D01*
X251842D02*
Y868520D01*
X230782Y891366D02*
X250782D01*
Y901366D01*
Y891366D02*
Y901366D01*
X230782D02*
X250782D01*
X230782Y891366D02*
Y901366D01*
X250782D01*
X230782Y891366D02*
X250782D01*
X230782D02*
Y901366D01*
X914988Y876308D02*
Y896308D01*
X924988D01*
Y876308D02*
Y896308D01*
X914988Y876308D02*
X924988D01*
X914988D02*
Y896308D01*
X924988D01*
Y876308D02*
Y896308D01*
X914988Y876308D02*
X924988D01*
X925248Y825584D02*
Y845584D01*
X915248Y825584D02*
Y845584D01*
X925248Y825584D02*
Y845584D01*
X915248D02*
X925248D01*
X915248D02*
X925248D01*
X915248Y825584D02*
X925248D01*
X915248D02*
X925248D01*
X915248D02*
Y845584D01*
X924988Y925954D02*
Y945954D01*
X914988Y925954D02*
Y945954D01*
X924988Y925954D02*
Y945954D01*
X914988D02*
X924988D01*
X914988D02*
X924988D01*
X914988Y925954D02*
X924988D01*
X914988D02*
X924988D01*
X914988D02*
Y945954D01*
X925370Y719996D02*
Y739996D01*
X915370Y719996D02*
Y739996D01*
X925370Y719996D02*
Y739996D01*
X915370D02*
X925370D01*
X915370D02*
X925370D01*
X915370Y719996D02*
X925370D01*
X915370D02*
X925370D01*
X915370D02*
Y739996D01*
X926258Y771520D02*
Y791520D01*
X916258Y771520D02*
Y791520D01*
X926258Y771520D02*
Y791520D01*
X916258D02*
X926258D01*
X916258D02*
X926258D01*
X916258Y771520D02*
X926258D01*
X916258D02*
X926258D01*
X916258D02*
Y791520D01*
X47544Y343240D02*
Y363240D01*
X37544Y343240D02*
Y363240D01*
X47544Y343240D02*
Y363240D01*
X37544D02*
X47544D01*
X37544D02*
X47544D01*
X37544Y343240D02*
X47544D01*
X37544D02*
X47544D01*
X37544D02*
Y363240D01*
X60498Y342986D02*
Y362986D01*
X50498Y342986D02*
Y362986D01*
X60498Y342986D02*
Y362986D01*
X50498D02*
X60498D01*
X50498D02*
X60498D01*
X50498Y342986D02*
X60498D01*
X50498D02*
X60498D01*
X50498D02*
Y362986D01*
X100630Y343240D02*
Y363240D01*
X90630Y343240D02*
X100630D01*
X90630D02*
Y363240D01*
X100630D01*
Y343240D02*
Y363240D01*
X90630Y343240D02*
X100630D01*
X90630D02*
Y363240D01*
X100630D01*
X142794Y481162D02*
Y501162D01*
X132794Y481162D02*
Y501162D01*
X142794Y481162D02*
Y501162D01*
X132794D02*
X142794D01*
X132794D02*
X142794D01*
X132794Y481162D02*
X142794D01*
X132794D02*
X142794D01*
X132794D02*
Y501162D01*
X718980Y435008D02*
Y455008D01*
X728980Y435008D02*
Y455008D01*
X718980Y435008D02*
Y455008D01*
Y435008D02*
X728980D01*
X718980D02*
X728980D01*
X718980Y455008D02*
X728980D01*
X718980D02*
X728980D01*
Y435008D02*
Y455008D01*
X701196Y218266D02*
X721196D01*
Y228266D01*
Y218266D02*
Y228266D01*
X701196D02*
X721196D01*
X701196Y218266D02*
Y228266D01*
X721196D01*
X701196Y218266D02*
X721196D01*
X701196D02*
Y228266D01*
X701450Y243666D02*
X721450D01*
Y253666D01*
Y243666D02*
Y253666D01*
X701450D02*
X721450D01*
X701450Y243666D02*
Y253666D01*
X721450D01*
X701450Y243666D02*
X721450D01*
X701450D02*
Y253666D01*
Y256366D02*
X721450D01*
Y266366D01*
Y256366D02*
Y266366D01*
X701450D02*
X721450D01*
X701450Y256366D02*
Y266366D01*
X721450D01*
X701450Y256366D02*
X721450D01*
X701450D02*
Y266366D01*
X583340Y269066D02*
X603340D01*
X583340D02*
Y279066D01*
X603340D01*
Y269066D02*
Y279066D01*
X583340Y269066D02*
X603340D01*
X583340D02*
Y279066D01*
X603340D01*
Y269066D02*
Y279066D01*
X583340Y256366D02*
X603340D01*
X583340D02*
Y266366D01*
X603340D01*
Y256366D02*
Y266366D01*
X583340Y256366D02*
X603340D01*
X583340D02*
Y266366D01*
X603340D01*
Y256366D02*
Y266366D01*
X583594Y243666D02*
X603594D01*
X583594D02*
Y253666D01*
X603594D01*
Y243666D02*
Y253666D01*
X583594Y243666D02*
X603594D01*
X583594D02*
Y253666D01*
X603594D01*
Y243666D02*
Y253666D01*
X130856Y481162D02*
Y501162D01*
X120856Y481162D02*
Y501162D01*
X130856Y481162D02*
Y501162D01*
X120856D02*
X130856D01*
X120856D02*
X130856D01*
X120856Y481162D02*
X130856D01*
X120856D02*
X130856D01*
X120856D02*
Y501162D01*
X583598Y230712D02*
X603598D01*
Y240712D01*
Y230712D02*
Y240712D01*
X583598D02*
X603598D01*
X583598Y230712D02*
Y240712D01*
X603598D01*
X583598Y230712D02*
X603598D01*
X583598D02*
Y240712D01*
X701200Y205276D02*
X721200D01*
X701200D02*
Y215276D01*
X721200D01*
Y205276D02*
Y215276D01*
X701200Y205276D02*
X721200D01*
X701200D02*
Y215276D01*
X721200D01*
Y205276D02*
Y215276D01*
X701450Y231184D02*
X721450D01*
X701450D02*
Y241184D01*
X721450D01*
Y231184D02*
Y241184D01*
X701450Y231184D02*
X721450D01*
X701450D02*
Y241184D01*
X721450D01*
Y231184D02*
Y241184D01*
X701450Y269284D02*
X721450D01*
X701450D02*
Y279284D01*
X721450D01*
Y269284D02*
Y279284D01*
X701450Y269284D02*
X721450D01*
X701450D02*
Y279284D01*
X721450D01*
Y269284D02*
Y279284D01*
X231887Y477786D02*
X251887D01*
Y467786D02*
Y477786D01*
X231887Y467786D02*
X251887D01*
X231887D02*
Y477786D01*
X251887D01*
Y467786D02*
Y477786D01*
X231887Y467786D02*
X251887D01*
X231887D02*
Y477786D01*
X1002698Y151682D02*
X1022698D01*
Y161682D01*
Y151682D02*
Y161682D01*
X1002698D02*
X1022698D01*
X1002698Y151682D02*
Y161682D01*
X1022698D01*
X1002698Y151682D02*
X1022698D01*
X1002698D02*
Y161682D01*
X1029462Y120048D02*
X1039462D01*
Y140048D01*
Y120048D02*
Y140048D01*
X1029462D02*
X1039462D01*
X1029462Y120048D02*
Y140048D01*
X1039462D01*
X1029462Y120048D02*
X1039462D01*
X1029462D02*
Y140048D01*
X1026000Y120048D02*
Y140048D01*
X1016000Y120048D02*
X1026000D01*
X1016000D02*
Y140048D01*
X1026000D01*
Y120048D02*
Y140048D01*
X1016000Y120048D02*
X1026000D01*
X1016000D02*
Y140048D01*
X1026000D01*
X792670Y134543D02*
X812670D01*
Y144543D01*
Y134543D02*
Y144543D01*
X792670D02*
X812670D01*
X792670Y134543D02*
Y144543D01*
X812670D01*
X792670Y134543D02*
X812670D01*
X792670D02*
Y144543D01*
X231887Y503312D02*
X251887D01*
Y493312D02*
Y503312D01*
X231887Y493312D02*
X251887D01*
X231887D02*
Y503312D01*
X251887D01*
Y493312D02*
Y503312D01*
X231887Y493312D02*
X251887D01*
X231887D02*
Y503312D01*
X212900Y473326D02*
Y493326D01*
X202900Y473326D02*
Y493326D01*
X212900Y473326D02*
Y493326D01*
X202900D02*
X212900D01*
X202900D02*
X212900D01*
X202900Y473326D02*
X212900D01*
X202900D02*
X212900D01*
X202900D02*
Y493326D01*
X231808Y455298D02*
X251808D01*
X231808D02*
Y465298D01*
X251808D01*
Y455298D02*
Y465298D01*
X231808Y455298D02*
X251808D01*
X231808D02*
Y465298D01*
X251808D01*
Y455298D02*
Y465298D01*
X231808Y480612D02*
X251808D01*
X231808D02*
Y490612D01*
X251808D01*
Y480612D02*
Y490612D01*
X231808Y480612D02*
X251808D01*
X231808D02*
Y490612D01*
X251808D01*
Y480612D02*
Y490612D01*
X200326Y473326D02*
Y493326D01*
X190326Y473326D02*
X200326D01*
X190326D02*
Y493326D01*
X200326D01*
Y473326D02*
Y493326D01*
X190326Y473326D02*
X200326D01*
X190326D02*
Y493326D01*
X200326D01*
X63850Y217119D02*
Y237119D01*
X53850Y217119D02*
X63850D01*
X53850D02*
Y237119D01*
X63850D01*
Y217119D02*
Y237119D01*
X53850Y217119D02*
X63850D01*
X53850D02*
Y237119D01*
X63850D01*
X76754Y217002D02*
Y237002D01*
X66754Y217002D02*
Y237002D01*
X76754Y217002D02*
Y237002D01*
X66754D02*
X76754D01*
X66754D02*
X76754D01*
X66754Y217002D02*
X76754D01*
X66754D02*
X76754D01*
X66754D02*
Y237002D01*
X659718Y372996D02*
X669718D01*
Y392996D01*
Y372996D02*
Y392996D01*
X659718D02*
X669718D01*
X659718Y372996D02*
Y392996D01*
X669718D01*
X659718Y372996D02*
X669718D01*
X659718D02*
Y392996D01*
X521622Y353104D02*
X541622D01*
X521622D02*
Y363104D01*
X541622D01*
Y353104D02*
Y363104D01*
X521622Y353104D02*
X541622D01*
X521622D02*
Y363104D01*
X541622D01*
Y353104D02*
Y363104D01*
X985614Y120556D02*
Y140556D01*
X975614Y120556D02*
Y140556D01*
X985614Y120556D02*
Y140556D01*
X975614D02*
X985614D01*
X975614D02*
X985614D01*
X975614Y120556D02*
X985614D01*
X975614D02*
X985614D01*
X975614D02*
Y140556D01*
X752214Y450182D02*
X762214D01*
X752214Y430182D02*
Y450182D01*
Y430182D02*
X762214D01*
Y450182D01*
X752214D02*
X762214D01*
X752214Y430182D02*
Y450182D01*
Y430182D02*
X762214D01*
Y450182D01*
X659718Y350172D02*
X669718D01*
Y370172D01*
X659718D02*
X669718D01*
X659718Y350172D02*
Y370172D01*
Y350172D02*
X669718D01*
Y370172D01*
X659718D02*
X669718D01*
X659718Y350172D02*
Y370172D01*
X706557Y455008D02*
X716557D01*
X706557Y435008D02*
Y455008D01*
Y435008D02*
X716557D01*
Y455008D01*
X706557D02*
X716557D01*
X706557Y435008D02*
Y455008D01*
Y435008D02*
X716557D01*
Y455008D01*
X678604Y298102D02*
Y318102D01*
X668604Y298102D02*
Y318102D01*
X678604Y298102D02*
Y318102D01*
X668604D02*
X678604D01*
X668604D02*
X678604D01*
X668604Y298102D02*
X678604D01*
X668604D02*
X678604D01*
X668604D02*
Y318102D01*
X691876Y298166D02*
Y318166D01*
X681876Y298166D02*
Y318166D01*
X691876Y298166D02*
Y318166D01*
X681876D02*
X691876D01*
X681876D02*
X691876D01*
X681876Y298166D02*
X691876D01*
X681876D02*
X691876D01*
X681876D02*
Y318166D01*
X952053Y34493D02*
X950386Y36159D01*
X947054D01*
X945388Y34493D01*
Y27828D01*
X947054Y26162D01*
X950386D01*
X952053Y27828D01*
X955385Y34493D02*
X957051Y36159D01*
X960383D01*
X962049Y34493D01*
Y32826D01*
X960383Y31160D01*
X958717D01*
X960383D01*
X962049Y29494D01*
Y27828D01*
X960383Y26162D01*
X957051D01*
X955385Y27828D01*
X965382Y34493D02*
X967048Y36159D01*
X970380D01*
X972046Y34493D01*
Y32826D01*
X970380Y31160D01*
X968714D01*
X970380D01*
X972046Y29494D01*
Y27828D01*
X970380Y26162D01*
X967048D01*
X965382Y27828D01*
X699313Y168965D02*
X697647Y167298D01*
Y163966D01*
X699313Y162300D01*
X705978D01*
X707644Y163966D01*
Y167298D01*
X705978Y168965D01*
X707644Y177295D02*
X697647D01*
X702646Y172297D01*
Y178961D01*
X699313Y182294D02*
X697647Y183960D01*
Y187292D01*
X699313Y188958D01*
X705978D01*
X707644Y187292D01*
Y183960D01*
X705978Y182294D01*
X699313D01*
X919794Y426811D02*
X913130D01*
Y421812D01*
X916462D01*
X913130D01*
Y416814D01*
X923127Y426811D02*
Y416814D01*
X928125D01*
X929791Y418480D01*
Y420146D01*
X928125Y421812D01*
X923127D01*
X928125D01*
X929791Y423479D01*
Y425145D01*
X928125Y426811D01*
X923127D01*
X933124Y416814D02*
X936456D01*
X934790D01*
Y426811D01*
X933124Y425145D01*
D25*
X809246Y161884D02*
Y204384D01*
X777746D02*
X809246D01*
X777746Y161884D02*
Y204384D01*
Y161884D02*
X809246D01*
X971464Y105916D02*
Y137416D01*
X928964D02*
X971464D01*
X928964Y105916D02*
Y137416D01*
Y105916D02*
X971464D01*
X44704Y256729D02*
Y253396D01*
X45370Y252730D01*
X46703D01*
X47370Y253396D01*
Y256729D01*
X51368Y252730D02*
X48703D01*
X51368Y255396D01*
Y256062D01*
X50702Y256729D01*
X49369D01*
X48703Y256062D01*
X52701Y256729D02*
X55367D01*
Y256062D01*
X52701Y253396D01*
Y252730D01*
X237744Y444246D02*
Y448245D01*
X239743D01*
X240410Y447578D01*
Y446245D01*
X239743Y445579D01*
X237744D01*
X239077D02*
X240410Y444246D01*
X241743Y447578D02*
X242409Y448245D01*
X243742D01*
X244408Y447578D01*
Y446912D01*
X243742Y446245D01*
X243076D01*
X243742D01*
X244408Y445579D01*
Y444912D01*
X243742Y444246D01*
X242409D01*
X241743Y444912D01*
X245741Y448245D02*
X248407D01*
Y447578D01*
X245741Y444912D01*
Y444246D01*
X235966Y431800D02*
Y435799D01*
X237965D01*
X238632Y435132D01*
Y433799D01*
X237965Y433133D01*
X235966D01*
X237299D02*
X238632Y431800D01*
X239965Y435132D02*
X240631Y435799D01*
X241964D01*
X242631Y435132D01*
Y434466D01*
X241964Y433799D01*
X241298D01*
X241964D01*
X242631Y433133D01*
Y432466D01*
X241964Y431800D01*
X240631D01*
X239965Y432466D01*
X246629Y435799D02*
X245296Y435132D01*
X243963Y433799D01*
Y432466D01*
X244630Y431800D01*
X245963D01*
X246629Y432466D01*
Y433133D01*
X245963Y433799D01*
X243963D01*
X488218Y377252D02*
X487551Y377919D01*
X486218D01*
X485552Y377252D01*
Y374586D01*
X486218Y373920D01*
X487551D01*
X488218Y374586D01*
X489551Y373920D02*
X490884D01*
X490217D01*
Y377919D01*
X489551Y377252D01*
X300482Y397318D02*
X299815Y397985D01*
X298482D01*
X297816Y397318D01*
Y394652D01*
X298482Y393986D01*
X299815D01*
X300482Y394652D01*
X303814Y393986D02*
Y397985D01*
X301815Y395985D01*
X304480D01*
X308479Y397985D02*
X305813D01*
Y395985D01*
X307146Y396652D01*
X307813D01*
X308479Y395985D01*
Y394652D01*
X307813Y393986D01*
X306480D01*
X305813Y394652D01*
X955229Y76880D02*
X954229Y77880D01*
X952230D01*
X951230Y76880D01*
Y72882D01*
X952230Y71882D01*
X954229D01*
X955229Y72882D01*
X957228Y76880D02*
X958228Y77880D01*
X960227D01*
X961227Y76880D01*
Y75881D01*
X960227Y74881D01*
X959227D01*
X960227D01*
X961227Y73881D01*
Y72882D01*
X960227Y71882D01*
X958228D01*
X957228Y72882D01*
X963226Y71882D02*
X965226D01*
X964226D01*
Y77880D01*
X963226Y76880D01*
X1003304Y41039D02*
Y35041D01*
X1007303D01*
X1009302Y40039D02*
X1010302Y41039D01*
X1012301D01*
X1013301Y40039D01*
Y39040D01*
X1012301Y38040D01*
X1011302D01*
X1012301D01*
X1013301Y37040D01*
Y36041D01*
X1012301Y35041D01*
X1010302D01*
X1009302Y36041D01*
X982330Y84328D02*
X981663Y83661D01*
Y82328D01*
X982330Y81662D01*
X984996D01*
X985662Y82328D01*
Y83661D01*
X984996Y84328D01*
X985662Y88327D02*
Y85661D01*
X982996Y88327D01*
X982330D01*
X981663Y87660D01*
Y86327D01*
X982330Y85661D01*
Y89659D02*
X981663Y90326D01*
Y91659D01*
X982330Y92325D01*
X982996D01*
X983663Y91659D01*
X984329Y92325D01*
X984996D01*
X985662Y91659D01*
Y90326D01*
X984996Y89659D01*
X984329D01*
X983663Y90326D01*
X982996Y89659D01*
X982330D01*
X983663Y90326D02*
Y91659D01*
X996330Y122302D02*
X992331D01*
Y124301D01*
X992998Y124968D01*
X994331D01*
X994997Y124301D01*
Y122302D01*
Y123635D02*
X996330Y124968D01*
Y128300D02*
X992331D01*
X994331Y126301D01*
Y128967D01*
X992998Y130299D02*
X992331Y130966D01*
Y132299D01*
X992998Y132965D01*
X995664D01*
X996330Y132299D01*
Y130966D01*
X995664Y130299D01*
X992998D01*
X1006206Y124968D02*
X1005539Y124301D01*
Y122968D01*
X1006206Y122302D01*
X1008872D01*
X1009538Y122968D01*
Y124301D01*
X1008872Y124968D01*
X1006206Y126301D02*
X1005539Y126967D01*
Y128300D01*
X1006206Y128967D01*
X1006872D01*
X1007539Y128300D01*
Y127634D01*
Y128300D01*
X1008205Y128967D01*
X1008872D01*
X1009538Y128300D01*
Y126967D01*
X1008872Y126301D01*
X1009538Y132965D02*
Y130299D01*
X1006872Y132965D01*
X1006206D01*
X1005539Y132299D01*
Y130966D01*
X1006206Y130299D01*
X1032338Y86549D02*
X1031338Y85549D01*
Y83550D01*
X1032338Y82550D01*
X1036336D01*
X1037336Y83550D01*
Y85549D01*
X1036336Y86549D01*
X1032338Y88548D02*
X1031338Y89548D01*
Y91547D01*
X1032338Y92547D01*
X1033337D01*
X1034337Y91547D01*
Y90547D01*
Y91547D01*
X1035337Y92547D01*
X1036336D01*
X1037336Y91547D01*
Y89548D01*
X1036336Y88548D01*
X1037336Y97545D02*
X1031338D01*
X1034337Y94546D01*
Y98545D01*
X707136Y129188D02*
Y123190D01*
X711135D01*
X716133D02*
Y129188D01*
X713134Y126189D01*
X717133D01*
X756696Y151544D02*
X756029Y152210D01*
X754697D01*
X754030Y151544D01*
Y148878D01*
X754697Y148211D01*
X756029D01*
X756696Y148878D01*
X758029Y151544D02*
X758695Y152210D01*
X760028D01*
X760695Y151544D01*
Y150877D01*
X760028Y150211D01*
X759362D01*
X760028D01*
X760695Y149544D01*
Y148878D01*
X760028Y148211D01*
X758695D01*
X758029Y148878D01*
X764693Y152210D02*
X762027D01*
Y150211D01*
X763360Y150877D01*
X764027D01*
X764693Y150211D01*
Y148878D01*
X764027Y148211D01*
X762694D01*
X762027Y148878D01*
X794670Y97790D02*
Y101789D01*
X796669D01*
X797336Y101122D01*
Y99789D01*
X796669Y99123D01*
X794670D01*
X796003D02*
X797336Y97790D01*
X800668D02*
Y101789D01*
X798669Y99789D01*
X801335D01*
X805333Y101789D02*
X802667D01*
Y99789D01*
X804000Y100456D01*
X804667D01*
X805333Y99789D01*
Y98456D01*
X804667Y97790D01*
X803334D01*
X802667Y98456D01*
X794416Y110873D02*
Y114872D01*
X796415D01*
X797082Y114206D01*
Y112873D01*
X796415Y112206D01*
X794416D01*
X795749D02*
X797082Y110873D01*
X800414D02*
Y114872D01*
X798415Y112873D01*
X801080D01*
X805079Y114872D02*
X803746Y114206D01*
X802413Y112873D01*
Y111540D01*
X803080Y110873D01*
X804413D01*
X805079Y111540D01*
Y112206D01*
X804413Y112873D01*
X802413D01*
X797336Y127668D02*
X796669Y128334D01*
X795337D01*
X794670Y127668D01*
Y125002D01*
X795337Y124335D01*
X796669D01*
X797336Y125002D01*
X798669Y127668D02*
X799335Y128334D01*
X800668D01*
X801335Y127668D01*
Y127001D01*
X800668Y126335D01*
X800002D01*
X800668D01*
X801335Y125668D01*
Y125002D01*
X800668Y124335D01*
X799335D01*
X798669Y125002D01*
X802667D02*
X803334Y124335D01*
X804667D01*
X805333Y125002D01*
Y127668D01*
X804667Y128334D01*
X803334D01*
X802667Y127668D01*
Y127001D01*
X803334Y126335D01*
X805333D01*
X794924Y151259D02*
Y155258D01*
X796923D01*
X797590Y154592D01*
Y153259D01*
X796923Y152592D01*
X794924D01*
X796257D02*
X797590Y151259D01*
X800922D02*
Y155258D01*
X798923Y153259D01*
X801589D01*
X802921Y155258D02*
X805587D01*
Y154592D01*
X802921Y151926D01*
Y151259D01*
X790245Y174559D02*
X788579Y172892D01*
Y169560D01*
X790245Y167894D01*
X796910D01*
X798576Y169560D01*
Y172892D01*
X796910Y174559D01*
X790245Y177891D02*
X788579Y179557D01*
Y182889D01*
X790245Y184555D01*
X791911D01*
X793578Y182889D01*
Y181223D01*
Y182889D01*
X795244Y184555D01*
X796910D01*
X798576Y182889D01*
Y179557D01*
X796910Y177891D01*
X788579Y187888D02*
Y194552D01*
X790245D01*
X796910Y187888D01*
X798576D01*
X764836Y172030D02*
X763836Y171030D01*
Y169031D01*
X764836Y168031D01*
X768834D01*
X769834Y169031D01*
Y171030D01*
X768834Y172030D01*
X769834Y178028D02*
Y174029D01*
X765835Y178028D01*
X764836D01*
X763836Y177028D01*
Y175029D01*
X764836Y174029D01*
X768834Y180027D02*
X769834Y181027D01*
Y183026D01*
X768834Y184026D01*
X764836D01*
X763836Y183026D01*
Y181027D01*
X764836Y180027D01*
X765835D01*
X766835Y181027D01*
Y184026D01*
X745024Y175840D02*
X744024Y174840D01*
Y172841D01*
X745024Y171841D01*
X749022D01*
X750022Y172841D01*
Y174840D01*
X749022Y175840D01*
X745024Y177839D02*
X744024Y178839D01*
Y180838D01*
X745024Y181838D01*
X746023D01*
X747023Y180838D01*
Y179839D01*
Y180838D01*
X748023Y181838D01*
X749022D01*
X750022Y180838D01*
Y178839D01*
X749022Y177839D01*
X745024Y183837D02*
X744024Y184837D01*
Y186836D01*
X745024Y187836D01*
X746023D01*
X747023Y186836D01*
X748023Y187836D01*
X749022D01*
X750022Y186836D01*
Y184837D01*
X749022Y183837D01*
X748023D01*
X747023Y184837D01*
X746023Y183837D01*
X745024D01*
X747023Y184837D02*
Y186836D01*
X853050Y877094D02*
Y881093D01*
X855049D01*
X855716Y880426D01*
Y879093D01*
X855049Y878427D01*
X853050D01*
X854383D02*
X855716Y877094D01*
X857049D02*
X858382D01*
X857715D01*
Y881093D01*
X857049Y880426D01*
X860381Y877094D02*
Y877760D01*
X861047D01*
Y877094D01*
X860381D01*
X866379D02*
X863713D01*
X866379Y879760D01*
Y880426D01*
X865713Y881093D01*
X864380D01*
X863713Y880426D01*
X868902Y851028D02*
X864903D01*
Y853027D01*
X865570Y853694D01*
X866903D01*
X867569Y853027D01*
Y851028D01*
Y852361D02*
X868902Y853694D01*
Y855027D02*
Y856360D01*
Y855693D01*
X864903D01*
X865570Y855027D01*
Y858359D02*
X864903Y859025D01*
Y860358D01*
X865570Y861025D01*
X868236D01*
X868902Y860358D01*
Y859025D01*
X868236Y858359D01*
X865570D01*
X868902Y862358D02*
X868236D01*
Y863024D01*
X868902D01*
Y862358D01*
Y868356D02*
Y865690D01*
X866236Y868356D01*
X865570D01*
X864903Y867689D01*
Y866356D01*
X865570Y865690D01*
X881856Y851028D02*
X877857D01*
Y853027D01*
X878524Y853694D01*
X879857D01*
X880523Y853027D01*
Y851028D01*
Y852361D02*
X881856Y853694D01*
Y855027D02*
Y856360D01*
Y855693D01*
X877857D01*
X878524Y855027D01*
X881856Y858359D02*
Y859692D01*
Y859025D01*
X877857D01*
X878524Y858359D01*
X881856Y861691D02*
X881190D01*
Y862358D01*
X881856D01*
Y861691D01*
Y867689D02*
Y865023D01*
X879190Y867689D01*
X878524D01*
X877857Y867023D01*
Y865690D01*
X878524Y865023D01*
X844012Y821054D02*
X843345Y820387D01*
Y819054D01*
X844012Y818388D01*
X846678D01*
X847344Y819054D01*
Y820387D01*
X846678Y821054D01*
Y822387D02*
X847344Y823053D01*
Y824386D01*
X846678Y825052D01*
X844012D01*
X843345Y824386D01*
Y823053D01*
X844012Y822387D01*
X844678D01*
X845345Y823053D01*
Y825052D01*
X847344Y826385D02*
X846678D01*
Y827052D01*
X847344D01*
Y826385D01*
Y832383D02*
Y829718D01*
X844678Y832383D01*
X844012D01*
X843345Y831717D01*
Y830384D01*
X844012Y829718D01*
X704251Y591820D02*
X714248D01*
Y596818D01*
X712582Y598484D01*
X705917D01*
X704251Y596818D01*
Y591820D01*
Y608481D02*
Y601817D01*
X709250D01*
X707583Y605149D01*
Y606815D01*
X709250Y608481D01*
X712582D01*
X714248Y606815D01*
Y603483D01*
X712582Y601817D01*
X714248Y611814D02*
X712582D01*
Y613480D01*
X714248D01*
Y611814D01*
Y626809D02*
Y620144D01*
X707583Y626809D01*
X705917D01*
X704251Y625143D01*
Y621810D01*
X705917Y620144D01*
X731266Y595884D02*
X726188D01*
Y598423D01*
X727034Y599270D01*
X728727D01*
X729573Y598423D01*
Y595884D01*
Y597577D02*
X731266Y599270D01*
Y600962D02*
Y602655D01*
Y601809D01*
X726188D01*
X727034Y600962D01*
Y605194D02*
X726188Y606041D01*
Y607733D01*
X727034Y608580D01*
X727880D01*
X728727Y607733D01*
Y606887D01*
Y607733D01*
X729573Y608580D01*
X730420D01*
X731266Y607733D01*
Y606041D01*
X730420Y605194D01*
X731266Y610273D02*
X730420D01*
Y611119D01*
X731266D01*
Y610273D01*
Y617890D02*
Y614505D01*
X727880Y617890D01*
X727034D01*
X726188Y617044D01*
Y615351D01*
X727034Y614505D01*
X749300Y594614D02*
X744222D01*
Y597153D01*
X745068Y598000D01*
X746761D01*
X747607Y597153D01*
Y594614D01*
Y596307D02*
X749300Y598000D01*
Y599692D02*
Y601385D01*
Y600539D01*
X744222D01*
X745068Y599692D01*
X749300Y606464D02*
X744222D01*
X746761Y603924D01*
Y607310D01*
X749300Y609003D02*
X748454D01*
Y609849D01*
X749300D01*
Y609003D01*
Y616620D02*
Y613235D01*
X745914Y616620D01*
X745068D01*
X744222Y615774D01*
Y614081D01*
X745068Y613235D01*
X760225Y593344D02*
X767842D01*
Y597153D01*
X766572Y598422D01*
X761494D01*
X760225Y597153D01*
Y593344D01*
X767842Y604770D02*
X760225D01*
X764033Y600961D01*
Y606040D01*
X767842Y608579D02*
X766572D01*
Y609849D01*
X767842D01*
Y608579D01*
Y620005D02*
Y614927D01*
X762764Y620005D01*
X761494D01*
X760225Y618736D01*
Y616197D01*
X761494Y614927D01*
X603759Y795782D02*
X608330D01*
Y798067D01*
X607568Y798829D01*
X604521D01*
X603759Y798067D01*
Y795782D01*
X604521Y800352D02*
X603759Y801114D01*
Y802638D01*
X604521Y803400D01*
X605283D01*
X606045Y802638D01*
Y801876D01*
Y802638D01*
X606806Y803400D01*
X607568D01*
X608330Y802638D01*
Y801114D01*
X607568Y800352D01*
X608330Y804923D02*
X607568D01*
Y805685D01*
X608330D01*
Y804923D01*
Y811779D02*
Y808732D01*
X605283Y811779D01*
X604521D01*
X603759Y811017D01*
Y809494D01*
X604521Y808732D01*
X41148Y570482D02*
Y565912D01*
X43433D01*
X44195Y566674D01*
Y569721D01*
X43433Y570482D01*
X41148D01*
X45718Y569721D02*
X46480Y570482D01*
X48004D01*
X48766Y569721D01*
Y568959D01*
X48004Y568197D01*
X47242D01*
X48004D01*
X48766Y567435D01*
Y566674D01*
X48004Y565912D01*
X46480D01*
X45718Y566674D01*
X50289Y565912D02*
Y566674D01*
X51051D01*
Y565912D01*
X50289D01*
X54098D02*
X55621D01*
X54860D01*
Y570482D01*
X54098Y569721D01*
X61885Y591058D02*
X71882D01*
Y596056D01*
X70216Y597723D01*
X63551D01*
X61885Y596056D01*
Y591058D01*
Y607719D02*
Y601055D01*
X66884D01*
X65217Y604387D01*
Y606053D01*
X66884Y607719D01*
X70216D01*
X71882Y606053D01*
Y602721D01*
X70216Y601055D01*
X71882Y611052D02*
X70216D01*
Y612718D01*
X71882D01*
Y611052D01*
Y619382D02*
Y622715D01*
Y621048D01*
X61885D01*
X63551Y619382D01*
X89662Y593852D02*
X83664D01*
Y596851D01*
X84664Y597851D01*
X86663D01*
X87663Y596851D01*
Y593852D01*
Y595851D02*
X89662Y597851D01*
Y599850D02*
Y601849D01*
Y600850D01*
X83664D01*
X84664Y599850D01*
Y604848D02*
X83664Y605848D01*
Y607848D01*
X84664Y608847D01*
X85663D01*
X86663Y607848D01*
Y606848D01*
Y607848D01*
X87663Y608847D01*
X88662D01*
X89662Y607848D01*
Y605848D01*
X88662Y604848D01*
X89662Y610846D02*
X88662D01*
Y611846D01*
X89662D01*
Y610846D01*
Y615845D02*
Y617844D01*
Y616844D01*
X83664D01*
X84664Y615845D01*
X106680Y593852D02*
X100682D01*
Y596851D01*
X101682Y597851D01*
X103681D01*
X104681Y596851D01*
Y593852D01*
Y595851D02*
X106680Y597851D01*
Y599850D02*
Y601849D01*
Y600850D01*
X100682D01*
X101682Y599850D01*
X106680Y607848D02*
X100682D01*
X103681Y604848D01*
Y608847D01*
X106680Y610846D02*
X105680D01*
Y611846D01*
X106680D01*
Y610846D01*
Y615845D02*
Y617844D01*
Y616844D01*
X100682D01*
X101682Y615845D01*
X219172Y821054D02*
X218505Y820387D01*
Y819054D01*
X219172Y818388D01*
X221838D01*
X222504Y819054D01*
Y820387D01*
X221838Y821054D01*
Y822387D02*
X222504Y823053D01*
Y824386D01*
X221838Y825052D01*
X219172D01*
X218505Y824386D01*
Y823053D01*
X219172Y822387D01*
X219838D01*
X220505Y823053D01*
Y825052D01*
X222504Y826385D02*
X221838D01*
Y827052D01*
X222504D01*
Y826385D01*
Y829718D02*
Y831050D01*
Y830384D01*
X218505D01*
X219172Y829718D01*
X245078Y850520D02*
X241079D01*
Y852519D01*
X241746Y853186D01*
X243079D01*
X243745Y852519D01*
Y850520D01*
Y851853D02*
X245078Y853186D01*
Y854519D02*
Y855852D01*
Y855185D01*
X241079D01*
X241746Y854519D01*
Y857851D02*
X241079Y858517D01*
Y859850D01*
X241746Y860517D01*
X244412D01*
X245078Y859850D01*
Y858517D01*
X244412Y857851D01*
X241746D01*
X245078Y861850D02*
X244412D01*
Y862516D01*
X245078D01*
Y861850D01*
Y865182D02*
Y866515D01*
Y865848D01*
X241079D01*
X241746Y865182D01*
X258842Y850520D02*
X254843D01*
Y852519D01*
X255510Y853186D01*
X256843D01*
X257509Y852519D01*
Y850520D01*
Y851853D02*
X258842Y853186D01*
Y854519D02*
Y855852D01*
Y855185D01*
X254843D01*
X255510Y854519D01*
X258842Y857851D02*
Y859184D01*
Y858517D01*
X254843D01*
X255510Y857851D01*
X258842Y861183D02*
X258176D01*
Y861850D01*
X258842D01*
Y861183D01*
Y864515D02*
Y865848D01*
Y865182D01*
X254843D01*
X255510Y864515D01*
X232782Y894366D02*
Y898365D01*
X234781D01*
X235448Y897698D01*
Y896365D01*
X234781Y895699D01*
X232782D01*
X234115D02*
X235448Y894366D01*
X236781D02*
X238113D01*
X237447D01*
Y898365D01*
X236781Y897698D01*
X240113Y894366D02*
Y895032D01*
X240779D01*
Y894366D01*
X240113D01*
X243445D02*
X244778D01*
X244112D01*
Y898365D01*
X243445Y897698D01*
X106110Y479262D02*
X105443Y478595D01*
Y477262D01*
X106110Y476596D01*
X108776D01*
X109442Y477262D01*
Y478595D01*
X108776Y479262D01*
X109442Y483260D02*
Y480595D01*
X106776Y483260D01*
X106110D01*
X105443Y482594D01*
Y481261D01*
X106110Y480595D01*
X35178Y392460D02*
X34511Y393127D01*
X33178D01*
X32512Y392460D01*
Y389794D01*
X33178Y389128D01*
X34511D01*
X35178Y389794D01*
X38510Y389128D02*
Y393127D01*
X36511Y391127D01*
X39176D01*
X221680Y17772D02*
X221013Y17105D01*
Y15772D01*
X221680Y15106D01*
X224346D01*
X225012Y15772D01*
Y17105D01*
X224346Y17772D01*
X221013Y21771D02*
Y19105D01*
X223013D01*
X222346Y20438D01*
Y21104D01*
X223013Y21771D01*
X224346D01*
X225012Y21104D01*
Y19771D01*
X224346Y19105D01*
X183358Y455548D02*
X182691Y454881D01*
Y453548D01*
X183358Y452882D01*
X186024D01*
X186690Y453548D01*
Y454881D01*
X186024Y455548D01*
X182691Y459547D02*
X183358Y458214D01*
X184691Y456881D01*
X186024D01*
X186690Y457547D01*
Y458880D01*
X186024Y459547D01*
X185357D01*
X184691Y458880D01*
Y456881D01*
X70836Y75818D02*
X70169Y75151D01*
Y73818D01*
X70836Y73152D01*
X73502D01*
X74168Y73818D01*
Y75151D01*
X73502Y75818D01*
X70169Y77151D02*
Y79816D01*
X70836D01*
X73502Y77151D01*
X74168D01*
X72328Y256072D02*
X71661Y255405D01*
Y254072D01*
X72328Y253406D01*
X74994D01*
X75660Y254072D01*
Y255405D01*
X74994Y256072D01*
X72328Y257405D02*
X71661Y258071D01*
Y259404D01*
X72328Y260070D01*
X72994D01*
X73661Y259404D01*
X74327Y260070D01*
X74994D01*
X75660Y259404D01*
Y258071D01*
X74994Y257405D01*
X74327D01*
X73661Y258071D01*
X72994Y257405D01*
X72328D01*
X73661Y258071D02*
Y259404D01*
X228726Y718431D02*
X228059Y719098D01*
X226726D01*
X226060Y718431D01*
Y715765D01*
X226726Y715099D01*
X228059D01*
X228726Y715765D01*
X230059Y715099D02*
X231392D01*
X230725D01*
Y719098D01*
X230059Y718431D01*
X233391D02*
X234057Y719098D01*
X235390D01*
X236057Y718431D01*
Y715765D01*
X235390Y715099D01*
X234057D01*
X233391Y715765D01*
Y718431D01*
X237390Y715099D02*
Y715765D01*
X238056D01*
Y715099D01*
X237390D01*
X240722D02*
X242055D01*
X241388D01*
Y719098D01*
X240722Y718431D01*
X851788Y710214D02*
X851121Y710881D01*
X849788D01*
X849122Y710214D01*
Y707548D01*
X849788Y706882D01*
X851121D01*
X851788Y707548D01*
X853121Y706882D02*
X854454D01*
X853787D01*
Y710881D01*
X853121Y710214D01*
X856453D02*
X857119Y710881D01*
X858452D01*
X859119Y710214D01*
Y707548D01*
X858452Y706882D01*
X857119D01*
X856453Y707548D01*
Y710214D01*
X860452Y706882D02*
Y707548D01*
X861118D01*
Y706882D01*
X860452D01*
X866450D02*
X863784D01*
X866450Y709548D01*
Y710214D01*
X865783Y710881D01*
X864450D01*
X863784Y710214D01*
X138486Y587310D02*
X137819Y587977D01*
X136486D01*
X135820Y587310D01*
Y584644D01*
X136486Y583978D01*
X137819D01*
X138486Y584644D01*
X139819Y583978D02*
X141152D01*
X140485D01*
Y587977D01*
X139819Y587310D01*
X143151Y583978D02*
X144484D01*
X143817D01*
Y587977D01*
X143151Y587310D01*
X146483Y583978D02*
Y584644D01*
X147150D01*
Y583978D01*
X146483D01*
X149815D02*
X151148D01*
X150482D01*
Y587977D01*
X149815Y587310D01*
X780852Y588326D02*
X780185Y588993D01*
X778852D01*
X778186Y588326D01*
Y585660D01*
X778852Y584994D01*
X780185D01*
X780852Y585660D01*
X782185Y584994D02*
X783518D01*
X782851D01*
Y588993D01*
X782185Y588326D01*
X785517Y584994D02*
X786850D01*
X786183D01*
Y588993D01*
X785517Y588326D01*
X788849Y584994D02*
Y585660D01*
X789516D01*
Y584994D01*
X788849D01*
X794847D02*
X792181D01*
X794847Y587660D01*
Y588326D01*
X794181Y588993D01*
X792848D01*
X792181Y588326D01*
X163150Y605979D02*
X162150Y604979D01*
Y602980D01*
X163150Y601980D01*
X167148D01*
X168148Y602980D01*
Y604979D01*
X167148Y605979D01*
X168148Y607978D02*
Y609977D01*
Y608978D01*
X162150D01*
X163150Y607978D01*
X168148Y616975D02*
Y612976D01*
X164149Y616975D01*
X163150D01*
X162150Y615975D01*
Y613976D01*
X163150Y612976D01*
X168148Y618974D02*
X167148D01*
Y619974D01*
X168148D01*
Y618974D01*
Y623973D02*
Y625972D01*
Y624972D01*
X162150D01*
X163150Y623973D01*
X804754Y606995D02*
X803754Y605995D01*
Y603996D01*
X804754Y602996D01*
X808752D01*
X809752Y603996D01*
Y605995D01*
X808752Y606995D01*
X809752Y608994D02*
Y610993D01*
Y609994D01*
X803754D01*
X804754Y608994D01*
X809752Y617991D02*
Y613992D01*
X805753Y617991D01*
X804754D01*
X803754Y616992D01*
Y614992D01*
X804754Y613992D01*
X809752Y619991D02*
X808752D01*
Y620990D01*
X809752D01*
Y619991D01*
Y628988D02*
Y624989D01*
X805753Y628988D01*
X804754D01*
X803754Y627988D01*
Y625989D01*
X804754Y624989D01*
X691216Y433513D02*
X690216Y432513D01*
Y430514D01*
X691216Y429514D01*
X695214D01*
X696214Y430514D01*
Y432513D01*
X695214Y433513D01*
X696214Y435512D02*
Y437511D01*
Y436512D01*
X690216D01*
X691216Y435512D01*
Y440510D02*
X690216Y441510D01*
Y443509D01*
X691216Y444509D01*
X692215D01*
X693215Y443509D01*
Y442510D01*
Y443509D01*
X694215Y444509D01*
X695214D01*
X696214Y443509D01*
Y441510D01*
X695214Y440510D01*
X706223Y292162D02*
X705556Y292829D01*
X704223D01*
X703557Y292162D01*
Y289496D01*
X704223Y288830D01*
X705556D01*
X706223Y289496D01*
X707556Y288830D02*
X708889D01*
X708222D01*
Y292829D01*
X707556Y292162D01*
X712887Y288830D02*
Y292829D01*
X710888Y290829D01*
X713554D01*
X712405Y313608D02*
X711405Y314608D01*
X709406D01*
X708406Y313608D01*
Y309610D01*
X709406Y308610D01*
X711405D01*
X712405Y309610D01*
X714404Y308610D02*
X716403D01*
X715404D01*
Y314608D01*
X714404Y313608D01*
X723401Y314608D02*
X719402D01*
Y311609D01*
X721402Y312609D01*
X722402D01*
X723401Y311609D01*
Y309610D01*
X722402Y308610D01*
X720402D01*
X719402Y309610D01*
X736418Y434195D02*
X735418Y433195D01*
Y431196D01*
X736418Y430196D01*
X740416D01*
X741416Y431196D01*
Y433195D01*
X740416Y434195D01*
X741416Y436194D02*
Y438194D01*
Y437194D01*
X735418D01*
X736418Y436194D01*
X735418Y441193D02*
Y445191D01*
X736418D01*
X740416Y441193D01*
X741416D01*
X746324Y292448D02*
X745657Y293115D01*
X744324D01*
X743658Y292448D01*
Y289783D01*
X744324Y289116D01*
X745657D01*
X746324Y289783D01*
X747657Y289116D02*
X748990D01*
X748323D01*
Y293115D01*
X747657Y292448D01*
X750989D02*
X751655Y293115D01*
X752988D01*
X753655Y292448D01*
Y291782D01*
X752988Y291115D01*
X753655Y290449D01*
Y289783D01*
X752988Y289116D01*
X751655D01*
X750989Y289783D01*
Y290449D01*
X751655Y291115D01*
X750989Y291782D01*
Y292448D01*
X751655Y291115D02*
X752988D01*
X752537Y313608D02*
X751537Y314608D01*
X749538D01*
X748538Y313608D01*
Y309610D01*
X749538Y308610D01*
X751537D01*
X752537Y309610D01*
X754536Y308610D02*
X756535D01*
X755536D01*
Y314608D01*
X754536Y313608D01*
X759534Y309610D02*
X760534Y308610D01*
X762533D01*
X763533Y309610D01*
Y313608D01*
X762533Y314608D01*
X760534D01*
X759534Y313608D01*
Y312609D01*
X760534Y311609D01*
X763533D01*
X661034Y338358D02*
X660367Y339025D01*
X659034D01*
X658368Y338358D01*
Y335692D01*
X659034Y335026D01*
X660367D01*
X661034Y335692D01*
X665033Y335026D02*
X662367D01*
X665033Y337692D01*
Y338358D01*
X664366Y339025D01*
X663033D01*
X662367Y338358D01*
X669031Y335026D02*
X666365D01*
X669031Y337692D01*
Y338358D01*
X668365Y339025D01*
X667032D01*
X666365Y338358D01*
X619426Y218248D02*
X618759Y218915D01*
X617426D01*
X616760Y218248D01*
Y215582D01*
X617426Y214916D01*
X618759D01*
X619426Y215582D01*
X623424Y214916D02*
X620759D01*
X623424Y217582D01*
Y218248D01*
X622758Y218915D01*
X621425D01*
X620759Y218248D01*
X624757D02*
X625424Y218915D01*
X626757D01*
X627423Y218248D01*
Y217582D01*
X626757Y216915D01*
X626090D01*
X626757D01*
X627423Y216249D01*
Y215582D01*
X626757Y214916D01*
X625424D01*
X624757Y215582D01*
X538600Y275002D02*
X537933Y275669D01*
X536600D01*
X535934Y275002D01*
Y272336D01*
X536600Y271670D01*
X537933D01*
X538600Y272336D01*
X542599Y271670D02*
X539933D01*
X542599Y274336D01*
Y275002D01*
X541932Y275669D01*
X540599D01*
X539933Y275002D01*
X545931Y271670D02*
Y275669D01*
X543931Y273669D01*
X546597D01*
X497176Y280536D02*
X496509Y281203D01*
X495176D01*
X494510Y280536D01*
Y277870D01*
X495176Y277204D01*
X496509D01*
X497176Y277870D01*
X501175Y277204D02*
X498509D01*
X501175Y279870D01*
Y280536D01*
X500508Y281203D01*
X499175D01*
X498509Y280536D01*
X505173Y281203D02*
X502507D01*
Y279203D01*
X503840Y279870D01*
X504507D01*
X505173Y279203D01*
Y277870D01*
X504507Y277204D01*
X503174D01*
X502507Y277870D01*
X312390Y104774D02*
X311723Y104107D01*
Y102774D01*
X312390Y102108D01*
X315056D01*
X315722Y102774D01*
Y104107D01*
X315056Y104774D01*
X315722Y108772D02*
Y106107D01*
X313056Y108772D01*
X312390D01*
X311723Y108106D01*
Y106773D01*
X312390Y106107D01*
X311723Y112771D02*
X312390Y111438D01*
X313723Y110105D01*
X315056D01*
X315722Y110772D01*
Y112105D01*
X315056Y112771D01*
X314389D01*
X313723Y112105D01*
Y110105D01*
X927543Y366440D02*
X926543Y367440D01*
X924544D01*
X923544Y366440D01*
Y362442D01*
X924544Y361442D01*
X926543D01*
X927543Y362442D01*
X932541Y361442D02*
Y367440D01*
X929542Y364441D01*
X933541D01*
X939539Y367440D02*
X937540Y366440D01*
X935540Y364441D01*
Y362442D01*
X936540Y361442D01*
X938539D01*
X939539Y362442D01*
Y363441D01*
X938539Y364441D01*
X935540D01*
X926781Y388030D02*
X925781Y389030D01*
X923782D01*
X922782Y388030D01*
Y384032D01*
X923782Y383032D01*
X925781D01*
X926781Y384032D01*
X931779Y383032D02*
Y389030D01*
X928780Y386031D01*
X932779D01*
X934778Y389030D02*
X938777D01*
Y388030D01*
X934778Y384032D01*
Y383032D01*
X877144Y381443D02*
X876144Y380443D01*
Y378444D01*
X877144Y377444D01*
X881142D01*
X882142Y378444D01*
Y380443D01*
X881142Y381443D01*
X882142Y386441D02*
X876144D01*
X879143Y383442D01*
Y387441D01*
X877144Y389440D02*
X876144Y390440D01*
Y392439D01*
X877144Y393439D01*
X878143D01*
X879143Y392439D01*
X880143Y393439D01*
X881142D01*
X882142Y392439D01*
Y390440D01*
X881142Y389440D01*
X880143D01*
X879143Y390440D01*
X878143Y389440D01*
X877144D01*
X879143Y390440D02*
Y392439D01*
X899750Y382459D02*
X898750Y381459D01*
Y379460D01*
X899750Y378460D01*
X903748D01*
X904748Y379460D01*
Y381459D01*
X903748Y382459D01*
X904748Y387457D02*
X898750D01*
X901749Y384458D01*
Y388457D01*
X903748Y390456D02*
X904748Y391456D01*
Y393455D01*
X903748Y394455D01*
X899750D01*
X898750Y393455D01*
Y391456D01*
X899750Y390456D01*
X900749D01*
X901749Y391456D01*
Y394455D01*
X926592Y708912D02*
Y703914D01*
X929091D01*
X929924Y704747D01*
Y708079D01*
X929091Y708912D01*
X926592D01*
X934923Y703914D02*
X931590D01*
X934923Y707246D01*
Y708079D01*
X934090Y708912D01*
X932423D01*
X931590Y708079D01*
X117605Y594360D02*
X125222D01*
Y598169D01*
X123952Y599438D01*
X118874D01*
X117605Y598169D01*
Y594360D01*
X125222Y605786D02*
X117605D01*
X121413Y601978D01*
Y607056D01*
X125222Y609595D02*
X123952D01*
Y610865D01*
X125222D01*
Y609595D01*
Y615943D02*
Y618482D01*
Y617213D01*
X117605D01*
X118874Y615943D01*
X855472Y468786D02*
Y462788D01*
X858471D01*
X859471Y463788D01*
Y467786D01*
X858471Y468786D01*
X855472D01*
X865469D02*
X863469Y467786D01*
X861470Y465787D01*
Y463788D01*
X862470Y462788D01*
X864469D01*
X865469Y463788D01*
Y464787D01*
X864469Y465787D01*
X861470D01*
X925576Y913636D02*
Y908558D01*
X928115D01*
X928962Y909404D01*
Y912790D01*
X928115Y913636D01*
X925576D01*
X930654D02*
X934040D01*
Y912790D01*
X930654Y909404D01*
Y908558D01*
X925248Y814242D02*
Y809244D01*
X927747D01*
X928580Y810077D01*
Y813409D01*
X927747Y814242D01*
X925248D01*
X930246Y813409D02*
X931079Y814242D01*
X932746D01*
X933579Y813409D01*
Y812576D01*
X932746Y811743D01*
X933579Y810910D01*
Y810077D01*
X932746Y809244D01*
X931079D01*
X930246Y810077D01*
Y810910D01*
X931079Y811743D01*
X930246Y812576D01*
Y813409D01*
X931079Y811743D02*
X932746D01*
X925370Y865296D02*
Y860298D01*
X927869D01*
X928702Y861131D01*
Y864463D01*
X927869Y865296D01*
X925370D01*
X930368Y861131D02*
X931201Y860298D01*
X932868D01*
X933701Y861131D01*
Y864463D01*
X932868Y865296D01*
X931201D01*
X930368Y864463D01*
Y863630D01*
X931201Y862797D01*
X933701D01*
X924560Y759788D02*
Y754710D01*
X927099D01*
X927946Y755556D01*
Y758942D01*
X927099Y759788D01*
X924560D01*
X929638Y754710D02*
X931331D01*
X930485D01*
Y759788D01*
X929638Y758942D01*
X933870D02*
X934717Y759788D01*
X936410D01*
X937256Y758942D01*
Y755556D01*
X936410Y754710D01*
X934717D01*
X933870Y755556D01*
Y758942D01*
X25736Y345948D02*
X30734D01*
Y348447D01*
X29901Y349280D01*
X26569D01*
X25736Y348447D01*
Y345948D01*
X30734Y350946D02*
Y352612D01*
Y351779D01*
X25736D01*
X26569Y350946D01*
X30734Y355112D02*
Y356778D01*
Y355945D01*
X25736D01*
X26569Y355112D01*
X762508Y491234D02*
Y486156D01*
X765047D01*
X765894Y487002D01*
Y490388D01*
X765047Y491234D01*
X762508D01*
X767586Y486156D02*
X769279D01*
X768433D01*
Y491234D01*
X767586Y490388D01*
X771818D02*
X772665Y491234D01*
X774358D01*
X775204Y490388D01*
Y489542D01*
X774358Y488695D01*
X773511D01*
X774358D01*
X775204Y487849D01*
Y487002D01*
X774358Y486156D01*
X772665D01*
X771818Y487002D01*
X659132Y167894D02*
X665480D01*
Y171068D01*
X664422Y172126D01*
X660190D01*
X659132Y171068D01*
Y167894D01*
X665480Y174242D02*
Y176358D01*
Y175300D01*
X659132D01*
X660190Y174242D01*
X665480Y182706D02*
X659132D01*
X662306Y179532D01*
Y183764D01*
X67900Y346456D02*
X72898D01*
Y348955D01*
X72065Y349788D01*
X68733D01*
X67900Y348955D01*
Y346456D01*
X72898Y351454D02*
Y353120D01*
Y352287D01*
X67900D01*
X68733Y351454D01*
X67900Y358952D02*
Y355620D01*
X70399D01*
X69566Y357286D01*
Y358119D01*
X70399Y358952D01*
X72065D01*
X72898Y358119D01*
Y356453D01*
X72065Y355620D01*
X794258Y395732D02*
Y401730D01*
X797257D01*
X798257Y400730D01*
Y398731D01*
X797257Y397731D01*
X794258D01*
X796257D02*
X798257Y395732D01*
X804255D02*
X800256D01*
X804255Y399731D01*
Y400730D01*
X803255Y401730D01*
X801256D01*
X800256Y400730D01*
X788924Y426466D02*
X782926D01*
Y429465D01*
X783926Y430465D01*
X785925D01*
X786925Y429465D01*
Y426466D01*
Y428465D02*
X788924Y430465D01*
X783926Y432464D02*
X782926Y433464D01*
Y435463D01*
X783926Y436463D01*
X784925D01*
X785925Y435463D01*
Y434463D01*
Y435463D01*
X786925Y436463D01*
X787924D01*
X788924Y435463D01*
Y433464D01*
X787924Y432464D01*
X874522Y116840D02*
X868524D01*
Y119839D01*
X869524Y120839D01*
X871523D01*
X872523Y119839D01*
Y116840D01*
Y118839D02*
X874522Y120839D01*
X868524Y126837D02*
X869524Y124837D01*
X871523Y122838D01*
X873522D01*
X874522Y123838D01*
Y125837D01*
X873522Y126837D01*
X872523D01*
X871523Y125837D01*
Y122838D01*
X921988Y878308D02*
X917989D01*
Y880307D01*
X918656Y880974D01*
X919989D01*
X920655Y880307D01*
Y878308D01*
Y879641D02*
X921988Y880974D01*
X917989Y882307D02*
Y884973D01*
X918656D01*
X921322Y882307D01*
X921988D01*
X922248Y827584D02*
X918249D01*
Y829583D01*
X918916Y830250D01*
X920249D01*
X920915Y829583D01*
Y827584D01*
Y828917D02*
X922248Y830250D01*
X918916Y831583D02*
X918249Y832249D01*
Y833582D01*
X918916Y834249D01*
X919582D01*
X920249Y833582D01*
X920915Y834249D01*
X921582D01*
X922248Y833582D01*
Y832249D01*
X921582Y831583D01*
X920915D01*
X920249Y832249D01*
X919582Y831583D01*
X918916D01*
X920249Y832249D02*
Y833582D01*
X921988Y927954D02*
X917989D01*
Y929953D01*
X918656Y930620D01*
X919989D01*
X920655Y929953D01*
Y927954D01*
Y929287D02*
X921988Y930620D01*
X921322Y931953D02*
X921988Y932619D01*
Y933952D01*
X921322Y934619D01*
X918656D01*
X917989Y933952D01*
Y932619D01*
X918656Y931953D01*
X919322D01*
X919989Y932619D01*
Y934619D01*
X225622Y697033D02*
Y703031D01*
X228621D01*
X229621Y702031D01*
Y700032D01*
X228621Y699032D01*
X225622D01*
X227621D02*
X229621Y697033D01*
X231620D02*
X233619D01*
X232620D01*
Y703031D01*
X231620Y702031D01*
X240617Y697033D02*
X236618D01*
X240617Y701032D01*
Y702031D01*
X239617Y703031D01*
X237618D01*
X236618Y702031D01*
X242617Y697033D02*
Y698033D01*
X243616D01*
Y697033D01*
X242617D01*
X247615D02*
X249614D01*
X248615D01*
Y703031D01*
X247615Y702031D01*
X851154Y689610D02*
Y694688D01*
X853693D01*
X854540Y693842D01*
Y692149D01*
X853693Y691303D01*
X851154D01*
X852847D02*
X854540Y689610D01*
X856232D02*
X857925D01*
X857079D01*
Y694688D01*
X856232Y693842D01*
X863850Y689610D02*
X860464D01*
X863850Y692996D01*
Y693842D01*
X863003Y694688D01*
X861311D01*
X860464Y693842D01*
X865543Y689610D02*
Y690456D01*
X866389D01*
Y689610D01*
X865543D01*
X873160D02*
X869775D01*
X873160Y692996D01*
Y693842D01*
X872314Y694688D01*
X870621D01*
X869775Y693842D01*
X922370Y721996D02*
X918371D01*
Y723995D01*
X919038Y724662D01*
X920371D01*
X921037Y723995D01*
Y721996D01*
Y723329D02*
X922370Y724662D01*
Y725995D02*
Y727328D01*
Y726661D01*
X918371D01*
X919038Y725995D01*
X918371Y731993D02*
Y729327D01*
X920371D01*
X919704Y730660D01*
Y731326D01*
X920371Y731993D01*
X921704D01*
X922370Y731326D01*
Y729993D01*
X921704Y729327D01*
X923258Y773520D02*
X919259D01*
Y775519D01*
X919926Y776186D01*
X921259D01*
X921925Y775519D01*
Y773520D01*
Y774853D02*
X923258Y776186D01*
Y777519D02*
Y778852D01*
Y778185D01*
X919259D01*
X919926Y777519D01*
X919259Y783517D02*
X919926Y782184D01*
X921259Y780851D01*
X922592D01*
X923258Y781517D01*
Y782850D01*
X922592Y783517D01*
X921925D01*
X921259Y782850D01*
Y780851D01*
X44544Y345240D02*
X40545D01*
Y347239D01*
X41212Y347906D01*
X42545D01*
X43211Y347239D01*
Y345240D01*
Y346573D02*
X44544Y347906D01*
Y349239D02*
Y350572D01*
Y349905D01*
X40545D01*
X41212Y349239D01*
X40545Y352571D02*
Y355237D01*
X41212D01*
X43878Y352571D01*
X44544D01*
X57498Y344986D02*
X53499D01*
Y346985D01*
X54166Y347652D01*
X55499D01*
X56165Y346985D01*
Y344986D01*
Y346319D02*
X57498Y347652D01*
Y348985D02*
Y350318D01*
Y349651D01*
X53499D01*
X54166Y348985D01*
Y352317D02*
X53499Y352983D01*
Y354316D01*
X54166Y354983D01*
X54832D01*
X55499Y354316D01*
X56165Y354983D01*
X56832D01*
X57498Y354316D01*
Y352983D01*
X56832Y352317D01*
X56165D01*
X55499Y352983D01*
X54832Y352317D01*
X54166D01*
X55499Y352983D02*
Y354316D01*
X97536Y346964D02*
X93537D01*
Y348963D01*
X94204Y349630D01*
X95537D01*
X96203Y348963D01*
Y346964D01*
Y348297D02*
X97536Y349630D01*
Y350963D02*
Y352296D01*
Y351629D01*
X93537D01*
X94204Y350963D01*
X96870Y354295D02*
X97536Y354961D01*
Y356294D01*
X96870Y356961D01*
X94204D01*
X93537Y356294D01*
Y354961D01*
X94204Y354295D01*
X94870D01*
X95537Y354961D01*
Y356961D01*
X25908Y463550D02*
Y469548D01*
X28907D01*
X29907Y468548D01*
Y466549D01*
X28907Y465549D01*
X25908D01*
X27907D02*
X29907Y463550D01*
X35905D02*
X31906D01*
X35905Y467549D01*
Y468548D01*
X34905Y469548D01*
X32906D01*
X31906Y468548D01*
X37904D02*
X38904Y469548D01*
X40903D01*
X41903Y468548D01*
Y464550D01*
X40903Y463550D01*
X38904D01*
X37904Y464550D01*
Y468548D01*
X139794Y483162D02*
X135795D01*
Y485161D01*
X136462Y485828D01*
X137795D01*
X138461Y485161D01*
Y483162D01*
Y484495D02*
X139794Y485828D01*
Y489827D02*
Y487161D01*
X137128Y489827D01*
X136462D01*
X135795Y489160D01*
Y487827D01*
X136462Y487161D01*
X139794Y491159D02*
Y492492D01*
Y491826D01*
X135795D01*
X136462Y491159D01*
X725678Y440690D02*
X721679D01*
Y442689D01*
X722346Y443356D01*
X723679D01*
X724345Y442689D01*
Y440690D01*
Y442023D02*
X725678Y443356D01*
Y447355D02*
Y444689D01*
X723012Y447355D01*
X722346D01*
X721679Y446688D01*
Y445355D01*
X722346Y444689D01*
X725678Y451353D02*
Y448687D01*
X723012Y451353D01*
X722346D01*
X721679Y450687D01*
Y449354D01*
X722346Y448687D01*
X703196Y221266D02*
Y225265D01*
X705195D01*
X705862Y224598D01*
Y223265D01*
X705195Y222599D01*
X703196D01*
X704529D02*
X705862Y221266D01*
X709861D02*
X707195D01*
X709861Y223932D01*
Y224598D01*
X709194Y225265D01*
X707861D01*
X707195Y224598D01*
X713859Y225265D02*
X711193D01*
Y223265D01*
X712526Y223932D01*
X713193D01*
X713859Y223265D01*
Y221932D01*
X713193Y221266D01*
X711860D01*
X711193Y221932D01*
X703450Y246666D02*
Y250665D01*
X705449D01*
X706116Y249998D01*
Y248665D01*
X705449Y247999D01*
X703450D01*
X704783D02*
X706116Y246666D01*
X710115D02*
X707449D01*
X710115Y249332D01*
Y249998D01*
X709448Y250665D01*
X708115D01*
X707449Y249998D01*
X714113Y250665D02*
X712780Y249998D01*
X711447Y248665D01*
Y247332D01*
X712114Y246666D01*
X713447D01*
X714113Y247332D01*
Y247999D01*
X713447Y248665D01*
X711447D01*
X703450Y259366D02*
Y263365D01*
X705449D01*
X706116Y262698D01*
Y261365D01*
X705449Y260699D01*
X703450D01*
X704783D02*
X706116Y259366D01*
X710115D02*
X707449D01*
X710115Y262032D01*
Y262698D01*
X709448Y263365D01*
X708115D01*
X707449Y262698D01*
X711447Y263365D02*
X714113D01*
Y262698D01*
X711447Y260032D01*
Y259366D01*
X585216Y272034D02*
Y276033D01*
X587215D01*
X587882Y275366D01*
Y274033D01*
X587215Y273367D01*
X585216D01*
X586549D02*
X587882Y272034D01*
X591880D02*
X589215D01*
X591880Y274700D01*
Y275366D01*
X591214Y276033D01*
X589881D01*
X589215Y275366D01*
X593213D02*
X593880Y276033D01*
X595213D01*
X595879Y275366D01*
Y274700D01*
X595213Y274033D01*
X595879Y273367D01*
Y272700D01*
X595213Y272034D01*
X593880D01*
X593213Y272700D01*
Y273367D01*
X593880Y274033D01*
X593213Y274700D01*
Y275366D01*
X593880Y274033D02*
X595213D01*
X584962Y259366D02*
Y263365D01*
X586961D01*
X587628Y262698D01*
Y261365D01*
X586961Y260699D01*
X584962D01*
X586295D02*
X587628Y259366D01*
X591627D02*
X588961D01*
X591627Y262032D01*
Y262698D01*
X590960Y263365D01*
X589627D01*
X588961Y262698D01*
X592959Y260032D02*
X593626Y259366D01*
X594959D01*
X595625Y260032D01*
Y262698D01*
X594959Y263365D01*
X593626D01*
X592959Y262698D01*
Y262032D01*
X593626Y261365D01*
X595625D01*
X585978Y246126D02*
Y250125D01*
X587977D01*
X588644Y249458D01*
Y248125D01*
X587977Y247459D01*
X585978D01*
X587311D02*
X588644Y246126D01*
X589977Y249458D02*
X590643Y250125D01*
X591976D01*
X592643Y249458D01*
Y248792D01*
X591976Y248125D01*
X591310D01*
X591976D01*
X592643Y247459D01*
Y246792D01*
X591976Y246126D01*
X590643D01*
X589977Y246792D01*
X593975Y249458D02*
X594642Y250125D01*
X595975D01*
X596641Y249458D01*
Y246792D01*
X595975Y246126D01*
X594642D01*
X593975Y246792D01*
Y249458D01*
X127856Y483162D02*
X123857D01*
Y485161D01*
X124524Y485828D01*
X125857D01*
X126523Y485161D01*
Y483162D01*
Y484495D02*
X127856Y485828D01*
X124524Y487161D02*
X123857Y487827D01*
Y489160D01*
X124524Y489827D01*
X125190D01*
X125857Y489160D01*
Y488494D01*
Y489160D01*
X126523Y489827D01*
X127190D01*
X127856Y489160D01*
Y487827D01*
X127190Y487161D01*
X127856Y491159D02*
Y492492D01*
Y491826D01*
X123857D01*
X124524Y491159D01*
X585598Y233712D02*
Y237711D01*
X587597D01*
X588264Y237044D01*
Y235711D01*
X587597Y235045D01*
X585598D01*
X586931D02*
X588264Y233712D01*
X589597Y237044D02*
X590263Y237711D01*
X591596D01*
X592262Y237044D01*
Y236378D01*
X591596Y235711D01*
X590930D01*
X591596D01*
X592262Y235045D01*
Y234378D01*
X591596Y233712D01*
X590263D01*
X589597Y234378D01*
X596261Y233712D02*
X593595D01*
X596261Y236378D01*
Y237044D01*
X595595Y237711D01*
X594262D01*
X593595Y237044D01*
X704088Y207772D02*
Y211771D01*
X706087D01*
X706754Y211104D01*
Y209771D01*
X706087Y209105D01*
X704088D01*
X705421D02*
X706754Y207772D01*
X708087Y211104D02*
X708753Y211771D01*
X710086D01*
X710752Y211104D01*
Y210438D01*
X710086Y209771D01*
X709420D01*
X710086D01*
X710752Y209105D01*
Y208438D01*
X710086Y207772D01*
X708753D01*
X708087Y208438D01*
X712085Y211104D02*
X712752Y211771D01*
X714085D01*
X714751Y211104D01*
Y210438D01*
X714085Y209771D01*
X713418D01*
X714085D01*
X714751Y209105D01*
Y208438D01*
X714085Y207772D01*
X712752D01*
X712085Y208438D01*
X703834Y234188D02*
Y238187D01*
X705833D01*
X706500Y237520D01*
Y236187D01*
X705833Y235521D01*
X703834D01*
X705167D02*
X706500Y234188D01*
X707833Y237520D02*
X708499Y238187D01*
X709832D01*
X710499Y237520D01*
Y236854D01*
X709832Y236187D01*
X709166D01*
X709832D01*
X710499Y235521D01*
Y234854D01*
X709832Y234188D01*
X708499D01*
X707833Y234854D01*
X713831Y234188D02*
Y238187D01*
X711831Y236187D01*
X714497D01*
X703834Y272034D02*
Y276033D01*
X705833D01*
X706500Y275366D01*
Y274033D01*
X705833Y273367D01*
X703834D01*
X705167D02*
X706500Y272034D01*
X707833Y275366D02*
X708499Y276033D01*
X709832D01*
X710499Y275366D01*
Y274700D01*
X709832Y274033D01*
X709166D01*
X709832D01*
X710499Y273367D01*
Y272700D01*
X709832Y272034D01*
X708499D01*
X707833Y272700D01*
X714497Y276033D02*
X711831D01*
Y274033D01*
X713164Y274700D01*
X713831D01*
X714497Y274033D01*
Y272700D01*
X713831Y272034D01*
X712498D01*
X711831Y272700D01*
X233887Y470786D02*
Y474785D01*
X235886D01*
X236553Y474118D01*
Y472785D01*
X235886Y472119D01*
X233887D01*
X235220D02*
X236553Y470786D01*
X237885Y474118D02*
X238552Y474785D01*
X239885D01*
X240551Y474118D01*
Y473452D01*
X239885Y472785D01*
X239218D01*
X239885D01*
X240551Y472119D01*
Y471452D01*
X239885Y470786D01*
X238552D01*
X237885Y471452D01*
X241884Y474118D02*
X242551Y474785D01*
X243883D01*
X244550Y474118D01*
Y473452D01*
X243883Y472785D01*
X244550Y472119D01*
Y471452D01*
X243883Y470786D01*
X242551D01*
X241884Y471452D01*
Y472119D01*
X242551Y472785D01*
X241884Y473452D01*
Y474118D01*
X242551Y472785D02*
X243883D01*
X1004698Y154682D02*
Y158681D01*
X1006697D01*
X1007364Y158014D01*
Y156681D01*
X1006697Y156015D01*
X1004698D01*
X1006031D02*
X1007364Y154682D01*
X1008697Y158014D02*
X1009363Y158681D01*
X1010696D01*
X1011363Y158014D01*
Y157348D01*
X1010696Y156681D01*
X1010030D01*
X1010696D01*
X1011363Y156015D01*
Y155348D01*
X1010696Y154682D01*
X1009363D01*
X1008697Y155348D01*
X1012695D02*
X1013362Y154682D01*
X1014695D01*
X1015361Y155348D01*
Y158014D01*
X1014695Y158681D01*
X1013362D01*
X1012695Y158014D01*
Y157348D01*
X1013362Y156681D01*
X1015361D01*
X1036462Y122048D02*
X1032463D01*
Y124047D01*
X1033130Y124714D01*
X1034463D01*
X1035129Y124047D01*
Y122048D01*
Y123381D02*
X1036462Y124714D01*
Y128046D02*
X1032463D01*
X1034463Y126047D01*
Y128713D01*
X1036462Y130045D02*
Y131378D01*
Y130712D01*
X1032463D01*
X1033130Y130045D01*
X1023366Y122556D02*
X1019367D01*
Y124555D01*
X1020034Y125222D01*
X1021367D01*
X1022033Y124555D01*
Y122556D01*
Y123889D02*
X1023366Y125222D01*
Y128554D02*
X1019367D01*
X1021367Y126555D01*
Y129221D01*
X1023366Y133219D02*
Y130553D01*
X1020700Y133219D01*
X1020034D01*
X1019367Y132553D01*
Y131220D01*
X1020034Y130553D01*
X794670Y137543D02*
Y141542D01*
X796669D01*
X797336Y140876D01*
Y139543D01*
X796669Y138876D01*
X794670D01*
X796003D02*
X797336Y137543D01*
X800668D02*
Y141542D01*
X798669Y139543D01*
X801335D01*
X804667Y137543D02*
Y141542D01*
X802667Y139543D01*
X805333D01*
X233887Y496312D02*
Y500311D01*
X235886D01*
X236553Y499644D01*
Y498311D01*
X235886Y497645D01*
X233887D01*
X235220D02*
X236553Y496312D01*
X239885D02*
Y500311D01*
X237885Y498311D01*
X240551D01*
X241884Y499644D02*
X242551Y500311D01*
X243883D01*
X244550Y499644D01*
Y498978D01*
X243883Y498311D01*
X244550Y497645D01*
Y496978D01*
X243883Y496312D01*
X242551D01*
X241884Y496978D01*
Y497645D01*
X242551Y498311D01*
X241884Y498978D01*
Y499644D01*
X242551Y498311D02*
X243883D01*
X209900Y475326D02*
X205901D01*
Y477325D01*
X206568Y477992D01*
X207901D01*
X208567Y477325D01*
Y475326D01*
Y476659D02*
X209900Y477992D01*
Y481324D02*
X205901D01*
X207901Y479325D01*
Y481991D01*
X209234Y483323D02*
X209900Y483990D01*
Y485323D01*
X209234Y485989D01*
X206568D01*
X205901Y485323D01*
Y483990D01*
X206568Y483323D01*
X207234D01*
X207901Y483990D01*
Y485989D01*
X234188Y457962D02*
Y461961D01*
X236187D01*
X236854Y461294D01*
Y459961D01*
X236187Y459295D01*
X234188D01*
X235521D02*
X236854Y457962D01*
X240853Y461961D02*
X238187D01*
Y459961D01*
X239520Y460628D01*
X240186D01*
X240853Y459961D01*
Y458628D01*
X240186Y457962D01*
X238853D01*
X238187Y458628D01*
X242185Y461294D02*
X242852Y461961D01*
X244185D01*
X244851Y461294D01*
Y458628D01*
X244185Y457962D01*
X242852D01*
X242185Y458628D01*
Y461294D01*
X234696Y483108D02*
Y487107D01*
X236695D01*
X237362Y486440D01*
Y485107D01*
X236695Y484441D01*
X234696D01*
X236029D02*
X237362Y483108D01*
X241360Y487107D02*
X238695D01*
Y485107D01*
X240028Y485774D01*
X240694D01*
X241360Y485107D01*
Y483774D01*
X240694Y483108D01*
X239361D01*
X238695Y483774D01*
X242693Y483108D02*
X244026D01*
X243360D01*
Y487107D01*
X242693Y486440D01*
X197866Y474980D02*
X193867D01*
Y476979D01*
X194534Y477646D01*
X195867D01*
X196533Y476979D01*
Y474980D01*
Y476313D02*
X197866Y477646D01*
X193867Y481645D02*
Y478979D01*
X195867D01*
X195200Y480312D01*
Y480978D01*
X195867Y481645D01*
X197200D01*
X197866Y480978D01*
Y479645D01*
X197200Y478979D01*
X197866Y485643D02*
Y482977D01*
X195200Y485643D01*
X194534D01*
X193867Y484977D01*
Y483644D01*
X194534Y482977D01*
X60706Y219202D02*
X56707D01*
Y221201D01*
X57374Y221868D01*
X58707D01*
X59373Y221201D01*
Y219202D01*
Y220535D02*
X60706Y221868D01*
X56707Y225867D02*
Y223201D01*
X58707D01*
X58040Y224534D01*
Y225200D01*
X58707Y225867D01*
X60040D01*
X60706Y225200D01*
Y223867D01*
X60040Y223201D01*
X57374Y227199D02*
X56707Y227866D01*
Y229199D01*
X57374Y229865D01*
X58040D01*
X58707Y229199D01*
Y228532D01*
Y229199D01*
X59373Y229865D01*
X60040D01*
X60706Y229199D01*
Y227866D01*
X60040Y227199D01*
X73754Y219002D02*
X69755D01*
Y221001D01*
X70422Y221668D01*
X71755D01*
X72421Y221001D01*
Y219002D01*
Y220335D02*
X73754Y221668D01*
X69755Y225667D02*
Y223001D01*
X71755D01*
X71088Y224334D01*
Y225000D01*
X71755Y225667D01*
X73088D01*
X73754Y225000D01*
Y223667D01*
X73088Y223001D01*
X73754Y228999D02*
X69755D01*
X71755Y226999D01*
Y229665D01*
X791618Y486410D02*
Y492408D01*
X794617D01*
X795617Y491408D01*
Y489409D01*
X794617Y488409D01*
X791618D01*
X793617D02*
X795617Y486410D01*
X801615Y492408D02*
X797616D01*
Y489409D01*
X799615Y490409D01*
X800615D01*
X801615Y489409D01*
Y487410D01*
X800615Y486410D01*
X798616D01*
X797616Y487410D01*
X807613Y492408D02*
X803614D01*
Y489409D01*
X805613Y490409D01*
X806613D01*
X807613Y489409D01*
Y487410D01*
X806613Y486410D01*
X804614D01*
X803614Y487410D01*
X683514Y160528D02*
X677516D01*
Y163527D01*
X678516Y164527D01*
X680515D01*
X681515Y163527D01*
Y160528D01*
Y162527D02*
X683514Y164527D01*
X677516Y170525D02*
Y166526D01*
X680515D01*
X679515Y168525D01*
Y169525D01*
X680515Y170525D01*
X682514D01*
X683514Y169525D01*
Y167526D01*
X682514Y166526D01*
X677516Y176523D02*
X678516Y174524D01*
X680515Y172524D01*
X682514D01*
X683514Y173524D01*
Y175523D01*
X682514Y176523D01*
X681515D01*
X680515Y175523D01*
Y172524D01*
X847404Y384251D02*
X845738Y385917D01*
X842406D01*
X840740Y384251D01*
Y382584D01*
X842406Y380918D01*
X845738D01*
X847404Y379252D01*
Y377586D01*
X845738Y375920D01*
X842406D01*
X840740Y377586D01*
X857401Y375920D02*
X850737D01*
X857401Y382584D01*
Y384251D01*
X855735Y385917D01*
X852403D01*
X850737Y384251D01*
X30287Y430730D02*
X28620Y432396D01*
X25288D01*
X23622Y430730D01*
Y429064D01*
X25288Y427398D01*
X28620D01*
X30287Y425732D01*
Y424065D01*
X28620Y422399D01*
X25288D01*
X23622Y424065D01*
X33619Y430730D02*
X35285Y432396D01*
X38617D01*
X40283Y430730D01*
Y429064D01*
X38617Y427398D01*
X36951D01*
X38617D01*
X40283Y425732D01*
Y424065D01*
X38617Y422399D01*
X35285D01*
X33619Y424065D01*
X251521Y106375D02*
X249854Y108041D01*
X246522D01*
X244856Y106375D01*
Y104708D01*
X246522Y103042D01*
X249854D01*
X251521Y101376D01*
Y99710D01*
X249854Y98044D01*
X246522D01*
X244856Y99710D01*
X259851Y98044D02*
Y108041D01*
X254853Y103042D01*
X261517D01*
X202126Y447163D02*
Y440499D01*
X203459Y439166D01*
X206125D01*
X207458Y440499D01*
Y447163D01*
X215455Y439166D02*
X210123D01*
X215455Y444498D01*
Y445830D01*
X214122Y447163D01*
X211456D01*
X210123Y445830D01*
X223452Y447163D02*
X220787Y445830D01*
X218121Y443165D01*
Y440499D01*
X219454Y439166D01*
X222120D01*
X223452Y440499D01*
Y441832D01*
X222120Y443165D01*
X218121D01*
X567345Y149860D02*
X575676D01*
X577342Y151526D01*
Y154858D01*
X575676Y156524D01*
X567345D01*
X577342Y166521D02*
Y159857D01*
X570677Y166521D01*
X569011D01*
X567345Y164855D01*
Y161523D01*
X569011Y159857D01*
X538418Y109474D02*
X537751Y108807D01*
Y107474D01*
X538418Y106808D01*
X541084D01*
X541750Y107474D01*
Y108807D01*
X541084Y109474D01*
X541750Y113472D02*
Y110807D01*
X539084Y113472D01*
X538418D01*
X537751Y112806D01*
Y111473D01*
X538418Y110807D01*
Y114805D02*
X537751Y115472D01*
Y116805D01*
X538418Y117471D01*
X541084D01*
X541750Y116805D01*
Y115472D01*
X541084Y114805D01*
X538418D01*
X601156Y155114D02*
X600489Y154447D01*
Y153115D01*
X601156Y152448D01*
X603822D01*
X604488Y153115D01*
Y154447D01*
X603822Y155114D01*
X604488Y159113D02*
Y156447D01*
X601822Y159113D01*
X601156D01*
X600489Y158446D01*
Y157113D01*
X601156Y156447D01*
X604488Y160445D02*
Y161778D01*
Y161112D01*
X600489D01*
X601156Y160445D01*
X1000506Y889762D02*
Y899759D01*
X1005504D01*
X1007170Y898093D01*
Y894760D01*
X1005504Y893094D01*
X1000506D01*
X1003838D02*
X1007170Y889762D01*
X1015501D02*
Y899759D01*
X1010503Y894760D01*
X1017167D01*
X1000482Y718642D02*
Y728639D01*
X1005480D01*
X1007147Y726973D01*
Y723640D01*
X1005480Y721974D01*
X1000482D01*
X1003814D02*
X1007147Y718642D01*
X1017143Y728639D02*
X1010479D01*
Y723640D01*
X1013811Y725306D01*
X1015477D01*
X1017143Y723640D01*
Y720308D01*
X1015477Y718642D01*
X1012145D01*
X1010479Y720308D01*
X995680Y973836D02*
Y983833D01*
X1000678D01*
X1002345Y982167D01*
Y978834D01*
X1000678Y977168D01*
X995680D01*
X999012D02*
X1002345Y973836D01*
X1012341Y983833D02*
X1005677D01*
Y978834D01*
X1009009Y980500D01*
X1010675D01*
X1012341Y978834D01*
Y975502D01*
X1010675Y973836D01*
X1007343D01*
X1005677Y975502D01*
X1015674Y983833D02*
X1022338D01*
Y982167D01*
X1015674Y975502D01*
Y973836D01*
X994664Y803148D02*
Y813145D01*
X999662D01*
X1001329Y811479D01*
Y808146D01*
X999662Y806480D01*
X994664D01*
X997996D02*
X1001329Y803148D01*
X1011325Y813145D02*
X1004661D01*
Y808146D01*
X1007993Y809812D01*
X1009659D01*
X1011325Y808146D01*
Y804814D01*
X1009659Y803148D01*
X1006327D01*
X1004661Y804814D01*
X1014658Y811479D02*
X1016324Y813145D01*
X1019656D01*
X1021322Y811479D01*
Y809812D01*
X1019656Y808146D01*
X1021322Y806480D01*
Y804814D01*
X1019656Y803148D01*
X1016324D01*
X1014658Y804814D01*
Y806480D01*
X1016324Y808146D01*
X1014658Y809812D01*
Y811479D01*
X1016324Y808146D02*
X1019656D01*
X995172Y688848D02*
Y698845D01*
X1000170D01*
X1001836Y697179D01*
Y693846D01*
X1000170Y692180D01*
X995172D01*
X998504D02*
X1001836Y688848D01*
X1011833Y698845D02*
X1005169D01*
Y693846D01*
X1008501Y695512D01*
X1010167D01*
X1011833Y693846D01*
Y690514D01*
X1010167Y688848D01*
X1006835D01*
X1005169Y690514D01*
X1015166D02*
X1016832Y688848D01*
X1020164D01*
X1021830Y690514D01*
Y697179D01*
X1020164Y698845D01*
X1016832D01*
X1015166Y697179D01*
Y695512D01*
X1016832Y693846D01*
X1021830D01*
X666718Y374996D02*
X662719D01*
Y376995D01*
X663386Y377662D01*
X664719D01*
X665385Y376995D01*
Y374996D01*
Y376329D02*
X666718Y377662D01*
X662719Y381660D02*
X663386Y380328D01*
X664719Y378995D01*
X666052D01*
X666718Y379661D01*
Y380994D01*
X666052Y381660D01*
X665385D01*
X664719Y380994D01*
Y378995D01*
X663386Y382993D02*
X662719Y383660D01*
Y384993D01*
X663386Y385659D01*
X666052D01*
X666718Y384993D01*
Y383660D01*
X666052Y382993D01*
X663386D01*
X525780Y356108D02*
Y360107D01*
X527779D01*
X528446Y359440D01*
Y358107D01*
X527779Y357441D01*
X525780D01*
X527113D02*
X528446Y356108D01*
X532444Y360107D02*
X531112Y359440D01*
X529779Y358107D01*
Y356774D01*
X530445Y356108D01*
X531778D01*
X532444Y356774D01*
Y357441D01*
X531778Y358107D01*
X529779D01*
X533777Y356108D02*
X535110D01*
X534444D01*
Y360107D01*
X533777Y359440D01*
X954467Y97200D02*
X953467Y98200D01*
X951468D01*
X950468Y97200D01*
Y93202D01*
X951468Y92202D01*
X953467D01*
X954467Y93202D01*
X956466Y97200D02*
X957466Y98200D01*
X959465D01*
X960465Y97200D01*
Y96201D01*
X959465Y95201D01*
X958465D01*
X959465D01*
X960465Y94201D01*
Y93202D01*
X959465Y92202D01*
X957466D01*
X956466Y93202D01*
X966463Y98200D02*
X964464Y97200D01*
X962464Y95201D01*
Y93202D01*
X963464Y92202D01*
X965463D01*
X966463Y93202D01*
Y94201D01*
X965463Y95201D01*
X962464D01*
X135799Y598678D02*
X145796D01*
Y605342D01*
Y615339D02*
Y608675D01*
X139131Y615339D01*
X137465D01*
X135799Y613673D01*
Y610341D01*
X137465Y608675D01*
X145796Y618672D02*
X144130D01*
Y620338D01*
X145796D01*
Y618672D01*
Y627002D02*
Y630335D01*
Y628668D01*
X135799D01*
X137465Y627002D01*
X779783Y597662D02*
X788670D01*
Y603587D01*
Y612474D02*
Y606549D01*
X782745Y612474D01*
X781264D01*
X779783Y610993D01*
Y608030D01*
X781264Y606549D01*
X788670Y615436D02*
X787189D01*
Y616917D01*
X788670D01*
Y615436D01*
Y628767D02*
Y622842D01*
X782745Y628767D01*
X781264D01*
X779783Y627286D01*
Y624323D01*
X781264Y622842D01*
X758633Y102026D02*
X757633Y103026D01*
X755634D01*
X754634Y102026D01*
Y98028D01*
X755634Y97028D01*
X757633D01*
X758633Y98028D01*
X763631Y97028D02*
Y103026D01*
X760632Y100027D01*
X764631D01*
X766630Y97028D02*
X768630D01*
X767630D01*
Y103026D01*
X766630Y102026D01*
X942147Y125425D02*
X940480Y127091D01*
X937148D01*
X935482Y125425D01*
Y118760D01*
X937148Y117094D01*
X940480D01*
X942147Y118760D01*
X945479Y125425D02*
X947145Y127091D01*
X950477D01*
X952143Y125425D01*
Y123758D01*
X950477Y122092D01*
X948811D01*
X950477D01*
X952143Y120426D01*
Y118760D01*
X950477Y117094D01*
X947145D01*
X945479Y118760D01*
X955476Y125425D02*
X957142Y127091D01*
X960474D01*
X962140Y125425D01*
Y118760D01*
X960474Y117094D01*
X957142D01*
X955476Y118760D01*
Y125425D01*
X982614Y122556D02*
X978615D01*
Y124555D01*
X979282Y125222D01*
X980615D01*
X981281Y124555D01*
Y122556D01*
Y123889D02*
X982614Y125222D01*
Y128554D02*
X978615D01*
X980615Y126555D01*
Y129221D01*
X979282Y130553D02*
X978615Y131220D01*
Y132553D01*
X979282Y133219D01*
X979948D01*
X980615Y132553D01*
Y131886D01*
Y132553D01*
X981281Y133219D01*
X981948D01*
X982614Y132553D01*
Y131220D01*
X981948Y130553D01*
X759206Y435102D02*
X755207D01*
Y437101D01*
X755874Y437768D01*
X757207D01*
X757873Y437101D01*
Y435102D01*
Y436435D02*
X759206Y437768D01*
X755207Y441767D02*
X755874Y440434D01*
X757207Y439101D01*
X758540D01*
X759206Y439767D01*
Y441100D01*
X758540Y441767D01*
X757873D01*
X757207Y441100D01*
Y439101D01*
X755874Y443099D02*
X755207Y443766D01*
Y445099D01*
X755874Y445765D01*
X756540D01*
X757207Y445099D01*
Y444432D01*
Y445099D01*
X757873Y445765D01*
X758540D01*
X759206Y445099D01*
Y443766D01*
X758540Y443099D01*
X666718Y352172D02*
X662719D01*
Y354171D01*
X663386Y354838D01*
X664719D01*
X665385Y354171D01*
Y352172D01*
Y353505D02*
X666718Y354838D01*
X662719Y358837D02*
X663386Y357504D01*
X664719Y356171D01*
X666052D01*
X666718Y356837D01*
Y358170D01*
X666052Y358837D01*
X665385D01*
X664719Y358170D01*
Y356171D01*
X666718Y362835D02*
Y360169D01*
X664052Y362835D01*
X663386D01*
X662719Y362169D01*
Y360836D01*
X663386Y360169D01*
X713232Y439928D02*
X709233D01*
Y441927D01*
X709900Y442594D01*
X711233D01*
X711899Y441927D01*
Y439928D01*
Y441261D02*
X713232Y442594D01*
X709233Y446592D02*
X709900Y445260D01*
X711233Y443927D01*
X712566D01*
X713232Y444593D01*
Y445926D01*
X712566Y446592D01*
X711899D01*
X711233Y445926D01*
Y443927D01*
X713232Y449925D02*
X709233D01*
X711233Y447925D01*
Y450591D01*
X675604Y300102D02*
X671605D01*
Y302101D01*
X672272Y302768D01*
X673605D01*
X674271Y302101D01*
Y300102D01*
Y301435D02*
X675604Y302768D01*
Y306766D02*
Y304101D01*
X672938Y306766D01*
X672272D01*
X671605Y306100D01*
Y304767D01*
X672272Y304101D01*
Y308099D02*
X671605Y308766D01*
Y310099D01*
X672272Y310765D01*
X672938D01*
X673605Y310099D01*
Y309432D01*
Y310099D01*
X674271Y310765D01*
X674938D01*
X675604Y310099D01*
Y308766D01*
X674938Y308099D01*
X688876Y300166D02*
X684877D01*
Y302165D01*
X685544Y302832D01*
X686877D01*
X687543Y302165D01*
Y300166D01*
Y301499D02*
X688876Y302832D01*
Y306831D02*
Y304165D01*
X686210Y306831D01*
X685544D01*
X684877Y306164D01*
Y304831D01*
X685544Y304165D01*
X688876Y310163D02*
X684877D01*
X686877Y308163D01*
Y310829D01*
D28*
X682661Y763208D02*
X681328D01*
X681994D01*
Y759875D01*
X681328Y759209D01*
X680662D01*
X679995Y759875D01*
X685993Y759209D02*
X684660D01*
X683994Y759875D01*
Y761208D01*
X684660Y761875D01*
X685993D01*
X686660Y761208D01*
Y760542D01*
X683994D01*
X687993Y759209D02*
Y761875D01*
X689992D01*
X690658Y761208D01*
Y759209D01*
X691991D02*
Y761875D01*
X693991D01*
X694657Y761208D01*
Y759209D01*
X695990D02*
X697323D01*
X696656D01*
Y761875D01*
X695990D01*
X701988D02*
X699989D01*
X699322Y761208D01*
Y759875D01*
X699989Y759209D01*
X701988D01*
X707320Y757876D02*
Y761875D01*
X709319D01*
X709985Y761208D01*
Y759875D01*
X709319Y759209D01*
X707320D01*
X711318D02*
X712651D01*
X711985D01*
Y761875D01*
X711318D01*
X714651Y759209D02*
Y761875D01*
X716650D01*
X717316Y761208D01*
Y759209D01*
X719316D02*
X720649D01*
X721315Y759875D01*
Y761208D01*
X720649Y761875D01*
X719316D01*
X718649Y761208D01*
Y759875D01*
X719316Y759209D01*
X722648Y761875D02*
Y759875D01*
X723314Y759209D01*
X725314D01*
Y761875D01*
X727313Y762541D02*
Y761875D01*
X726647D01*
X727980D01*
X727313D01*
Y759875D01*
X727980Y759209D01*
X729979D02*
Y759875D01*
X730645D01*
Y759209D01*
X729979D01*
X735977D02*
X733311D01*
X735977Y761875D01*
Y762541D01*
X735311Y763208D01*
X733978D01*
X733311Y762541D01*
X137780Y959202D02*
X136447D01*
X137113D01*
Y955870D01*
X136447Y955203D01*
X135780D01*
X135114Y955870D01*
X141112Y955203D02*
X139779D01*
X139113Y955870D01*
Y957202D01*
X139779Y957869D01*
X141112D01*
X141778Y957202D01*
Y956536D01*
X139113D01*
X143111Y955203D02*
Y957869D01*
X145111D01*
X145777Y957202D01*
Y955203D01*
X147110D02*
Y957869D01*
X149109D01*
X149776Y957202D01*
Y955203D01*
X151109D02*
X152442D01*
X151775D01*
Y957869D01*
X151109D01*
X157107D02*
X155107D01*
X154441Y957202D01*
Y955870D01*
X155107Y955203D01*
X157107D01*
X162438Y953870D02*
Y957869D01*
X164438D01*
X165104Y957202D01*
Y955870D01*
X164438Y955203D01*
X162438D01*
X166437D02*
X167770D01*
X167104D01*
Y957869D01*
X166437D01*
X169769Y955203D02*
Y957869D01*
X171769D01*
X172435Y957202D01*
Y955203D01*
X174435D02*
X175767D01*
X176434Y955870D01*
Y957202D01*
X175767Y957869D01*
X174435D01*
X173768Y957202D01*
Y955870D01*
X174435Y955203D01*
X177767Y957869D02*
Y955870D01*
X178433Y955203D01*
X180433D01*
Y957869D01*
X182432Y958535D02*
Y957869D01*
X181765D01*
X183098D01*
X182432D01*
Y955870D01*
X183098Y955203D01*
X185098D02*
Y955870D01*
X185764D01*
Y955203D01*
X185098D01*
X188430D02*
X189763D01*
X189096D01*
Y959202D01*
X188430Y958535D01*
D29*
X605526Y793667D02*
D03*
D30*
X58741Y568198D02*
D03*
D31*
X846836Y465582D02*
D03*
D200*
X787426Y773932D02*
X792426D01*
Y763932D02*
Y773932D01*
X787426Y763932D02*
X792426D01*
X787426D02*
Y773932D01*
X776941Y776642D02*
X781941D01*
Y766642D02*
Y776642D01*
X776941Y766642D02*
X781941D01*
X776941D02*
Y776642D01*
X749792Y673362D02*
Y678362D01*
X739792Y673362D02*
X749792D01*
X739792D02*
Y678362D01*
X749792D01*
X771854Y673693D02*
X791854D01*
Y686193D01*
X771854D02*
X791854D01*
X771854Y673693D02*
Y686193D01*
X767396Y763866D02*
X772396D01*
X767396D02*
Y773866D01*
X772396D01*
Y763866D02*
Y773866D01*
X707575Y675399D02*
Y680399D01*
X697575Y675399D02*
X707575D01*
X697575D02*
Y680399D01*
X707575D01*
X675304Y724349D02*
X680304D01*
X675304D02*
Y734349D01*
X680304D01*
Y724349D02*
Y734349D01*
X794818Y700151D02*
Y705151D01*
X784818Y700151D02*
X794818D01*
X784818D02*
Y705151D01*
X794818D01*
X786664Y751278D02*
Y756278D01*
X796664D01*
Y751278D02*
Y756278D01*
X786664Y751278D02*
X796664D01*
X752347Y785974D02*
X757347D01*
Y775974D02*
Y785974D01*
X752347Y775974D02*
X757347D01*
X752347D02*
Y785974D01*
X744229Y794293D02*
Y799293D01*
X754229D01*
Y794293D02*
Y799293D01*
X744229Y794293D02*
X754229D01*
X723774Y769187D02*
Y774187D01*
X733774D01*
Y769187D02*
Y774187D01*
X723774Y769187D02*
X733774D01*
X713166Y789791D02*
Y794791D01*
X723166D01*
Y789791D02*
Y794791D01*
X713166Y789791D02*
X723166D01*
X685606Y857545D02*
Y862545D01*
X675606Y857545D02*
X685606D01*
X675606D02*
Y862545D01*
X685606D01*
X684773Y844392D02*
Y849392D01*
X674773Y844392D02*
X684773D01*
X674773D02*
Y849392D01*
X684773D01*
X685270Y868353D02*
Y873353D01*
X675270Y868353D02*
X685270D01*
X675270D02*
Y873353D01*
X685270D01*
X722436Y811402D02*
X727436D01*
X722436D02*
Y821402D01*
X727436D01*
Y811402D02*
Y821402D01*
X742673Y867941D02*
Y872941D01*
X732673Y867941D02*
X742673D01*
X732673D02*
Y872941D01*
X742673D01*
X742630Y878498D02*
Y883498D01*
X732630Y878498D02*
X742630D01*
X732630D02*
Y883498D01*
X742630D01*
X740831Y785345D02*
X745831D01*
Y775345D02*
Y785345D01*
X740831Y775345D02*
X745831D01*
X740831D02*
Y785345D01*
X723166Y779860D02*
Y784860D01*
X713166Y779860D02*
X723166D01*
X713166D02*
Y784860D01*
X723166D01*
X734473Y820522D02*
Y825522D01*
X744473D01*
Y820522D02*
Y825522D01*
X734473Y820522D02*
X744473D01*
X719337Y881389D02*
X724337D01*
Y871389D02*
Y881389D01*
X719337Y871389D02*
X724337D01*
X719337D02*
Y881389D01*
X779325Y787119D02*
Y792119D01*
X769325Y787119D02*
X779325D01*
X769325D02*
Y792119D01*
X779325D01*
X777016Y879490D02*
Y884490D01*
X767016Y879490D02*
X777016D01*
X767016D02*
Y884490D01*
X777016D01*
X692955Y820765D02*
Y825765D01*
X702955D01*
Y820765D02*
Y825765D01*
X692955Y820765D02*
X702955D01*
X702003Y811885D02*
Y816885D01*
X712003D01*
Y811885D02*
Y816885D01*
X702003Y811885D02*
X712003D01*
X695396Y695349D02*
X755396D01*
Y755349D01*
X695396D02*
X755396D01*
X695396Y695349D02*
Y755349D01*
X762017Y853010D02*
Y867010D01*
X783517D01*
Y853010D02*
Y867010D01*
X762017Y853010D02*
X783517D01*
X761851Y818782D02*
Y832782D01*
X783351D01*
Y818782D02*
Y832782D01*
X761851Y818782D02*
X783351D01*
X697977Y831732D02*
Y861732D01*
Y831732D02*
X737977D01*
Y861732D01*
X697977D02*
X737977D01*
X798871Y711835D02*
Y743833D01*
X773873D02*
X798871D01*
X773873Y711835D02*
Y743833D01*
Y711835D02*
X798871D01*
X96670Y893002D02*
X101670D01*
Y883002D02*
Y893002D01*
X96670Y883002D02*
X101670D01*
X96670D02*
Y893002D01*
X120006Y879554D02*
X120006Y884554D01*
X110006Y879554D02*
X120006Y879554D01*
X110006Y879554D02*
Y884554D01*
X120006D01*
X119963Y890111D02*
Y895111D01*
X109963Y890111D02*
X119963D01*
X109963D02*
Y895111D01*
X119963D01*
X154349Y891103D02*
Y896103D01*
X144349Y891103D02*
X154349D01*
X144349D02*
Y896103D01*
X154349D01*
X75310Y843345D02*
Y873345D01*
Y843345D02*
X115310Y843345D01*
Y873345D01*
X75310Y873345D02*
X115310Y873345D01*
X62603Y879966D02*
Y884966D01*
X52603Y879966D02*
X62603Y879966D01*
X52603Y879966D02*
Y884966D01*
X62603D01*
X62939Y869158D02*
Y874158D01*
X52939Y869158D02*
X62939Y869158D01*
X52939Y869158D02*
Y874158D01*
X62939D01*
X62106Y856005D02*
Y861005D01*
X52106Y856005D02*
X62106D01*
X52106D02*
Y861005D01*
X62106D01*
X70288Y832378D02*
Y837378D01*
X80288D01*
Y832378D02*
Y837378D01*
X70288Y832378D02*
X80288D01*
X111806Y832135D02*
Y837135D01*
X121806D01*
Y832135D02*
Y837135D01*
X111806Y832135D02*
X121806D01*
X99769Y823015D02*
X104769D01*
X99769D02*
Y833015D01*
X104769D01*
Y823015D02*
Y833015D01*
X79336Y823498D02*
Y828498D01*
X89336D01*
Y823498D02*
Y828498D01*
X79336Y823498D02*
X89336D01*
X121562Y805906D02*
X121562Y810906D01*
X131562Y810906D01*
Y805906D02*
Y810906D01*
X121562Y805906D02*
X131562D01*
X90499Y801404D02*
Y806404D01*
X100499D01*
Y801404D02*
Y806404D01*
X90499Y801404D02*
X100499D01*
X100499Y791473D02*
Y796473D01*
X90499Y791473D02*
X100499D01*
X90499D02*
Y796473D01*
X100499D01*
X101107Y780800D02*
Y785800D01*
X111107Y785800D01*
Y780800D02*
Y785800D01*
X101107Y780800D02*
X111107D01*
X118164Y796958D02*
X123164D01*
Y786958D02*
Y796958D01*
X118164Y786958D02*
X123164D01*
X118164D02*
Y796958D01*
X129680Y797587D02*
X134680D01*
Y787587D02*
Y797587D01*
X129680Y787587D02*
X134680D01*
X129680D02*
Y797587D01*
X156658Y798732D02*
Y803732D01*
X146658Y798732D02*
X156658D01*
X146658D02*
Y803732D01*
X156658D01*
X144729Y775479D02*
X149729Y775479D01*
X144729Y785479D02*
X144729Y775479D01*
X144729Y785479D02*
X149729D01*
Y775479D02*
Y785479D01*
X154274Y788255D02*
X159274D01*
X159274Y778255D02*
X159274Y788255D01*
X154274Y778255D02*
X159274D01*
X154274D02*
X154274Y788255D01*
X164759Y785545D02*
X169759D01*
Y775545D02*
Y785545D01*
X164759Y775545D02*
X169759D01*
X164759D02*
Y785545D01*
X163997Y762891D02*
Y767891D01*
X173997D01*
Y762891D02*
Y767891D01*
X163997Y762891D02*
X173997D01*
X176204Y723448D02*
Y755446D01*
X151206D02*
X176204D01*
X151206D02*
X151206Y723448D01*
X176204Y723448D01*
X172151Y711764D02*
Y716764D01*
X162151Y711764D02*
X172151Y711764D01*
X162151Y711764D02*
Y716764D01*
X172151D01*
X149187Y685306D02*
X169187D01*
X169187Y697806D01*
X149187Y697806D02*
X169187Y697806D01*
X149187Y685306D02*
Y697806D01*
X52637Y735962D02*
X57637D01*
X52637D02*
Y745962D01*
X57637D01*
Y735962D02*
Y745962D01*
X72729Y706962D02*
X132729Y706962D01*
Y766962D01*
X72729D02*
X132729D01*
X72729Y706962D02*
Y766962D01*
X127125Y684975D02*
Y689975D01*
X117125Y684975D02*
X127125D01*
X117125D02*
Y689975D01*
X127125D01*
X84908Y687012D02*
Y692012D01*
X74908Y687012D02*
X84908D01*
X74908D02*
Y692012D01*
X84908D01*
X139184Y830395D02*
Y844395D01*
X160684Y844395D01*
Y830395D02*
Y844395D01*
X139184Y830395D02*
X160684Y830395D01*
X139350Y864623D02*
X139350Y878623D01*
X160850D01*
X160850Y864623D02*
X160850Y878623D01*
X139350Y864623D02*
X160850D01*
D201*
X788952Y768539D02*
X788589Y768357D01*
X788226Y767995D01*
X788045Y767632D01*
Y766906D01*
X788226Y766544D01*
X788589Y766181D01*
X788952Y765999D01*
X789496Y765818D01*
X790403D01*
X790947Y765999D01*
X791310Y766181D01*
X791673Y766544D01*
X791854Y766906D01*
Y767632D01*
X791673Y767995D01*
X791310Y768357D01*
X790947Y768539D01*
X788045Y769972D02*
Y771967D01*
X789496Y770879D01*
Y771423D01*
X789678Y771786D01*
X789859Y771967D01*
X790403Y772149D01*
X790766D01*
X791310Y771967D01*
X791673Y771604D01*
X791854Y771060D01*
Y770516D01*
X791673Y769972D01*
X791491Y769790D01*
X791129Y769609D01*
X791491Y773182D02*
X791673Y773001D01*
X791854Y773182D01*
X791673Y773364D01*
X791491Y773182D01*
X788952Y774380D02*
X788771D01*
X788408Y774561D01*
X788226Y774742D01*
X788045Y775105D01*
Y775831D01*
X788226Y776193D01*
X788408Y776375D01*
X788771Y776556D01*
X789133D01*
X789496Y776375D01*
X790040Y776012D01*
X791854Y774198D01*
Y776738D01*
X778656Y769801D02*
X778293Y769620D01*
X777930Y769257D01*
X777749Y768894D01*
Y768168D01*
X777930Y767806D01*
X778293Y767443D01*
X778656Y767261D01*
X779200Y767080D01*
X780107D01*
X780651Y767261D01*
X781014Y767443D01*
X781377Y767806D01*
X781558Y768168D01*
Y768894D01*
X781377Y769257D01*
X781014Y769620D01*
X780651Y769801D01*
X778474Y770871D02*
X778293Y771234D01*
X777749Y771778D01*
X781558D01*
X778293Y775841D02*
X777930Y775660D01*
X777749Y775116D01*
Y774753D01*
X777930Y774209D01*
X778474Y773846D01*
X779381Y773664D01*
X780288D01*
X781014Y773846D01*
X781377Y774209D01*
X781558Y774753D01*
Y774934D01*
X781377Y775478D01*
X781014Y775841D01*
X780470Y776022D01*
X780288D01*
X779744Y775841D01*
X779381Y775478D01*
X779200Y774934D01*
Y774753D01*
X779381Y774209D01*
X779744Y773846D01*
X780288Y773664D01*
X781195Y777038D02*
X781377Y776857D01*
X781558Y777038D01*
X781377Y777220D01*
X781195Y777038D01*
X778656Y778235D02*
X778474D01*
X778112Y778417D01*
X777930Y778598D01*
X777749Y778961D01*
Y779687D01*
X777930Y780049D01*
X778112Y780231D01*
X778474Y780412D01*
X778837D01*
X779200Y780231D01*
X779744Y779868D01*
X781558Y778054D01*
Y780593D01*
X742623Y677018D02*
X742441Y677381D01*
X742079Y677744D01*
X741716Y677925D01*
X740990D01*
X740628Y677744D01*
X740265Y677381D01*
X740083Y677018D01*
X739902Y676474D01*
Y675567D01*
X740083Y675023D01*
X740265Y674660D01*
X740628Y674297D01*
X740990Y674116D01*
X741716D01*
X742079Y674297D01*
X742441Y674660D01*
X742623Y675023D01*
X743874Y677018D02*
Y677200D01*
X744056Y677562D01*
X744237Y677744D01*
X744600Y677925D01*
X745326D01*
X745688Y677744D01*
X745870Y677562D01*
X746051Y677200D01*
Y676837D01*
X745870Y676474D01*
X745507Y675930D01*
X743693Y674116D01*
X746233D01*
X749624Y677925D02*
X747811Y674116D01*
X747085Y677925D02*
X749624D01*
X750658Y674479D02*
X750477Y674297D01*
X750658Y674116D01*
X750840Y674297D01*
X750658Y674479D01*
X751856Y677018D02*
Y677200D01*
X752037Y677562D01*
X752218Y677744D01*
X752581Y677925D01*
X753307D01*
X753670Y677744D01*
X753851Y677562D01*
X754032Y677200D01*
Y676837D01*
X753851Y676474D01*
X753488Y675930D01*
X751674Y674116D01*
X754214D01*
X768952Y766829D02*
X768589Y766647D01*
X768226Y766285D01*
X768045Y765922D01*
Y765196D01*
X768226Y764834D01*
X768589Y764471D01*
X768952Y764289D01*
X769496Y764108D01*
X770403D01*
X770947Y764289D01*
X771310Y764471D01*
X771673Y764834D01*
X771854Y765196D01*
Y765922D01*
X771673Y766285D01*
X771310Y766647D01*
X770947Y766829D01*
X768045Y769713D02*
X770584Y767899D01*
Y770620D01*
X768045Y769713D02*
X771854D01*
X768045Y771654D02*
Y773649D01*
X769496Y772561D01*
Y773105D01*
X769678Y773468D01*
X769859Y773649D01*
X770403Y773830D01*
X770766D01*
X771310Y773649D01*
X771673Y773286D01*
X771854Y772742D01*
Y772198D01*
X771673Y771654D01*
X771491Y771472D01*
X771129Y771291D01*
X771491Y774864D02*
X771673Y774683D01*
X771854Y774864D01*
X771673Y775046D01*
X771491Y774864D01*
X768952Y776062D02*
X768771D01*
X768408Y776243D01*
X768226Y776424D01*
X768045Y776787D01*
Y777513D01*
X768226Y777876D01*
X768408Y778057D01*
X768771Y778238D01*
X769133D01*
X769496Y778057D01*
X770040Y777694D01*
X771854Y775880D01*
Y778420D01*
X700205Y679050D02*
X700023Y679413D01*
X699661Y679776D01*
X699298Y679957D01*
X698572D01*
X698210Y679776D01*
X697847Y679413D01*
X697665Y679050D01*
X697484Y678506D01*
Y677599D01*
X697665Y677055D01*
X697847Y676692D01*
X698210Y676329D01*
X698572Y676148D01*
X699298D01*
X699661Y676329D01*
X700023Y676692D01*
X700205Y677055D01*
X703089Y679957D02*
X701275Y677418D01*
X703996D01*
X703089Y679957D02*
Y676148D01*
X706481Y679957D02*
X704667Y677418D01*
X707388D01*
X706481Y679957D02*
Y676148D01*
X708240Y676511D02*
X708059Y676329D01*
X708240Y676148D01*
X708422Y676329D01*
X708240Y676511D01*
X709438Y679050D02*
Y679232D01*
X709619Y679594D01*
X709800Y679776D01*
X710163Y679957D01*
X710889D01*
X711252Y679776D01*
X711433Y679594D01*
X711614Y679232D01*
Y678869D01*
X711433Y678506D01*
X711070Y677962D01*
X709256Y676148D01*
X711796D01*
X677093Y727070D02*
X676730Y726889D01*
X676367Y726526D01*
X676186Y726163D01*
Y725437D01*
X676367Y725075D01*
X676730Y724712D01*
X677093Y724530D01*
X677637Y724349D01*
X678544D01*
X679088Y724530D01*
X679451Y724712D01*
X679814Y725075D01*
X679995Y725437D01*
Y726163D01*
X679814Y726526D01*
X679451Y726889D01*
X679088Y727070D01*
X676186Y730317D02*
Y728503D01*
X677819Y728322D01*
X677637Y728503D01*
X677456Y729047D01*
Y729591D01*
X677637Y730135D01*
X678000Y730498D01*
X678544Y730679D01*
X678907D01*
X679451Y730498D01*
X679814Y730135D01*
X679995Y729591D01*
Y729047D01*
X679814Y728503D01*
X679632Y728322D01*
X679270Y728140D01*
X676186Y732620D02*
X676367Y732076D01*
X676911Y731713D01*
X677819Y731532D01*
X678363D01*
X679270Y731713D01*
X679814Y732076D01*
X679995Y732620D01*
Y732983D01*
X679814Y733527D01*
X679270Y733890D01*
X678363Y734072D01*
X677819D01*
X676911Y733890D01*
X676367Y733527D01*
X676186Y732983D01*
Y732620D01*
X679632Y735105D02*
X679814Y734924D01*
X679995Y735105D01*
X679814Y735287D01*
X679632Y735105D01*
X677093Y736303D02*
X676911D01*
X676549Y736484D01*
X676367Y736665D01*
X676186Y737028D01*
Y737754D01*
X676367Y738117D01*
X676549Y738298D01*
X676911Y738479D01*
X677274D01*
X677637Y738298D01*
X678181Y737935D01*
X679995Y736121D01*
Y738661D01*
X787959Y703688D02*
X787777Y704051D01*
X787415Y704414D01*
X787052Y704595D01*
X786326D01*
X785964Y704414D01*
X785601Y704051D01*
X785419Y703688D01*
X785238Y703144D01*
Y702237D01*
X785419Y701693D01*
X785601Y701330D01*
X785964Y700967D01*
X786326Y700786D01*
X787052D01*
X787415Y700967D01*
X787777Y701330D01*
X787959Y701693D01*
X791206Y704595D02*
X789392D01*
X789211Y702963D01*
X789392Y703144D01*
X789936Y703326D01*
X790480D01*
X791024Y703144D01*
X791387Y702781D01*
X791569Y702237D01*
Y701874D01*
X791387Y701330D01*
X791024Y700967D01*
X790480Y700786D01*
X789936D01*
X789392Y700967D01*
X789211Y701149D01*
X789029Y701512D01*
X792421Y703870D02*
X792784Y704051D01*
X793328Y704595D01*
Y700786D01*
X795396Y701149D02*
X795214Y700967D01*
X795396Y700786D01*
X795577Y700967D01*
X795396Y701149D01*
X796593Y703688D02*
Y703870D01*
X796775Y704232D01*
X796956Y704414D01*
X797319Y704595D01*
X798044D01*
X798407Y704414D01*
X798588Y704232D01*
X798770Y703870D01*
Y703507D01*
X798588Y703144D01*
X798226Y702600D01*
X796412Y700786D01*
X798951D01*
X789613Y754996D02*
X789432Y755359D01*
X789069Y755722D01*
X788706Y755903D01*
X787980D01*
X787618Y755722D01*
X787255Y755359D01*
X787073Y754996D01*
X786892Y754452D01*
Y753545D01*
X787073Y753001D01*
X787255Y752638D01*
X787618Y752275D01*
X787980Y752094D01*
X788706D01*
X789069Y752275D01*
X789432Y752638D01*
X789613Y753001D01*
X792860Y755903D02*
X791046D01*
X790864Y754271D01*
X791046Y754452D01*
X791590Y754633D01*
X792134D01*
X792678Y754452D01*
X793041Y754089D01*
X793223Y753545D01*
Y753182D01*
X793041Y752638D01*
X792678Y752275D01*
X792134Y752094D01*
X791590D01*
X791046Y752275D01*
X790864Y752457D01*
X790683Y752820D01*
X794256Y754996D02*
Y755178D01*
X794438Y755540D01*
X794619Y755722D01*
X794982Y755903D01*
X795708D01*
X796070Y755722D01*
X796252Y755540D01*
X796433Y755178D01*
Y754815D01*
X796252Y754452D01*
X795889Y753908D01*
X794075Y752094D01*
X796615D01*
X797648Y752457D02*
X797467Y752275D01*
X797648Y752094D01*
X797830Y752275D01*
X797648Y752457D01*
X798846Y754996D02*
Y755178D01*
X799027Y755540D01*
X799208Y755722D01*
X799571Y755903D01*
X800297D01*
X800659Y755722D01*
X800841Y755540D01*
X801022Y755178D01*
Y754815D01*
X800841Y754452D01*
X800478Y753908D01*
X798664Y752094D01*
X801204D01*
X754018Y778691D02*
X753655Y778510D01*
X753292Y778147D01*
X753111Y777784D01*
Y777058D01*
X753292Y776696D01*
X753655Y776333D01*
X754018Y776151D01*
X754562Y775970D01*
X755469D01*
X756013Y776151D01*
X756376Y776333D01*
X756739Y776696D01*
X756920Y777058D01*
Y777784D01*
X756739Y778147D01*
X756376Y778510D01*
X756013Y778691D01*
X753111Y781938D02*
Y780124D01*
X754743Y779942D01*
X754562Y780124D01*
X754380Y780668D01*
Y781212D01*
X754562Y781756D01*
X754925Y782119D01*
X755469Y782300D01*
X755832D01*
X756376Y782119D01*
X756739Y781756D01*
X756920Y781212D01*
Y780668D01*
X756739Y780124D01*
X756557Y779942D01*
X756194Y779761D01*
X753111Y783516D02*
Y785511D01*
X754562Y784423D01*
Y784967D01*
X754743Y785330D01*
X754925Y785511D01*
X755469Y785693D01*
X755832D01*
X756376Y785511D01*
X756739Y785148D01*
X756920Y784604D01*
Y784060D01*
X756739Y783516D01*
X756557Y783334D01*
X756194Y783153D01*
X756557Y786726D02*
X756739Y786545D01*
X756920Y786726D01*
X756739Y786908D01*
X756557Y786726D01*
X754018Y787924D02*
X753836D01*
X753474Y788105D01*
X753292Y788286D01*
X753111Y788649D01*
Y789375D01*
X753292Y789737D01*
X753474Y789919D01*
X753836Y790100D01*
X754199D01*
X754562Y789919D01*
X755106Y789556D01*
X756920Y787742D01*
Y790282D01*
X746950Y797693D02*
X746768Y798056D01*
X746406Y798419D01*
X746043Y798600D01*
X745317D01*
X744955Y798419D01*
X744592Y798056D01*
X744410Y797693D01*
X744229Y797149D01*
Y796242D01*
X744410Y795698D01*
X744592Y795335D01*
X744955Y794972D01*
X745317Y794791D01*
X746043D01*
X746406Y794972D01*
X746768Y795335D01*
X746950Y795698D01*
X750197Y798600D02*
X748383D01*
X748202Y796968D01*
X748383Y797149D01*
X748927Y797330D01*
X749471D01*
X750015Y797149D01*
X750378Y796786D01*
X750560Y796242D01*
Y795879D01*
X750378Y795335D01*
X750015Y794972D01*
X749471Y794791D01*
X748927D01*
X748383Y794972D01*
X748202Y795154D01*
X748020Y795517D01*
X753226Y798600D02*
X751412Y796061D01*
X754133D01*
X753226Y798600D02*
Y794791D01*
X754986Y795154D02*
X754804Y794972D01*
X754986Y794791D01*
X755167Y794972D01*
X754986Y795154D01*
X756183Y797693D02*
Y797875D01*
X756364Y798237D01*
X756545Y798419D01*
X756908Y798600D01*
X757634D01*
X757997Y798419D01*
X758178Y798237D01*
X758359Y797875D01*
Y797512D01*
X758178Y797149D01*
X757815Y796605D01*
X756001Y794791D01*
X758541D01*
X726495Y773030D02*
X726313Y773393D01*
X725951Y773756D01*
X725588Y773937D01*
X724862D01*
X724500Y773756D01*
X724137Y773393D01*
X723955Y773030D01*
X723774Y772486D01*
Y771579D01*
X723955Y771035D01*
X724137Y770672D01*
X724500Y770309D01*
X724862Y770128D01*
X725588D01*
X725951Y770309D01*
X726313Y770672D01*
X726495Y771035D01*
X729742Y773937D02*
X727928D01*
X727747Y772305D01*
X727928Y772486D01*
X728472Y772667D01*
X729016D01*
X729560Y772486D01*
X729923Y772123D01*
X730105Y771579D01*
Y771216D01*
X729923Y770672D01*
X729560Y770309D01*
X729016Y770128D01*
X728472D01*
X727928Y770309D01*
X727747Y770491D01*
X727565Y770854D01*
X733134Y773937D02*
X731320D01*
X731139Y772305D01*
X731320Y772486D01*
X731864Y772667D01*
X732408D01*
X732952Y772486D01*
X733315Y772123D01*
X733497Y771579D01*
Y771216D01*
X733315Y770672D01*
X732952Y770309D01*
X732408Y770128D01*
X731864D01*
X731320Y770309D01*
X731139Y770491D01*
X730957Y770854D01*
X734530Y770491D02*
X734349Y770309D01*
X734530Y770128D01*
X734712Y770309D01*
X734530Y770491D01*
X735728Y773030D02*
Y773212D01*
X735909Y773574D01*
X736090Y773756D01*
X736453Y773937D01*
X737179D01*
X737542Y773756D01*
X737723Y773574D01*
X737904Y773212D01*
Y772849D01*
X737723Y772486D01*
X737360Y771942D01*
X735546Y770128D01*
X738086D01*
X715953Y793604D02*
X715771Y793967D01*
X715409Y794330D01*
X715046Y794511D01*
X714320D01*
X713958Y794330D01*
X713595Y793967D01*
X713413Y793604D01*
X713232Y793060D01*
Y792153D01*
X713413Y791609D01*
X713595Y791246D01*
X713958Y790883D01*
X714320Y790702D01*
X715046D01*
X715409Y790883D01*
X715771Y791246D01*
X715953Y791609D01*
X719200Y794511D02*
X717386D01*
X717204Y792879D01*
X717386Y793060D01*
X717930Y793242D01*
X718474D01*
X719018Y793060D01*
X719381Y792697D01*
X719563Y792153D01*
Y791790D01*
X719381Y791246D01*
X719018Y790883D01*
X718474Y790702D01*
X717930D01*
X717386Y790883D01*
X717204Y791065D01*
X717023Y791428D01*
X722592Y793967D02*
X722410Y794330D01*
X721866Y794511D01*
X721503D01*
X720959Y794330D01*
X720596Y793786D01*
X720415Y792879D01*
Y791972D01*
X720596Y791246D01*
X720959Y790883D01*
X721503Y790702D01*
X721685D01*
X722229Y790883D01*
X722592Y791246D01*
X722773Y791790D01*
Y791972D01*
X722592Y792516D01*
X722229Y792879D01*
X721685Y793060D01*
X721503D01*
X720959Y792879D01*
X720596Y792516D01*
X720415Y791972D01*
X723789Y791065D02*
X723607Y790883D01*
X723789Y790702D01*
X723970Y790883D01*
X723789Y791065D01*
X724986Y793604D02*
Y793786D01*
X725167Y794148D01*
X725349Y794330D01*
X725712Y794511D01*
X726437D01*
X726800Y794330D01*
X726981Y794148D01*
X727163Y793786D01*
Y793423D01*
X726981Y793060D01*
X726619Y792516D01*
X724805Y790702D01*
X727344D01*
X678615Y860914D02*
X678434Y861277D01*
X678071Y861640D01*
X677708Y861821D01*
X676982D01*
X676620Y861640D01*
X676257Y861277D01*
X676075Y860914D01*
X675894Y860370D01*
Y859463D01*
X676075Y858919D01*
X676257Y858556D01*
X676620Y858193D01*
X676982Y858012D01*
X677708D01*
X678071Y858193D01*
X678434Y858556D01*
X678615Y858919D01*
X681862Y861821D02*
X680048D01*
X679866Y860189D01*
X680048Y860370D01*
X680592Y860552D01*
X681136D01*
X681680Y860370D01*
X682043Y860007D01*
X682225Y859463D01*
Y859100D01*
X682043Y858556D01*
X681680Y858193D01*
X681136Y858012D01*
X680592D01*
X680048Y858193D01*
X679866Y858375D01*
X679685Y858738D01*
X685617Y861821D02*
X683803Y858012D01*
X683077Y861821D02*
X685617D01*
X686650Y858375D02*
X686469Y858193D01*
X686650Y858012D01*
X686832Y858193D01*
X686650Y858375D01*
X687848Y860914D02*
Y861096D01*
X688029Y861458D01*
X688210Y861640D01*
X688573Y861821D01*
X689299D01*
X689661Y861640D01*
X689843Y861458D01*
X690024Y861096D01*
Y860733D01*
X689843Y860370D01*
X689480Y859826D01*
X687666Y858012D01*
X690206D01*
X677853Y847960D02*
X677672Y848323D01*
X677309Y848686D01*
X676946Y848867D01*
X676220D01*
X675858Y848686D01*
X675495Y848323D01*
X675313Y847960D01*
X675132Y847416D01*
Y846509D01*
X675313Y845965D01*
X675495Y845602D01*
X675858Y845239D01*
X676220Y845058D01*
X676946D01*
X677309Y845239D01*
X677672Y845602D01*
X677853Y845965D01*
X681100Y848867D02*
X679286D01*
X679104Y847235D01*
X679286Y847416D01*
X679830Y847598D01*
X680374D01*
X680918Y847416D01*
X681281Y847053D01*
X681462Y846509D01*
Y846146D01*
X681281Y845602D01*
X680918Y845239D01*
X680374Y845058D01*
X679830D01*
X679286Y845239D01*
X679104Y845421D01*
X678923Y845784D01*
X683222Y848867D02*
X682678Y848686D01*
X682496Y848323D01*
Y847960D01*
X682678Y847598D01*
X683041Y847416D01*
X683766Y847235D01*
X684310Y847053D01*
X684673Y846691D01*
X684855Y846328D01*
Y845784D01*
X684673Y845421D01*
X684492Y845239D01*
X683948Y845058D01*
X683222D01*
X682678Y845239D01*
X682496Y845421D01*
X682315Y845784D01*
Y846328D01*
X682496Y846691D01*
X682859Y847053D01*
X683403Y847235D01*
X684129Y847416D01*
X684492Y847598D01*
X684673Y847960D01*
Y848323D01*
X684492Y848686D01*
X683948Y848867D01*
X683222D01*
X685888Y845421D02*
X685707Y845239D01*
X685888Y845058D01*
X686070Y845239D01*
X685888Y845421D01*
X687086Y847960D02*
Y848142D01*
X687267Y848504D01*
X687448Y848686D01*
X687811Y848867D01*
X688537D01*
X688900Y848686D01*
X689081Y848504D01*
X689262Y848142D01*
Y847779D01*
X689081Y847416D01*
X688718Y846872D01*
X686904Y845058D01*
X689444D01*
X677991Y871684D02*
X677810Y872047D01*
X677447Y872410D01*
X677084Y872591D01*
X676358D01*
X675996Y872410D01*
X675633Y872047D01*
X675452Y871684D01*
X675270Y871140D01*
Y870233D01*
X675452Y869689D01*
X675633Y869326D01*
X675996Y868963D01*
X676358Y868782D01*
X677084D01*
X677447Y868963D01*
X677810Y869326D01*
X677991Y869689D01*
X681238Y872591D02*
X679424D01*
X679242Y870959D01*
X679424Y871140D01*
X679968Y871321D01*
X680512D01*
X681056Y871140D01*
X681419Y870777D01*
X681601Y870233D01*
Y869870D01*
X681419Y869326D01*
X681056Y868963D01*
X680512Y868782D01*
X679968D01*
X679424Y868963D01*
X679242Y869145D01*
X679061Y869508D01*
X684811Y871321D02*
X684630Y870777D01*
X684267Y870415D01*
X683723Y870233D01*
X683541D01*
X682997Y870415D01*
X682635Y870777D01*
X682453Y871321D01*
Y871503D01*
X682635Y872047D01*
X682997Y872410D01*
X683541Y872591D01*
X683723D01*
X684267Y872410D01*
X684630Y872047D01*
X684811Y871321D01*
Y870415D01*
X684630Y869508D01*
X684267Y868963D01*
X683723Y868782D01*
X683360D01*
X682816Y868963D01*
X682635Y869326D01*
X686027Y869145D02*
X685845Y868963D01*
X686027Y868782D01*
X686208Y868963D01*
X686027Y869145D01*
X687224Y871684D02*
Y871866D01*
X687405Y872228D01*
X687587Y872410D01*
X687949Y872591D01*
X688675D01*
X689038Y872410D01*
X689219Y872228D01*
X689400Y871866D01*
Y871503D01*
X689219Y871140D01*
X688856Y870596D01*
X687042Y868782D01*
X689582D01*
X724534Y814606D02*
X724171Y814425D01*
X723808Y814062D01*
X723627Y813699D01*
Y812973D01*
X723808Y812611D01*
X724171Y812248D01*
X724534Y812066D01*
X725078Y811885D01*
X725985D01*
X726529Y812066D01*
X726892Y812248D01*
X727255Y812611D01*
X727436Y812973D01*
Y813699D01*
X727255Y814062D01*
X726892Y814425D01*
X726529Y814606D01*
X724171Y817853D02*
X723808Y817671D01*
X723627Y817127D01*
Y816764D01*
X723808Y816220D01*
X724352Y815857D01*
X725259Y815676D01*
X726166D01*
X726892Y815857D01*
X727255Y816220D01*
X727436Y816764D01*
Y816946D01*
X727255Y817490D01*
X726892Y817853D01*
X726348Y818034D01*
X726166D01*
X725622Y817853D01*
X725259Y817490D01*
X725078Y816946D01*
Y816764D01*
X725259Y816220D01*
X725622Y815857D01*
X726166Y815676D01*
X723627Y819957D02*
X723808Y819413D01*
X724352Y819050D01*
X725259Y818868D01*
X725804D01*
X726711Y819050D01*
X727255Y819413D01*
X727436Y819957D01*
Y820320D01*
X727255Y820864D01*
X726711Y821227D01*
X725804Y821408D01*
X725259D01*
X724352Y821227D01*
X723808Y820864D01*
X723627Y820320D01*
Y819957D01*
X727073Y822442D02*
X727255Y822261D01*
X727436Y822442D01*
X727255Y822623D01*
X727073Y822442D01*
X724534Y823639D02*
X724352D01*
X723990Y823820D01*
X723808Y824002D01*
X723627Y824365D01*
Y825090D01*
X723808Y825453D01*
X723990Y825634D01*
X724352Y825816D01*
X724715D01*
X725078Y825634D01*
X725622Y825272D01*
X727436Y823458D01*
Y825997D01*
X736099Y871684D02*
X735918Y872047D01*
X735555Y872410D01*
X735192Y872591D01*
X734467D01*
X734104Y872410D01*
X733741Y872047D01*
X733560Y871684D01*
X733378Y871140D01*
Y870233D01*
X733560Y869689D01*
X733741Y869326D01*
X734104Y868963D01*
X734467Y868782D01*
X735192D01*
X735555Y868963D01*
X735918Y869326D01*
X736099Y869689D01*
X739346Y872047D02*
X739165Y872410D01*
X738620Y872591D01*
X738258D01*
X737713Y872410D01*
X737351Y871866D01*
X737169Y870959D01*
Y870052D01*
X737351Y869326D01*
X737713Y868963D01*
X738258Y868782D01*
X738439D01*
X738983Y868963D01*
X739346Y869326D01*
X739527Y869870D01*
Y870052D01*
X739346Y870596D01*
X738983Y870959D01*
X738439Y871140D01*
X738258D01*
X737713Y870959D01*
X737351Y870596D01*
X737169Y870052D01*
X740362Y871866D02*
X740724Y872047D01*
X741269Y872591D01*
Y868782D01*
X743336Y869145D02*
X743155Y868963D01*
X743336Y868782D01*
X743518Y868963D01*
X743336Y869145D01*
X744534Y871684D02*
Y871866D01*
X744715Y872228D01*
X744896Y872410D01*
X745259Y872591D01*
X745985D01*
X746348Y872410D01*
X746529Y872228D01*
X746710Y871866D01*
Y871503D01*
X746529Y871140D01*
X746166Y870596D01*
X744352Y868782D01*
X746892D01*
X735351Y882392D02*
X735170Y882755D01*
X734807Y883118D01*
X734444Y883299D01*
X733718D01*
X733356Y883118D01*
X732993Y882755D01*
X732811Y882392D01*
X732630Y881848D01*
Y880941D01*
X732811Y880397D01*
X732993Y880034D01*
X733356Y879671D01*
X733718Y879490D01*
X734444D01*
X734807Y879671D01*
X735170Y880034D01*
X735351Y880397D01*
X738598Y882755D02*
X738416Y883118D01*
X737872Y883299D01*
X737509D01*
X736965Y883118D01*
X736602Y882574D01*
X736421Y881667D01*
Y880760D01*
X736602Y880034D01*
X736965Y879671D01*
X737509Y879490D01*
X737691D01*
X738235Y879671D01*
X738598Y880034D01*
X738779Y880578D01*
Y880760D01*
X738598Y881304D01*
X738235Y881667D01*
X737691Y881848D01*
X737509D01*
X736965Y881667D01*
X736602Y881304D01*
X736421Y880760D01*
X739795Y882392D02*
Y882574D01*
X739976Y882936D01*
X740158Y883118D01*
X740520Y883299D01*
X741246D01*
X741609Y883118D01*
X741790Y882936D01*
X741972Y882574D01*
Y882211D01*
X741790Y881848D01*
X741427Y881304D01*
X739613Y879490D01*
X742153D01*
X743187Y879853D02*
X743006Y879671D01*
X743187Y879490D01*
X743368Y879671D01*
X743187Y879853D01*
X744384Y882392D02*
Y882574D01*
X744566Y882936D01*
X744747Y883118D01*
X745110Y883299D01*
X745835D01*
X746198Y883118D01*
X746379Y882936D01*
X746561Y882574D01*
Y882211D01*
X746379Y881848D01*
X746017Y881304D01*
X744203Y879490D01*
X746742D01*
X741173Y779526D02*
X744982D01*
Y781703D01*
X741898Y782120D02*
X741717Y782483D01*
X741173Y783027D01*
X744982D01*
X744619Y785095D02*
X744801Y784913D01*
X744982Y785095D01*
X744801Y785276D01*
X744619Y785095D01*
X742080Y786292D02*
X741898D01*
X741536Y786473D01*
X741354Y786655D01*
X741173Y787017D01*
Y787743D01*
X741354Y788106D01*
X741536Y788287D01*
X741898Y788468D01*
X742261D01*
X742624Y788287D01*
X743168Y787924D01*
X744982Y786110D01*
Y788650D01*
X716788Y784351D02*
Y780542D01*
X718965D01*
X721559Y784351D02*
X719745D01*
X719563Y782719D01*
X719745Y782900D01*
X720289Y783082D01*
X720833D01*
X721377Y782900D01*
X721740Y782537D01*
X721921Y781993D01*
Y781630D01*
X721740Y781086D01*
X721377Y780723D01*
X720833Y780542D01*
X720289D01*
X719745Y780723D01*
X719563Y780905D01*
X719382Y781268D01*
X722955Y780905D02*
X722774Y780723D01*
X722955Y780542D01*
X723137Y780723D01*
X722955Y780905D01*
X724152Y783444D02*
Y783626D01*
X724334Y783988D01*
X724515Y784170D01*
X724878Y784351D01*
X725604D01*
X725966Y784170D01*
X726148Y783988D01*
X726329Y783626D01*
Y783263D01*
X726148Y782900D01*
X725785Y782356D01*
X723971Y780542D01*
X726510D01*
X735726Y824574D02*
Y820765D01*
X737903D01*
X740497Y824030D02*
X740315Y824393D01*
X739771Y824574D01*
X739408D01*
X738864Y824393D01*
X738501Y823849D01*
X738320Y822942D01*
Y822035D01*
X738501Y821309D01*
X738864Y820946D01*
X739408Y820765D01*
X739590D01*
X740134Y820946D01*
X740497Y821309D01*
X740678Y821853D01*
Y822035D01*
X740497Y822579D01*
X740134Y822942D01*
X739590Y823123D01*
X739408D01*
X738864Y822942D01*
X738501Y822579D01*
X738320Y822035D01*
X741694Y821128D02*
X741512Y820946D01*
X741694Y820765D01*
X741875Y820946D01*
X741694Y821128D01*
X742891Y823667D02*
Y823849D01*
X743072Y824211D01*
X743254Y824393D01*
X743616Y824574D01*
X744342D01*
X744705Y824393D01*
X744886Y824211D01*
X745068Y823849D01*
Y823486D01*
X744886Y823123D01*
X744523Y822579D01*
X742710Y820765D01*
X745249D01*
X719837Y874522D02*
X723646D01*
Y876699D01*
X719837Y879655D02*
X723646Y877841D01*
X719837Y877116D02*
Y879655D01*
X723283Y880689D02*
X723465Y880508D01*
X723646Y880689D01*
X723465Y880871D01*
X723283Y880689D01*
X720744Y881886D02*
X720562D01*
X720200Y882068D01*
X720018Y882249D01*
X719837Y882612D01*
Y883338D01*
X720018Y883700D01*
X720200Y883882D01*
X720562Y884063D01*
X720925D01*
X721288Y883882D01*
X721832Y883519D01*
X723646Y881705D01*
Y884245D01*
X769620Y791463D02*
Y787654D01*
Y791463D02*
X771253D01*
X771797Y791282D01*
X771978Y791100D01*
X772160Y790738D01*
Y790375D01*
X771978Y790012D01*
X771797Y789831D01*
X771253Y789649D01*
X769620D01*
X770890D02*
X772160Y787654D01*
X775189Y790919D02*
X775007Y791282D01*
X774463Y791463D01*
X774100D01*
X773556Y791282D01*
X773193Y790738D01*
X773012Y789831D01*
Y788924D01*
X773193Y788198D01*
X773556Y787835D01*
X774100Y787654D01*
X774282D01*
X774826Y787835D01*
X775189Y788198D01*
X775370Y788742D01*
Y788924D01*
X775189Y789468D01*
X774826Y789831D01*
X774282Y790012D01*
X774100D01*
X773556Y789831D01*
X773193Y789468D01*
X773012Y788924D01*
X778381Y791463D02*
X776567D01*
X776386Y789831D01*
X776567Y790012D01*
X777111Y790193D01*
X777656D01*
X778200Y790012D01*
X778562Y789649D01*
X778744Y789105D01*
Y788742D01*
X778562Y788198D01*
X778200Y787835D01*
X777656Y787654D01*
X777111D01*
X776567Y787835D01*
X776386Y788017D01*
X776204Y788380D01*
X779778Y788017D02*
X779596Y787835D01*
X779778Y787654D01*
X779959Y787835D01*
X779778Y788017D01*
X780975Y790556D02*
Y790738D01*
X781156Y791100D01*
X781338Y791282D01*
X781701Y791463D01*
X782426D01*
X782789Y791282D01*
X782970Y791100D01*
X783152Y790738D01*
Y790375D01*
X782970Y790012D01*
X782607Y789468D01*
X780794Y787654D01*
X783333D01*
X767080Y883919D02*
Y880110D01*
Y883919D02*
X768712D01*
X769257Y883738D01*
X769438Y883556D01*
X769620Y883194D01*
Y882831D01*
X769438Y882468D01*
X769257Y882287D01*
X768712Y882105D01*
X767080D01*
X768350D02*
X769620Y880110D01*
X772649Y883375D02*
X772467Y883738D01*
X771923Y883919D01*
X771560D01*
X771016Y883738D01*
X770653Y883194D01*
X770472Y882287D01*
Y881380D01*
X770653Y880654D01*
X771016Y880291D01*
X771560Y880110D01*
X771742D01*
X772286Y880291D01*
X772649Y880654D01*
X772830Y881198D01*
Y881380D01*
X772649Y881924D01*
X772286Y882287D01*
X771742Y882468D01*
X771560D01*
X771016Y882287D01*
X770653Y881924D01*
X770472Y881380D01*
X775841Y883375D02*
X775660Y883738D01*
X775116Y883919D01*
X774753D01*
X774209Y883738D01*
X773846Y883194D01*
X773664Y882287D01*
Y881380D01*
X773846Y880654D01*
X774209Y880291D01*
X774753Y880110D01*
X774934D01*
X775478Y880291D01*
X775841Y880654D01*
X776022Y881198D01*
Y881380D01*
X775841Y881924D01*
X775478Y882287D01*
X774934Y882468D01*
X774753D01*
X774209Y882287D01*
X773846Y881924D01*
X773664Y881380D01*
X777038Y880473D02*
X776857Y880291D01*
X777038Y880110D01*
X777220Y880291D01*
X777038Y880473D01*
X778235Y883012D02*
Y883194D01*
X778417Y883556D01*
X778598Y883738D01*
X778961Y883919D01*
X779687D01*
X780049Y883738D01*
X780231Y883556D01*
X780412Y883194D01*
Y882831D01*
X780231Y882468D01*
X779868Y881924D01*
X778054Y880110D01*
X780593D01*
X692955Y825292D02*
Y821483D01*
Y825292D02*
X694587D01*
X695132Y825111D01*
X695313Y824930D01*
X695495Y824567D01*
Y824204D01*
X695313Y823841D01*
X695132Y823660D01*
X694587Y823478D01*
X692955D01*
X694225D02*
X695495Y821483D01*
X698524Y824748D02*
X698342Y825111D01*
X697798Y825292D01*
X697435D01*
X696891Y825111D01*
X696528Y824567D01*
X696347Y823660D01*
Y822753D01*
X696528Y822027D01*
X696891Y821665D01*
X697435Y821483D01*
X697617D01*
X698161Y821665D01*
X698524Y822027D01*
X698705Y822572D01*
Y822753D01*
X698524Y823297D01*
X698161Y823660D01*
X697617Y823841D01*
X697435D01*
X696891Y823660D01*
X696528Y823297D01*
X696347Y822753D01*
X702079Y825292D02*
X700265Y821483D01*
X699539Y825292D02*
X702079D01*
X703113Y821846D02*
X702932Y821665D01*
X703113Y821483D01*
X703294Y821665D01*
X703113Y821846D01*
X704310Y824386D02*
Y824567D01*
X704491Y824930D01*
X704673Y825111D01*
X705036Y825292D01*
X705761D01*
X706124Y825111D01*
X706305Y824930D01*
X706487Y824567D01*
Y824204D01*
X706305Y823841D01*
X705943Y823297D01*
X704129Y821483D01*
X706668D01*
X702003Y816637D02*
Y812828D01*
Y816637D02*
X703636D01*
X704180Y816456D01*
X704361Y816274D01*
X704543Y815912D01*
Y815549D01*
X704361Y815186D01*
X704180Y815005D01*
X703636Y814823D01*
X702003D01*
X703273D02*
X704543Y812828D01*
X707572Y816093D02*
X707391Y816456D01*
X706846Y816637D01*
X706484D01*
X705939Y816456D01*
X705577Y815912D01*
X705395Y815005D01*
Y814098D01*
X705577Y813372D01*
X705939Y813009D01*
X706484Y812828D01*
X706665D01*
X707209Y813009D01*
X707572Y813372D01*
X707753Y813916D01*
Y814098D01*
X707572Y814642D01*
X707209Y815005D01*
X706665Y815186D01*
X706484D01*
X705939Y815005D01*
X705577Y814642D01*
X705395Y814098D01*
X709495Y816637D02*
X708950Y816456D01*
X708769Y816093D01*
Y815730D01*
X708950Y815368D01*
X709313Y815186D01*
X710039Y815005D01*
X710583Y814823D01*
X710946Y814461D01*
X711127Y814098D01*
Y813553D01*
X710946Y813191D01*
X710764Y813009D01*
X710220Y812828D01*
X709495D01*
X708950Y813009D01*
X708769Y813191D01*
X708588Y813553D01*
Y814098D01*
X708769Y814461D01*
X709132Y814823D01*
X709676Y815005D01*
X710402Y815186D01*
X710764Y815368D01*
X710946Y815730D01*
Y816093D01*
X710764Y816456D01*
X710220Y816637D01*
X709495D01*
X712161Y813191D02*
X711980Y813009D01*
X712161Y812828D01*
X712342Y813009D01*
X712161Y813191D01*
X713358Y815730D02*
Y815912D01*
X713540Y816274D01*
X713721Y816456D01*
X714084Y816637D01*
X714809D01*
X715172Y816456D01*
X715353Y816274D01*
X715535Y815912D01*
Y815549D01*
X715353Y815186D01*
X714991Y814642D01*
X713177Y812828D01*
X715716D01*
X97283Y883889D02*
X101092D01*
Y886066D01*
X97283Y889022D02*
X101092Y887208D01*
X97283Y886483D02*
Y889022D01*
X100729Y890056D02*
X100910Y889875D01*
X101092Y890056D01*
X100910Y890238D01*
X100729Y890056D01*
X98008Y891072D02*
X97827Y891435D01*
X97283Y891979D01*
X101092D01*
X113828Y882868D02*
X113646Y883231D01*
X113284Y883594D01*
X112921Y883775D01*
X112195D01*
X111832Y883594D01*
X111470Y883231D01*
X111288Y882868D01*
X111107Y882324D01*
Y881417D01*
X111288Y880873D01*
X111470Y880510D01*
X111832Y880147D01*
X112195Y879966D01*
X112921D01*
X113284Y880147D01*
X113646Y880510D01*
X113828Y880873D01*
X117075Y883231D02*
X116893Y883594D01*
X116349Y883775D01*
X115986D01*
X115442Y883594D01*
X115079Y883050D01*
X114898Y882143D01*
Y881236D01*
X115079Y880510D01*
X115442Y880147D01*
X115986Y879966D01*
X116168D01*
X116712Y880147D01*
X117075Y880510D01*
X117256Y881054D01*
Y881236D01*
X117075Y881780D01*
X116712Y882143D01*
X116168Y882324D01*
X115986D01*
X115442Y882143D01*
X115079Y881780D01*
X114898Y881236D01*
X118090Y883050D02*
X118453Y883231D01*
X118997Y883775D01*
Y879966D01*
X121065Y880329D02*
X120884Y880147D01*
X121065Y879966D01*
X121247Y880147D01*
X121065Y880329D01*
X122081Y883050D02*
X122444Y883231D01*
X122988Y883775D01*
Y879966D01*
X112684Y893575D02*
X112502Y893938D01*
X112140Y894301D01*
X111777Y894482D01*
X111051D01*
X110688Y894301D01*
X110326Y893938D01*
X110144Y893575D01*
X109963Y893031D01*
Y892124D01*
X110144Y891580D01*
X110326Y891217D01*
X110688Y890854D01*
X111051Y890673D01*
X111777D01*
X112140Y890854D01*
X112502Y891217D01*
X112684Y891580D01*
X115931Y893938D02*
X115749Y894301D01*
X115205Y894482D01*
X114842D01*
X114298Y894301D01*
X113935Y893757D01*
X113754Y892850D01*
Y891943D01*
X113935Y891217D01*
X114298Y890854D01*
X114842Y890673D01*
X115024D01*
X115568Y890854D01*
X115931Y891217D01*
X116112Y891761D01*
Y891943D01*
X115931Y892487D01*
X115568Y892850D01*
X115024Y893031D01*
X114842D01*
X114298Y892850D01*
X113935Y892487D01*
X113754Y891943D01*
X117128Y893575D02*
Y893757D01*
X117309Y894119D01*
X117491Y894301D01*
X117853Y894482D01*
X118579D01*
X118942Y894301D01*
X119123Y894119D01*
X119304Y893757D01*
Y893394D01*
X119123Y893031D01*
X118760Y892487D01*
X116946Y890673D01*
X119486D01*
X120520Y891036D02*
X120338Y890854D01*
X120520Y890673D01*
X120701Y890854D01*
X120520Y891036D01*
X121536Y893757D02*
X121898Y893938D01*
X122443Y894482D01*
Y890673D01*
X145034Y895572D02*
Y891763D01*
Y895572D02*
X146666D01*
X147211Y895391D01*
X147392Y895209D01*
X147573Y894846D01*
Y894484D01*
X147392Y894121D01*
X147211Y893940D01*
X146666Y893758D01*
X145034D01*
X146304D02*
X147573Y891763D01*
X150603Y895028D02*
X150421Y895391D01*
X149877Y895572D01*
X149514D01*
X148970Y895391D01*
X148607Y894846D01*
X148426Y893940D01*
Y893033D01*
X148607Y892307D01*
X148970Y891944D01*
X149514Y891763D01*
X149696D01*
X150240Y891944D01*
X150603Y892307D01*
X150784Y892851D01*
Y893033D01*
X150603Y893577D01*
X150240Y893940D01*
X149696Y894121D01*
X149514D01*
X148970Y893940D01*
X148607Y893577D01*
X148426Y893033D01*
X153795Y895028D02*
X153614Y895391D01*
X153069Y895572D01*
X152707D01*
X152162Y895391D01*
X151800Y894846D01*
X151618Y893940D01*
Y893033D01*
X151800Y892307D01*
X152162Y891944D01*
X152707Y891763D01*
X152888D01*
X153432Y891944D01*
X153795Y892307D01*
X153976Y892851D01*
Y893033D01*
X153795Y893577D01*
X153432Y893940D01*
X152888Y894121D01*
X152707D01*
X152162Y893940D01*
X151800Y893577D01*
X151618Y893033D01*
X154992Y892126D02*
X154811Y891944D01*
X154992Y891763D01*
X155174Y891944D01*
X154992Y892126D01*
X156008Y894846D02*
X156371Y895028D01*
X156915Y895572D01*
Y891763D01*
X55660Y883489D02*
X55478Y883852D01*
X55115Y884215D01*
X54753Y884396D01*
X54027D01*
X53664Y884215D01*
X53302Y883852D01*
X53120Y883489D01*
X52939Y882945D01*
Y882038D01*
X53120Y881494D01*
X53302Y881131D01*
X53664Y880768D01*
X54027Y880587D01*
X54753D01*
X55115Y880768D01*
X55478Y881131D01*
X55660Y881494D01*
X58906Y884396D02*
X57093D01*
X56911Y882764D01*
X57093Y882945D01*
X57637Y883126D01*
X58181D01*
X58725Y882945D01*
X59088Y882582D01*
X59269Y882038D01*
Y881675D01*
X59088Y881131D01*
X58725Y880768D01*
X58181Y880587D01*
X57637D01*
X57093Y880768D01*
X56911Y880950D01*
X56730Y881312D01*
X62480Y883126D02*
X62298Y882582D01*
X61936Y882219D01*
X61392Y882038D01*
X61210D01*
X60666Y882219D01*
X60303Y882582D01*
X60122Y883126D01*
Y883308D01*
X60303Y883852D01*
X60666Y884215D01*
X61210Y884396D01*
X61392D01*
X61936Y884215D01*
X62298Y883852D01*
X62480Y883126D01*
Y882219D01*
X62298Y881312D01*
X61936Y880768D01*
X61392Y880587D01*
X61029D01*
X60485Y880768D01*
X60303Y881131D01*
X63695Y880950D02*
X63514Y880768D01*
X63695Y880587D01*
X63877Y880768D01*
X63695Y880950D01*
X64711Y883671D02*
X65074Y883852D01*
X65618Y884396D01*
Y880587D01*
X55807Y872567D02*
X55625Y872930D01*
X55262Y873293D01*
X54900Y873474D01*
X54174D01*
X53811Y873293D01*
X53449Y872930D01*
X53267Y872567D01*
X53086Y872023D01*
Y871116D01*
X53267Y870572D01*
X53449Y870209D01*
X53811Y869846D01*
X54174Y869665D01*
X54900D01*
X55262Y869846D01*
X55625Y870209D01*
X55807Y870572D01*
X59054Y873474D02*
X57240D01*
X57058Y871842D01*
X57240Y872023D01*
X57784Y872204D01*
X58328D01*
X58872Y872023D01*
X59235Y871660D01*
X59416Y871116D01*
Y870753D01*
X59235Y870209D01*
X58872Y869846D01*
X58328Y869665D01*
X57784D01*
X57240Y869846D01*
X57058Y870028D01*
X56877Y870390D01*
X62808Y873474D02*
X60994Y869665D01*
X60269Y873474D02*
X62808D01*
X63842Y870028D02*
X63661Y869846D01*
X63842Y869665D01*
X64024Y869846D01*
X63842Y870028D01*
X64858Y872748D02*
X65221Y872930D01*
X65765Y873474D01*
Y869665D01*
X54827Y859613D02*
X54645Y859976D01*
X54282Y860339D01*
X53920Y860520D01*
X53194D01*
X52831Y860339D01*
X52469Y859976D01*
X52287Y859613D01*
X52106Y859069D01*
Y858162D01*
X52287Y857618D01*
X52469Y857255D01*
X52831Y856892D01*
X53194Y856711D01*
X53920D01*
X54282Y856892D01*
X54645Y857255D01*
X54827Y857618D01*
X58074Y860520D02*
X56260D01*
X56078Y858888D01*
X56260Y859069D01*
X56804Y859250D01*
X57348D01*
X57892Y859069D01*
X58255Y858706D01*
X58436Y858162D01*
Y857799D01*
X58255Y857255D01*
X57892Y856892D01*
X57348Y856711D01*
X56804D01*
X56260Y856892D01*
X56078Y857074D01*
X55897Y857437D01*
X60196Y860520D02*
X59652Y860339D01*
X59470Y859976D01*
Y859613D01*
X59652Y859250D01*
X60014Y859069D01*
X60740Y858888D01*
X61284Y858706D01*
X61647Y858343D01*
X61828Y857981D01*
Y857437D01*
X61647Y857074D01*
X61466Y856892D01*
X60921Y856711D01*
X60196D01*
X59652Y856892D01*
X59470Y857074D01*
X59289Y857437D01*
Y857981D01*
X59470Y858343D01*
X59833Y858706D01*
X60377Y858888D01*
X61103Y859069D01*
X61466Y859250D01*
X61647Y859613D01*
Y859976D01*
X61466Y860339D01*
X60921Y860520D01*
X60196D01*
X62862Y857074D02*
X62681Y856892D01*
X62862Y856711D01*
X63044Y856892D01*
X62862Y857074D01*
X63878Y859794D02*
X64241Y859976D01*
X64785Y860520D01*
Y856711D01*
X70866Y836824D02*
Y833015D01*
Y836824D02*
X72498D01*
X73042Y836643D01*
X73224Y836461D01*
X73405Y836099D01*
Y835736D01*
X73224Y835373D01*
X73042Y835192D01*
X72498Y835010D01*
X70866D01*
X72136D02*
X73405Y833015D01*
X76434Y836280D02*
X76253Y836643D01*
X75709Y836824D01*
X75346D01*
X74802Y836643D01*
X74439Y836099D01*
X74258Y835192D01*
Y834285D01*
X74439Y833559D01*
X74802Y833196D01*
X75346Y833015D01*
X75528D01*
X76072Y833196D01*
X76434Y833559D01*
X76616Y834103D01*
Y834285D01*
X76434Y834829D01*
X76072Y835192D01*
X75528Y835373D01*
X75346D01*
X74802Y835192D01*
X74439Y834829D01*
X74258Y834285D01*
X79990Y836824D02*
X78176Y833015D01*
X77450Y836824D02*
X79990D01*
X81024Y833378D02*
X80842Y833196D01*
X81024Y833015D01*
X81205Y833196D01*
X81024Y833378D01*
X82039Y836099D02*
X82402Y836280D01*
X82946Y836824D01*
Y833015D01*
X113030Y836601D02*
Y832792D01*
X115206D01*
X117800Y836057D02*
X117619Y836420D01*
X117075Y836601D01*
X116712D01*
X116168Y836420D01*
X115805Y835876D01*
X115624Y834969D01*
Y834062D01*
X115805Y833336D01*
X116168Y832973D01*
X116712Y832792D01*
X116893D01*
X117438Y832973D01*
X117800Y833336D01*
X117982Y833880D01*
Y834062D01*
X117800Y834606D01*
X117438Y834969D01*
X116893Y835150D01*
X116712D01*
X116168Y834969D01*
X115805Y834606D01*
X115624Y834062D01*
X118997Y833155D02*
X118816Y832973D01*
X118997Y832792D01*
X119179Y832973D01*
X118997Y833155D01*
X120013Y835876D02*
X120376Y836057D01*
X120920Y836601D01*
Y832792D01*
X101238Y825736D02*
X100875Y825555D01*
X100512Y825192D01*
X100331Y824829D01*
Y824103D01*
X100512Y823741D01*
X100875Y823378D01*
X101238Y823196D01*
X101782Y823015D01*
X102689D01*
X103233Y823196D01*
X103596Y823378D01*
X103958Y823741D01*
X104140Y824103D01*
Y824829D01*
X103958Y825192D01*
X103596Y825555D01*
X103233Y825736D01*
X100875Y828983D02*
X100512Y828801D01*
X100331Y828257D01*
Y827895D01*
X100512Y827350D01*
X101056Y826988D01*
X101963Y826806D01*
X102870D01*
X103596Y826988D01*
X103958Y827350D01*
X104140Y827895D01*
Y828076D01*
X103958Y828620D01*
X103596Y828983D01*
X103052Y829164D01*
X102870D01*
X102326Y828983D01*
X101963Y828620D01*
X101782Y828076D01*
Y827895D01*
X101963Y827350D01*
X102326Y826988D01*
X102870Y826806D01*
X100331Y831087D02*
X100512Y830543D01*
X101056Y830180D01*
X101963Y829999D01*
X102507D01*
X103414Y830180D01*
X103958Y830543D01*
X104140Y831087D01*
Y831450D01*
X103958Y831994D01*
X103414Y832357D01*
X102507Y832538D01*
X101963D01*
X101056Y832357D01*
X100512Y831994D01*
X100331Y831450D01*
Y831087D01*
X103777Y833572D02*
X103958Y833391D01*
X104140Y833572D01*
X103958Y833753D01*
X103777Y833572D01*
X101056Y834588D02*
X100875Y834951D01*
X100331Y835495D01*
X104140D01*
X79336Y828250D02*
Y824441D01*
Y828250D02*
X80969D01*
X81513Y828069D01*
X81694Y827887D01*
X81875Y827525D01*
Y827162D01*
X81694Y826799D01*
X81513Y826618D01*
X80969Y826436D01*
X79336D01*
X80606D02*
X81875Y824441D01*
X84905Y827706D02*
X84723Y828069D01*
X84179Y828250D01*
X83816D01*
X83272Y828069D01*
X82909Y827525D01*
X82728Y826618D01*
Y825711D01*
X82909Y824985D01*
X83272Y824622D01*
X83816Y824441D01*
X83998D01*
X84542Y824622D01*
X84905Y824985D01*
X85086Y825529D01*
Y825711D01*
X84905Y826255D01*
X84542Y826618D01*
X83998Y826799D01*
X83816D01*
X83272Y826618D01*
X82909Y826255D01*
X82728Y825711D01*
X86827Y828250D02*
X86283Y828069D01*
X86102Y827706D01*
Y827343D01*
X86283Y826981D01*
X86646Y826799D01*
X87372Y826618D01*
X87916Y826436D01*
X88279Y826074D01*
X88460Y825711D01*
Y825167D01*
X88279Y824804D01*
X88097Y824622D01*
X87553Y824441D01*
X86827D01*
X86283Y824622D01*
X86102Y824804D01*
X85920Y825167D01*
Y825711D01*
X86102Y826074D01*
X86465Y826436D01*
X87009Y826618D01*
X87734Y826799D01*
X88097Y826981D01*
X88279Y827343D01*
Y827706D01*
X88097Y828069D01*
X87553Y828250D01*
X86827D01*
X89494Y824804D02*
X89312Y824622D01*
X89494Y824441D01*
X89675Y824622D01*
X89494Y824804D01*
X90510Y827525D02*
X90872Y827706D01*
X91417Y828250D01*
Y824441D01*
X124283Y809341D02*
X124101Y809704D01*
X123738Y810067D01*
X123376Y810248D01*
X122650D01*
X122287Y810067D01*
X121925Y809704D01*
X121743Y809341D01*
X121562Y808797D01*
Y807890D01*
X121743Y807346D01*
X121925Y806983D01*
X122287Y806620D01*
X122650Y806439D01*
X123376D01*
X123738Y806620D01*
X124101Y806983D01*
X124283Y807346D01*
X127529Y810248D02*
X125716D01*
X125534Y808616D01*
X125716Y808797D01*
X126260Y808979D01*
X126804D01*
X127348Y808797D01*
X127711Y808434D01*
X127892Y807890D01*
Y807527D01*
X127711Y806983D01*
X127348Y806620D01*
X126804Y806439D01*
X126260D01*
X125716Y806620D01*
X125534Y806802D01*
X125353Y807165D01*
X130559Y810248D02*
X128745Y807709D01*
X131466D01*
X130559Y810248D02*
Y806439D01*
X132318Y806802D02*
X132137Y806620D01*
X132318Y806439D01*
X132500Y806620D01*
X132318Y806802D01*
X133334Y809523D02*
X133697Y809704D01*
X134241Y810248D01*
Y806439D01*
X93399Y805257D02*
X93217Y805620D01*
X92854Y805983D01*
X92492Y806164D01*
X91766D01*
X91403Y805983D01*
X91041Y805620D01*
X90859Y805257D01*
X90678Y804713D01*
Y803806D01*
X90859Y803262D01*
X91041Y802899D01*
X91403Y802536D01*
X91766Y802355D01*
X92492D01*
X92854Y802536D01*
X93217Y802899D01*
X93399Y803262D01*
X96646Y806164D02*
X94832D01*
X94650Y804532D01*
X94832Y804713D01*
X95376Y804894D01*
X95920D01*
X96464Y804713D01*
X96827Y804350D01*
X97008Y803806D01*
Y803443D01*
X96827Y802899D01*
X96464Y802536D01*
X95920Y802355D01*
X95376D01*
X94832Y802536D01*
X94650Y802718D01*
X94469Y803081D01*
X100037Y805620D02*
X99856Y805983D01*
X99312Y806164D01*
X98949D01*
X98405Y805983D01*
X98042Y805439D01*
X97861Y804532D01*
Y803625D01*
X98042Y802899D01*
X98405Y802536D01*
X98949Y802355D01*
X99131D01*
X99675Y802536D01*
X100037Y802899D01*
X100219Y803443D01*
Y803625D01*
X100037Y804169D01*
X99675Y804532D01*
X99131Y804713D01*
X98949D01*
X98405Y804532D01*
X98042Y804169D01*
X97861Y803625D01*
X101235Y802718D02*
X101053Y802536D01*
X101235Y802355D01*
X101416Y802536D01*
X101235Y802718D01*
X102250Y805439D02*
X102613Y805620D01*
X103158Y806164D01*
Y802355D01*
X91186Y796004D02*
Y792195D01*
X93363D01*
X95956Y796004D02*
X94143D01*
X93961Y794372D01*
X94143Y794553D01*
X94687Y794734D01*
X95231D01*
X95775Y794553D01*
X96138Y794190D01*
X96319Y793646D01*
Y793283D01*
X96138Y792739D01*
X95775Y792376D01*
X95231Y792195D01*
X94687D01*
X94143Y792376D01*
X93961Y792558D01*
X93780Y792921D01*
X97353Y792558D02*
X97172Y792376D01*
X97353Y792195D01*
X97535Y792376D01*
X97353Y792558D01*
X98369Y795278D02*
X98732Y795460D01*
X99276Y796004D01*
Y792195D01*
X103828Y784429D02*
X103646Y784792D01*
X103284Y785155D01*
X102921Y785336D01*
X102195D01*
X101832Y785155D01*
X101470Y784792D01*
X101288Y784429D01*
X101107Y783885D01*
Y782978D01*
X101288Y782434D01*
X101470Y782071D01*
X101832Y781708D01*
X102195Y781527D01*
X102921D01*
X103284Y781708D01*
X103646Y782071D01*
X103828Y782434D01*
X107075Y785336D02*
X105261D01*
X105079Y783704D01*
X105261Y783885D01*
X105805Y784066D01*
X106349D01*
X106893Y783885D01*
X107256Y783522D01*
X107437Y782978D01*
Y782615D01*
X107256Y782071D01*
X106893Y781708D01*
X106349Y781527D01*
X105805D01*
X105261Y781708D01*
X105079Y781890D01*
X104898Y782253D01*
X110467Y785336D02*
X108653D01*
X108471Y783704D01*
X108653Y783885D01*
X109197Y784066D01*
X109741D01*
X110285Y783885D01*
X110648Y783522D01*
X110829Y782978D01*
Y782615D01*
X110648Y782071D01*
X110285Y781708D01*
X109741Y781527D01*
X109197D01*
X108653Y781708D01*
X108471Y781890D01*
X108290Y782253D01*
X111863Y781890D02*
X111682Y781708D01*
X111863Y781527D01*
X112045Y781708D01*
X111863Y781890D01*
X112879Y784611D02*
X113242Y784792D01*
X113786Y785336D01*
Y781527D01*
X118873Y788131D02*
X122682D01*
Y790308D01*
X119598Y790725D02*
X119417Y791088D01*
X118873Y791632D01*
X122682D01*
X122319Y793700D02*
X122500Y793518D01*
X122682Y793700D01*
X122500Y793881D01*
X122319Y793700D01*
X119598Y794715D02*
X119417Y795078D01*
X118873Y795622D01*
X122682D01*
X131210Y790220D02*
X130847Y790039D01*
X130484Y789676D01*
X130303Y789313D01*
Y788587D01*
X130484Y788225D01*
X130847Y787862D01*
X131210Y787680D01*
X131754Y787499D01*
X132661D01*
X133205Y787680D01*
X133568Y787862D01*
X133930Y788225D01*
X134112Y788587D01*
Y789313D01*
X133930Y789676D01*
X133568Y790039D01*
X133205Y790220D01*
X130303Y793467D02*
Y791653D01*
X131935Y791471D01*
X131754Y791653D01*
X131572Y792197D01*
Y792741D01*
X131754Y793285D01*
X132116Y793648D01*
X132661Y793830D01*
X133024D01*
X133568Y793648D01*
X133930Y793285D01*
X134112Y792741D01*
Y792197D01*
X133930Y791653D01*
X133749Y791471D01*
X133386Y791290D01*
X130303Y795045D02*
Y797040D01*
X131754Y795952D01*
Y796496D01*
X131935Y796859D01*
X132116Y797040D01*
X132661Y797222D01*
X133024D01*
X133568Y797040D01*
X133930Y796677D01*
X134112Y796133D01*
Y795589D01*
X133930Y795045D01*
X133749Y794864D01*
X133386Y794682D01*
X133749Y798255D02*
X133930Y798074D01*
X134112Y798255D01*
X133930Y798437D01*
X133749Y798255D01*
X131028Y799271D02*
X130847Y799634D01*
X130303Y800178D01*
X134112D01*
X147066Y803116D02*
Y799307D01*
Y803116D02*
X148698D01*
X149242Y802935D01*
X149424Y802753D01*
X149605Y802391D01*
Y802028D01*
X149424Y801665D01*
X149242Y801484D01*
X148698Y801302D01*
X147066D01*
X148336D02*
X149605Y799307D01*
X152634Y802572D02*
X152453Y802935D01*
X151909Y803116D01*
X151546D01*
X151002Y802935D01*
X150639Y802391D01*
X150458Y801484D01*
Y800577D01*
X150639Y799851D01*
X151002Y799488D01*
X151546Y799307D01*
X151728D01*
X152272Y799488D01*
X152634Y799851D01*
X152816Y800395D01*
Y800577D01*
X152634Y801121D01*
X152272Y801484D01*
X151728Y801665D01*
X151546D01*
X151002Y801484D01*
X150639Y801121D01*
X150458Y800577D01*
X155827Y803116D02*
X154013D01*
X153832Y801484D01*
X154013Y801665D01*
X154557Y801846D01*
X155101D01*
X155646Y801665D01*
X156008Y801302D01*
X156190Y800758D01*
Y800395D01*
X156008Y799851D01*
X155646Y799488D01*
X155101Y799307D01*
X154557D01*
X154013Y799488D01*
X153832Y799670D01*
X153650Y800033D01*
X157224Y799670D02*
X157042Y799488D01*
X157224Y799307D01*
X157405Y799488D01*
X157224Y799670D01*
X158239Y802391D02*
X158602Y802572D01*
X159146Y803116D01*
Y799307D01*
X146285Y778200D02*
X145922Y778018D01*
X145559Y777656D01*
X145378Y777293D01*
Y776567D01*
X145559Y776205D01*
X145922Y775842D01*
X146285Y775660D01*
X146829Y775479D01*
X147736D01*
X148280Y775660D01*
X148643Y775842D01*
X149006Y776205D01*
X149187Y776567D01*
Y777293D01*
X149006Y777656D01*
X148643Y778018D01*
X148280Y778200D01*
X145378Y781084D02*
X147917Y779270D01*
Y781991D01*
X145378Y781084D02*
X149187D01*
X145378Y783025D02*
Y785020D01*
X146829Y783932D01*
Y784476D01*
X147010Y784839D01*
X147192Y785020D01*
X147736Y785202D01*
X148099D01*
X148643Y785020D01*
X149006Y784657D01*
X149187Y784113D01*
Y783569D01*
X149006Y783025D01*
X148824Y782843D01*
X148462Y782662D01*
X148824Y786236D02*
X149006Y786054D01*
X149187Y786236D01*
X149006Y786417D01*
X148824Y786236D01*
X146103Y787251D02*
X145922Y787614D01*
X145378Y788158D01*
X149187D01*
X155848Y781708D02*
X155485Y781526D01*
X155122Y781164D01*
X154941Y780801D01*
Y780075D01*
X155122Y779713D01*
X155485Y779350D01*
X155848Y779168D01*
X156392Y778987D01*
X157299D01*
X157843Y779168D01*
X158206Y779350D01*
X158568Y779713D01*
X158750Y780075D01*
Y780801D01*
X158568Y781164D01*
X158206Y781526D01*
X157843Y781708D01*
X155666Y782778D02*
X155485Y783141D01*
X154941Y783685D01*
X158750D01*
X155485Y787748D02*
X155122Y787567D01*
X154941Y787022D01*
Y786660D01*
X155122Y786115D01*
X155666Y785753D01*
X156573Y785571D01*
X157480D01*
X158206Y785753D01*
X158568Y786115D01*
X158750Y786660D01*
Y786841D01*
X158568Y787385D01*
X158206Y787748D01*
X157662Y787929D01*
X157480D01*
X156936Y787748D01*
X156573Y787385D01*
X156392Y786841D01*
Y786660D01*
X156573Y786115D01*
X156936Y785753D01*
X157480Y785571D01*
X158387Y788945D02*
X158568Y788764D01*
X158750Y788945D01*
X158568Y789127D01*
X158387Y788945D01*
X155666Y789961D02*
X155485Y790324D01*
X154941Y790868D01*
X158750D01*
X166285Y778266D02*
X165922Y778085D01*
X165559Y777722D01*
X165378Y777359D01*
Y776634D01*
X165559Y776271D01*
X165922Y775908D01*
X166285Y775726D01*
X166829Y775545D01*
X167736D01*
X168280Y775726D01*
X168643Y775908D01*
X169006Y776271D01*
X169187Y776634D01*
Y777359D01*
X169006Y777722D01*
X168643Y778085D01*
X168280Y778266D01*
X165378Y779699D02*
Y781694D01*
X166829Y780606D01*
Y781150D01*
X167010Y781513D01*
X167192Y781694D01*
X167736Y781876D01*
X168099D01*
X168643Y781694D01*
X169006Y781331D01*
X169187Y780787D01*
Y780243D01*
X169006Y779699D01*
X168824Y779518D01*
X168461Y779336D01*
X168824Y782910D02*
X169006Y782728D01*
X169187Y782910D01*
X169006Y783091D01*
X168824Y782910D01*
X166103Y783925D02*
X165922Y784288D01*
X165378Y784832D01*
X169187D01*
X166805Y766649D02*
X166623Y767012D01*
X166261Y767375D01*
X165898Y767556D01*
X165172D01*
X164809Y767375D01*
X164447Y767012D01*
X164265Y766649D01*
X164084Y766105D01*
Y765198D01*
X164265Y764654D01*
X164447Y764291D01*
X164809Y763928D01*
X165172Y763747D01*
X165898D01*
X166261Y763928D01*
X166623Y764291D01*
X166805Y764654D01*
X170052Y767556D02*
X168238D01*
X168056Y765924D01*
X168238Y766105D01*
X168782Y766286D01*
X169326D01*
X169870Y766105D01*
X170233Y765742D01*
X170414Y765198D01*
Y764835D01*
X170233Y764291D01*
X169870Y763928D01*
X169326Y763747D01*
X168782D01*
X168238Y763928D01*
X168056Y764110D01*
X167875Y764473D01*
X171448Y766649D02*
Y766831D01*
X171630Y767193D01*
X171811Y767375D01*
X172174Y767556D01*
X172899D01*
X173262Y767375D01*
X173444Y767193D01*
X173625Y766831D01*
Y766468D01*
X173444Y766105D01*
X173081Y765561D01*
X171267Y763747D01*
X173806D01*
X174840Y764110D02*
X174659Y763928D01*
X174840Y763747D01*
X175022Y763928D01*
X174840Y764110D01*
X175856Y766831D02*
X176219Y767012D01*
X176763Y767556D01*
Y763747D01*
X165281Y715595D02*
X165099Y715958D01*
X164736Y716321D01*
X164374Y716502D01*
X163648D01*
X163285Y716321D01*
X162923Y715958D01*
X162741Y715595D01*
X162560Y715051D01*
Y714144D01*
X162741Y713600D01*
X162923Y713237D01*
X163285Y712874D01*
X163648Y712693D01*
X164374D01*
X164736Y712874D01*
X165099Y713237D01*
X165281Y713600D01*
X168528Y716502D02*
X166714D01*
X166532Y714870D01*
X166714Y715051D01*
X167258Y715232D01*
X167802D01*
X168346Y715051D01*
X168709Y714688D01*
X168890Y714144D01*
Y713781D01*
X168709Y713237D01*
X168346Y712874D01*
X167802Y712693D01*
X167258D01*
X166714Y712874D01*
X166532Y713056D01*
X166351Y713419D01*
X169743Y715777D02*
X170106Y715958D01*
X170650Y716502D01*
Y712693D01*
X172718Y713056D02*
X172536Y712874D01*
X172718Y712693D01*
X172899Y712874D01*
X172718Y713056D01*
X173733Y715777D02*
X174096Y715958D01*
X174640Y716502D01*
Y712693D01*
X53994Y738782D02*
X53631Y738600D01*
X53268Y738238D01*
X53087Y737875D01*
Y737149D01*
X53268Y736786D01*
X53631Y736424D01*
X53994Y736242D01*
X54538Y736061D01*
X55445D01*
X55989Y736242D01*
X56352Y736424D01*
X56714Y736786D01*
X56896Y737149D01*
Y737875D01*
X56714Y738238D01*
X56352Y738600D01*
X55989Y738782D01*
X53087Y742029D02*
Y740215D01*
X54719Y740033D01*
X54538Y740215D01*
X54356Y740759D01*
Y741303D01*
X54538Y741847D01*
X54900Y742210D01*
X55445Y742391D01*
X55807D01*
X56352Y742210D01*
X56714Y741847D01*
X56896Y741303D01*
Y740759D01*
X56714Y740215D01*
X56533Y740033D01*
X56170Y739852D01*
X53087Y744332D02*
X53268Y743788D01*
X53812Y743425D01*
X54719Y743244D01*
X55263D01*
X56170Y743425D01*
X56714Y743788D01*
X56896Y744332D01*
Y744695D01*
X56714Y745239D01*
X56170Y745602D01*
X55263Y745783D01*
X54719D01*
X53812Y745602D01*
X53268Y745239D01*
X53087Y744695D01*
Y744332D01*
X56533Y746817D02*
X56714Y746636D01*
X56896Y746817D01*
X56714Y746999D01*
X56533Y746817D01*
X53812Y747833D02*
X53631Y748196D01*
X53087Y748740D01*
X56896D01*
X119846Y688208D02*
X119664Y688571D01*
X119302Y688934D01*
X118939Y689115D01*
X118213D01*
X117850Y688934D01*
X117488Y688571D01*
X117306Y688208D01*
X117125Y687664D01*
Y686757D01*
X117306Y686213D01*
X117488Y685850D01*
X117850Y685488D01*
X118213Y685306D01*
X118939D01*
X119302Y685488D01*
X119664Y685850D01*
X119846Y686213D01*
X121097Y688208D02*
Y688390D01*
X121279Y688753D01*
X121460Y688934D01*
X121823Y689115D01*
X122548D01*
X122911Y688934D01*
X123093Y688753D01*
X123274Y688390D01*
Y688027D01*
X123093Y687664D01*
X122730Y687120D01*
X120916Y685306D01*
X123455D01*
X126847Y689115D02*
X125033Y685306D01*
X124308Y689115D02*
X126847D01*
X127881Y685669D02*
X127700Y685488D01*
X127881Y685306D01*
X128063Y685488D01*
X127881Y685669D01*
X128897Y688390D02*
X129260Y688571D01*
X129804Y689115D01*
Y685306D01*
X77905Y690703D02*
X77723Y691066D01*
X77361Y691429D01*
X76998Y691610D01*
X76272D01*
X75909Y691429D01*
X75547Y691066D01*
X75365Y690703D01*
X75184Y690159D01*
Y689252D01*
X75365Y688708D01*
X75547Y688345D01*
X75909Y687982D01*
X76272Y687801D01*
X76998D01*
X77361Y687982D01*
X77723Y688345D01*
X77905Y688708D01*
X80789Y691610D02*
X78975Y689071D01*
X81696D01*
X80789Y691610D02*
Y687801D01*
X84181Y691610D02*
X82367Y689071D01*
X85088D01*
X84181Y691610D02*
Y687801D01*
X85940Y688164D02*
X85759Y687982D01*
X85940Y687801D01*
X86122Y687982D01*
X85940Y688164D01*
X86956Y690884D02*
X87319Y691066D01*
X87863Y691610D01*
Y687801D01*
D202*
X779235Y681493D02*
X778932Y682098D01*
X778328Y682702D01*
X777723Y683005D01*
X776514D01*
X775909Y682702D01*
X775305Y682098D01*
X775002Y681493D01*
X774700Y680586D01*
Y679074D01*
X775002Y678168D01*
X775305Y677563D01*
X775909Y676958D01*
X776514Y676656D01*
X777723D01*
X778328Y676958D01*
X778932Y677563D01*
X779235Y678168D01*
X784042Y683005D02*
X781018Y678772D01*
X785553D01*
X784042Y683005D02*
Y676656D01*
X786974Y681493D02*
Y681795D01*
X787276Y682400D01*
X787579Y682702D01*
X788183Y683005D01*
X789393D01*
X789997Y682702D01*
X790300Y682400D01*
X790602Y681795D01*
Y681191D01*
X790300Y680586D01*
X789695Y679679D01*
X786672Y676656D01*
X790904D01*
X792627Y677261D02*
X792325Y676958D01*
X792627Y676656D01*
X792930Y676958D01*
X792627Y677261D01*
X794623Y681493D02*
Y681795D01*
X794925Y682400D01*
X795227Y682702D01*
X795832Y683005D01*
X797041D01*
X797646Y682702D01*
X797948Y682400D01*
X798250Y681795D01*
Y681191D01*
X797948Y680586D01*
X797344Y679679D01*
X794320Y676656D01*
X798553D01*
X762508Y862837D02*
Y858302D01*
X762810Y857395D01*
X763415Y856790D01*
X764322Y856488D01*
X764927D01*
X765834Y856790D01*
X766438Y857395D01*
X766740Y858302D01*
Y862837D01*
X768494Y861627D02*
X769099Y861930D01*
X770005Y862837D01*
Y856488D01*
X773149Y861627D02*
X773754Y861930D01*
X774661Y862837D01*
Y856488D01*
X778108Y857093D02*
X777805Y856790D01*
X778108Y856488D01*
X778410Y856790D01*
X778108Y857093D01*
X780103Y861325D02*
Y861627D01*
X780405Y862232D01*
X780707Y862534D01*
X781312Y862837D01*
X782521D01*
X783126Y862534D01*
X783428Y862232D01*
X783731Y861627D01*
Y861023D01*
X783428Y860418D01*
X782824Y859511D01*
X779800Y856488D01*
X784033D01*
X766064Y828703D02*
Y824168D01*
X766366Y823261D01*
X766971Y822656D01*
X767878Y822354D01*
X768483D01*
X769389Y822656D01*
X769994Y823261D01*
X770296Y824168D01*
Y828703D01*
X772050Y827493D02*
X772654Y827796D01*
X773561Y828703D01*
Y822354D01*
X779729Y828703D02*
X776705Y824470D01*
X781240D01*
X779729Y828703D02*
Y822354D01*
X782661Y822959D02*
X782359Y822656D01*
X782661Y822354D01*
X782963Y822656D01*
X782661Y822959D01*
X784656Y827191D02*
Y827493D01*
X784959Y828098D01*
X785261Y828400D01*
X785866Y828703D01*
X787075D01*
X787680Y828400D01*
X787982Y828098D01*
X788284Y827493D01*
Y826889D01*
X787982Y826284D01*
X787377Y825377D01*
X784354Y822354D01*
X788587D01*
X154263Y694028D02*
X153961Y694633D01*
X153357Y695237D01*
X152752Y695540D01*
X151543D01*
X150938Y695237D01*
X150333Y694633D01*
X150031Y694028D01*
X149729Y693121D01*
Y691610D01*
X150031Y690703D01*
X150333Y690098D01*
X150938Y689493D01*
X151543Y689191D01*
X152752D01*
X153357Y689493D01*
X153961Y690098D01*
X154263Y690703D01*
X159070Y695540D02*
X156047Y691307D01*
X160582D01*
X159070Y695540D02*
Y689191D01*
X162003Y694028D02*
Y694330D01*
X162305Y694935D01*
X162607Y695237D01*
X163212Y695540D01*
X164421D01*
X165026Y695237D01*
X165328Y694935D01*
X165631Y694330D01*
Y693726D01*
X165328Y693121D01*
X164724Y692214D01*
X161700Y689191D01*
X165933D01*
X167656Y689796D02*
X167354Y689493D01*
X167656Y689191D01*
X167958Y689493D01*
X167656Y689796D01*
X169349Y694330D02*
X169954Y694633D01*
X170861Y695540D01*
Y689191D01*
X139954Y840200D02*
Y835665D01*
X140256Y834758D01*
X140861Y834153D01*
X141768Y833851D01*
X142372D01*
X143279Y834153D01*
X143884Y834758D01*
X144186Y835665D01*
Y840200D01*
X145940Y838990D02*
X146544Y839293D01*
X147451Y840200D01*
Y833851D01*
X153618Y840200D02*
X150595Y835967D01*
X155130D01*
X153618Y840200D02*
Y833851D01*
X156551Y834455D02*
X156249Y834153D01*
X156551Y833851D01*
X156853Y834153D01*
X156551Y834455D01*
X158244Y838990D02*
X158849Y839293D01*
X159755Y840200D01*
Y833851D01*
X140716Y874490D02*
Y869955D01*
X141018Y869048D01*
X141623Y868443D01*
X142530Y868141D01*
X143134D01*
X144041Y868443D01*
X144646Y869048D01*
X144948Y869955D01*
Y874490D01*
X146702Y873280D02*
X147306Y873583D01*
X148213Y874490D01*
Y868141D01*
X151357Y873280D02*
X151962Y873583D01*
X152869Y874490D01*
Y868141D01*
X156315Y868745D02*
X156013Y868443D01*
X156315Y868141D01*
X156618Y868443D01*
X156315Y868745D01*
X158008Y873280D02*
X158613Y873583D01*
X159520Y874490D01*
Y868141D01*
D203*
X780278Y717928D02*
X784027Y720927D01*
X788150D01*
X780278Y723926D02*
X784027Y720927D01*
X781777Y724938D02*
X781403Y725688D01*
X780278Y726813D01*
X788150D01*
X787400Y731086D02*
X787775Y730711D01*
X788150Y731086D01*
X787775Y731461D01*
X787400Y731086D01*
X782152Y733560D02*
X781777D01*
X781028Y733935D01*
X780653Y734310D01*
X780278Y735060D01*
Y736559D01*
X780653Y737309D01*
X781028Y737684D01*
X781777Y738059D01*
X782527D01*
X783277Y737684D01*
X784401Y736934D01*
X788150Y733185D01*
Y738434D01*
X157611Y729541D02*
X161359Y732540D01*
X165483D01*
X157611Y735539D02*
X161359Y732540D01*
X159110Y736551D02*
X158735Y737301D01*
X157611Y738426D01*
X165483D01*
X164733Y742699D02*
X165108Y742324D01*
X165483Y742699D01*
X165108Y743074D01*
X164733Y742699D01*
X159110Y744798D02*
X158735Y745548D01*
X157611Y746673D01*
X165483D01*
M02*
