G04 Layer_Color=16711935*
%FSLAX44Y44*%
%MOMM*%
G71*
G01*
G75*
%ADD56C,0.2540*%
%ADD58C,0.2000*%
%ADD60C,0.3048*%
%ADD61C,0.5000*%
%ADD84C,0.4000*%
%ADD85C,0.2400*%
%ADD86C,0.2500*%
%ADD87C,0.6000*%
%ADD89C,0.3000*%
%ADD90C,0.1780*%
%ADD91C,0.1200*%
%ADD92C,0.1500*%
%ADD93C,0.1000*%
%ADD96R,1.7000X0.3810*%
%ADD97R,0.3810X1.7000*%
%ADD98R,0.5080X2.7000*%
%ADD163C,0.1270*%
G36*
X29718Y554228D02*
X25908Y561848D01*
X33528D01*
X29718Y554228D01*
D02*
G37*
G36*
X627888Y590296D02*
X620268Y586486D01*
Y594106D01*
X627888Y590296D01*
D02*
G37*
G36*
X1023794Y74845D02*
X1021254Y75692D01*
X1023794Y76539D01*
Y74845D01*
D02*
G37*
G36*
X748907Y110079D02*
X747213D01*
X748060Y112619D01*
X748907Y110079D01*
D02*
G37*
G36*
X306588Y591058D02*
X298968Y587248D01*
Y594868D01*
X306588Y591058D01*
D02*
G37*
G36*
X337566Y783844D02*
X331216Y780034D01*
Y787654D01*
X337566Y783844D01*
D02*
G37*
G36*
X845566Y1037082D02*
X840994Y1044702D01*
X850138D01*
X845566Y1037082D01*
D02*
G37*
G36*
X16500Y782574D02*
X10150Y778764D01*
Y786384D01*
X16500Y782574D01*
D02*
G37*
G36*
X658866Y783082D02*
X652516Y779272D01*
Y786892D01*
X658866Y783082D01*
D02*
G37*
D56*
X202126Y432117D02*
G03*
X202126Y432117I-1136J0D01*
G01*
X669036Y956082D02*
X829036D01*
X669036Y656082D02*
X829036Y656082D01*
Y956082D01*
X669036Y656082D02*
Y956082D01*
X347736Y956844D02*
X507736D01*
X347736Y656844D02*
X507736Y656844D01*
Y956844D01*
X347736Y656844D02*
Y956844D01*
X26670Y955574D02*
X186670D01*
X26670Y655574D02*
X186670Y655574D01*
Y955574D01*
X26670Y655574D02*
Y955574D01*
X717804Y589534D02*
Y632714D01*
X700024Y589534D02*
Y632714D01*
Y628904D02*
X717804D01*
X700024Y632714D02*
X717804D01*
X700024Y589534D02*
X717804D01*
X633094Y770546D02*
X650094D01*
X633094Y799046D02*
X650094D01*
X633094Y770546D02*
Y799046D01*
X650094Y770546D02*
Y799046D01*
X311794Y771308D02*
X328794D01*
X311794Y799808D02*
X328794D01*
X311794Y771308D02*
Y799808D01*
X328794Y771308D02*
Y799808D01*
X396504Y590296D02*
Y633476D01*
X378724Y590296D02*
Y633476D01*
Y629666D02*
X396504D01*
X378724Y633476D02*
X396504D01*
X378724Y590296D02*
X396504D01*
X67130Y559698D02*
Y576698D01*
X38630Y559698D02*
Y576698D01*
Y559698D02*
X67130D01*
X38630Y576698D02*
X67130D01*
X75438Y589026D02*
Y632206D01*
X57658Y589026D02*
Y632206D01*
Y628396D02*
X75438D01*
X57658Y632206D02*
X75438D01*
X57658Y589026D02*
X75438D01*
X906102Y460420D02*
Y550420D01*
X1050102D01*
X906102Y460420D02*
X1050102D01*
Y550420D01*
X950364Y873078D02*
Y902078D01*
X937364D02*
X950364D01*
X937364Y873078D02*
X950364D01*
X937364D02*
Y902078D01*
X951634Y768290D02*
Y797290D01*
X938634D02*
X951634D01*
X938634Y768290D02*
X951634D01*
X938634D02*
Y797290D01*
X950364Y922724D02*
Y951724D01*
X937364D02*
X950364D01*
X937364Y922724D02*
X950364D01*
X937364D02*
Y951724D01*
X950624Y822354D02*
Y851354D01*
X937624D02*
X950624D01*
X937624Y822354D02*
X950624D01*
X937624D02*
Y851354D01*
X950746Y716766D02*
Y745766D01*
X937746D02*
X950746D01*
X937746Y716766D02*
X950746D01*
X937746D02*
Y745766D01*
X691886Y777997D02*
Y765301D01*
X694425Y762762D01*
X699503D01*
X702043Y765301D01*
Y777997D01*
X714739Y762762D02*
Y777997D01*
X707121Y770379D01*
X717278D01*
X722356Y762762D02*
Y765301D01*
X724895D01*
Y762762D01*
X722356D01*
X745209D02*
X735052D01*
X745209Y772919D01*
Y775458D01*
X742670Y777997D01*
X737591D01*
X735052Y775458D01*
X370586Y778759D02*
Y766063D01*
X373125Y763524D01*
X378204D01*
X380743Y766063D01*
Y778759D01*
X393439Y763524D02*
Y778759D01*
X385821Y771142D01*
X395978D01*
X401056Y763524D02*
Y766063D01*
X403595D01*
Y763524D01*
X401056D01*
X413752Y776220D02*
X416291Y778759D01*
X421370D01*
X423909Y776220D01*
Y773681D01*
X421370Y771142D01*
X418830D01*
X421370D01*
X423909Y768602D01*
Y766063D01*
X421370Y763524D01*
X416291D01*
X413752Y766063D01*
X49520Y777489D02*
Y764793D01*
X52059Y762254D01*
X57137D01*
X59677Y764793D01*
Y777489D01*
X72373Y762254D02*
Y777489D01*
X64755Y769872D01*
X74912D01*
X79990Y762254D02*
Y764793D01*
X82529D01*
Y762254D01*
X79990D01*
X92686D02*
X97764D01*
X95225D01*
Y777489D01*
X92686Y774950D01*
X998819Y401075D02*
X993820D01*
X996320D01*
Y388579D01*
X993820Y386080D01*
X991321D01*
X988822Y388579D01*
X1003817Y386080D02*
X1008816D01*
X1006316D01*
Y401075D01*
X1003817Y398576D01*
X996279Y929395D02*
X991280D01*
X993780D01*
Y916899D01*
X991280Y914400D01*
X988781D01*
X986282Y916899D01*
X1008775Y914400D02*
Y929395D01*
X1001277Y921898D01*
X1011274D01*
X148427Y180857D02*
X143428D01*
X145928D01*
Y168361D01*
X143428Y165862D01*
X140929D01*
X138430Y168361D01*
X153425Y165862D02*
X158424D01*
X155924D01*
Y180857D01*
X153425Y178358D01*
X173419Y165862D02*
Y180857D01*
X165921Y173360D01*
X175918D01*
X988405Y673617D02*
X983406D01*
X985906D01*
Y661121D01*
X983406Y658622D01*
X980907D01*
X978408Y661121D01*
X993403Y658622D02*
X998401D01*
X995902D01*
Y673617D01*
X993403Y671118D01*
X1005899D02*
X1008398Y673617D01*
X1013397D01*
X1015896Y671118D01*
Y668619D01*
X1013397Y666120D01*
X1010898D01*
X1013397D01*
X1015896Y663620D01*
Y661121D01*
X1013397Y658622D01*
X1008398D01*
X1005899Y661121D01*
X989167Y843543D02*
X984168D01*
X986668D01*
Y831047D01*
X984168Y828548D01*
X981669D01*
X979170Y831047D01*
X994165Y828548D02*
X999164D01*
X996664D01*
Y843543D01*
X994165Y841044D01*
X1016658Y828548D02*
X1006661D01*
X1016658Y838545D01*
Y841044D01*
X1014159Y843543D01*
X1009160D01*
X1006661Y841044D01*
X991453Y1015755D02*
X986454D01*
X988954D01*
Y1003259D01*
X986454Y1000760D01*
X983955D01*
X981456Y1003259D01*
X996451Y1000760D02*
X1001450D01*
X998950D01*
Y1015755D01*
X996451Y1013256D01*
X1008947Y1000760D02*
X1013945D01*
X1011446D01*
Y1015755D01*
X1008947Y1013256D01*
X997271Y759291D02*
X992272D01*
X994771D01*
Y746795D01*
X992272Y744296D01*
X989773D01*
X987274Y746795D01*
X1012266Y759291D02*
X1002269D01*
Y751794D01*
X1007268Y754293D01*
X1009767D01*
X1012266Y751794D01*
Y746795D01*
X1009767Y744296D01*
X1004768D01*
X1002269Y746795D01*
X995263Y587511D02*
X990264D01*
X992764D01*
Y575015D01*
X990264Y572516D01*
X987765D01*
X985266Y575015D01*
X1000261Y585012D02*
X1002760Y587511D01*
X1007759D01*
X1010258Y585012D01*
Y582513D01*
X1007759Y580014D01*
X1005259D01*
X1007759D01*
X1010258Y577514D01*
Y575015D01*
X1007759Y572516D01*
X1002760D01*
X1000261Y575015D01*
D58*
X540456Y782465D02*
G03*
X540456Y782465I-1000J0D01*
G01*
X861756Y781703D02*
G03*
X861756Y781703I-1000J0D01*
G01*
X219390Y781195D02*
G03*
X219390Y781195I-1000J0D01*
G01*
X274066Y984392D02*
X858266D01*
Y1033892D01*
X274066Y984392D02*
Y1033892D01*
X858266D01*
X457474Y129280D02*
Y174280D01*
X523474D01*
X457474Y129280D02*
X523474D01*
Y174280D01*
X494024Y456466D02*
X539024D01*
Y390466D02*
Y456466D01*
X494024Y390466D02*
Y456466D01*
Y390466D02*
X539024D01*
X320288Y475986D02*
X365288D01*
Y409986D02*
Y475986D01*
X320288Y409986D02*
Y475986D01*
Y409986D02*
X365288D01*
X837294Y448706D02*
X884794D01*
X837294Y409306D02*
X884794D01*
X837294D02*
Y448706D01*
X884794Y409306D02*
Y448706D01*
X333896Y358910D02*
X454596D01*
X333896Y226810D02*
Y358910D01*
Y226810D02*
X454596D01*
Y358910D01*
X177140Y227066D02*
X297840D01*
Y359166D01*
X177140D02*
X297840D01*
X177140Y227066D02*
Y359166D01*
X834082Y129032D02*
X859082D01*
Y78232D02*
Y129032D01*
X834082Y78232D02*
X859082D01*
X834082D02*
Y129032D01*
X239722Y18288D02*
X264722D01*
X239722D02*
Y69088D01*
X264722D01*
Y18288D02*
Y69088D01*
X503552Y370920D02*
Y380920D01*
X483552D02*
X503552D01*
X483552Y370920D02*
X503552D01*
X483552D02*
Y380920D01*
X315816Y390986D02*
Y400986D01*
X295816D02*
X315816D01*
X295816Y390986D02*
X315816D01*
X295816D02*
Y400986D01*
X974986Y64008D02*
Y84328D01*
X939426Y64008D02*
Y84328D01*
X974986D01*
X939426Y64008D02*
X974986D01*
X981844Y19050D02*
Y41910D01*
X936124Y19050D02*
Y41910D01*
X981844D01*
X936124Y19050D02*
X981844D01*
X988662Y79662D02*
Y99662D01*
X978662D02*
X988662D01*
X978662Y79662D02*
Y99662D01*
Y79662D02*
X988662D01*
X1012538Y120302D02*
Y140302D01*
X1002538D02*
X1012538D01*
X1002538Y120302D02*
Y140302D01*
Y120302D02*
X1012538D01*
X1041259Y76729D02*
Y104729D01*
X1027259Y76729D02*
X1041259D01*
X1027259Y104729D02*
X1041259D01*
X1027259Y76729D02*
Y104729D01*
X772030Y145211D02*
Y155211D01*
X752030D02*
X772030D01*
X752030Y145211D02*
X772030D01*
X752030D02*
Y155211D01*
X812670Y121335D02*
Y131335D01*
X792670D02*
X812670D01*
X792670Y121335D02*
X812670D01*
X792670D02*
Y131335D01*
X774294Y161651D02*
Y189651D01*
X760294D02*
X774294D01*
X760294Y161651D02*
X774294D01*
X760294D02*
Y189651D01*
X757642Y161681D02*
Y197241D01*
X737322D02*
X757642D01*
X737322Y161681D02*
Y197241D01*
Y161681D02*
X757642D01*
X713994Y152140D02*
Y197860D01*
X691134D02*
X713994D01*
X691134Y152140D02*
Y197860D01*
Y152140D02*
X713994D01*
X962044Y406146D02*
X1037444D01*
Y380746D02*
Y406146D01*
X962044Y380746D02*
X1037444D01*
X962044D02*
Y406146D01*
X960520Y909320D02*
X1035920D01*
X960520D02*
Y934720D01*
X1035920D01*
Y909320D02*
Y934720D01*
X850058Y814738D02*
Y834738D01*
X840058Y814738D02*
X850058D01*
X840058Y834738D02*
X850058D01*
X840058Y814738D02*
Y834738D01*
X735726Y592854D02*
Y620854D01*
X721726D02*
X735726D01*
X721726Y592854D02*
X735726D01*
X721726D02*
Y620854D01*
X752744Y592764D02*
Y620764D01*
X738744D02*
X752744D01*
X738744Y592764D02*
X752744D01*
X738744D02*
Y620764D01*
X770770Y622004D02*
Y624424D01*
Y591524D02*
Y622004D01*
X755770Y591524D02*
Y622004D01*
Y624424D02*
X770770D01*
X755770Y622004D02*
X770770D01*
X755770D02*
Y624424D01*
Y591524D02*
X770770D01*
X414416Y593616D02*
Y621616D01*
X400416D02*
X414416D01*
X400416Y593616D02*
X414416D01*
X400416D02*
Y621616D01*
X431444Y593526D02*
Y621526D01*
X417444D02*
X431444D01*
X417444Y593526D02*
X431444D01*
X417444D02*
Y621526D01*
X528758Y815500D02*
Y835500D01*
X518758Y815500D02*
X528758D01*
X518758Y835500D02*
X528758D01*
X518758Y815500D02*
Y835500D01*
X93360Y592256D02*
Y620256D01*
X79360D02*
X93360D01*
X79360Y592256D02*
X93360D01*
X79360D02*
Y620256D01*
X110378Y591758D02*
Y619758D01*
X96378D02*
X110378D01*
X96378Y591758D02*
X110378D01*
X96378D02*
Y619758D01*
X207692Y814230D02*
Y834230D01*
X197692Y814230D02*
X207692D01*
X197692Y834230D02*
X207692D01*
X197692Y814230D02*
Y834230D01*
X119272Y161036D02*
X194672D01*
X119272D02*
Y186436D01*
X194672D01*
Y161036D02*
Y186436D01*
X960520Y653542D02*
X1035920D01*
X960520D02*
Y678942D01*
X1035920D01*
Y653542D02*
Y678942D01*
X960774Y823976D02*
X1036174D01*
X960774D02*
Y849376D01*
X1036174D01*
Y823976D02*
Y849376D01*
X960520Y994664D02*
X1035920D01*
X960520D02*
Y1020064D01*
X1035920D01*
Y994664D02*
Y1020064D01*
X960750Y738708D02*
X1036150D01*
X960750D02*
Y764108D01*
X1036150D01*
Y738708D02*
Y764108D01*
X960666Y568198D02*
X1036066D01*
X960666D02*
Y593598D01*
X1036066D01*
Y568198D02*
Y593598D01*
X112442Y474596D02*
Y494596D01*
X102442D02*
X112442D01*
X102442Y474596D02*
X112442D01*
X102442D02*
Y494596D01*
X26322Y386340D02*
Y396340D01*
X46322D01*
Y386340D02*
Y396340D01*
X26322Y386340D02*
X46322D01*
X218012Y33106D02*
X228012D01*
Y13106D02*
Y33106D01*
X218012Y13106D02*
X228012D01*
X218012D02*
Y33106D01*
X180420Y446736D02*
X190420D01*
X180420D02*
Y466736D01*
X190420D01*
Y446736D02*
Y466736D01*
X66628Y67978D02*
X76628D01*
X66628D02*
Y87978D01*
X76628D01*
Y67978D02*
Y87978D01*
X78660Y251406D02*
Y271406D01*
X68660D02*
X78660D01*
X68660Y251406D02*
X78660D01*
X68660D02*
Y271406D01*
X225448Y703406D02*
Y713406D01*
X205448D02*
X225448D01*
X205448Y703406D02*
Y713406D01*
Y703406D02*
X225448D01*
X867814Y703914D02*
Y713914D01*
X847814Y703914D02*
X867814D01*
X847814D02*
Y713914D01*
X867814D01*
X546514Y704676D02*
Y714676D01*
X526514Y704676D02*
X546514D01*
X526514D02*
Y714676D01*
X546514D01*
X153820Y580978D02*
Y590978D01*
X133820D02*
X153820D01*
X133820Y580978D02*
Y590978D01*
Y580978D02*
X153820D01*
X796186Y581994D02*
Y591994D01*
X776186D02*
X796186D01*
X776186Y581994D02*
Y591994D01*
Y581994D02*
X796186D01*
X474886Y582248D02*
Y592248D01*
X454886Y582248D02*
X474886D01*
X454886D02*
Y592248D01*
X474886D01*
X174244Y596646D02*
Y632206D01*
X153924D02*
X174244D01*
X153924Y596646D02*
Y632206D01*
Y596646D02*
X174244D01*
X816610Y597170D02*
Y632730D01*
X796290D02*
X816610D01*
X796290Y597170D02*
Y632730D01*
Y597170D02*
X816610D01*
X495310Y597932D02*
Y633492D01*
X474990D02*
X495310D01*
X474990Y597932D02*
Y633492D01*
Y597932D02*
X495310D01*
X703834Y419354D02*
Y454914D01*
X683514D02*
X703834D01*
X683514Y419354D02*
Y454914D01*
Y419354D02*
X703834D01*
X721557Y285830D02*
Y295830D01*
X701557D02*
X721557D01*
X701557Y285830D02*
Y295830D01*
Y285830D02*
X721557D01*
X733806Y300990D02*
Y321310D01*
X698246D02*
X733806D01*
X698246Y300990D02*
X733806D01*
X698246D02*
Y321310D01*
X731876Y451816D02*
X745876D01*
X731876Y423816D02*
Y451816D01*
X745876Y423816D02*
Y451816D01*
X731876Y423816D02*
X745876D01*
X761658Y286116D02*
Y296116D01*
X741658D02*
X761658D01*
X741658Y286116D02*
Y296116D01*
Y286116D02*
X761658D01*
X773938Y300990D02*
Y321310D01*
X738378D02*
X773938D01*
X738378Y300990D02*
X773938D01*
X738378D02*
Y321310D01*
X628128Y349838D02*
Y359838D01*
X648128D01*
Y349838D02*
Y359838D01*
X628128Y349838D02*
X648128D01*
X634760Y211916D02*
Y221916D01*
X614760D02*
X634760D01*
X614760Y211916D02*
Y221916D01*
Y211916D02*
X634760D01*
X551496Y268776D02*
Y278776D01*
X571496D01*
Y268776D02*
Y278776D01*
X551496Y268776D02*
X571496D01*
X518860Y274204D02*
Y284204D01*
X498860D02*
X518860D01*
X498860Y274204D02*
Y284204D01*
Y274204D02*
X518860D01*
X308436Y98520D02*
X318436D01*
X308436D02*
Y118520D01*
X318436D01*
Y98520D02*
Y118520D01*
X914146Y374904D02*
X949706D01*
X914146Y354584D02*
Y374904D01*
Y354584D02*
X949706D01*
Y374904D01*
X914146Y396748D02*
X949706D01*
X914146Y376428D02*
Y396748D01*
Y376428D02*
X949706D01*
Y396748D01*
X869188Y368300D02*
Y403860D01*
Y368300D02*
X889508D01*
Y403860D01*
X869188D02*
X889508D01*
X891794Y368300D02*
Y403860D01*
Y368300D02*
X912114D01*
Y403860D01*
X891794D02*
X912114D01*
X919862Y699770D02*
Y712470D01*
X940182D01*
X919862Y699770D02*
X940182D01*
Y712470D01*
Y699770D02*
X942722D01*
X940182Y712470D02*
X942722D01*
Y699770D02*
Y712470D01*
X128404Y621496D02*
Y623916D01*
Y591016D02*
Y621496D01*
X113404Y591016D02*
Y621496D01*
Y623916D02*
X128404D01*
X113404Y621496D02*
X128404D01*
X113404D02*
Y623916D01*
Y591016D02*
X128404D01*
X449470Y622766D02*
Y625186D01*
Y592286D02*
Y622766D01*
X434470Y592286D02*
Y622766D01*
Y625186D02*
X449470D01*
X434470Y622766D02*
X449470D01*
X434470D02*
Y625186D01*
Y592286D02*
X449470D01*
X837496Y479082D02*
X876496D01*
X837496Y452082D02*
X876496D01*
Y479082D01*
X837496Y452082D02*
Y479082D01*
X919480Y905728D02*
Y918428D01*
X939800D01*
X919480Y905728D02*
X939800D01*
Y918428D01*
Y905728D02*
X942340D01*
X939800Y918428D02*
X942340D01*
Y905728D02*
Y918428D01*
X919740Y805358D02*
Y818058D01*
X940060D01*
X919740Y805358D02*
X940060D01*
Y818058D01*
Y805358D02*
X942600D01*
X940060Y818058D02*
X942600D01*
Y805358D02*
Y818058D01*
X919480Y856082D02*
Y868782D01*
X939800D01*
X919480Y856082D02*
X939800D01*
Y868782D01*
Y856082D02*
X942340D01*
X939800Y868782D02*
X942340D01*
Y856082D02*
Y868782D01*
X920750Y751294D02*
Y763994D01*
X941070D01*
X920750Y751294D02*
X941070D01*
Y763994D01*
Y751294D02*
X943610D01*
X941070Y763994D02*
X943610D01*
Y751294D02*
Y763994D01*
X21462Y342572D02*
X34162D01*
X21462D02*
Y362892D01*
X34162Y342572D02*
Y362892D01*
X21462D02*
X34162D01*
Y365432D01*
X21462Y362892D02*
Y365432D01*
X34162D01*
X779126Y482600D02*
Y495300D01*
X758806Y482600D02*
X779126D01*
X758806Y495300D02*
X779126D01*
X758806Y482600D02*
Y495300D01*
X756266D02*
X758806D01*
X756266Y482600D02*
X758806D01*
X756266D02*
Y495300D01*
X656082Y185414D02*
X668782D01*
Y165094D02*
Y185414D01*
X656082Y165094D02*
Y185414D01*
Y165094D02*
X668782D01*
X656082Y162554D02*
Y165094D01*
X668782Y162554D02*
Y165094D01*
X656082Y162554D02*
X668782D01*
X63880Y342318D02*
X76580D01*
X63880D02*
Y362638D01*
X76580Y342318D02*
Y362638D01*
X63880D02*
X76580D01*
Y365178D01*
X63880Y362638D02*
Y365178D01*
X76580D01*
X948690Y410464D02*
Y433324D01*
X902970Y410464D02*
X948690D01*
X902970Y433324D02*
X948690D01*
X902970Y410464D02*
Y433324D01*
X17018Y527808D02*
Y552708D01*
X194818D01*
X17018Y527808D02*
X194818D01*
Y552708D01*
X629408Y577596D02*
X654308D01*
X629408D02*
Y755396D01*
X654308Y577596D02*
Y755396D01*
X629408D02*
X654308D01*
X308108Y578358D02*
X333008D01*
X308108D02*
Y756158D01*
X333008Y578358D02*
Y756158D01*
X308108D02*
X333008D01*
X69746Y96924D02*
Y194924D01*
X-254Y96924D02*
X69746D01*
X-254D02*
Y194924D01*
X69746D01*
X818388Y388112D02*
Y408432D01*
X782828D02*
X818388D01*
X782828Y388112D02*
Y408432D01*
Y388112D02*
X818388D01*
X796544Y415036D02*
Y450596D01*
X776224D02*
X796544D01*
X776224Y415036D02*
Y450596D01*
Y415036D02*
X796544D01*
X864982Y107002D02*
Y135002D01*
Y107002D02*
X878982D01*
Y135002D01*
X864982D02*
X878982D01*
X232948Y684642D02*
Y698642D01*
X204948D02*
X232948D01*
X204948Y684642D02*
X232948D01*
X204948D02*
Y698642D01*
X875314Y685150D02*
Y699150D01*
X847314D02*
X875314D01*
X847314Y685150D02*
X875314D01*
X847314D02*
Y699150D01*
X554014Y685912D02*
Y699912D01*
X526014D02*
X554014D01*
X526014Y685912D02*
X554014D01*
X526014D02*
Y699912D01*
X47400Y459270D02*
Y473270D01*
X19400D02*
X47400D01*
X19400Y459270D02*
X47400D01*
X19400D02*
Y473270D01*
X813238Y481950D02*
Y495950D01*
X785238D02*
X813238D01*
X785238Y481950D02*
X813238D01*
X785238D02*
Y495950D01*
X686958Y157190D02*
Y185190D01*
X672958D02*
X686958D01*
X672958Y157190D02*
Y185190D01*
Y157190D02*
X686958D01*
X835122Y357968D02*
Y399968D01*
Y357968D02*
X863122D01*
Y399968D01*
X835122D02*
X863122D01*
X45622Y407932D02*
Y449932D01*
X17622D02*
X45622D01*
X17622Y407932D02*
Y449932D01*
Y407932D02*
X45622D01*
X266096Y82347D02*
Y124347D01*
X238096D02*
X266096D01*
X238096Y82347D02*
Y124347D01*
Y82347D02*
X266096D01*
X596628Y341746D02*
X635628D01*
X596628Y292746D02*
Y341746D01*
X635628Y292746D02*
Y341746D01*
X596628Y292746D02*
X635628D01*
X627260Y230516D02*
X666260D01*
Y279516D01*
X627260Y230516D02*
Y279516D01*
X666260D01*
X519996Y262716D02*
X558996D01*
X519996Y213716D02*
Y262716D01*
X558996Y213716D02*
Y262716D01*
X519996Y213716D02*
X558996D01*
X295286Y142654D02*
Y181654D01*
Y142654D02*
X344286D01*
X295286Y181654D02*
X344286D01*
Y142654D02*
Y181654D01*
X511360Y293000D02*
X550360D01*
Y342000D01*
X511360Y293000D02*
Y342000D01*
X550360D01*
X81812Y27606D02*
Y103606D01*
X211812D01*
X81812Y27606D02*
X211812D01*
Y103606D01*
X196150Y427987D02*
Y451487D01*
X226150D01*
Y427987D02*
Y451487D01*
X196150Y427987D02*
X226150D01*
X579879Y140948D02*
Y169948D01*
X563629D02*
X579879D01*
X563629Y140948D02*
X579879D01*
X563629D02*
Y169948D01*
X544750Y104808D02*
Y124808D01*
X534750D02*
X544750D01*
X534750Y104808D02*
Y124808D01*
Y104808D02*
X544750D01*
X597488Y170448D02*
X607488D01*
Y150448D02*
Y170448D01*
X597488Y150448D02*
X607488D01*
X597488D02*
Y170448D01*
X1030310Y883012D02*
Y903332D01*
X987130Y883012D02*
X1030310D01*
X987130Y903332D02*
X1030310D01*
X987130Y883012D02*
Y903332D01*
X1030540Y712400D02*
Y732720D01*
X987360Y712400D02*
X1030540D01*
X987360Y732720D02*
X1030540D01*
X987360Y712400D02*
Y732720D01*
X1030310Y968356D02*
Y988676D01*
X987130Y968356D02*
X1030310D01*
X987130Y988676D02*
X1030310D01*
X987130Y968356D02*
Y988676D01*
X1030564Y797668D02*
Y817988D01*
X987384Y797668D02*
X1030564D01*
X987384Y817988D02*
X1030564D01*
X987384Y797668D02*
Y817988D01*
X1030780Y685002D02*
Y705322D01*
X987600Y685002D02*
X1030780D01*
X987600Y705322D02*
X1030780D01*
X987600Y685002D02*
Y705322D01*
X944476Y87742D02*
X972476D01*
X944476D02*
Y101742D01*
X972476D01*
Y87742D02*
Y101742D01*
X151130Y595167D02*
Y633267D01*
X130810D02*
X151130D01*
X130810Y595167D02*
X151130D01*
X130810D02*
Y633267D01*
X793496Y595675D02*
Y633775D01*
X773176D02*
X793496D01*
X773176Y595675D02*
X793496D01*
X773176D02*
Y633775D01*
X472196Y596437D02*
Y634537D01*
X451876D02*
X472196D01*
X451876Y596437D02*
X472196D01*
X451876D02*
Y634537D01*
X777300Y92411D02*
Y106411D01*
X749300D02*
X777300D01*
X749300Y92411D02*
X777300D01*
X749300D02*
Y106411D01*
X744920Y114189D02*
Y138989D01*
Y114189D02*
X781680D01*
X744920Y138989D02*
X781680D01*
Y114189D02*
Y138989D01*
X1019684Y72552D02*
Y109312D01*
X994884D02*
X1019684D01*
X994884Y72552D02*
X1019684D01*
X994884D02*
Y109312D01*
X543814Y997712D02*
Y1017706D01*
X553811D01*
X557143Y1014373D01*
Y1007709D01*
X553811Y1004377D01*
X543814D01*
X563808Y1014373D02*
X567140Y1017706D01*
X573804D01*
X577137Y1014373D01*
Y1011041D01*
X573804Y1007709D01*
X570472D01*
X573804D01*
X577137Y1004377D01*
Y1001044D01*
X573804Y997712D01*
X567140D01*
X563808Y1001044D01*
X463550Y161472D02*
Y144810D01*
X466882Y141478D01*
X473547D01*
X476879Y144810D01*
Y161472D01*
X496873Y141478D02*
X483544D01*
X496873Y154807D01*
Y158139D01*
X493540Y161472D01*
X486876D01*
X483544Y158139D01*
X516866Y141478D02*
X503537D01*
X516866Y154807D01*
Y158139D01*
X513534Y161472D01*
X506869D01*
X503537Y158139D01*
X502738Y396494D02*
X519400D01*
X522732Y399826D01*
Y406491D01*
X519400Y409823D01*
X502738D01*
X522732Y429817D02*
Y416488D01*
X509403Y429817D01*
X506071D01*
X502738Y426484D01*
Y419820D01*
X506071Y416488D01*
Y436481D02*
X502738Y439813D01*
Y446478D01*
X506071Y449810D01*
X519400D01*
X522732Y446478D01*
Y439813D01*
X519400Y436481D01*
X506071D01*
X325192Y422656D02*
X341854D01*
X345186Y425988D01*
Y432653D01*
X341854Y435985D01*
X325192D01*
X345186Y455979D02*
Y442650D01*
X331857Y455979D01*
X328525D01*
X325192Y452646D01*
Y445982D01*
X328525Y442650D01*
X345186Y462643D02*
Y469308D01*
Y465975D01*
X325192D01*
X328525Y462643D01*
X81026Y434268D02*
Y417606D01*
X84358Y414274D01*
X91023D01*
X94355Y417606D01*
Y434268D01*
X114349Y414274D02*
X101020D01*
X114349Y427603D01*
Y430935D01*
X111016Y434268D01*
X104352D01*
X101020Y430935D01*
X131010Y414274D02*
Y434268D01*
X121013Y424271D01*
X134342D01*
X547239Y783735D02*
X555570D01*
X557236Y785401D01*
Y788734D01*
X555570Y790400D01*
X547239D01*
X548905Y793732D02*
X547239Y795398D01*
Y798730D01*
X548905Y800396D01*
X550572D01*
X552238Y798730D01*
Y797064D01*
Y798730D01*
X553904Y800396D01*
X555570D01*
X557236Y798730D01*
Y795398D01*
X555570Y793732D01*
X557236Y803729D02*
X555570D01*
Y805395D01*
X557236D01*
Y803729D01*
X548905Y812059D02*
X547239Y813726D01*
Y817058D01*
X548905Y818724D01*
X550572D01*
X552238Y817058D01*
Y815392D01*
Y817058D01*
X553904Y818724D01*
X555570D01*
X557236Y817058D01*
Y813726D01*
X555570Y812059D01*
X868539Y782973D02*
X876870D01*
X878536Y784639D01*
Y787972D01*
X876870Y789638D01*
X868539D01*
X870205Y792970D02*
X868539Y794636D01*
Y797968D01*
X870205Y799634D01*
X871871D01*
X873538Y797968D01*
Y796302D01*
Y797968D01*
X875204Y799634D01*
X876870D01*
X878536Y797968D01*
Y794636D01*
X876870Y792970D01*
X878536Y802967D02*
X876870D01*
Y804633D01*
X878536D01*
Y802967D01*
Y817962D02*
Y811298D01*
X871871Y817962D01*
X870205D01*
X868539Y816296D01*
Y812964D01*
X870205Y811298D01*
X226173Y782465D02*
X234504D01*
X236170Y784131D01*
Y787464D01*
X234504Y789130D01*
X226173D01*
X227839Y792462D02*
X226173Y794128D01*
Y797460D01*
X227839Y799127D01*
X229506D01*
X231172Y797460D01*
Y795794D01*
Y797460D01*
X232838Y799127D01*
X234504D01*
X236170Y797460D01*
Y794128D01*
X234504Y792462D01*
X236170Y802459D02*
X234504D01*
Y804125D01*
X236170D01*
Y802459D01*
Y810789D02*
Y814122D01*
Y812456D01*
X226173D01*
X227839Y810789D01*
X846836Y433669D02*
Y423672D01*
X851834D01*
X853501Y425338D01*
Y432003D01*
X851834Y433669D01*
X846836D01*
X856833Y423672D02*
X860165D01*
X858499D01*
Y433669D01*
X856833Y432003D01*
X871828Y423672D02*
X865163D01*
X871828Y430336D01*
Y432003D01*
X870162Y433669D01*
X866830D01*
X865163Y432003D01*
X92831Y550346D02*
X86166D01*
X89499D01*
Y533684D01*
X86166Y530352D01*
X82834D01*
X79502Y533684D01*
X112825Y530352D02*
X99496D01*
X112825Y543681D01*
Y547013D01*
X109492Y550346D01*
X102828D01*
X99496Y547013D01*
X119489Y530352D02*
Y533684D01*
X122821D01*
Y530352D01*
X119489D01*
X136150D02*
X142815D01*
X139483D01*
Y550346D01*
X136150Y547013D01*
X632278Y635121D02*
Y628456D01*
Y631789D01*
X648940D01*
X652272Y628456D01*
Y625124D01*
X648940Y621792D01*
X652272Y655115D02*
Y641786D01*
X638943Y655115D01*
X635611D01*
X632278Y651782D01*
Y645118D01*
X635611Y641786D01*
X652272Y661779D02*
X648940D01*
Y665111D01*
X652272D01*
Y661779D01*
Y691769D02*
Y678440D01*
X638943Y691769D01*
X635611D01*
X632278Y688437D01*
Y681773D01*
X635611Y678440D01*
X311222Y635629D02*
Y628965D01*
Y632297D01*
X327884D01*
X331216Y628965D01*
Y625632D01*
X327884Y622300D01*
X331216Y655623D02*
Y642294D01*
X317887Y655623D01*
X314555D01*
X311222Y652290D01*
Y645626D01*
X314555Y642294D01*
X331216Y662287D02*
X327884D01*
Y665619D01*
X331216D01*
Y662287D01*
X314555Y678948D02*
X311222Y682281D01*
Y688945D01*
X314555Y692277D01*
X317887D01*
X321219Y688945D01*
Y685613D01*
Y688945D01*
X324552Y692277D01*
X327884D01*
X331216Y688945D01*
Y682281D01*
X327884Y678948D01*
X962273Y518342D02*
X955609D01*
X958941D01*
Y501680D01*
X955609Y498348D01*
X952276D01*
X948944Y501680D01*
X968938Y498348D02*
X975602D01*
X972270D01*
Y518342D01*
X968938Y515009D01*
X998928Y518342D02*
X985599D01*
Y508345D01*
X992263Y511677D01*
X995596D01*
X998928Y508345D01*
Y501680D01*
X995596Y498348D01*
X988931D01*
X985599Y501680D01*
X23114Y137668D02*
Y157662D01*
X33111D01*
X36443Y154329D01*
Y147665D01*
X33111Y144333D01*
X23114D01*
X43108Y137668D02*
X49772D01*
X46440D01*
Y157662D01*
X43108Y154329D01*
X946341Y884426D02*
X941010D01*
X939677Y883093D01*
Y880427D01*
X941010Y879094D01*
X946341D01*
X947674Y880427D01*
Y883093D01*
X945008Y881760D02*
X947674Y884426D01*
Y883093D02*
X946341Y884426D01*
X947674Y887091D02*
Y889757D01*
Y888424D01*
X939677D01*
X941010Y887091D01*
X947611Y778076D02*
X942280D01*
X940947Y776743D01*
Y774077D01*
X942280Y772744D01*
X947611D01*
X948944Y774077D01*
Y776743D01*
X946278Y775410D02*
X948944Y778076D01*
Y776743D02*
X947611Y778076D01*
X948944Y786073D02*
Y780741D01*
X943612Y786073D01*
X942280D01*
X940947Y784740D01*
Y782074D01*
X942280Y780741D01*
X946341Y932940D02*
X941010D01*
X939677Y931607D01*
Y928941D01*
X941010Y927608D01*
X946341D01*
X947674Y928941D01*
Y931607D01*
X945008Y930274D02*
X947674Y932940D01*
Y931607D02*
X946341Y932940D01*
X941010Y935605D02*
X939677Y936938D01*
Y939604D01*
X941010Y940937D01*
X942342D01*
X943675Y939604D01*
Y938271D01*
Y939604D01*
X945008Y940937D01*
X946341D01*
X947674Y939604D01*
Y936938D01*
X946341Y935605D01*
X946601Y832102D02*
X941270D01*
X939937Y830769D01*
Y828103D01*
X941270Y826770D01*
X946601D01*
X947934Y828103D01*
Y830769D01*
X945268Y829436D02*
X947934Y832102D01*
Y830769D02*
X946601Y832102D01*
X947934Y838766D02*
X939937D01*
X943935Y834767D01*
Y840099D01*
X947357Y727708D02*
X942026D01*
X940693Y726375D01*
Y723709D01*
X942026Y722376D01*
X947357D01*
X948690Y723709D01*
Y726375D01*
X946024Y725042D02*
X948690Y727708D01*
Y726375D02*
X947357Y727708D01*
X940693Y735705D02*
Y730373D01*
X944691D01*
X943358Y733039D01*
Y734372D01*
X944691Y735705D01*
X947357D01*
X948690Y734372D01*
Y731706D01*
X947357Y730373D01*
X215903Y910336D02*
X222250D01*
X223520Y911606D01*
Y914145D01*
X222250Y915414D01*
X215903D01*
X223520Y917953D02*
Y920493D01*
Y919223D01*
X215903D01*
X217172Y917953D01*
X223520Y924302D02*
X222250D01*
Y925571D01*
X223520D01*
Y924302D01*
Y930649D02*
Y933189D01*
Y931919D01*
X215903D01*
X217172Y930649D01*
X854967Y892302D02*
X861314D01*
X862584Y893572D01*
Y896111D01*
X861314Y897380D01*
X854967D01*
X862584Y899920D02*
Y902459D01*
Y901189D01*
X854967D01*
X856236Y899920D01*
X862584Y906267D02*
X861314D01*
Y907537D01*
X862584D01*
Y906267D01*
Y917694D02*
Y912615D01*
X857506Y917694D01*
X856236D01*
X854967Y916424D01*
Y913885D01*
X856236Y912615D01*
X576582Y709168D02*
X582930D01*
X584200Y710438D01*
Y712977D01*
X582930Y714246D01*
X576582D01*
X584200Y716786D02*
Y719325D01*
Y718055D01*
X576582D01*
X577852Y716786D01*
X584200Y723133D02*
X582930D01*
Y724403D01*
X584200D01*
Y723133D01*
X577852Y729481D02*
X576582Y730751D01*
Y733290D01*
X577852Y734560D01*
X579122D01*
X580391Y733290D01*
Y732021D01*
Y733290D01*
X581661Y734560D01*
X582930D01*
X584200Y733290D01*
Y730751D01*
X582930Y729481D01*
X751078Y130901D02*
Y122570D01*
X752744Y120904D01*
X756076D01*
X757742Y122570D01*
Y130901D01*
X761075Y120904D02*
X764407D01*
X762741D01*
Y130901D01*
X761075Y129235D01*
X769405D02*
X771072Y130901D01*
X774404D01*
X776070Y129235D01*
Y127569D01*
X774404Y125902D01*
X772738D01*
X774404D01*
X776070Y124236D01*
Y122570D01*
X774404Y120904D01*
X771072D01*
X769405Y122570D01*
X1002701Y78486D02*
X1011032D01*
X1012698Y80152D01*
Y83484D01*
X1011032Y85150D01*
X1002701D01*
X1012698Y88483D02*
Y91815D01*
Y90149D01*
X1002701D01*
X1004367Y88483D01*
X1012698Y103478D02*
Y96813D01*
X1006033Y103478D01*
X1004367D01*
X1002701Y101812D01*
Y98480D01*
X1004367Y96813D01*
X681836Y388086D02*
Y371424D01*
X685168Y368092D01*
X691833D01*
X695165Y371424D01*
Y388086D01*
X701830Y368092D02*
X708494D01*
X705162D01*
Y388086D01*
X701830Y384753D01*
X718491Y388086D02*
X731820D01*
Y384753D01*
X718491Y371424D01*
Y368092D01*
D60*
X64756Y246226D02*
G03*
X64756Y246226I-1300J0D01*
G01*
D61*
X520210Y167020D02*
G03*
X520210Y167020I-1796J0D01*
G01*
X533560Y395526D02*
G03*
X533560Y395526I-1796J0D01*
G01*
X359824Y415046D02*
G03*
X359824Y415046I-1796J0D01*
G01*
X206502Y96086D02*
G03*
X206502Y96086I-2540J0D01*
G01*
X392418Y307703D02*
X379089D01*
X385754D01*
Y274380D01*
X379089Y267716D01*
X372425D01*
X365760Y274380D01*
X405747Y307703D02*
X432405D01*
Y301039D01*
X405747Y274380D01*
Y267716D01*
X210554Y312783D02*
X197225D01*
X203890D01*
Y279461D01*
X197225Y272796D01*
X190560D01*
X183896Y279461D01*
X223883Y272796D02*
X237212D01*
X230548D01*
Y312783D01*
X223883Y306119D01*
X257206D02*
X263870Y312783D01*
X277199D01*
X283864Y306119D01*
Y279461D01*
X277199Y272796D01*
X263870D01*
X257206Y279461D01*
Y306119D01*
X107950Y83584D02*
Y58592D01*
X112948Y53594D01*
X122945D01*
X127943Y58592D01*
Y83584D01*
X157934Y53594D02*
X137940D01*
X157934Y73587D01*
Y78586D01*
X152935Y83584D01*
X142939D01*
X137940Y78586D01*
X187924Y83584D02*
X167931D01*
Y68589D01*
X177927Y73587D01*
X182926D01*
X187924Y68589D01*
Y58592D01*
X182926Y53594D01*
X172929D01*
X167931Y58592D01*
D84*
X65168Y402526D02*
G03*
X65168Y402526I-1796J0D01*
G01*
X227820Y911250D02*
G03*
X227820Y911250I-500J0D01*
G01*
X867188Y894603D02*
G03*
X867188Y894603I-500J0D01*
G01*
X588384Y710946D02*
G03*
X588384Y710946I-500J0D01*
G01*
X681836Y361742D02*
G03*
X681836Y361742I-1000J0D01*
G01*
D85*
X943864Y897738D02*
G03*
X943864Y897738I-1270J0D01*
G01*
X945134Y792950D02*
G03*
X945134Y792950I-1270J0D01*
G01*
X943864Y947384D02*
G03*
X943864Y947384I-1270J0D01*
G01*
X944124Y847014D02*
G03*
X944124Y847014I-1270J0D01*
G01*
X944246Y741426D02*
G03*
X944246Y741426I-1270J0D01*
G01*
D86*
X831342Y399288D02*
G03*
X831342Y399288I-1270J0D01*
G01*
X51942Y408612D02*
G03*
X51942Y408612I-1270J0D01*
G01*
X272416Y83027D02*
G03*
X272416Y83027I-1270J0D01*
G01*
D87*
X605968Y335026D02*
G03*
X605968Y335026I-2000J0D01*
G01*
X660920Y237236D02*
G03*
X660920Y237236I-2000J0D01*
G01*
X529336Y255996D02*
G03*
X529336Y255996I-2000J0D01*
G01*
X304006Y149994D02*
G03*
X304006Y149994I-2000J0D01*
G01*
X545020Y299720D02*
G03*
X545020Y299720I-2000J0D01*
G01*
D89*
X576064Y146058D02*
G03*
X576064Y146058I-500J0D01*
G01*
X844357Y107787D02*
X841024D01*
X842690D01*
Y99456D01*
X841024Y97790D01*
X839358D01*
X837692Y99456D01*
X847689D02*
X849355Y97790D01*
X852687D01*
X854353Y99456D01*
Y106121D01*
X852687Y107787D01*
X849355D01*
X847689Y106121D01*
Y104454D01*
X849355Y102788D01*
X854353D01*
X249489Y48859D02*
X246156D01*
X247822D01*
Y40528D01*
X246156Y38862D01*
X244490D01*
X242824Y40528D01*
X259485Y48859D02*
X256153Y47193D01*
X252821Y43860D01*
Y40528D01*
X254487Y38862D01*
X257819D01*
X259485Y40528D01*
Y42194D01*
X257819Y43860D01*
X252821D01*
X604774Y324100D02*
Y313520D01*
X606890Y311404D01*
X611122D01*
X613238Y313520D01*
Y324100D01*
X625934D02*
X617470D01*
Y317752D01*
X621702Y319868D01*
X623818D01*
X625934Y317752D01*
Y313520D01*
X623818Y311404D01*
X619586D01*
X617470Y313520D01*
X629920Y265612D02*
Y248950D01*
X633252Y245618D01*
X639917D01*
X643249Y248950D01*
Y265612D01*
X663243D02*
X656578Y262279D01*
X649914Y255615D01*
Y248950D01*
X653246Y245618D01*
X659910D01*
X663243Y248950D01*
Y252283D01*
X659910Y255615D01*
X649914D01*
X528828Y245359D02*
Y232663D01*
X531367Y230124D01*
X536446D01*
X538985Y232663D01*
Y245359D01*
X544063Y242820D02*
X546602Y245359D01*
X551681D01*
X554220Y242820D01*
Y240281D01*
X551681Y237742D01*
X554220Y235202D01*
Y232663D01*
X551681Y230124D01*
X546602D01*
X544063Y232663D01*
Y235202D01*
X546602Y237742D01*
X544063Y240281D01*
Y242820D01*
X546602Y237742D02*
X551681D01*
X306070Y176712D02*
Y160050D01*
X309402Y156718D01*
X316067D01*
X319399Y160050D01*
Y176712D01*
X326064Y160050D02*
X329396Y156718D01*
X336060D01*
X339393Y160050D01*
Y173379D01*
X336060Y176712D01*
X329396D01*
X326064Y173379D01*
Y170047D01*
X329396Y166715D01*
X339393D01*
X515112Y323084D02*
Y312504D01*
X517228Y310388D01*
X521460D01*
X523576Y312504D01*
Y323084D01*
X527808Y310388D02*
X532040D01*
X529924D01*
Y323084D01*
X527808Y320968D01*
X538388D02*
X540504Y323084D01*
X544736D01*
X546852Y320968D01*
Y312504D01*
X544736Y310388D01*
X540504D01*
X538388Y312504D01*
Y320968D01*
D90*
X54282Y449872D02*
X156282D01*
Y396872D02*
Y449872D01*
X54282Y396872D02*
Y449872D01*
Y396872D02*
X156282D01*
D91*
X534616Y778245D02*
Y822245D01*
X564616Y778245D02*
Y822245D01*
X534616Y778245D02*
X564616D01*
X534616Y822245D02*
X564616D01*
X855916Y777483D02*
Y821483D01*
X885916Y777483D02*
Y821483D01*
X855916Y777483D02*
X885916D01*
X855916Y821483D02*
X885916D01*
X213550Y776975D02*
Y820975D01*
X243550Y776975D02*
Y820975D01*
X213550Y776975D02*
X243550D01*
X213550Y820975D02*
X243550D01*
X673626Y354482D02*
Y399482D01*
X771626Y354482D02*
Y399482D01*
X673626D02*
X771626D01*
X673626Y354482D02*
X771626D01*
D92*
X231960Y452266D02*
X251960D01*
Y442266D02*
Y452266D01*
X231960D02*
X251960D01*
X231960Y442266D02*
Y452266D01*
Y442266D02*
Y452266D01*
X251960Y442266D02*
Y452266D01*
X231960Y442266D02*
X251960D01*
X231960D02*
X251960D01*
X231960Y439256D02*
X251960D01*
Y429256D02*
Y439256D01*
X231960D02*
X251960D01*
X231960Y429256D02*
Y439256D01*
Y429256D02*
Y439256D01*
X251960Y429256D02*
Y439256D01*
X231960Y429256D02*
X251960D01*
X231960D02*
X251960D01*
X1028176Y15839D02*
Y60339D01*
X987576D02*
X1028176D01*
X987576Y15839D02*
X1028176D01*
X987576D02*
Y60339D01*
X999330Y120302D02*
Y140302D01*
X989330Y120302D02*
Y140302D01*
X999330Y120302D02*
Y140302D01*
X989330D02*
X999330D01*
X989330D02*
X999330D01*
X989330Y120302D02*
X999330D01*
X989330D02*
X999330D01*
X989330D02*
Y140302D01*
X732707Y105697D02*
Y146297D01*
X688207Y105697D02*
X732707D01*
X688207Y146297D02*
X732707D01*
X688207Y105697D02*
Y146297D01*
X792416Y104411D02*
X812416D01*
X792416Y94411D02*
X812416D01*
Y104411D01*
Y94411D02*
Y104411D01*
X792416D02*
X812416D01*
X792416Y94411D02*
Y104411D01*
Y94411D02*
X812416D01*
X792416D02*
Y104411D01*
X792416Y107873D02*
X812416D01*
Y117873D01*
Y107873D02*
Y117873D01*
X792416D02*
X812416D01*
X792416Y107873D02*
Y117873D01*
X812416D01*
X792416Y107873D02*
X812416D01*
X792416D02*
Y117873D01*
X792924Y148259D02*
X812924D01*
Y158259D01*
Y148259D02*
Y158259D01*
X792924D02*
X812924D01*
X792924Y148259D02*
Y158259D01*
X812924D01*
X792924Y148259D02*
X812924D01*
X792924D02*
Y158259D01*
X851050Y874094D02*
X871050D01*
Y884094D01*
Y874094D02*
Y884094D01*
X851050D02*
X871050D01*
X851050Y874094D02*
Y884094D01*
X871050D01*
X851050Y874094D02*
X871050D01*
X851050D02*
Y884094D01*
X871902Y849028D02*
Y869028D01*
X861902Y849028D02*
Y869028D01*
X871902Y849028D02*
Y869028D01*
X861902D02*
X871902D01*
X861902D02*
X871902D01*
X861902Y849028D02*
X871902D01*
X861902D02*
X871902D01*
X861902D02*
Y869028D01*
X884856Y849028D02*
Y869028D01*
X874856Y849028D02*
Y869028D01*
X884856Y849028D02*
Y869028D01*
X874856D02*
X884856D01*
X874856D02*
X884856D01*
X874856Y849028D02*
X884856D01*
X874856D02*
X884856D01*
X874856D02*
Y869028D01*
X573184Y689944D02*
X593184D01*
Y699944D01*
Y689944D02*
Y699944D01*
X573184D02*
X593184D01*
X573184Y689944D02*
Y699944D01*
X593184D01*
X573184Y689944D02*
X593184D01*
X573184D02*
Y699944D01*
X564366Y849732D02*
Y869732D01*
X554366Y849732D02*
Y869732D01*
X564366Y849732D02*
Y869732D01*
X554366D02*
X564366D01*
X554366D02*
X564366D01*
X554366Y849732D02*
X564366D01*
X554366D02*
X564366D01*
X554366D02*
Y869732D01*
X550602Y849790D02*
Y869790D01*
X540602Y849790D02*
Y869790D01*
X550602Y849790D02*
Y869790D01*
X540602D02*
X550602D01*
X540602D02*
X550602D01*
X540602Y849790D02*
X550602D01*
X540602D02*
X550602D01*
X540602D02*
Y869790D01*
X229536Y848520D02*
Y868520D01*
X219536Y848520D02*
Y868520D01*
X229536Y848520D02*
Y868520D01*
X219536D02*
X229536D01*
X219536D02*
X229536D01*
X219536Y848520D02*
X229536D01*
X219536D02*
X229536D01*
X219536D02*
Y868520D01*
X243300Y848520D02*
Y868520D01*
X233300Y848520D02*
Y868520D01*
X243300Y848520D02*
Y868520D01*
X233300D02*
X243300D01*
X233300D02*
X243300D01*
X233300Y848520D02*
X243300D01*
X233300D02*
X243300D01*
X233300D02*
Y868520D01*
X212240Y891366D02*
X232240D01*
Y901366D01*
Y891366D02*
Y901366D01*
X212240D02*
X232240D01*
X212240Y891366D02*
Y901366D01*
X232240D01*
X212240Y891366D02*
X232240D01*
X212240D02*
Y901366D01*
X914988Y876308D02*
Y896308D01*
X924988D01*
Y876308D02*
Y896308D01*
X914988Y876308D02*
X924988D01*
X914988D02*
Y896308D01*
X924988D01*
Y876308D02*
Y896308D01*
X914988Y876308D02*
X924988D01*
X925248Y825584D02*
Y845584D01*
X915248Y825584D02*
Y845584D01*
X925248Y825584D02*
Y845584D01*
X915248D02*
X925248D01*
X915248D02*
X925248D01*
X915248Y825584D02*
X925248D01*
X915248D02*
X925248D01*
X915248D02*
Y845584D01*
X924988Y925954D02*
Y945954D01*
X914988Y925954D02*
Y945954D01*
X924988Y925954D02*
Y945954D01*
X914988D02*
X924988D01*
X914988D02*
X924988D01*
X914988Y925954D02*
X924988D01*
X914988D02*
X924988D01*
X914988D02*
Y945954D01*
X925370Y719996D02*
Y739996D01*
X915370Y719996D02*
Y739996D01*
X925370Y719996D02*
Y739996D01*
X915370D02*
X925370D01*
X915370D02*
X925370D01*
X915370Y719996D02*
X925370D01*
X915370D02*
X925370D01*
X915370D02*
Y739996D01*
X926258Y771520D02*
Y791520D01*
X916258Y771520D02*
Y791520D01*
X926258Y771520D02*
Y791520D01*
X916258D02*
X926258D01*
X916258D02*
X926258D01*
X916258Y771520D02*
X926258D01*
X916258D02*
X926258D01*
X916258D02*
Y791520D01*
X47544Y343240D02*
Y363240D01*
X37544Y343240D02*
Y363240D01*
X47544Y343240D02*
Y363240D01*
X37544D02*
X47544D01*
X37544D02*
X47544D01*
X37544Y343240D02*
X47544D01*
X37544D02*
X47544D01*
X37544D02*
Y363240D01*
X60498Y342986D02*
Y362986D01*
X50498Y342986D02*
Y362986D01*
X60498Y342986D02*
Y362986D01*
X50498D02*
X60498D01*
X50498D02*
X60498D01*
X50498Y342986D02*
X60498D01*
X50498D02*
X60498D01*
X50498D02*
Y362986D01*
X100630Y343240D02*
Y363240D01*
X90630Y343240D02*
X100630D01*
X90630D02*
Y363240D01*
X100630D01*
Y343240D02*
Y363240D01*
X90630Y343240D02*
X100630D01*
X90630D02*
Y363240D01*
X100630D01*
X142794Y481162D02*
Y501162D01*
X132794Y481162D02*
Y501162D01*
X142794Y481162D02*
Y501162D01*
X132794D02*
X142794D01*
X132794D02*
X142794D01*
X132794Y481162D02*
X142794D01*
X132794D02*
X142794D01*
X132794D02*
Y501162D01*
X718980Y435008D02*
Y455008D01*
X728980Y435008D02*
Y455008D01*
X718980Y435008D02*
Y455008D01*
Y435008D02*
X728980D01*
X718980D02*
X728980D01*
X718980Y455008D02*
X728980D01*
X718980D02*
X728980D01*
Y435008D02*
Y455008D01*
X701196Y218266D02*
X721196D01*
Y228266D01*
Y218266D02*
Y228266D01*
X701196D02*
X721196D01*
X701196Y218266D02*
Y228266D01*
X721196D01*
X701196Y218266D02*
X721196D01*
X701196D02*
Y228266D01*
X701450Y243666D02*
X721450D01*
Y253666D01*
Y243666D02*
Y253666D01*
X701450D02*
X721450D01*
X701450Y243666D02*
Y253666D01*
X721450D01*
X701450Y243666D02*
X721450D01*
X701450D02*
Y253666D01*
Y256366D02*
X721450D01*
Y266366D01*
Y256366D02*
Y266366D01*
X701450D02*
X721450D01*
X701450Y256366D02*
Y266366D01*
X721450D01*
X701450Y256366D02*
X721450D01*
X701450D02*
Y266366D01*
X583340Y269066D02*
X603340D01*
X583340D02*
Y279066D01*
X603340D01*
Y269066D02*
Y279066D01*
X583340Y269066D02*
X603340D01*
X583340D02*
Y279066D01*
X603340D01*
Y269066D02*
Y279066D01*
X583340Y256366D02*
X603340D01*
X583340D02*
Y266366D01*
X603340D01*
Y256366D02*
Y266366D01*
X583340Y256366D02*
X603340D01*
X583340D02*
Y266366D01*
X603340D01*
Y256366D02*
Y266366D01*
X583594Y243666D02*
X603594D01*
X583594D02*
Y253666D01*
X603594D01*
Y243666D02*
Y253666D01*
X583594Y243666D02*
X603594D01*
X583594D02*
Y253666D01*
X603594D01*
Y243666D02*
Y253666D01*
X130856Y481162D02*
Y501162D01*
X120856Y481162D02*
Y501162D01*
X130856Y481162D02*
Y501162D01*
X120856D02*
X130856D01*
X120856D02*
X130856D01*
X120856Y481162D02*
X130856D01*
X120856D02*
X130856D01*
X120856D02*
Y501162D01*
X583598Y230712D02*
X603598D01*
Y240712D01*
Y230712D02*
Y240712D01*
X583598D02*
X603598D01*
X583598Y230712D02*
Y240712D01*
X603598D01*
X583598Y230712D02*
X603598D01*
X583598D02*
Y240712D01*
X701200Y205276D02*
X721200D01*
X701200D02*
Y215276D01*
X721200D01*
Y205276D02*
Y215276D01*
X701200Y205276D02*
X721200D01*
X701200D02*
Y215276D01*
X721200D01*
Y205276D02*
Y215276D01*
X701450Y231184D02*
X721450D01*
X701450D02*
Y241184D01*
X721450D01*
Y231184D02*
Y241184D01*
X701450Y231184D02*
X721450D01*
X701450D02*
Y241184D01*
X721450D01*
Y231184D02*
Y241184D01*
X701450Y269284D02*
X721450D01*
X701450D02*
Y279284D01*
X721450D01*
Y269284D02*
Y279284D01*
X701450Y269284D02*
X721450D01*
X701450D02*
Y279284D01*
X721450D01*
Y269284D02*
Y279284D01*
X231887Y477786D02*
X251887D01*
Y467786D02*
Y477786D01*
X231887Y467786D02*
X251887D01*
X231887D02*
Y477786D01*
X251887D01*
Y467786D02*
Y477786D01*
X231887Y467786D02*
X251887D01*
X231887D02*
Y477786D01*
X1002698Y151682D02*
X1022698D01*
Y161682D01*
Y151682D02*
Y161682D01*
X1002698D02*
X1022698D01*
X1002698Y151682D02*
Y161682D01*
X1022698D01*
X1002698Y151682D02*
X1022698D01*
X1002698D02*
Y161682D01*
X1029462Y120048D02*
X1039462D01*
Y140048D01*
Y120048D02*
Y140048D01*
X1029462D02*
X1039462D01*
X1029462Y120048D02*
Y140048D01*
X1039462D01*
X1029462Y120048D02*
X1039462D01*
X1029462D02*
Y140048D01*
X1026000Y120048D02*
Y140048D01*
X1016000Y120048D02*
X1026000D01*
X1016000D02*
Y140048D01*
X1026000D01*
Y120048D02*
Y140048D01*
X1016000Y120048D02*
X1026000D01*
X1016000D02*
Y140048D01*
X1026000D01*
X792670Y134543D02*
X812670D01*
Y144543D01*
Y134543D02*
Y144543D01*
X792670D02*
X812670D01*
X792670Y134543D02*
Y144543D01*
X812670D01*
X792670Y134543D02*
X812670D01*
X792670D02*
Y144543D01*
X231887Y503312D02*
X251887D01*
Y493312D02*
Y503312D01*
X231887Y493312D02*
X251887D01*
X231887D02*
Y503312D01*
X251887D01*
Y493312D02*
Y503312D01*
X231887Y493312D02*
X251887D01*
X231887D02*
Y503312D01*
X212900Y473326D02*
Y493326D01*
X202900Y473326D02*
Y493326D01*
X212900Y473326D02*
Y493326D01*
X202900D02*
X212900D01*
X202900D02*
X212900D01*
X202900Y473326D02*
X212900D01*
X202900D02*
X212900D01*
X202900D02*
Y493326D01*
X231808Y455298D02*
X251808D01*
X231808D02*
Y465298D01*
X251808D01*
Y455298D02*
Y465298D01*
X231808Y455298D02*
X251808D01*
X231808D02*
Y465298D01*
X251808D01*
Y455298D02*
Y465298D01*
X231808Y480612D02*
X251808D01*
X231808D02*
Y490612D01*
X251808D01*
Y480612D02*
Y490612D01*
X231808Y480612D02*
X251808D01*
X231808D02*
Y490612D01*
X251808D01*
Y480612D02*
Y490612D01*
X200326Y473326D02*
Y493326D01*
X190326Y473326D02*
X200326D01*
X190326D02*
Y493326D01*
X200326D01*
Y473326D02*
Y493326D01*
X190326Y473326D02*
X200326D01*
X190326D02*
Y493326D01*
X200326D01*
X63850Y217119D02*
Y237119D01*
X53850Y217119D02*
X63850D01*
X53850D02*
Y237119D01*
X63850D01*
Y217119D02*
Y237119D01*
X53850Y217119D02*
X63850D01*
X53850D02*
Y237119D01*
X63850D01*
X76754Y217002D02*
Y237002D01*
X66754Y217002D02*
Y237002D01*
X76754Y217002D02*
Y237002D01*
X66754D02*
X76754D01*
X66754D02*
X76754D01*
X66754Y217002D02*
X76754D01*
X66754D02*
X76754D01*
X66754D02*
Y237002D01*
X659718Y372996D02*
X669718D01*
Y392996D01*
Y372996D02*
Y392996D01*
X659718D02*
X669718D01*
X659718Y372996D02*
Y392996D01*
X669718D01*
X659718Y372996D02*
X669718D01*
X659718D02*
Y392996D01*
X521622Y353104D02*
X541622D01*
X521622D02*
Y363104D01*
X541622D01*
Y353104D02*
Y363104D01*
X521622Y353104D02*
X541622D01*
X521622D02*
Y363104D01*
X541622D01*
Y353104D02*
Y363104D01*
X985614Y120556D02*
Y140556D01*
X975614Y120556D02*
Y140556D01*
X985614Y120556D02*
Y140556D01*
X975614D02*
X985614D01*
X975614D02*
X985614D01*
X975614Y120556D02*
X985614D01*
X975614D02*
X985614D01*
X975614D02*
Y140556D01*
X752214Y450182D02*
X762214D01*
X752214Y430182D02*
Y450182D01*
Y430182D02*
X762214D01*
Y450182D01*
X752214D02*
X762214D01*
X752214Y430182D02*
Y450182D01*
Y430182D02*
X762214D01*
Y450182D01*
X659718Y350172D02*
X669718D01*
Y370172D01*
X659718D02*
X669718D01*
X659718Y350172D02*
Y370172D01*
Y350172D02*
X669718D01*
Y370172D01*
X659718D02*
X669718D01*
X659718Y350172D02*
Y370172D01*
X706557Y455008D02*
X716557D01*
X706557Y435008D02*
Y455008D01*
Y435008D02*
X716557D01*
Y455008D01*
X706557D02*
X716557D01*
X706557Y435008D02*
Y455008D01*
Y435008D02*
X716557D01*
Y455008D01*
X678604Y298102D02*
Y318102D01*
X668604Y298102D02*
Y318102D01*
X678604Y298102D02*
Y318102D01*
X668604D02*
X678604D01*
X668604D02*
X678604D01*
X668604Y298102D02*
X678604D01*
X668604D02*
X678604D01*
X668604D02*
Y318102D01*
X691876Y298166D02*
Y318166D01*
X681876Y298166D02*
Y318166D01*
X691876Y298166D02*
Y318166D01*
X681876D02*
X691876D01*
X681876D02*
X691876D01*
X681876Y298166D02*
X691876D01*
X681876D02*
X691876D01*
X681876D02*
Y318166D01*
X952053Y34493D02*
X950386Y36159D01*
X947054D01*
X945388Y34493D01*
Y27828D01*
X947054Y26162D01*
X950386D01*
X952053Y27828D01*
X955385Y34493D02*
X957051Y36159D01*
X960383D01*
X962049Y34493D01*
Y32826D01*
X960383Y31160D01*
X958717D01*
X960383D01*
X962049Y29494D01*
Y27828D01*
X960383Y26162D01*
X957051D01*
X955385Y27828D01*
X965382Y34493D02*
X967048Y36159D01*
X970380D01*
X972046Y34493D01*
Y32826D01*
X970380Y31160D01*
X968714D01*
X970380D01*
X972046Y29494D01*
Y27828D01*
X970380Y26162D01*
X967048D01*
X965382Y27828D01*
X699313Y168965D02*
X697647Y167298D01*
Y163966D01*
X699313Y162300D01*
X705978D01*
X707644Y163966D01*
Y167298D01*
X705978Y168965D01*
X707644Y177295D02*
X697647D01*
X702646Y172297D01*
Y178961D01*
X699313Y182294D02*
X697647Y183960D01*
Y187292D01*
X699313Y188958D01*
X705978D01*
X707644Y187292D01*
Y183960D01*
X705978Y182294D01*
X699313D01*
X919794Y426811D02*
X913130D01*
Y421812D01*
X916462D01*
X913130D01*
Y416814D01*
X923127Y426811D02*
Y416814D01*
X928125D01*
X929791Y418480D01*
Y420146D01*
X928125Y421812D01*
X923127D01*
X928125D01*
X929791Y423479D01*
Y425145D01*
X928125Y426811D01*
X923127D01*
X933124Y416814D02*
X936456D01*
X934790D01*
Y426811D01*
X933124Y425145D01*
D93*
X809246Y161884D02*
Y204384D01*
X777746D02*
X809246D01*
X777746Y161884D02*
Y204384D01*
Y161884D02*
X809246D01*
X971464Y105916D02*
Y137416D01*
X928964D02*
X971464D01*
X928964Y105916D02*
Y137416D01*
Y105916D02*
X971464D01*
X44704Y256729D02*
Y253396D01*
X45370Y252730D01*
X46703D01*
X47370Y253396D01*
Y256729D01*
X51368Y252730D02*
X48703D01*
X51368Y255396D01*
Y256062D01*
X50702Y256729D01*
X49369D01*
X48703Y256062D01*
X52701Y256729D02*
X55367D01*
Y256062D01*
X52701Y253396D01*
Y252730D01*
X237744Y444246D02*
Y448245D01*
X239743D01*
X240410Y447578D01*
Y446245D01*
X239743Y445579D01*
X237744D01*
X239077D02*
X240410Y444246D01*
X241743Y447578D02*
X242409Y448245D01*
X243742D01*
X244408Y447578D01*
Y446912D01*
X243742Y446245D01*
X243076D01*
X243742D01*
X244408Y445579D01*
Y444912D01*
X243742Y444246D01*
X242409D01*
X241743Y444912D01*
X245741Y448245D02*
X248407D01*
Y447578D01*
X245741Y444912D01*
Y444246D01*
X235966Y431800D02*
Y435799D01*
X237965D01*
X238632Y435132D01*
Y433799D01*
X237965Y433133D01*
X235966D01*
X237299D02*
X238632Y431800D01*
X239965Y435132D02*
X240631Y435799D01*
X241964D01*
X242631Y435132D01*
Y434466D01*
X241964Y433799D01*
X241298D01*
X241964D01*
X242631Y433133D01*
Y432466D01*
X241964Y431800D01*
X240631D01*
X239965Y432466D01*
X246629Y435799D02*
X245296Y435132D01*
X243963Y433799D01*
Y432466D01*
X244630Y431800D01*
X245963D01*
X246629Y432466D01*
Y433133D01*
X245963Y433799D01*
X243963D01*
X488218Y377252D02*
X487551Y377919D01*
X486218D01*
X485552Y377252D01*
Y374586D01*
X486218Y373920D01*
X487551D01*
X488218Y374586D01*
X489551Y373920D02*
X490884D01*
X490217D01*
Y377919D01*
X489551Y377252D01*
X300482Y397318D02*
X299815Y397985D01*
X298482D01*
X297816Y397318D01*
Y394652D01*
X298482Y393986D01*
X299815D01*
X300482Y394652D01*
X303814Y393986D02*
Y397985D01*
X301815Y395985D01*
X304480D01*
X308479Y397985D02*
X305813D01*
Y395985D01*
X307146Y396652D01*
X307813D01*
X308479Y395985D01*
Y394652D01*
X307813Y393986D01*
X306480D01*
X305813Y394652D01*
X955229Y76880D02*
X954229Y77880D01*
X952230D01*
X951230Y76880D01*
Y72882D01*
X952230Y71882D01*
X954229D01*
X955229Y72882D01*
X957228Y76880D02*
X958228Y77880D01*
X960227D01*
X961227Y76880D01*
Y75881D01*
X960227Y74881D01*
X959227D01*
X960227D01*
X961227Y73881D01*
Y72882D01*
X960227Y71882D01*
X958228D01*
X957228Y72882D01*
X963226Y71882D02*
X965226D01*
X964226D01*
Y77880D01*
X963226Y76880D01*
X1003304Y41039D02*
Y35041D01*
X1007303D01*
X1009302Y40039D02*
X1010302Y41039D01*
X1012301D01*
X1013301Y40039D01*
Y39040D01*
X1012301Y38040D01*
X1011302D01*
X1012301D01*
X1013301Y37040D01*
Y36041D01*
X1012301Y35041D01*
X1010302D01*
X1009302Y36041D01*
X982330Y84328D02*
X981663Y83661D01*
Y82328D01*
X982330Y81662D01*
X984996D01*
X985662Y82328D01*
Y83661D01*
X984996Y84328D01*
X985662Y88327D02*
Y85661D01*
X982996Y88327D01*
X982330D01*
X981663Y87660D01*
Y86327D01*
X982330Y85661D01*
Y89659D02*
X981663Y90326D01*
Y91659D01*
X982330Y92325D01*
X982996D01*
X983663Y91659D01*
X984329Y92325D01*
X984996D01*
X985662Y91659D01*
Y90326D01*
X984996Y89659D01*
X984329D01*
X983663Y90326D01*
X982996Y89659D01*
X982330D01*
X983663Y90326D02*
Y91659D01*
X996330Y122302D02*
X992331D01*
Y124301D01*
X992998Y124968D01*
X994331D01*
X994997Y124301D01*
Y122302D01*
Y123635D02*
X996330Y124968D01*
Y128300D02*
X992331D01*
X994331Y126301D01*
Y128967D01*
X992998Y130299D02*
X992331Y130966D01*
Y132299D01*
X992998Y132965D01*
X995664D01*
X996330Y132299D01*
Y130966D01*
X995664Y130299D01*
X992998D01*
X1006206Y124968D02*
X1005539Y124301D01*
Y122968D01*
X1006206Y122302D01*
X1008872D01*
X1009538Y122968D01*
Y124301D01*
X1008872Y124968D01*
X1006206Y126301D02*
X1005539Y126967D01*
Y128300D01*
X1006206Y128967D01*
X1006872D01*
X1007539Y128300D01*
Y127634D01*
Y128300D01*
X1008205Y128967D01*
X1008872D01*
X1009538Y128300D01*
Y126967D01*
X1008872Y126301D01*
X1009538Y132965D02*
Y130299D01*
X1006872Y132965D01*
X1006206D01*
X1005539Y132299D01*
Y130966D01*
X1006206Y130299D01*
X1032338Y86549D02*
X1031338Y85549D01*
Y83550D01*
X1032338Y82550D01*
X1036336D01*
X1037336Y83550D01*
Y85549D01*
X1036336Y86549D01*
X1032338Y88548D02*
X1031338Y89548D01*
Y91547D01*
X1032338Y92547D01*
X1033337D01*
X1034337Y91547D01*
Y90547D01*
Y91547D01*
X1035337Y92547D01*
X1036336D01*
X1037336Y91547D01*
Y89548D01*
X1036336Y88548D01*
X1037336Y97545D02*
X1031338D01*
X1034337Y94546D01*
Y98545D01*
X707136Y129188D02*
Y123190D01*
X711135D01*
X716133D02*
Y129188D01*
X713134Y126189D01*
X717133D01*
X756696Y151544D02*
X756029Y152210D01*
X754697D01*
X754030Y151544D01*
Y148878D01*
X754697Y148211D01*
X756029D01*
X756696Y148878D01*
X758029Y151544D02*
X758695Y152210D01*
X760028D01*
X760695Y151544D01*
Y150877D01*
X760028Y150211D01*
X759362D01*
X760028D01*
X760695Y149544D01*
Y148878D01*
X760028Y148211D01*
X758695D01*
X758029Y148878D01*
X764693Y152210D02*
X762027D01*
Y150211D01*
X763360Y150877D01*
X764027D01*
X764693Y150211D01*
Y148878D01*
X764027Y148211D01*
X762694D01*
X762027Y148878D01*
X794670Y97790D02*
Y101789D01*
X796669D01*
X797336Y101122D01*
Y99789D01*
X796669Y99123D01*
X794670D01*
X796003D02*
X797336Y97790D01*
X800668D02*
Y101789D01*
X798669Y99789D01*
X801335D01*
X805333Y101789D02*
X802667D01*
Y99789D01*
X804000Y100456D01*
X804667D01*
X805333Y99789D01*
Y98456D01*
X804667Y97790D01*
X803334D01*
X802667Y98456D01*
X794416Y110873D02*
Y114872D01*
X796415D01*
X797082Y114206D01*
Y112873D01*
X796415Y112206D01*
X794416D01*
X795749D02*
X797082Y110873D01*
X800414D02*
Y114872D01*
X798415Y112873D01*
X801080D01*
X805079Y114872D02*
X803746Y114206D01*
X802413Y112873D01*
Y111540D01*
X803080Y110873D01*
X804413D01*
X805079Y111540D01*
Y112206D01*
X804413Y112873D01*
X802413D01*
X797336Y127668D02*
X796669Y128334D01*
X795337D01*
X794670Y127668D01*
Y125002D01*
X795337Y124335D01*
X796669D01*
X797336Y125002D01*
X798669Y127668D02*
X799335Y128334D01*
X800668D01*
X801335Y127668D01*
Y127001D01*
X800668Y126335D01*
X800002D01*
X800668D01*
X801335Y125668D01*
Y125002D01*
X800668Y124335D01*
X799335D01*
X798669Y125002D01*
X802667D02*
X803334Y124335D01*
X804667D01*
X805333Y125002D01*
Y127668D01*
X804667Y128334D01*
X803334D01*
X802667Y127668D01*
Y127001D01*
X803334Y126335D01*
X805333D01*
X794924Y151259D02*
Y155258D01*
X796923D01*
X797590Y154592D01*
Y153259D01*
X796923Y152592D01*
X794924D01*
X796257D02*
X797590Y151259D01*
X800922D02*
Y155258D01*
X798923Y153259D01*
X801589D01*
X802921Y155258D02*
X805587D01*
Y154592D01*
X802921Y151926D01*
Y151259D01*
X790245Y174559D02*
X788579Y172892D01*
Y169560D01*
X790245Y167894D01*
X796910D01*
X798576Y169560D01*
Y172892D01*
X796910Y174559D01*
X790245Y177891D02*
X788579Y179557D01*
Y182889D01*
X790245Y184555D01*
X791911D01*
X793578Y182889D01*
Y181223D01*
Y182889D01*
X795244Y184555D01*
X796910D01*
X798576Y182889D01*
Y179557D01*
X796910Y177891D01*
X788579Y187888D02*
Y194552D01*
X790245D01*
X796910Y187888D01*
X798576D01*
X764836Y172030D02*
X763836Y171030D01*
Y169031D01*
X764836Y168031D01*
X768834D01*
X769834Y169031D01*
Y171030D01*
X768834Y172030D01*
X769834Y178028D02*
Y174029D01*
X765835Y178028D01*
X764836D01*
X763836Y177028D01*
Y175029D01*
X764836Y174029D01*
X768834Y180027D02*
X769834Y181027D01*
Y183026D01*
X768834Y184026D01*
X764836D01*
X763836Y183026D01*
Y181027D01*
X764836Y180027D01*
X765835D01*
X766835Y181027D01*
Y184026D01*
X745024Y175840D02*
X744024Y174840D01*
Y172841D01*
X745024Y171841D01*
X749022D01*
X750022Y172841D01*
Y174840D01*
X749022Y175840D01*
X745024Y177839D02*
X744024Y178839D01*
Y180838D01*
X745024Y181838D01*
X746023D01*
X747023Y180838D01*
Y179839D01*
Y180838D01*
X748023Y181838D01*
X749022D01*
X750022Y180838D01*
Y178839D01*
X749022Y177839D01*
X745024Y183837D02*
X744024Y184837D01*
Y186836D01*
X745024Y187836D01*
X746023D01*
X747023Y186836D01*
X748023Y187836D01*
X749022D01*
X750022Y186836D01*
Y184837D01*
X749022Y183837D01*
X748023D01*
X747023Y184837D01*
X746023Y183837D01*
X745024D01*
X747023Y184837D02*
Y186836D01*
X853050Y877094D02*
Y881093D01*
X855049D01*
X855716Y880426D01*
Y879093D01*
X855049Y878427D01*
X853050D01*
X854383D02*
X855716Y877094D01*
X857049D02*
X858382D01*
X857715D01*
Y881093D01*
X857049Y880426D01*
X860381Y877094D02*
Y877760D01*
X861047D01*
Y877094D01*
X860381D01*
X866379D02*
X863713D01*
X866379Y879760D01*
Y880426D01*
X865713Y881093D01*
X864380D01*
X863713Y880426D01*
X868902Y851028D02*
X864903D01*
Y853027D01*
X865570Y853694D01*
X866903D01*
X867569Y853027D01*
Y851028D01*
Y852361D02*
X868902Y853694D01*
Y855027D02*
Y856360D01*
Y855693D01*
X864903D01*
X865570Y855027D01*
Y858359D02*
X864903Y859025D01*
Y860358D01*
X865570Y861025D01*
X868236D01*
X868902Y860358D01*
Y859025D01*
X868236Y858359D01*
X865570D01*
X868902Y862358D02*
X868236D01*
Y863024D01*
X868902D01*
Y862358D01*
Y868356D02*
Y865690D01*
X866236Y868356D01*
X865570D01*
X864903Y867689D01*
Y866356D01*
X865570Y865690D01*
X881856Y851028D02*
X877857D01*
Y853027D01*
X878524Y853694D01*
X879857D01*
X880523Y853027D01*
Y851028D01*
Y852361D02*
X881856Y853694D01*
Y855027D02*
Y856360D01*
Y855693D01*
X877857D01*
X878524Y855027D01*
X881856Y858359D02*
Y859692D01*
Y859025D01*
X877857D01*
X878524Y858359D01*
X881856Y861691D02*
X881190D01*
Y862358D01*
X881856D01*
Y861691D01*
Y867689D02*
Y865023D01*
X879190Y867689D01*
X878524D01*
X877857Y867023D01*
Y865690D01*
X878524Y865023D01*
X844012Y821054D02*
X843345Y820387D01*
Y819054D01*
X844012Y818388D01*
X846678D01*
X847344Y819054D01*
Y820387D01*
X846678Y821054D01*
Y822387D02*
X847344Y823053D01*
Y824386D01*
X846678Y825052D01*
X844012D01*
X843345Y824386D01*
Y823053D01*
X844012Y822387D01*
X844678D01*
X845345Y823053D01*
Y825052D01*
X847344Y826385D02*
X846678D01*
Y827052D01*
X847344D01*
Y826385D01*
Y832383D02*
Y829718D01*
X844678Y832383D01*
X844012D01*
X843345Y831717D01*
Y830384D01*
X844012Y829718D01*
X704251Y591820D02*
X714248D01*
Y596818D01*
X712582Y598484D01*
X705917D01*
X704251Y596818D01*
Y591820D01*
Y608481D02*
Y601817D01*
X709250D01*
X707583Y605149D01*
Y606815D01*
X709250Y608481D01*
X712582D01*
X714248Y606815D01*
Y603483D01*
X712582Y601817D01*
X714248Y611814D02*
X712582D01*
Y613480D01*
X714248D01*
Y611814D01*
Y626809D02*
Y620144D01*
X707583Y626809D01*
X705917D01*
X704251Y625143D01*
Y621810D01*
X705917Y620144D01*
X731266Y595884D02*
X726188D01*
Y598423D01*
X727034Y599270D01*
X728727D01*
X729573Y598423D01*
Y595884D01*
Y597577D02*
X731266Y599270D01*
Y600962D02*
Y602655D01*
Y601809D01*
X726188D01*
X727034Y600962D01*
Y605194D02*
X726188Y606041D01*
Y607733D01*
X727034Y608580D01*
X727880D01*
X728727Y607733D01*
Y606887D01*
Y607733D01*
X729573Y608580D01*
X730420D01*
X731266Y607733D01*
Y606041D01*
X730420Y605194D01*
X731266Y610273D02*
X730420D01*
Y611119D01*
X731266D01*
Y610273D01*
Y617890D02*
Y614505D01*
X727880Y617890D01*
X727034D01*
X726188Y617044D01*
Y615351D01*
X727034Y614505D01*
X749300Y594614D02*
X744222D01*
Y597153D01*
X745068Y598000D01*
X746761D01*
X747607Y597153D01*
Y594614D01*
Y596307D02*
X749300Y598000D01*
Y599692D02*
Y601385D01*
Y600539D01*
X744222D01*
X745068Y599692D01*
X749300Y606464D02*
X744222D01*
X746761Y603924D01*
Y607310D01*
X749300Y609003D02*
X748454D01*
Y609849D01*
X749300D01*
Y609003D01*
Y616620D02*
Y613235D01*
X745914Y616620D01*
X745068D01*
X744222Y615774D01*
Y614081D01*
X745068Y613235D01*
X760225Y593344D02*
X767842D01*
Y597153D01*
X766572Y598422D01*
X761494D01*
X760225Y597153D01*
Y593344D01*
X767842Y604770D02*
X760225D01*
X764033Y600961D01*
Y606040D01*
X767842Y608579D02*
X766572D01*
Y609849D01*
X767842D01*
Y608579D01*
Y620005D02*
Y614927D01*
X762764Y620005D01*
X761494D01*
X760225Y618736D01*
Y616197D01*
X761494Y614927D01*
X639827Y781050D02*
X644398D01*
Y783335D01*
X643636Y784097D01*
X640589D01*
X639827Y783335D01*
Y781050D01*
X640589Y785620D02*
X639827Y786382D01*
Y787906D01*
X640589Y788668D01*
X641351D01*
X642113Y787906D01*
Y787144D01*
Y787906D01*
X642875Y788668D01*
X643636D01*
X644398Y787906D01*
Y786382D01*
X643636Y785620D01*
X644398Y790191D02*
X643636D01*
Y790953D01*
X644398D01*
Y790191D01*
Y797047D02*
Y794000D01*
X641351Y797047D01*
X640589D01*
X639827Y796285D01*
Y794762D01*
X640589Y794000D01*
X318263Y782066D02*
X322834D01*
Y784351D01*
X322072Y785113D01*
X319025D01*
X318263Y784351D01*
Y782066D01*
X319025Y786637D02*
X318263Y787398D01*
Y788922D01*
X319025Y789684D01*
X319787D01*
X320549Y788922D01*
Y788160D01*
Y788922D01*
X321311Y789684D01*
X322072D01*
X322834Y788922D01*
Y787398D01*
X322072Y786637D01*
X322834Y791207D02*
X322072D01*
Y791969D01*
X322834D01*
Y791207D01*
X319025Y795016D02*
X318263Y795778D01*
Y797301D01*
X319025Y798063D01*
X319787D01*
X320549Y797301D01*
Y796539D01*
Y797301D01*
X321311Y798063D01*
X322072D01*
X322834Y797301D01*
Y795778D01*
X322072Y795016D01*
X384558Y593344D02*
X392176D01*
Y597153D01*
X390906Y598422D01*
X385828D01*
X384558Y597153D01*
Y593344D01*
Y606040D02*
Y600961D01*
X388367D01*
X387098Y603501D01*
Y604770D01*
X388367Y606040D01*
X390906D01*
X392176Y604770D01*
Y602231D01*
X390906Y600961D01*
X392176Y608579D02*
X390906D01*
Y609849D01*
X392176D01*
Y608579D01*
X385828Y614927D02*
X384558Y616197D01*
Y618736D01*
X385828Y620005D01*
X387098D01*
X388367Y618736D01*
Y617466D01*
Y618736D01*
X389637Y620005D01*
X390906D01*
X392176Y618736D01*
Y616197D01*
X390906Y614927D01*
X410718Y595630D02*
X405640D01*
Y598169D01*
X406486Y599016D01*
X408179D01*
X409025Y598169D01*
Y595630D01*
Y597323D02*
X410718Y599016D01*
Y600708D02*
Y602401D01*
Y601555D01*
X405640D01*
X406486Y600708D01*
Y604940D02*
X405640Y605787D01*
Y607480D01*
X406486Y608326D01*
X407332D01*
X408179Y607480D01*
Y606633D01*
Y607480D01*
X409025Y608326D01*
X409872D01*
X410718Y607480D01*
Y605787D01*
X409872Y604940D01*
X410718Y610019D02*
X409872D01*
Y610865D01*
X410718D01*
Y610019D01*
X406486Y614251D02*
X405640Y615097D01*
Y616790D01*
X406486Y617636D01*
X407332D01*
X408179Y616790D01*
Y615943D01*
Y616790D01*
X409025Y617636D01*
X409872D01*
X410718Y616790D01*
Y615097D01*
X409872Y614251D01*
X427990Y595884D02*
X422912D01*
Y598423D01*
X423758Y599270D01*
X425451D01*
X426297Y598423D01*
Y595884D01*
Y597577D02*
X427990Y599270D01*
Y600962D02*
Y602655D01*
Y601809D01*
X422912D01*
X423758Y600962D01*
X427990Y607733D02*
X422912D01*
X425451Y605194D01*
Y608580D01*
X427990Y610273D02*
X427144D01*
Y611119D01*
X427990D01*
Y610273D01*
X423758Y614505D02*
X422912Y615351D01*
Y617044D01*
X423758Y617890D01*
X424604D01*
X425451Y617044D01*
Y616197D01*
Y617044D01*
X426297Y617890D01*
X427144D01*
X427990Y617044D01*
Y615351D01*
X427144Y614505D01*
X575184Y692944D02*
Y696943D01*
X577183D01*
X577850Y696276D01*
Y694943D01*
X577183Y694277D01*
X575184D01*
X576517D02*
X577850Y692944D01*
X579183D02*
X580516D01*
X579849D01*
Y696943D01*
X579183Y696276D01*
X582515Y692944D02*
Y693610D01*
X583181D01*
Y692944D01*
X582515D01*
X585847Y696276D02*
X586514Y696943D01*
X587846D01*
X588513Y696276D01*
Y695610D01*
X587846Y694943D01*
X587180D01*
X587846D01*
X588513Y694277D01*
Y693610D01*
X587846Y692944D01*
X586514D01*
X585847Y693610D01*
X521940Y821308D02*
X521273Y820641D01*
Y819308D01*
X521940Y818642D01*
X524606D01*
X525272Y819308D01*
Y820641D01*
X524606Y821308D01*
Y822641D02*
X525272Y823307D01*
Y824640D01*
X524606Y825306D01*
X521940D01*
X521273Y824640D01*
Y823307D01*
X521940Y822641D01*
X522606D01*
X523273Y823307D01*
Y825306D01*
X525272Y826639D02*
X524606D01*
Y827306D01*
X525272D01*
Y826639D01*
X521940Y829972D02*
X521273Y830638D01*
Y831971D01*
X521940Y832637D01*
X522606D01*
X523273Y831971D01*
Y831304D01*
Y831971D01*
X523939Y832637D01*
X524606D01*
X525272Y831971D01*
Y830638D01*
X524606Y829972D01*
X561366Y851732D02*
X557367D01*
Y853731D01*
X558034Y854398D01*
X559367D01*
X560033Y853731D01*
Y851732D01*
Y853065D02*
X561366Y854398D01*
Y855731D02*
Y857064D01*
Y856397D01*
X557367D01*
X558034Y855731D01*
X561366Y859063D02*
Y860396D01*
Y859729D01*
X557367D01*
X558034Y859063D01*
X561366Y862395D02*
X560700D01*
Y863062D01*
X561366D01*
Y862395D01*
X558034Y865727D02*
X557367Y866394D01*
Y867727D01*
X558034Y868393D01*
X558700D01*
X559367Y867727D01*
Y867060D01*
Y867727D01*
X560033Y868393D01*
X560700D01*
X561366Y867727D01*
Y866394D01*
X560700Y865727D01*
X547602Y851790D02*
X543603D01*
Y853789D01*
X544270Y854456D01*
X545603D01*
X546269Y853789D01*
Y851790D01*
Y853123D02*
X547602Y854456D01*
Y855789D02*
Y857122D01*
Y856455D01*
X543603D01*
X544270Y855789D01*
Y859121D02*
X543603Y859787D01*
Y861120D01*
X544270Y861787D01*
X546936D01*
X547602Y861120D01*
Y859787D01*
X546936Y859121D01*
X544270D01*
X547602Y863120D02*
X546936D01*
Y863786D01*
X547602D01*
Y863120D01*
X544270Y866452D02*
X543603Y867118D01*
Y868451D01*
X544270Y869118D01*
X544936D01*
X545603Y868451D01*
Y867785D01*
Y868451D01*
X546269Y869118D01*
X546936D01*
X547602Y868451D01*
Y867118D01*
X546936Y866452D01*
X41148Y570482D02*
Y565912D01*
X43433D01*
X44195Y566674D01*
Y569721D01*
X43433Y570482D01*
X41148D01*
X45718Y569721D02*
X46480Y570482D01*
X48004D01*
X48766Y569721D01*
Y568959D01*
X48004Y568197D01*
X47242D01*
X48004D01*
X48766Y567435D01*
Y566674D01*
X48004Y565912D01*
X46480D01*
X45718Y566674D01*
X50289Y565912D02*
Y566674D01*
X51051D01*
Y565912D01*
X50289D01*
X54098D02*
X55621D01*
X54860D01*
Y570482D01*
X54098Y569721D01*
X61885Y591058D02*
X71882D01*
Y596056D01*
X70216Y597723D01*
X63551D01*
X61885Y596056D01*
Y591058D01*
Y607719D02*
Y601055D01*
X66884D01*
X65217Y604387D01*
Y606053D01*
X66884Y607719D01*
X70216D01*
X71882Y606053D01*
Y602721D01*
X70216Y601055D01*
X71882Y611052D02*
X70216D01*
Y612718D01*
X71882D01*
Y611052D01*
Y619382D02*
Y622715D01*
Y621048D01*
X61885D01*
X63551Y619382D01*
X89662Y593852D02*
X83664D01*
Y596851D01*
X84664Y597851D01*
X86663D01*
X87663Y596851D01*
Y593852D01*
Y595851D02*
X89662Y597851D01*
Y599850D02*
Y601849D01*
Y600850D01*
X83664D01*
X84664Y599850D01*
Y604848D02*
X83664Y605848D01*
Y607848D01*
X84664Y608847D01*
X85663D01*
X86663Y607848D01*
Y606848D01*
Y607848D01*
X87663Y608847D01*
X88662D01*
X89662Y607848D01*
Y605848D01*
X88662Y604848D01*
X89662Y610846D02*
X88662D01*
Y611846D01*
X89662D01*
Y610846D01*
Y615845D02*
Y617844D01*
Y616844D01*
X83664D01*
X84664Y615845D01*
X106680Y593852D02*
X100682D01*
Y596851D01*
X101682Y597851D01*
X103681D01*
X104681Y596851D01*
Y593852D01*
Y595851D02*
X106680Y597851D01*
Y599850D02*
Y601849D01*
Y600850D01*
X100682D01*
X101682Y599850D01*
X106680Y607848D02*
X100682D01*
X103681Y604848D01*
Y608847D01*
X106680Y610846D02*
X105680D01*
Y611846D01*
X106680D01*
Y610846D01*
Y615845D02*
Y617844D01*
Y616844D01*
X100682D01*
X101682Y615845D01*
X200630Y821054D02*
X199963Y820387D01*
Y819054D01*
X200630Y818388D01*
X203296D01*
X203962Y819054D01*
Y820387D01*
X203296Y821054D01*
Y822387D02*
X203962Y823053D01*
Y824386D01*
X203296Y825052D01*
X200630D01*
X199963Y824386D01*
Y823053D01*
X200630Y822387D01*
X201296D01*
X201963Y823053D01*
Y825052D01*
X203962Y826385D02*
X203296D01*
Y827052D01*
X203962D01*
Y826385D01*
Y829718D02*
Y831050D01*
Y830384D01*
X199963D01*
X200630Y829718D01*
X226536Y850520D02*
X222537D01*
Y852519D01*
X223204Y853186D01*
X224537D01*
X225203Y852519D01*
Y850520D01*
Y851853D02*
X226536Y853186D01*
Y854519D02*
Y855852D01*
Y855185D01*
X222537D01*
X223204Y854519D01*
Y857851D02*
X222537Y858517D01*
Y859850D01*
X223204Y860517D01*
X225870D01*
X226536Y859850D01*
Y858517D01*
X225870Y857851D01*
X223204D01*
X226536Y861850D02*
X225870D01*
Y862516D01*
X226536D01*
Y861850D01*
Y865182D02*
Y866515D01*
Y865848D01*
X222537D01*
X223204Y865182D01*
X240300Y850520D02*
X236301D01*
Y852519D01*
X236968Y853186D01*
X238301D01*
X238967Y852519D01*
Y850520D01*
Y851853D02*
X240300Y853186D01*
Y854519D02*
Y855852D01*
Y855185D01*
X236301D01*
X236968Y854519D01*
X240300Y857851D02*
Y859184D01*
Y858517D01*
X236301D01*
X236968Y857851D01*
X240300Y861183D02*
X239634D01*
Y861850D01*
X240300D01*
Y861183D01*
Y864515D02*
Y865848D01*
Y865182D01*
X236301D01*
X236968Y864515D01*
X214240Y894366D02*
Y898365D01*
X216239D01*
X216906Y897698D01*
Y896365D01*
X216239Y895699D01*
X214240D01*
X215573D02*
X216906Y894366D01*
X218239D02*
X219571D01*
X218905D01*
Y898365D01*
X218239Y897698D01*
X221571Y894366D02*
Y895032D01*
X222237D01*
Y894366D01*
X221571D01*
X224903D02*
X226236D01*
X225570D01*
Y898365D01*
X224903Y897698D01*
X106110Y479262D02*
X105443Y478595D01*
Y477262D01*
X106110Y476596D01*
X108776D01*
X109442Y477262D01*
Y478595D01*
X108776Y479262D01*
X109442Y483260D02*
Y480595D01*
X106776Y483260D01*
X106110D01*
X105443Y482594D01*
Y481261D01*
X106110Y480595D01*
X35178Y392460D02*
X34511Y393127D01*
X33178D01*
X32512Y392460D01*
Y389794D01*
X33178Y389128D01*
X34511D01*
X35178Y389794D01*
X38510Y389128D02*
Y393127D01*
X36511Y391127D01*
X39176D01*
X221680Y17772D02*
X221013Y17105D01*
Y15772D01*
X221680Y15106D01*
X224346D01*
X225012Y15772D01*
Y17105D01*
X224346Y17772D01*
X221013Y21771D02*
Y19105D01*
X223013D01*
X222346Y20438D01*
Y21104D01*
X223013Y21771D01*
X224346D01*
X225012Y21104D01*
Y19771D01*
X224346Y19105D01*
X183358Y455548D02*
X182691Y454881D01*
Y453548D01*
X183358Y452882D01*
X186024D01*
X186690Y453548D01*
Y454881D01*
X186024Y455548D01*
X182691Y459547D02*
X183358Y458214D01*
X184691Y456881D01*
X186024D01*
X186690Y457547D01*
Y458880D01*
X186024Y459547D01*
X185357D01*
X184691Y458880D01*
Y456881D01*
X70836Y75818D02*
X70169Y75151D01*
Y73818D01*
X70836Y73152D01*
X73502D01*
X74168Y73818D01*
Y75151D01*
X73502Y75818D01*
X70169Y77151D02*
Y79816D01*
X70836D01*
X73502Y77151D01*
X74168D01*
X72328Y256072D02*
X71661Y255405D01*
Y254072D01*
X72328Y253406D01*
X74994D01*
X75660Y254072D01*
Y255405D01*
X74994Y256072D01*
X72328Y257405D02*
X71661Y258071D01*
Y259404D01*
X72328Y260070D01*
X72994D01*
X73661Y259404D01*
X74327Y260070D01*
X74994D01*
X75660Y259404D01*
Y258071D01*
X74994Y257405D01*
X74327D01*
X73661Y258071D01*
X72994Y257405D01*
X72328D01*
X73661Y258071D02*
Y259404D01*
X210114Y709738D02*
X209447Y710405D01*
X208114D01*
X207448Y709738D01*
Y707072D01*
X208114Y706406D01*
X209447D01*
X210114Y707072D01*
X211447Y706406D02*
X212780D01*
X212113D01*
Y710405D01*
X211447Y709738D01*
X214779D02*
X215445Y710405D01*
X216778D01*
X217445Y709738D01*
Y707072D01*
X216778Y706406D01*
X215445D01*
X214779Y707072D01*
Y709738D01*
X218778Y706406D02*
Y707072D01*
X219444D01*
Y706406D01*
X218778D01*
X222110D02*
X223443D01*
X222776D01*
Y710405D01*
X222110Y709738D01*
X851788Y710214D02*
X851121Y710881D01*
X849788D01*
X849122Y710214D01*
Y707548D01*
X849788Y706882D01*
X851121D01*
X851788Y707548D01*
X853121Y706882D02*
X854454D01*
X853787D01*
Y710881D01*
X853121Y710214D01*
X856453D02*
X857119Y710881D01*
X858452D01*
X859119Y710214D01*
Y707548D01*
X858452Y706882D01*
X857119D01*
X856453Y707548D01*
Y710214D01*
X860452Y706882D02*
Y707548D01*
X861118D01*
Y706882D01*
X860452D01*
X866450D02*
X863784D01*
X866450Y709548D01*
Y710214D01*
X865783Y710881D01*
X864450D01*
X863784Y710214D01*
X530478Y711230D02*
X529811Y711897D01*
X528478D01*
X527812Y711230D01*
Y708564D01*
X528478Y707898D01*
X529811D01*
X530478Y708564D01*
X531811Y707898D02*
X533144D01*
X532477D01*
Y711897D01*
X531811Y711230D01*
X535143D02*
X535809Y711897D01*
X537142D01*
X537809Y711230D01*
Y708564D01*
X537142Y707898D01*
X535809D01*
X535143Y708564D01*
Y711230D01*
X539142Y707898D02*
Y708564D01*
X539808D01*
Y707898D01*
X539142D01*
X542474Y711230D02*
X543140Y711897D01*
X544473D01*
X545140Y711230D01*
Y710564D01*
X544473Y709897D01*
X543807D01*
X544473D01*
X545140Y709231D01*
Y708564D01*
X544473Y707898D01*
X543140D01*
X542474Y708564D01*
X138486Y587310D02*
X137819Y587977D01*
X136486D01*
X135820Y587310D01*
Y584644D01*
X136486Y583978D01*
X137819D01*
X138486Y584644D01*
X139819Y583978D02*
X141152D01*
X140485D01*
Y587977D01*
X139819Y587310D01*
X143151Y583978D02*
X144484D01*
X143817D01*
Y587977D01*
X143151Y587310D01*
X146483Y583978D02*
Y584644D01*
X147150D01*
Y583978D01*
X146483D01*
X149815D02*
X151148D01*
X150482D01*
Y587977D01*
X149815Y587310D01*
X780852Y588326D02*
X780185Y588993D01*
X778852D01*
X778186Y588326D01*
Y585660D01*
X778852Y584994D01*
X780185D01*
X780852Y585660D01*
X782185Y584994D02*
X783518D01*
X782851D01*
Y588993D01*
X782185Y588326D01*
X785517Y584994D02*
X786850D01*
X786183D01*
Y588993D01*
X785517Y588326D01*
X788849Y584994D02*
Y585660D01*
X789516D01*
Y584994D01*
X788849D01*
X794847D02*
X792181D01*
X794847Y587660D01*
Y588326D01*
X794181Y588993D01*
X792848D01*
X792181Y588326D01*
X459104Y588294D02*
X458437Y588961D01*
X457104D01*
X456438Y588294D01*
Y585628D01*
X457104Y584962D01*
X458437D01*
X459104Y585628D01*
X460437Y584962D02*
X461770D01*
X461103D01*
Y588961D01*
X460437Y588294D01*
X463769Y584962D02*
X465102D01*
X464435D01*
Y588961D01*
X463769Y588294D01*
X467101Y584962D02*
Y585628D01*
X467768D01*
Y584962D01*
X467101D01*
X470434Y588294D02*
X471100Y588961D01*
X472433D01*
X473099Y588294D01*
Y587628D01*
X472433Y586961D01*
X471766D01*
X472433D01*
X473099Y586295D01*
Y585628D01*
X472433Y584962D01*
X471100D01*
X470434Y585628D01*
X163150Y605979D02*
X162150Y604979D01*
Y602980D01*
X163150Y601980D01*
X167148D01*
X168148Y602980D01*
Y604979D01*
X167148Y605979D01*
X168148Y607978D02*
Y609977D01*
Y608978D01*
X162150D01*
X163150Y607978D01*
X168148Y616975D02*
Y612976D01*
X164149Y616975D01*
X163150D01*
X162150Y615975D01*
Y613976D01*
X163150Y612976D01*
X168148Y618974D02*
X167148D01*
Y619974D01*
X168148D01*
Y618974D01*
Y623973D02*
Y625972D01*
Y624972D01*
X162150D01*
X163150Y623973D01*
X804754Y606995D02*
X803754Y605995D01*
Y603996D01*
X804754Y602996D01*
X808752D01*
X809752Y603996D01*
Y605995D01*
X808752Y606995D01*
X809752Y608994D02*
Y610993D01*
Y609994D01*
X803754D01*
X804754Y608994D01*
X809752Y617991D02*
Y613992D01*
X805753Y617991D01*
X804754D01*
X803754Y616992D01*
Y614992D01*
X804754Y613992D01*
X809752Y619991D02*
X808752D01*
Y620990D01*
X809752D01*
Y619991D01*
Y628988D02*
Y624989D01*
X805753Y628988D01*
X804754D01*
X803754Y627988D01*
Y625989D01*
X804754Y624989D01*
X483698Y605979D02*
X482698Y604979D01*
Y602980D01*
X483698Y601980D01*
X487696D01*
X488696Y602980D01*
Y604979D01*
X487696Y605979D01*
X488696Y607978D02*
Y609977D01*
Y608978D01*
X482698D01*
X483698Y607978D01*
X488696Y616975D02*
Y612976D01*
X484697Y616975D01*
X483698D01*
X482698Y615975D01*
Y613976D01*
X483698Y612976D01*
X488696Y618974D02*
X487696D01*
Y619974D01*
X488696D01*
Y618974D01*
X483698Y623973D02*
X482698Y624972D01*
Y626972D01*
X483698Y627971D01*
X484697D01*
X485697Y626972D01*
Y625972D01*
Y626972D01*
X486697Y627971D01*
X487696D01*
X488696Y626972D01*
Y624972D01*
X487696Y623973D01*
X691216Y433513D02*
X690216Y432513D01*
Y430514D01*
X691216Y429514D01*
X695214D01*
X696214Y430514D01*
Y432513D01*
X695214Y433513D01*
X696214Y435512D02*
Y437511D01*
Y436512D01*
X690216D01*
X691216Y435512D01*
Y440510D02*
X690216Y441510D01*
Y443509D01*
X691216Y444509D01*
X692215D01*
X693215Y443509D01*
Y442510D01*
Y443509D01*
X694215Y444509D01*
X695214D01*
X696214Y443509D01*
Y441510D01*
X695214Y440510D01*
X706223Y292162D02*
X705556Y292829D01*
X704223D01*
X703557Y292162D01*
Y289496D01*
X704223Y288830D01*
X705556D01*
X706223Y289496D01*
X707556Y288830D02*
X708889D01*
X708222D01*
Y292829D01*
X707556Y292162D01*
X712887Y288830D02*
Y292829D01*
X710888Y290829D01*
X713554D01*
X712405Y313608D02*
X711405Y314608D01*
X709406D01*
X708406Y313608D01*
Y309610D01*
X709406Y308610D01*
X711405D01*
X712405Y309610D01*
X714404Y308610D02*
X716403D01*
X715404D01*
Y314608D01*
X714404Y313608D01*
X723401Y314608D02*
X719402D01*
Y311609D01*
X721402Y312609D01*
X722402D01*
X723401Y311609D01*
Y309610D01*
X722402Y308610D01*
X720402D01*
X719402Y309610D01*
X736418Y434195D02*
X735418Y433195D01*
Y431196D01*
X736418Y430196D01*
X740416D01*
X741416Y431196D01*
Y433195D01*
X740416Y434195D01*
X741416Y436194D02*
Y438194D01*
Y437194D01*
X735418D01*
X736418Y436194D01*
X735418Y441193D02*
Y445191D01*
X736418D01*
X740416Y441193D01*
X741416D01*
X746324Y292448D02*
X745657Y293115D01*
X744324D01*
X743658Y292448D01*
Y289783D01*
X744324Y289116D01*
X745657D01*
X746324Y289783D01*
X747657Y289116D02*
X748990D01*
X748323D01*
Y293115D01*
X747657Y292448D01*
X750989D02*
X751655Y293115D01*
X752988D01*
X753655Y292448D01*
Y291782D01*
X752988Y291115D01*
X753655Y290449D01*
Y289783D01*
X752988Y289116D01*
X751655D01*
X750989Y289783D01*
Y290449D01*
X751655Y291115D01*
X750989Y291782D01*
Y292448D01*
X751655Y291115D02*
X752988D01*
X752537Y313608D02*
X751537Y314608D01*
X749538D01*
X748538Y313608D01*
Y309610D01*
X749538Y308610D01*
X751537D01*
X752537Y309610D01*
X754536Y308610D02*
X756535D01*
X755536D01*
Y314608D01*
X754536Y313608D01*
X759534Y309610D02*
X760534Y308610D01*
X762533D01*
X763533Y309610D01*
Y313608D01*
X762533Y314608D01*
X760534D01*
X759534Y313608D01*
Y312609D01*
X760534Y311609D01*
X763533D01*
X635634Y356392D02*
X634967Y357059D01*
X633634D01*
X632968Y356392D01*
Y353726D01*
X633634Y353060D01*
X634967D01*
X635634Y353726D01*
X639632Y353060D02*
X636967D01*
X639632Y355726D01*
Y356392D01*
X638966Y357059D01*
X637633D01*
X636967Y356392D01*
X643631Y353060D02*
X640965D01*
X643631Y355726D01*
Y356392D01*
X642965Y357059D01*
X641632D01*
X640965Y356392D01*
X619426Y218248D02*
X618759Y218915D01*
X617426D01*
X616760Y218248D01*
Y215582D01*
X617426Y214916D01*
X618759D01*
X619426Y215582D01*
X623424Y214916D02*
X620759D01*
X623424Y217582D01*
Y218248D01*
X622758Y218915D01*
X621425D01*
X620759Y218248D01*
X624757D02*
X625424Y218915D01*
X626757D01*
X627423Y218248D01*
Y217582D01*
X626757Y216915D01*
X626090D01*
X626757D01*
X627423Y216249D01*
Y215582D01*
X626757Y214916D01*
X625424D01*
X624757Y215582D01*
X556132Y275366D02*
X555465Y276033D01*
X554132D01*
X553466Y275366D01*
Y272700D01*
X554132Y272034D01*
X555465D01*
X556132Y272700D01*
X560131Y272034D02*
X557465D01*
X560131Y274700D01*
Y275366D01*
X559464Y276033D01*
X558131D01*
X557465Y275366D01*
X563463Y272034D02*
Y276033D01*
X561463Y274033D01*
X564129D01*
X503526Y280536D02*
X502859Y281203D01*
X501526D01*
X500860Y280536D01*
Y277870D01*
X501526Y277204D01*
X502859D01*
X503526Y277870D01*
X507524Y277204D02*
X504859D01*
X507524Y279870D01*
Y280536D01*
X506858Y281203D01*
X505525D01*
X504859Y280536D01*
X511523Y281203D02*
X508857D01*
Y279203D01*
X510190Y279870D01*
X510857D01*
X511523Y279203D01*
Y277870D01*
X510857Y277204D01*
X509524D01*
X508857Y277870D01*
X312390Y104774D02*
X311723Y104107D01*
Y102774D01*
X312390Y102108D01*
X315056D01*
X315722Y102774D01*
Y104107D01*
X315056Y104774D01*
X315722Y108772D02*
Y106107D01*
X313056Y108772D01*
X312390D01*
X311723Y108106D01*
Y106773D01*
X312390Y106107D01*
X311723Y112771D02*
X312390Y111438D01*
X313723Y110105D01*
X315056D01*
X315722Y110772D01*
Y112105D01*
X315056Y112771D01*
X314389D01*
X313723Y112105D01*
Y110105D01*
X927543Y366440D02*
X926543Y367440D01*
X924544D01*
X923544Y366440D01*
Y362442D01*
X924544Y361442D01*
X926543D01*
X927543Y362442D01*
X932541Y361442D02*
Y367440D01*
X929542Y364441D01*
X933541D01*
X939539Y367440D02*
X937540Y366440D01*
X935540Y364441D01*
Y362442D01*
X936540Y361442D01*
X938539D01*
X939539Y362442D01*
Y363441D01*
X938539Y364441D01*
X935540D01*
X926781Y388030D02*
X925781Y389030D01*
X923782D01*
X922782Y388030D01*
Y384032D01*
X923782Y383032D01*
X925781D01*
X926781Y384032D01*
X931779Y383032D02*
Y389030D01*
X928780Y386031D01*
X932779D01*
X934778Y389030D02*
X938777D01*
Y388030D01*
X934778Y384032D01*
Y383032D01*
X877144Y381443D02*
X876144Y380443D01*
Y378444D01*
X877144Y377444D01*
X881142D01*
X882142Y378444D01*
Y380443D01*
X881142Y381443D01*
X882142Y386441D02*
X876144D01*
X879143Y383442D01*
Y387441D01*
X877144Y389440D02*
X876144Y390440D01*
Y392439D01*
X877144Y393439D01*
X878143D01*
X879143Y392439D01*
X880143Y393439D01*
X881142D01*
X882142Y392439D01*
Y390440D01*
X881142Y389440D01*
X880143D01*
X879143Y390440D01*
X878143Y389440D01*
X877144D01*
X879143Y390440D02*
Y392439D01*
X899750Y382459D02*
X898750Y381459D01*
Y379460D01*
X899750Y378460D01*
X903748D01*
X904748Y379460D01*
Y381459D01*
X903748Y382459D01*
X904748Y387457D02*
X898750D01*
X901749Y384458D01*
Y388457D01*
X903748Y390456D02*
X904748Y391456D01*
Y393455D01*
X903748Y394455D01*
X899750D01*
X898750Y393455D01*
Y391456D01*
X899750Y390456D01*
X900749D01*
X901749Y391456D01*
Y394455D01*
X926592Y708912D02*
Y703914D01*
X929091D01*
X929924Y704747D01*
Y708079D01*
X929091Y708912D01*
X926592D01*
X934923Y703914D02*
X931590D01*
X934923Y707246D01*
Y708079D01*
X934090Y708912D01*
X932423D01*
X931590Y708079D01*
X117605Y594360D02*
X125222D01*
Y598169D01*
X123952Y599438D01*
X118874D01*
X117605Y598169D01*
Y594360D01*
X125222Y605786D02*
X117605D01*
X121413Y601978D01*
Y607056D01*
X125222Y609595D02*
X123952D01*
Y610865D01*
X125222D01*
Y609595D01*
Y615943D02*
Y618482D01*
Y617213D01*
X117605D01*
X118874Y615943D01*
X439169Y593852D02*
X446786D01*
Y597661D01*
X445516Y598930D01*
X440438D01*
X439169Y597661D01*
Y593852D01*
X446786Y605278D02*
X439169D01*
X442977Y601469D01*
Y606548D01*
X446786Y609087D02*
X445516D01*
Y610357D01*
X446786D01*
Y609087D01*
X440438Y615435D02*
X439169Y616705D01*
Y619244D01*
X440438Y620513D01*
X441708D01*
X442977Y619244D01*
Y617974D01*
Y619244D01*
X444247Y620513D01*
X445516D01*
X446786Y619244D01*
Y616705D01*
X445516Y615435D01*
X855472Y468786D02*
Y462788D01*
X858471D01*
X859471Y463788D01*
Y467786D01*
X858471Y468786D01*
X855472D01*
X865469D02*
X863469Y467786D01*
X861470Y465787D01*
Y463788D01*
X862470Y462788D01*
X864469D01*
X865469Y463788D01*
Y464787D01*
X864469Y465787D01*
X861470D01*
X925576Y913636D02*
Y908558D01*
X928115D01*
X928962Y909404D01*
Y912790D01*
X928115Y913636D01*
X925576D01*
X930654D02*
X934040D01*
Y912790D01*
X930654Y909404D01*
Y908558D01*
X925248Y814242D02*
Y809244D01*
X927747D01*
X928580Y810077D01*
Y813409D01*
X927747Y814242D01*
X925248D01*
X930246Y813409D02*
X931079Y814242D01*
X932746D01*
X933579Y813409D01*
Y812576D01*
X932746Y811743D01*
X933579Y810910D01*
Y810077D01*
X932746Y809244D01*
X931079D01*
X930246Y810077D01*
Y810910D01*
X931079Y811743D01*
X930246Y812576D01*
Y813409D01*
X931079Y811743D02*
X932746D01*
X925370Y865296D02*
Y860298D01*
X927869D01*
X928702Y861131D01*
Y864463D01*
X927869Y865296D01*
X925370D01*
X930368Y861131D02*
X931201Y860298D01*
X932868D01*
X933701Y861131D01*
Y864463D01*
X932868Y865296D01*
X931201D01*
X930368Y864463D01*
Y863630D01*
X931201Y862797D01*
X933701D01*
X924560Y759788D02*
Y754710D01*
X927099D01*
X927946Y755556D01*
Y758942D01*
X927099Y759788D01*
X924560D01*
X929638Y754710D02*
X931331D01*
X930485D01*
Y759788D01*
X929638Y758942D01*
X933870D02*
X934717Y759788D01*
X936410D01*
X937256Y758942D01*
Y755556D01*
X936410Y754710D01*
X934717D01*
X933870Y755556D01*
Y758942D01*
X25736Y345948D02*
X30734D01*
Y348447D01*
X29901Y349280D01*
X26569D01*
X25736Y348447D01*
Y345948D01*
X30734Y350946D02*
Y352612D01*
Y351779D01*
X25736D01*
X26569Y350946D01*
X30734Y355112D02*
Y356778D01*
Y355945D01*
X25736D01*
X26569Y355112D01*
X762508Y491234D02*
Y486156D01*
X765047D01*
X765894Y487002D01*
Y490388D01*
X765047Y491234D01*
X762508D01*
X767586Y486156D02*
X769279D01*
X768433D01*
Y491234D01*
X767586Y490388D01*
X771818D02*
X772665Y491234D01*
X774358D01*
X775204Y490388D01*
Y489542D01*
X774358Y488695D01*
X773511D01*
X774358D01*
X775204Y487849D01*
Y487002D01*
X774358Y486156D01*
X772665D01*
X771818Y487002D01*
X659132Y167894D02*
X665480D01*
Y171068D01*
X664422Y172126D01*
X660190D01*
X659132Y171068D01*
Y167894D01*
X665480Y174242D02*
Y176358D01*
Y175300D01*
X659132D01*
X660190Y174242D01*
X665480Y182706D02*
X659132D01*
X662306Y179532D01*
Y183764D01*
X67900Y346456D02*
X72898D01*
Y348955D01*
X72065Y349788D01*
X68733D01*
X67900Y348955D01*
Y346456D01*
X72898Y351454D02*
Y353120D01*
Y352287D01*
X67900D01*
X68733Y351454D01*
X67900Y358952D02*
Y355620D01*
X70399D01*
X69566Y357286D01*
Y358119D01*
X70399Y358952D01*
X72065D01*
X72898Y358119D01*
Y356453D01*
X72065Y355620D01*
X794258Y395732D02*
Y401730D01*
X797257D01*
X798257Y400730D01*
Y398731D01*
X797257Y397731D01*
X794258D01*
X796257D02*
X798257Y395732D01*
X804255D02*
X800256D01*
X804255Y399731D01*
Y400730D01*
X803255Y401730D01*
X801256D01*
X800256Y400730D01*
X788924Y426466D02*
X782926D01*
Y429465D01*
X783926Y430465D01*
X785925D01*
X786925Y429465D01*
Y426466D01*
Y428465D02*
X788924Y430465D01*
X783926Y432464D02*
X782926Y433464D01*
Y435463D01*
X783926Y436463D01*
X784925D01*
X785925Y435463D01*
Y434463D01*
Y435463D01*
X786925Y436463D01*
X787924D01*
X788924Y435463D01*
Y433464D01*
X787924Y432464D01*
X874522Y116840D02*
X868524D01*
Y119839D01*
X869524Y120839D01*
X871523D01*
X872523Y119839D01*
Y116840D01*
Y118839D02*
X874522Y120839D01*
X868524Y126837D02*
X869524Y124837D01*
X871523Y122838D01*
X873522D01*
X874522Y123838D01*
Y125837D01*
X873522Y126837D01*
X872523D01*
X871523Y125837D01*
Y122838D01*
X921988Y878308D02*
X917989D01*
Y880307D01*
X918656Y880974D01*
X919989D01*
X920655Y880307D01*
Y878308D01*
Y879641D02*
X921988Y880974D01*
X917989Y882307D02*
Y884973D01*
X918656D01*
X921322Y882307D01*
X921988D01*
X922248Y827584D02*
X918249D01*
Y829583D01*
X918916Y830250D01*
X920249D01*
X920915Y829583D01*
Y827584D01*
Y828917D02*
X922248Y830250D01*
X918916Y831583D02*
X918249Y832249D01*
Y833582D01*
X918916Y834249D01*
X919582D01*
X920249Y833582D01*
X920915Y834249D01*
X921582D01*
X922248Y833582D01*
Y832249D01*
X921582Y831583D01*
X920915D01*
X920249Y832249D01*
X919582Y831583D01*
X918916D01*
X920249Y832249D02*
Y833582D01*
X921988Y927954D02*
X917989D01*
Y929953D01*
X918656Y930620D01*
X919989D01*
X920655Y929953D01*
Y927954D01*
Y929287D02*
X921988Y930620D01*
X921322Y931953D02*
X921988Y932619D01*
Y933952D01*
X921322Y934619D01*
X918656D01*
X917989Y933952D01*
Y932619D01*
X918656Y931953D01*
X919322D01*
X919989Y932619D01*
Y934619D01*
X207010Y688340D02*
Y694338D01*
X210009D01*
X211009Y693338D01*
Y691339D01*
X210009Y690339D01*
X207010D01*
X209009D02*
X211009Y688340D01*
X213008D02*
X215007D01*
X214008D01*
Y694338D01*
X213008Y693338D01*
X222005Y688340D02*
X218006D01*
X222005Y692339D01*
Y693338D01*
X221005Y694338D01*
X219006D01*
X218006Y693338D01*
X224004Y688340D02*
Y689340D01*
X225004D01*
Y688340D01*
X224004D01*
X229003D02*
X231002D01*
X230002D01*
Y694338D01*
X229003Y693338D01*
X851154Y689610D02*
Y694688D01*
X853693D01*
X854540Y693842D01*
Y692149D01*
X853693Y691303D01*
X851154D01*
X852847D02*
X854540Y689610D01*
X856232D02*
X857925D01*
X857079D01*
Y694688D01*
X856232Y693842D01*
X863850Y689610D02*
X860464D01*
X863850Y692996D01*
Y693842D01*
X863003Y694688D01*
X861311D01*
X860464Y693842D01*
X865543Y689610D02*
Y690456D01*
X866389D01*
Y689610D01*
X865543D01*
X873160D02*
X869775D01*
X873160Y692996D01*
Y693842D01*
X872314Y694688D01*
X870621D01*
X869775Y693842D01*
X528828Y690372D02*
Y695450D01*
X531367D01*
X532214Y694604D01*
Y692911D01*
X531367Y692065D01*
X528828D01*
X530521D02*
X532214Y690372D01*
X533906D02*
X535599D01*
X534753D01*
Y695450D01*
X533906Y694604D01*
X541524Y690372D02*
X538138D01*
X541524Y693758D01*
Y694604D01*
X540677Y695450D01*
X538985D01*
X538138Y694604D01*
X543217Y690372D02*
Y691218D01*
X544063D01*
Y690372D01*
X543217D01*
X547449Y694604D02*
X548295Y695450D01*
X549988D01*
X550834Y694604D01*
Y693758D01*
X549988Y692911D01*
X549141D01*
X549988D01*
X550834Y692065D01*
Y691218D01*
X549988Y690372D01*
X548295D01*
X547449Y691218D01*
X922370Y721996D02*
X918371D01*
Y723995D01*
X919038Y724662D01*
X920371D01*
X921037Y723995D01*
Y721996D01*
Y723329D02*
X922370Y724662D01*
Y725995D02*
Y727328D01*
Y726661D01*
X918371D01*
X919038Y725995D01*
X918371Y731993D02*
Y729327D01*
X920371D01*
X919704Y730660D01*
Y731326D01*
X920371Y731993D01*
X921704D01*
X922370Y731326D01*
Y729993D01*
X921704Y729327D01*
X923258Y773520D02*
X919259D01*
Y775519D01*
X919926Y776186D01*
X921259D01*
X921925Y775519D01*
Y773520D01*
Y774853D02*
X923258Y776186D01*
Y777519D02*
Y778852D01*
Y778185D01*
X919259D01*
X919926Y777519D01*
X919259Y783517D02*
X919926Y782184D01*
X921259Y780851D01*
X922592D01*
X923258Y781517D01*
Y782850D01*
X922592Y783517D01*
X921925D01*
X921259Y782850D01*
Y780851D01*
X44544Y345240D02*
X40545D01*
Y347239D01*
X41212Y347906D01*
X42545D01*
X43211Y347239D01*
Y345240D01*
Y346573D02*
X44544Y347906D01*
Y349239D02*
Y350572D01*
Y349905D01*
X40545D01*
X41212Y349239D01*
X40545Y352571D02*
Y355237D01*
X41212D01*
X43878Y352571D01*
X44544D01*
X57498Y344986D02*
X53499D01*
Y346985D01*
X54166Y347652D01*
X55499D01*
X56165Y346985D01*
Y344986D01*
Y346319D02*
X57498Y347652D01*
Y348985D02*
Y350318D01*
Y349651D01*
X53499D01*
X54166Y348985D01*
Y352317D02*
X53499Y352983D01*
Y354316D01*
X54166Y354983D01*
X54832D01*
X55499Y354316D01*
X56165Y354983D01*
X56832D01*
X57498Y354316D01*
Y352983D01*
X56832Y352317D01*
X56165D01*
X55499Y352983D01*
X54832Y352317D01*
X54166D01*
X55499Y352983D02*
Y354316D01*
X97536Y346964D02*
X93537D01*
Y348963D01*
X94204Y349630D01*
X95537D01*
X96203Y348963D01*
Y346964D01*
Y348297D02*
X97536Y349630D01*
Y350963D02*
Y352296D01*
Y351629D01*
X93537D01*
X94204Y350963D01*
X96870Y354295D02*
X97536Y354961D01*
Y356294D01*
X96870Y356961D01*
X94204D01*
X93537Y356294D01*
Y354961D01*
X94204Y354295D01*
X94870D01*
X95537Y354961D01*
Y356961D01*
X25908Y463550D02*
Y469548D01*
X28907D01*
X29907Y468548D01*
Y466549D01*
X28907Y465549D01*
X25908D01*
X27907D02*
X29907Y463550D01*
X35905D02*
X31906D01*
X35905Y467549D01*
Y468548D01*
X34905Y469548D01*
X32906D01*
X31906Y468548D01*
X37904D02*
X38904Y469548D01*
X40903D01*
X41903Y468548D01*
Y464550D01*
X40903Y463550D01*
X38904D01*
X37904Y464550D01*
Y468548D01*
X139794Y483162D02*
X135795D01*
Y485161D01*
X136462Y485828D01*
X137795D01*
X138461Y485161D01*
Y483162D01*
Y484495D02*
X139794Y485828D01*
Y489827D02*
Y487161D01*
X137128Y489827D01*
X136462D01*
X135795Y489160D01*
Y487827D01*
X136462Y487161D01*
X139794Y491159D02*
Y492492D01*
Y491826D01*
X135795D01*
X136462Y491159D01*
X725678Y440690D02*
X721679D01*
Y442689D01*
X722346Y443356D01*
X723679D01*
X724345Y442689D01*
Y440690D01*
Y442023D02*
X725678Y443356D01*
Y447355D02*
Y444689D01*
X723012Y447355D01*
X722346D01*
X721679Y446688D01*
Y445355D01*
X722346Y444689D01*
X725678Y451353D02*
Y448687D01*
X723012Y451353D01*
X722346D01*
X721679Y450687D01*
Y449354D01*
X722346Y448687D01*
X703196Y221266D02*
Y225265D01*
X705195D01*
X705862Y224598D01*
Y223265D01*
X705195Y222599D01*
X703196D01*
X704529D02*
X705862Y221266D01*
X709861D02*
X707195D01*
X709861Y223932D01*
Y224598D01*
X709194Y225265D01*
X707861D01*
X707195Y224598D01*
X713859Y225265D02*
X711193D01*
Y223265D01*
X712526Y223932D01*
X713193D01*
X713859Y223265D01*
Y221932D01*
X713193Y221266D01*
X711860D01*
X711193Y221932D01*
X703450Y246666D02*
Y250665D01*
X705449D01*
X706116Y249998D01*
Y248665D01*
X705449Y247999D01*
X703450D01*
X704783D02*
X706116Y246666D01*
X710115D02*
X707449D01*
X710115Y249332D01*
Y249998D01*
X709448Y250665D01*
X708115D01*
X707449Y249998D01*
X714113Y250665D02*
X712780Y249998D01*
X711447Y248665D01*
Y247332D01*
X712114Y246666D01*
X713447D01*
X714113Y247332D01*
Y247999D01*
X713447Y248665D01*
X711447D01*
X703450Y259366D02*
Y263365D01*
X705449D01*
X706116Y262698D01*
Y261365D01*
X705449Y260699D01*
X703450D01*
X704783D02*
X706116Y259366D01*
X710115D02*
X707449D01*
X710115Y262032D01*
Y262698D01*
X709448Y263365D01*
X708115D01*
X707449Y262698D01*
X711447Y263365D02*
X714113D01*
Y262698D01*
X711447Y260032D01*
Y259366D01*
X585216Y272034D02*
Y276033D01*
X587215D01*
X587882Y275366D01*
Y274033D01*
X587215Y273367D01*
X585216D01*
X586549D02*
X587882Y272034D01*
X591880D02*
X589215D01*
X591880Y274700D01*
Y275366D01*
X591214Y276033D01*
X589881D01*
X589215Y275366D01*
X593213D02*
X593880Y276033D01*
X595213D01*
X595879Y275366D01*
Y274700D01*
X595213Y274033D01*
X595879Y273367D01*
Y272700D01*
X595213Y272034D01*
X593880D01*
X593213Y272700D01*
Y273367D01*
X593880Y274033D01*
X593213Y274700D01*
Y275366D01*
X593880Y274033D02*
X595213D01*
X584962Y259366D02*
Y263365D01*
X586961D01*
X587628Y262698D01*
Y261365D01*
X586961Y260699D01*
X584962D01*
X586295D02*
X587628Y259366D01*
X591627D02*
X588961D01*
X591627Y262032D01*
Y262698D01*
X590960Y263365D01*
X589627D01*
X588961Y262698D01*
X592959Y260032D02*
X593626Y259366D01*
X594959D01*
X595625Y260032D01*
Y262698D01*
X594959Y263365D01*
X593626D01*
X592959Y262698D01*
Y262032D01*
X593626Y261365D01*
X595625D01*
X585978Y246126D02*
Y250125D01*
X587977D01*
X588644Y249458D01*
Y248125D01*
X587977Y247459D01*
X585978D01*
X587311D02*
X588644Y246126D01*
X589977Y249458D02*
X590643Y250125D01*
X591976D01*
X592643Y249458D01*
Y248792D01*
X591976Y248125D01*
X591310D01*
X591976D01*
X592643Y247459D01*
Y246792D01*
X591976Y246126D01*
X590643D01*
X589977Y246792D01*
X593975Y249458D02*
X594642Y250125D01*
X595975D01*
X596641Y249458D01*
Y246792D01*
X595975Y246126D01*
X594642D01*
X593975Y246792D01*
Y249458D01*
X127856Y483162D02*
X123857D01*
Y485161D01*
X124524Y485828D01*
X125857D01*
X126523Y485161D01*
Y483162D01*
Y484495D02*
X127856Y485828D01*
X124524Y487161D02*
X123857Y487827D01*
Y489160D01*
X124524Y489827D01*
X125190D01*
X125857Y489160D01*
Y488494D01*
Y489160D01*
X126523Y489827D01*
X127190D01*
X127856Y489160D01*
Y487827D01*
X127190Y487161D01*
X127856Y491159D02*
Y492492D01*
Y491826D01*
X123857D01*
X124524Y491159D01*
X585598Y233712D02*
Y237711D01*
X587597D01*
X588264Y237044D01*
Y235711D01*
X587597Y235045D01*
X585598D01*
X586931D02*
X588264Y233712D01*
X589597Y237044D02*
X590263Y237711D01*
X591596D01*
X592262Y237044D01*
Y236378D01*
X591596Y235711D01*
X590930D01*
X591596D01*
X592262Y235045D01*
Y234378D01*
X591596Y233712D01*
X590263D01*
X589597Y234378D01*
X596261Y233712D02*
X593595D01*
X596261Y236378D01*
Y237044D01*
X595595Y237711D01*
X594262D01*
X593595Y237044D01*
X704088Y207772D02*
Y211771D01*
X706087D01*
X706754Y211104D01*
Y209771D01*
X706087Y209105D01*
X704088D01*
X705421D02*
X706754Y207772D01*
X708087Y211104D02*
X708753Y211771D01*
X710086D01*
X710752Y211104D01*
Y210438D01*
X710086Y209771D01*
X709420D01*
X710086D01*
X710752Y209105D01*
Y208438D01*
X710086Y207772D01*
X708753D01*
X708087Y208438D01*
X712085Y211104D02*
X712752Y211771D01*
X714085D01*
X714751Y211104D01*
Y210438D01*
X714085Y209771D01*
X713418D01*
X714085D01*
X714751Y209105D01*
Y208438D01*
X714085Y207772D01*
X712752D01*
X712085Y208438D01*
X703834Y234188D02*
Y238187D01*
X705833D01*
X706500Y237520D01*
Y236187D01*
X705833Y235521D01*
X703834D01*
X705167D02*
X706500Y234188D01*
X707833Y237520D02*
X708499Y238187D01*
X709832D01*
X710499Y237520D01*
Y236854D01*
X709832Y236187D01*
X709166D01*
X709832D01*
X710499Y235521D01*
Y234854D01*
X709832Y234188D01*
X708499D01*
X707833Y234854D01*
X713831Y234188D02*
Y238187D01*
X711831Y236187D01*
X714497D01*
X703834Y272034D02*
Y276033D01*
X705833D01*
X706500Y275366D01*
Y274033D01*
X705833Y273367D01*
X703834D01*
X705167D02*
X706500Y272034D01*
X707833Y275366D02*
X708499Y276033D01*
X709832D01*
X710499Y275366D01*
Y274700D01*
X709832Y274033D01*
X709166D01*
X709832D01*
X710499Y273367D01*
Y272700D01*
X709832Y272034D01*
X708499D01*
X707833Y272700D01*
X714497Y276033D02*
X711831D01*
Y274033D01*
X713164Y274700D01*
X713831D01*
X714497Y274033D01*
Y272700D01*
X713831Y272034D01*
X712498D01*
X711831Y272700D01*
X233887Y470786D02*
Y474785D01*
X235886D01*
X236553Y474118D01*
Y472785D01*
X235886Y472119D01*
X233887D01*
X235220D02*
X236553Y470786D01*
X237885Y474118D02*
X238552Y474785D01*
X239885D01*
X240551Y474118D01*
Y473452D01*
X239885Y472785D01*
X239218D01*
X239885D01*
X240551Y472119D01*
Y471452D01*
X239885Y470786D01*
X238552D01*
X237885Y471452D01*
X241884Y474118D02*
X242551Y474785D01*
X243883D01*
X244550Y474118D01*
Y473452D01*
X243883Y472785D01*
X244550Y472119D01*
Y471452D01*
X243883Y470786D01*
X242551D01*
X241884Y471452D01*
Y472119D01*
X242551Y472785D01*
X241884Y473452D01*
Y474118D01*
X242551Y472785D02*
X243883D01*
X1004698Y154682D02*
Y158681D01*
X1006697D01*
X1007364Y158014D01*
Y156681D01*
X1006697Y156015D01*
X1004698D01*
X1006031D02*
X1007364Y154682D01*
X1008697Y158014D02*
X1009363Y158681D01*
X1010696D01*
X1011363Y158014D01*
Y157348D01*
X1010696Y156681D01*
X1010030D01*
X1010696D01*
X1011363Y156015D01*
Y155348D01*
X1010696Y154682D01*
X1009363D01*
X1008697Y155348D01*
X1012695D02*
X1013362Y154682D01*
X1014695D01*
X1015361Y155348D01*
Y158014D01*
X1014695Y158681D01*
X1013362D01*
X1012695Y158014D01*
Y157348D01*
X1013362Y156681D01*
X1015361D01*
X1036462Y122048D02*
X1032463D01*
Y124047D01*
X1033130Y124714D01*
X1034463D01*
X1035129Y124047D01*
Y122048D01*
Y123381D02*
X1036462Y124714D01*
Y128046D02*
X1032463D01*
X1034463Y126047D01*
Y128713D01*
X1036462Y130045D02*
Y131378D01*
Y130712D01*
X1032463D01*
X1033130Y130045D01*
X1023366Y122556D02*
X1019367D01*
Y124555D01*
X1020034Y125222D01*
X1021367D01*
X1022033Y124555D01*
Y122556D01*
Y123889D02*
X1023366Y125222D01*
Y128554D02*
X1019367D01*
X1021367Y126555D01*
Y129221D01*
X1023366Y133219D02*
Y130553D01*
X1020700Y133219D01*
X1020034D01*
X1019367Y132553D01*
Y131220D01*
X1020034Y130553D01*
X794670Y137543D02*
Y141542D01*
X796669D01*
X797336Y140876D01*
Y139543D01*
X796669Y138876D01*
X794670D01*
X796003D02*
X797336Y137543D01*
X800668D02*
Y141542D01*
X798669Y139543D01*
X801335D01*
X804667Y137543D02*
Y141542D01*
X802667Y139543D01*
X805333D01*
X233887Y496312D02*
Y500311D01*
X235886D01*
X236553Y499644D01*
Y498311D01*
X235886Y497645D01*
X233887D01*
X235220D02*
X236553Y496312D01*
X239885D02*
Y500311D01*
X237885Y498311D01*
X240551D01*
X241884Y499644D02*
X242551Y500311D01*
X243883D01*
X244550Y499644D01*
Y498978D01*
X243883Y498311D01*
X244550Y497645D01*
Y496978D01*
X243883Y496312D01*
X242551D01*
X241884Y496978D01*
Y497645D01*
X242551Y498311D01*
X241884Y498978D01*
Y499644D01*
X242551Y498311D02*
X243883D01*
X209900Y475326D02*
X205901D01*
Y477325D01*
X206568Y477992D01*
X207901D01*
X208567Y477325D01*
Y475326D01*
Y476659D02*
X209900Y477992D01*
Y481324D02*
X205901D01*
X207901Y479325D01*
Y481991D01*
X209234Y483323D02*
X209900Y483990D01*
Y485323D01*
X209234Y485989D01*
X206568D01*
X205901Y485323D01*
Y483990D01*
X206568Y483323D01*
X207234D01*
X207901Y483990D01*
Y485989D01*
X234188Y457962D02*
Y461961D01*
X236187D01*
X236854Y461294D01*
Y459961D01*
X236187Y459295D01*
X234188D01*
X235521D02*
X236854Y457962D01*
X240853Y461961D02*
X238187D01*
Y459961D01*
X239520Y460628D01*
X240186D01*
X240853Y459961D01*
Y458628D01*
X240186Y457962D01*
X238853D01*
X238187Y458628D01*
X242185Y461294D02*
X242852Y461961D01*
X244185D01*
X244851Y461294D01*
Y458628D01*
X244185Y457962D01*
X242852D01*
X242185Y458628D01*
Y461294D01*
X234696Y483108D02*
Y487107D01*
X236695D01*
X237362Y486440D01*
Y485107D01*
X236695Y484441D01*
X234696D01*
X236029D02*
X237362Y483108D01*
X241360Y487107D02*
X238695D01*
Y485107D01*
X240028Y485774D01*
X240694D01*
X241360Y485107D01*
Y483774D01*
X240694Y483108D01*
X239361D01*
X238695Y483774D01*
X242693Y483108D02*
X244026D01*
X243360D01*
Y487107D01*
X242693Y486440D01*
X197866Y474980D02*
X193867D01*
Y476979D01*
X194534Y477646D01*
X195867D01*
X196533Y476979D01*
Y474980D01*
Y476313D02*
X197866Y477646D01*
X193867Y481645D02*
Y478979D01*
X195867D01*
X195200Y480312D01*
Y480978D01*
X195867Y481645D01*
X197200D01*
X197866Y480978D01*
Y479645D01*
X197200Y478979D01*
X197866Y485643D02*
Y482977D01*
X195200Y485643D01*
X194534D01*
X193867Y484977D01*
Y483644D01*
X194534Y482977D01*
X60706Y219202D02*
X56707D01*
Y221201D01*
X57374Y221868D01*
X58707D01*
X59373Y221201D01*
Y219202D01*
Y220535D02*
X60706Y221868D01*
X56707Y225867D02*
Y223201D01*
X58707D01*
X58040Y224534D01*
Y225200D01*
X58707Y225867D01*
X60040D01*
X60706Y225200D01*
Y223867D01*
X60040Y223201D01*
X57374Y227199D02*
X56707Y227866D01*
Y229199D01*
X57374Y229865D01*
X58040D01*
X58707Y229199D01*
Y228532D01*
Y229199D01*
X59373Y229865D01*
X60040D01*
X60706Y229199D01*
Y227866D01*
X60040Y227199D01*
X73754Y219002D02*
X69755D01*
Y221001D01*
X70422Y221668D01*
X71755D01*
X72421Y221001D01*
Y219002D01*
Y220335D02*
X73754Y221668D01*
X69755Y225667D02*
Y223001D01*
X71755D01*
X71088Y224334D01*
Y225000D01*
X71755Y225667D01*
X73088D01*
X73754Y225000D01*
Y223667D01*
X73088Y223001D01*
X73754Y228999D02*
X69755D01*
X71755Y226999D01*
Y229665D01*
X791618Y486410D02*
Y492408D01*
X794617D01*
X795617Y491408D01*
Y489409D01*
X794617Y488409D01*
X791618D01*
X793617D02*
X795617Y486410D01*
X801615Y492408D02*
X797616D01*
Y489409D01*
X799615Y490409D01*
X800615D01*
X801615Y489409D01*
Y487410D01*
X800615Y486410D01*
X798616D01*
X797616Y487410D01*
X807613Y492408D02*
X803614D01*
Y489409D01*
X805613Y490409D01*
X806613D01*
X807613Y489409D01*
Y487410D01*
X806613Y486410D01*
X804614D01*
X803614Y487410D01*
X683514Y160528D02*
X677516D01*
Y163527D01*
X678516Y164527D01*
X680515D01*
X681515Y163527D01*
Y160528D01*
Y162527D02*
X683514Y164527D01*
X677516Y170525D02*
Y166526D01*
X680515D01*
X679515Y168525D01*
Y169525D01*
X680515Y170525D01*
X682514D01*
X683514Y169525D01*
Y167526D01*
X682514Y166526D01*
X677516Y176523D02*
X678516Y174524D01*
X680515Y172524D01*
X682514D01*
X683514Y173524D01*
Y175523D01*
X682514Y176523D01*
X681515D01*
X680515Y175523D01*
Y172524D01*
X847404Y384251D02*
X845738Y385917D01*
X842406D01*
X840740Y384251D01*
Y382584D01*
X842406Y380918D01*
X845738D01*
X847404Y379252D01*
Y377586D01*
X845738Y375920D01*
X842406D01*
X840740Y377586D01*
X857401Y375920D02*
X850737D01*
X857401Y382584D01*
Y384251D01*
X855735Y385917D01*
X852403D01*
X850737Y384251D01*
X30287Y430730D02*
X28620Y432396D01*
X25288D01*
X23622Y430730D01*
Y429064D01*
X25288Y427398D01*
X28620D01*
X30287Y425732D01*
Y424065D01*
X28620Y422399D01*
X25288D01*
X23622Y424065D01*
X33619Y430730D02*
X35285Y432396D01*
X38617D01*
X40283Y430730D01*
Y429064D01*
X38617Y427398D01*
X36951D01*
X38617D01*
X40283Y425732D01*
Y424065D01*
X38617Y422399D01*
X35285D01*
X33619Y424065D01*
X251521Y106375D02*
X249854Y108041D01*
X246522D01*
X244856Y106375D01*
Y104708D01*
X246522Y103042D01*
X249854D01*
X251521Y101376D01*
Y99710D01*
X249854Y98044D01*
X246522D01*
X244856Y99710D01*
X259851Y98044D02*
Y108041D01*
X254853Y103042D01*
X261517D01*
X202126Y447163D02*
Y440499D01*
X203459Y439166D01*
X206125D01*
X207458Y440499D01*
Y447163D01*
X215455Y439166D02*
X210123D01*
X215455Y444498D01*
Y445830D01*
X214122Y447163D01*
X211456D01*
X210123Y445830D01*
X223452Y447163D02*
X220787Y445830D01*
X218121Y443165D01*
Y440499D01*
X219454Y439166D01*
X222120D01*
X223452Y440499D01*
Y441832D01*
X222120Y443165D01*
X218121D01*
X567345Y149860D02*
X575676D01*
X577342Y151526D01*
Y154858D01*
X575676Y156524D01*
X567345D01*
X577342Y166521D02*
Y159857D01*
X570677Y166521D01*
X569011D01*
X567345Y164855D01*
Y161523D01*
X569011Y159857D01*
X538418Y109474D02*
X537751Y108807D01*
Y107474D01*
X538418Y106808D01*
X541084D01*
X541750Y107474D01*
Y108807D01*
X541084Y109474D01*
X541750Y113472D02*
Y110807D01*
X539084Y113472D01*
X538418D01*
X537751Y112806D01*
Y111473D01*
X538418Y110807D01*
Y114805D02*
X537751Y115472D01*
Y116805D01*
X538418Y117471D01*
X541084D01*
X541750Y116805D01*
Y115472D01*
X541084Y114805D01*
X538418D01*
X601156Y155114D02*
X600489Y154447D01*
Y153115D01*
X601156Y152448D01*
X603822D01*
X604488Y153115D01*
Y154447D01*
X603822Y155114D01*
X604488Y159113D02*
Y156447D01*
X601822Y159113D01*
X601156D01*
X600489Y158446D01*
Y157113D01*
X601156Y156447D01*
X604488Y160445D02*
Y161778D01*
Y161112D01*
X600489D01*
X601156Y160445D01*
X1000506Y889762D02*
Y899759D01*
X1005504D01*
X1007170Y898093D01*
Y894760D01*
X1005504Y893094D01*
X1000506D01*
X1003838D02*
X1007170Y889762D01*
X1015501D02*
Y899759D01*
X1010503Y894760D01*
X1017167D01*
X1000482Y718642D02*
Y728639D01*
X1005480D01*
X1007147Y726973D01*
Y723640D01*
X1005480Y721974D01*
X1000482D01*
X1003814D02*
X1007147Y718642D01*
X1017143Y728639D02*
X1010479D01*
Y723640D01*
X1013811Y725306D01*
X1015477D01*
X1017143Y723640D01*
Y720308D01*
X1015477Y718642D01*
X1012145D01*
X1010479Y720308D01*
X995680Y973836D02*
Y983833D01*
X1000678D01*
X1002345Y982167D01*
Y978834D01*
X1000678Y977168D01*
X995680D01*
X999012D02*
X1002345Y973836D01*
X1012341Y983833D02*
X1005677D01*
Y978834D01*
X1009009Y980500D01*
X1010675D01*
X1012341Y978834D01*
Y975502D01*
X1010675Y973836D01*
X1007343D01*
X1005677Y975502D01*
X1015674Y983833D02*
X1022338D01*
Y982167D01*
X1015674Y975502D01*
Y973836D01*
X994664Y803148D02*
Y813145D01*
X999662D01*
X1001329Y811479D01*
Y808146D01*
X999662Y806480D01*
X994664D01*
X997996D02*
X1001329Y803148D01*
X1011325Y813145D02*
X1004661D01*
Y808146D01*
X1007993Y809812D01*
X1009659D01*
X1011325Y808146D01*
Y804814D01*
X1009659Y803148D01*
X1006327D01*
X1004661Y804814D01*
X1014658Y811479D02*
X1016324Y813145D01*
X1019656D01*
X1021322Y811479D01*
Y809812D01*
X1019656Y808146D01*
X1021322Y806480D01*
Y804814D01*
X1019656Y803148D01*
X1016324D01*
X1014658Y804814D01*
Y806480D01*
X1016324Y808146D01*
X1014658Y809812D01*
Y811479D01*
X1016324Y808146D02*
X1019656D01*
X995172Y688848D02*
Y698845D01*
X1000170D01*
X1001836Y697179D01*
Y693846D01*
X1000170Y692180D01*
X995172D01*
X998504D02*
X1001836Y688848D01*
X1011833Y698845D02*
X1005169D01*
Y693846D01*
X1008501Y695512D01*
X1010167D01*
X1011833Y693846D01*
Y690514D01*
X1010167Y688848D01*
X1006835D01*
X1005169Y690514D01*
X1015166D02*
X1016832Y688848D01*
X1020164D01*
X1021830Y690514D01*
Y697179D01*
X1020164Y698845D01*
X1016832D01*
X1015166Y697179D01*
Y695512D01*
X1016832Y693846D01*
X1021830D01*
X666718Y374996D02*
X662719D01*
Y376995D01*
X663386Y377662D01*
X664719D01*
X665385Y376995D01*
Y374996D01*
Y376329D02*
X666718Y377662D01*
X662719Y381660D02*
X663386Y380328D01*
X664719Y378995D01*
X666052D01*
X666718Y379661D01*
Y380994D01*
X666052Y381660D01*
X665385D01*
X664719Y380994D01*
Y378995D01*
X663386Y382993D02*
X662719Y383660D01*
Y384993D01*
X663386Y385659D01*
X666052D01*
X666718Y384993D01*
Y383660D01*
X666052Y382993D01*
X663386D01*
X525780Y356108D02*
Y360107D01*
X527779D01*
X528446Y359440D01*
Y358107D01*
X527779Y357441D01*
X525780D01*
X527113D02*
X528446Y356108D01*
X532444Y360107D02*
X531112Y359440D01*
X529779Y358107D01*
Y356774D01*
X530445Y356108D01*
X531778D01*
X532444Y356774D01*
Y357441D01*
X531778Y358107D01*
X529779D01*
X533777Y356108D02*
X535110D01*
X534444D01*
Y360107D01*
X533777Y359440D01*
X954467Y97200D02*
X953467Y98200D01*
X951468D01*
X950468Y97200D01*
Y93202D01*
X951468Y92202D01*
X953467D01*
X954467Y93202D01*
X956466Y97200D02*
X957466Y98200D01*
X959465D01*
X960465Y97200D01*
Y96201D01*
X959465Y95201D01*
X958465D01*
X959465D01*
X960465Y94201D01*
Y93202D01*
X959465Y92202D01*
X957466D01*
X956466Y93202D01*
X966463Y98200D02*
X964464Y97200D01*
X962464Y95201D01*
Y93202D01*
X963464Y92202D01*
X965463D01*
X966463Y93202D01*
Y94201D01*
X965463Y95201D01*
X962464D01*
X135799Y598678D02*
X145796D01*
Y605342D01*
Y615339D02*
Y608675D01*
X139131Y615339D01*
X137465D01*
X135799Y613673D01*
Y610341D01*
X137465Y608675D01*
X145796Y618672D02*
X144130D01*
Y620338D01*
X145796D01*
Y618672D01*
Y627002D02*
Y630335D01*
Y628668D01*
X135799D01*
X137465Y627002D01*
X779783Y597662D02*
X788670D01*
Y603587D01*
Y612474D02*
Y606549D01*
X782745Y612474D01*
X781264D01*
X779783Y610993D01*
Y608030D01*
X781264Y606549D01*
X788670Y615436D02*
X787189D01*
Y616917D01*
X788670D01*
Y615436D01*
Y628767D02*
Y622842D01*
X782745Y628767D01*
X781264D01*
X779783Y627286D01*
Y624323D01*
X781264Y622842D01*
X458980Y598678D02*
X466598D01*
Y603756D01*
Y611374D02*
Y606296D01*
X461520Y611374D01*
X460250D01*
X458980Y610104D01*
Y607565D01*
X460250Y606296D01*
X466598Y613913D02*
X465328D01*
Y615183D01*
X466598D01*
Y613913D01*
X460250Y620261D02*
X458980Y621531D01*
Y624070D01*
X460250Y625339D01*
X461520D01*
X462789Y624070D01*
Y622800D01*
Y624070D01*
X464059Y625339D01*
X465328D01*
X466598Y624070D01*
Y621531D01*
X465328Y620261D01*
X758633Y102026D02*
X757633Y103026D01*
X755634D01*
X754634Y102026D01*
Y98028D01*
X755634Y97028D01*
X757633D01*
X758633Y98028D01*
X763631Y97028D02*
Y103026D01*
X760632Y100027D01*
X764631D01*
X766630Y97028D02*
X768630D01*
X767630D01*
Y103026D01*
X766630Y102026D01*
X942147Y125425D02*
X940480Y127091D01*
X937148D01*
X935482Y125425D01*
Y118760D01*
X937148Y117094D01*
X940480D01*
X942147Y118760D01*
X945479Y125425D02*
X947145Y127091D01*
X950477D01*
X952143Y125425D01*
Y123758D01*
X950477Y122092D01*
X948811D01*
X950477D01*
X952143Y120426D01*
Y118760D01*
X950477Y117094D01*
X947145D01*
X945479Y118760D01*
X955476Y125425D02*
X957142Y127091D01*
X960474D01*
X962140Y125425D01*
Y118760D01*
X960474Y117094D01*
X957142D01*
X955476Y118760D01*
Y125425D01*
X982614Y122556D02*
X978615D01*
Y124555D01*
X979282Y125222D01*
X980615D01*
X981281Y124555D01*
Y122556D01*
Y123889D02*
X982614Y125222D01*
Y128554D02*
X978615D01*
X980615Y126555D01*
Y129221D01*
X979282Y130553D02*
X978615Y131220D01*
Y132553D01*
X979282Y133219D01*
X979948D01*
X980615Y132553D01*
Y131886D01*
Y132553D01*
X981281Y133219D01*
X981948D01*
X982614Y132553D01*
Y131220D01*
X981948Y130553D01*
X759206Y435102D02*
X755207D01*
Y437101D01*
X755874Y437768D01*
X757207D01*
X757873Y437101D01*
Y435102D01*
Y436435D02*
X759206Y437768D01*
X755207Y441767D02*
X755874Y440434D01*
X757207Y439101D01*
X758540D01*
X759206Y439767D01*
Y441100D01*
X758540Y441767D01*
X757873D01*
X757207Y441100D01*
Y439101D01*
X755874Y443099D02*
X755207Y443766D01*
Y445099D01*
X755874Y445765D01*
X756540D01*
X757207Y445099D01*
Y444432D01*
Y445099D01*
X757873Y445765D01*
X758540D01*
X759206Y445099D01*
Y443766D01*
X758540Y443099D01*
X666718Y352172D02*
X662719D01*
Y354171D01*
X663386Y354838D01*
X664719D01*
X665385Y354171D01*
Y352172D01*
Y353505D02*
X666718Y354838D01*
X662719Y358837D02*
X663386Y357504D01*
X664719Y356171D01*
X666052D01*
X666718Y356837D01*
Y358170D01*
X666052Y358837D01*
X665385D01*
X664719Y358170D01*
Y356171D01*
X666718Y362835D02*
Y360169D01*
X664052Y362835D01*
X663386D01*
X662719Y362169D01*
Y360836D01*
X663386Y360169D01*
X713232Y439928D02*
X709233D01*
Y441927D01*
X709900Y442594D01*
X711233D01*
X711899Y441927D01*
Y439928D01*
Y441261D02*
X713232Y442594D01*
X709233Y446592D02*
X709900Y445260D01*
X711233Y443927D01*
X712566D01*
X713232Y444593D01*
Y445926D01*
X712566Y446592D01*
X711899D01*
X711233Y445926D01*
Y443927D01*
X713232Y449925D02*
X709233D01*
X711233Y447925D01*
Y450591D01*
X675604Y300102D02*
X671605D01*
Y302101D01*
X672272Y302768D01*
X673605D01*
X674271Y302101D01*
Y300102D01*
Y301435D02*
X675604Y302768D01*
Y306766D02*
Y304101D01*
X672938Y306766D01*
X672272D01*
X671605Y306100D01*
Y304767D01*
X672272Y304101D01*
Y308099D02*
X671605Y308766D01*
Y310099D01*
X672272Y310765D01*
X672938D01*
X673605Y310099D01*
Y309432D01*
Y310099D01*
X674271Y310765D01*
X674938D01*
X675604Y310099D01*
Y308766D01*
X674938Y308099D01*
X688876Y300166D02*
X684877D01*
Y302165D01*
X685544Y302832D01*
X686877D01*
X687543Y302165D01*
Y300166D01*
Y301499D02*
X688876Y302832D01*
Y306831D02*
Y304165D01*
X686210Y306831D01*
X685544D01*
X684877Y306164D01*
Y304831D01*
X685544Y304165D01*
X688876Y310163D02*
X684877D01*
X686877Y308163D01*
Y310829D01*
D96*
X641594Y778935D02*
D03*
X320294Y779697D02*
D03*
D97*
X58741Y568198D02*
D03*
D98*
X846836Y465582D02*
D03*
D163*
X59656Y243926D02*
Y263926D01*
X39656D02*
X59656D01*
X39656Y243926D02*
Y263926D01*
Y243926D02*
X59656D01*
X213490Y906160D02*
X230990D01*
X213490Y936660D02*
X230990D01*
X213490Y906160D02*
X230990D01*
Y936660D01*
X213490Y906160D02*
Y936660D01*
X230990D01*
X852858Y889513D02*
X870358D01*
X852858Y920013D02*
X870358D01*
X852858Y889513D02*
X870358D01*
Y920013D01*
X852858Y889513D02*
Y920013D01*
X870358D01*
X574054Y705856D02*
X591554D01*
X574054Y736356D02*
X591554D01*
X574054Y705856D02*
X591554D01*
Y736356D01*
X574054Y705856D02*
Y736356D01*
X591554D01*
M02*
