G04 Layer_Color=8421504*
%FSLAX44Y44*%
%MOMM*%
G71*
G01*
G75*
%ADD10O,1.0000X1.5000*%
%ADD11O,1.5000X1.0000*%
%ADD12R,0.3000X1.6000*%
%ADD13R,1.6000X0.3000*%
%ADD14R,0.4500X1.7500*%
%ADD15R,0.3000X0.4000*%
%ADD16R,0.4000X0.3000*%
%ADD17R,0.4500X1.4500*%
%ADD18R,2.1600X2.2600*%
%ADD19R,3.9600X3.9600*%
%ADD20R,3.1800X3.1800*%
%ADD21R,0.5000X0.5000*%
%ADD22R,0.9000X1.3000*%
%ADD23R,0.9000X1.6000*%
%ADD24R,2.3000X1.6500*%
%ADD25R,0.5000X0.5000*%
%ADD26R,0.8000X0.8000*%
%ADD27R,1.6500X2.3000*%
%ADD28R,2.5000X0.9000*%
%ADD29R,1.3000X0.9000*%
%ADD30R,1.6000X0.9000*%
%ADD31C,1.2700*%
%ADD32R,1.2000X1.2000*%
%ADD33R,0.8000X0.8000*%
%ADD34R,1.2200X0.9100*%
%ADD35R,0.9100X1.2200*%
%ADD36R,0.5000X0.6000*%
%ADD37R,1.4000X2.0000*%
%ADD38R,0.6000X0.5000*%
%ADD39R,0.8000X2.3500*%
%ADD40R,3.8000X2.5000*%
%ADD41R,1.4000X0.5000*%
%ADD42R,0.9000X0.8000*%
%ADD43R,0.9000X1.0000*%
%ADD44R,1.1000X0.6000*%
%ADD45R,1.5500X0.6000*%
%ADD46R,0.6000X1.5500*%
%ADD47R,0.6000X1.5000*%
%ADD48R,0.4500X1.4000*%
%ADD49R,1.3000X0.5500*%
%ADD50R,1.4700X1.2850*%
%ADD51C,0.2625*%
%ADD52R,0.9000X2.5000*%
%ADD53R,0.3500X1.4500*%
D10*
X783336Y656082D02*
D03*
X770636D02*
D03*
X796036D02*
D03*
X732536D02*
D03*
X745236D02*
D03*
X757936D02*
D03*
X719836D02*
D03*
X694436D02*
D03*
X707136D02*
D03*
X462036Y656844D02*
D03*
X449336D02*
D03*
X474736D02*
D03*
X411236D02*
D03*
X423936D02*
D03*
X436636D02*
D03*
X398536D02*
D03*
X373136D02*
D03*
X385836D02*
D03*
X140970Y655574D02*
D03*
X128270D02*
D03*
X153670D02*
D03*
X90170D02*
D03*
X102870D02*
D03*
X115570D02*
D03*
X77470D02*
D03*
X52070D02*
D03*
X64770D02*
D03*
D11*
X829036Y694182D02*
D03*
Y706882D02*
D03*
Y681482D02*
D03*
X669036Y706882D02*
D03*
Y719582D02*
D03*
Y681482D02*
D03*
Y694182D02*
D03*
X829036Y732282D02*
D03*
X829036Y719582D02*
D03*
X829036Y744982D02*
D03*
Y757682D02*
D03*
Y770382D02*
D03*
Y783082D02*
D03*
X669036Y732282D02*
D03*
Y744982D02*
D03*
Y783082D02*
D03*
Y757682D02*
D03*
Y770382D02*
D03*
X507736Y694944D02*
D03*
Y707644D02*
D03*
Y682244D02*
D03*
X347736Y707644D02*
D03*
Y720344D02*
D03*
Y682244D02*
D03*
Y694944D02*
D03*
X507736Y733044D02*
D03*
X507736Y720344D02*
D03*
X507736Y745744D02*
D03*
Y758444D02*
D03*
Y771144D02*
D03*
Y783844D02*
D03*
X347736Y733044D02*
D03*
Y745744D02*
D03*
Y783844D02*
D03*
Y758444D02*
D03*
Y771144D02*
D03*
X186670Y693674D02*
D03*
Y706374D02*
D03*
Y680974D02*
D03*
X26670Y706374D02*
D03*
Y719074D02*
D03*
Y680974D02*
D03*
Y693674D02*
D03*
X186670Y731774D02*
D03*
X186670Y719074D02*
D03*
X186670Y744474D02*
D03*
Y757174D02*
D03*
Y769874D02*
D03*
Y782574D02*
D03*
X26670Y731774D02*
D03*
Y744474D02*
D03*
Y782574D02*
D03*
Y757174D02*
D03*
Y769874D02*
D03*
D12*
X519724Y179780D02*
D03*
X513224D02*
D03*
X506724D02*
D03*
X500224D02*
D03*
X493724D02*
D03*
X487224D02*
D03*
X480724D02*
D03*
X474224D02*
D03*
X467724D02*
D03*
X461224D02*
D03*
Y123780D02*
D03*
X467724D02*
D03*
X474224D02*
D03*
X480724D02*
D03*
X487224D02*
D03*
X493724D02*
D03*
X500224D02*
D03*
X506724D02*
D03*
X513224D02*
D03*
X519724D02*
D03*
D13*
X544524Y394216D02*
D03*
Y400716D02*
D03*
Y407216D02*
D03*
Y413716D02*
D03*
Y420216D02*
D03*
Y426716D02*
D03*
Y433216D02*
D03*
Y439716D02*
D03*
Y446216D02*
D03*
Y452716D02*
D03*
X488524D02*
D03*
Y446216D02*
D03*
Y439716D02*
D03*
Y433216D02*
D03*
Y426716D02*
D03*
Y420216D02*
D03*
Y413716D02*
D03*
Y407216D02*
D03*
Y400716D02*
D03*
Y394216D02*
D03*
X370788Y413736D02*
D03*
Y420236D02*
D03*
Y426736D02*
D03*
Y433236D02*
D03*
Y439736D02*
D03*
Y446236D02*
D03*
Y452736D02*
D03*
Y459236D02*
D03*
Y465736D02*
D03*
Y472236D02*
D03*
X314788D02*
D03*
Y465736D02*
D03*
Y459236D02*
D03*
Y452736D02*
D03*
Y446236D02*
D03*
Y439736D02*
D03*
Y433236D02*
D03*
Y426736D02*
D03*
Y420236D02*
D03*
Y413736D02*
D03*
D14*
X63032Y387372D02*
D03*
X69532D02*
D03*
X76032D02*
D03*
X82532D02*
D03*
X89032D02*
D03*
X95532D02*
D03*
X102032D02*
D03*
X108532D02*
D03*
X115032D02*
D03*
X121532D02*
D03*
X128032D02*
D03*
X134532D02*
D03*
X141032D02*
D03*
X147532D02*
D03*
X63032Y459372D02*
D03*
X69532D02*
D03*
X76032D02*
D03*
X82532D02*
D03*
X89032D02*
D03*
X95532D02*
D03*
X102032D02*
D03*
X108532D02*
D03*
X115032D02*
D03*
X121532D02*
D03*
X128032D02*
D03*
X134532D02*
D03*
X141032D02*
D03*
X147532D02*
D03*
D15*
X52156Y246426D02*
D03*
X47156D02*
D03*
Y261426D02*
D03*
X52156D02*
D03*
D16*
X42031Y246426D02*
D03*
Y251426D02*
D03*
Y256426D02*
D03*
Y261426D02*
D03*
X57281D02*
D03*
Y256426D02*
D03*
Y251426D02*
D03*
Y246426D02*
D03*
D17*
X539866Y829745D02*
D03*
X546366D02*
D03*
X552866D02*
D03*
X559366D02*
D03*
Y770745D02*
D03*
X552866D02*
D03*
X546366D02*
D03*
X539866D02*
D03*
X861166Y828983D02*
D03*
X867666D02*
D03*
X874166D02*
D03*
X880666D02*
D03*
Y769983D02*
D03*
X874166D02*
D03*
X867666D02*
D03*
X861166D02*
D03*
X218800Y828475D02*
D03*
X225300D02*
D03*
X231800D02*
D03*
X238300D02*
D03*
Y769475D02*
D03*
X231800D02*
D03*
X225300D02*
D03*
X218800D02*
D03*
D18*
X885544Y429006D02*
D03*
X836544D02*
D03*
D19*
X394246Y292860D02*
D03*
X237490Y293116D02*
D03*
D20*
X394246Y214160D02*
D03*
Y371560D02*
D03*
X237490Y371816D02*
D03*
Y214416D02*
D03*
D21*
X236960Y447266D02*
D03*
X246960D02*
D03*
X236960Y434256D02*
D03*
X246960D02*
D03*
X498552Y375920D02*
D03*
X488552D02*
D03*
X310816Y395986D02*
D03*
X300816D02*
D03*
X767030Y150211D02*
D03*
X757030D02*
D03*
X807416Y99411D02*
D03*
X797416D02*
D03*
X807416Y112873D02*
D03*
X797416D02*
D03*
X807670Y126335D02*
D03*
X797670D02*
D03*
X807924Y153259D02*
D03*
X797924D02*
D03*
X866050Y879094D02*
D03*
X856050D02*
D03*
X588184Y694944D02*
D03*
X578184D02*
D03*
X227240Y896366D02*
D03*
X217240D02*
D03*
X31322Y391340D02*
D03*
X41322D02*
D03*
X220448Y708406D02*
D03*
X210448D02*
D03*
X862814Y708914D02*
D03*
X852814D02*
D03*
X541514Y709676D02*
D03*
X531514D02*
D03*
X148820Y585978D02*
D03*
X138820D02*
D03*
X791186Y586994D02*
D03*
X781186D02*
D03*
X469886Y587248D02*
D03*
X459886D02*
D03*
X716557Y290830D02*
D03*
X706557D02*
D03*
X756658Y291116D02*
D03*
X746658D02*
D03*
X633128Y354838D02*
D03*
X643128D02*
D03*
X629760Y216916D02*
D03*
X619760D02*
D03*
X556496Y273776D02*
D03*
X566496D02*
D03*
X513860Y279204D02*
D03*
X503860D02*
D03*
X716196Y223266D02*
D03*
X706196D02*
D03*
X716450Y248666D02*
D03*
X706450D02*
D03*
X716450Y261366D02*
D03*
X706450D02*
D03*
X588340Y274066D02*
D03*
X598340D02*
D03*
X588340Y261366D02*
D03*
X598340D02*
D03*
X588594Y248666D02*
D03*
X598594D02*
D03*
X598598Y235712D02*
D03*
X588598D02*
D03*
X706200Y210276D02*
D03*
X716200D02*
D03*
X706450Y236184D02*
D03*
X716450D02*
D03*
X706450Y274284D02*
D03*
X716450D02*
D03*
X246887Y472786D02*
D03*
X236887D02*
D03*
X1017698Y156682D02*
D03*
X1007698D02*
D03*
X807670Y139543D02*
D03*
X797670D02*
D03*
X246887Y498312D02*
D03*
X236887D02*
D03*
X236808Y460298D02*
D03*
X246808D02*
D03*
X236808Y485612D02*
D03*
X246808D02*
D03*
X526622Y358104D02*
D03*
X536622D02*
D03*
D22*
X966706Y74168D02*
D03*
X947706D02*
D03*
X725526Y311150D02*
D03*
X706526D02*
D03*
X765658D02*
D03*
X746658D02*
D03*
X922426Y364744D02*
D03*
X941426D02*
D03*
X922426Y386588D02*
D03*
X941426D02*
D03*
X810108Y398272D02*
D03*
X791108D02*
D03*
D23*
X974484Y30480D02*
D03*
X943484D02*
D03*
X941330Y421894D02*
D03*
X910330D02*
D03*
X994220Y893172D02*
D03*
X1023220D02*
D03*
X994450Y722560D02*
D03*
X1023450D02*
D03*
X994220Y978516D02*
D03*
X1023220D02*
D03*
X994474Y807828D02*
D03*
X1023474D02*
D03*
X994690Y695162D02*
D03*
X1023690D02*
D03*
D24*
X1007876Y54589D02*
D03*
Y21589D02*
D03*
D25*
X983662Y94662D02*
D03*
Y84662D02*
D03*
X994330Y135302D02*
D03*
Y125302D02*
D03*
X1007538Y135302D02*
D03*
Y125302D02*
D03*
X866902Y864028D02*
D03*
Y854028D02*
D03*
X879856Y864028D02*
D03*
Y854028D02*
D03*
X845058Y829738D02*
D03*
Y819738D02*
D03*
X523758Y830500D02*
D03*
Y820500D02*
D03*
X559366Y864732D02*
D03*
Y854732D02*
D03*
X545602Y864790D02*
D03*
Y854790D02*
D03*
X202692Y829230D02*
D03*
Y819230D02*
D03*
X224536Y863520D02*
D03*
Y853520D02*
D03*
X238300Y863520D02*
D03*
Y853520D02*
D03*
X107442Y489596D02*
D03*
Y479596D02*
D03*
X223012Y28106D02*
D03*
Y18106D02*
D03*
X185420Y451736D02*
D03*
Y461736D02*
D03*
X71628Y72978D02*
D03*
Y82978D02*
D03*
X73660Y266406D02*
D03*
Y256406D02*
D03*
X313436Y103520D02*
D03*
Y113520D02*
D03*
X919988Y891308D02*
D03*
Y881308D02*
D03*
X920248Y840584D02*
D03*
Y830584D02*
D03*
X919988Y940954D02*
D03*
Y930954D02*
D03*
X920370Y734996D02*
D03*
Y724996D02*
D03*
X921258Y786520D02*
D03*
Y776520D02*
D03*
X42544Y358240D02*
D03*
Y348240D02*
D03*
X55498Y357986D02*
D03*
Y347986D02*
D03*
X95630Y348240D02*
D03*
Y358240D02*
D03*
X137794Y496162D02*
D03*
Y486162D02*
D03*
X723980Y440008D02*
D03*
Y450008D02*
D03*
X125856Y496162D02*
D03*
Y486162D02*
D03*
X1034462Y135048D02*
D03*
Y125048D02*
D03*
X1021000Y125048D02*
D03*
Y135048D02*
D03*
X207900Y488326D02*
D03*
Y478326D02*
D03*
X195326Y478326D02*
D03*
Y488326D02*
D03*
X58850Y222119D02*
D03*
Y232119D02*
D03*
X71754Y232002D02*
D03*
Y222002D02*
D03*
X539750Y119808D02*
D03*
Y109808D02*
D03*
X602488Y165448D02*
D03*
Y155448D02*
D03*
X664718Y387996D02*
D03*
Y377996D02*
D03*
X980614Y135556D02*
D03*
Y125556D02*
D03*
X757214Y445182D02*
D03*
Y435182D02*
D03*
X664718Y355172D02*
D03*
Y365172D02*
D03*
X711557Y450008D02*
D03*
Y440008D02*
D03*
X673604Y313102D02*
D03*
Y303102D02*
D03*
X686876Y313166D02*
D03*
Y303166D02*
D03*
D26*
X1034259Y98229D02*
D03*
Y83229D02*
D03*
X767294Y183151D02*
D03*
Y168151D02*
D03*
X728726Y614354D02*
D03*
Y599354D02*
D03*
X745744Y614264D02*
D03*
Y599264D02*
D03*
X407416Y615116D02*
D03*
Y600116D02*
D03*
X424444Y615026D02*
D03*
Y600026D02*
D03*
X86360Y613756D02*
D03*
Y598756D02*
D03*
X103378Y613258D02*
D03*
Y598258D02*
D03*
X738876Y445316D02*
D03*
Y430316D02*
D03*
X871982Y113502D02*
D03*
Y128502D02*
D03*
X679958Y178690D02*
D03*
Y163690D02*
D03*
D27*
X726957Y125997D02*
D03*
X693957D02*
D03*
D28*
X793496Y198634D02*
D03*
Y167634D02*
D03*
D29*
X747482Y188961D02*
D03*
Y169961D02*
D03*
X164084Y623926D02*
D03*
Y604926D02*
D03*
X806450Y624450D02*
D03*
Y605450D02*
D03*
X485150Y625212D02*
D03*
Y606212D02*
D03*
X693674Y446634D02*
D03*
Y427634D02*
D03*
X879348Y376580D02*
D03*
Y395580D02*
D03*
X901954Y376580D02*
D03*
Y395580D02*
D03*
X786384Y442316D02*
D03*
Y423316D02*
D03*
D30*
X702564Y190500D02*
D03*
Y159500D02*
D03*
D31*
X832830Y627634D02*
D03*
X175514Y643600D02*
D03*
X529082Y660364D02*
D03*
D32*
X708914Y620354D02*
D03*
Y599354D02*
D03*
X387614Y621116D02*
D03*
Y600116D02*
D03*
X66548Y619846D02*
D03*
Y598846D02*
D03*
D33*
X763270Y614264D02*
D03*
Y599264D02*
D03*
X120904Y613756D02*
D03*
Y598756D02*
D03*
X441970Y615026D02*
D03*
Y600026D02*
D03*
X226448Y691642D02*
D03*
X211448D02*
D03*
X868814Y692150D02*
D03*
X853814D02*
D03*
X547514Y692912D02*
D03*
X532514D02*
D03*
X40900Y466270D02*
D03*
X25900D02*
D03*
X806738Y488950D02*
D03*
X791738D02*
D03*
X950976Y94742D02*
D03*
X965976D02*
D03*
X770800Y99411D02*
D03*
X755800D02*
D03*
D34*
X641594Y802270D02*
D03*
Y769570D02*
D03*
X320294Y803032D02*
D03*
Y770332D02*
D03*
D35*
X35406Y568198D02*
D03*
X68106D02*
D03*
D36*
X925522Y706120D02*
D03*
X934522D02*
D03*
X925140Y912078D02*
D03*
X934140D02*
D03*
X925400Y811708D02*
D03*
X934400D02*
D03*
X925140Y862432D02*
D03*
X934140D02*
D03*
X926410Y757644D02*
D03*
X935410D02*
D03*
X773466Y488950D02*
D03*
X764466D02*
D03*
D37*
X834996Y465860D02*
D03*
X878996D02*
D03*
D38*
X27812Y348232D02*
D03*
Y357232D02*
D03*
X662432Y179754D02*
D03*
Y170754D02*
D03*
X70230Y347978D02*
D03*
Y356978D02*
D03*
D39*
X12516Y172674D02*
D03*
Y119174D02*
D03*
D40*
X40516Y103924D02*
D03*
Y187924D02*
D03*
D41*
X64516Y129924D02*
D03*
Y137924D02*
D03*
Y145924D02*
D03*
Y153924D02*
D03*
Y161924D02*
D03*
D42*
X933864Y897078D02*
D03*
Y878078D02*
D03*
X953864Y887578D02*
D03*
X935134Y792290D02*
D03*
Y773290D02*
D03*
X955134Y782790D02*
D03*
X933864Y946724D02*
D03*
Y927724D02*
D03*
X953864Y937224D02*
D03*
X934124Y846354D02*
D03*
Y827354D02*
D03*
X954124Y836854D02*
D03*
X934246Y740766D02*
D03*
Y721766D02*
D03*
X954246Y731266D02*
D03*
D43*
X857122Y358468D02*
D03*
Y399468D02*
D03*
X841122Y358468D02*
D03*
Y399468D02*
D03*
X23622Y449432D02*
D03*
Y408432D02*
D03*
X39622Y449432D02*
D03*
Y408432D02*
D03*
X244096Y123847D02*
D03*
Y82847D02*
D03*
X260096Y123847D02*
D03*
Y82847D02*
D03*
D44*
X236240Y911910D02*
D03*
Y921410D02*
D03*
Y930910D02*
D03*
X208240D02*
D03*
Y911910D02*
D03*
X875608Y895263D02*
D03*
Y904763D02*
D03*
Y914263D02*
D03*
X847608D02*
D03*
Y895263D02*
D03*
X596804Y711606D02*
D03*
Y721106D02*
D03*
Y730606D02*
D03*
X568804D02*
D03*
Y711606D02*
D03*
D45*
X589128Y336296D02*
D03*
Y323596D02*
D03*
Y310896D02*
D03*
Y298196D02*
D03*
X643128Y336296D02*
D03*
Y323596D02*
D03*
Y310896D02*
D03*
Y298196D02*
D03*
X673760Y235966D02*
D03*
Y248666D02*
D03*
Y261366D02*
D03*
Y274066D02*
D03*
X619760Y235966D02*
D03*
Y248666D02*
D03*
Y261366D02*
D03*
Y274066D02*
D03*
X512496Y257266D02*
D03*
Y244566D02*
D03*
Y231866D02*
D03*
Y219166D02*
D03*
X566496Y257266D02*
D03*
Y244566D02*
D03*
Y231866D02*
D03*
Y219166D02*
D03*
X557860Y298450D02*
D03*
Y311150D02*
D03*
Y323850D02*
D03*
Y336550D02*
D03*
X503860Y298450D02*
D03*
Y311150D02*
D03*
Y323850D02*
D03*
Y336550D02*
D03*
D46*
X300736Y135154D02*
D03*
X313436D02*
D03*
X326136D02*
D03*
X338836D02*
D03*
X300736Y189154D02*
D03*
X313436D02*
D03*
X326136D02*
D03*
X338836D02*
D03*
D47*
X203962Y113106D02*
D03*
X191262D02*
D03*
X178562D02*
D03*
X165862D02*
D03*
X153162D02*
D03*
X140462D02*
D03*
X127762D02*
D03*
X115062D02*
D03*
X102362D02*
D03*
X89662D02*
D03*
Y18106D02*
D03*
X102362D02*
D03*
X115062D02*
D03*
X127762D02*
D03*
X140462D02*
D03*
X153162D02*
D03*
X165862D02*
D03*
X178562D02*
D03*
X191262D02*
D03*
X203962D02*
D03*
D48*
X201400Y461737D02*
D03*
X207900D02*
D03*
X214400D02*
D03*
X220900D02*
D03*
Y417737D02*
D03*
X214400D02*
D03*
X207900D02*
D03*
X201400D02*
D03*
D49*
X559254Y164948D02*
D03*
Y145948D02*
D03*
X584254Y164948D02*
D03*
Y155448D02*
D03*
Y145948D02*
D03*
D50*
X140970Y623942D02*
D03*
Y604492D02*
D03*
X783336Y624450D02*
D03*
Y605000D02*
D03*
X462036Y625212D02*
D03*
Y605762D02*
D03*
D51*
X748300Y119089D02*
D03*
X753300D02*
D03*
X758300D02*
D03*
X763300D02*
D03*
X768300D02*
D03*
X773300D02*
D03*
X778300D02*
D03*
X748300Y124089D02*
D03*
X753300D02*
D03*
X758300D02*
D03*
X763300D02*
D03*
X768300D02*
D03*
X773300D02*
D03*
X778300D02*
D03*
X748300Y129089D02*
D03*
X753300D02*
D03*
X758300D02*
D03*
X763300D02*
D03*
X768300D02*
D03*
X773300D02*
D03*
X778300D02*
D03*
X748300Y134089D02*
D03*
X753300D02*
D03*
X758300D02*
D03*
X763300D02*
D03*
X768300D02*
D03*
X773300D02*
D03*
X778300D02*
D03*
X1014784Y105932D02*
D03*
Y100932D02*
D03*
X1009784D02*
D03*
X1014784Y90932D02*
D03*
Y95932D02*
D03*
X1009784Y105932D02*
D03*
Y95932D02*
D03*
X1004784D02*
D03*
X1009784Y90932D02*
D03*
X1004784D02*
D03*
X1014784Y80932D02*
D03*
X1009784Y85932D02*
D03*
X1014784D02*
D03*
X1009784Y80932D02*
D03*
X1014784Y75932D02*
D03*
X1009784D02*
D03*
X1004784Y105932D02*
D03*
Y85932D02*
D03*
Y100932D02*
D03*
X999784D02*
D03*
Y95932D02*
D03*
Y105932D02*
D03*
Y85932D02*
D03*
Y90932D02*
D03*
X1004784Y80932D02*
D03*
X999784D02*
D03*
X1004784Y75932D02*
D03*
X999784D02*
D03*
D52*
X965714Y121666D02*
D03*
X934714D02*
D03*
D53*
X764876Y348732D02*
D03*
X758376D02*
D03*
Y405232D02*
D03*
X764876D02*
D03*
X680376Y348732D02*
D03*
X686876D02*
D03*
X693376D02*
D03*
X699876D02*
D03*
X706376D02*
D03*
X712876D02*
D03*
X719376D02*
D03*
X725876D02*
D03*
X732376D02*
D03*
X738876D02*
D03*
X745376D02*
D03*
X751876D02*
D03*
Y405232D02*
D03*
X745376D02*
D03*
X738876D02*
D03*
X732376D02*
D03*
X725876D02*
D03*
X719376D02*
D03*
X712876D02*
D03*
X706376D02*
D03*
X699876D02*
D03*
X693376D02*
D03*
X686876D02*
D03*
X680376D02*
D03*
M02*
