G04*
G04 #@! TF.GenerationSoftware,Altium Limited,Altium Designer,20.1.14 (287)*
G04*
G04 Layer_Physical_Order=2*
G04 Layer_Color=36540*
%FSLAX44Y44*%
%MOMM*%
G71*
G04*
G04 #@! TF.SameCoordinates,45AFD5CB-E2DC-46B4-AC03-AB9053879BB0*
G04*
G04*
G04 #@! TF.FilePolarity,Positive*
G04*
G01*
G75*
%ADD10C,0.2540*%
%ADD24C,0.1500*%
%ADD27C,0.2032*%
%ADD172C,0.3810*%
G04:AMPARAMS|DCode=177|XSize=1.9mm|YSize=0.75mm|CornerRadius=0.3375mm|HoleSize=0mm|Usage=FLASHONLY|Rotation=90.000|XOffset=0mm|YOffset=0mm|HoleType=Round|Shape=RoundedRectangle|*
%AMROUNDEDRECTD177*
21,1,1.9000,0.0750,0,0,90.0*
21,1,1.2250,0.7500,0,0,90.0*
1,1,0.6750,0.0375,0.6125*
1,1,0.6750,0.0375,-0.6125*
1,1,0.6750,-0.0375,-0.6125*
1,1,0.6750,-0.0375,0.6125*
%
%ADD177ROUNDEDRECTD177*%
%ADD178C,1.5000*%
%ADD181C,2.3000*%
%ADD183C,1.8796*%
%ADD184R,1.8796X1.8796*%
%ADD185C,1.5300*%
%ADD188R,1.5000X4.0160*%
%ADD189R,4.0160X1.5000*%
%ADD192C,0.5080*%
%ADD193C,0.5588*%
%ADD194C,0.5100*%
%ADD195C,0.8128*%
%ADD196C,0.4572*%
G36*
X1046893Y351849D02*
X845566D01*
X844377Y351612D01*
X843369Y350939D01*
X842696Y349931D01*
X842459Y348742D01*
Y170942D01*
X842696Y169753D01*
X843369Y168745D01*
X844377Y168072D01*
X845566Y167835D01*
X1046893D01*
Y3107D01*
X995501D01*
X995158Y3774D01*
X995005Y4377D01*
X995927Y5756D01*
X996282Y7540D01*
X995927Y9324D01*
X994917Y10836D01*
X994853Y10879D01*
X995673Y12106D01*
X996028Y13890D01*
X995673Y15674D01*
X994662Y17186D01*
X993150Y18197D01*
X991366Y18552D01*
X989582Y18197D01*
X988070Y17186D01*
X987709D01*
X986197Y18197D01*
X984413Y18552D01*
X982629Y18197D01*
X981117Y17186D01*
X980106Y15674D01*
X979751Y13890D01*
X980106Y12106D01*
X981098Y10622D01*
X980106Y9138D01*
X979751Y7354D01*
X980106Y5570D01*
X980903Y4377D01*
X980428Y3107D01*
X909326D01*
X909074Y4377D01*
X914092Y6455D01*
X919129Y9542D01*
X923621Y13379D01*
X927458Y17871D01*
X930545Y22908D01*
X932805Y28366D01*
X934185Y34111D01*
X934648Y40000D01*
X934185Y45889D01*
X932805Y51634D01*
X930545Y57092D01*
X927458Y62129D01*
X923621Y66621D01*
X919129Y70458D01*
X914092Y73545D01*
X908634Y75805D01*
X902889Y77185D01*
X897000Y77648D01*
X891111Y77185D01*
X885366Y75805D01*
X879908Y73545D01*
X874871Y70458D01*
X870379Y66621D01*
X866542Y62129D01*
X863455Y57092D01*
X861195Y51634D01*
X859816Y45889D01*
X859352Y40000D01*
X859816Y34111D01*
X861195Y28366D01*
X863455Y22908D01*
X866542Y17871D01*
X870379Y13379D01*
X874871Y9542D01*
X879908Y6455D01*
X884926Y4377D01*
X884674Y3107D01*
X52327D01*
X52074Y4377D01*
X57091Y6455D01*
X62128Y9541D01*
X66621Y13378D01*
X70457Y17870D01*
X73544Y22908D01*
X75805Y28365D01*
X77184Y34110D01*
X77647Y39999D01*
X77184Y45889D01*
X75805Y51633D01*
X73544Y57091D01*
X70457Y62128D01*
X66621Y66620D01*
X62128Y70457D01*
X57091Y73544D01*
X51633Y75805D01*
X45889Y77184D01*
X39999Y77647D01*
X34110Y77184D01*
X28365Y75805D01*
X22908Y73544D01*
X17870Y70457D01*
X13378Y66620D01*
X9541Y62128D01*
X6455Y57091D01*
X4377Y52074D01*
X3107Y52327D01*
Y997672D01*
X4377Y997925D01*
X6455Y992908D01*
X9541Y987871D01*
X13378Y983379D01*
X17870Y979542D01*
X22908Y976455D01*
X28365Y974194D01*
X34110Y972815D01*
X39999Y972352D01*
X45889Y972815D01*
X51633Y974194D01*
X57091Y976455D01*
X62128Y979542D01*
X66621Y983379D01*
X70457Y987871D01*
X73544Y992908D01*
X75805Y998366D01*
X77184Y1004110D01*
X77647Y1010000D01*
X77184Y1015889D01*
X75805Y1021634D01*
X73544Y1027092D01*
X70457Y1032129D01*
X66621Y1036621D01*
X62128Y1040458D01*
X57091Y1043544D01*
X52073Y1045623D01*
X52325Y1046893D01*
X884674D01*
X884926Y1045623D01*
X879908Y1043545D01*
X874871Y1040458D01*
X870379Y1036621D01*
X866542Y1032129D01*
X863455Y1027092D01*
X861195Y1021634D01*
X859816Y1015890D01*
X859352Y1010000D01*
X859816Y1004111D01*
X861195Y998366D01*
X863455Y992908D01*
X866542Y987871D01*
X870379Y983379D01*
X874871Y979542D01*
X879908Y976455D01*
X885366Y974195D01*
X891111Y972815D01*
X897000Y972352D01*
X902889Y972815D01*
X908634Y974195D01*
X914092Y976455D01*
X919129Y979542D01*
X923621Y983379D01*
X927458Y987871D01*
X930545Y992908D01*
X932805Y998366D01*
X934185Y1004111D01*
X934648Y1010000D01*
X934185Y1015890D01*
X932805Y1021634D01*
X930545Y1027092D01*
X927458Y1032129D01*
X923621Y1036621D01*
X919129Y1040458D01*
X914092Y1043545D01*
X909074Y1045623D01*
X909326Y1046893D01*
X1046893D01*
Y351849D01*
D02*
G37*
%LPC*%
G36*
X855098Y1031374D02*
X836034D01*
Y1012310D01*
X855098D01*
Y1031374D01*
D02*
G37*
G36*
X820166Y1031456D02*
X817678Y1031129D01*
X815359Y1030168D01*
X813368Y1028640D01*
X811840Y1026649D01*
X810879Y1024330D01*
X810552Y1021842D01*
X810879Y1019354D01*
X811840Y1017035D01*
X813368Y1015044D01*
X815359Y1013516D01*
X817678Y1012555D01*
X820166Y1012228D01*
X822654Y1012555D01*
X824973Y1013516D01*
X826964Y1015044D01*
X828492Y1017035D01*
X829453Y1019354D01*
X829780Y1021842D01*
X829453Y1024330D01*
X828492Y1026649D01*
X826964Y1028640D01*
X824973Y1030168D01*
X822654Y1031129D01*
X820166Y1031456D01*
D02*
G37*
G36*
X769366D02*
X766878Y1031129D01*
X764559Y1030168D01*
X762568Y1028640D01*
X761040Y1026649D01*
X760079Y1024330D01*
X759752Y1021842D01*
X760079Y1019354D01*
X761040Y1017035D01*
X762568Y1015044D01*
X764559Y1013516D01*
X766878Y1012555D01*
X769366Y1012228D01*
X771854Y1012555D01*
X774173Y1013516D01*
X776164Y1015044D01*
X777692Y1017035D01*
X778653Y1019354D01*
X778980Y1021842D01*
X778653Y1024330D01*
X777692Y1026649D01*
X776164Y1028640D01*
X774173Y1030168D01*
X771854Y1031129D01*
X769366Y1031456D01*
D02*
G37*
G36*
X718566D02*
X716078Y1031129D01*
X713759Y1030168D01*
X711768Y1028640D01*
X710240Y1026649D01*
X709279Y1024330D01*
X708952Y1021842D01*
X709279Y1019354D01*
X710240Y1017035D01*
X711768Y1015044D01*
X713759Y1013516D01*
X716078Y1012555D01*
X718566Y1012228D01*
X721054Y1012555D01*
X723373Y1013516D01*
X725364Y1015044D01*
X726892Y1017035D01*
X727853Y1019354D01*
X728180Y1021842D01*
X727853Y1024330D01*
X726892Y1026649D01*
X725364Y1028640D01*
X723373Y1030168D01*
X721054Y1031129D01*
X718566Y1031456D01*
D02*
G37*
G36*
X693166D02*
X690678Y1031129D01*
X688359Y1030168D01*
X686368Y1028640D01*
X684840Y1026649D01*
X683879Y1024330D01*
X683552Y1021842D01*
X683879Y1019354D01*
X684840Y1017035D01*
X686368Y1015044D01*
X688359Y1013516D01*
X690678Y1012555D01*
X693166Y1012228D01*
X695654Y1012555D01*
X697973Y1013516D01*
X699964Y1015044D01*
X701492Y1017035D01*
X702453Y1019354D01*
X702780Y1021842D01*
X702453Y1024330D01*
X701492Y1026649D01*
X699964Y1028640D01*
X697973Y1030168D01*
X695654Y1031129D01*
X693166Y1031456D01*
D02*
G37*
G36*
X667766D02*
X665278Y1031129D01*
X662959Y1030168D01*
X660968Y1028640D01*
X659440Y1026649D01*
X658479Y1024330D01*
X658152Y1021842D01*
X658479Y1019354D01*
X659440Y1017035D01*
X660968Y1015044D01*
X662959Y1013516D01*
X665278Y1012555D01*
X667766Y1012228D01*
X670254Y1012555D01*
X672573Y1013516D01*
X674564Y1015044D01*
X676092Y1017035D01*
X677053Y1019354D01*
X677380Y1021842D01*
X677053Y1024330D01*
X676092Y1026649D01*
X674564Y1028640D01*
X672573Y1030168D01*
X670254Y1031129D01*
X667766Y1031456D01*
D02*
G37*
G36*
X642366D02*
X639878Y1031129D01*
X637559Y1030168D01*
X635568Y1028640D01*
X634040Y1026649D01*
X633079Y1024330D01*
X632752Y1021842D01*
X633079Y1019354D01*
X634040Y1017035D01*
X635568Y1015044D01*
X637559Y1013516D01*
X639878Y1012555D01*
X642366Y1012228D01*
X644854Y1012555D01*
X647173Y1013516D01*
X649164Y1015044D01*
X650692Y1017035D01*
X651653Y1019354D01*
X651980Y1021842D01*
X651653Y1024330D01*
X650692Y1026649D01*
X649164Y1028640D01*
X647173Y1030168D01*
X644854Y1031129D01*
X642366Y1031456D01*
D02*
G37*
G36*
X616966D02*
X614478Y1031129D01*
X612159Y1030168D01*
X610168Y1028640D01*
X608640Y1026649D01*
X607679Y1024330D01*
X607352Y1021842D01*
X607679Y1019354D01*
X608640Y1017035D01*
X610168Y1015044D01*
X612159Y1013516D01*
X614478Y1012555D01*
X616966Y1012228D01*
X619454Y1012555D01*
X621773Y1013516D01*
X623764Y1015044D01*
X625292Y1017035D01*
X626253Y1019354D01*
X626580Y1021842D01*
X626253Y1024330D01*
X625292Y1026649D01*
X623764Y1028640D01*
X621773Y1030168D01*
X619454Y1031129D01*
X616966Y1031456D01*
D02*
G37*
G36*
X591566D02*
X589078Y1031129D01*
X586759Y1030168D01*
X584768Y1028640D01*
X583240Y1026649D01*
X582279Y1024330D01*
X581952Y1021842D01*
X582279Y1019354D01*
X583240Y1017035D01*
X584768Y1015044D01*
X586759Y1013516D01*
X589078Y1012555D01*
X591566Y1012228D01*
X594054Y1012555D01*
X596373Y1013516D01*
X598364Y1015044D01*
X599892Y1017035D01*
X600853Y1019354D01*
X601180Y1021842D01*
X600853Y1024330D01*
X599892Y1026649D01*
X598364Y1028640D01*
X596373Y1030168D01*
X594054Y1031129D01*
X591566Y1031456D01*
D02*
G37*
G36*
X566166D02*
X563678Y1031129D01*
X561359Y1030168D01*
X559368Y1028640D01*
X557840Y1026649D01*
X556879Y1024330D01*
X556552Y1021842D01*
X556879Y1019354D01*
X557840Y1017035D01*
X559368Y1015044D01*
X561359Y1013516D01*
X563678Y1012555D01*
X566166Y1012228D01*
X568654Y1012555D01*
X570973Y1013516D01*
X572964Y1015044D01*
X574492Y1017035D01*
X575453Y1019354D01*
X575780Y1021842D01*
X575453Y1024330D01*
X574492Y1026649D01*
X572964Y1028640D01*
X570973Y1030168D01*
X568654Y1031129D01*
X566166Y1031456D01*
D02*
G37*
G36*
X540766D02*
X538278Y1031129D01*
X535959Y1030168D01*
X533968Y1028640D01*
X532440Y1026649D01*
X531479Y1024330D01*
X531152Y1021842D01*
X531479Y1019354D01*
X532440Y1017035D01*
X533968Y1015044D01*
X535959Y1013516D01*
X538278Y1012555D01*
X540766Y1012228D01*
X543254Y1012555D01*
X545573Y1013516D01*
X547564Y1015044D01*
X549092Y1017035D01*
X550053Y1019354D01*
X550380Y1021842D01*
X550053Y1024330D01*
X549092Y1026649D01*
X547564Y1028640D01*
X545573Y1030168D01*
X543254Y1031129D01*
X540766Y1031456D01*
D02*
G37*
G36*
X515366D02*
X512878Y1031129D01*
X510559Y1030168D01*
X508568Y1028640D01*
X507040Y1026649D01*
X506079Y1024330D01*
X505752Y1021842D01*
X506079Y1019354D01*
X507040Y1017035D01*
X508568Y1015044D01*
X510559Y1013516D01*
X512878Y1012555D01*
X515366Y1012228D01*
X517854Y1012555D01*
X520173Y1013516D01*
X522164Y1015044D01*
X523692Y1017035D01*
X524653Y1019354D01*
X524980Y1021842D01*
X524653Y1024330D01*
X523692Y1026649D01*
X522164Y1028640D01*
X520173Y1030168D01*
X517854Y1031129D01*
X515366Y1031456D01*
D02*
G37*
G36*
X489966D02*
X487478Y1031129D01*
X485159Y1030168D01*
X483168Y1028640D01*
X481640Y1026649D01*
X480679Y1024330D01*
X480352Y1021842D01*
X480679Y1019354D01*
X481640Y1017035D01*
X483168Y1015044D01*
X485159Y1013516D01*
X487478Y1012555D01*
X489966Y1012228D01*
X492454Y1012555D01*
X494773Y1013516D01*
X496764Y1015044D01*
X498292Y1017035D01*
X499253Y1019354D01*
X499580Y1021842D01*
X499253Y1024330D01*
X498292Y1026649D01*
X496764Y1028640D01*
X494773Y1030168D01*
X492454Y1031129D01*
X489966Y1031456D01*
D02*
G37*
G36*
X464566D02*
X462078Y1031129D01*
X459759Y1030168D01*
X457768Y1028640D01*
X456240Y1026649D01*
X455279Y1024330D01*
X454952Y1021842D01*
X455279Y1019354D01*
X456240Y1017035D01*
X457768Y1015044D01*
X459759Y1013516D01*
X462078Y1012555D01*
X464566Y1012228D01*
X467054Y1012555D01*
X469373Y1013516D01*
X471364Y1015044D01*
X472892Y1017035D01*
X473853Y1019354D01*
X474180Y1021842D01*
X473853Y1024330D01*
X472892Y1026649D01*
X471364Y1028640D01*
X469373Y1030168D01*
X467054Y1031129D01*
X464566Y1031456D01*
D02*
G37*
G36*
X388366D02*
X385878Y1031129D01*
X383559Y1030168D01*
X381568Y1028640D01*
X380040Y1026649D01*
X379079Y1024330D01*
X378752Y1021842D01*
X379079Y1019354D01*
X380040Y1017035D01*
X381568Y1015044D01*
X383559Y1013516D01*
X385878Y1012555D01*
X388366Y1012228D01*
X390854Y1012555D01*
X393173Y1013516D01*
X395164Y1015044D01*
X396692Y1017035D01*
X397653Y1019354D01*
X397980Y1021842D01*
X397653Y1024330D01*
X396692Y1026649D01*
X395164Y1028640D01*
X393173Y1030168D01*
X390854Y1031129D01*
X388366Y1031456D01*
D02*
G37*
G36*
X362966D02*
X360478Y1031129D01*
X358159Y1030168D01*
X356168Y1028640D01*
X354640Y1026649D01*
X353679Y1024330D01*
X353352Y1021842D01*
X353679Y1019354D01*
X354640Y1017035D01*
X356168Y1015044D01*
X358159Y1013516D01*
X360478Y1012555D01*
X362966Y1012228D01*
X365454Y1012555D01*
X367773Y1013516D01*
X369764Y1015044D01*
X371292Y1017035D01*
X372253Y1019354D01*
X372580Y1021842D01*
X372253Y1024330D01*
X371292Y1026649D01*
X369764Y1028640D01*
X367773Y1030168D01*
X365454Y1031129D01*
X362966Y1031456D01*
D02*
G37*
G36*
X312166Y1037035D02*
X309202Y1036743D01*
X306352Y1035879D01*
X303725Y1034475D01*
X301423Y1032585D01*
X299533Y1030283D01*
X298129Y1027656D01*
X297265Y1024806D01*
X296973Y1021842D01*
X297265Y1018878D01*
X298129Y1016028D01*
X299533Y1013401D01*
X301423Y1011099D01*
X302806Y1009964D01*
Y1008320D01*
X301423Y1007185D01*
X299533Y1004883D01*
X298129Y1002256D01*
X297265Y999406D01*
X296973Y996442D01*
X297265Y993478D01*
X298129Y990628D01*
X299533Y988001D01*
X301423Y985699D01*
X303725Y983809D01*
X306352Y982405D01*
X309202Y981541D01*
X312166Y981249D01*
X315130Y981541D01*
X317980Y982405D01*
X320607Y983809D01*
X322909Y985699D01*
X324799Y988001D01*
X326203Y990628D01*
X327067Y993478D01*
X328291Y993746D01*
X328369Y993737D01*
X329240Y991635D01*
X330768Y989644D01*
X332759Y988116D01*
X335078Y987155D01*
X337566Y986828D01*
X340054Y987155D01*
X342373Y988116D01*
X344364Y989644D01*
X345892Y991635D01*
X346853Y993954D01*
X347180Y996442D01*
X346853Y998930D01*
X345892Y1001249D01*
X344364Y1003240D01*
X342373Y1004768D01*
X340054Y1005729D01*
X337566Y1006056D01*
X335078Y1005729D01*
X332759Y1004768D01*
X330768Y1003240D01*
X329240Y1001249D01*
X328369Y999146D01*
X328291Y999138D01*
X327067Y999406D01*
X326203Y1002256D01*
X324799Y1004883D01*
X322909Y1007185D01*
X321526Y1008320D01*
Y1009964D01*
X322909Y1011099D01*
X324799Y1013401D01*
X326203Y1016028D01*
X327067Y1018878D01*
X328291Y1019146D01*
X328369Y1019137D01*
X329240Y1017035D01*
X330768Y1015044D01*
X332759Y1013516D01*
X335078Y1012555D01*
X337566Y1012228D01*
X340054Y1012555D01*
X342373Y1013516D01*
X344364Y1015044D01*
X345892Y1017035D01*
X346853Y1019354D01*
X347180Y1021842D01*
X346853Y1024330D01*
X345892Y1026649D01*
X344364Y1028640D01*
X342373Y1030168D01*
X340054Y1031129D01*
X337566Y1031456D01*
X335078Y1031129D01*
X332759Y1030168D01*
X330768Y1028640D01*
X329240Y1026649D01*
X328369Y1024547D01*
X328291Y1024538D01*
X327067Y1024806D01*
X326203Y1027656D01*
X324799Y1030283D01*
X322909Y1032585D01*
X320607Y1034475D01*
X317980Y1035879D01*
X315130Y1036743D01*
X312166Y1037035D01*
D02*
G37*
G36*
X439166Y1031456D02*
X436678Y1031129D01*
X434359Y1030168D01*
X432368Y1028640D01*
X430840Y1026649D01*
X429879Y1024330D01*
X429552Y1021842D01*
X429879Y1019354D01*
X430840Y1017035D01*
X432368Y1015044D01*
X434359Y1013516D01*
X436678Y1012555D01*
X439166Y1012228D01*
X441654Y1012555D01*
X443354Y1013259D01*
X449012Y1007601D01*
Y1000898D01*
X447742Y1000645D01*
X447492Y1001249D01*
X445964Y1003240D01*
X443973Y1004768D01*
X441654Y1005729D01*
X439166Y1006056D01*
X436678Y1005729D01*
X434359Y1004768D01*
X432368Y1003240D01*
X430840Y1001249D01*
X430590Y1000645D01*
X429320Y1000898D01*
Y1009396D01*
X429083Y1010585D01*
X428410Y1011593D01*
X422349Y1017654D01*
X423053Y1019354D01*
X423380Y1021842D01*
X423053Y1024330D01*
X422092Y1026649D01*
X420564Y1028640D01*
X418573Y1030168D01*
X416254Y1031129D01*
X413766Y1031456D01*
X411278Y1031129D01*
X408959Y1030168D01*
X406968Y1028640D01*
X405440Y1026649D01*
X404479Y1024330D01*
X404152Y1021842D01*
X404479Y1019354D01*
X405440Y1017035D01*
X406968Y1015044D01*
X408959Y1013516D01*
X411278Y1012555D01*
X413766Y1012228D01*
X416254Y1012555D01*
X417954Y1013259D01*
X423104Y1008109D01*
Y1002005D01*
X421834Y1001585D01*
X420564Y1003240D01*
X418573Y1004768D01*
X416254Y1005729D01*
X413766Y1006056D01*
X411278Y1005729D01*
X408959Y1004768D01*
X406968Y1003240D01*
X405440Y1001249D01*
X404479Y998930D01*
X404152Y996442D01*
X404479Y993954D01*
X405440Y991635D01*
X406968Y989644D01*
X408959Y988116D01*
X410658Y987412D01*
Y976640D01*
X410895Y975451D01*
X411568Y974443D01*
X440280Y945731D01*
X441289Y945057D01*
X442478Y944820D01*
X574475D01*
X597339Y921957D01*
Y904758D01*
X597575Y903568D01*
X598249Y902560D01*
X610105Y890704D01*
X610018Y890270D01*
X610373Y888486D01*
X611384Y886974D01*
X612896Y885963D01*
X614680Y885608D01*
X616464Y885963D01*
X617976Y886974D01*
X618680Y888027D01*
X620092D01*
X620796Y886974D01*
X622308Y885963D01*
X624092Y885608D01*
X625876Y885963D01*
X627388Y886974D01*
X628399Y888486D01*
X628754Y890270D01*
X628399Y892054D01*
X627388Y893566D01*
X625876Y894577D01*
X624092Y894932D01*
X623870Y894887D01*
X609914Y908843D01*
Y926224D01*
X609677Y927413D01*
X609003Y928421D01*
X581175Y956250D01*
X581701Y957520D01*
X583929D01*
X619969Y921480D01*
X619924Y921258D01*
X620279Y919474D01*
X621290Y917962D01*
X622802Y916951D01*
X624586Y916596D01*
X626370Y916951D01*
X627882Y917962D01*
X628893Y919474D01*
X629248Y921258D01*
X628915Y922930D01*
X628973Y923002D01*
X630356Y923285D01*
X631526Y922115D01*
X631481Y921893D01*
X631836Y920109D01*
X632847Y918597D01*
X634359Y917586D01*
X636143Y917232D01*
X637927Y917586D01*
X639439Y918597D01*
X640450Y920109D01*
X640805Y921893D01*
X640450Y923677D01*
X639439Y925189D01*
X637927Y926200D01*
X636143Y926555D01*
X635921Y926510D01*
X593002Y969429D01*
X591993Y970103D01*
X590804Y970340D01*
X470933D01*
X455228Y986045D01*
Y990879D01*
X456498Y991299D01*
X457768Y989644D01*
X459759Y988116D01*
X462078Y987155D01*
X464566Y986828D01*
X467054Y987155D01*
X469373Y988116D01*
X471364Y989644D01*
X472892Y991635D01*
X473853Y993954D01*
X474180Y996442D01*
X473853Y998930D01*
X472892Y1001249D01*
X471364Y1003240D01*
X469373Y1004768D01*
X467054Y1005729D01*
X464566Y1006056D01*
X462078Y1005729D01*
X459759Y1004768D01*
X457768Y1003240D01*
X456498Y1001585D01*
X455228Y1002005D01*
Y1008888D01*
X454991Y1010077D01*
X454318Y1011086D01*
X447749Y1017654D01*
X448453Y1019354D01*
X448780Y1021842D01*
X448453Y1024330D01*
X447492Y1026649D01*
X445964Y1028640D01*
X443973Y1030168D01*
X441654Y1031129D01*
X439166Y1031456D01*
D02*
G37*
G36*
X1036752Y1020896D02*
X1009688D01*
Y993832D01*
X1036752D01*
Y1020896D01*
D02*
G37*
G36*
X973220Y1021013D02*
X969687Y1020548D01*
X966396Y1019184D01*
X963569Y1017015D01*
X961400Y1014188D01*
X960036Y1010897D01*
X959571Y1007364D01*
X960036Y1003831D01*
X961400Y1000540D01*
X963569Y997713D01*
X966396Y995544D01*
X969687Y994180D01*
X973220Y993715D01*
X976753Y994180D01*
X980044Y995544D01*
X982871Y997713D01*
X985040Y1000540D01*
X986404Y1003831D01*
X986869Y1007364D01*
X986404Y1010897D01*
X985040Y1014188D01*
X982871Y1017015D01*
X980044Y1019184D01*
X976753Y1020548D01*
X973220Y1021013D01*
D02*
G37*
G36*
X845566Y1006056D02*
X843078Y1005729D01*
X840759Y1004768D01*
X838768Y1003240D01*
X837240Y1001249D01*
X836279Y998930D01*
X835952Y996442D01*
X836279Y993954D01*
X837240Y991635D01*
X838768Y989644D01*
X840759Y988116D01*
X843078Y987155D01*
X845566Y986828D01*
X848054Y987155D01*
X850373Y988116D01*
X852364Y989644D01*
X853892Y991635D01*
X854853Y993954D01*
X855180Y996442D01*
X854853Y998930D01*
X853892Y1001249D01*
X852364Y1003240D01*
X850373Y1004768D01*
X848054Y1005729D01*
X845566Y1006056D01*
D02*
G37*
G36*
X820166D02*
X817678Y1005729D01*
X815359Y1004768D01*
X813368Y1003240D01*
X811840Y1001249D01*
X810879Y998930D01*
X810552Y996442D01*
X810879Y993954D01*
X811840Y991635D01*
X813368Y989644D01*
X815359Y988116D01*
X817678Y987155D01*
X820166Y986828D01*
X822654Y987155D01*
X824973Y988116D01*
X826964Y989644D01*
X828492Y991635D01*
X829453Y993954D01*
X829780Y996442D01*
X829453Y998930D01*
X828492Y1001249D01*
X826964Y1003240D01*
X824973Y1004768D01*
X822654Y1005729D01*
X820166Y1006056D01*
D02*
G37*
G36*
X769366D02*
X766878Y1005729D01*
X764559Y1004768D01*
X762568Y1003240D01*
X761040Y1001249D01*
X760079Y998930D01*
X759752Y996442D01*
X760079Y993954D01*
X761040Y991635D01*
X762568Y989644D01*
X764559Y988116D01*
X766878Y987155D01*
X769366Y986828D01*
X771854Y987155D01*
X774173Y988116D01*
X776164Y989644D01*
X777692Y991635D01*
X778653Y993954D01*
X778980Y996442D01*
X778653Y998930D01*
X777692Y1001249D01*
X776164Y1003240D01*
X774173Y1004768D01*
X771854Y1005729D01*
X769366Y1006056D01*
D02*
G37*
G36*
X718566D02*
X716078Y1005729D01*
X713759Y1004768D01*
X711768Y1003240D01*
X710240Y1001249D01*
X709279Y998930D01*
X708952Y996442D01*
X709279Y993954D01*
X710240Y991635D01*
X711768Y989644D01*
X713759Y988116D01*
X716078Y987155D01*
X718566Y986828D01*
X721054Y987155D01*
X723373Y988116D01*
X725364Y989644D01*
X726892Y991635D01*
X727853Y993954D01*
X728180Y996442D01*
X727853Y998930D01*
X726892Y1001249D01*
X725364Y1003240D01*
X723373Y1004768D01*
X721054Y1005729D01*
X718566Y1006056D01*
D02*
G37*
G36*
X693166D02*
X690678Y1005729D01*
X688359Y1004768D01*
X686368Y1003240D01*
X684840Y1001249D01*
X683879Y998930D01*
X683552Y996442D01*
X683879Y993954D01*
X684840Y991635D01*
X686368Y989644D01*
X688359Y988116D01*
X690678Y987155D01*
X693166Y986828D01*
X695654Y987155D01*
X697973Y988116D01*
X699964Y989644D01*
X701492Y991635D01*
X702453Y993954D01*
X702780Y996442D01*
X702453Y998930D01*
X701492Y1001249D01*
X699964Y1003240D01*
X697973Y1004768D01*
X695654Y1005729D01*
X693166Y1006056D01*
D02*
G37*
G36*
X667766D02*
X665278Y1005729D01*
X662959Y1004768D01*
X660968Y1003240D01*
X659440Y1001249D01*
X658479Y998930D01*
X658152Y996442D01*
X658479Y993954D01*
X659440Y991635D01*
X660968Y989644D01*
X662959Y988116D01*
X665278Y987155D01*
X667766Y986828D01*
X670254Y987155D01*
X672573Y988116D01*
X674564Y989644D01*
X676092Y991635D01*
X677053Y993954D01*
X677380Y996442D01*
X677053Y998930D01*
X676092Y1001249D01*
X674564Y1003240D01*
X672573Y1004768D01*
X670254Y1005729D01*
X667766Y1006056D01*
D02*
G37*
G36*
X616966D02*
X614478Y1005729D01*
X612159Y1004768D01*
X610168Y1003240D01*
X608640Y1001249D01*
X607679Y998930D01*
X607352Y996442D01*
X607679Y993954D01*
X608640Y991635D01*
X610168Y989644D01*
X612159Y988116D01*
X614478Y987155D01*
X616966Y986828D01*
X619454Y987155D01*
X621773Y988116D01*
X623764Y989644D01*
X625292Y991635D01*
X626253Y993954D01*
X626580Y996442D01*
X626253Y998930D01*
X625292Y1001249D01*
X623764Y1003240D01*
X621773Y1004768D01*
X619454Y1005729D01*
X616966Y1006056D01*
D02*
G37*
G36*
X591566D02*
X589078Y1005729D01*
X586759Y1004768D01*
X584768Y1003240D01*
X583240Y1001249D01*
X582279Y998930D01*
X581952Y996442D01*
X582279Y993954D01*
X583240Y991635D01*
X584768Y989644D01*
X586759Y988116D01*
X589078Y987155D01*
X591566Y986828D01*
X594054Y987155D01*
X596373Y988116D01*
X598364Y989644D01*
X599892Y991635D01*
X600853Y993954D01*
X601180Y996442D01*
X600853Y998930D01*
X599892Y1001249D01*
X598364Y1003240D01*
X596373Y1004768D01*
X594054Y1005729D01*
X591566Y1006056D01*
D02*
G37*
G36*
X566166D02*
X563678Y1005729D01*
X561359Y1004768D01*
X559368Y1003240D01*
X557840Y1001249D01*
X556879Y998930D01*
X556552Y996442D01*
X556879Y993954D01*
X557840Y991635D01*
X559368Y989644D01*
X561359Y988116D01*
X563678Y987155D01*
X566166Y986828D01*
X568654Y987155D01*
X570973Y988116D01*
X572964Y989644D01*
X574492Y991635D01*
X575453Y993954D01*
X575780Y996442D01*
X575453Y998930D01*
X574492Y1001249D01*
X572964Y1003240D01*
X570973Y1004768D01*
X568654Y1005729D01*
X566166Y1006056D01*
D02*
G37*
G36*
X540766D02*
X538278Y1005729D01*
X535959Y1004768D01*
X533968Y1003240D01*
X532440Y1001249D01*
X531479Y998930D01*
X531152Y996442D01*
X531479Y993954D01*
X532440Y991635D01*
X533968Y989644D01*
X535959Y988116D01*
X538278Y987155D01*
X540766Y986828D01*
X543254Y987155D01*
X545573Y988116D01*
X547564Y989644D01*
X549092Y991635D01*
X550053Y993954D01*
X550380Y996442D01*
X550053Y998930D01*
X549092Y1001249D01*
X547564Y1003240D01*
X545573Y1004768D01*
X543254Y1005729D01*
X540766Y1006056D01*
D02*
G37*
G36*
X515366D02*
X512878Y1005729D01*
X510559Y1004768D01*
X508568Y1003240D01*
X507040Y1001249D01*
X506079Y998930D01*
X505752Y996442D01*
X506079Y993954D01*
X507040Y991635D01*
X508568Y989644D01*
X510559Y988116D01*
X512878Y987155D01*
X515366Y986828D01*
X517854Y987155D01*
X520173Y988116D01*
X522164Y989644D01*
X523692Y991635D01*
X524653Y993954D01*
X524980Y996442D01*
X524653Y998930D01*
X523692Y1001249D01*
X522164Y1003240D01*
X520173Y1004768D01*
X517854Y1005729D01*
X515366Y1006056D01*
D02*
G37*
G36*
X489966D02*
X487478Y1005729D01*
X485159Y1004768D01*
X483168Y1003240D01*
X481640Y1001249D01*
X480679Y998930D01*
X480352Y996442D01*
X480679Y993954D01*
X481640Y991635D01*
X483168Y989644D01*
X485159Y988116D01*
X487478Y987155D01*
X489966Y986828D01*
X492454Y987155D01*
X494773Y988116D01*
X496764Y989644D01*
X498292Y991635D01*
X499253Y993954D01*
X499580Y996442D01*
X499253Y998930D01*
X498292Y1001249D01*
X496764Y1003240D01*
X494773Y1004768D01*
X492454Y1005729D01*
X489966Y1006056D01*
D02*
G37*
G36*
X388366D02*
X385878Y1005729D01*
X383559Y1004768D01*
X381568Y1003240D01*
X380040Y1001249D01*
X379079Y998930D01*
X378752Y996442D01*
X379079Y993954D01*
X380040Y991635D01*
X381568Y989644D01*
X383559Y988116D01*
X385878Y987155D01*
X388366Y986828D01*
X390854Y987155D01*
X393173Y988116D01*
X395164Y989644D01*
X396692Y991635D01*
X397653Y993954D01*
X397980Y996442D01*
X397653Y998930D01*
X396692Y1001249D01*
X395164Y1003240D01*
X393173Y1004768D01*
X390854Y1005729D01*
X388366Y1006056D01*
D02*
G37*
G36*
X362966D02*
X360478Y1005729D01*
X358159Y1004768D01*
X356168Y1003240D01*
X354640Y1001249D01*
X353679Y998930D01*
X353352Y996442D01*
X353679Y993954D01*
X354640Y991635D01*
X356168Y989644D01*
X358159Y988116D01*
X360478Y987155D01*
X362966Y986828D01*
X365454Y987155D01*
X367773Y988116D01*
X369764Y989644D01*
X371292Y991635D01*
X372253Y993954D01*
X372580Y996442D01*
X372253Y998930D01*
X371292Y1001249D01*
X369764Y1003240D01*
X367773Y1004768D01*
X365454Y1005729D01*
X362966Y1006056D01*
D02*
G37*
G36*
X983742Y986624D02*
X981958Y986269D01*
X980967Y985606D01*
X980059Y985362D01*
X979151Y985606D01*
X978160Y986269D01*
X976376Y986624D01*
X974592Y986269D01*
X973080Y985258D01*
X972069Y983746D01*
X971714Y981962D01*
X972069Y980178D01*
X973080Y978666D01*
X972497Y977528D01*
X972069Y976888D01*
X971714Y975104D01*
X972069Y973320D01*
X973080Y971808D01*
X974592Y970797D01*
X976376Y970443D01*
X978160Y970797D01*
X979151Y971460D01*
X980059Y971704D01*
X980967Y971460D01*
X981958Y970797D01*
X983742Y970443D01*
X985526Y970797D01*
X987038Y971808D01*
X988049Y973320D01*
X988404Y975104D01*
X988049Y976888D01*
X987038Y978400D01*
X987621Y979538D01*
X988049Y980178D01*
X988403Y981962D01*
X988049Y983746D01*
X987038Y985258D01*
X985526Y986269D01*
X983742Y986624D01*
D02*
G37*
G36*
X244094Y984086D02*
X242310Y983731D01*
X240798Y982720D01*
X239787Y981208D01*
X239432Y979424D01*
X239787Y977640D01*
X240798Y976128D01*
X242310Y975117D01*
X244094Y974762D01*
X245878Y975117D01*
X247390Y976128D01*
X248401Y977640D01*
X248756Y979424D01*
X248401Y981208D01*
X247390Y982720D01*
X245878Y983731D01*
X244094Y984086D01*
D02*
G37*
G36*
X254782Y977482D02*
X252998Y977127D01*
X251486Y976116D01*
X250475Y974604D01*
X250120Y972820D01*
X250475Y971036D01*
X251486Y969524D01*
X252998Y968513D01*
X254782Y968158D01*
X256566Y968513D01*
X258078Y969524D01*
X259089Y971036D01*
X259444Y972820D01*
X259089Y974604D01*
X258078Y976116D01*
X256566Y977127D01*
X254782Y977482D01*
D02*
G37*
G36*
X284988Y969862D02*
X283204Y969507D01*
X281692Y968496D01*
X280681Y966984D01*
X280326Y965200D01*
X280635Y963647D01*
X280152Y962914D01*
X279747Y962529D01*
X278638Y962750D01*
X276854Y962395D01*
X275342Y961384D01*
X274331Y959872D01*
X273976Y958088D01*
X274331Y956304D01*
X275342Y954792D01*
X276854Y953781D01*
X278638Y953426D01*
X280422Y953781D01*
X281934Y954792D01*
X282945Y956304D01*
X283300Y958088D01*
X282991Y959641D01*
X283474Y960375D01*
X283879Y960759D01*
X284988Y960538D01*
X286772Y960893D01*
X288284Y961904D01*
X289295Y963416D01*
X289650Y965200D01*
X289295Y966984D01*
X288284Y968496D01*
X286772Y969507D01*
X284988Y969862D01*
D02*
G37*
G36*
X919988Y951908D02*
X918204Y951553D01*
X916692Y950542D01*
X915681Y949030D01*
X915326Y947246D01*
X915681Y945462D01*
X916692Y943950D01*
X918204Y942939D01*
X919988Y942584D01*
X921772Y942939D01*
X923284Y943950D01*
X924295Y945462D01*
X924650Y947246D01*
X924295Y949030D01*
X923284Y950542D01*
X921772Y951553D01*
X919988Y951908D01*
D02*
G37*
G36*
X953864Y950014D02*
X952080Y949659D01*
X950568Y948648D01*
X949557Y947136D01*
X949202Y945352D01*
X949557Y943568D01*
X950568Y942056D01*
X952080Y941045D01*
X953864Y940690D01*
X955648Y941045D01*
X957160Y942056D01*
X958171Y943568D01*
X958526Y945352D01*
X958171Y947136D01*
X957160Y948648D01*
X955648Y949659D01*
X953864Y950014D01*
D02*
G37*
G36*
X291846Y955384D02*
X290062Y955029D01*
X288550Y954018D01*
X287539Y952506D01*
X287184Y950722D01*
X287539Y948938D01*
X288550Y947426D01*
X290062Y946415D01*
X291846Y946060D01*
X293399Y946369D01*
X294132Y945886D01*
X294517Y945481D01*
X294296Y944372D01*
X294651Y942588D01*
X295662Y941076D01*
X297174Y940065D01*
X298958Y939710D01*
X300742Y940065D01*
X302254Y941076D01*
X303265Y942588D01*
X303620Y944372D01*
X303265Y946156D01*
X302254Y947668D01*
X300742Y948679D01*
X298958Y949034D01*
X297405Y948725D01*
X296672Y949208D01*
X296287Y949613D01*
X296508Y950722D01*
X296153Y952506D01*
X295142Y954018D01*
X293630Y955029D01*
X291846Y955384D01*
D02*
G37*
G36*
X211074Y925158D02*
X209290Y924803D01*
X207778Y923792D01*
X206767Y922280D01*
X206412Y920496D01*
X206767Y918712D01*
X207778Y917200D01*
X209290Y916189D01*
X211074Y915834D01*
X212858Y916189D01*
X214370Y917200D01*
X215381Y918712D01*
X215736Y920496D01*
X215381Y922280D01*
X214370Y923792D01*
X212858Y924803D01*
X211074Y925158D01*
D02*
G37*
G36*
X1036752Y935552D02*
X1009688D01*
Y908488D01*
X1036752D01*
Y935552D01*
D02*
G37*
G36*
X973220Y935669D02*
X969687Y935204D01*
X966396Y933840D01*
X963569Y931671D01*
X961400Y928844D01*
X960036Y925553D01*
X959571Y922020D01*
X960036Y918487D01*
X961400Y915196D01*
X963569Y912369D01*
X966396Y910200D01*
X969687Y908836D01*
X973220Y908371D01*
X976753Y908836D01*
X980044Y910200D01*
X982871Y912369D01*
X985040Y915196D01*
X986404Y918487D01*
X986869Y922020D01*
X986404Y925553D01*
X985040Y928844D01*
X982871Y931671D01*
X980044Y933840D01*
X976753Y935204D01*
X973220Y935669D01*
D02*
G37*
G36*
X829818Y914236D02*
X828034Y913881D01*
X826522Y912870D01*
X825511Y911358D01*
X825156Y909574D01*
X825511Y907790D01*
X826522Y906278D01*
X828034Y905267D01*
X829818Y904912D01*
X831602Y905267D01*
X833114Y906278D01*
X834125Y907790D01*
X834480Y909574D01*
X834125Y911358D01*
X833114Y912870D01*
X831602Y913881D01*
X829818Y914236D01*
D02*
G37*
G36*
X983742Y901280D02*
X981958Y900925D01*
X980967Y900262D01*
X980059Y900018D01*
X979151Y900262D01*
X978160Y900925D01*
X976376Y901280D01*
X974592Y900925D01*
X973080Y899914D01*
X972069Y898402D01*
X971714Y896618D01*
X972069Y894834D01*
X973080Y893322D01*
X972497Y892184D01*
X972069Y891544D01*
X971714Y889760D01*
X972069Y887976D01*
X973080Y886464D01*
X974592Y885453D01*
X976376Y885098D01*
X978160Y885453D01*
X979151Y886116D01*
X980059Y886360D01*
X980967Y886116D01*
X981958Y885453D01*
X983742Y885098D01*
X985526Y885453D01*
X987038Y886464D01*
X988049Y887976D01*
X988404Y889760D01*
X988049Y891544D01*
X987038Y893056D01*
X987621Y894194D01*
X988049Y894834D01*
X988403Y896618D01*
X988049Y898402D01*
X987038Y899914D01*
X985526Y900925D01*
X983742Y901280D01*
D02*
G37*
G36*
X886968Y909156D02*
X885184Y908801D01*
X883672Y907790D01*
X882661Y906278D01*
X882306Y904494D01*
X882661Y902710D01*
X883672Y901198D01*
X885184Y900187D01*
X886968Y899832D01*
X888752Y900187D01*
X890264Y901198D01*
X891275Y902710D01*
X891630Y904494D01*
X891275Y906278D01*
X890264Y907790D01*
X888752Y908801D01*
X886968Y909156D01*
D02*
G37*
G36*
X919988Y902262D02*
X918204Y901907D01*
X916692Y900896D01*
X915681Y899384D01*
X915326Y897600D01*
X915681Y895816D01*
X916692Y894304D01*
X918204Y893293D01*
X919988Y892938D01*
X921772Y893293D01*
X923284Y894304D01*
X924295Y895816D01*
X924650Y897600D01*
X924295Y899384D01*
X923284Y900896D01*
X921772Y901907D01*
X919988Y902262D01*
D02*
G37*
G36*
X875538Y891122D02*
X873754Y890767D01*
X872242Y889756D01*
X871231Y888244D01*
X870876Y886460D01*
X871231Y884676D01*
X872242Y883164D01*
X873754Y882153D01*
X875538Y881798D01*
X877322Y882153D01*
X878834Y883164D01*
X879845Y884676D01*
X880200Y886460D01*
X879845Y888244D01*
X878834Y889756D01*
X877322Y890767D01*
X875538Y891122D01*
D02*
G37*
G36*
X156555Y879180D02*
X154767Y878824D01*
X153252Y877812D01*
X152239Y876296D01*
X151883Y874508D01*
X152239Y872720D01*
X153252Y871205D01*
X154767Y870192D01*
X156555Y869836D01*
X158343Y870192D01*
X159859Y871205D01*
X160871Y872720D01*
X161227Y874508D01*
X160871Y876296D01*
X159859Y877812D01*
X158343Y878824D01*
X156555Y879180D01*
D02*
G37*
G36*
X76339Y876295D02*
X74551Y875939D01*
X73036Y874927D01*
X72023Y873411D01*
X71667Y871623D01*
X71891Y870497D01*
X70748Y869733D01*
X70623Y869817D01*
X68835Y870173D01*
X67047Y869817D01*
X65532Y868804D01*
X64519Y867289D01*
X64163Y865501D01*
X64519Y863713D01*
X65532Y862198D01*
X65141Y860931D01*
X64607Y860133D01*
X64251Y858345D01*
X64607Y856557D01*
X65620Y855042D01*
X67135Y854029D01*
X68923Y853673D01*
X70711Y854029D01*
X72227Y855042D01*
X73239Y856557D01*
X73595Y858345D01*
X73239Y860133D01*
X72227Y861648D01*
X72618Y862915D01*
X73151Y863713D01*
X73507Y865501D01*
X73283Y866627D01*
X74426Y867391D01*
X74551Y867307D01*
X76339Y866951D01*
X78127Y867307D01*
X79643Y868320D01*
X80655Y869835D01*
X81011Y871623D01*
X80655Y873411D01*
X79643Y874927D01*
X78127Y875939D01*
X76339Y876295D01*
D02*
G37*
G36*
X243078Y876390D02*
X241294Y876035D01*
X239782Y875024D01*
X238771Y873512D01*
X238416Y871728D01*
X238771Y869944D01*
X239782Y868432D01*
X241294Y867421D01*
X243078Y867066D01*
X244862Y867421D01*
X246374Y868432D01*
X247385Y869944D01*
X247740Y871728D01*
X247385Y873512D01*
X246374Y875024D01*
X244862Y876035D01*
X243078Y876390D01*
D02*
G37*
G36*
X143600Y874352D02*
X141812Y873996D01*
X140297Y872983D01*
X139284Y871468D01*
X138928Y869680D01*
X139284Y867892D01*
X140297Y866377D01*
X141812Y865364D01*
X143600Y865008D01*
X145388Y865364D01*
X146903Y866377D01*
X147916Y867892D01*
X148272Y869680D01*
X147916Y871468D01*
X146903Y872983D01*
X145388Y873996D01*
X143600Y874352D01*
D02*
G37*
G36*
X830834Y868516D02*
X829050Y868161D01*
X827538Y867150D01*
X826527Y865638D01*
X826172Y863854D01*
X826527Y862070D01*
X827538Y860558D01*
X829050Y859547D01*
X830834Y859192D01*
X832618Y859547D01*
X834130Y860558D01*
X835141Y862070D01*
X835496Y863854D01*
X835141Y865638D01*
X834130Y867150D01*
X832618Y868161D01*
X830834Y868516D01*
D02*
G37*
G36*
X779222Y867567D02*
X777434Y867211D01*
X775919Y866198D01*
X774906Y864683D01*
X774551Y862895D01*
X774906Y861107D01*
X775919Y859592D01*
X777434Y858579D01*
X779222Y858223D01*
X781010Y858579D01*
X782526Y859592D01*
X783539Y861107D01*
X783894Y862895D01*
X783539Y864683D01*
X782526Y866198D01*
X781010Y867211D01*
X779222Y867567D01*
D02*
G37*
G36*
X699006Y864682D02*
X697218Y864326D01*
X695703Y863313D01*
X694690Y861798D01*
X694335Y860010D01*
X694558Y858884D01*
X693416Y858120D01*
X693290Y858204D01*
X691502Y858560D01*
X689715Y858204D01*
X688199Y857191D01*
X687186Y855676D01*
X686831Y853888D01*
X687186Y852100D01*
X688199Y850584D01*
X687808Y849318D01*
X687274Y848520D01*
X686918Y846732D01*
X687274Y844944D01*
X688287Y843428D01*
X689802Y842416D01*
X691590Y842060D01*
X693378Y842416D01*
X694894Y843428D01*
X695906Y844944D01*
X696262Y846732D01*
X695906Y848520D01*
X694894Y850035D01*
X695285Y851301D01*
X695818Y852100D01*
X696174Y853888D01*
X695950Y855014D01*
X697093Y855778D01*
X697218Y855694D01*
X699006Y855338D01*
X700794Y855694D01*
X702310Y856706D01*
X703322Y858222D01*
X703678Y860010D01*
X703322Y861798D01*
X702310Y863313D01*
X700794Y864326D01*
X699006Y864682D01*
D02*
G37*
G36*
X766267Y862739D02*
X764480Y862383D01*
X762964Y861370D01*
X761951Y859855D01*
X761596Y858067D01*
X761951Y856279D01*
X762964Y854763D01*
X764480Y853751D01*
X766267Y853395D01*
X768055Y853751D01*
X769571Y854763D01*
X770583Y856279D01*
X770939Y858067D01*
X770583Y859855D01*
X769571Y861370D01*
X768055Y862383D01*
X766267Y862739D01*
D02*
G37*
G36*
X135526Y858569D02*
X133738Y858213D01*
X132223Y857200D01*
X131210Y855685D01*
X130854Y853897D01*
X131210Y852109D01*
X132223Y850594D01*
X133738Y849581D01*
X135526Y849225D01*
X137314Y849581D01*
X138829Y850594D01*
X139842Y852109D01*
X140198Y853897D01*
X139842Y855685D01*
X138829Y857200D01*
X137314Y858213D01*
X135526Y858569D01*
D02*
G37*
G36*
X166063Y854714D02*
X164275Y854358D01*
X162760Y853345D01*
X161747Y851830D01*
X161391Y850042D01*
X161747Y848254D01*
X162760Y846739D01*
X164275Y845726D01*
X166063Y845370D01*
X167851Y845726D01*
X169366Y846739D01*
X170379Y848254D01*
X170735Y850042D01*
X170379Y851830D01*
X169366Y853345D01*
X167851Y854358D01*
X166063Y854714D01*
D02*
G37*
G36*
X920248Y851538D02*
X918464Y851183D01*
X916952Y850172D01*
X915941Y848660D01*
X915586Y846876D01*
X915941Y845092D01*
X916952Y843580D01*
X918464Y842569D01*
X920248Y842214D01*
X922032Y842569D01*
X923544Y843580D01*
X924555Y845092D01*
X924910Y846876D01*
X924555Y848660D01*
X923544Y850172D01*
X922032Y851183D01*
X920248Y851538D01*
D02*
G37*
G36*
X871728Y848704D02*
X869944Y848349D01*
X868432Y847338D01*
X867421Y845826D01*
X867066Y844042D01*
X867421Y842258D01*
X868432Y840746D01*
X869944Y839735D01*
X871728Y839380D01*
X873512Y839735D01*
X875024Y840746D01*
X876035Y842258D01*
X876390Y844042D01*
X876035Y845826D01*
X875024Y847338D01*
X873512Y848349D01*
X871728Y848704D01*
D02*
G37*
G36*
X72361Y847847D02*
X70573Y847491D01*
X69058Y846479D01*
X68045Y844963D01*
X67689Y843175D01*
X68045Y841387D01*
X69058Y839872D01*
X70573Y838859D01*
X72361Y838503D01*
X74149Y838859D01*
X75665Y839872D01*
X76677Y841387D01*
X77033Y843175D01*
X76677Y844963D01*
X75665Y846479D01*
X74149Y847491D01*
X72361Y847847D01*
D02*
G37*
G36*
X758193Y846956D02*
X756405Y846600D01*
X754890Y845587D01*
X753877Y844072D01*
X753521Y842284D01*
X753877Y840496D01*
X754890Y838980D01*
X756405Y837968D01*
X758193Y837612D01*
X759981Y837968D01*
X761497Y838980D01*
X762509Y840496D01*
X762865Y842284D01*
X762509Y844072D01*
X761497Y845587D01*
X759981Y846600D01*
X758193Y846956D01*
D02*
G37*
G36*
X221234Y846926D02*
X219450Y846571D01*
X217938Y845560D01*
X216927Y844048D01*
X216572Y842264D01*
X216927Y840480D01*
X217938Y838968D01*
X219450Y837957D01*
X221234Y837602D01*
X223018Y837957D01*
X224530Y838968D01*
X225541Y840480D01*
X225896Y842264D01*
X225541Y844048D01*
X224530Y845560D01*
X223018Y846571D01*
X221234Y846926D01*
D02*
G37*
G36*
X788730Y843101D02*
X786943Y842745D01*
X785427Y841732D01*
X784414Y840217D01*
X784059Y838429D01*
X784414Y836641D01*
X785427Y835126D01*
X786943Y834113D01*
X788730Y833757D01*
X790518Y834113D01*
X792034Y835126D01*
X793046Y836641D01*
X793402Y838429D01*
X793046Y840217D01*
X792034Y841732D01*
X790518Y842745D01*
X788730Y843101D01*
D02*
G37*
G36*
X94681Y841060D02*
X92893Y840704D01*
X91378Y839691D01*
X90365Y838176D01*
X90009Y836388D01*
X90365Y834600D01*
X91378Y833085D01*
X92893Y832072D01*
X94681Y831716D01*
X96469Y832072D01*
X97985Y833085D01*
X98997Y834600D01*
X99353Y836388D01*
X98997Y838176D01*
X97985Y839691D01*
X96469Y840704D01*
X94681Y841060D01*
D02*
G37*
G36*
X149934Y839967D02*
X148146Y839611D01*
X146631Y838598D01*
X145618Y837083D01*
X145262Y835295D01*
X145618Y833507D01*
X146631Y831992D01*
X148146Y830979D01*
X149934Y830623D01*
X151722Y830979D01*
X153237Y831992D01*
X154250Y833507D01*
X154606Y835295D01*
X154250Y837083D01*
X153237Y838598D01*
X151722Y839611D01*
X149934Y839967D01*
D02*
G37*
G36*
X695028Y836234D02*
X693241Y835878D01*
X691725Y834865D01*
X690712Y833350D01*
X690357Y831562D01*
X690712Y829774D01*
X691725Y828259D01*
X693241Y827246D01*
X695028Y826890D01*
X696816Y827246D01*
X698332Y828259D01*
X699344Y829774D01*
X699700Y831562D01*
X699344Y833350D01*
X698332Y834865D01*
X696816Y835878D01*
X695028Y836234D01*
D02*
G37*
G36*
X830834Y834734D02*
X829050Y834379D01*
X827538Y833368D01*
X826527Y831856D01*
X826172Y830072D01*
X826527Y828288D01*
X827538Y826776D01*
X829050Y825765D01*
X830834Y825410D01*
X832618Y825765D01*
X834130Y826776D01*
X835141Y828288D01*
X835496Y830072D01*
X835141Y831856D01*
X834130Y833368D01*
X832618Y834379D01*
X830834Y834734D01*
D02*
G37*
G36*
X1037006Y850208D02*
X1009942D01*
Y823144D01*
X1037006D01*
Y850208D01*
D02*
G37*
G36*
X973474Y850325D02*
X969941Y849860D01*
X966650Y848496D01*
X963823Y846327D01*
X961654Y843500D01*
X960290Y840209D01*
X959825Y836676D01*
X960290Y833143D01*
X961654Y829852D01*
X963823Y827025D01*
X966650Y824856D01*
X969941Y823492D01*
X973474Y823027D01*
X977007Y823492D01*
X980298Y824856D01*
X983125Y827025D01*
X985294Y829852D01*
X986658Y833143D01*
X987123Y836676D01*
X986658Y840209D01*
X985294Y843500D01*
X983125Y846327D01*
X980298Y848496D01*
X977007Y849860D01*
X973474Y850325D01*
D02*
G37*
G36*
X132425Y831926D02*
X130637Y831570D01*
X129122Y830557D01*
X128109Y829042D01*
X127753Y827254D01*
X128109Y825466D01*
X129122Y823951D01*
X130637Y822938D01*
X132425Y822582D01*
X134213Y822938D01*
X135729Y823951D01*
X136741Y825466D01*
X137097Y827254D01*
X136741Y829042D01*
X135729Y830557D01*
X134213Y831570D01*
X132425Y831926D01*
D02*
G37*
G36*
X717348Y829447D02*
X715561Y829091D01*
X714045Y828078D01*
X713032Y826563D01*
X712677Y824775D01*
X713032Y822987D01*
X714045Y821471D01*
X715561Y820459D01*
X717348Y820103D01*
X719136Y820459D01*
X720652Y821471D01*
X721664Y822987D01*
X722020Y824775D01*
X721664Y826563D01*
X720652Y828078D01*
X719136Y829091D01*
X717348Y829447D01*
D02*
G37*
G36*
X772601Y828354D02*
X770814Y827998D01*
X769298Y826985D01*
X768285Y825470D01*
X767930Y823682D01*
X768285Y821894D01*
X769298Y820378D01*
X770814Y819366D01*
X772601Y819010D01*
X774389Y819366D01*
X775905Y820378D01*
X776917Y821894D01*
X777273Y823682D01*
X776917Y825470D01*
X775905Y826985D01*
X774389Y827998D01*
X772601Y828354D01*
D02*
G37*
G36*
X983996Y815936D02*
X982212Y815581D01*
X981221Y814918D01*
X980313Y814674D01*
X979405Y814918D01*
X978414Y815581D01*
X976630Y815936D01*
X974846Y815581D01*
X973334Y814570D01*
X972323Y813058D01*
X971968Y811274D01*
X972323Y809490D01*
X973334Y807978D01*
X972751Y806840D01*
X972323Y806200D01*
X971968Y804416D01*
X972323Y802632D01*
X973334Y801120D01*
X974846Y800109D01*
X976630Y799754D01*
X978414Y800109D01*
X979405Y800772D01*
X980313Y801016D01*
X981221Y800772D01*
X982212Y800109D01*
X983996Y799754D01*
X985780Y800109D01*
X987292Y801120D01*
X988303Y802632D01*
X988658Y804416D01*
X988303Y806200D01*
X987292Y807712D01*
X987875Y808850D01*
X988303Y809490D01*
X988658Y811274D01*
X988303Y813058D01*
X987292Y814570D01*
X985780Y815581D01*
X983996Y815936D01*
D02*
G37*
G36*
X755092Y820313D02*
X753305Y819957D01*
X751789Y818944D01*
X750776Y817429D01*
X750421Y815641D01*
X750776Y813853D01*
X751789Y812337D01*
X753305Y811325D01*
X755092Y810969D01*
X756880Y811325D01*
X758396Y812337D01*
X759408Y813853D01*
X759764Y815641D01*
X759408Y817429D01*
X758396Y818944D01*
X756880Y819957D01*
X755092Y820313D01*
D02*
G37*
G36*
X921258Y797904D02*
X919474Y797549D01*
X917962Y796538D01*
X916951Y795026D01*
X916596Y793242D01*
X916951Y791458D01*
X917962Y789946D01*
X919474Y788935D01*
X921258Y788580D01*
X923042Y788935D01*
X924554Y789946D01*
X925565Y791458D01*
X925920Y793242D01*
X925565Y795026D01*
X924554Y796538D01*
X923042Y797549D01*
X921258Y797904D01*
D02*
G37*
G36*
X203585Y795804D02*
X201801Y795449D01*
X200288Y794438D01*
X199278Y792926D01*
X198923Y791142D01*
X199278Y789358D01*
X200288Y787846D01*
X201801Y786835D01*
X203585Y786480D01*
X205368Y786835D01*
X206881Y787846D01*
X207891Y789358D01*
X208246Y791142D01*
X207891Y792926D01*
X206881Y794438D01*
X205368Y795449D01*
X203585Y795804D01*
D02*
G37*
G36*
X25372D02*
X23588Y795449D01*
X22075Y794438D01*
X21065Y792926D01*
X20710Y791142D01*
X21065Y789358D01*
X22075Y787846D01*
X23588Y786835D01*
X25372Y786480D01*
X27155Y786835D01*
X28668Y787846D01*
X29678Y789358D01*
X30033Y791142D01*
X29678Y792926D01*
X28668Y794438D01*
X27155Y795449D01*
X25372Y795804D01*
D02*
G37*
G36*
X578104Y793332D02*
X576320Y792977D01*
X574808Y791966D01*
X573797Y790454D01*
X573442Y788670D01*
X573797Y786886D01*
X574808Y785374D01*
X576320Y784363D01*
X578104Y784008D01*
X579888Y784363D01*
X581400Y785374D01*
X582411Y786886D01*
X582766Y788670D01*
X582411Y790454D01*
X581400Y791966D01*
X579888Y792977D01*
X578104Y793332D01*
D02*
G37*
G36*
X215646Y790649D02*
X213862Y790294D01*
X212350Y789283D01*
X211339Y787771D01*
X210984Y785987D01*
X211339Y784203D01*
X212350Y782691D01*
X213862Y781680D01*
X215646Y781326D01*
X217430Y781680D01*
X218942Y782691D01*
X219953Y784203D01*
X220308Y785987D01*
X219953Y787771D01*
X218942Y789283D01*
X217430Y790294D01*
X215646Y790649D01*
D02*
G37*
G36*
X90865Y790659D02*
X89077Y790303D01*
X87562Y789290D01*
X86549Y787775D01*
X86193Y785987D01*
X86549Y784199D01*
X87562Y782684D01*
X89077Y781671D01*
X90865Y781315D01*
X92653Y781671D01*
X94169Y782684D01*
X95181Y784199D01*
X95537Y785987D01*
X95181Y787775D01*
X94169Y789290D01*
X92653Y790303D01*
X90865Y790659D01*
D02*
G37*
G36*
X826252Y784191D02*
X824468Y783836D01*
X822956Y782825D01*
X821945Y781313D01*
X821590Y779529D01*
X821945Y777745D01*
X822956Y776233D01*
X824468Y775222D01*
X826252Y774867D01*
X828036Y775222D01*
X829548Y776233D01*
X830558Y777745D01*
X830913Y779529D01*
X830558Y781313D01*
X829548Y782825D01*
X828036Y783836D01*
X826252Y784191D01*
D02*
G37*
G36*
X648039D02*
X646255Y783836D01*
X644743Y782825D01*
X643732Y781313D01*
X643377Y779529D01*
X643732Y777745D01*
X644743Y776233D01*
X646255Y775222D01*
X648039Y774867D01*
X649823Y775222D01*
X651335Y776233D01*
X652346Y777745D01*
X652700Y779529D01*
X652346Y781313D01*
X651335Y782825D01*
X649823Y783836D01*
X648039Y784191D01*
D02*
G37*
G36*
X203585Y783104D02*
X201801Y782749D01*
X200288Y781738D01*
X199278Y780226D01*
X198923Y778442D01*
X199278Y776658D01*
X200288Y775146D01*
X201801Y774135D01*
X203585Y773781D01*
X205368Y774135D01*
X206881Y775146D01*
X207891Y776658D01*
X208246Y778442D01*
X207891Y780226D01*
X206881Y781738D01*
X205368Y782749D01*
X203585Y783104D01*
D02*
G37*
G36*
X836168Y779035D02*
X834384Y778681D01*
X832872Y777670D01*
X831861Y776158D01*
X831506Y774374D01*
X831861Y772590D01*
X832872Y771078D01*
X834384Y770067D01*
X836168Y769712D01*
X837952Y770067D01*
X839464Y771078D01*
X840475Y772590D01*
X840830Y774374D01*
X840475Y776158D01*
X839464Y777670D01*
X837952Y778681D01*
X836168Y779035D01*
D02*
G37*
G36*
X713532Y779046D02*
X711745Y778690D01*
X710229Y777677D01*
X709216Y776162D01*
X708861Y774374D01*
X709216Y772586D01*
X710229Y771070D01*
X711745Y770058D01*
X713532Y769702D01*
X715320Y770058D01*
X716836Y771070D01*
X717848Y772586D01*
X718204Y774374D01*
X717848Y776162D01*
X716836Y777677D01*
X715320Y778690D01*
X713532Y779046D01*
D02*
G37*
G36*
X109034Y778899D02*
X107246Y778543D01*
X105731Y777531D01*
X104718Y776015D01*
X104362Y774227D01*
X104718Y772439D01*
X105731Y770924D01*
X107246Y769911D01*
X109034Y769555D01*
X110822Y769911D01*
X112338Y770924D01*
X113350Y772439D01*
X113706Y774227D01*
X113350Y776015D01*
X112338Y777531D01*
X110822Y778543D01*
X109034Y778899D01*
D02*
G37*
G36*
X55447Y787136D02*
X53659Y786780D01*
X52144Y785768D01*
X51131Y784252D01*
X50775Y782464D01*
X51131Y780676D01*
X52144Y779161D01*
X53659Y778148D01*
X55447Y777792D01*
X57235Y778148D01*
X58431Y777651D01*
X59231Y776455D01*
X59871Y776027D01*
X59080Y774844D01*
X58724Y773056D01*
X59080Y771268D01*
X60093Y769753D01*
X61608Y768740D01*
X63396Y768384D01*
X65184Y768740D01*
X66649Y769719D01*
X66700Y769753D01*
X68132Y769611D01*
X68432Y769163D01*
X69947Y768150D01*
X71735Y767794D01*
X73523Y768150D01*
X75038Y769163D01*
X76051Y770678D01*
X76407Y772466D01*
X76051Y774254D01*
X75038Y775770D01*
X73523Y776782D01*
X71735Y777138D01*
X69947Y776782D01*
X68482Y775803D01*
X68432Y775770D01*
X66999Y775911D01*
X66700Y776359D01*
X66060Y776787D01*
X66850Y777970D01*
X67206Y779758D01*
X66850Y781546D01*
X65837Y783062D01*
X64322Y784074D01*
X62534Y784430D01*
X60746Y784074D01*
X59550Y784571D01*
X58751Y785768D01*
X57235Y786780D01*
X55447Y787136D01*
D02*
G37*
G36*
X584708Y773012D02*
X582924Y772657D01*
X581412Y771646D01*
X580401Y770134D01*
X580046Y768350D01*
X580401Y766566D01*
X581412Y765054D01*
X582924Y764043D01*
X584708Y763688D01*
X586492Y764043D01*
X588004Y765054D01*
X589015Y766566D01*
X589370Y768350D01*
X589015Y770134D01*
X588004Y771646D01*
X586492Y772657D01*
X584708Y773012D01*
D02*
G37*
G36*
X122335Y778972D02*
X120547Y778616D01*
X119032Y777604D01*
X118019Y776088D01*
X117663Y774300D01*
X118019Y772512D01*
X119032Y770997D01*
X120547Y769984D01*
X122335Y769628D01*
X122854Y769732D01*
D01*
D01*
X123522Y769063D01*
X123934Y768652D01*
X123874Y768352D01*
X124230Y766564D01*
X125243Y765049D01*
X126758Y764036D01*
X128546Y763680D01*
X130334Y764036D01*
X131849Y765049D01*
X132862Y766564D01*
X133218Y768352D01*
X132862Y770140D01*
X131849Y771656D01*
X130334Y772668D01*
X128546Y773024D01*
X128027Y772921D01*
X126947Y774001D01*
X127007Y774300D01*
X126651Y776088D01*
X125639Y777604D01*
X124123Y778616D01*
X122335Y778972D01*
D02*
G37*
G36*
X826252Y771490D02*
X824468Y771136D01*
X822956Y770125D01*
X821945Y768613D01*
X821590Y766829D01*
X821945Y765045D01*
X822956Y763533D01*
X824468Y762522D01*
X826252Y762167D01*
X828036Y762522D01*
X829548Y763533D01*
X830558Y765045D01*
X830913Y766829D01*
X830558Y768613D01*
X829548Y770125D01*
X828036Y771136D01*
X826252Y771490D01*
D02*
G37*
G36*
X141348Y770695D02*
X139560Y770339D01*
X138045Y769326D01*
X137032Y767811D01*
X136676Y766023D01*
X137032Y764235D01*
X138045Y762720D01*
X139560Y761707D01*
X141348Y761351D01*
X143136Y761707D01*
X144651Y762720D01*
X145664Y764235D01*
X146020Y766023D01*
X145664Y767811D01*
X144651Y769326D01*
X143136Y770339D01*
X141348Y770695D01*
D02*
G37*
G36*
X203585Y770404D02*
X201801Y770049D01*
X200288Y769038D01*
X199278Y767526D01*
X198923Y765742D01*
X199278Y763958D01*
X200288Y762446D01*
X201801Y761435D01*
X203585Y761080D01*
X205368Y761435D01*
X206881Y762446D01*
X207891Y763958D01*
X208246Y765742D01*
X207891Y767526D01*
X206881Y769038D01*
X205368Y770049D01*
X203585Y770404D01*
D02*
G37*
G36*
X25372Y770404D02*
X23588Y770049D01*
X22075Y769038D01*
X21065Y767526D01*
X20710Y765742D01*
X21065Y763958D01*
X22075Y762446D01*
X23588Y761435D01*
X25372Y761080D01*
X27155Y761435D01*
X28668Y762446D01*
X29678Y763958D01*
X30033Y765742D01*
X29678Y767526D01*
X28668Y769038D01*
X27155Y770049D01*
X25372Y770404D01*
D02*
G37*
G36*
X731701Y767286D02*
X729913Y766930D01*
X728398Y765917D01*
X727385Y764402D01*
X727030Y762614D01*
X727385Y760826D01*
X728398Y759311D01*
X729913Y758298D01*
X731701Y757942D01*
X733489Y758298D01*
X735005Y759311D01*
X736017Y760826D01*
X736373Y762614D01*
X736017Y764402D01*
X735005Y765917D01*
X733489Y766930D01*
X731701Y767286D01*
D02*
G37*
G36*
X678114Y775523D02*
X676327Y775167D01*
X674811Y774154D01*
X673798Y772639D01*
X673443Y770851D01*
X673798Y769063D01*
X674811Y767548D01*
X676327Y766535D01*
X678114Y766179D01*
X679902Y766535D01*
X681098Y766038D01*
X681898Y764842D01*
X682538Y764414D01*
X681747Y763231D01*
X681392Y761443D01*
X681747Y759655D01*
X682760Y758139D01*
X684276Y757127D01*
X686063Y756771D01*
X687851Y757127D01*
X689316Y758106D01*
X689367Y758139D01*
X690799Y757998D01*
X691099Y757550D01*
X692615Y756537D01*
X694402Y756181D01*
X696190Y756537D01*
X697706Y757550D01*
X698718Y759065D01*
X699074Y760853D01*
X698718Y762641D01*
X697706Y764156D01*
X696190Y765169D01*
X694402Y765525D01*
X692615Y765169D01*
X691150Y764190D01*
X691099Y764156D01*
X689666Y764298D01*
X689367Y764746D01*
X688727Y765174D01*
X689517Y766357D01*
X689873Y768145D01*
X689517Y769933D01*
X688505Y771448D01*
X686989Y772461D01*
X685201Y772817D01*
X683413Y772461D01*
X682217Y772958D01*
X681418Y774154D01*
X679902Y775167D01*
X678114Y775523D01*
D02*
G37*
G36*
X745002Y767359D02*
X743214Y767003D01*
X741699Y765990D01*
X740686Y764475D01*
X740331Y762687D01*
X740686Y760899D01*
X741699Y759383D01*
X743214Y758371D01*
X745002Y758015D01*
X745521Y758118D01*
X746601Y757038D01*
X746542Y756739D01*
X746897Y754951D01*
X747910Y753436D01*
X749426Y752423D01*
X751213Y752067D01*
X753001Y752423D01*
X754517Y753436D01*
X755529Y754951D01*
X755885Y756739D01*
X755529Y758527D01*
X754517Y760042D01*
X753001Y761055D01*
X751213Y761411D01*
X750695Y761308D01*
X749614Y762387D01*
X749674Y762687D01*
X749318Y764475D01*
X748306Y765990D01*
X746790Y767003D01*
X745002Y767359D01*
D02*
G37*
G36*
X764015Y759082D02*
X762227Y758726D01*
X760712Y757713D01*
X759699Y756198D01*
X759344Y754410D01*
X759699Y752622D01*
X760712Y751106D01*
X762227Y750094D01*
X764015Y749738D01*
X765803Y750094D01*
X767319Y751106D01*
X768331Y752622D01*
X768687Y754410D01*
X768331Y756198D01*
X767319Y757713D01*
X765803Y758726D01*
X764015Y759082D01*
D02*
G37*
G36*
X826252Y758791D02*
X824468Y758436D01*
X822956Y757425D01*
X821945Y755913D01*
X821590Y754129D01*
X821945Y752345D01*
X822956Y750833D01*
X824468Y749822D01*
X826252Y749467D01*
X828036Y749822D01*
X829548Y750833D01*
X830558Y752345D01*
X830913Y754129D01*
X830558Y755913D01*
X829548Y757425D01*
X828036Y758436D01*
X826252Y758791D01*
D02*
G37*
G36*
X648039Y758790D02*
X646255Y758436D01*
X644743Y757425D01*
X643732Y755913D01*
X643377Y754129D01*
X643732Y752345D01*
X644743Y750833D01*
X646255Y749822D01*
X648039Y749467D01*
X649823Y749822D01*
X651335Y750833D01*
X652346Y752345D01*
X652700Y754129D01*
X652346Y755913D01*
X651335Y757425D01*
X649823Y758436D01*
X648039Y758790D01*
D02*
G37*
G36*
X203585Y757704D02*
X201801Y757349D01*
X200288Y756338D01*
X199278Y754826D01*
X198923Y753042D01*
X199278Y751258D01*
X200288Y749746D01*
X201801Y748735D01*
X203585Y748381D01*
X205368Y748735D01*
X206881Y749746D01*
X207891Y751258D01*
X208246Y753042D01*
X207891Y754826D01*
X206881Y756338D01*
X205368Y757349D01*
X203585Y757704D01*
D02*
G37*
G36*
X605790Y767194D02*
X603262Y766861D01*
X600907Y765885D01*
X598885Y764333D01*
X597333Y762311D01*
X596357Y759956D01*
X596025Y757428D01*
X596357Y754901D01*
X597333Y752545D01*
X598885Y750523D01*
X600907Y748971D01*
X603262Y747995D01*
X605790Y747663D01*
X608317Y747995D01*
X610673Y748971D01*
X612695Y750523D01*
X614247Y752545D01*
X615223Y754901D01*
X615555Y757428D01*
X615223Y759956D01*
X614247Y762311D01*
X612695Y764333D01*
X610673Y765885D01*
X608317Y766861D01*
X605790Y767194D01*
D02*
G37*
G36*
X1036982Y764940D02*
X1009918D01*
Y737876D01*
X1036982D01*
Y764940D01*
D02*
G37*
G36*
X973450Y765057D02*
X969917Y764592D01*
X966626Y763228D01*
X963799Y761059D01*
X961630Y758232D01*
X960266Y754941D01*
X959801Y751408D01*
X960266Y747875D01*
X961630Y744584D01*
X963799Y741757D01*
X966626Y739588D01*
X969917Y738224D01*
X973450Y737759D01*
X976982Y738224D01*
X980274Y739588D01*
X983101Y741757D01*
X985270Y744584D01*
X986634Y747875D01*
X987099Y751408D01*
X986634Y754941D01*
X985270Y758232D01*
X983101Y761059D01*
X980274Y763228D01*
X976982Y764592D01*
X973450Y765057D01*
D02*
G37*
G36*
X826252Y746090D02*
X824468Y745736D01*
X822956Y744725D01*
X821945Y743213D01*
X821590Y741429D01*
X821945Y739645D01*
X822956Y738133D01*
X824468Y737122D01*
X826252Y736767D01*
X828036Y737122D01*
X829548Y738133D01*
X830558Y739645D01*
X830913Y741429D01*
X830558Y743213D01*
X829548Y744725D01*
X828036Y745736D01*
X826252Y746090D01*
D02*
G37*
G36*
X920370Y745950D02*
X918586Y745595D01*
X917074Y744584D01*
X916063Y743072D01*
X915708Y741288D01*
X916063Y739504D01*
X917074Y737992D01*
X918586Y736981D01*
X920370Y736626D01*
X922154Y736981D01*
X923666Y737992D01*
X924677Y739504D01*
X925032Y741288D01*
X924677Y743072D01*
X923666Y744584D01*
X922154Y745595D01*
X920370Y745950D01*
D02*
G37*
G36*
X203585Y745004D02*
X201801Y744649D01*
X200288Y743638D01*
X199278Y742126D01*
X198923Y740342D01*
X199278Y738558D01*
X200288Y737046D01*
X201801Y736035D01*
X203585Y735680D01*
X205368Y736035D01*
X206881Y737046D01*
X207891Y738558D01*
X208246Y740342D01*
X207891Y742126D01*
X206881Y743638D01*
X205368Y744649D01*
X203585Y745004D01*
D02*
G37*
G36*
X983972Y730668D02*
X982188Y730313D01*
X981197Y729650D01*
X980289Y729406D01*
X979381Y729650D01*
X978390Y730313D01*
X976606Y730668D01*
X974822Y730313D01*
X973310Y729302D01*
X972299Y727790D01*
X971944Y726006D01*
X972299Y724222D01*
X973310Y722710D01*
X972727Y721572D01*
X972299Y720932D01*
X971944Y719148D01*
X972299Y717364D01*
X973310Y715852D01*
X974822Y714841D01*
X976606Y714486D01*
X978390Y714841D01*
X979381Y715504D01*
X980289Y715748D01*
X981197Y715504D01*
X982188Y714841D01*
X983972Y714486D01*
X985756Y714841D01*
X987268Y715852D01*
X988279Y717364D01*
X988633Y719148D01*
X988279Y720932D01*
X987268Y722444D01*
X987851Y723582D01*
X988279Y724222D01*
X988633Y726006D01*
X988279Y727790D01*
X987268Y729302D01*
X985756Y730313D01*
X983972Y730668D01*
D02*
G37*
G36*
X359156Y736182D02*
X357372Y735827D01*
X355860Y734816D01*
X354849Y733304D01*
X354494Y731520D01*
X354849Y729736D01*
X355860Y728224D01*
X357372Y727213D01*
X359156Y726858D01*
X360940Y727213D01*
X362452Y728224D01*
X363463Y729736D01*
X363818Y731520D01*
X363463Y733304D01*
X362452Y734816D01*
X360940Y735827D01*
X359156Y736182D01*
D02*
G37*
G36*
X826252Y733391D02*
X824468Y733036D01*
X822956Y732025D01*
X821945Y730513D01*
X821590Y728729D01*
X821945Y726945D01*
X822956Y725433D01*
X824468Y724422D01*
X826252Y724067D01*
X828036Y724422D01*
X829548Y725433D01*
X830558Y726945D01*
X830913Y728729D01*
X830558Y730513D01*
X829548Y732025D01*
X828036Y733036D01*
X826252Y733391D01*
D02*
G37*
G36*
X25372Y732304D02*
X23588Y731949D01*
X22075Y730938D01*
X21065Y729426D01*
X20710Y727642D01*
X21065Y725858D01*
X22075Y724346D01*
X23588Y723335D01*
X25372Y722980D01*
X27155Y723335D01*
X28668Y724346D01*
X29678Y725858D01*
X30033Y727642D01*
X29678Y729426D01*
X28668Y730938D01*
X27155Y731949D01*
X25372Y732304D01*
D02*
G37*
G36*
X605790Y741794D02*
X603262Y741461D01*
X600907Y740485D01*
X598885Y738933D01*
X597333Y736911D01*
X596357Y734556D01*
X596025Y732028D01*
X596357Y729501D01*
X597333Y727145D01*
X598885Y725123D01*
X600907Y723571D01*
X603262Y722595D01*
X605790Y722262D01*
X608317Y722595D01*
X610673Y723571D01*
X612695Y725123D01*
X614247Y727145D01*
X615223Y729501D01*
X615555Y732028D01*
X615223Y734556D01*
X614247Y736911D01*
X612695Y738933D01*
X610673Y740485D01*
X608317Y741461D01*
X605790Y741794D01*
D02*
G37*
G36*
X648039Y720691D02*
X646255Y720336D01*
X644743Y719325D01*
X643732Y717813D01*
X643377Y716029D01*
X643732Y714245D01*
X644743Y712733D01*
X646255Y711722D01*
X648039Y711367D01*
X649823Y711722D01*
X651335Y712733D01*
X652346Y714245D01*
X652700Y716029D01*
X652346Y717813D01*
X651335Y719325D01*
X649823Y720336D01*
X648039Y720691D01*
D02*
G37*
G36*
X25372Y719604D02*
X23588Y719249D01*
X22075Y718238D01*
X21065Y716726D01*
X20710Y714942D01*
X21065Y713158D01*
X22075Y711646D01*
X23588Y710635D01*
X25372Y710281D01*
X27155Y710635D01*
X28668Y711646D01*
X29678Y713158D01*
X30033Y714942D01*
X29678Y716726D01*
X28668Y718238D01*
X27155Y719249D01*
X25372Y719604D01*
D02*
G37*
G36*
X203579Y719598D02*
X201795Y719243D01*
X200282Y718232D01*
X199272Y716720D01*
X198917Y714936D01*
X199272Y713152D01*
X200282Y711640D01*
X201795Y710629D01*
X203579Y710275D01*
X205362Y710629D01*
X206875Y711640D01*
X207885Y713152D01*
X208240Y714936D01*
X207885Y716720D01*
X206875Y718232D01*
X205362Y719243D01*
X203579Y719598D01*
D02*
G37*
G36*
X142113Y725255D02*
X140325Y724899D01*
X138810Y723886D01*
X137797Y722371D01*
X137441Y720583D01*
X137712Y719224D01*
X136626Y719008D01*
X135111Y717996D01*
X134098Y716480D01*
X133742Y714692D01*
X134098Y712904D01*
X135111Y711389D01*
X136626Y710376D01*
X138414Y710020D01*
X140202Y710376D01*
X141718Y711389D01*
X142730Y712904D01*
X143086Y714692D01*
X142816Y716051D01*
X143901Y716267D01*
X145416Y717280D01*
X146429Y718795D01*
X146785Y720583D01*
X146429Y722371D01*
X145416Y723886D01*
X143901Y724899D01*
X142113Y725255D01*
D02*
G37*
G36*
X129118Y711574D02*
X127330Y711218D01*
X125815Y710206D01*
X124802Y708690D01*
X124446Y706902D01*
X124802Y705114D01*
X125815Y703599D01*
X127330Y702586D01*
X129118Y702230D01*
X130906Y702586D01*
X132422Y703599D01*
X133434Y705114D01*
X133790Y706902D01*
X133434Y708690D01*
X132422Y710206D01*
X130906Y711218D01*
X129118Y711574D01*
D02*
G37*
G36*
X984212Y703270D02*
X982428Y702915D01*
X981437Y702252D01*
X980529Y702008D01*
X979621Y702252D01*
X978630Y702915D01*
X976846Y703270D01*
X975062Y702915D01*
X973550Y701904D01*
X972539Y700392D01*
X972184Y698608D01*
X972539Y696824D01*
X973550Y695312D01*
X972967Y694174D01*
X972539Y693534D01*
X972184Y691750D01*
X972539Y689966D01*
X973550Y688454D01*
X975062Y687443D01*
X976846Y687088D01*
X978630Y687443D01*
X979621Y688106D01*
X980529Y688350D01*
X981437Y688106D01*
X982428Y687443D01*
X984212Y687088D01*
X985996Y687443D01*
X987508Y688454D01*
X988519Y689966D01*
X988874Y691750D01*
X988519Y693534D01*
X987508Y695046D01*
X988091Y696184D01*
X988519Y696824D01*
X988874Y698608D01*
X988519Y700392D01*
X987508Y701904D01*
X985996Y702915D01*
X984212Y703270D01*
D02*
G37*
G36*
X648039Y707990D02*
X646255Y707636D01*
X644743Y706625D01*
X643732Y705113D01*
X643377Y703329D01*
X643732Y701545D01*
X644743Y700033D01*
X646255Y699022D01*
X648039Y698667D01*
X649823Y699022D01*
X651335Y700033D01*
X652346Y701545D01*
X652700Y703329D01*
X652346Y705113D01*
X651335Y706625D01*
X649823Y707636D01*
X648039Y707990D01*
D02*
G37*
G36*
X826246Y707984D02*
X824462Y707630D01*
X822950Y706619D01*
X821939Y705107D01*
X821584Y703323D01*
X821939Y701539D01*
X822950Y700027D01*
X824462Y699016D01*
X826246Y698661D01*
X828030Y699016D01*
X829542Y700027D01*
X830553Y701539D01*
X830907Y703323D01*
X830553Y705107D01*
X829542Y706619D01*
X828030Y707630D01*
X826246Y707984D01*
D02*
G37*
G36*
X150470Y707843D02*
X148682Y707487D01*
X147167Y706475D01*
X146154Y704959D01*
X145798Y703171D01*
X146154Y701383D01*
X147167Y699868D01*
X148682Y698855D01*
X150470Y698499D01*
X152258Y698855D01*
X153773Y699868D01*
X154786Y701383D01*
X155142Y703171D01*
X154786Y704959D01*
X153773Y706475D01*
X152258Y707487D01*
X150470Y707843D01*
D02*
G37*
G36*
X764780Y713642D02*
X762992Y713286D01*
X761477Y712273D01*
X760464Y710758D01*
X760108Y708970D01*
X760379Y707611D01*
X759294Y707395D01*
X757778Y706382D01*
X756765Y704867D01*
X756410Y703079D01*
X756765Y701291D01*
X757778Y699775D01*
X759294Y698763D01*
X761081Y698407D01*
X762869Y698763D01*
X764385Y699775D01*
X765397Y701291D01*
X765753Y703079D01*
X765483Y704438D01*
X766568Y704654D01*
X768084Y705667D01*
X769096Y707182D01*
X769452Y708970D01*
X769096Y710758D01*
X768084Y712273D01*
X766568Y713286D01*
X764780Y713642D01*
D02*
G37*
G36*
X162757Y707347D02*
X160969Y706991D01*
X159454Y705978D01*
X158441Y704463D01*
X158085Y702675D01*
X158441Y700887D01*
X159454Y699372D01*
X160969Y698359D01*
X162757Y698003D01*
X164545Y698359D01*
X166061Y699372D01*
X167073Y700887D01*
X167429Y702675D01*
X167073Y704463D01*
X166061Y705978D01*
X164545Y706991D01*
X162757Y707347D01*
D02*
G37*
G36*
X203584Y706904D02*
X201801Y706549D01*
X200288Y705538D01*
X199278Y704026D01*
X198923Y702242D01*
X199278Y700458D01*
X200288Y698946D01*
X201801Y697935D01*
X203584Y697580D01*
X205368Y697935D01*
X206881Y698946D01*
X207891Y700458D01*
X208246Y702242D01*
X207891Y704026D01*
X206881Y705538D01*
X205368Y706549D01*
X203584Y706904D01*
D02*
G37*
G36*
X25372D02*
X23588Y706549D01*
X22075Y705538D01*
X21065Y704026D01*
X20710Y702242D01*
X21065Y700458D01*
X22075Y698946D01*
X23588Y697935D01*
X25372Y697580D01*
X27155Y697935D01*
X28668Y698946D01*
X29678Y700458D01*
X30033Y702242D01*
X29678Y704026D01*
X28668Y705538D01*
X27155Y706549D01*
X25372Y706904D01*
D02*
G37*
G36*
X605790Y716394D02*
X603262Y716061D01*
X600907Y715085D01*
X598885Y713533D01*
X597333Y711511D01*
X596357Y709156D01*
X596025Y706628D01*
X596357Y704100D01*
X597333Y701745D01*
X598885Y699723D01*
X600907Y698171D01*
X603262Y697195D01*
X605790Y696862D01*
X608317Y697195D01*
X610673Y698171D01*
X612695Y699723D01*
X614247Y701745D01*
X615223Y704100D01*
X615555Y706628D01*
X615223Y709156D01*
X614247Y711511D01*
X612695Y713533D01*
X610673Y715085D01*
X608317Y716061D01*
X605790Y716394D01*
D02*
G37*
G36*
X73450Y704667D02*
X71662Y704311D01*
X70147Y703298D01*
X69134Y701783D01*
X68778Y699995D01*
X69134Y698207D01*
X70147Y696692D01*
X71662Y695679D01*
X73450Y695323D01*
X75238Y695679D01*
X76276Y696372D01*
X76830Y696651D01*
X77877Y696087D01*
X78345Y695388D01*
X79860Y694375D01*
X81648Y694019D01*
X83436Y694375D01*
X84951Y695388D01*
X85964Y696903D01*
X86320Y698691D01*
X85964Y700479D01*
X84951Y701994D01*
X83436Y703007D01*
X81648Y703363D01*
X79860Y703007D01*
X78823Y702314D01*
X78269Y702035D01*
X77221Y702599D01*
X76754Y703298D01*
X75238Y704311D01*
X73450Y704667D01*
D02*
G37*
G36*
X140551Y701187D02*
X138763Y700831D01*
X137248Y699818D01*
X136235Y698303D01*
X135879Y696515D01*
X136235Y694727D01*
X137248Y693212D01*
X138763Y692199D01*
X140551Y691843D01*
X142339Y692199D01*
X143855Y693212D01*
X144867Y694727D01*
X145223Y696515D01*
X144867Y698303D01*
X143855Y699818D01*
X142339Y700831D01*
X140551Y701187D01*
D02*
G37*
G36*
X751785Y699961D02*
X749997Y699605D01*
X748482Y698592D01*
X747469Y697077D01*
X747113Y695289D01*
X747469Y693501D01*
X748482Y691985D01*
X749997Y690973D01*
X751785Y690617D01*
X753573Y690973D01*
X755089Y691985D01*
X756101Y693501D01*
X756457Y695289D01*
X756101Y697077D01*
X755089Y698592D01*
X753573Y699605D01*
X751785Y699961D01*
D02*
G37*
G36*
X773137Y696230D02*
X771349Y695874D01*
X769834Y694861D01*
X768821Y693346D01*
X768466Y691558D01*
X768821Y689770D01*
X769834Y688254D01*
X771349Y687242D01*
X773137Y686886D01*
X774925Y687242D01*
X776441Y688254D01*
X777453Y689770D01*
X777809Y691558D01*
X777453Y693346D01*
X776441Y694861D01*
X774925Y695874D01*
X773137Y696230D01*
D02*
G37*
G36*
X245942Y696107D02*
X244158Y695752D01*
X242646Y694741D01*
X241635Y693229D01*
X241280Y691445D01*
X241635Y689661D01*
X242646Y688149D01*
X244158Y687138D01*
X245942Y686784D01*
X247726Y687138D01*
X249238Y688149D01*
X250249Y689661D01*
X250604Y691445D01*
X250249Y693229D01*
X249238Y694741D01*
X247726Y695752D01*
X245942Y696107D01*
D02*
G37*
G36*
X785424Y695734D02*
X783636Y695378D01*
X782121Y694365D01*
X781108Y692850D01*
X780753Y691062D01*
X781108Y689274D01*
X782121Y687758D01*
X783636Y686746D01*
X785424Y686390D01*
X787212Y686746D01*
X788728Y687758D01*
X789740Y689274D01*
X790096Y691062D01*
X789740Y692850D01*
X788728Y694365D01*
X787212Y695378D01*
X785424Y695734D01*
D02*
G37*
G36*
X826252Y695291D02*
X824468Y694936D01*
X822955Y693925D01*
X821945Y692413D01*
X821590Y690629D01*
X821945Y688845D01*
X822955Y687333D01*
X824468Y686322D01*
X826252Y685967D01*
X828036Y686322D01*
X829548Y687333D01*
X830558Y688845D01*
X830913Y690629D01*
X830558Y692413D01*
X829548Y693925D01*
X828036Y694936D01*
X826252Y695291D01*
D02*
G37*
G36*
X648039D02*
X646255Y694936D01*
X644743Y693925D01*
X643732Y692413D01*
X643377Y690629D01*
X643732Y688845D01*
X644743Y687333D01*
X646255Y686322D01*
X648039Y685967D01*
X649823Y686322D01*
X651335Y687333D01*
X652346Y688845D01*
X652700Y690629D01*
X652346Y692413D01*
X651335Y693925D01*
X649823Y694936D01*
X648039Y695291D01*
D02*
G37*
G36*
X190508Y698224D02*
X182268D01*
X181183Y698008D01*
X180263Y697393D01*
X166155Y683286D01*
X148393D01*
X148082Y683753D01*
X146566Y684765D01*
X144801Y685116D01*
X144895Y685587D01*
X144539Y687375D01*
X143526Y688891D01*
X142011Y689903D01*
X140223Y690259D01*
X138435Y689903D01*
X136920Y688891D01*
X135907Y687375D01*
X135551Y685587D01*
X135907Y683799D01*
X136920Y682284D01*
X138435Y681271D01*
X140200Y680920D01*
X140106Y680449D01*
X140462Y678661D01*
X141475Y677146D01*
X142990Y676133D01*
X144778Y675777D01*
X146566Y676133D01*
X148082Y677146D01*
X148393Y677613D01*
X167330D01*
X168415Y677829D01*
X169336Y678443D01*
X183443Y692551D01*
X189333D01*
X194347Y687536D01*
X194348Y687536D01*
X195268Y686921D01*
X196353Y686705D01*
X196353Y686706D01*
X199981D01*
X200288Y686246D01*
X201801Y685235D01*
X203584Y684881D01*
X205368Y685235D01*
X206881Y686246D01*
X207891Y687758D01*
X208246Y689542D01*
X207891Y691326D01*
X206881Y692838D01*
X205368Y693849D01*
X203584Y694204D01*
X201801Y693849D01*
X200288Y692838D01*
X199981Y692378D01*
X197528D01*
X193305Y696602D01*
D01*
X192513Y697393D01*
X191593Y698008D01*
X190508Y698224D01*
D02*
G37*
G36*
X696117Y693054D02*
X694330Y692698D01*
X692814Y691685D01*
X691801Y690170D01*
X691446Y688382D01*
X691801Y686594D01*
X692814Y685079D01*
X694330Y684066D01*
X696117Y683710D01*
X697905Y684066D01*
X698943Y684759D01*
X699497Y685038D01*
X700544Y684474D01*
X701012Y683774D01*
X702527Y682762D01*
X704315Y682406D01*
X706103Y682762D01*
X707619Y683774D01*
X708631Y685290D01*
X708987Y687078D01*
X708631Y688866D01*
X707619Y690381D01*
X706103Y691394D01*
X704315Y691750D01*
X702527Y691394D01*
X701490Y690701D01*
X700936Y690422D01*
X699888Y690986D01*
X699421Y691685D01*
X697905Y692698D01*
X696117Y693054D01*
D02*
G37*
G36*
X763218Y689574D02*
X761431Y689218D01*
X759915Y688205D01*
X758902Y686690D01*
X758547Y684902D01*
X758902Y683114D01*
X759915Y681599D01*
X761431Y680586D01*
X763218Y680230D01*
X765006Y680586D01*
X766522Y681599D01*
X767534Y683114D01*
X767890Y684902D01*
X767534Y686690D01*
X766522Y688205D01*
X765006Y689218D01*
X763218Y689574D01*
D02*
G37*
G36*
X228854Y689192D02*
X227070Y688837D01*
X225558Y687826D01*
X224547Y686314D01*
X224192Y684530D01*
X224547Y682746D01*
X225558Y681234D01*
X227070Y680223D01*
X228854Y679868D01*
X230638Y680223D01*
X232150Y681234D01*
X233161Y682746D01*
X233516Y684530D01*
X233161Y686314D01*
X232150Y687826D01*
X230638Y688837D01*
X228854Y689192D01*
D02*
G37*
G36*
X54175Y688828D02*
X52387Y688472D01*
X50872Y687459D01*
X49859Y685944D01*
X49503Y684156D01*
X49859Y682368D01*
X50872Y680853D01*
X52387Y679840D01*
X54175Y679484D01*
X55963Y679840D01*
X57478Y680853D01*
X58491Y682368D01*
X58847Y684156D01*
X58491Y685944D01*
X57478Y687459D01*
X55963Y688472D01*
X54175Y688828D01*
D02*
G37*
G36*
X813175Y686611D02*
X804936D01*
X803850Y686395D01*
X802930Y685780D01*
X788822Y671672D01*
X771061D01*
X770749Y672139D01*
X769233Y673152D01*
X767468Y673503D01*
X767562Y673974D01*
X767206Y675762D01*
X766194Y677277D01*
X764678Y678290D01*
X762890Y678646D01*
X761103Y678290D01*
X759587Y677277D01*
X758574Y675762D01*
X758219Y673974D01*
X758574Y672186D01*
X759587Y670670D01*
X761103Y669658D01*
X762867Y669307D01*
X762774Y668836D01*
X763129Y667048D01*
X764142Y665533D01*
X765658Y664520D01*
X767445Y664164D01*
X769233Y664520D01*
X770749Y665533D01*
X771061Y665999D01*
X789997D01*
X791083Y666215D01*
X792003Y666830D01*
X806111Y680938D01*
X812000D01*
X817015Y675923D01*
X817015Y675923D01*
X817935Y675308D01*
X819020Y675092D01*
X819021Y675092D01*
X822648D01*
X822955Y674633D01*
X824468Y673622D01*
X826252Y673267D01*
X828036Y673622D01*
X829548Y674633D01*
X830558Y676145D01*
X830913Y677929D01*
X830558Y679713D01*
X829548Y681225D01*
X828036Y682236D01*
X826252Y682591D01*
X824468Y682236D01*
X822955Y681225D01*
X822648Y680765D01*
X820195D01*
X815972Y684989D01*
X815181Y685780D01*
X814260Y686395D01*
X813175Y686611D01*
D02*
G37*
G36*
X676842Y677215D02*
X675054Y676859D01*
X673539Y675846D01*
X672526Y674331D01*
X672171Y672543D01*
X672526Y670755D01*
X673539Y669240D01*
X675054Y668227D01*
X676842Y667871D01*
X678630Y668227D01*
X680146Y669240D01*
X681158Y670755D01*
X681514Y672543D01*
X681158Y674331D01*
X680146Y675846D01*
X678630Y676859D01*
X676842Y677215D01*
D02*
G37*
G36*
X1036752Y679774D02*
X1009688D01*
Y652710D01*
X1036752D01*
Y679774D01*
D02*
G37*
G36*
X973220Y679891D02*
X969687Y679426D01*
X966396Y678062D01*
X963569Y675893D01*
X961400Y673066D01*
X960036Y669775D01*
X959571Y666242D01*
X960036Y662709D01*
X961400Y659418D01*
X963569Y656591D01*
X966396Y654422D01*
X969687Y653058D01*
X973220Y652593D01*
X976753Y653058D01*
X980044Y654422D01*
X982871Y656591D01*
X985040Y659418D01*
X986404Y662709D01*
X986869Y666242D01*
X986404Y669775D01*
X985040Y673066D01*
X982871Y675893D01*
X980044Y678062D01*
X976753Y679426D01*
X973220Y679891D01*
D02*
G37*
G36*
X59878Y658211D02*
X58094Y657856D01*
X56582Y656846D01*
X55571Y655333D01*
X55216Y653550D01*
X55571Y651766D01*
X56582Y650253D01*
X58094Y649243D01*
X59878Y648888D01*
X61662Y649243D01*
X63174Y650253D01*
X64185Y651766D01*
X64540Y653550D01*
X64185Y655333D01*
X63174Y656846D01*
X61662Y657856D01*
X59878Y658211D01*
D02*
G37*
G36*
X110678Y658211D02*
X108894Y657856D01*
X107382Y656846D01*
X106371Y655333D01*
X106017Y653549D01*
X106371Y651766D01*
X107382Y650253D01*
X108894Y649243D01*
X110678Y648888D01*
X112462Y649243D01*
X113974Y650253D01*
X114985Y651766D01*
X115340Y653549D01*
X114985Y655333D01*
X113974Y656846D01*
X112462Y657856D01*
X110678Y658211D01*
D02*
G37*
G36*
X605790Y665593D02*
X603262Y665261D01*
X600907Y664285D01*
X598885Y662733D01*
X597333Y660711D01*
X596357Y658355D01*
X596025Y655828D01*
X596357Y653300D01*
X597333Y650945D01*
X598885Y648923D01*
X600907Y647371D01*
X603262Y646395D01*
X605790Y646062D01*
X608317Y646395D01*
X610673Y647371D01*
X612695Y648923D01*
X614247Y650945D01*
X615223Y653300D01*
X615555Y655828D01*
X615223Y658355D01*
X614247Y660711D01*
X612695Y662733D01*
X610673Y664285D01*
X608317Y665261D01*
X605790Y665593D01*
D02*
G37*
G36*
X907796Y651854D02*
X906012Y651499D01*
X904500Y650488D01*
X903489Y648976D01*
X903134Y647192D01*
X903489Y645408D01*
X904500Y643896D01*
X906012Y642885D01*
X907796Y642530D01*
X909580Y642885D01*
X911092Y643896D01*
X912103Y645408D01*
X912458Y647192D01*
X912103Y648976D01*
X911092Y650488D01*
X909580Y651499D01*
X907796Y651854D01*
D02*
G37*
G36*
X682545Y646598D02*
X680761Y646243D01*
X679249Y645233D01*
X678239Y643720D01*
X677884Y641936D01*
X678239Y640153D01*
X679249Y638640D01*
X680761Y637630D01*
X682545Y637275D01*
X684329Y637630D01*
X685842Y638640D01*
X686852Y640153D01*
X687207Y641936D01*
X686852Y643720D01*
X685842Y645233D01*
X684329Y646243D01*
X682545Y646598D01*
D02*
G37*
G36*
X733345Y646598D02*
X731561Y646243D01*
X730049Y645233D01*
X729038Y643720D01*
X728684Y641936D01*
X729038Y640153D01*
X730049Y638640D01*
X731561Y637630D01*
X733345Y637275D01*
X735129Y637630D01*
X736641Y638640D01*
X737652Y640153D01*
X738007Y641936D01*
X737652Y643720D01*
X736641Y645233D01*
X735129Y646243D01*
X733345Y646598D01*
D02*
G37*
G36*
X828548Y646544D02*
X826764Y646189D01*
X825252Y645178D01*
X824241Y643666D01*
X823886Y641882D01*
X824241Y640098D01*
X825252Y638586D01*
X826764Y637575D01*
X828548Y637220D01*
X830332Y637575D01*
X831844Y638586D01*
X832855Y640098D01*
X833210Y641882D01*
X832855Y643666D01*
X831844Y645178D01*
X830332Y646189D01*
X828548Y646544D01*
D02*
G37*
G36*
X297434Y638646D02*
X295650Y638291D01*
X294138Y637280D01*
X293127Y635768D01*
X292772Y633984D01*
X293127Y632200D01*
X294138Y630688D01*
X295650Y629677D01*
X297434Y629322D01*
X299218Y629677D01*
X300730Y630688D01*
X301741Y632200D01*
X302096Y633984D01*
X301741Y635768D01*
X300730Y637280D01*
X299218Y638291D01*
X297434Y638646D01*
D02*
G37*
G36*
X200660Y636868D02*
X198876Y636513D01*
X197364Y635502D01*
X196353Y633990D01*
X195998Y632206D01*
X196353Y630422D01*
X197364Y628910D01*
X198876Y627899D01*
X200660Y627544D01*
X202444Y627899D01*
X203956Y628910D01*
X204967Y630422D01*
X205322Y632206D01*
X204967Y633990D01*
X203956Y635502D01*
X202444Y636513D01*
X200660Y636868D01*
D02*
G37*
G36*
X186944D02*
X185160Y636513D01*
X183648Y635502D01*
X182637Y633990D01*
X182282Y632206D01*
X182637Y630422D01*
X183648Y628910D01*
X185160Y627899D01*
X186944Y627544D01*
X188728Y627899D01*
X190240Y628910D01*
X191251Y630422D01*
X191606Y632206D01*
X191251Y633990D01*
X190240Y635502D01*
X188728Y636513D01*
X186944Y636868D01*
D02*
G37*
G36*
X828548Y635090D02*
X826764Y634735D01*
X825252Y633724D01*
X824241Y632212D01*
X823886Y630428D01*
X824241Y628644D01*
X825252Y627132D01*
X826764Y626121D01*
X828548Y625766D01*
X830332Y626121D01*
X831844Y627132D01*
X832855Y628644D01*
X833210Y630428D01*
X832855Y632212D01*
X831844Y633724D01*
X830332Y634735D01*
X828548Y635090D01*
D02*
G37*
G36*
X288495Y630264D02*
X286711Y629909D01*
X285199Y628898D01*
X284188Y627386D01*
X283834Y625602D01*
X284188Y623818D01*
X285199Y622306D01*
X286711Y621295D01*
X288495Y620940D01*
X290279Y621295D01*
X291791Y622306D01*
X292802Y623818D01*
X293157Y625602D01*
X292802Y627386D01*
X291791Y628898D01*
X290279Y629909D01*
X288495Y630264D01*
D02*
G37*
G36*
X861060Y621628D02*
X859276Y621273D01*
X857764Y620262D01*
X856753Y618750D01*
X856398Y616966D01*
X856686Y615518D01*
X856077Y614668D01*
X855741Y614412D01*
X855218Y614516D01*
X853434Y614161D01*
X851922Y613150D01*
X850911Y611638D01*
X850556Y609854D01*
X850676Y609252D01*
X849630Y608166D01*
X847846Y607811D01*
X846334Y606800D01*
X845323Y605288D01*
X844968Y603504D01*
X845323Y601720D01*
X846334Y600208D01*
X847846Y599197D01*
X849630Y598842D01*
X851414Y599197D01*
X852926Y600208D01*
X853937Y601720D01*
X854292Y603504D01*
X854172Y604106D01*
X855218Y605192D01*
X857002Y605547D01*
X858514Y606558D01*
X859525Y608070D01*
X859880Y609854D01*
X859592Y611302D01*
X860201Y612152D01*
X860537Y612408D01*
X861060Y612304D01*
X862844Y612659D01*
X864356Y613670D01*
X865367Y615182D01*
X865722Y616966D01*
X865367Y618750D01*
X864356Y620262D01*
X862844Y621273D01*
X861060Y621628D01*
D02*
G37*
G36*
X306324Y623660D02*
X304540Y623305D01*
X303028Y622294D01*
X302017Y620782D01*
X301662Y618998D01*
X302017Y617214D01*
X303028Y615702D01*
X304540Y614691D01*
X306324Y614336D01*
X308108Y614691D01*
X309620Y615702D01*
X310631Y617214D01*
X310986Y618998D01*
X310631Y620782D01*
X309620Y622294D01*
X308108Y623305D01*
X306324Y623660D01*
D02*
G37*
G36*
X900430Y621628D02*
X898646Y621273D01*
X897134Y620262D01*
X896123Y618750D01*
X895768Y616966D01*
X896123Y615182D01*
X897134Y613670D01*
X898646Y612659D01*
X900430Y612304D01*
X902214Y612659D01*
X903726Y613670D01*
X904737Y615182D01*
X905092Y616966D01*
X904737Y618750D01*
X903726Y620262D01*
X902214Y621273D01*
X900430Y621628D01*
D02*
G37*
G36*
X26670Y617564D02*
X24886Y617209D01*
X23374Y616198D01*
X22363Y614686D01*
X22008Y612902D01*
X22363Y611118D01*
X23374Y609606D01*
X24886Y608595D01*
X26670Y608240D01*
X28454Y608595D01*
X29966Y609606D01*
X30977Y611118D01*
X31332Y612902D01*
X30977Y614686D01*
X29966Y616198D01*
X28454Y617209D01*
X26670Y617564D01*
D02*
G37*
G36*
X916432Y614516D02*
X914648Y614161D01*
X913136Y613150D01*
X912125Y611638D01*
X911770Y609854D01*
X912125Y608070D01*
X913136Y606558D01*
X914648Y605547D01*
X916432Y605192D01*
X918216Y605547D01*
X919728Y606558D01*
X920739Y608070D01*
X921094Y609854D01*
X920739Y611638D01*
X919728Y613150D01*
X918216Y614161D01*
X916432Y614516D01*
D02*
G37*
G36*
X257765Y610960D02*
X255981Y610605D01*
X254469Y609594D01*
X253458Y608082D01*
X253104Y606298D01*
X253458Y604514D01*
X254469Y603002D01*
X255981Y601991D01*
X257765Y601636D01*
X259549Y601991D01*
X261061Y603002D01*
X262072Y604514D01*
X262427Y606298D01*
X262072Y608082D01*
X261061Y609594D01*
X259549Y610605D01*
X257765Y610960D01*
D02*
G37*
G36*
X908050Y608166D02*
X906266Y607811D01*
X904754Y606800D01*
X903743Y605288D01*
X903388Y603504D01*
X903743Y601720D01*
X904754Y600208D01*
X906266Y599197D01*
X908050Y598842D01*
X909834Y599197D01*
X911346Y600208D01*
X912357Y601720D01*
X912712Y603504D01*
X912357Y605288D01*
X911346Y606800D01*
X909834Y607811D01*
X908050Y608166D01*
D02*
G37*
G36*
X615472Y614710D02*
X596108D01*
Y595346D01*
X615472D01*
Y614710D01*
D02*
G37*
G36*
X266446Y604102D02*
X264662Y603747D01*
X263150Y602736D01*
X262139Y601224D01*
X261784Y599440D01*
X262139Y597656D01*
X263150Y596144D01*
X264662Y595133D01*
X266446Y594778D01*
X268230Y595133D01*
X269742Y596144D01*
X270753Y597656D01*
X271108Y599440D01*
X270753Y601224D01*
X269742Y602736D01*
X268230Y603747D01*
X266446Y604102D01*
D02*
G37*
G36*
X276860Y596990D02*
X275076Y596635D01*
X273564Y595624D01*
X272553Y594112D01*
X272198Y592328D01*
X272553Y590544D01*
X273564Y589032D01*
X275076Y588021D01*
X276860Y587666D01*
X278644Y588021D01*
X280156Y589032D01*
X281167Y590544D01*
X281522Y592328D01*
X281167Y594112D01*
X280156Y595624D01*
X278644Y596635D01*
X276860Y596990D01*
D02*
G37*
G36*
X568198Y596736D02*
X566414Y596381D01*
X564902Y595370D01*
X563891Y593858D01*
X563536Y592074D01*
X563891Y590290D01*
X564902Y588778D01*
X566414Y587767D01*
X568198Y587412D01*
X569982Y587767D01*
X571494Y588778D01*
X572505Y590290D01*
X572860Y592074D01*
X572505Y593858D01*
X571494Y595370D01*
X569982Y596381D01*
X568198Y596736D01*
D02*
G37*
G36*
X542798D02*
X541014Y596381D01*
X539502Y595370D01*
X538491Y593858D01*
X538136Y592074D01*
X538491Y590290D01*
X539502Y588778D01*
X541014Y587767D01*
X542798Y587412D01*
X544582Y587767D01*
X546094Y588778D01*
X547105Y590290D01*
X547460Y592074D01*
X547105Y593858D01*
X546094Y595370D01*
X544582Y596381D01*
X542798Y596736D01*
D02*
G37*
G36*
X582930Y592672D02*
X581146Y592317D01*
X579634Y591306D01*
X578623Y589794D01*
X578268Y588010D01*
X578623Y586226D01*
X579634Y584714D01*
X581146Y583703D01*
X582930Y583348D01*
X584714Y583703D01*
X586226Y584714D01*
X587237Y586226D01*
X587592Y588010D01*
X587237Y589794D01*
X586226Y591306D01*
X584714Y592317D01*
X582930Y592672D01*
D02*
G37*
G36*
X176386Y589370D02*
X174602Y589015D01*
X173090Y588004D01*
X172079Y586492D01*
X171724Y584708D01*
X172079Y582924D01*
X173090Y581412D01*
X174602Y580401D01*
X176386Y580046D01*
X178170Y580401D01*
X179682Y581412D01*
X180693Y582924D01*
X181048Y584708D01*
X180693Y586492D01*
X179682Y588004D01*
X178170Y589015D01*
X176386Y589370D01*
D02*
G37*
G36*
X764540Y588862D02*
X762756Y588507D01*
X761244Y587496D01*
X760233Y585984D01*
X759878Y584200D01*
X760233Y582416D01*
X761244Y580904D01*
X762756Y579893D01*
X764540Y579538D01*
X766324Y579893D01*
X767836Y580904D01*
X768847Y582416D01*
X769202Y584200D01*
X768847Y585984D01*
X767836Y587496D01*
X766324Y588507D01*
X764540Y588862D01*
D02*
G37*
G36*
X85852Y585306D02*
X84068Y584951D01*
X82556Y583940D01*
X81545Y582428D01*
X81190Y580644D01*
X81545Y578860D01*
X82556Y577348D01*
X84068Y576337D01*
X85852Y575982D01*
X87636Y576337D01*
X89148Y577348D01*
X90159Y578860D01*
X90514Y580644D01*
X90159Y582428D01*
X89148Y583940D01*
X87636Y584951D01*
X85852Y585306D01*
D02*
G37*
G36*
X163068Y584036D02*
X161284Y583681D01*
X159772Y582670D01*
X158761Y581158D01*
X158406Y579374D01*
X158761Y577590D01*
X159772Y576078D01*
X161284Y575067D01*
X163068Y574712D01*
X164852Y575067D01*
X166364Y576078D01*
X167375Y577590D01*
X167730Y579374D01*
X167375Y581158D01*
X166364Y582670D01*
X164852Y583681D01*
X163068Y584036D01*
D02*
G37*
G36*
X276815Y577387D02*
X275031Y577032D01*
X273519Y576021D01*
X272509Y574509D01*
X272278Y573351D01*
X270983D01*
X270753Y574509D01*
X269742Y576021D01*
X268230Y577032D01*
X266446Y577387D01*
X264662Y577032D01*
X263150Y576021D01*
X262892Y575635D01*
X261364D01*
X261106Y576021D01*
X259594Y577032D01*
X257810Y577387D01*
X256026Y577032D01*
X254514Y576021D01*
X253503Y574509D01*
X253148Y572725D01*
X253503Y570941D01*
X254514Y569429D01*
X256026Y568419D01*
X257810Y568064D01*
X259594Y568419D01*
X261106Y569429D01*
X261364Y569815D01*
X262892D01*
X263150Y569429D01*
X264662Y568419D01*
X266446Y568064D01*
X268230Y568419D01*
X269742Y569429D01*
X270753Y570941D01*
X270983Y572100D01*
X272278D01*
X272509Y570941D01*
X273519Y569429D01*
X275031Y568419D01*
X276815Y568064D01*
X278599Y568419D01*
X280112Y569429D01*
X281122Y570941D01*
X281477Y572725D01*
X281122Y574509D01*
X280112Y576021D01*
X278599Y577032D01*
X276815Y577387D01*
D02*
G37*
G36*
X1036898Y594430D02*
X1009834D01*
Y567366D01*
X1036898D01*
Y594430D01*
D02*
G37*
G36*
X973366Y594547D02*
X969833Y594082D01*
X966542Y592718D01*
X963715Y590549D01*
X961546Y587722D01*
X960182Y584431D01*
X959717Y580898D01*
X960182Y577365D01*
X961546Y574074D01*
X963715Y571247D01*
X966542Y569078D01*
X969833Y567714D01*
X973366Y567249D01*
X976899Y567714D01*
X980190Y569078D01*
X983017Y571247D01*
X985186Y574074D01*
X986550Y577365D01*
X987015Y580898D01*
X986550Y584431D01*
X985186Y587722D01*
X983017Y590549D01*
X980190Y592718D01*
X976899Y594082D01*
X973366Y594547D01*
D02*
G37*
G36*
X122174Y582512D02*
X120390Y582157D01*
X118878Y581146D01*
X117867Y579634D01*
X117512Y577850D01*
X117867Y576066D01*
X118878Y574554D01*
X118541Y573251D01*
X117342Y573013D01*
X115830Y572002D01*
X114819Y570490D01*
X114464Y568706D01*
X114819Y566922D01*
X115830Y565410D01*
X117342Y564399D01*
X119126Y564044D01*
X120910Y564399D01*
X122422Y565410D01*
X123433Y566922D01*
X123788Y568706D01*
X123433Y570490D01*
X122422Y572002D01*
X122759Y573305D01*
X123958Y573543D01*
X125470Y574554D01*
X126481Y576066D01*
X126836Y577850D01*
X126481Y579634D01*
X125470Y581146D01*
X123958Y582157D01*
X122174Y582512D01*
D02*
G37*
G36*
X68906Y564042D02*
X67122Y563687D01*
X65610Y562676D01*
X64599Y561164D01*
X64244Y559380D01*
X64599Y557596D01*
X65610Y556084D01*
X67122Y555073D01*
X68906Y554718D01*
X70690Y555073D01*
X72202Y556084D01*
X73213Y557596D01*
X73568Y559380D01*
X73213Y561164D01*
X72202Y562676D01*
X70690Y563687D01*
X68906Y564042D01*
D02*
G37*
G36*
X604266Y555082D02*
X602482Y554727D01*
X600970Y553716D01*
X599959Y552204D01*
X599604Y550420D01*
X599919Y548841D01*
X599421Y548335D01*
X598882Y548035D01*
X597330Y549226D01*
X594550Y550378D01*
X591566Y550771D01*
X588582Y550378D01*
X585802Y549226D01*
X584426Y548170D01*
X583274Y548887D01*
X583528Y550164D01*
X583173Y551948D01*
X582162Y553460D01*
X580650Y554471D01*
X578866Y554826D01*
X577082Y554471D01*
X575570Y553460D01*
X574559Y551948D01*
X574204Y550164D01*
X574458Y548887D01*
X573306Y548170D01*
X571930Y549226D01*
X569150Y550378D01*
X566166Y550771D01*
X563182Y550378D01*
X560402Y549226D01*
X558014Y547394D01*
X556182Y545006D01*
X555030Y542226D01*
X554637Y539242D01*
X555030Y536258D01*
X556182Y533478D01*
X558014Y531090D01*
X560402Y529258D01*
X563182Y528106D01*
X566166Y527713D01*
X569150Y528106D01*
X571930Y529258D01*
X574318Y531090D01*
X576150Y533478D01*
X577302Y536258D01*
X577695Y539242D01*
X577302Y542226D01*
X576181Y544932D01*
X576259Y545106D01*
X577010Y545791D01*
X577101Y545854D01*
X578866Y545502D01*
X580631Y545854D01*
X580722Y545791D01*
X581473Y545106D01*
X581551Y544932D01*
X580430Y542226D01*
X580037Y539242D01*
X580430Y536258D01*
X581582Y533478D01*
X583414Y531090D01*
X585802Y529258D01*
X588582Y528106D01*
X591566Y527713D01*
X594550Y528106D01*
X597330Y529258D01*
X599718Y531090D01*
X601550Y533478D01*
X602702Y536258D01*
X603095Y539242D01*
X602702Y542226D01*
X601550Y545006D01*
X601231Y545421D01*
X602111Y546361D01*
X602482Y546113D01*
X604266Y545758D01*
X606050Y546113D01*
X606421Y546361D01*
X607300Y545421D01*
X606982Y545006D01*
X605830Y542226D01*
X605437Y539242D01*
X605830Y536258D01*
X606982Y533478D01*
X608814Y531090D01*
X611202Y529258D01*
X613982Y528106D01*
X616966Y527713D01*
X619950Y528106D01*
X622730Y529258D01*
X625118Y531090D01*
X626950Y533478D01*
X628102Y536258D01*
X628495Y539242D01*
X628102Y542226D01*
X626950Y545006D01*
X625118Y547394D01*
X622730Y549226D01*
X619950Y550378D01*
X616966Y550771D01*
X613982Y550378D01*
X611202Y549226D01*
X609650Y548035D01*
X609111Y548335D01*
X608614Y548841D01*
X608928Y550420D01*
X608573Y552204D01*
X607562Y553716D01*
X606050Y554727D01*
X604266Y555082D01*
D02*
G37*
G36*
X39400Y549940D02*
X20036D01*
Y530576D01*
X39400D01*
Y549940D01*
D02*
G37*
G36*
X182118Y550023D02*
X179590Y549691D01*
X177235Y548715D01*
X175213Y547163D01*
X173661Y545141D01*
X172685Y542785D01*
X172353Y540258D01*
X172685Y537730D01*
X173661Y535375D01*
X175213Y533353D01*
X177235Y531801D01*
X179590Y530825D01*
X182118Y530493D01*
X184646Y530825D01*
X187001Y531801D01*
X189023Y533353D01*
X190575Y535375D01*
X191551Y537730D01*
X191884Y540258D01*
X191551Y542785D01*
X190575Y545141D01*
X189023Y547163D01*
X187001Y548715D01*
X184646Y549691D01*
X182118Y550023D01*
D02*
G37*
G36*
X156718D02*
X154191Y549691D01*
X151835Y548715D01*
X149813Y547163D01*
X148261Y545141D01*
X147285Y542785D01*
X146952Y540258D01*
X147285Y537730D01*
X148261Y535375D01*
X149813Y533353D01*
X151835Y531801D01*
X154191Y530825D01*
X156718Y530493D01*
X159246Y530825D01*
X161601Y531801D01*
X163623Y533353D01*
X165175Y535375D01*
X166151Y537730D01*
X166483Y540258D01*
X166151Y542785D01*
X165175Y545141D01*
X163623Y547163D01*
X161601Y548715D01*
X159246Y549691D01*
X156718Y550023D01*
D02*
G37*
G36*
X131318D02*
X128791Y549691D01*
X126435Y548715D01*
X124413Y547163D01*
X122861Y545141D01*
X121885Y542785D01*
X121552Y540258D01*
X121885Y537730D01*
X122861Y535375D01*
X124413Y533353D01*
X126435Y531801D01*
X128791Y530825D01*
X131318Y530493D01*
X133846Y530825D01*
X136201Y531801D01*
X138223Y533353D01*
X139775Y535375D01*
X140751Y537730D01*
X141083Y540258D01*
X140751Y542785D01*
X139775Y545141D01*
X138223Y547163D01*
X136201Y548715D01*
X133846Y549691D01*
X131318Y550023D01*
D02*
G37*
G36*
X80518D02*
X77990Y549691D01*
X75635Y548715D01*
X73613Y547163D01*
X72061Y545141D01*
X71085Y542785D01*
X70753Y540258D01*
X71085Y537730D01*
X72061Y535375D01*
X73613Y533353D01*
X75635Y531801D01*
X77990Y530825D01*
X80518Y530493D01*
X83046Y530825D01*
X85401Y531801D01*
X87423Y533353D01*
X88975Y535375D01*
X89951Y537730D01*
X90283Y540258D01*
X89951Y542785D01*
X88975Y545141D01*
X87423Y547163D01*
X85401Y548715D01*
X83046Y549691D01*
X80518Y550023D01*
D02*
G37*
G36*
X820166Y550771D02*
X817182Y550378D01*
X814402Y549226D01*
X812014Y547394D01*
X810182Y545006D01*
X809030Y542226D01*
X808637Y539242D01*
X809030Y536258D01*
X810182Y533478D01*
X812014Y531090D01*
X814402Y529258D01*
X817182Y528106D01*
X820166Y527713D01*
X823150Y528106D01*
X825930Y529258D01*
X828318Y531090D01*
X830150Y533478D01*
X831302Y536258D01*
X831695Y539242D01*
X831302Y542226D01*
X830150Y545006D01*
X828318Y547394D01*
X825930Y549226D01*
X823150Y550378D01*
X820166Y550771D01*
D02*
G37*
G36*
X794766D02*
X791782Y550378D01*
X789002Y549226D01*
X786614Y547394D01*
X784782Y545006D01*
X783630Y542226D01*
X783237Y539242D01*
X783630Y536258D01*
X784782Y533478D01*
X786614Y531090D01*
X789002Y529258D01*
X791782Y528106D01*
X794766Y527713D01*
X797750Y528106D01*
X800530Y529258D01*
X802918Y531090D01*
X804750Y533478D01*
X805902Y536258D01*
X806295Y539242D01*
X805902Y542226D01*
X804750Y545006D01*
X802918Y547394D01*
X800530Y549226D01*
X797750Y550378D01*
X794766Y550771D01*
D02*
G37*
G36*
X769366D02*
X766382Y550378D01*
X763602Y549226D01*
X761214Y547394D01*
X759382Y545006D01*
X758230Y542226D01*
X757837Y539242D01*
X758230Y536258D01*
X759382Y533478D01*
X761214Y531090D01*
X763602Y529258D01*
X766382Y528106D01*
X769366Y527713D01*
X772350Y528106D01*
X775130Y529258D01*
X777518Y531090D01*
X779350Y533478D01*
X780502Y536258D01*
X780895Y539242D01*
X780502Y542226D01*
X779350Y545006D01*
X777518Y547394D01*
X775130Y549226D01*
X772350Y550378D01*
X769366Y550771D01*
D02*
G37*
G36*
X743966D02*
X740982Y550378D01*
X738202Y549226D01*
X735814Y547394D01*
X733982Y545006D01*
X732830Y542226D01*
X732437Y539242D01*
X732830Y536258D01*
X733982Y533478D01*
X735814Y531090D01*
X738202Y529258D01*
X740982Y528106D01*
X743966Y527713D01*
X746950Y528106D01*
X749730Y529258D01*
X752118Y531090D01*
X753950Y533478D01*
X755102Y536258D01*
X755495Y539242D01*
X755102Y542226D01*
X753950Y545006D01*
X752118Y547394D01*
X749730Y549226D01*
X746950Y550378D01*
X743966Y550771D01*
D02*
G37*
G36*
X718566D02*
X715582Y550378D01*
X712802Y549226D01*
X710414Y547394D01*
X708582Y545006D01*
X707430Y542226D01*
X707037Y539242D01*
X707430Y536258D01*
X708582Y533478D01*
X710414Y531090D01*
X712802Y529258D01*
X715582Y528106D01*
X718566Y527713D01*
X721550Y528106D01*
X724330Y529258D01*
X726718Y531090D01*
X728550Y533478D01*
X729702Y536258D01*
X730095Y539242D01*
X729702Y542226D01*
X728550Y545006D01*
X726718Y547394D01*
X724330Y549226D01*
X721550Y550378D01*
X718566Y550771D01*
D02*
G37*
G36*
X693166D02*
X690182Y550378D01*
X687402Y549226D01*
X685014Y547394D01*
X683182Y545006D01*
X682030Y542226D01*
X681637Y539242D01*
X682030Y536258D01*
X683182Y533478D01*
X685014Y531090D01*
X687402Y529258D01*
X690182Y528106D01*
X693166Y527713D01*
X696150Y528106D01*
X698930Y529258D01*
X701318Y531090D01*
X703150Y533478D01*
X704302Y536258D01*
X704695Y539242D01*
X704302Y542226D01*
X703150Y545006D01*
X701318Y547394D01*
X698930Y549226D01*
X696150Y550378D01*
X693166Y550771D01*
D02*
G37*
G36*
X667766D02*
X664782Y550378D01*
X662002Y549226D01*
X659614Y547394D01*
X657782Y545006D01*
X656630Y542226D01*
X656237Y539242D01*
X656630Y536258D01*
X657782Y533478D01*
X659614Y531090D01*
X662002Y529258D01*
X664782Y528106D01*
X667766Y527713D01*
X670750Y528106D01*
X673530Y529258D01*
X675918Y531090D01*
X677750Y533478D01*
X678902Y536258D01*
X679295Y539242D01*
X678902Y542226D01*
X677750Y545006D01*
X675918Y547394D01*
X673530Y549226D01*
X670750Y550378D01*
X667766Y550771D01*
D02*
G37*
G36*
X642366D02*
X639382Y550378D01*
X636602Y549226D01*
X634214Y547394D01*
X632382Y545006D01*
X631230Y542226D01*
X630837Y539242D01*
X631230Y536258D01*
X632382Y533478D01*
X634214Y531090D01*
X636602Y529258D01*
X639382Y528106D01*
X642366Y527713D01*
X645350Y528106D01*
X648130Y529258D01*
X650518Y531090D01*
X652350Y533478D01*
X653502Y536258D01*
X653895Y539242D01*
X653502Y542226D01*
X652350Y545006D01*
X650518Y547394D01*
X648130Y549226D01*
X645350Y550378D01*
X642366Y550771D01*
D02*
G37*
G36*
X540766D02*
X537782Y550378D01*
X535002Y549226D01*
X532614Y547394D01*
X530782Y545006D01*
X529630Y542226D01*
X529237Y539242D01*
X529630Y536258D01*
X530782Y533478D01*
X532614Y531090D01*
X535002Y529258D01*
X537782Y528106D01*
X540766Y527713D01*
X543750Y528106D01*
X546530Y529258D01*
X548918Y531090D01*
X550750Y533478D01*
X551902Y536258D01*
X552295Y539242D01*
X551902Y542226D01*
X550750Y545006D01*
X548918Y547394D01*
X546530Y549226D01*
X543750Y550378D01*
X540766Y550771D01*
D02*
G37*
G36*
X515366D02*
X512382Y550378D01*
X509602Y549226D01*
X507214Y547394D01*
X505382Y545006D01*
X504230Y542226D01*
X503837Y539242D01*
X504230Y536258D01*
X505382Y533478D01*
X507214Y531090D01*
X509602Y529258D01*
X512382Y528106D01*
X515366Y527713D01*
X518350Y528106D01*
X521130Y529258D01*
X523518Y531090D01*
X525350Y533478D01*
X526502Y536258D01*
X526895Y539242D01*
X526502Y542226D01*
X525350Y545006D01*
X523518Y547394D01*
X521130Y549226D01*
X518350Y550378D01*
X515366Y550771D01*
D02*
G37*
G36*
X489966D02*
X486982Y550378D01*
X484202Y549226D01*
X481814Y547394D01*
X479982Y545006D01*
X478830Y542226D01*
X478437Y539242D01*
X478830Y536258D01*
X479982Y533478D01*
X481814Y531090D01*
X484202Y529258D01*
X486982Y528106D01*
X489966Y527713D01*
X492950Y528106D01*
X495730Y529258D01*
X498118Y531090D01*
X499950Y533478D01*
X501102Y536258D01*
X501495Y539242D01*
X501102Y542226D01*
X499950Y545006D01*
X498118Y547394D01*
X495730Y549226D01*
X492950Y550378D01*
X489966Y550771D01*
D02*
G37*
G36*
X464566D02*
X461582Y550378D01*
X458802Y549226D01*
X456414Y547394D01*
X454582Y545006D01*
X453430Y542226D01*
X453037Y539242D01*
X453430Y536258D01*
X454582Y533478D01*
X456414Y531090D01*
X458802Y529258D01*
X461582Y528106D01*
X464566Y527713D01*
X467550Y528106D01*
X470330Y529258D01*
X472718Y531090D01*
X474550Y533478D01*
X475702Y536258D01*
X476095Y539242D01*
X475702Y542226D01*
X474550Y545006D01*
X472718Y547394D01*
X470330Y549226D01*
X467550Y550378D01*
X464566Y550771D01*
D02*
G37*
G36*
X439166D02*
X436182Y550378D01*
X433402Y549226D01*
X431014Y547394D01*
X429182Y545006D01*
X428030Y542226D01*
X427637Y539242D01*
X428030Y536258D01*
X429182Y533478D01*
X431014Y531090D01*
X433402Y529258D01*
X436182Y528106D01*
X439166Y527713D01*
X442150Y528106D01*
X444930Y529258D01*
X447318Y531090D01*
X449150Y533478D01*
X450302Y536258D01*
X450695Y539242D01*
X450302Y542226D01*
X449150Y545006D01*
X447318Y547394D01*
X444930Y549226D01*
X442150Y550378D01*
X439166Y550771D01*
D02*
G37*
G36*
X413766D02*
X410782Y550378D01*
X408002Y549226D01*
X405614Y547394D01*
X403782Y545006D01*
X402630Y542226D01*
X402237Y539242D01*
X402630Y536258D01*
X403782Y533478D01*
X405614Y531090D01*
X408002Y529258D01*
X410782Y528106D01*
X413766Y527713D01*
X416750Y528106D01*
X419530Y529258D01*
X421918Y531090D01*
X423750Y533478D01*
X424902Y536258D01*
X425295Y539242D01*
X424902Y542226D01*
X423750Y545006D01*
X421918Y547394D01*
X419530Y549226D01*
X416750Y550378D01*
X413766Y550771D01*
D02*
G37*
G36*
X388366D02*
X385382Y550378D01*
X382602Y549226D01*
X380214Y547394D01*
X378382Y545006D01*
X377230Y542226D01*
X376837Y539242D01*
X377230Y536258D01*
X378382Y533478D01*
X380214Y531090D01*
X382602Y529258D01*
X385382Y528106D01*
X388366Y527713D01*
X391350Y528106D01*
X394130Y529258D01*
X396518Y531090D01*
X398350Y533478D01*
X399502Y536258D01*
X399895Y539242D01*
X399502Y542226D01*
X398350Y545006D01*
X396518Y547394D01*
X394130Y549226D01*
X391350Y550378D01*
X388366Y550771D01*
D02*
G37*
G36*
X362966D02*
X359982Y550378D01*
X357202Y549226D01*
X354814Y547394D01*
X352982Y545006D01*
X351830Y542226D01*
X351437Y539242D01*
X351830Y536258D01*
X352982Y533478D01*
X354814Y531090D01*
X357202Y529258D01*
X359982Y528106D01*
X362966Y527713D01*
X365950Y528106D01*
X368730Y529258D01*
X371118Y531090D01*
X372950Y533478D01*
X374102Y536258D01*
X374495Y539242D01*
X374102Y542226D01*
X372950Y545006D01*
X371118Y547394D01*
X368730Y549226D01*
X365950Y550378D01*
X362966Y550771D01*
D02*
G37*
G36*
X337566D02*
X334582Y550378D01*
X331802Y549226D01*
X329414Y547394D01*
X327582Y545006D01*
X326430Y542226D01*
X326037Y539242D01*
X326430Y536258D01*
X327582Y533478D01*
X329414Y531090D01*
X331802Y529258D01*
X334582Y528106D01*
X337566Y527713D01*
X340550Y528106D01*
X343330Y529258D01*
X345718Y531090D01*
X347550Y533478D01*
X348702Y536258D01*
X349095Y539242D01*
X348702Y542226D01*
X347550Y545006D01*
X345718Y547394D01*
X343330Y549226D01*
X340550Y550378D01*
X337566Y550771D01*
D02*
G37*
G36*
X19812Y522822D02*
X18028Y522467D01*
X16516Y521456D01*
X15505Y519944D01*
X15150Y518160D01*
X15505Y516376D01*
X16516Y514864D01*
X18028Y513853D01*
X19812Y513498D01*
X21596Y513853D01*
X23108Y514864D01*
X24119Y516376D01*
X24474Y518160D01*
X24119Y519944D01*
X23108Y521456D01*
X21596Y522467D01*
X19812Y522822D01*
D02*
G37*
G36*
X439166Y525371D02*
X436182Y524978D01*
X433402Y523826D01*
X431014Y521994D01*
X429182Y519606D01*
X428030Y516826D01*
X427637Y513842D01*
X428030Y510858D01*
X429151Y508152D01*
X429073Y507978D01*
X428322Y507293D01*
X428231Y507230D01*
X426466Y507582D01*
X424701Y507230D01*
X424610Y507293D01*
X423859Y507978D01*
X423781Y508152D01*
X424902Y510858D01*
X425295Y513842D01*
X424902Y516826D01*
X423750Y519606D01*
X421918Y521994D01*
X419530Y523826D01*
X416750Y524978D01*
X413766Y525371D01*
X410782Y524978D01*
X408002Y523826D01*
X405614Y521994D01*
X403782Y519606D01*
X402630Y516826D01*
X402237Y513842D01*
X402630Y510858D01*
X403782Y508078D01*
X405614Y505690D01*
X408002Y503858D01*
X410782Y502706D01*
X413766Y502313D01*
X416750Y502706D01*
X419530Y503858D01*
X420906Y504914D01*
X422058Y504197D01*
X421804Y502920D01*
X422159Y501136D01*
X423170Y499624D01*
X424682Y498613D01*
X426466Y498258D01*
X428250Y498613D01*
X429762Y499624D01*
X430773Y501136D01*
X431128Y502920D01*
X430874Y504197D01*
X432026Y504914D01*
X433402Y503858D01*
X436182Y502706D01*
X439166Y502313D01*
X442150Y502706D01*
X444930Y503858D01*
X447318Y505690D01*
X449150Y508078D01*
X450302Y510858D01*
X450695Y513842D01*
X450302Y516826D01*
X449150Y519606D01*
X447318Y521994D01*
X444930Y523826D01*
X442150Y524978D01*
X439166Y525371D01*
D02*
G37*
G36*
X388366D02*
X385382Y524978D01*
X382602Y523826D01*
X380214Y521994D01*
X378382Y519606D01*
X377230Y516826D01*
X376837Y513842D01*
X377230Y510858D01*
X378382Y508078D01*
X378697Y507667D01*
X377817Y506727D01*
X377450Y506973D01*
X375666Y507328D01*
X373882Y506973D01*
X373515Y506727D01*
X372635Y507667D01*
X372950Y508078D01*
X374102Y510858D01*
X374495Y513842D01*
X374102Y516826D01*
X372950Y519606D01*
X371118Y521994D01*
X368730Y523826D01*
X365950Y524978D01*
X362966Y525371D01*
X359982Y524978D01*
X357202Y523826D01*
X354814Y521994D01*
X352982Y519606D01*
X351830Y516826D01*
X351437Y513842D01*
X351830Y510858D01*
X352982Y508078D01*
X354814Y505690D01*
X357036Y503985D01*
X356942Y503288D01*
X356682Y502718D01*
X355086Y502401D01*
X353574Y501390D01*
X352563Y499878D01*
X352208Y498094D01*
X352563Y496310D01*
X353574Y494798D01*
X355086Y493787D01*
X356870Y493432D01*
X358654Y493787D01*
X360166Y494798D01*
X361177Y496310D01*
X361532Y498094D01*
X361177Y499878D01*
X360166Y501390D01*
X360146Y501404D01*
X360606Y502624D01*
X362966Y502313D01*
X365950Y502706D01*
X368730Y503858D01*
X370282Y505049D01*
X370812Y504754D01*
X371318Y504243D01*
X371004Y502666D01*
X371359Y500882D01*
X372370Y499370D01*
X373882Y498359D01*
X375666Y498004D01*
X377450Y498359D01*
X378962Y499370D01*
X379973Y500882D01*
X380328Y502666D01*
X380014Y504243D01*
X380520Y504754D01*
X381050Y505049D01*
X382602Y503858D01*
X385382Y502706D01*
X388366Y502313D01*
X391350Y502706D01*
X394130Y503858D01*
X396518Y505690D01*
X398350Y508078D01*
X399502Y510858D01*
X399895Y513842D01*
X399502Y516826D01*
X398350Y519606D01*
X396518Y521994D01*
X394130Y523826D01*
X391350Y524978D01*
X388366Y525371D01*
D02*
G37*
G36*
X11684Y515964D02*
X9900Y515609D01*
X8388Y514598D01*
X7377Y513086D01*
X7022Y511302D01*
X7377Y509518D01*
X8388Y508006D01*
X9900Y506995D01*
X11684Y506640D01*
X13468Y506995D01*
X14980Y508006D01*
X15991Y509518D01*
X16346Y511302D01*
X15991Y513086D01*
X14980Y514598D01*
X13468Y515609D01*
X11684Y515964D01*
D02*
G37*
G36*
X820166Y525371D02*
X817182Y524978D01*
X814402Y523826D01*
X812014Y521994D01*
X810182Y519606D01*
X809030Y516826D01*
X808637Y513842D01*
X809030Y510858D01*
X810182Y508078D01*
X812014Y505690D01*
X814402Y503858D01*
X817182Y502706D01*
X820166Y502313D01*
X823150Y502706D01*
X825930Y503858D01*
X828318Y505690D01*
X830150Y508078D01*
X831302Y510858D01*
X831695Y513842D01*
X831302Y516826D01*
X830150Y519606D01*
X828318Y521994D01*
X825930Y523826D01*
X823150Y524978D01*
X820166Y525371D01*
D02*
G37*
G36*
X794766D02*
X791782Y524978D01*
X789002Y523826D01*
X786614Y521994D01*
X784782Y519606D01*
X783630Y516826D01*
X783237Y513842D01*
X783630Y510858D01*
X784782Y508078D01*
X786614Y505690D01*
X789002Y503858D01*
X791782Y502706D01*
X794766Y502313D01*
X797750Y502706D01*
X800530Y503858D01*
X802918Y505690D01*
X804750Y508078D01*
X805902Y510858D01*
X806295Y513842D01*
X805902Y516826D01*
X804750Y519606D01*
X802918Y521994D01*
X800530Y523826D01*
X797750Y524978D01*
X794766Y525371D01*
D02*
G37*
G36*
X769366D02*
X766382Y524978D01*
X763602Y523826D01*
X761214Y521994D01*
X759382Y519606D01*
X758230Y516826D01*
X757837Y513842D01*
X758230Y510858D01*
X759382Y508078D01*
X761214Y505690D01*
X763602Y503858D01*
X766382Y502706D01*
X769366Y502313D01*
X772350Y502706D01*
X775130Y503858D01*
X777518Y505690D01*
X779350Y508078D01*
X780502Y510858D01*
X780895Y513842D01*
X780502Y516826D01*
X779350Y519606D01*
X777518Y521994D01*
X775130Y523826D01*
X772350Y524978D01*
X769366Y525371D01*
D02*
G37*
G36*
X743966D02*
X740982Y524978D01*
X738202Y523826D01*
X735814Y521994D01*
X733982Y519606D01*
X732830Y516826D01*
X732437Y513842D01*
X732830Y510858D01*
X733982Y508078D01*
X735814Y505690D01*
X738202Y503858D01*
X740982Y502706D01*
X743966Y502313D01*
X746950Y502706D01*
X749730Y503858D01*
X752118Y505690D01*
X753950Y508078D01*
X755102Y510858D01*
X755495Y513842D01*
X755102Y516826D01*
X753950Y519606D01*
X752118Y521994D01*
X749730Y523826D01*
X746950Y524978D01*
X743966Y525371D01*
D02*
G37*
G36*
X718566D02*
X715582Y524978D01*
X712802Y523826D01*
X710414Y521994D01*
X708582Y519606D01*
X707430Y516826D01*
X707037Y513842D01*
X707430Y510858D01*
X708582Y508078D01*
X710414Y505690D01*
X712802Y503858D01*
X715582Y502706D01*
X718566Y502313D01*
X721550Y502706D01*
X724330Y503858D01*
X726718Y505690D01*
X728550Y508078D01*
X729702Y510858D01*
X730095Y513842D01*
X729702Y516826D01*
X728550Y519606D01*
X726718Y521994D01*
X724330Y523826D01*
X721550Y524978D01*
X718566Y525371D01*
D02*
G37*
G36*
X693166D02*
X690182Y524978D01*
X687402Y523826D01*
X685014Y521994D01*
X683182Y519606D01*
X682030Y516826D01*
X681637Y513842D01*
X682030Y510858D01*
X683182Y508078D01*
X685014Y505690D01*
X687402Y503858D01*
X690182Y502706D01*
X693166Y502313D01*
X696150Y502706D01*
X698930Y503858D01*
X701318Y505690D01*
X703150Y508078D01*
X704302Y510858D01*
X704695Y513842D01*
X704302Y516826D01*
X703150Y519606D01*
X701318Y521994D01*
X698930Y523826D01*
X696150Y524978D01*
X693166Y525371D01*
D02*
G37*
G36*
X667766D02*
X664782Y524978D01*
X662002Y523826D01*
X659614Y521994D01*
X657782Y519606D01*
X656630Y516826D01*
X656237Y513842D01*
X656630Y510858D01*
X657782Y508078D01*
X659614Y505690D01*
X662002Y503858D01*
X664782Y502706D01*
X667766Y502313D01*
X670750Y502706D01*
X673530Y503858D01*
X675918Y505690D01*
X677750Y508078D01*
X678902Y510858D01*
X679295Y513842D01*
X678902Y516826D01*
X677750Y519606D01*
X675918Y521994D01*
X673530Y523826D01*
X670750Y524978D01*
X667766Y525371D01*
D02*
G37*
G36*
X642366D02*
X639382Y524978D01*
X636602Y523826D01*
X634214Y521994D01*
X632382Y519606D01*
X631230Y516826D01*
X630837Y513842D01*
X631230Y510858D01*
X632382Y508078D01*
X634214Y505690D01*
X636602Y503858D01*
X639382Y502706D01*
X642366Y502313D01*
X645350Y502706D01*
X648130Y503858D01*
X650518Y505690D01*
X652350Y508078D01*
X653502Y510858D01*
X653895Y513842D01*
X653502Y516826D01*
X652350Y519606D01*
X650518Y521994D01*
X648130Y523826D01*
X645350Y524978D01*
X642366Y525371D01*
D02*
G37*
G36*
X616966D02*
X613982Y524978D01*
X611202Y523826D01*
X608814Y521994D01*
X606982Y519606D01*
X605830Y516826D01*
X605437Y513842D01*
X605830Y510858D01*
X606982Y508078D01*
X608814Y505690D01*
X611202Y503858D01*
X613982Y502706D01*
X616966Y502313D01*
X619950Y502706D01*
X622730Y503858D01*
X625118Y505690D01*
X626950Y508078D01*
X628102Y510858D01*
X628495Y513842D01*
X628102Y516826D01*
X626950Y519606D01*
X625118Y521994D01*
X622730Y523826D01*
X619950Y524978D01*
X616966Y525371D01*
D02*
G37*
G36*
X591566D02*
X588582Y524978D01*
X585802Y523826D01*
X583414Y521994D01*
X581582Y519606D01*
X580430Y516826D01*
X580037Y513842D01*
X580430Y510858D01*
X581582Y508078D01*
X583414Y505690D01*
X585802Y503858D01*
X588582Y502706D01*
X591566Y502313D01*
X594550Y502706D01*
X597330Y503858D01*
X599718Y505690D01*
X601550Y508078D01*
X602702Y510858D01*
X603095Y513842D01*
X602702Y516826D01*
X601550Y519606D01*
X599718Y521994D01*
X597330Y523826D01*
X594550Y524978D01*
X591566Y525371D01*
D02*
G37*
G36*
X566166D02*
X563182Y524978D01*
X560402Y523826D01*
X558014Y521994D01*
X556182Y519606D01*
X555030Y516826D01*
X554637Y513842D01*
X555030Y510858D01*
X556182Y508078D01*
X558014Y505690D01*
X560402Y503858D01*
X563182Y502706D01*
X566166Y502313D01*
X569150Y502706D01*
X571930Y503858D01*
X574318Y505690D01*
X576150Y508078D01*
X577302Y510858D01*
X577695Y513842D01*
X577302Y516826D01*
X576150Y519606D01*
X574318Y521994D01*
X571930Y523826D01*
X569150Y524978D01*
X566166Y525371D01*
D02*
G37*
G36*
X540766D02*
X537782Y524978D01*
X535002Y523826D01*
X532614Y521994D01*
X530782Y519606D01*
X529630Y516826D01*
X529237Y513842D01*
X529630Y510858D01*
X530782Y508078D01*
X532614Y505690D01*
X535002Y503858D01*
X537782Y502706D01*
X540766Y502313D01*
X543750Y502706D01*
X546530Y503858D01*
X548918Y505690D01*
X550750Y508078D01*
X551902Y510858D01*
X552295Y513842D01*
X551902Y516826D01*
X550750Y519606D01*
X548918Y521994D01*
X546530Y523826D01*
X543750Y524978D01*
X540766Y525371D01*
D02*
G37*
G36*
X515366D02*
X512382Y524978D01*
X509602Y523826D01*
X507214Y521994D01*
X505382Y519606D01*
X504230Y516826D01*
X503837Y513842D01*
X504230Y510858D01*
X505382Y508078D01*
X507214Y505690D01*
X509602Y503858D01*
X512382Y502706D01*
X515366Y502313D01*
X518350Y502706D01*
X521130Y503858D01*
X523518Y505690D01*
X525350Y508078D01*
X526502Y510858D01*
X526895Y513842D01*
X526502Y516826D01*
X525350Y519606D01*
X523518Y521994D01*
X521130Y523826D01*
X518350Y524978D01*
X515366Y525371D01*
D02*
G37*
G36*
X489966D02*
X486982Y524978D01*
X484202Y523826D01*
X481814Y521994D01*
X479982Y519606D01*
X478830Y516826D01*
X478437Y513842D01*
X478830Y510858D01*
X479982Y508078D01*
X481814Y505690D01*
X484202Y503858D01*
X486982Y502706D01*
X489966Y502313D01*
X492950Y502706D01*
X495730Y503858D01*
X498118Y505690D01*
X499950Y508078D01*
X501102Y510858D01*
X501495Y513842D01*
X501102Y516826D01*
X499950Y519606D01*
X498118Y521994D01*
X495730Y523826D01*
X492950Y524978D01*
X489966Y525371D01*
D02*
G37*
G36*
X464566D02*
X461582Y524978D01*
X458802Y523826D01*
X456414Y521994D01*
X454582Y519606D01*
X453430Y516826D01*
X453037Y513842D01*
X453430Y510858D01*
X454582Y508078D01*
X456414Y505690D01*
X458802Y503858D01*
X461582Y502706D01*
X464566Y502313D01*
X467550Y502706D01*
X470330Y503858D01*
X472718Y505690D01*
X474550Y508078D01*
X475702Y510858D01*
X476095Y513842D01*
X475702Y516826D01*
X474550Y519606D01*
X472718Y521994D01*
X470330Y523826D01*
X467550Y524978D01*
X464566Y525371D01*
D02*
G37*
G36*
X337566D02*
X334582Y524978D01*
X331802Y523826D01*
X329414Y521994D01*
X327582Y519606D01*
X326430Y516826D01*
X326037Y513842D01*
X326430Y510858D01*
X327582Y508078D01*
X329414Y505690D01*
X331802Y503858D01*
X334582Y502706D01*
X337566Y502313D01*
X340550Y502706D01*
X343330Y503858D01*
X345718Y505690D01*
X347550Y508078D01*
X348702Y510858D01*
X349095Y513842D01*
X348702Y516826D01*
X347550Y519606D01*
X345718Y521994D01*
X343330Y523826D01*
X340550Y524978D01*
X337566Y525371D01*
D02*
G37*
G36*
X253748Y502974D02*
X251964Y502619D01*
X250452Y501608D01*
X249441Y500096D01*
X249086Y498312D01*
X249441Y496528D01*
X250452Y495016D01*
X251964Y494005D01*
X253748Y493650D01*
X255532Y494005D01*
X257044Y495016D01*
X258055Y496528D01*
X258410Y498312D01*
X258055Y500096D01*
X257044Y501608D01*
X255532Y502619D01*
X253748Y502974D01*
D02*
G37*
G36*
X105664Y502248D02*
X103880Y501893D01*
X102368Y500882D01*
X101357Y499370D01*
X101002Y497586D01*
X101357Y495802D01*
X102368Y494290D01*
X103880Y493279D01*
X105664Y492924D01*
X107448Y493279D01*
X108960Y494290D01*
X109971Y495802D01*
X110326Y497586D01*
X109971Y499370D01*
X108960Y500882D01*
X107448Y501893D01*
X105664Y502248D01*
D02*
G37*
G36*
X118872Y500824D02*
X117088Y500469D01*
X115576Y499458D01*
X114565Y497946D01*
X114210Y496162D01*
X114565Y494378D01*
X115576Y492866D01*
X117088Y491855D01*
X118872Y491501D01*
X120656Y491855D01*
X122168Y492866D01*
X123179Y494378D01*
X123534Y496162D01*
X123179Y497946D01*
X122168Y499458D01*
X120656Y500469D01*
X118872Y500824D01*
D02*
G37*
G36*
X444246Y500216D02*
X442462Y499861D01*
X440950Y498850D01*
X439939Y497338D01*
X439584Y495554D01*
X439939Y493770D01*
X440950Y492258D01*
X442462Y491247D01*
X444246Y490892D01*
X446030Y491247D01*
X447542Y492258D01*
X448553Y493770D01*
X448908Y495554D01*
X448553Y497338D01*
X447542Y498850D01*
X446030Y499861D01*
X444246Y500216D01*
D02*
G37*
G36*
X90424Y497132D02*
X88640Y496777D01*
X87128Y495766D01*
X86117Y494254D01*
X85762Y492470D01*
X86117Y490686D01*
X87128Y489174D01*
X88640Y488163D01*
X90424Y487808D01*
X92208Y488163D01*
X93720Y489174D01*
X94731Y490686D01*
X95086Y492470D01*
X94731Y494254D01*
X93720Y495766D01*
X92208Y496777D01*
X90424Y497132D01*
D02*
G37*
G36*
X43180Y495136D02*
X41396Y494781D01*
X39884Y493770D01*
X38873Y492258D01*
X38518Y490474D01*
X38873Y488690D01*
X39884Y487178D01*
X41396Y486167D01*
X43180Y485812D01*
X44964Y486167D01*
X46476Y487178D01*
X47487Y488690D01*
X47842Y490474D01*
X47487Y492258D01*
X46476Y493770D01*
X44964Y494781D01*
X43180Y495136D01*
D02*
G37*
G36*
X214760Y492988D02*
X212976Y492633D01*
X211464Y491622D01*
X210453Y490110D01*
X210098Y488326D01*
X210453Y486542D01*
X211464Y485030D01*
X212976Y484019D01*
X214760Y483665D01*
X216544Y484019D01*
X218056Y485030D01*
X219067Y486542D01*
X219422Y488326D01*
X219067Y490110D01*
X218056Y491622D01*
X216544Y492633D01*
X214760Y492988D01*
D02*
G37*
G36*
X143510Y490824D02*
X141726Y490469D01*
X140214Y489458D01*
X139203Y487946D01*
X138848Y486162D01*
X139203Y484378D01*
X140214Y482866D01*
X141726Y481855D01*
X143510Y481501D01*
X145294Y481855D01*
X146806Y482866D01*
X147817Y484378D01*
X148172Y486162D01*
X147817Y487946D01*
X146806Y489458D01*
X145294Y490469D01*
X143510Y490824D01*
D02*
G37*
G36*
X922634Y528032D02*
X903570D01*
Y478808D01*
X922634D01*
Y528032D01*
D02*
G37*
G36*
X125730Y483198D02*
X123946Y482843D01*
X122434Y481832D01*
X121423Y480320D01*
X121068Y478536D01*
X121423Y476752D01*
X122434Y475240D01*
X123946Y474229D01*
X125730Y473874D01*
X127514Y474229D01*
X129026Y475240D01*
X130037Y476752D01*
X130392Y478536D01*
X130037Y480320D01*
X129026Y481832D01*
X127514Y482843D01*
X125730Y483198D01*
D02*
G37*
G36*
X28456Y483124D02*
X26672Y482769D01*
X25160Y481758D01*
X24149Y480246D01*
X23795Y478462D01*
X24149Y476678D01*
X25160Y475166D01*
X26672Y474155D01*
X28456Y473800D01*
X30240Y474155D01*
X31752Y475166D01*
X32763Y476678D01*
X33118Y478462D01*
X32763Y480246D01*
X31752Y481758D01*
X30240Y482769D01*
X28456Y483124D01*
D02*
G37*
G36*
X591566Y493621D02*
X588582Y493228D01*
X585802Y492076D01*
X583414Y490244D01*
X581582Y487856D01*
X580430Y485076D01*
X580037Y482092D01*
X580430Y479108D01*
X581582Y476328D01*
X583414Y473940D01*
X585802Y472108D01*
X588582Y470956D01*
X591566Y470563D01*
X594550Y470956D01*
X597330Y472108D01*
X599718Y473940D01*
X601550Y476328D01*
X602702Y479108D01*
X603095Y482092D01*
X602702Y485076D01*
X601550Y487856D01*
X599718Y490244D01*
X597330Y492076D01*
X594550Y493228D01*
X591566Y493621D01*
D02*
G37*
G36*
X566166D02*
X563182Y493228D01*
X560402Y492076D01*
X558014Y490244D01*
X556182Y487856D01*
X555030Y485076D01*
X554637Y482092D01*
X555030Y479108D01*
X556182Y476328D01*
X558014Y473940D01*
X560402Y472108D01*
X563182Y470956D01*
X566166Y470563D01*
X569150Y470956D01*
X571930Y472108D01*
X574318Y473940D01*
X576150Y476328D01*
X577302Y479108D01*
X577695Y482092D01*
X577302Y485076D01*
X576150Y487856D01*
X574318Y490244D01*
X571930Y492076D01*
X569150Y493228D01*
X566166Y493621D01*
D02*
G37*
G36*
X540766D02*
X537782Y493228D01*
X535002Y492076D01*
X532614Y490244D01*
X530782Y487856D01*
X529630Y485076D01*
X529237Y482092D01*
X529630Y479108D01*
X530782Y476328D01*
X532614Y473940D01*
X535002Y472108D01*
X537782Y470956D01*
X540766Y470563D01*
X543750Y470956D01*
X546530Y472108D01*
X548918Y473940D01*
X550750Y476328D01*
X551902Y479108D01*
X552295Y482092D01*
X551902Y485076D01*
X550750Y487856D01*
X548918Y490244D01*
X546530Y492076D01*
X543750Y493228D01*
X540766Y493621D01*
D02*
G37*
G36*
X515366D02*
X512382Y493228D01*
X509602Y492076D01*
X507214Y490244D01*
X505382Y487856D01*
X504230Y485076D01*
X503837Y482092D01*
X504230Y479108D01*
X505382Y476328D01*
X507214Y473940D01*
X509602Y472108D01*
X512382Y470956D01*
X515366Y470563D01*
X518350Y470956D01*
X521130Y472108D01*
X523518Y473940D01*
X525350Y476328D01*
X526502Y479108D01*
X526895Y482092D01*
X526502Y485076D01*
X525350Y487856D01*
X523518Y490244D01*
X521130Y492076D01*
X518350Y493228D01*
X515366Y493621D01*
D02*
G37*
G36*
X489966D02*
X486982Y493228D01*
X484202Y492076D01*
X481814Y490244D01*
X479982Y487856D01*
X478830Y485076D01*
X478437Y482092D01*
X478830Y479108D01*
X479982Y476328D01*
X481814Y473940D01*
X484202Y472108D01*
X486982Y470956D01*
X489966Y470563D01*
X492950Y470956D01*
X495730Y472108D01*
X498118Y473940D01*
X499950Y476328D01*
X501102Y479108D01*
X501495Y482092D01*
X501102Y485076D01*
X499950Y487856D01*
X498118Y490244D01*
X495730Y492076D01*
X492950Y493228D01*
X489966Y493621D01*
D02*
G37*
G36*
X253747Y477448D02*
X251963Y477093D01*
X250450Y476082D01*
X249440Y474570D01*
X249085Y472786D01*
X249440Y471002D01*
X250450Y469490D01*
X251963Y468479D01*
X253747Y468124D01*
X255531Y468479D01*
X257043Y469490D01*
X258053Y471002D01*
X258408Y472786D01*
X258053Y474570D01*
X257043Y476082D01*
X255531Y477093D01*
X253747Y477448D01*
D02*
G37*
G36*
X426466Y476340D02*
X424682Y475985D01*
X423170Y474974D01*
X422159Y473462D01*
X421804Y471678D01*
X422159Y469894D01*
X423170Y468382D01*
X424682Y467371D01*
X426466Y467016D01*
X428250Y467371D01*
X429762Y468382D01*
X430773Y469894D01*
X431128Y471678D01*
X430773Y473462D01*
X429762Y474974D01*
X428250Y475985D01*
X426466Y476340D01*
D02*
G37*
G36*
X185420Y473638D02*
X183636Y473283D01*
X182124Y472272D01*
X181113Y470760D01*
X180758Y468976D01*
X181113Y467192D01*
X182124Y465680D01*
X183636Y464669D01*
X185420Y464314D01*
X187204Y464669D01*
X188716Y465680D01*
X189727Y467192D01*
X190082Y468976D01*
X189727Y470760D01*
X188716Y472272D01*
X187204Y473283D01*
X185420Y473638D01*
D02*
G37*
G36*
X693166Y470752D02*
X691382Y470397D01*
X689870Y469386D01*
X688859Y467874D01*
X688504Y466090D01*
X688859Y464306D01*
X689870Y462794D01*
X691382Y461783D01*
X693166Y461428D01*
X694950Y461783D01*
X696462Y462794D01*
X697473Y464306D01*
X697828Y466090D01*
X697473Y467874D01*
X696462Y469386D01*
X694950Y470397D01*
X693166Y470752D01*
D02*
G37*
G36*
X426720Y465418D02*
X424936Y465063D01*
X423424Y464052D01*
X422413Y462540D01*
X422058Y460756D01*
X422413Y458972D01*
X423424Y457460D01*
X424936Y456449D01*
X426720Y456094D01*
X428504Y456449D01*
X430016Y457460D01*
X431027Y458972D01*
X431382Y460756D01*
X431027Y462540D01*
X430016Y464052D01*
X428504Y465063D01*
X426720Y465418D01*
D02*
G37*
G36*
X387742Y470398D02*
X385958Y470043D01*
X384446Y469032D01*
X383435Y467520D01*
X383080Y465736D01*
X383435Y463952D01*
X384446Y462440D01*
X385958Y461429D01*
X387742Y461074D01*
X389526Y461429D01*
X390554Y462116D01*
X391697Y461353D01*
X391578Y460756D01*
X391933Y458972D01*
X392944Y457460D01*
X394456Y456449D01*
X396240Y456094D01*
X398024Y456449D01*
X399536Y457460D01*
X400547Y458972D01*
X400902Y460756D01*
X400547Y462540D01*
X399536Y464052D01*
X398024Y465063D01*
X396240Y465418D01*
X394456Y465063D01*
X393428Y464376D01*
X392285Y465139D01*
X392404Y465736D01*
X392049Y467520D01*
X391038Y469032D01*
X389526Y470043D01*
X387742Y470398D01*
D02*
G37*
G36*
X338328Y452464D02*
X336544Y452109D01*
X335032Y451098D01*
X334584Y450428D01*
X333845Y449672D01*
X332957Y450104D01*
X332238Y450585D01*
X330454Y450940D01*
X328670Y450585D01*
X327158Y449574D01*
X326147Y448062D01*
X325792Y446278D01*
X326147Y444494D01*
X327158Y442982D01*
X328670Y441971D01*
X330454Y441616D01*
X332238Y441971D01*
X333750Y442982D01*
X334198Y443652D01*
X334937Y444408D01*
X335825Y443975D01*
X336544Y443495D01*
X338328Y443140D01*
X340112Y443495D01*
X341624Y444506D01*
X342635Y446018D01*
X342990Y447802D01*
X342635Y449586D01*
X341624Y451098D01*
X340112Y452109D01*
X338328Y452464D01*
D02*
G37*
G36*
X503370Y457378D02*
X501586Y457023D01*
X500074Y456012D01*
X499063Y454500D01*
X498708Y452716D01*
X499063Y450932D01*
X500074Y449420D01*
X501586Y448409D01*
X503370Y448055D01*
X505154Y448409D01*
X506666Y449420D01*
X507677Y450932D01*
X508032Y452716D01*
X507677Y454500D01*
X506666Y456012D01*
X505154Y457023D01*
X503370Y457378D01*
D02*
G37*
G36*
X596226Y457290D02*
X594442Y456935D01*
X592930Y455924D01*
X591919Y454412D01*
X591564Y452628D01*
X591919Y450844D01*
X592930Y449332D01*
X594442Y448321D01*
X596226Y447966D01*
X598010Y448321D01*
X599522Y449332D01*
X600533Y450844D01*
X600888Y452628D01*
X600533Y454412D01*
X599522Y455924D01*
X598010Y456935D01*
X596226Y457290D01*
D02*
G37*
G36*
X587502Y450940D02*
X585718Y450585D01*
X584206Y449574D01*
X583195Y448062D01*
X582840Y446278D01*
X583195Y444494D01*
X584206Y442982D01*
X585718Y441971D01*
X587502Y441616D01*
X589286Y441971D01*
X590798Y442982D01*
X591809Y444494D01*
X592164Y446278D01*
X591809Y448062D01*
X590798Y449574D01*
X589286Y450585D01*
X587502Y450940D01*
D02*
G37*
G36*
X66294Y446114D02*
X64510Y445759D01*
X62998Y444748D01*
X61987Y443236D01*
X61632Y441452D01*
X61987Y439668D01*
X62998Y438156D01*
X64510Y437145D01*
X66294Y436790D01*
X68078Y437145D01*
X69590Y438156D01*
X70601Y439668D01*
X70956Y441452D01*
X70601Y443236D01*
X69590Y444748D01*
X68078Y445759D01*
X66294Y446114D01*
D02*
G37*
G36*
X409448Y445606D02*
X407664Y445251D01*
X406152Y444240D01*
X405141Y442728D01*
X404786Y440944D01*
X405141Y439160D01*
X406152Y437648D01*
X407664Y436637D01*
X409448Y436282D01*
X411232Y436637D01*
X412744Y437648D01*
X413755Y439160D01*
X414110Y440944D01*
X413755Y442728D01*
X412744Y444240D01*
X411232Y445251D01*
X409448Y445606D01*
D02*
G37*
G36*
X425450Y440272D02*
X423666Y439917D01*
X422154Y438906D01*
X421143Y437394D01*
X420788Y435610D01*
X421143Y433826D01*
X422154Y432314D01*
X423666Y431303D01*
X425450Y430948D01*
X427234Y431303D01*
X428746Y432314D01*
X429757Y433826D01*
X430112Y435610D01*
X429757Y437394D01*
X428746Y438906D01*
X427234Y439917D01*
X425450Y440272D01*
D02*
G37*
G36*
X271526Y439764D02*
X269742Y439409D01*
X268230Y438398D01*
X267219Y436886D01*
X266864Y435102D01*
X267219Y433318D01*
X268230Y431806D01*
X269742Y430795D01*
X271526Y430440D01*
X273310Y430795D01*
X274822Y431806D01*
X275833Y433318D01*
X276188Y435102D01*
X275833Y436886D01*
X274822Y438398D01*
X273310Y439409D01*
X271526Y439764D01*
D02*
G37*
G36*
X201400D02*
X199616Y439409D01*
X198104Y438398D01*
X197093Y436886D01*
X196738Y435102D01*
X197093Y433318D01*
X198104Y431806D01*
X199616Y430795D01*
X201400Y430440D01*
X203184Y430795D01*
X204696Y431806D01*
X205707Y433318D01*
X206062Y435102D01*
X205707Y436886D01*
X204696Y438398D01*
X203184Y439409D01*
X201400Y439764D01*
D02*
G37*
G36*
X587502Y437878D02*
X585718Y437523D01*
X584206Y436512D01*
X583195Y435000D01*
X582840Y433216D01*
X583195Y431432D01*
X584206Y429920D01*
X585718Y428909D01*
X587502Y428554D01*
X589286Y428909D01*
X590798Y429920D01*
X591809Y431432D01*
X592164Y433216D01*
X591809Y435000D01*
X590798Y436512D01*
X589286Y437523D01*
X587502Y437878D01*
D02*
G37*
G36*
X746506Y434978D02*
X744722Y434623D01*
X743210Y433612D01*
X742199Y432100D01*
X741844Y430316D01*
X742199Y428532D01*
X743210Y427020D01*
X744722Y426009D01*
X746506Y425654D01*
X748290Y426009D01*
X749802Y427020D01*
X750813Y428532D01*
X751168Y430316D01*
X750813Y432100D01*
X749802Y433612D01*
X748290Y434623D01*
X746506Y434978D01*
D02*
G37*
G36*
X345186Y434176D02*
X343402Y433821D01*
X341890Y432810D01*
X340879Y431298D01*
X340524Y429514D01*
X340879Y427730D01*
X341890Y426218D01*
X343402Y425207D01*
X345186Y424852D01*
X346970Y425207D01*
X348482Y426218D01*
X349493Y427730D01*
X349848Y429514D01*
X349493Y431298D01*
X348482Y432810D01*
X346970Y433821D01*
X345186Y434176D01*
D02*
G37*
G36*
X352806Y441542D02*
X351022Y441187D01*
X349510Y440176D01*
X348499Y438664D01*
X348144Y436880D01*
X348499Y435096D01*
X349510Y433584D01*
X351022Y432573D01*
X351741Y432430D01*
X351782Y432386D01*
X352223Y431040D01*
X351547Y430028D01*
X351192Y428244D01*
X351547Y426460D01*
X352558Y424948D01*
X354070Y423937D01*
X355854Y423582D01*
X357638Y423937D01*
X359150Y424948D01*
X360161Y426460D01*
X360516Y428244D01*
X360161Y430028D01*
X359150Y431540D01*
X357638Y432551D01*
X356919Y432694D01*
X356878Y432738D01*
X356437Y434085D01*
X357113Y435096D01*
X357468Y436880D01*
X357113Y438664D01*
X356102Y440176D01*
X354590Y441187D01*
X352806Y441542D01*
D02*
G37*
G36*
X73914Y432398D02*
X72130Y432043D01*
X70618Y431032D01*
X69607Y429520D01*
X69252Y427736D01*
X69607Y425952D01*
X70618Y424440D01*
X72130Y423429D01*
X73914Y423074D01*
X75698Y423429D01*
X77210Y424440D01*
X78221Y425952D01*
X78576Y427736D01*
X78221Y429520D01*
X77210Y431032D01*
X75698Y432043D01*
X73914Y432398D01*
D02*
G37*
G36*
X674370Y432296D02*
X672586Y431941D01*
X671074Y430930D01*
X670063Y429418D01*
X669708Y427634D01*
X670063Y425850D01*
X671074Y424338D01*
X672586Y423327D01*
X674370Y422972D01*
X676154Y423327D01*
X677666Y424338D01*
X678677Y425850D01*
X679032Y427634D01*
X678677Y429418D01*
X677666Y430930D01*
X676154Y431941D01*
X674370Y432296D01*
D02*
G37*
G36*
X246960Y431890D02*
X245176Y431535D01*
X243664Y430524D01*
X242653Y429012D01*
X242299Y427228D01*
X242653Y425444D01*
X243664Y423932D01*
X245176Y422921D01*
X246960Y422566D01*
X248744Y422921D01*
X250256Y423932D01*
X251267Y425444D01*
X251622Y427228D01*
X251267Y429012D01*
X250256Y430524D01*
X248744Y431535D01*
X246960Y431890D01*
D02*
G37*
G36*
X151130Y426302D02*
X149346Y425947D01*
X147834Y424936D01*
X146823Y423424D01*
X146468Y421640D01*
X146823Y419856D01*
X147834Y418344D01*
X149346Y417333D01*
X151130Y416978D01*
X152914Y417333D01*
X154426Y418344D01*
X155437Y419856D01*
X155792Y421640D01*
X155437Y423424D01*
X154426Y424936D01*
X152914Y425947D01*
X151130Y426302D01*
D02*
G37*
G36*
X106934Y421984D02*
X105150Y421629D01*
X103638Y420618D01*
X102627Y419106D01*
X102272Y417322D01*
X102627Y415538D01*
X103638Y414026D01*
X105150Y413015D01*
X106934Y412660D01*
X108718Y413015D01*
X110230Y414026D01*
X111241Y415538D01*
X111596Y417322D01*
X111241Y419106D01*
X110230Y420618D01*
X108718Y421629D01*
X106934Y421984D01*
D02*
G37*
G36*
X596138Y418428D02*
X594354Y418073D01*
X592842Y417062D01*
X591831Y415550D01*
X591476Y413766D01*
X591831Y411982D01*
X592842Y410470D01*
X594354Y409459D01*
X596138Y409104D01*
X597922Y409459D01*
X599434Y410470D01*
X600445Y411982D01*
X600800Y413766D01*
X600445Y415550D01*
X599434Y417062D01*
X597922Y418073D01*
X596138Y418428D01*
D02*
G37*
G36*
X806704Y415598D02*
X804920Y415243D01*
X803408Y414232D01*
X802397Y412720D01*
X802042Y410936D01*
X802397Y409152D01*
X803408Y407640D01*
X804920Y406629D01*
X806704Y406274D01*
X808488Y406629D01*
X810000Y407640D01*
X811011Y409152D01*
X811366Y410936D01*
X811011Y412720D01*
X810000Y414232D01*
X808488Y415243D01*
X806704Y415598D01*
D02*
G37*
G36*
X283718Y413602D02*
X281934Y413247D01*
X280422Y412236D01*
X279411Y410724D01*
X279056Y408940D01*
X279411Y407156D01*
X280422Y405644D01*
X281934Y404633D01*
X283718Y404278D01*
X285502Y404633D01*
X287014Y405644D01*
X288025Y407156D01*
X288380Y408940D01*
X288025Y410724D01*
X287014Y412236D01*
X285502Y413247D01*
X283718Y413602D01*
D02*
G37*
G36*
X614426Y408522D02*
X612642Y408167D01*
X611130Y407156D01*
X610119Y405644D01*
X609764Y403860D01*
X609873Y403317D01*
X608676Y402821D01*
X607816Y404108D01*
X606304Y405119D01*
X604520Y405474D01*
X602736Y405119D01*
X601224Y404108D01*
X600213Y402596D01*
X599858Y400812D01*
X600213Y399028D01*
X601224Y397516D01*
X602736Y396505D01*
X604520Y396150D01*
X606304Y396505D01*
X607816Y397516D01*
X608827Y399028D01*
X609182Y400812D01*
X609073Y401355D01*
X610270Y401851D01*
X611130Y400564D01*
X612642Y399553D01*
X614426Y399198D01*
X616210Y399553D01*
X617722Y400564D01*
X618733Y402076D01*
X619088Y403860D01*
X618733Y405644D01*
X617722Y407156D01*
X616210Y408167D01*
X614426Y408522D01*
D02*
G37*
G36*
X207900Y408268D02*
X206116Y407913D01*
X204604Y406902D01*
X203593Y405390D01*
X203239Y403606D01*
X203593Y401822D01*
X204604Y400310D01*
X206116Y399299D01*
X207900Y398944D01*
X209684Y399299D01*
X211196Y400310D01*
X212207Y401822D01*
X212562Y403606D01*
X212207Y405390D01*
X211196Y406902D01*
X209684Y407913D01*
X207900Y408268D01*
D02*
G37*
G36*
X332994Y405982D02*
X331210Y405627D01*
X329698Y404616D01*
X328687Y403104D01*
X328332Y401320D01*
X328687Y399536D01*
X329698Y398024D01*
X331210Y397013D01*
X332994Y396658D01*
X334778Y397013D01*
X336290Y398024D01*
X337301Y399536D01*
X337656Y401320D01*
X337301Y403104D01*
X336290Y404616D01*
X334778Y405627D01*
X332994Y405982D01*
D02*
G37*
G36*
X511810Y406998D02*
X510026Y406643D01*
X508514Y405632D01*
X507503Y404120D01*
X507148Y402336D01*
X507503Y400552D01*
X508514Y399040D01*
X510026Y398029D01*
X511810Y397674D01*
X513594Y398029D01*
X515106Y399040D01*
X515529Y399672D01*
X516877Y399404D01*
X516901Y399282D01*
X517912Y397770D01*
X519424Y396759D01*
X521208Y396404D01*
X522992Y396759D01*
X524504Y397770D01*
X525515Y399282D01*
X525870Y401066D01*
X525515Y402850D01*
X524504Y404362D01*
X522992Y405373D01*
X521208Y405728D01*
X519424Y405373D01*
X517912Y404362D01*
X517489Y403730D01*
X516141Y403998D01*
X516117Y404120D01*
X515106Y405632D01*
X513594Y406643D01*
X511810Y406998D01*
D02*
G37*
G36*
X457962Y405474D02*
X456178Y405119D01*
X454666Y404108D01*
X453655Y402596D01*
X453300Y400812D01*
X453655Y399028D01*
X454666Y397516D01*
X456178Y396505D01*
X457962Y396150D01*
X459746Y396505D01*
X461258Y397516D01*
X462269Y399028D01*
X462624Y400812D01*
X462269Y402596D01*
X461258Y404108D01*
X459746Y405119D01*
X457962Y405474D01*
D02*
G37*
G36*
X260858Y401156D02*
X259074Y400801D01*
X257562Y399790D01*
X256551Y398278D01*
X256196Y396494D01*
X256551Y394710D01*
X257562Y393198D01*
X259074Y392187D01*
X260858Y391832D01*
X262642Y392187D01*
X264154Y393198D01*
X265165Y394710D01*
X265520Y396494D01*
X265165Y398278D01*
X264154Y399790D01*
X262642Y400801D01*
X260858Y401156D01*
D02*
G37*
G36*
X621792Y399378D02*
X620008Y399023D01*
X618496Y398012D01*
X617485Y396500D01*
X617130Y394716D01*
X617485Y392932D01*
X618496Y391420D01*
X620008Y390409D01*
X621792Y390054D01*
X623576Y390409D01*
X625088Y391420D01*
X626099Y392932D01*
X626454Y394716D01*
X626099Y396500D01*
X625088Y398012D01*
X623576Y399023D01*
X621792Y399378D01*
D02*
G37*
G36*
X570738D02*
X568954Y399023D01*
X567442Y398012D01*
X566431Y396500D01*
X566076Y394716D01*
X566431Y392932D01*
X567442Y391420D01*
X568954Y390409D01*
X570738Y390054D01*
X572522Y390409D01*
X574034Y391420D01*
X575045Y392932D01*
X575400Y394716D01*
X575045Y396500D01*
X574034Y398012D01*
X572522Y399023D01*
X570738Y399378D01*
D02*
G37*
G36*
X818134Y415598D02*
X816350Y415243D01*
X814838Y414232D01*
X813827Y412720D01*
X813472Y410936D01*
X813827Y409152D01*
X814838Y407640D01*
X816350Y406629D01*
X818134Y406274D01*
X819412Y406529D01*
X820181Y405394D01*
X819669Y404628D01*
X819314Y402844D01*
X819669Y401060D01*
X820680Y399548D01*
X821283Y399145D01*
Y397617D01*
X820680Y397214D01*
X819669Y395702D01*
X819314Y393918D01*
X819669Y392134D01*
X820680Y390622D01*
X822192Y389611D01*
X823976Y389256D01*
X825760Y389611D01*
X827272Y390622D01*
X828283Y392134D01*
X828638Y393918D01*
X828283Y395702D01*
X827272Y397214D01*
X826669Y397617D01*
Y399145D01*
X827272Y399548D01*
X828283Y401060D01*
X828638Y402844D01*
X828283Y404628D01*
X827272Y406140D01*
X825760Y407151D01*
X823976Y407506D01*
X822698Y407251D01*
X821929Y408386D01*
X822441Y409152D01*
X822796Y410936D01*
X822441Y412720D01*
X821430Y414232D01*
X819918Y415243D01*
X818134Y415598D01*
D02*
G37*
G36*
X284226Y400648D02*
X282442Y400293D01*
X280930Y399282D01*
X279919Y397770D01*
X279564Y395986D01*
X279919Y394202D01*
X280930Y392690D01*
X282442Y391679D01*
X284226Y391324D01*
X284987Y391476D01*
X286167Y390907D01*
X286243Y390529D01*
X286523Y389122D01*
X287534Y387610D01*
X289046Y386599D01*
X290830Y386244D01*
X292614Y386599D01*
X294126Y387610D01*
X295137Y389122D01*
X295492Y390906D01*
X295137Y392690D01*
X294126Y394202D01*
X292614Y395213D01*
X290830Y395568D01*
X290069Y395416D01*
X288889Y395985D01*
X288813Y396363D01*
X288533Y397770D01*
X287522Y399282D01*
X286010Y400293D01*
X284226Y400648D01*
D02*
G37*
G36*
X300816Y391838D02*
X299032Y391483D01*
X297520Y390472D01*
X296509Y388960D01*
X296154Y387176D01*
X296483Y385522D01*
X295784Y384366D01*
X295656Y384392D01*
X293872Y384037D01*
X292360Y383026D01*
X291349Y381514D01*
X290994Y379730D01*
X291349Y377946D01*
X292360Y376434D01*
X293872Y375423D01*
X295656Y375068D01*
X297440Y375423D01*
X298952Y376434D01*
X299963Y377946D01*
X300318Y379730D01*
X299988Y381384D01*
X300688Y382540D01*
X300816Y382514D01*
X302600Y382869D01*
X304112Y383880D01*
X305123Y385392D01*
X305478Y387176D01*
X305123Y388960D01*
X304112Y390472D01*
X302600Y391483D01*
X300816Y391838D01*
D02*
G37*
G36*
X671811Y392658D02*
X670027Y392303D01*
X668515Y391292D01*
X667504Y389780D01*
X667150Y387996D01*
X667504Y386212D01*
X668515Y384700D01*
X670027Y383689D01*
X671811Y383335D01*
X673595Y383689D01*
X675107Y384700D01*
X676118Y386212D01*
X676473Y387996D01*
X676118Y389780D01*
X675107Y391292D01*
X673595Y392303D01*
X671811Y392658D01*
D02*
G37*
G36*
X506984Y389980D02*
X505200Y389625D01*
X503688Y388614D01*
X502677Y387102D01*
X502322Y385318D01*
X502677Y383534D01*
X503688Y382022D01*
X505200Y381011D01*
X506984Y380656D01*
X508768Y381011D01*
X510280Y382022D01*
X511291Y383534D01*
X511646Y385318D01*
X511291Y387102D01*
X510280Y388614D01*
X508768Y389625D01*
X506984Y389980D01*
D02*
G37*
G36*
X988276Y406978D02*
X961212D01*
Y379914D01*
X988276D01*
Y406978D01*
D02*
G37*
G36*
X1024744Y407095D02*
X1021211Y406630D01*
X1017920Y405266D01*
X1015093Y403097D01*
X1012924Y400270D01*
X1011560Y396979D01*
X1011095Y393446D01*
X1011560Y389913D01*
X1012924Y386622D01*
X1015093Y383795D01*
X1017920Y381626D01*
X1021211Y380262D01*
X1024744Y379797D01*
X1028277Y380262D01*
X1031568Y381626D01*
X1034395Y383795D01*
X1036564Y386622D01*
X1037928Y389913D01*
X1038393Y393446D01*
X1037928Y396979D01*
X1036564Y400270D01*
X1034395Y403097D01*
X1031568Y405266D01*
X1028277Y406630D01*
X1024744Y407095D01*
D02*
G37*
G36*
X818134Y387150D02*
X816350Y386795D01*
X814838Y385784D01*
X813827Y384272D01*
X813472Y382488D01*
X813827Y380704D01*
X814838Y379192D01*
X816350Y378181D01*
X818134Y377826D01*
X819918Y378181D01*
X821430Y379192D01*
X822441Y380704D01*
X822796Y382488D01*
X822441Y384272D01*
X821430Y385784D01*
X819918Y386795D01*
X818134Y387150D01*
D02*
G37*
G36*
X806870D02*
X805086Y386795D01*
X803574Y385784D01*
X802563Y384272D01*
X802209Y382488D01*
X802563Y380704D01*
X803574Y379192D01*
X805086Y378181D01*
X806870Y377826D01*
X808654Y378181D01*
X810166Y379192D01*
X811177Y380704D01*
X811532Y382488D01*
X811177Y384272D01*
X810166Y385784D01*
X808654Y386795D01*
X806870Y387150D01*
D02*
G37*
G36*
X147574Y382868D02*
X145790Y382513D01*
X144278Y381502D01*
X143267Y379990D01*
X142912Y378206D01*
X143267Y376422D01*
X144278Y374910D01*
X145790Y373899D01*
X147574Y373544D01*
X149358Y373899D01*
X150870Y374910D01*
X151881Y376422D01*
X152236Y378206D01*
X151881Y379990D01*
X150870Y381502D01*
X149358Y382513D01*
X147574Y382868D01*
D02*
G37*
G36*
X621538Y382614D02*
X619754Y382259D01*
X618242Y381248D01*
X617231Y379736D01*
X616876Y377952D01*
X617231Y376168D01*
X618242Y374656D01*
X619754Y373645D01*
X621538Y373290D01*
X623322Y373645D01*
X624834Y374656D01*
X625845Y376168D01*
X626200Y377952D01*
X625845Y379736D01*
X624834Y381248D01*
X623322Y382259D01*
X621538Y382614D01*
D02*
G37*
G36*
X526542Y382360D02*
X524758Y382005D01*
X523246Y380994D01*
X522235Y379482D01*
X521880Y377698D01*
X522235Y375914D01*
X523246Y374402D01*
X524758Y373391D01*
X526542Y373036D01*
X528326Y373391D01*
X529838Y374402D01*
X530849Y375914D01*
X531204Y377698D01*
X530849Y379482D01*
X529838Y380994D01*
X528326Y382005D01*
X526542Y382360D01*
D02*
G37*
G36*
X480090Y380582D02*
X478306Y380227D01*
X476794Y379216D01*
X475783Y377704D01*
X475429Y375920D01*
X475783Y374136D01*
X476794Y372624D01*
X478306Y371613D01*
X480090Y371258D01*
X481874Y371613D01*
X483386Y372624D01*
X484397Y374136D01*
X484752Y375920D01*
X484397Y377704D01*
X483386Y379216D01*
X481874Y380227D01*
X480090Y380582D01*
D02*
G37*
G36*
X211836Y378051D02*
X209457Y377578D01*
X207441Y376231D01*
X206094Y374215D01*
X205621Y371836D01*
X206094Y369458D01*
X207441Y367441D01*
X209457Y366094D01*
X211836Y365621D01*
X214214Y366094D01*
X216231Y367441D01*
X217578Y369458D01*
X218051Y371836D01*
X217578Y374215D01*
X216231Y376231D01*
X214214Y377578D01*
X211836Y378051D01*
D02*
G37*
G36*
X368592Y377795D02*
X366213Y377322D01*
X364197Y375975D01*
X362850Y373959D01*
X362377Y371580D01*
X362850Y369201D01*
X364197Y367185D01*
X366213Y365838D01*
X368592Y365364D01*
X370970Y365838D01*
X372987Y367185D01*
X374334Y369201D01*
X374807Y371580D01*
X374334Y373959D01*
X372987Y375975D01*
X370970Y377322D01*
X368592Y377795D01*
D02*
G37*
G36*
X107696Y352902D02*
X105912Y352547D01*
X104400Y351536D01*
X103389Y350024D01*
X103034Y348240D01*
X103389Y346456D01*
X104400Y344944D01*
X105912Y343933D01*
X107696Y343578D01*
X109480Y343933D01*
X110992Y344944D01*
X112003Y346456D01*
X112358Y348240D01*
X112003Y350024D01*
X110992Y351536D01*
X109480Y352547D01*
X107696Y352902D01*
D02*
G37*
G36*
X828040Y352860D02*
X826256Y352505D01*
X824744Y351494D01*
X823733Y349982D01*
X823378Y348198D01*
X823733Y346414D01*
X824744Y344902D01*
X826256Y343891D01*
X828040Y343536D01*
X829824Y343891D01*
X831336Y344902D01*
X832347Y346414D01*
X832702Y348198D01*
X832347Y349982D01*
X831336Y351494D01*
X829824Y352505D01*
X828040Y352860D01*
D02*
G37*
G36*
X332994Y351372D02*
X331210Y351017D01*
X329698Y350006D01*
X328687Y348494D01*
X328332Y346710D01*
X328687Y344926D01*
X329698Y343414D01*
X331210Y342403D01*
X332994Y342048D01*
X334778Y342403D01*
X336290Y343414D01*
X337301Y344926D01*
X337656Y346710D01*
X337301Y348494D01*
X336290Y350006D01*
X334778Y351017D01*
X332994Y351372D01*
D02*
G37*
G36*
X260858D02*
X259074Y351017D01*
X257562Y350006D01*
X256551Y348494D01*
X256196Y346710D01*
X256551Y344926D01*
X257562Y343414D01*
X259074Y342403D01*
X260858Y342048D01*
X262642Y342403D01*
X264154Y343414D01*
X265165Y344926D01*
X265520Y346710D01*
X265165Y348494D01*
X264154Y350006D01*
X262642Y351017D01*
X260858Y351372D01*
D02*
G37*
G36*
X659718Y350560D02*
X657934Y350205D01*
X656422Y349194D01*
X655411Y347682D01*
X655056Y345898D01*
X655411Y344114D01*
X656422Y342602D01*
X657934Y341591D01*
X659718Y341236D01*
X661502Y341591D01*
X663014Y342602D01*
X664025Y344114D01*
X664380Y345898D01*
X664025Y347682D01*
X663014Y349194D01*
X661502Y350205D01*
X659718Y350560D01*
D02*
G37*
G36*
X252476Y344006D02*
X250692Y343651D01*
X249180Y342640D01*
X248169Y341128D01*
X247814Y339344D01*
X248169Y337560D01*
X249180Y336048D01*
X250692Y335037D01*
X252476Y334682D01*
X254260Y335037D01*
X255772Y336048D01*
X256783Y337560D01*
X257138Y339344D01*
X256783Y341128D01*
X255772Y342640D01*
X254260Y343651D01*
X252476Y344006D01*
D02*
G37*
G36*
X482102Y341212D02*
X480318Y340857D01*
X478806Y339846D01*
X477795Y338334D01*
X477440Y336550D01*
X477795Y334766D01*
X478806Y333254D01*
X480318Y332243D01*
X482102Y331888D01*
X483886Y332243D01*
X485398Y333254D01*
X486409Y334766D01*
X486764Y336550D01*
X486409Y338334D01*
X485398Y339846D01*
X483886Y340857D01*
X482102Y341212D01*
D02*
G37*
G36*
X448564Y348832D02*
X446780Y348477D01*
X445268Y347466D01*
X444257Y345954D01*
X443902Y344170D01*
X444257Y342386D01*
X444752Y341646D01*
X444109Y340321D01*
X442970Y340095D01*
X441458Y339084D01*
X440447Y337572D01*
X440092Y335788D01*
X440447Y334004D01*
X441458Y332492D01*
X442970Y331481D01*
X444754Y331126D01*
X446538Y331481D01*
X448050Y332492D01*
X449061Y334004D01*
X449416Y335788D01*
X449061Y337572D01*
X448566Y338312D01*
X449208Y339637D01*
X450348Y339863D01*
X451860Y340874D01*
X452871Y342386D01*
X453226Y344170D01*
X452871Y345954D01*
X451860Y347466D01*
X450348Y348477D01*
X448564Y348832D01*
D02*
G37*
G36*
X482102Y328512D02*
X480318Y328157D01*
X478806Y327146D01*
X477795Y325634D01*
X477440Y323850D01*
X477795Y322066D01*
X478806Y320554D01*
X480318Y319543D01*
X482102Y319188D01*
X483886Y319543D01*
X485398Y320554D01*
X486409Y322066D01*
X486764Y323850D01*
X486409Y325634D01*
X485398Y327146D01*
X483886Y328157D01*
X482102Y328512D01*
D02*
G37*
G36*
X686876Y325714D02*
X685092Y325359D01*
X683580Y324348D01*
X682569Y322836D01*
X682214Y321052D01*
X682569Y319268D01*
X683580Y317756D01*
X685092Y316745D01*
X686876Y316390D01*
X688660Y316745D01*
X690172Y317756D01*
X691183Y319268D01*
X691538Y321052D01*
X691183Y322836D01*
X690172Y324348D01*
X688660Y325359D01*
X686876Y325714D01*
D02*
G37*
G36*
X673604D02*
X671820Y325359D01*
X670308Y324348D01*
X669297Y322836D01*
X668942Y321052D01*
X669297Y319268D01*
X670308Y317756D01*
X671820Y316745D01*
X673604Y316390D01*
X675388Y316745D01*
X676900Y317756D01*
X677911Y319268D01*
X678266Y321052D01*
X677911Y322836D01*
X676900Y324348D01*
X675388Y325359D01*
X673604Y325714D01*
D02*
G37*
G36*
X622098Y325210D02*
X620314Y324855D01*
X618802Y323844D01*
X617791Y322332D01*
X617436Y320548D01*
X617791Y318764D01*
X618802Y317252D01*
X620314Y316241D01*
X622098Y315886D01*
X623882Y316241D01*
X625394Y317252D01*
X626405Y318764D01*
X626760Y320548D01*
X626405Y322332D01*
X625394Y323844D01*
X623882Y324855D01*
X622098Y325210D01*
D02*
G37*
G36*
X131572Y324448D02*
X129788Y324093D01*
X128276Y323082D01*
X127265Y321570D01*
X126910Y319786D01*
X127265Y318002D01*
X128276Y316490D01*
X129788Y315479D01*
X131572Y315124D01*
X133356Y315479D01*
X134868Y316490D01*
X135879Y318002D01*
X136234Y319786D01*
X135879Y321570D01*
X134868Y323082D01*
X133356Y324093D01*
X131572Y324448D01*
D02*
G37*
G36*
X73660Y320130D02*
X71876Y319775D01*
X70364Y318764D01*
X69353Y317252D01*
X68998Y315468D01*
X69353Y313684D01*
X70364Y312172D01*
X71876Y311161D01*
X73660Y310806D01*
X75444Y311161D01*
X76956Y312172D01*
X77967Y313684D01*
X78322Y315468D01*
X77967Y317252D01*
X76956Y318764D01*
X75444Y319775D01*
X73660Y320130D01*
D02*
G37*
G36*
X576326Y319114D02*
X574542Y318759D01*
X573030Y317748D01*
X572019Y316236D01*
X571664Y314452D01*
X572019Y312668D01*
X573030Y311156D01*
X574542Y310145D01*
X576326Y309790D01*
X578110Y310145D01*
X579622Y311156D01*
X580633Y312668D01*
X580988Y314452D01*
X580633Y316236D01*
X579622Y317748D01*
X578110Y318759D01*
X576326Y319114D01*
D02*
G37*
G36*
X62484Y312256D02*
X60700Y311901D01*
X59188Y310890D01*
X58177Y309378D01*
X57822Y307594D01*
X58177Y305810D01*
X59188Y304298D01*
X60700Y303287D01*
X62484Y302932D01*
X64268Y303287D01*
X65780Y304298D01*
X66791Y305810D01*
X67146Y307594D01*
X66791Y309378D01*
X65780Y310890D01*
X64268Y311901D01*
X62484Y312256D01*
D02*
G37*
G36*
X84328Y301588D02*
X82544Y301233D01*
X81032Y300222D01*
X80021Y298710D01*
X79666Y296926D01*
X80021Y295142D01*
X81032Y293630D01*
X82544Y292619D01*
X84328Y292264D01*
X86112Y292619D01*
X87624Y293630D01*
X88635Y295142D01*
X88990Y296926D01*
X88635Y298710D01*
X87624Y300222D01*
X86112Y301233D01*
X84328Y301588D01*
D02*
G37*
G36*
X686812Y298798D02*
X685028Y298443D01*
X683516Y297432D01*
X682505Y295920D01*
X682150Y294136D01*
X682505Y292352D01*
X683516Y290840D01*
X685028Y289829D01*
X686812Y289475D01*
X688596Y289829D01*
X690108Y290840D01*
X691119Y292352D01*
X691473Y294136D01*
X691119Y295920D01*
X690108Y297432D01*
X688596Y298443D01*
X686812Y298798D01*
D02*
G37*
G36*
X673604D02*
X671820Y298443D01*
X670308Y297432D01*
X669297Y295920D01*
X668942Y294136D01*
X669297Y292352D01*
X670308Y290840D01*
X671820Y289829D01*
X673604Y289475D01*
X675388Y289829D01*
X676900Y290840D01*
X677911Y292352D01*
X678266Y294136D01*
X677911Y295920D01*
X676900Y297432D01*
X675388Y298443D01*
X673604Y298798D01*
D02*
G37*
G36*
X697484Y295673D02*
X695700Y295318D01*
X694188Y294307D01*
X693177Y292795D01*
X692822Y291011D01*
X693177Y289227D01*
X694188Y287715D01*
X695700Y286704D01*
X697484Y286350D01*
X699268Y286704D01*
X700780Y287715D01*
X701791Y289227D01*
X702146Y291011D01*
X701791Y292795D01*
X700780Y294307D01*
X699268Y295318D01*
X697484Y295673D01*
D02*
G37*
G36*
X84328Y289650D02*
X82544Y289295D01*
X81032Y288284D01*
X80021Y286772D01*
X79666Y284988D01*
X80021Y283204D01*
X81032Y281692D01*
X82544Y280681D01*
X84328Y280326D01*
X86112Y280681D01*
X87624Y281692D01*
X88635Y283204D01*
X88990Y284988D01*
X88635Y286772D01*
X87624Y288284D01*
X86112Y289295D01*
X84328Y289650D01*
D02*
G37*
G36*
X548964Y288412D02*
X547180Y288057D01*
X545668Y287046D01*
X544657Y285534D01*
X544302Y283750D01*
X544657Y281966D01*
X545668Y280454D01*
X547180Y279443D01*
X548964Y279088D01*
X550748Y279443D01*
X552260Y280454D01*
X553271Y281966D01*
X553626Y283750D01*
X553271Y285534D01*
X552260Y287046D01*
X550748Y288057D01*
X548964Y288412D01*
D02*
G37*
G36*
X746626Y286780D02*
X744842Y286425D01*
X743330Y285414D01*
X742319Y283902D01*
X741964Y282118D01*
X742319Y280334D01*
X743330Y278822D01*
X744842Y277811D01*
X746626Y277456D01*
X748410Y277811D01*
X749922Y278822D01*
X750933Y280334D01*
X751288Y282118D01*
X750933Y283902D01*
X749922Y285414D01*
X748410Y286425D01*
X746626Y286780D01*
D02*
G37*
G36*
X103632Y284316D02*
X101848Y283961D01*
X100336Y282950D01*
X99325Y281438D01*
X98970Y279654D01*
X99325Y277870D01*
X100336Y276358D01*
X101848Y275347D01*
X103632Y274992D01*
X105416Y275347D01*
X106928Y276358D01*
X107939Y277870D01*
X108294Y279654D01*
X107939Y281438D01*
X106928Y282950D01*
X105416Y283961D01*
X103632Y284316D01*
D02*
G37*
G36*
X482912Y283866D02*
X481128Y283511D01*
X479616Y282500D01*
X478605Y280988D01*
X478250Y279204D01*
X478605Y277420D01*
X479616Y275908D01*
X481128Y274897D01*
X482912Y274542D01*
X484696Y274897D01*
X486208Y275908D01*
X487219Y277420D01*
X487574Y279204D01*
X487219Y280988D01*
X486208Y282500D01*
X484696Y283511D01*
X482912Y283866D01*
D02*
G37*
G36*
X62484Y283046D02*
X60700Y282691D01*
X59188Y281680D01*
X58177Y280168D01*
X57822Y278384D01*
X58177Y276600D01*
X59188Y275088D01*
X60700Y274077D01*
X62484Y273722D01*
X64268Y274077D01*
X65780Y275088D01*
X66791Y276600D01*
X67146Y278384D01*
X66791Y280168D01*
X65780Y281680D01*
X64268Y282691D01*
X62484Y283046D01*
D02*
G37*
G36*
X605028Y278728D02*
X603244Y278373D01*
X601732Y277362D01*
X600721Y275850D01*
X600366Y274066D01*
X600721Y272282D01*
X601732Y270770D01*
X603244Y269759D01*
X605028Y269404D01*
X606812Y269759D01*
X608324Y270770D01*
X609335Y272282D01*
X609690Y274066D01*
X609335Y275850D01*
X608324Y277362D01*
X606812Y278373D01*
X605028Y278728D01*
D02*
G37*
G36*
X515886Y278346D02*
X514102Y277991D01*
X512590Y276980D01*
X511579Y275468D01*
X511225Y273684D01*
X511579Y271900D01*
X512590Y270388D01*
X514102Y269377D01*
X515886Y269022D01*
X517670Y269377D01*
X519182Y270388D01*
X520193Y271900D01*
X520548Y273684D01*
X520193Y275468D01*
X519182Y276980D01*
X517670Y277991D01*
X515886Y278346D01*
D02*
G37*
G36*
X201930Y277966D02*
X200146Y277611D01*
X198634Y276600D01*
X197623Y275088D01*
X197268Y273304D01*
X197623Y271520D01*
X198634Y270008D01*
X199867Y269184D01*
X199964Y268758D01*
Y268198D01*
X199867Y267772D01*
X198634Y266948D01*
X197623Y265436D01*
X197268Y263652D01*
X197623Y261868D01*
X198634Y260356D01*
X200146Y259345D01*
X201930Y258990D01*
X203714Y259345D01*
X205226Y260356D01*
X206237Y261868D01*
X206592Y263652D01*
X206237Y265436D01*
X205226Y266948D01*
X203993Y267772D01*
X203896Y268198D01*
Y268758D01*
X203993Y269184D01*
X205226Y270008D01*
X206237Y271520D01*
X206592Y273304D01*
X206237Y275088D01*
X205226Y276600D01*
X203714Y277611D01*
X201930Y277966D01*
D02*
G37*
G36*
X804418Y267552D02*
X802634Y267197D01*
X801122Y266186D01*
X800111Y264674D01*
X799756Y262890D01*
X800111Y261106D01*
X801122Y259594D01*
X802634Y258583D01*
X804418Y258228D01*
X806202Y258583D01*
X807714Y259594D01*
X808725Y261106D01*
X809080Y262890D01*
X808725Y264674D01*
X807714Y266186D01*
X806202Y267197D01*
X804418Y267552D01*
D02*
G37*
G36*
X739140D02*
X737356Y267197D01*
X735844Y266186D01*
X734833Y264674D01*
X734478Y262890D01*
X734833Y261106D01*
X735844Y259594D01*
X737356Y258583D01*
X739140Y258228D01*
X740924Y258583D01*
X742436Y259594D01*
X743447Y261106D01*
X743802Y262890D01*
X743447Y264674D01*
X742436Y266186D01*
X740924Y267197D01*
X739140Y267552D01*
D02*
G37*
G36*
X36801Y266088D02*
X35017Y265733D01*
X33504Y264722D01*
X32494Y263210D01*
X32139Y261426D01*
X32494Y259642D01*
X33504Y258130D01*
X35017Y257119D01*
X36801Y256765D01*
X38584Y257119D01*
X40097Y258130D01*
X41107Y259642D01*
X41462Y261426D01*
X41107Y263210D01*
X40097Y264722D01*
X38584Y265733D01*
X36801Y266088D01*
D02*
G37*
G36*
X726694Y266028D02*
X724910Y265673D01*
X723398Y264662D01*
X722387Y263150D01*
X722032Y261366D01*
X722387Y259582D01*
X723398Y258070D01*
X724910Y257059D01*
X726694Y256704D01*
X728478Y257059D01*
X729990Y258070D01*
X731001Y259582D01*
X731356Y261366D01*
X731001Y263150D01*
X729990Y264662D01*
X728478Y265673D01*
X726694Y266028D01*
D02*
G37*
G36*
X605028D02*
X603244Y265673D01*
X601732Y264662D01*
X600721Y263150D01*
X600366Y261366D01*
X600721Y259582D01*
X601732Y258070D01*
X603244Y257059D01*
X605028Y256704D01*
X606812Y257059D01*
X608324Y258070D01*
X609335Y259582D01*
X609690Y261366D01*
X609335Y263150D01*
X608324Y264662D01*
X606812Y265673D01*
X605028Y266028D01*
D02*
G37*
G36*
X519932Y265664D02*
X518148Y265309D01*
X516636Y264298D01*
X515625Y262786D01*
X515271Y261002D01*
X515625Y259218D01*
X516636Y257706D01*
X518148Y256695D01*
X519932Y256340D01*
X521716Y256695D01*
X523228Y257706D01*
X524239Y259218D01*
X524594Y261002D01*
X524239Y262786D01*
X523228Y264298D01*
X521716Y265309D01*
X519932Y265664D01*
D02*
G37*
G36*
X83432Y261068D02*
X81648Y260713D01*
X80136Y259702D01*
X79125Y258190D01*
X78770Y256406D01*
X79125Y254622D01*
X80136Y253110D01*
X81648Y252099D01*
X83432Y251744D01*
X85216Y252099D01*
X86728Y253110D01*
X87739Y254622D01*
X88094Y256406D01*
X87739Y258190D01*
X86728Y259702D01*
X85216Y260713D01*
X83432Y261068D01*
D02*
G37*
G36*
X187198Y260948D02*
X185414Y260593D01*
X183902Y259582D01*
X182891Y258070D01*
X182536Y256286D01*
X182891Y254502D01*
X183902Y252990D01*
X185414Y251979D01*
X187198Y251624D01*
X188982Y251979D01*
X190494Y252990D01*
X191505Y254502D01*
X191860Y256286D01*
X191505Y258070D01*
X190494Y259582D01*
X188982Y260593D01*
X187198Y260948D01*
D02*
G37*
G36*
X582676Y253546D02*
X580892Y253191D01*
X579380Y252180D01*
X578369Y250668D01*
X578014Y248884D01*
X578369Y247100D01*
X579380Y245588D01*
X580892Y244577D01*
X582676Y244222D01*
X584460Y244577D01*
X585972Y245588D01*
X586983Y247100D01*
X587338Y248884D01*
X586983Y250668D01*
X585972Y252180D01*
X584460Y253191D01*
X582676Y253546D01*
D02*
G37*
G36*
X726694Y253328D02*
X724910Y252973D01*
X723398Y251962D01*
X722387Y250450D01*
X722032Y248666D01*
X722387Y246882D01*
X723398Y245370D01*
X724910Y244359D01*
X726694Y244004D01*
X728478Y244359D01*
X729990Y245370D01*
X731001Y246882D01*
X731356Y248666D01*
X731001Y250450D01*
X729990Y251962D01*
X728478Y252973D01*
X726694Y253328D01*
D02*
G37*
G36*
X65532Y251296D02*
X63748Y250941D01*
X62236Y249930D01*
X61225Y248418D01*
X60870Y246634D01*
X61225Y244850D01*
X62236Y243338D01*
X63748Y242327D01*
X65532Y241972D01*
X67316Y242327D01*
X68828Y243338D01*
X69839Y244850D01*
X70194Y246634D01*
X69839Y248418D01*
X68828Y249930D01*
X67316Y250941D01*
X65532Y251296D01*
D02*
G37*
G36*
X42031Y246216D02*
X40247Y245861D01*
X38735Y244850D01*
X37724Y243338D01*
X37369Y241554D01*
X37724Y239770D01*
X38735Y238258D01*
X40247Y237247D01*
X42031Y236892D01*
X43815Y237247D01*
X44271Y237552D01*
X45682Y236968D01*
X45731Y236722D01*
X46742Y235210D01*
X48254Y234199D01*
X50038Y233844D01*
X51822Y234199D01*
X53334Y235210D01*
X54345Y236722D01*
X54700Y238506D01*
X54345Y240290D01*
X53334Y241802D01*
X51822Y242813D01*
X50038Y243168D01*
X48254Y242813D01*
X47798Y242508D01*
X46387Y243092D01*
X46338Y243338D01*
X45327Y244850D01*
X43815Y245861D01*
X42031Y246216D01*
D02*
G37*
G36*
X140462Y233008D02*
X138678Y232653D01*
X137166Y231642D01*
X136155Y230130D01*
X135800Y228346D01*
X136155Y226562D01*
X137166Y225050D01*
X138678Y224039D01*
X140462Y223684D01*
X142246Y224039D01*
X143758Y225050D01*
X144769Y226562D01*
X145124Y228346D01*
X144769Y230130D01*
X143758Y231642D01*
X142246Y232653D01*
X140462Y233008D01*
D02*
G37*
G36*
X726440Y227928D02*
X724656Y227573D01*
X723144Y226562D01*
X722133Y225050D01*
X721778Y223266D01*
X722133Y221482D01*
X723144Y219970D01*
X724656Y218959D01*
X726440Y218604D01*
X728224Y218959D01*
X729736Y219970D01*
X730747Y221482D01*
X731102Y223266D01*
X730747Y225050D01*
X729736Y226562D01*
X728224Y227573D01*
X726440Y227928D01*
D02*
G37*
G36*
X50923Y226780D02*
X49139Y226425D01*
X47627Y225415D01*
X46616Y223903D01*
X46261Y222119D01*
X46616Y220335D01*
X47627Y218822D01*
X49139Y217812D01*
X50923Y217457D01*
X52707Y217812D01*
X54219Y218822D01*
X55230Y220335D01*
X55584Y222119D01*
X55230Y223903D01*
X54219Y225415D01*
X52707Y226425D01*
X50923Y226780D01*
D02*
G37*
G36*
X298704Y225642D02*
X296920Y225287D01*
X295408Y224276D01*
X294397Y222764D01*
X294042Y220980D01*
X294397Y219196D01*
X295408Y217684D01*
X296920Y216673D01*
X298704Y216318D01*
X300488Y216673D01*
X302000Y217684D01*
X303011Y219196D01*
X303366Y220980D01*
X303011Y222764D01*
X302000Y224276D01*
X300488Y225287D01*
X298704Y225642D01*
D02*
G37*
G36*
X211836Y220651D02*
X209457Y220178D01*
X207441Y218831D01*
X206094Y216814D01*
X205621Y214436D01*
X206094Y212057D01*
X207441Y210041D01*
X209457Y208694D01*
X211836Y208221D01*
X214214Y208694D01*
X216231Y210041D01*
X217578Y212057D01*
X218051Y214436D01*
X217578Y216814D01*
X216231Y218831D01*
X214214Y220178D01*
X211836Y220651D01*
D02*
G37*
G36*
X368592Y220395D02*
X366213Y219922D01*
X364197Y218575D01*
X362850Y216558D01*
X362377Y214180D01*
X362850Y211801D01*
X364197Y209785D01*
X366213Y208438D01*
X368592Y207965D01*
X370970Y208438D01*
X372987Y209785D01*
X374334Y211801D01*
X374807Y214180D01*
X374334Y216558D01*
X372987Y218575D01*
X370970Y219922D01*
X368592Y220395D01*
D02*
G37*
G36*
X12954Y216752D02*
X11170Y216397D01*
X9658Y215386D01*
X8647Y213874D01*
X8292Y212090D01*
X8647Y210306D01*
X9658Y208794D01*
X11170Y207783D01*
X12954Y207428D01*
X14738Y207783D01*
X16250Y208794D01*
X17261Y210306D01*
X17616Y212090D01*
X17261Y213874D01*
X16250Y215386D01*
X14738Y216397D01*
X12954Y216752D01*
D02*
G37*
G36*
X619760Y211334D02*
X617976Y210979D01*
X616464Y209968D01*
X615453Y208456D01*
X615098Y206672D01*
X615453Y204888D01*
X616464Y203376D01*
X617976Y202365D01*
X619760Y202010D01*
X621544Y202365D01*
X623056Y203376D01*
X624067Y204888D01*
X624422Y206672D01*
X624067Y208456D01*
X623056Y209968D01*
X621544Y210979D01*
X619760Y211334D01*
D02*
G37*
G36*
X195504Y187268D02*
X168440D01*
Y160204D01*
X195504D01*
Y187268D01*
D02*
G37*
G36*
X686258Y153863D02*
X684573Y153528D01*
X683145Y152573D01*
X682835D01*
X681407Y153528D01*
X679722Y153863D01*
X678037Y153528D01*
X676609Y152573D01*
X675654Y151145D01*
X675319Y149460D01*
X675654Y147775D01*
X676414Y146639D01*
X676585Y146068D01*
X676485Y144902D01*
X675841Y143938D01*
X675506Y142253D01*
X675841Y140568D01*
X676795Y139140D01*
X678223Y138186D01*
X679908Y137850D01*
X681593Y138186D01*
X683021Y139140D01*
X683177Y139373D01*
X684573Y138440D01*
X686258Y138104D01*
X687943Y138440D01*
X689371Y139394D01*
X690325Y140822D01*
X690661Y142507D01*
X690325Y144192D01*
X689741Y145067D01*
X689476Y145984D01*
X689741Y146901D01*
X690325Y147775D01*
X690661Y149460D01*
X690325Y151145D01*
X689371Y152573D01*
X687943Y153528D01*
X686258Y153863D01*
D02*
G37*
G36*
X1028192Y161344D02*
X1026408Y160989D01*
X1024896Y159978D01*
X1023885Y158466D01*
X1023530Y156682D01*
X1023885Y154898D01*
X1024896Y153386D01*
X1026408Y152375D01*
X1028192Y152020D01*
X1029976Y152375D01*
X1031488Y153386D01*
X1032499Y154898D01*
X1032854Y156682D01*
X1032499Y158466D01*
X1031488Y159978D01*
X1029976Y160989D01*
X1028192Y161344D01*
D02*
G37*
G36*
X613410Y160110D02*
X611626Y159755D01*
X610114Y158744D01*
X609103Y157232D01*
X608748Y155448D01*
X609103Y153664D01*
X610114Y152152D01*
X611626Y151141D01*
X613410Y150786D01*
X615194Y151141D01*
X616706Y152152D01*
X617717Y153664D01*
X618072Y155448D01*
X617717Y157232D01*
X616706Y158744D01*
X615194Y159755D01*
X613410Y160110D01*
D02*
G37*
G36*
X238506Y148172D02*
X236722Y147817D01*
X235210Y146806D01*
X234199Y145294D01*
X233844Y143510D01*
X234199Y141726D01*
X235210Y140214D01*
X236722Y139203D01*
X238506Y138848D01*
X240290Y139203D01*
X241802Y140214D01*
X242813Y141726D01*
X243168Y143510D01*
X242813Y145294D01*
X241802Y146806D01*
X240290Y147817D01*
X238506Y148172D01*
D02*
G37*
G36*
X219456Y146648D02*
X217672Y146293D01*
X216160Y145282D01*
X215149Y143770D01*
X214794Y141986D01*
X215149Y140202D01*
X216160Y138690D01*
X217672Y137679D01*
X219456Y137324D01*
X221240Y137679D01*
X222752Y138690D01*
X223763Y140202D01*
X224118Y141986D01*
X223763Y143770D01*
X222752Y145282D01*
X221240Y146293D01*
X219456Y146648D01*
D02*
G37*
G36*
X790448Y144205D02*
X788664Y143850D01*
X787152Y142839D01*
X786141Y141327D01*
X785786Y139543D01*
X786141Y137759D01*
X787152Y136247D01*
X788664Y135237D01*
X790448Y134882D01*
X792232Y135237D01*
X793744Y136247D01*
X794755Y137759D01*
X795110Y139543D01*
X794755Y141327D01*
X793744Y142839D01*
X792232Y143850D01*
X790448Y144205D01*
D02*
G37*
G36*
X165862Y142330D02*
X164078Y141975D01*
X162566Y140964D01*
X161555Y139452D01*
X161200Y137668D01*
X161555Y135884D01*
X162566Y134372D01*
X164078Y133361D01*
X165862Y133006D01*
X167646Y133361D01*
X169158Y134372D01*
X170169Y135884D01*
X170524Y137668D01*
X170169Y139452D01*
X169158Y140964D01*
X167646Y141975D01*
X165862Y142330D01*
D02*
G37*
G36*
X1040388Y139710D02*
X1038604Y139355D01*
X1037092Y138344D01*
X1036082Y136832D01*
X1035727Y135048D01*
X1036082Y133264D01*
X1037092Y131752D01*
X1038604Y130741D01*
X1040388Y130386D01*
X1042172Y130741D01*
X1043684Y131752D01*
X1044695Y133264D01*
X1045050Y135048D01*
X1044695Y136832D01*
X1043684Y138344D01*
X1042172Y139355D01*
X1040388Y139710D01*
D02*
G37*
G36*
X203962Y134964D02*
X202178Y134609D01*
X200666Y133598D01*
X199655Y132086D01*
X199300Y130302D01*
X199655Y128518D01*
X200666Y127006D01*
X202178Y125995D01*
X203962Y125640D01*
X205746Y125995D01*
X207258Y127006D01*
X208269Y128518D01*
X208624Y130302D01*
X208269Y132086D01*
X207258Y133598D01*
X205746Y134609D01*
X203962Y134964D01*
D02*
G37*
G36*
X861836Y133164D02*
X860052Y132809D01*
X858540Y131798D01*
X857529Y130286D01*
X857175Y128502D01*
X857529Y126718D01*
X858540Y125206D01*
X860052Y124195D01*
X861836Y123841D01*
X863620Y124195D01*
X865132Y125206D01*
X866143Y126718D01*
X866498Y128502D01*
X866143Y130286D01*
X865132Y131798D01*
X863620Y132809D01*
X861836Y133164D01*
D02*
G37*
G36*
X999570Y129964D02*
X997786Y129609D01*
X996274Y128598D01*
X995263Y127086D01*
X994908Y125302D01*
X995263Y123518D01*
X996274Y122006D01*
X997786Y120995D01*
X999570Y120640D01*
X1001354Y120995D01*
X1002866Y122006D01*
X1003877Y123518D01*
X1004232Y125302D01*
X1003877Y127086D01*
X1002866Y128598D01*
X1001354Y129609D01*
X999570Y129964D01*
D02*
G37*
G36*
X303138Y118182D02*
X301354Y117827D01*
X299842Y116816D01*
X298831Y115304D01*
X298476Y113520D01*
X298831Y111736D01*
X299842Y110224D01*
X301354Y109213D01*
X303138Y108858D01*
X304922Y109213D01*
X306434Y110224D01*
X307445Y111736D01*
X307800Y113520D01*
X307445Y115304D01*
X306434Y116816D01*
X304922Y117827D01*
X303138Y118182D01*
D02*
G37*
G36*
X272796Y116422D02*
X271012Y116067D01*
X269500Y115056D01*
X268489Y113544D01*
X268134Y111760D01*
X268489Y109976D01*
X269500Y108464D01*
X271012Y107453D01*
X272796Y107098D01*
X274580Y107453D01*
X276092Y108464D01*
X277103Y109976D01*
X277458Y111760D01*
X277103Y113544D01*
X276092Y115056D01*
X274580Y116067D01*
X272796Y116422D01*
D02*
G37*
G36*
X846582Y126955D02*
X843833Y126593D01*
X841271Y125532D01*
X839071Y123843D01*
X837382Y121643D01*
X836321Y119081D01*
X835959Y116332D01*
X836321Y113583D01*
X837382Y111021D01*
X839071Y108820D01*
X841271Y107132D01*
X843833Y106071D01*
X846582Y105709D01*
X849331Y106071D01*
X851893Y107132D01*
X854093Y108820D01*
X855782Y111021D01*
X856843Y113583D01*
X857205Y116332D01*
X856843Y119081D01*
X855782Y121643D01*
X854093Y123843D01*
X851893Y125532D01*
X849331Y126593D01*
X846582Y126955D01*
D02*
G37*
G36*
X554794Y114469D02*
X553010Y114115D01*
X551498Y113104D01*
X550487Y111592D01*
X550132Y109808D01*
X550487Y108024D01*
X551498Y106512D01*
X553010Y105501D01*
X554794Y105146D01*
X556578Y105501D01*
X558090Y106512D01*
X559101Y108024D01*
X559455Y109808D01*
X559101Y111592D01*
X558090Y113104D01*
X556578Y114115D01*
X554794Y114469D01*
D02*
G37*
G36*
X693957Y107794D02*
X692272Y107458D01*
X690844Y106504D01*
X689890Y105076D01*
X689554Y103391D01*
X689890Y101706D01*
X690844Y100278D01*
X692272Y99324D01*
X693957Y98988D01*
X695642Y99324D01*
X697070Y100278D01*
X698024Y101706D01*
X698360Y103391D01*
X698024Y105076D01*
X697070Y106504D01*
X695642Y107458D01*
X693957Y107794D01*
D02*
G37*
G36*
X820674Y107278D02*
X818890Y106923D01*
X817378Y105912D01*
X816367Y104400D01*
X816012Y102616D01*
X816367Y100832D01*
X817378Y99320D01*
X818890Y98309D01*
X820674Y97954D01*
X822458Y98309D01*
X823970Y99320D01*
X824981Y100832D01*
X825336Y102616D01*
X824981Y104400D01*
X823970Y105912D01*
X822458Y106923D01*
X820674Y107278D01*
D02*
G37*
G36*
X427482Y106262D02*
X425698Y105907D01*
X424186Y104896D01*
X423175Y103384D01*
X422820Y101600D01*
X423175Y99816D01*
X424186Y98304D01*
X425698Y97293D01*
X427482Y96938D01*
X429266Y97293D01*
X430778Y98304D01*
X431789Y99816D01*
X432144Y101600D01*
X431789Y103384D01*
X430778Y104896D01*
X429266Y105907D01*
X427482Y106262D01*
D02*
G37*
G36*
X487172Y101436D02*
X485388Y101081D01*
X483876Y100070D01*
X482865Y98558D01*
X482510Y96774D01*
X482865Y94990D01*
X483876Y93478D01*
X485388Y92467D01*
X487172Y92112D01*
X488956Y92467D01*
X490468Y93478D01*
X491479Y94990D01*
X491834Y96774D01*
X491479Y98558D01*
X490468Y100070D01*
X488956Y101081D01*
X487172Y101436D01*
D02*
G37*
G36*
X467614Y99912D02*
X465830Y99557D01*
X464318Y98546D01*
X463307Y97034D01*
X462952Y95250D01*
X463307Y93466D01*
X464318Y91954D01*
X465830Y90943D01*
X467614Y90588D01*
X469398Y90943D01*
X470910Y91954D01*
X471921Y93466D01*
X472276Y95250D01*
X471921Y97034D01*
X470910Y98546D01*
X469398Y99557D01*
X467614Y99912D01*
D02*
G37*
G36*
X807416Y97887D02*
X805731Y97552D01*
X804303Y96598D01*
X803349Y95170D01*
X803014Y93485D01*
X803349Y91800D01*
X804303Y90372D01*
X805731Y89417D01*
X807416Y89082D01*
X809101Y89417D01*
X810529Y90372D01*
X811484Y91800D01*
X811819Y93485D01*
X811484Y95170D01*
X810529Y96598D01*
X809101Y97552D01*
X807416Y97887D01*
D02*
G37*
G36*
X857114Y101464D02*
X836050D01*
Y80400D01*
X857114D01*
Y101464D01*
D02*
G37*
G36*
X262754Y66920D02*
X241690D01*
Y45856D01*
X262754D01*
Y66920D01*
D02*
G37*
G36*
X188393Y54446D02*
X186609Y54091D01*
X185097Y53080D01*
X184086Y51568D01*
X183731Y49784D01*
X184086Y48000D01*
X185097Y46488D01*
X186609Y45477D01*
X188393Y45122D01*
X190177Y45477D01*
X191689Y46488D01*
X192700Y48000D01*
X193055Y49784D01*
X192700Y51568D01*
X191689Y53080D01*
X190177Y54091D01*
X188393Y54446D01*
D02*
G37*
G36*
X820166Y68171D02*
X817182Y67778D01*
X814402Y66626D01*
X812014Y64794D01*
X810182Y62406D01*
X809030Y59626D01*
X808637Y56642D01*
X809030Y53658D01*
X810182Y50878D01*
X812014Y48490D01*
X814402Y46658D01*
X817182Y45506D01*
X820166Y45113D01*
X823150Y45506D01*
X825930Y46658D01*
X828318Y48490D01*
X830150Y50878D01*
X831302Y53658D01*
X831695Y56642D01*
X831302Y59626D01*
X830150Y62406D01*
X828318Y64794D01*
X825930Y66626D01*
X823150Y67778D01*
X820166Y68171D01*
D02*
G37*
G36*
X794766D02*
X791782Y67778D01*
X789002Y66626D01*
X786614Y64794D01*
X784782Y62406D01*
X783630Y59626D01*
X783237Y56642D01*
X783630Y53658D01*
X784782Y50878D01*
X786614Y48490D01*
X789002Y46658D01*
X791782Y45506D01*
X794766Y45113D01*
X797750Y45506D01*
X800530Y46658D01*
X802918Y48490D01*
X804750Y50878D01*
X805902Y53658D01*
X806295Y56642D01*
X805902Y59626D01*
X804750Y62406D01*
X802918Y64794D01*
X800530Y66626D01*
X797750Y67778D01*
X794766Y68171D01*
D02*
G37*
G36*
X769366D02*
X766382Y67778D01*
X763602Y66626D01*
X761214Y64794D01*
X759382Y62406D01*
X758230Y59626D01*
X757837Y56642D01*
X758230Y53658D01*
X759382Y50878D01*
X761214Y48490D01*
X763602Y46658D01*
X766382Y45506D01*
X769366Y45113D01*
X772350Y45506D01*
X775130Y46658D01*
X777518Y48490D01*
X779350Y50878D01*
X780502Y53658D01*
X780895Y56642D01*
X780502Y59626D01*
X779350Y62406D01*
X777518Y64794D01*
X775130Y66626D01*
X772350Y67778D01*
X769366Y68171D01*
D02*
G37*
G36*
X743966D02*
X740982Y67778D01*
X738202Y66626D01*
X735814Y64794D01*
X733982Y62406D01*
X732830Y59626D01*
X732437Y56642D01*
X732830Y53658D01*
X733982Y50878D01*
X735814Y48490D01*
X738202Y46658D01*
X740982Y45506D01*
X743966Y45113D01*
X746950Y45506D01*
X749730Y46658D01*
X752118Y48490D01*
X753950Y50878D01*
X755102Y53658D01*
X755495Y56642D01*
X755102Y59626D01*
X753950Y62406D01*
X752118Y64794D01*
X749730Y66626D01*
X746950Y67778D01*
X743966Y68171D01*
D02*
G37*
G36*
X718566D02*
X715582Y67778D01*
X712802Y66626D01*
X710414Y64794D01*
X708582Y62406D01*
X707430Y59626D01*
X707037Y56642D01*
X707430Y53658D01*
X708582Y50878D01*
X710414Y48490D01*
X712802Y46658D01*
X715582Y45506D01*
X718566Y45113D01*
X721550Y45506D01*
X724330Y46658D01*
X726718Y48490D01*
X728550Y50878D01*
X729702Y53658D01*
X730095Y56642D01*
X729702Y59626D01*
X728550Y62406D01*
X726718Y64794D01*
X724330Y66626D01*
X721550Y67778D01*
X718566Y68171D01*
D02*
G37*
G36*
X693166D02*
X690182Y67778D01*
X687402Y66626D01*
X685014Y64794D01*
X683182Y62406D01*
X682030Y59626D01*
X681637Y56642D01*
X682030Y53658D01*
X683182Y50878D01*
X685014Y48490D01*
X687402Y46658D01*
X690182Y45506D01*
X693166Y45113D01*
X696150Y45506D01*
X698930Y46658D01*
X701318Y48490D01*
X703150Y50878D01*
X704302Y53658D01*
X704695Y56642D01*
X704302Y59626D01*
X703150Y62406D01*
X701318Y64794D01*
X698930Y66626D01*
X696150Y67778D01*
X693166Y68171D01*
D02*
G37*
G36*
X667766D02*
X664782Y67778D01*
X662002Y66626D01*
X659614Y64794D01*
X657782Y62406D01*
X656630Y59626D01*
X656237Y56642D01*
X656630Y53658D01*
X657782Y50878D01*
X659614Y48490D01*
X662002Y46658D01*
X664782Y45506D01*
X667766Y45113D01*
X670750Y45506D01*
X673530Y46658D01*
X675918Y48490D01*
X677750Y50878D01*
X678902Y53658D01*
X679295Y56642D01*
X678902Y59626D01*
X677750Y62406D01*
X675918Y64794D01*
X673530Y66626D01*
X670750Y67778D01*
X667766Y68171D01*
D02*
G37*
G36*
X642366D02*
X639382Y67778D01*
X636602Y66626D01*
X634214Y64794D01*
X632382Y62406D01*
X631230Y59626D01*
X630837Y56642D01*
X631230Y53658D01*
X632382Y50878D01*
X634214Y48490D01*
X636602Y46658D01*
X639382Y45506D01*
X642366Y45113D01*
X645350Y45506D01*
X648130Y46658D01*
X650518Y48490D01*
X652350Y50878D01*
X653502Y53658D01*
X653895Y56642D01*
X653502Y59626D01*
X652350Y62406D01*
X650518Y64794D01*
X648130Y66626D01*
X645350Y67778D01*
X642366Y68171D01*
D02*
G37*
G36*
X616966D02*
X613982Y67778D01*
X611202Y66626D01*
X608814Y64794D01*
X606982Y62406D01*
X605830Y59626D01*
X605437Y56642D01*
X605830Y53658D01*
X606982Y50878D01*
X608814Y48490D01*
X611202Y46658D01*
X613982Y45506D01*
X616966Y45113D01*
X619950Y45506D01*
X622730Y46658D01*
X625118Y48490D01*
X626950Y50878D01*
X628102Y53658D01*
X628495Y56642D01*
X628102Y59626D01*
X626950Y62406D01*
X625118Y64794D01*
X622730Y66626D01*
X619950Y67778D01*
X616966Y68171D01*
D02*
G37*
G36*
X591566D02*
X588582Y67778D01*
X585802Y66626D01*
X583414Y64794D01*
X581582Y62406D01*
X580430Y59626D01*
X580037Y56642D01*
X580430Y53658D01*
X581582Y50878D01*
X583414Y48490D01*
X585802Y46658D01*
X588582Y45506D01*
X591566Y45113D01*
X594550Y45506D01*
X597330Y46658D01*
X599718Y48490D01*
X601550Y50878D01*
X602702Y53658D01*
X603095Y56642D01*
X602702Y59626D01*
X601550Y62406D01*
X599718Y64794D01*
X597330Y66626D01*
X594550Y67778D01*
X591566Y68171D01*
D02*
G37*
G36*
X566166D02*
X563182Y67778D01*
X560402Y66626D01*
X558014Y64794D01*
X556182Y62406D01*
X555030Y59626D01*
X554637Y56642D01*
X555030Y53658D01*
X556182Y50878D01*
X558014Y48490D01*
X560402Y46658D01*
X563182Y45506D01*
X566166Y45113D01*
X569150Y45506D01*
X571930Y46658D01*
X574318Y48490D01*
X576150Y50878D01*
X577302Y53658D01*
X577695Y56642D01*
X577302Y59626D01*
X576150Y62406D01*
X574318Y64794D01*
X571930Y66626D01*
X569150Y67778D01*
X566166Y68171D01*
D02*
G37*
G36*
X540766D02*
X537782Y67778D01*
X535002Y66626D01*
X532614Y64794D01*
X530782Y62406D01*
X529630Y59626D01*
X529237Y56642D01*
X529630Y53658D01*
X530782Y50878D01*
X532614Y48490D01*
X535002Y46658D01*
X537782Y45506D01*
X540766Y45113D01*
X543750Y45506D01*
X546530Y46658D01*
X548918Y48490D01*
X550750Y50878D01*
X551902Y53658D01*
X552295Y56642D01*
X551902Y59626D01*
X550750Y62406D01*
X548918Y64794D01*
X546530Y66626D01*
X543750Y67778D01*
X540766Y68171D01*
D02*
G37*
G36*
X515366D02*
X512382Y67778D01*
X509602Y66626D01*
X507214Y64794D01*
X505382Y62406D01*
X504230Y59626D01*
X503837Y56642D01*
X504230Y53658D01*
X505382Y50878D01*
X507214Y48490D01*
X509602Y46658D01*
X512382Y45506D01*
X515366Y45113D01*
X518350Y45506D01*
X521130Y46658D01*
X523518Y48490D01*
X525350Y50878D01*
X526502Y53658D01*
X526895Y56642D01*
X526502Y59626D01*
X525350Y62406D01*
X523518Y64794D01*
X521130Y66626D01*
X518350Y67778D01*
X515366Y68171D01*
D02*
G37*
G36*
X489966D02*
X486982Y67778D01*
X484202Y66626D01*
X481814Y64794D01*
X479982Y62406D01*
X478830Y59626D01*
X478437Y56642D01*
X478830Y53658D01*
X479982Y50878D01*
X481814Y48490D01*
X484202Y46658D01*
X486982Y45506D01*
X489966Y45113D01*
X492950Y45506D01*
X495730Y46658D01*
X498118Y48490D01*
X499950Y50878D01*
X501102Y53658D01*
X501495Y56642D01*
X501102Y59626D01*
X499950Y62406D01*
X498118Y64794D01*
X495730Y66626D01*
X492950Y67778D01*
X489966Y68171D01*
D02*
G37*
G36*
X464566D02*
X461582Y67778D01*
X458802Y66626D01*
X456414Y64794D01*
X454582Y62406D01*
X453430Y59626D01*
X453037Y56642D01*
X453430Y53658D01*
X454582Y50878D01*
X456414Y48490D01*
X458802Y46658D01*
X461582Y45506D01*
X464566Y45113D01*
X467550Y45506D01*
X470330Y46658D01*
X472718Y48490D01*
X474550Y50878D01*
X475702Y53658D01*
X476095Y56642D01*
X475702Y59626D01*
X474550Y62406D01*
X472718Y64794D01*
X470330Y66626D01*
X467550Y67778D01*
X464566Y68171D01*
D02*
G37*
G36*
X439166D02*
X436182Y67778D01*
X433402Y66626D01*
X431014Y64794D01*
X429182Y62406D01*
X428030Y59626D01*
X427637Y56642D01*
X428030Y53658D01*
X429182Y50878D01*
X431014Y48490D01*
X433402Y46658D01*
X436182Y45506D01*
X439166Y45113D01*
X442150Y45506D01*
X444930Y46658D01*
X447318Y48490D01*
X449150Y50878D01*
X450302Y53658D01*
X450695Y56642D01*
X450302Y59626D01*
X449150Y62406D01*
X447318Y64794D01*
X444930Y66626D01*
X442150Y67778D01*
X439166Y68171D01*
D02*
G37*
G36*
X413766D02*
X410782Y67778D01*
X408002Y66626D01*
X405614Y64794D01*
X403782Y62406D01*
X402630Y59626D01*
X402237Y56642D01*
X402630Y53658D01*
X403782Y50878D01*
X405614Y48490D01*
X408002Y46658D01*
X410782Y45506D01*
X413766Y45113D01*
X416750Y45506D01*
X419530Y46658D01*
X421918Y48490D01*
X423750Y50878D01*
X424902Y53658D01*
X425295Y56642D01*
X424902Y59626D01*
X423750Y62406D01*
X421918Y64794D01*
X419530Y66626D01*
X416750Y67778D01*
X413766Y68171D01*
D02*
G37*
G36*
X388366D02*
X385382Y67778D01*
X382602Y66626D01*
X380214Y64794D01*
X378382Y62406D01*
X377230Y59626D01*
X376837Y56642D01*
X377230Y53658D01*
X378382Y50878D01*
X380214Y48490D01*
X382602Y46658D01*
X385382Y45506D01*
X388366Y45113D01*
X391350Y45506D01*
X394130Y46658D01*
X396518Y48490D01*
X398350Y50878D01*
X399502Y53658D01*
X399895Y56642D01*
X399502Y59626D01*
X398350Y62406D01*
X396518Y64794D01*
X394130Y66626D01*
X391350Y67778D01*
X388366Y68171D01*
D02*
G37*
G36*
X362966D02*
X359982Y67778D01*
X357202Y66626D01*
X354814Y64794D01*
X352982Y62406D01*
X351830Y59626D01*
X351437Y56642D01*
X351830Y53658D01*
X352982Y50878D01*
X354814Y48490D01*
X357202Y46658D01*
X359982Y45506D01*
X362966Y45113D01*
X365950Y45506D01*
X368730Y46658D01*
X371118Y48490D01*
X372950Y50878D01*
X374102Y53658D01*
X374495Y56642D01*
X374102Y59626D01*
X372950Y62406D01*
X371118Y64794D01*
X368730Y66626D01*
X365950Y67778D01*
X362966Y68171D01*
D02*
G37*
G36*
X337566D02*
X334582Y67778D01*
X331802Y66626D01*
X329414Y64794D01*
X327582Y62406D01*
X326430Y59626D01*
X326037Y56642D01*
X326430Y53658D01*
X327582Y50878D01*
X329414Y48490D01*
X331802Y46658D01*
X334582Y45506D01*
X337566Y45113D01*
X340550Y45506D01*
X343330Y46658D01*
X345718Y48490D01*
X347550Y50878D01*
X348702Y53658D01*
X349095Y56642D01*
X348702Y59626D01*
X347550Y62406D01*
X345718Y64794D01*
X343330Y66626D01*
X340550Y67778D01*
X337566Y68171D01*
D02*
G37*
G36*
X312166D02*
X309182Y67778D01*
X306402Y66626D01*
X304014Y64794D01*
X302182Y62406D01*
X301030Y59626D01*
X300637Y56642D01*
X301030Y53658D01*
X302182Y50878D01*
X304014Y48490D01*
X306402Y46658D01*
X309182Y45506D01*
X312166Y45113D01*
X315150Y45506D01*
X317930Y46658D01*
X320318Y48490D01*
X322150Y50878D01*
X323302Y53658D01*
X323695Y56642D01*
X323302Y59626D01*
X322150Y62406D01*
X320318Y64794D01*
X317930Y66626D01*
X315150Y67778D01*
X312166Y68171D01*
D02*
G37*
G36*
X286766D02*
X283782Y67778D01*
X281002Y66626D01*
X278614Y64794D01*
X276782Y62406D01*
X275630Y59626D01*
X275237Y56642D01*
X275630Y53658D01*
X276782Y50878D01*
X278614Y48490D01*
X281002Y46658D01*
X283782Y45506D01*
X286766Y45113D01*
X289750Y45506D01*
X292530Y46658D01*
X294918Y48490D01*
X296750Y50878D01*
X297902Y53658D01*
X298295Y56642D01*
X297902Y59626D01*
X296750Y62406D01*
X294918Y64794D01*
X292530Y66626D01*
X289750Y67778D01*
X286766Y68171D01*
D02*
G37*
G36*
X165862Y40476D02*
X164078Y40121D01*
X162566Y39110D01*
X161555Y37598D01*
X161200Y35814D01*
X161555Y34030D01*
X162566Y32518D01*
X164078Y31507D01*
X165862Y31152D01*
X167646Y31507D01*
X169158Y32518D01*
X170169Y34030D01*
X170524Y35814D01*
X170169Y37598D01*
X169158Y39110D01*
X167646Y40121D01*
X165862Y40476D01*
D02*
G37*
G36*
X252222Y41611D02*
X249473Y41249D01*
X246911Y40188D01*
X244711Y38500D01*
X243022Y36299D01*
X241961Y33737D01*
X241599Y30988D01*
X241961Y28239D01*
X243022Y25677D01*
X244711Y23477D01*
X246911Y21788D01*
X249473Y20727D01*
X252222Y20365D01*
X254971Y20727D01*
X257533Y21788D01*
X259734Y23477D01*
X261422Y25677D01*
X262483Y28239D01*
X262845Y30988D01*
X262483Y33737D01*
X261422Y36299D01*
X259734Y38500D01*
X257533Y40188D01*
X254971Y41249D01*
X252222Y41611D01*
D02*
G37*
G36*
X820166Y42771D02*
X817182Y42378D01*
X814402Y41226D01*
X812014Y39394D01*
X810182Y37006D01*
X809030Y34226D01*
X808637Y31242D01*
X809030Y28258D01*
X810182Y25478D01*
X812014Y23090D01*
X814402Y21258D01*
X817182Y20106D01*
X820166Y19713D01*
X823150Y20106D01*
X825930Y21258D01*
X828318Y23090D01*
X830150Y25478D01*
X831302Y28258D01*
X831695Y31242D01*
X831302Y34226D01*
X830150Y37006D01*
X828318Y39394D01*
X825930Y41226D01*
X823150Y42378D01*
X820166Y42771D01*
D02*
G37*
G36*
X794766D02*
X791782Y42378D01*
X789002Y41226D01*
X786614Y39394D01*
X784782Y37006D01*
X783630Y34226D01*
X783237Y31242D01*
X783630Y28258D01*
X784782Y25478D01*
X786614Y23090D01*
X789002Y21258D01*
X791782Y20106D01*
X794766Y19713D01*
X797750Y20106D01*
X800530Y21258D01*
X802918Y23090D01*
X804750Y25478D01*
X805902Y28258D01*
X806295Y31242D01*
X805902Y34226D01*
X804750Y37006D01*
X802918Y39394D01*
X800530Y41226D01*
X797750Y42378D01*
X794766Y42771D01*
D02*
G37*
G36*
X769366D02*
X766382Y42378D01*
X763602Y41226D01*
X761214Y39394D01*
X759382Y37006D01*
X758230Y34226D01*
X757837Y31242D01*
X758230Y28258D01*
X759382Y25478D01*
X761214Y23090D01*
X763602Y21258D01*
X766382Y20106D01*
X769366Y19713D01*
X772350Y20106D01*
X775130Y21258D01*
X777518Y23090D01*
X779350Y25478D01*
X780502Y28258D01*
X780895Y31242D01*
X780502Y34226D01*
X779350Y37006D01*
X777518Y39394D01*
X775130Y41226D01*
X772350Y42378D01*
X769366Y42771D01*
D02*
G37*
G36*
X743966D02*
X740982Y42378D01*
X738202Y41226D01*
X735814Y39394D01*
X733982Y37006D01*
X732830Y34226D01*
X732437Y31242D01*
X732830Y28258D01*
X733982Y25478D01*
X735814Y23090D01*
X738202Y21258D01*
X740982Y20106D01*
X743966Y19713D01*
X746950Y20106D01*
X749730Y21258D01*
X752118Y23090D01*
X753950Y25478D01*
X755102Y28258D01*
X755495Y31242D01*
X755102Y34226D01*
X753950Y37006D01*
X752118Y39394D01*
X749730Y41226D01*
X746950Y42378D01*
X743966Y42771D01*
D02*
G37*
G36*
X718566D02*
X715582Y42378D01*
X712802Y41226D01*
X710414Y39394D01*
X708582Y37006D01*
X707430Y34226D01*
X707037Y31242D01*
X707430Y28258D01*
X708582Y25478D01*
X710414Y23090D01*
X712802Y21258D01*
X715582Y20106D01*
X718566Y19713D01*
X721550Y20106D01*
X724330Y21258D01*
X726718Y23090D01*
X728550Y25478D01*
X729702Y28258D01*
X730095Y31242D01*
X729702Y34226D01*
X728550Y37006D01*
X726718Y39394D01*
X724330Y41226D01*
X721550Y42378D01*
X718566Y42771D01*
D02*
G37*
G36*
X693166D02*
X690182Y42378D01*
X687402Y41226D01*
X685014Y39394D01*
X683182Y37006D01*
X682030Y34226D01*
X681637Y31242D01*
X682030Y28258D01*
X683182Y25478D01*
X685014Y23090D01*
X687402Y21258D01*
X690182Y20106D01*
X693166Y19713D01*
X696150Y20106D01*
X698930Y21258D01*
X701318Y23090D01*
X703150Y25478D01*
X704302Y28258D01*
X704695Y31242D01*
X704302Y34226D01*
X703150Y37006D01*
X701318Y39394D01*
X698930Y41226D01*
X696150Y42378D01*
X693166Y42771D01*
D02*
G37*
G36*
X667766D02*
X664782Y42378D01*
X662002Y41226D01*
X659614Y39394D01*
X657782Y37006D01*
X656630Y34226D01*
X656237Y31242D01*
X656630Y28258D01*
X657782Y25478D01*
X659614Y23090D01*
X662002Y21258D01*
X664782Y20106D01*
X667766Y19713D01*
X670750Y20106D01*
X673530Y21258D01*
X675918Y23090D01*
X677750Y25478D01*
X678902Y28258D01*
X679295Y31242D01*
X678902Y34226D01*
X677750Y37006D01*
X675918Y39394D01*
X673530Y41226D01*
X670750Y42378D01*
X667766Y42771D01*
D02*
G37*
G36*
X642366D02*
X639382Y42378D01*
X636602Y41226D01*
X634214Y39394D01*
X632382Y37006D01*
X631230Y34226D01*
X630837Y31242D01*
X631230Y28258D01*
X632382Y25478D01*
X634214Y23090D01*
X636602Y21258D01*
X639382Y20106D01*
X642366Y19713D01*
X645350Y20106D01*
X648130Y21258D01*
X650518Y23090D01*
X652350Y25478D01*
X653502Y28258D01*
X653895Y31242D01*
X653502Y34226D01*
X652350Y37006D01*
X650518Y39394D01*
X648130Y41226D01*
X645350Y42378D01*
X642366Y42771D01*
D02*
G37*
G36*
X616966D02*
X613982Y42378D01*
X611202Y41226D01*
X608814Y39394D01*
X606982Y37006D01*
X605830Y34226D01*
X605437Y31242D01*
X605830Y28258D01*
X606982Y25478D01*
X608814Y23090D01*
X611202Y21258D01*
X613982Y20106D01*
X616966Y19713D01*
X619950Y20106D01*
X622730Y21258D01*
X625118Y23090D01*
X626950Y25478D01*
X628102Y28258D01*
X628495Y31242D01*
X628102Y34226D01*
X626950Y37006D01*
X625118Y39394D01*
X622730Y41226D01*
X619950Y42378D01*
X616966Y42771D01*
D02*
G37*
G36*
X591566D02*
X588582Y42378D01*
X585802Y41226D01*
X583414Y39394D01*
X581582Y37006D01*
X580430Y34226D01*
X580037Y31242D01*
X580430Y28258D01*
X581582Y25478D01*
X583414Y23090D01*
X585802Y21258D01*
X588582Y20106D01*
X591566Y19713D01*
X594550Y20106D01*
X597330Y21258D01*
X599718Y23090D01*
X601550Y25478D01*
X602702Y28258D01*
X603095Y31242D01*
X602702Y34226D01*
X601550Y37006D01*
X599718Y39394D01*
X597330Y41226D01*
X594550Y42378D01*
X591566Y42771D01*
D02*
G37*
G36*
X566166D02*
X563182Y42378D01*
X560402Y41226D01*
X558014Y39394D01*
X556182Y37006D01*
X555030Y34226D01*
X554637Y31242D01*
X555030Y28258D01*
X556182Y25478D01*
X558014Y23090D01*
X560402Y21258D01*
X563182Y20106D01*
X566166Y19713D01*
X569150Y20106D01*
X571930Y21258D01*
X574318Y23090D01*
X576150Y25478D01*
X577302Y28258D01*
X577695Y31242D01*
X577302Y34226D01*
X576150Y37006D01*
X574318Y39394D01*
X571930Y41226D01*
X569150Y42378D01*
X566166Y42771D01*
D02*
G37*
G36*
X540766D02*
X537782Y42378D01*
X535002Y41226D01*
X532614Y39394D01*
X530782Y37006D01*
X529630Y34226D01*
X529237Y31242D01*
X529630Y28258D01*
X530782Y25478D01*
X532614Y23090D01*
X535002Y21258D01*
X537782Y20106D01*
X540766Y19713D01*
X543750Y20106D01*
X546530Y21258D01*
X548918Y23090D01*
X550750Y25478D01*
X551902Y28258D01*
X552295Y31242D01*
X551902Y34226D01*
X550750Y37006D01*
X548918Y39394D01*
X546530Y41226D01*
X543750Y42378D01*
X540766Y42771D01*
D02*
G37*
G36*
X515366D02*
X512382Y42378D01*
X509602Y41226D01*
X507214Y39394D01*
X505382Y37006D01*
X504230Y34226D01*
X503837Y31242D01*
X504230Y28258D01*
X505382Y25478D01*
X507214Y23090D01*
X509602Y21258D01*
X512382Y20106D01*
X515366Y19713D01*
X518350Y20106D01*
X521130Y21258D01*
X523518Y23090D01*
X525350Y25478D01*
X526502Y28258D01*
X526895Y31242D01*
X526502Y34226D01*
X525350Y37006D01*
X523518Y39394D01*
X521130Y41226D01*
X518350Y42378D01*
X515366Y42771D01*
D02*
G37*
G36*
X489966D02*
X486982Y42378D01*
X484202Y41226D01*
X481814Y39394D01*
X479982Y37006D01*
X478830Y34226D01*
X478437Y31242D01*
X478830Y28258D01*
X479982Y25478D01*
X481814Y23090D01*
X484202Y21258D01*
X486982Y20106D01*
X489966Y19713D01*
X492950Y20106D01*
X495730Y21258D01*
X498118Y23090D01*
X499950Y25478D01*
X501102Y28258D01*
X501495Y31242D01*
X501102Y34226D01*
X499950Y37006D01*
X498118Y39394D01*
X495730Y41226D01*
X492950Y42378D01*
X489966Y42771D01*
D02*
G37*
G36*
X464566D02*
X461582Y42378D01*
X458802Y41226D01*
X456414Y39394D01*
X454582Y37006D01*
X453430Y34226D01*
X453037Y31242D01*
X453430Y28258D01*
X454582Y25478D01*
X456414Y23090D01*
X458802Y21258D01*
X461582Y20106D01*
X464566Y19713D01*
X467550Y20106D01*
X470330Y21258D01*
X472718Y23090D01*
X474550Y25478D01*
X475702Y28258D01*
X476095Y31242D01*
X475702Y34226D01*
X474550Y37006D01*
X472718Y39394D01*
X470330Y41226D01*
X467550Y42378D01*
X464566Y42771D01*
D02*
G37*
G36*
X439166D02*
X436182Y42378D01*
X433402Y41226D01*
X431014Y39394D01*
X429182Y37006D01*
X428030Y34226D01*
X427637Y31242D01*
X428030Y28258D01*
X429182Y25478D01*
X431014Y23090D01*
X433402Y21258D01*
X436182Y20106D01*
X439166Y19713D01*
X442150Y20106D01*
X444930Y21258D01*
X447318Y23090D01*
X449150Y25478D01*
X450302Y28258D01*
X450695Y31242D01*
X450302Y34226D01*
X449150Y37006D01*
X447318Y39394D01*
X444930Y41226D01*
X442150Y42378D01*
X439166Y42771D01*
D02*
G37*
G36*
X413766D02*
X410782Y42378D01*
X408002Y41226D01*
X405614Y39394D01*
X403782Y37006D01*
X402630Y34226D01*
X402237Y31242D01*
X402630Y28258D01*
X403782Y25478D01*
X405614Y23090D01*
X408002Y21258D01*
X410782Y20106D01*
X413766Y19713D01*
X416750Y20106D01*
X419530Y21258D01*
X421918Y23090D01*
X423750Y25478D01*
X424902Y28258D01*
X425295Y31242D01*
X424902Y34226D01*
X423750Y37006D01*
X421918Y39394D01*
X419530Y41226D01*
X416750Y42378D01*
X413766Y42771D01*
D02*
G37*
G36*
X388366D02*
X385382Y42378D01*
X382602Y41226D01*
X380214Y39394D01*
X378382Y37006D01*
X377230Y34226D01*
X376837Y31242D01*
X377230Y28258D01*
X378382Y25478D01*
X380214Y23090D01*
X382602Y21258D01*
X385382Y20106D01*
X388366Y19713D01*
X391350Y20106D01*
X394130Y21258D01*
X396518Y23090D01*
X398350Y25478D01*
X399502Y28258D01*
X399895Y31242D01*
X399502Y34226D01*
X398350Y37006D01*
X396518Y39394D01*
X394130Y41226D01*
X391350Y42378D01*
X388366Y42771D01*
D02*
G37*
G36*
X362966D02*
X359982Y42378D01*
X357202Y41226D01*
X354814Y39394D01*
X352982Y37006D01*
X351830Y34226D01*
X351437Y31242D01*
X351830Y28258D01*
X352982Y25478D01*
X354814Y23090D01*
X357202Y21258D01*
X359982Y20106D01*
X362966Y19713D01*
X365950Y20106D01*
X368730Y21258D01*
X371118Y23090D01*
X372950Y25478D01*
X374102Y28258D01*
X374495Y31242D01*
X374102Y34226D01*
X372950Y37006D01*
X371118Y39394D01*
X368730Y41226D01*
X365950Y42378D01*
X362966Y42771D01*
D02*
G37*
G36*
X337566D02*
X334582Y42378D01*
X331802Y41226D01*
X329414Y39394D01*
X327582Y37006D01*
X326430Y34226D01*
X326037Y31242D01*
X326430Y28258D01*
X327582Y25478D01*
X329414Y23090D01*
X331802Y21258D01*
X334582Y20106D01*
X337566Y19713D01*
X340550Y20106D01*
X343330Y21258D01*
X345718Y23090D01*
X347550Y25478D01*
X348702Y28258D01*
X349095Y31242D01*
X348702Y34226D01*
X347550Y37006D01*
X345718Y39394D01*
X343330Y41226D01*
X340550Y42378D01*
X337566Y42771D01*
D02*
G37*
G36*
X312166D02*
X309182Y42378D01*
X306402Y41226D01*
X304014Y39394D01*
X302182Y37006D01*
X301030Y34226D01*
X300637Y31242D01*
X301030Y28258D01*
X302182Y25478D01*
X304014Y23090D01*
X306402Y21258D01*
X309182Y20106D01*
X312166Y19713D01*
X315150Y20106D01*
X317930Y21258D01*
X320318Y23090D01*
X322150Y25478D01*
X323302Y28258D01*
X323695Y31242D01*
X323302Y34226D01*
X322150Y37006D01*
X320318Y39394D01*
X317930Y41226D01*
X315150Y42378D01*
X312166Y42771D01*
D02*
G37*
G36*
X286766D02*
X283782Y42378D01*
X281002Y41226D01*
X278614Y39394D01*
X276782Y37006D01*
X275630Y34226D01*
X275237Y31242D01*
X275630Y28258D01*
X276782Y25478D01*
X278614Y23090D01*
X281002Y21258D01*
X283782Y20106D01*
X286766Y19713D01*
X289750Y20106D01*
X292530Y21258D01*
X294918Y23090D01*
X296750Y25478D01*
X297902Y28258D01*
X298295Y31242D01*
X297902Y34226D01*
X296750Y37006D01*
X294918Y39394D01*
X292530Y41226D01*
X289750Y42378D01*
X286766Y42771D01*
D02*
G37*
G36*
X1030482Y26251D02*
X1028698Y25896D01*
X1027186Y24885D01*
X1026176Y23373D01*
X1025821Y21589D01*
X1026176Y19805D01*
X1027186Y18293D01*
X1028698Y17282D01*
X1030482Y16927D01*
X1032266Y17282D01*
X1033779Y18293D01*
X1034789Y19805D01*
X1035144Y21589D01*
X1034789Y23373D01*
X1033779Y24885D01*
X1032266Y25896D01*
X1030482Y26251D01*
D02*
G37*
G36*
X229362Y22768D02*
X227578Y22413D01*
X226066Y21402D01*
X225055Y19890D01*
X224700Y18106D01*
X225055Y16322D01*
X226066Y14810D01*
X227578Y13799D01*
X229362Y13444D01*
X231146Y13799D01*
X232658Y14810D01*
X233669Y16322D01*
X234024Y18106D01*
X233669Y19890D01*
X232658Y21402D01*
X231146Y22413D01*
X229362Y22768D01*
D02*
G37*
%LPD*%
D10*
X1007618Y162778D02*
X1007698Y162698D01*
X319203Y1007185D02*
X323088Y1003300D01*
Y984758D02*
Y1003300D01*
X315130Y1007185D02*
Y1010836D01*
X320805D02*
X322072Y1009569D01*
X315130Y1007185D02*
X319203D01*
X315130Y1010836D02*
X320805D01*
X320740Y1008888D02*
X324866Y1004762D01*
X316230Y1008888D02*
X320740D01*
D24*
X826252Y677929D02*
X826252Y677929D01*
X813175Y683774D02*
X819020Y677929D01*
X804936Y683774D02*
X813175D01*
X819020Y677929D02*
X826252D01*
X767445Y668836D02*
X789997D01*
X804936Y683774D01*
X167330Y680449D02*
X182268Y695388D01*
X144778Y680449D02*
X167330D01*
X196353Y689542D02*
X203584D01*
X182268Y695388D02*
X190508D01*
X196353Y689542D01*
X203584D02*
X203584Y689542D01*
D27*
X606806Y907556D02*
X624092Y890270D01*
X600446Y904758D02*
X614807Y890397D01*
X413766Y976640D02*
Y996442D01*
Y976640D02*
X442478Y947928D01*
X426212Y978154D02*
Y1009396D01*
X413766Y1021842D02*
X426212Y1009396D01*
Y978154D02*
X449834Y954532D01*
X442478Y947928D02*
X575763D01*
X449834Y954532D02*
X578498D01*
X600446Y904758D02*
Y923244D01*
X575763Y947928D02*
X600446Y923244D01*
X606806Y907556D02*
Y926224D01*
X578498Y954532D02*
X606806Y926224D01*
X439166Y980440D02*
X458978Y960628D01*
X439166Y980440D02*
Y996442D01*
X452120Y984758D02*
Y1008888D01*
Y984758D02*
X469646Y967232D01*
X439166Y1021842D02*
X452120Y1008888D01*
X469646Y967232D02*
X590804D01*
X458978Y960628D02*
X585216D01*
X624586Y921258D01*
X590804Y967232D02*
X636143Y921893D01*
D172*
X324866Y1004762D02*
X325628Y1004000D01*
Y988314D02*
Y1004000D01*
D177*
X806055Y886277D02*
D03*
X668575D02*
D03*
X668575Y670207D02*
D03*
X806055D02*
D03*
X183388Y681820D02*
D03*
X45908D02*
D03*
X45908Y897890D02*
D03*
X183388D02*
D03*
D178*
X286766Y996442D02*
D03*
X413766D02*
D03*
X439166D02*
D03*
X642366D02*
D03*
X743966D02*
D03*
X794766D02*
D03*
X286766Y1021842D02*
D03*
X413766D02*
D03*
X439166D02*
D03*
X743966D02*
D03*
X794766D02*
D03*
D181*
X131972Y173736D02*
D03*
D183*
X845566Y513842D02*
D03*
Y31242D02*
D03*
X312166Y539242D02*
D03*
X286766D02*
D03*
X312166Y513842D02*
D03*
X286766D02*
D03*
D184*
X845566Y539242D02*
D03*
X616966Y482092D02*
D03*
X845566Y56642D02*
D03*
D185*
X105918Y540258D02*
D03*
X55118D02*
D03*
X605790Y681228D02*
D03*
Y630428D02*
D03*
D188*
X973102Y503420D02*
D03*
D189*
X943102Y550420D02*
D03*
D192*
X605790Y371154D02*
D03*
X81342Y990818D02*
D03*
X104123D02*
D03*
X125941D02*
D03*
X150100Y991326D02*
D03*
X19815Y896366D02*
D03*
X20548Y916313D02*
D03*
X21545Y938530D02*
D03*
X27940Y962750D02*
D03*
X66856Y973582D02*
D03*
X92461D02*
D03*
X118766D02*
D03*
X142911D02*
D03*
X166878D02*
D03*
X178755Y991635D02*
D03*
X192786Y973074D02*
D03*
X328919Y878810D02*
D03*
X329498Y833507D02*
D03*
X329240Y790334D02*
D03*
X329498Y751330D02*
D03*
X328919Y712567D02*
D03*
X244094Y596990D02*
D03*
X268418Y625223D02*
D03*
X309432Y667689D02*
D03*
X243230Y513086D02*
D03*
X244094Y569815D02*
D03*
X214214Y563626D02*
D03*
X213730Y600710D02*
D03*
X489204Y582676D02*
D03*
X411232Y610786D02*
D03*
X448553Y651256D02*
D03*
X474415Y693925D02*
D03*
X473202Y752856D02*
D03*
X474980Y800862D02*
D03*
X506783Y838962D02*
D03*
X120904Y630428D02*
D03*
X256842Y759462D02*
D03*
X624092Y890270D02*
D03*
X614680D02*
D03*
X826252Y677929D02*
D03*
X827783Y669048D02*
D03*
X645331Y861122D02*
D03*
X203584Y689542D02*
D03*
X205116Y680661D02*
D03*
X22664Y872736D02*
D03*
X507492Y287274D02*
D03*
X387896Y477520D02*
D03*
X845303Y871692D02*
D03*
X265074Y921410D02*
D03*
X629760Y207024D02*
D03*
X723980Y290830D02*
D03*
X733552Y311150D02*
D03*
X15494Y408432D02*
D03*
Y449432D02*
D03*
X16264Y391340D02*
D03*
X27812Y362332D02*
D03*
X70230Y362078D02*
D03*
X83044Y266406D02*
D03*
X624586Y921258D02*
D03*
X636143Y921893D02*
D03*
X224790Y872200D02*
D03*
X213730Y819230D02*
D03*
X239060Y727985D02*
D03*
X763270Y625312D02*
D03*
X862814Y718784D02*
D03*
X874014Y750788D02*
D03*
X866191Y904763D02*
D03*
X845058Y813272D02*
D03*
X233289Y417737D02*
D03*
X108532Y377482D02*
D03*
X47752Y254218D02*
D03*
X33782D02*
D03*
X78698Y222002D02*
D03*
X686840Y274066D02*
D03*
X588874Y300954D02*
D03*
X538734Y336550D02*
D03*
X764466Y481876D02*
D03*
X866446Y358468D02*
D03*
X773684Y311150D02*
D03*
X764398Y291148D02*
D03*
X588598Y229076D02*
D03*
X747482Y199822D02*
D03*
X767294Y190972D02*
D03*
X793496Y207482D02*
D03*
X702564Y200116D02*
D03*
X656438Y170754D02*
D03*
X814324Y126335D02*
D03*
Y112873D02*
D03*
X943484Y17362D02*
D03*
X936534Y74168D02*
D03*
X942086Y94742D02*
D03*
X934720Y105120D02*
D03*
X1021000Y141696D02*
D03*
X1007538Y141950D02*
D03*
X613156Y164948D02*
D03*
X461224Y193512D02*
D03*
X338836Y201992D02*
D03*
X313436Y94724D02*
D03*
X115032Y100040D02*
D03*
X191262D02*
D03*
X244096Y132296D02*
D03*
Y92164D02*
D03*
X223012Y36752D02*
D03*
X71628Y66258D02*
D03*
X65712Y103924D02*
D03*
X12516Y103124D02*
D03*
Y189956D02*
D03*
X65786Y187924D02*
D03*
X264668Y293116D02*
D03*
X419864Y292860D02*
D03*
X264668Y305526D02*
D03*
Y279872D02*
D03*
Y321020D02*
D03*
X250698D02*
D03*
X237236Y321274D02*
D03*
X222758D02*
D03*
X230378Y330164D02*
D03*
X244094Y330418D02*
D03*
X257810Y330164D02*
D03*
X399580Y327658D02*
D03*
X385610Y327404D02*
D03*
X377954Y321018D02*
D03*
X392432D02*
D03*
X405894Y320764D02*
D03*
X419864Y279616D02*
D03*
Y305270D02*
D03*
X387896Y256404D02*
D03*
X417106Y256756D02*
D03*
X403644Y236182D02*
D03*
X463042Y221706D02*
D03*
Y211328D02*
D03*
X257810Y240248D02*
D03*
X238506D02*
D03*
X151130Y251426D02*
D03*
X140208Y328676D02*
D03*
X140462Y313418D02*
D03*
X142912Y244602D02*
D03*
X255016Y161254D02*
D03*
X121920Y198592D02*
D03*
X193294Y199822D02*
D03*
X95250Y53558D02*
D03*
X134366D02*
D03*
X168656Y52796D02*
D03*
X114300Y66004D02*
D03*
X153162Y65750D02*
D03*
X115316Y39842D02*
D03*
X154432D02*
D03*
X177800Y83530D02*
D03*
X383540Y131790D02*
D03*
X405892D02*
D03*
X554228Y96484D02*
D03*
X589026Y95976D02*
D03*
X624332D02*
D03*
X588518Y121122D02*
D03*
X623824Y122138D02*
D03*
X623316Y144744D02*
D03*
X623824Y187162D02*
D03*
X586232Y187670D02*
D03*
X554736Y187162D02*
D03*
X742188Y244312D02*
D03*
X769620Y244820D02*
D03*
X801116Y245074D02*
D03*
X787654Y292064D02*
D03*
X763016Y272760D02*
D03*
X789432D02*
D03*
X644906Y484342D02*
D03*
X640334Y458942D02*
D03*
X351028Y377190D02*
D03*
X126492Y365724D02*
D03*
X33274Y320258D02*
D03*
X54102Y319496D02*
D03*
X37084Y285968D02*
D03*
X75692Y201132D02*
D03*
X76200Y179796D02*
D03*
X81788Y129758D02*
D03*
X100076Y129504D02*
D03*
X601218Y869152D02*
D03*
X213106Y969482D02*
D03*
X233426Y951448D02*
D03*
X214122Y990818D02*
D03*
X251714Y991326D02*
D03*
X233172Y1007836D02*
D03*
X194564Y1008852D02*
D03*
X157988Y1008598D02*
D03*
X120142D02*
D03*
X100330Y1028918D02*
D03*
X137160Y1029172D02*
D03*
X175514Y1028410D02*
D03*
X213360Y1028664D02*
D03*
X250952Y1028918D02*
D03*
X697484Y969228D02*
D03*
X743712Y967704D02*
D03*
X787654Y969228D02*
D03*
X722630Y210276D02*
D03*
X722880Y236184D02*
D03*
Y274284D02*
D03*
X1007698Y162698D02*
D03*
X189150Y488326D02*
D03*
X252984Y485612D02*
D03*
Y460298D02*
D03*
X121532Y445836D02*
D03*
X97282Y500344D02*
D03*
X507486Y218802D02*
D03*
X941680Y927724D02*
D03*
Y878078D02*
D03*
X941956Y862432D02*
D03*
X943226Y757644D02*
D03*
X941940Y827354D02*
D03*
X942216Y811708D02*
D03*
X942338Y706120D02*
D03*
X942062Y721766D02*
D03*
X941956Y912078D02*
D03*
X942950Y773290D02*
D03*
X539750Y125666D02*
D03*
X318008Y395986D02*
D03*
X504946Y375920D02*
D03*
X857122Y390272D02*
D03*
X565658Y452716D02*
D03*
X191262Y451612D02*
D03*
X177800Y316230D02*
D03*
X198059Y389382D02*
D03*
X163830Y415290D02*
D03*
X217424Y630428D02*
D03*
X328422Y918827D02*
D03*
X295910Y732754D02*
D03*
X277876Y692658D02*
D03*
X294386Y830326D02*
D03*
X295910Y781050D02*
D03*
X719328Y333756D02*
D03*
X754126Y332994D02*
D03*
X747482Y392430D02*
D03*
X757214Y453410D02*
D03*
X725876Y392944D02*
D03*
X712876D02*
D03*
X699876D02*
D03*
X693376D02*
D03*
X699876Y361020D02*
D03*
X693674Y454216D02*
D03*
X711557Y455422D02*
D03*
X723980Y456012D02*
D03*
D193*
X806450Y594899D02*
D03*
X178562Y604942D02*
D03*
X802752Y586994D02*
D03*
X52070Y619760D02*
D03*
X694436Y620268D02*
D03*
X178816Y593852D02*
D03*
D194*
X727696Y900176D02*
D03*
X796731Y657296D02*
D03*
X670138Y657295D02*
D03*
X667456Y899841D02*
D03*
X796988Y883092D02*
D03*
X812398Y664249D02*
D03*
X661257Y665422D02*
D03*
X677433Y880830D02*
D03*
X741433Y709410D02*
D03*
Y717410D02*
D03*
X733433Y717410D02*
D03*
X733433Y709410D02*
D03*
X717433Y717410D02*
D03*
X709433Y709410D02*
D03*
X717433D02*
D03*
X709433Y717410D02*
D03*
X717433Y741410D02*
D03*
X717433Y733410D02*
D03*
X709433Y733410D02*
D03*
Y741410D02*
D03*
X741433D02*
D03*
X733433D02*
D03*
X741433Y733410D02*
D03*
X733433D02*
D03*
X767445Y668836D02*
D03*
X712021Y841039D02*
D03*
X706152Y841039D02*
D03*
X712021Y852505D02*
D03*
Y846772D02*
D03*
X706152Y852505D02*
D03*
Y846772D02*
D03*
X729628Y852505D02*
D03*
X723759D02*
D03*
X717890D02*
D03*
X729628Y846772D02*
D03*
X723759D02*
D03*
X729628Y841039D02*
D03*
X723759D02*
D03*
X717890D02*
D03*
X714208Y674304D02*
D03*
X667415Y938387D02*
D03*
X682831Y938471D02*
D03*
X699336Y938555D02*
D03*
X683082Y924396D02*
D03*
X667248Y925569D02*
D03*
X699168Y923809D02*
D03*
X709516Y938220D02*
D03*
X666954Y908555D02*
D03*
X682705D02*
D03*
X695859Y909057D02*
D03*
X706331Y907549D02*
D03*
X716301Y912073D02*
D03*
X715966Y905538D02*
D03*
X715882Y899758D02*
D03*
X716217Y894312D02*
D03*
X715128Y889201D02*
D03*
X706582Y899422D02*
D03*
X705074Y891715D02*
D03*
X693764Y895904D02*
D03*
X699962Y883420D02*
D03*
X684044Y900009D02*
D03*
X713913Y883002D02*
D03*
X714081Y875629D02*
D03*
X704823Y875796D02*
D03*
X688568Y882080D02*
D03*
X666792Y870860D02*
D03*
X666959Y859633D02*
D03*
Y845390D02*
D03*
X666871Y836167D02*
D03*
X676255Y833570D02*
D03*
X666870Y827789D02*
D03*
X663854Y818657D02*
D03*
X662430Y808101D02*
D03*
X673322Y818071D02*
D03*
X676254Y826449D02*
D03*
X683794Y823600D02*
D03*
X685973Y814384D02*
D03*
X691335Y810111D02*
D03*
X697200Y804833D02*
D03*
X716804Y806257D02*
D03*
X691084Y795701D02*
D03*
X686057Y801398D02*
D03*
X677176Y796120D02*
D03*
X670641Y804498D02*
D03*
X676255Y810530D02*
D03*
X706415Y787742D02*
D03*
X695272Y787240D02*
D03*
X686056Y790591D02*
D03*
X673992Y788329D02*
D03*
X670598Y708820D02*
D03*
X671647Y697594D02*
D03*
X670809Y684357D02*
D03*
X755009Y673758D02*
D03*
X804690Y735211D02*
D03*
X804481Y748491D02*
D03*
X802847Y760514D02*
D03*
X803517Y773499D02*
D03*
X796144Y784810D02*
D03*
X794887Y793355D02*
D03*
X812398Y793020D02*
D03*
X804481Y787030D02*
D03*
X780478Y802195D02*
D03*
X768035Y800102D02*
D03*
X738504Y810405D02*
D03*
X734482Y794194D02*
D03*
X733778Y805638D02*
D03*
X742943Y816144D02*
D03*
X787347Y811285D02*
D03*
X812063Y823434D02*
D03*
X805779Y811453D02*
D03*
X791285Y856107D02*
D03*
X811895Y855604D02*
D03*
X801422Y867334D02*
D03*
X789942Y866664D02*
D03*
X787096Y880907D02*
D03*
X794469Y874037D02*
D03*
X784499Y892804D02*
D03*
X776959Y904700D02*
D03*
X771932Y897662D02*
D03*
X764057Y905035D02*
D03*
X758695Y898081D02*
D03*
X757186Y880488D02*
D03*
X748808Y881242D02*
D03*
X744536Y897328D02*
D03*
X727361Y889452D02*
D03*
X727780Y894982D02*
D03*
X790699Y907214D02*
D03*
X806366Y906292D02*
D03*
X790531Y918189D02*
D03*
X806031Y918775D02*
D03*
X806198Y929248D02*
D03*
X790699Y928661D02*
D03*
X790447Y939470D02*
D03*
X805946Y938967D02*
D03*
X717890Y846772D02*
D03*
X725433Y725410D02*
D03*
Y733410D02*
D03*
X725433Y741410D02*
D03*
Y717410D02*
D03*
Y709410D02*
D03*
X733433Y725410D02*
D03*
X741433D02*
D03*
X717433Y725410D02*
D03*
X709433D02*
D03*
X719318Y670199D02*
D03*
X779479Y705553D02*
D03*
X769007Y719460D02*
D03*
X709013Y806090D02*
D03*
X144778Y680449D02*
D03*
X91541Y685917D02*
D03*
X44748Y950000D02*
D03*
X60164Y950084D02*
D03*
X76669Y950168D02*
D03*
X60415Y936009D02*
D03*
X44581Y937182D02*
D03*
X76501Y935422D02*
D03*
X86849Y949833D02*
D03*
X44287Y920168D02*
D03*
X60038D02*
D03*
X73192Y920670D02*
D03*
X83664Y919162D02*
D03*
X93634Y923686D02*
D03*
X93299Y917151D02*
D03*
X93215Y911371D02*
D03*
X93550Y905925D02*
D03*
X92461Y900814D02*
D03*
X83915Y911035D02*
D03*
X82407Y903328D02*
D03*
X71097Y907517D02*
D03*
X44789Y911454D02*
D03*
X54766Y892443D02*
D03*
X77295Y895033D02*
D03*
X61377Y911622D02*
D03*
X91246Y894615D02*
D03*
X91414Y887242D02*
D03*
X82156Y887409D02*
D03*
X65901Y893693D02*
D03*
X44125Y882473D02*
D03*
X44292Y871246D02*
D03*
Y857003D02*
D03*
X44204Y847780D02*
D03*
X53588Y845183D02*
D03*
X44203Y839402D02*
D03*
X41187Y830270D02*
D03*
X39763Y819714D02*
D03*
X50655Y829684D02*
D03*
X53587Y838062D02*
D03*
X61127Y835213D02*
D03*
X63306Y825997D02*
D03*
X68668Y821724D02*
D03*
X74533Y816446D02*
D03*
X94137Y817870D02*
D03*
X68417Y807314D02*
D03*
X63390Y813011D02*
D03*
X54509Y807733D02*
D03*
X47974Y816111D02*
D03*
X53588Y822143D02*
D03*
X83748Y799355D02*
D03*
X72605Y798853D02*
D03*
X63389Y802204D02*
D03*
X51325Y799942D02*
D03*
X47931Y720433D02*
D03*
X48980Y709207D02*
D03*
X48142Y695970D02*
D03*
X38590Y677035D02*
D03*
X47471Y668908D02*
D03*
X174064Y668909D02*
D03*
X189731Y675862D02*
D03*
X132342Y685371D02*
D03*
X182023Y746824D02*
D03*
X181814Y760104D02*
D03*
X180180Y772127D02*
D03*
X180850Y785112D02*
D03*
X173477Y796423D02*
D03*
X172220Y804968D02*
D03*
X189731Y804633D02*
D03*
X181814Y798643D02*
D03*
X157811Y813808D02*
D03*
X145368Y811715D02*
D03*
X115837Y822018D02*
D03*
X111815Y805807D02*
D03*
X111111Y817251D02*
D03*
X120276Y827757D02*
D03*
X164680Y822898D02*
D03*
X189396Y835047D02*
D03*
X183112Y823066D02*
D03*
X168618Y867720D02*
D03*
X189228Y867217D02*
D03*
X178755Y878947D02*
D03*
X167275Y878277D02*
D03*
X164429Y892520D02*
D03*
X174321Y894705D02*
D03*
X171802Y885650D02*
D03*
X161832Y904417D02*
D03*
X154292Y916313D02*
D03*
X149265Y909275D02*
D03*
X141390Y916648D02*
D03*
X136028Y909694D02*
D03*
X134519Y892101D02*
D03*
X126141Y892855D02*
D03*
X121869Y908941D02*
D03*
X104694Y901065D02*
D03*
X105113Y906595D02*
D03*
X105029Y911789D02*
D03*
X168032Y918827D02*
D03*
X183699Y917905D02*
D03*
X167864Y929802D02*
D03*
X183364Y930388D02*
D03*
X183531Y940861D02*
D03*
X168032Y940274D02*
D03*
X167780Y951083D02*
D03*
X183279Y950580D02*
D03*
X95223Y858385D02*
D03*
Y864118D02*
D03*
X102766Y737023D02*
D03*
X101092Y858385D02*
D03*
X106961D02*
D03*
X89354D02*
D03*
X83485D02*
D03*
X95223Y852652D02*
D03*
X83485Y852652D02*
D03*
X89354Y852652D02*
D03*
X83485Y864118D02*
D03*
X89354D02*
D03*
X106961D02*
D03*
X101092D02*
D03*
X106961Y852652D02*
D03*
X101092D02*
D03*
X102766Y745023D02*
D03*
X102766Y753023D02*
D03*
Y729023D02*
D03*
Y721023D02*
D03*
X110766D02*
D03*
X110766Y729023D02*
D03*
X110766Y745023D02*
D03*
X110766Y753023D02*
D03*
Y737023D02*
D03*
X118766Y721023D02*
D03*
Y729023D02*
D03*
Y745023D02*
D03*
Y753023D02*
D03*
Y737023D02*
D03*
X94766Y721023D02*
D03*
Y745023D02*
D03*
X94766Y753023D02*
D03*
Y737023D02*
D03*
X86766Y721023D02*
D03*
X86766Y729023D02*
D03*
Y745023D02*
D03*
Y753023D02*
D03*
Y737023D02*
D03*
X96651Y681812D02*
D03*
X156812Y717166D02*
D03*
X146340Y731073D02*
D03*
X94766Y729023D02*
D03*
X86346Y817703D02*
D03*
D195*
X922426Y398932D02*
D03*
X912114Y364744D02*
D03*
X901954Y367284D02*
D03*
X879348Y367030D02*
D03*
X818388Y429006D02*
D03*
D196*
X1022365Y104579D02*
D03*
X1001029Y115501D02*
D03*
X747778Y101094D02*
D03*
Y107698D02*
D03*
X741387D02*
D03*
Y101094D02*
D03*
X757214Y113286D02*
D03*
X750531D02*
D03*
X787869Y132844D02*
D03*
X776947Y111508D02*
D03*
X1020587Y78163D02*
D03*
Y84846D02*
D03*
X1032779Y69019D02*
D03*
X1026175D02*
D03*
Y75410D02*
D03*
X1032779D02*
D03*
M02*
